<svg xmlns="http://www.w3.org/2000/svg" width="64" height="75" viewBox="0 0 64 75" fill="none">
  <path d="M0.108776 9.00107C0.109372 6.81557 0.978106 4.71982 2.52387 3.17487C4.06962 1.62991 6.16579 0.762293 8.35123 0.762889C10.5367 0.763485 12.6324 1.63224 14.1773 3.17804C15.7222 4.72384 16.5898 6.82007 16.5892 9.00556L8.34898 9.00332L0.108776 9.00107Z" fill="#005F8D"/>
  <path fill-rule="evenodd" clip-rule="evenodd" d="M8.29326 0.867182L52.0136 0.879107C54.1128 1.51652 54.6375 2.03771 56.2116 3.89077C57.7856 5.74382 57.9429 6.61228 58.0473 8.63862L58.0294 74.1988L19.7523 74.1884L21.0345 74.1776C16.7752 74.1766 16.5225 69.4487 16.5245 65.9072L16.5153 67.6349L16.531 9.78519C16.1122 5.84824 15.64 5.21128 14.1184 3.53192C12.5968 1.85256 11.0749 1.15741 8.29326 0.867182Z" fill="#20B1D1"/>
  <path d="M25.5478 51.7187L21.9776 45.8143L21.978 44.423L23.077 44.4233C23.5166 44.4234 23.9013 44.3609 24.231 44.2356C24.573 44.0978 24.8539 43.9036 25.0738 43.653C25.3059 43.4024 25.4647 43.1016 25.5503 42.7507L21.9785 42.7497L21.9788 41.3585L25.5323 41.3594C25.4591 41.0335 25.331 40.7452 25.1479 40.4945C24.977 40.2438 24.7451 40.0494 24.452 39.9115C24.1712 39.761 23.8293 39.6857 23.4263 39.6856L21.9793 39.6852L21.9797 38.2939L30.2406 38.2962L30.2402 39.6875L27.3645 39.6867C27.572 39.9249 27.7429 40.1819 27.8771 40.4576C28.0236 40.7334 28.1212 41.0343 28.17 41.3602L30.2398 41.3607L30.2394 42.752L28.2062 42.7514C28.0838 43.6789 27.7356 44.4058 27.1616 44.932C26.5875 45.4458 25.354 45.7964 24.4504 45.9842L28.1671 51.7194L25.5478 51.7187Z" fill="#CCEDFA"/>
  <path d="M21.9876 9.05908L52.2918 9.06735" stroke="#99DBEA" stroke-width="2.22757" stroke-linecap="round"/>
  <path d="M21.9861 14.6836L52.2902 14.6919" stroke="#99DBEA" stroke-width="2.22757" stroke-linecap="round"/>
  <path d="M21.985 20.312L52.2891 20.3203" stroke="#99DBEA" stroke-width="2.22757" stroke-linecap="round"/>
  <path d="M21.9831 26.0645L52.2872 26.0727" stroke="#99DBEA" stroke-width="2.22757" stroke-linecap="round"/>
  <path d="M21.9812 32.1992L37.1351 32.2034" stroke="#99DBEA" stroke-width="2.22757" stroke-linecap="round"/>
  <path d="M23.3583 66.5856C23.9085 71.9497 21.9102 73.9152 20.8422 74.2275L60.6775 74.2384C63.274 74.2391 63.8901 69.8049 63.891 66.5967L23.3583 66.5856Z" fill="#005F8D"/>
</svg>