<svg xmlns="http://www.w3.org/2000/svg" width="24" height="24" viewBox="0 0 24 24" fill="none">
  <path d="M17.9429 7.86946L18.8888 10.6653H14.375V6.41632H15.8973C16.3499 6.41636 16.791 6.55673 17.1582 6.81753C17.5253 7.07834 17.7999 7.44636 17.9429 7.86946ZM19.3674 12.0816L19.3717 12.0957L19.7541 12.1892L19.9295 12.2317C20.3962 12.3467 20.8104 12.6122 21.1063 12.9858C21.4022 13.3595 21.5628 13.8199 21.5625 14.2939V16.6846C21.5625 16.9112 21.4906 17.1237 21.3656 17.2965C21.1083 16.5624 20.6132 15.932 19.9566 15.5024C19.3 15.0728 18.5182 14.8678 17.7317 14.919C16.9452 14.9702 16.1976 15.2748 15.604 15.7857C15.0105 16.2967 14.6039 16.9858 14.4469 17.7468H8.55312C8.39613 16.9858 7.98954 16.2967 7.39598 15.7857C6.80242 15.2748 6.05481 14.9702 5.26831 14.919C4.48181 14.8678 3.70004 15.0728 3.0434 15.5024C2.38677 15.932 1.8917 16.5624 1.63444 17.2965C1.50632 17.1174 1.43754 16.9037 1.4375 16.6846V14.9666C1.43734 14.4983 1.59426 14.043 1.88387 13.6716C2.17347 13.3002 2.57952 13.0335 3.03887 12.913L6.20425 12.0816H19.3674ZM7.3715 10.6653L9.15112 7.50971C9.33764 7.17866 9.61056 6.90273 9.94165 6.71049C10.2727 6.51826 10.6499 6.41669 11.0342 6.41632H12.9375V10.6653H7.3715ZM3.14259e-09 16.6846C3.14259e-09 17.6859 0.60375 18.5485 1.47056 18.9394C1.58568 19.768 1.9948 20.5298 2.62543 21.0896C3.25606 21.6495 4.06748 21.9714 4.91593 21.9982C5.76437 22.025 6.59506 21.755 7.2608 21.2361C7.92654 20.7172 8.38436 19.9828 8.55312 19.1632H14.4469C14.6156 19.9828 15.0735 20.7172 15.7392 21.2361C16.4049 21.755 17.2356 22.025 18.0841 21.9982C18.9325 21.9714 19.7439 21.6495 20.3746 21.0896C21.0052 20.5298 21.4143 19.768 21.5294 18.9394C21.9681 18.742 22.34 18.4245 22.6007 18.0247C22.8614 17.625 23 17.1598 23 16.6846V14.2939C23 13.5411 22.7566 12.808 22.305 12.2008C21.8534 11.5937 21.2172 11.1441 20.4887 10.9174L19.3056 7.42048C19.0671 6.71598 18.6098 6.10319 17.9985 5.66881C17.3871 5.23444 16.6525 5.00047 15.8988 5H11.0357C10.3944 4.99961 9.76466 5.1683 9.21185 5.48857C8.65905 5.80885 8.20329 6.26903 7.89187 6.82138L5.67812 10.7545L2.66944 11.5448C1.90392 11.7455 1.22718 12.1899 0.744425 12.8087C0.261672 13.4275 -3.31135e-05 14.1861 3.14259e-09 14.9666V16.6846ZM17.9688 16.3305C18.5406 16.3305 19.0891 16.5544 19.4935 16.9528C19.8978 17.3512 20.125 17.8916 20.125 18.455C20.125 19.0184 19.8978 19.5588 19.4935 19.9572C19.0891 20.3556 18.5406 20.5795 17.9688 20.5795C17.3969 20.5795 16.8484 20.3556 16.444 19.9572C16.0397 19.5588 15.8125 19.0184 15.8125 18.455C15.8125 17.8916 16.0397 17.3512 16.444 16.9528C16.8484 16.5544 17.3969 16.3305 17.9688 16.3305ZM5.03125 16.3305C5.60312 16.3305 6.15157 16.5544 6.55595 16.9528C6.96032 17.3512 7.1875 17.8916 7.1875 18.455C7.1875 19.0184 6.96032 19.5588 6.55595 19.9572C6.15157 20.3556 5.60312 20.5795 5.03125 20.5795C4.45938 20.5795 3.91093 20.3556 3.50655 19.9572C3.10218 19.5588 2.875 19.0184 2.875 18.455C2.875 17.8916 3.10218 17.3512 3.50655 16.9528C3.91093 16.5544 4.45938 16.3305 5.03125 16.3305Z" fill="black"/>
</svg>