<svg xmlns="http://www.w3.org/2000/svg" width="39" height="48" viewBox="0 0 39 48" fill="none">
  <path d="M2.36465 7.44971L28.3884 33.1556L27.6001 34.6649L19.824 29.6357C13.8867 25.0024 4.63007 15.6866 2.50617 12.3379C0.807046 9.65887 1.70385 7.96282 2.36465 7.44971Z" fill="#47447C"/>
  <path d="M3.91121 11.5854C2.82108 10.4396 3.30933 9.22778 3.68972 8.76514L19.8029 24.7626C12.5727 21.9485 5.27388 13.0176 3.91121 11.5854Z" fill="#7E79D0"/>
  <path d="M25.6683 33.358L27.2129 34.4465L28.2352 33.0376L24.8857 29.6782L25.6683 33.358Z" fill="#5F5BA9"/>
  <path d="M29.3468 4.12711L2.11401 4.1346C1.77895 4.13469 1.5074 4.40855 1.50749 4.74629L1.51209 21.7317C1.51218 22.0694 1.78387 22.3431 2.11893 22.343L29.3517 22.3355C29.6868 22.3355 29.9584 22.0616 29.9583 21.7239L29.9537 4.73846C29.9536 4.40073 29.6819 4.12702 29.3468 4.12711Z" fill="#FF7171"/>
  <path d="M3.54834 17.815L9.18961 17.8135" stroke="#004364" stroke-width="1.26126"/>
  <path d="M10.9932 17.8121L20.2446 17.8096" stroke="#004364" stroke-width="1.26126"/>
  <path d="M8.13932 11.8669L3.78161 11.8681C3.61408 11.8681 3.47831 12.0051 3.47835 12.1739L3.47899 14.519C3.47903 14.6879 3.61488 14.8248 3.78241 14.8247L8.14012 14.8235C8.30765 14.8235 8.44342 14.6865 8.44338 14.5177L8.44274 12.1726C8.4427 12.0037 8.30685 11.8668 8.13932 11.8669Z" fill="#FFEDA0"/>
  <path d="M26.1507 0.802734L16.9724 36.3455L18.4191 37.2302L22.5162 28.8831C25.2393 21.8298 28.4161 9.03963 28.5262 5.06658C28.6144 1.88818 26.9793 0.899685 26.1507 0.802734Z" fill="#5F5BA9"/>
  <path d="M26.9369 5.15128C27.2862 3.60325 26.2486 2.81785 25.6862 2.61865L20.0447 24.6952C24.8054 18.5304 26.5003 7.08626 26.9369 5.15128Z" fill="#B2AFEB"/>
  <path fill-rule="evenodd" clip-rule="evenodd" d="M17.0296 46.347C14.2078 47.1355 11.286 45.4689 10.5036 42.6244C9.72128 39.7799 11.3747 36.8347 14.1966 36.0462C17.0185 35.2576 19.9403 36.9243 20.7226 39.7688C21.5049 42.6133 19.8516 45.5584 17.0296 46.347ZM16.6194 44.8541C14.6153 45.4141 12.5403 44.2305 11.9846 42.2103C11.429 40.1902 12.6033 38.0985 14.6074 37.5385C16.6115 36.9785 18.6866 38.1621 19.2422 40.1823C19.7978 42.2025 18.6236 44.2941 16.6194 44.8541Z" fill="#7E79D0"/>
  <path fill-rule="evenodd" clip-rule="evenodd" d="M32.7201 42.4964C29.8982 43.285 26.9764 41.6183 26.1941 38.7738C25.4117 35.9293 27.0651 32.9842 29.887 32.1956C32.7089 31.407 35.6307 33.0737 36.413 35.9182C37.1954 38.7627 35.542 41.7078 32.7201 42.4964ZM32.3099 41.0036C30.3058 41.5636 28.2307 40.3799 27.6751 38.3597C27.1195 36.3396 28.2937 34.2479 30.2978 33.6879C32.3019 33.1279 34.377 34.3115 34.9326 36.3317C35.4883 38.3519 34.314 40.4435 32.3099 41.0036Z" fill="#7E79D0"/>
  <path d="M19.4071 35.1076L18.639 36.8423L17.043 36.165L18.1983 31.5469L19.4071 35.1076Z" fill="#7E79D0"/>
  <path d="M21.1217 28.6117C20.6921 28.7318 20.2473 28.4781 20.1282 28.045C20.0091 27.612 20.2608 27.1636 20.6904 27.0435C21.12 26.9235 21.5648 27.1772 21.6839 27.6103C21.803 28.0433 21.5513 28.4917 21.1217 28.6117Z" fill="#47447C"/>
</svg>