<svg xmlns="http://www.w3.org/2000/svg" width="48" height="71" viewBox="0 0 48 71" fill="none">
  <rect x="0.267761" y="5.19873" width="47.4645" height="65.6875" rx="3.2006" fill="#004364"/>
  <rect x="2.38629" y="7.31787" width="43.2266" height="58.9068" fill="white"/>
  <path d="M33.2755 3.08008H14.7242C14.6978 3.08008 14.6765 3.08369 14.6765 3.08814V8.58129C14.6765 8.58574 14.6978 8.58935 14.7242 8.58935H33.2755C33.3019 8.58935 33.3232 8.58574 33.3232 8.58129V3.08814C33.3232 3.08369 33.3019 3.08008 33.2755 3.08008Z" fill="#005F8D"/>
  <circle cx="24.2119" cy="4.13929" r="4.02601" fill="#005F8D"/>
  <rect x="10.8622" y="34.8643" width="26.275" height="1.69516" rx="0.84758" fill="#E6F6FA"/>
  <rect x="10.8622" y="39.9497" width="26.275" height="1.69516" rx="0.84758" fill="#E6F6FA"/>
  <rect x="10.8622" y="45.0352" width="15.8484" height="1.69516" rx="0.84758" fill="#E6F6FA"/>
  <rect x="7.04796" y="59.0205" width="15.8484" height="1.69516" rx="0.84758" fill="#004364"/>
  <circle cx="24.2119" cy="22.7859" r="7.84012" fill="#00A6CA"/>
  <path fill-rule="evenodd" clip-rule="evenodd" d="M28.6613 25.6289C28.6613 23.6917 24.6324 23.4945 24.6324 23.4945C24.4213 23.474 24.2644 23.4638 24.0912 23.4638C22.6462 23.4638 19.7617 24.1509 19.7617 25.5149V26.5405H24.6324C24.6324 26.5405 27.4586 26.5405 28.6613 26.5405C28.6613 26.5405 28.6613 27.5661 28.6613 25.6289ZM24.0912 22.4382C25.2873 22.4382 26.256 21.5203 26.256 20.3871C26.256 19.2538 25.2873 18.3359 24.0912 18.3359C22.8952 18.3359 21.9265 19.2538 21.9265 20.3871C21.9265 21.5203 22.8952 22.4382 24.0912 22.4382Z" fill="white"/>
</svg>