<svg xmlns="http://www.w3.org/2000/svg" width="24" height="24" viewBox="0 0 24 24" fill="none">
  <path fill-rule="evenodd" clip-rule="evenodd" d="M9.94386 3.25H14.0559C15.8939 3.25 17.3499 3.25 18.4889 3.403C19.6609 3.561 20.6099 3.893 21.3589 4.641C22.1069 5.39 22.4389 6.339 22.5969 7.511C22.6869 8.184 22.7239 8.967 22.7389 9.874C22.7519 9.95001 22.7533 10.0276 22.7429 10.104C22.7499 10.67 22.7499 11.282 22.7499 11.944V12.056C22.7499 13.894 22.7499 15.35 22.5969 16.489C22.4389 17.661 22.1069 18.61 21.3589 19.359C20.6099 20.107 19.6609 20.439 18.4889 20.597C17.3489 20.75 15.8939 20.75 14.0559 20.75H9.94386C8.10586 20.75 6.64986 20.75 5.51086 20.597C4.33886 20.439 3.38986 20.107 2.64086 19.359C1.89286 18.61 1.56086 17.661 1.40286 16.489C1.24986 15.349 1.24986 13.894 1.24986 12.056V11.944C1.24986 11.282 1.24986 10.67 1.25686 10.104C1.24614 10.0276 1.24715 9.95007 1.25986 9.874C1.27586 8.967 1.31286 8.184 1.40286 7.511C1.56086 6.339 1.89286 5.39 2.64086 4.641C3.38986 3.893 4.33886 3.561 5.51086 3.403C6.65086 3.25 8.10586 3.25 9.94386 3.25ZM2.75186 10.75C2.74986 11.138 2.74986 11.554 2.74986 12C2.74986 13.907 2.75186 15.262 2.88986 16.29C3.02486 17.295 3.27886 17.875 3.70186 18.298C4.12486 18.721 4.70486 18.975 5.71086 19.11C6.73886 19.248 8.09286 19.25 9.99986 19.25H13.9999C15.9069 19.25 17.2619 19.248 18.2899 19.11C19.2949 18.975 19.8749 18.721 20.2979 18.298C20.7209 17.875 20.9749 17.295 21.1099 16.289C21.2479 15.261 21.2499 13.907 21.2499 12C21.2499 11.554 21.2499 11.138 21.2479 10.75H2.75186ZM21.2239 9.25H2.77586C2.79586 8.663 2.82986 8.156 2.88986 7.71C3.02486 6.705 3.27886 6.125 3.70186 5.702C4.12486 5.279 4.70486 5.025 5.71086 4.89C6.73886 4.752 8.09286 4.75 9.99986 4.75H13.9999C15.9069 4.75 17.2619 4.752 18.2899 4.89C19.2949 5.025 19.8749 5.279 20.2979 5.702C20.7209 6.125 20.9749 6.705 21.1099 7.711C21.1699 8.156 21.2039 8.663 21.2239 9.25ZM5.24986 16C5.24986 15.8011 5.32888 15.6103 5.46953 15.4697C5.61019 15.329 5.80095 15.25 5.99986 15.25H9.99986C10.1988 15.25 10.3895 15.329 10.5302 15.4697C10.6708 15.6103 10.7499 15.8011 10.7499 16C10.7499 16.1989 10.6708 16.3897 10.5302 16.5303C10.3895 16.671 10.1988 16.75 9.99986 16.75H5.99986C5.80095 16.75 5.61019 16.671 5.46953 16.5303C5.32888 16.3897 5.24986 16.1989 5.24986 16ZM11.7499 16C11.7499 15.8011 11.8289 15.6103 11.9695 15.4697C12.1102 15.329 12.301 15.25 12.4999 15.25H13.9999C14.1988 15.25 14.3895 15.329 14.5302 15.4697C14.6708 15.6103 14.7499 15.8011 14.7499 16C14.7499 16.1989 14.6708 16.3897 14.5302 16.5303C14.3895 16.671 14.1988 16.75 13.9999 16.75H12.4999C12.301 16.75 12.1102 16.671 11.9695 16.5303C11.8289 16.3897 11.7499 16.1989 11.7499 16Z" fill="black"/>
</svg>