      <svg xmlns="http://www.w3.org/2000/svg" width="60" height="88" viewBox="0 0 60 88" fill="none">
        <g clip-path="url(#clip0_119_2775)">
          <path
            d="M57.2988 6.38818H2.26224C1.08403 6.38818 0.128906 7.33613 0.128906 8.50548V85.7252C0.128906 86.8945 1.08403 87.8424 2.26224 87.8424H57.2988C58.477 87.8424 59.4321 86.8945 59.4321 85.7252V8.50548C59.4321 7.33613 58.477 6.38818 57.2988 6.38818Z"
            fill="#004364" />
          <path d="M56.7843 9.01562H2.776V82.0616H56.7843V9.01562Z" fill="white" />
          <path
            d="M50.5169 38.7455C50.5169 35.7617 49.821 32.817 48.4819 30.1348L46.9701 30.854C48.1973 33.3122 48.8351 36.0109 48.8351 38.7455H50.5169Z"
            fill="#008A00" />
          <path
            d="M48.21 29.6108C47.0841 27.5168 45.5803 25.6385 43.771 24.0659L42.6527 25.2922C44.3109 26.7333 45.689 28.4548 46.7208 30.3739L48.21 29.6108Z"
            fill="#A9D161" />
          <path
            d="M43.432 23.7774C41.608 22.2621 39.5217 21.0767 37.2711 20.2769L36.6958 21.8196C38.7583 22.5526 40.6704 23.639 42.342 25.0277L43.432 23.7774Z"
            fill="#FCD800" />
          <path
            d="M36.9532 20.1666C34.786 19.4363 32.507 19.0727 30.2144 19.0915L30.2285 20.7333C32.3296 20.716 34.4182 21.0492 36.4044 21.7185L36.9532 20.1666Z"
            fill="#FF871F" />
          <path
            d="M10.2496 38.7459C10.2496 33.6347 12.2892 28.7245 15.9359 25.0568C19.5825 21.3892 24.5492 19.2525 29.7827 19.1001L29.8328 20.7411C25.0366 20.8808 20.4847 22.839 17.1427 26.2003C13.8007 29.5616 11.9314 34.0616 11.9314 38.7459H10.2496Z"
            fill="#E15825" />
          <path fill-rule="evenodd" clip-rule="evenodd"
            d="M35.0002 38.7457H44.1267C44.579 34.05 39.9049 25.6699 30.6319 25.6699C20.228 25.6699 16.6094 34.05 16.6094 38.7457H25.7836C25.9727 37.1371 27.2594 34.7653 30.4666 34.7653C33.3251 34.7653 34.882 37.1371 35.0002 38.7457Z"
            fill="#F8D0D8" />
          <path
            d="M39.0155 24.3355C39.198 24.2217 39.434 24.3585 39.4238 24.5722L39.299 27.1741C39.2898 27.3673 39.0818 27.4857 38.9091 27.3961L36.6999 26.2497C36.5175 26.1551 36.5073 25.8998 36.6816 25.7911L39.0155 24.3355Z"
            fill="#004364" />
          <path
            d="M41.369 3.76074H18.1906C18.1577 3.76074 18.131 3.76521 18.131 3.77074V10.5824C18.131 10.5879 18.1577 10.5924 18.1906 10.5924H41.369C41.402 10.5924 41.4286 10.5879 41.4286 10.5824V3.77074C41.4286 3.76521 41.402 3.76074 41.369 3.76074Z"
            fill="#005F8D" />
          <path
            d="M30.0447 10.0667C32.8228 10.0667 35.0749 7.83159 35.0749 5.07439C35.0749 2.31719 32.8228 0.0820312 30.0447 0.0820312C27.2666 0.0820312 25.0145 2.31719 25.0145 5.07439C25.0145 7.83159 27.2666 10.0667 30.0447 10.0667Z"
            fill="#005F8D" />
          <path
            d="M49.4578 47.1152H11.3086C10.7238 47.1152 10.2496 47.5858 10.2496 48.1663C10.2496 48.7467 10.7238 49.2173 11.3086 49.2173H49.4578C50.0427 49.2173 50.5168 48.7467 50.5168 48.1663C50.5168 47.5858 50.0427 47.1152 49.4578 47.1152Z"
            fill="#CCEDFA" />
          <path
            d="M49.4578 53.4214H11.3086C10.7238 53.4214 10.2496 53.8919 10.2496 54.4724C10.2496 55.0529 10.7238 55.5234 11.3086 55.5234H49.4578C50.0427 55.5234 50.5168 55.0529 50.5168 54.4724C50.5168 53.8919 50.0427 53.4214 49.4578 53.4214Z"
            fill="#CCEDFA" />
          <path
            d="M49.4578 59.7275H11.3086C10.7238 59.7275 10.2496 60.1981 10.2496 60.7786C10.2496 61.359 10.7238 61.8296 11.3086 61.8296H49.4578C50.0427 61.8296 50.5168 61.359 50.5168 60.7786C50.5168 60.1981 50.0427 59.7275 49.4578 59.7275Z"
            fill="#CCEDFA" />
          <path
            d="M33.4788 66.0337H11.3086C10.7238 66.0337 10.2496 66.5042 10.2496 67.0847C10.2496 67.6652 10.7238 68.1357 11.3086 68.1357H33.4788C34.0636 68.1357 34.5378 67.6652 34.5378 67.0847C34.5378 66.5042 34.0636 66.0337 33.4788 66.0337Z"
            fill="#CCEDFA" />
        </g>
        <defs>
          <clipPath id="clip0_119_2775">
            <rect width="60" height="88" fill="white" />
          </clipPath>
        </defs>
      </svg>