<svg xmlns="http://www.w3.org/2000/svg" width="16" height="14" viewBox="0 0 16 14" fill="none">
  <path d="M5.15375 5.7536L4.08147 6.79163L6.60212 9.23176C6.6725 9.29995 6.75608 9.35405 6.84807 9.39096C6.94007 9.42787 7.03867 9.44686 7.13826 9.44686C7.23784 9.44686 7.33644 9.42787 7.42844 9.39096C7.52043 9.35405 7.60401 9.29995 7.6744 9.23176L16 1.17209L14.9277 0.134064L7.13897 7.67541L5.15375 5.7536ZM12.7214 6.42338C12.8414 7.51718 12.6158 8.62047 12.0745 9.58758C11.5332 10.5547 10.7017 11.3402 9.68971 11.8403C8.67771 12.3404 7.53283 12.5316 6.40622 12.3887C5.27962 12.2458 4.22427 11.7755 3.37951 11.0399C2.53475 10.3043 1.9403 9.33801 1.67465 8.26855C1.40901 7.1991 1.48465 6.07679 1.8916 5.04982C2.29855 4.02285 3.01766 3.1395 3.954 2.5164C4.89034 1.8933 5.99987 1.55975 7.1361 1.55979C8.27315 1.55873 9.38343 1.89373 10.3185 2.52L11.4051 1.46808C10.0525 0.489407 8.38502 0.0069716 6.69945 0.106592C5.01387 0.206212 3.41945 0.881429 2.19981 2.01213C0.980169 3.14283 0.2144 4.65569 0.0387223 6.28159C-0.136955 7.9075 0.288851 9.54102 1.24039 10.8916C2.19194 12.2421 3.60752 13.2221 5.23531 13.6572C6.86311 14.0924 8.59758 13.9544 10.1302 13.2679C11.6628 12.5813 12.8941 11.3908 13.6051 9.90799C14.3162 8.4252 14.4608 6.7463 14.0133 5.16997L12.7214 6.42338Z" fill="#008A00"/>
</svg>