<svg width="358" height="181" viewBox="0 0 358 181" fill="none" xmlns="http://www.w3.org/2000/svg">
<g filter="url(#filter0_d_1006_1766)">
<ellipse cx="81.1923" cy="70.4812" rx="59.5339" ry="59.2362" transform="rotate(88.1152 81.1923 70.4812)" fill="white"/>
</g>
<g filter="url(#filter1_d_1006_1766)">
<path d="M132.962 99.4542C138.029 90.3273 140.767 79.7413 140.398 68.533C139.317 35.6711 111.934 9.90351 79.2362 10.9795C46.5387 12.0555 20.9087 39.5676 21.9901 72.4295C22.2992 81.8239 24.7579 90.6385 28.8758 98.412" stroke="url(#paint0_linear_1006_1766)" stroke-width="6" stroke-linecap="round"/>
</g>
<g filter="url(#filter2_d_1006_1766)">
<circle cx="135.57" cy="47.3229" r="4.15435" transform="rotate(88.1152 135.57 47.3229)" fill="#26CA82"/>
<circle cx="135.57" cy="47.3229" r="3.15435" transform="rotate(88.1152 135.57 47.3229)" stroke="white" stroke-width="2"/>
</g>
<path d="M48.0576 43.4512C48.0576 42.9045 48.1476 42.4078 48.3276 41.9612C48.5143 41.5145 48.7676 41.1345 49.0876 40.8212C49.4076 40.5078 49.781 40.2678 50.2076 40.1012C50.641 39.9345 51.1043 39.8545 51.5976 39.8612C51.9376 39.8612 52.271 39.9078 52.5976 40.0012C52.9243 40.0878 53.2243 40.2245 53.4976 40.4112C53.7776 40.5912 54.021 40.8178 54.2276 41.0912C54.441 41.3645 54.601 41.6845 54.7076 42.0512H53.8976C53.6843 41.5712 53.3743 41.2145 52.9676 40.9812C52.561 40.7478 52.1043 40.6312 51.5976 40.6312C51.1976 40.6245 50.831 40.6912 50.4976 40.8312C50.1643 40.9712 49.881 41.1678 49.6476 41.4212C49.4143 41.6745 49.231 41.9745 49.0976 42.3212C48.971 42.6678 48.9076 43.0445 48.9076 43.4512C48.9076 43.8445 48.971 44.2145 49.0976 44.5612C49.2243 44.9012 49.4043 45.1978 49.6376 45.4512C49.8776 45.7045 50.161 45.9045 50.4876 46.0512C50.821 46.1912 51.1876 46.2612 51.5876 46.2612C52.1276 46.2612 52.6076 46.1312 53.0276 45.8712C53.4476 45.6045 53.751 45.2178 53.9376 44.7112H54.7476C54.6476 45.1045 54.491 45.4478 54.2776 45.7412C54.071 46.0278 53.8276 46.2678 53.5476 46.4612C53.2676 46.6545 52.9576 46.7978 52.6176 46.8912C52.2843 46.9845 51.9443 47.0312 51.5976 47.0312C51.111 47.0312 50.651 46.9478 50.2176 46.7812C49.791 46.6145 49.4176 46.3778 49.0976 46.0712C48.7776 45.7578 48.5243 45.3812 48.3376 44.9412C48.151 44.5012 48.0576 44.0045 48.0576 43.4512ZM60.1248 42.1312V45.6612C60.1248 45.8412 60.1315 45.9845 60.1448 46.0912C60.1581 46.1912 60.1848 46.2712 60.2248 46.3312C60.2648 46.3845 60.3215 46.4178 60.3948 46.4312C60.4681 46.4378 60.5681 46.4345 60.6948 46.4212L60.7048 46.9612C60.5181 46.9945 60.3415 47.0112 60.1748 47.0112C60.0148 47.0178 59.8748 46.9978 59.7548 46.9512C59.6348 46.8978 59.5415 46.8145 59.4748 46.7012C59.4148 46.5812 59.3915 46.4145 59.4048 46.2012C59.3115 46.3678 59.2015 46.5078 59.0748 46.6212C58.9481 46.7278 58.8081 46.8145 58.6548 46.8812C58.5081 46.9412 58.3515 46.9812 58.1848 47.0012C58.0181 47.0278 57.8515 47.0412 57.6848 47.0412C57.3648 47.0412 57.0881 46.9878 56.8548 46.8812C56.6281 46.7745 56.4415 46.6278 56.2948 46.4412C56.1481 46.2478 56.0415 46.0245 55.9748 45.7712C55.9081 45.5178 55.8748 45.2412 55.8748 44.9412V42.1312H56.6648V44.9412C56.6581 45.3812 56.7648 45.7345 56.9848 46.0012C57.2048 46.2678 57.5148 46.4012 57.9148 46.4012C58.3348 46.4012 58.6781 46.2712 58.9448 46.0112C59.2115 45.7445 59.3448 45.3845 59.3448 44.9312V42.1312H60.1248ZM62.6739 42.8112C62.8206 42.5312 63.0239 42.3345 63.2839 42.2212C63.5439 42.1012 63.8273 42.0412 64.1339 42.0412C64.5539 42.0412 64.9306 42.1612 65.2639 42.4012L65.0739 43.0612C64.9206 42.9612 64.7573 42.8845 64.5839 42.8312C64.4173 42.7712 64.2406 42.7412 64.0539 42.7412C63.8806 42.7412 63.7139 42.7712 63.5539 42.8312C63.3939 42.8912 63.2506 42.9745 63.1239 43.0812C63.0039 43.1878 62.9073 43.3212 62.8339 43.4812C62.7606 43.6345 62.7239 43.8045 62.7239 43.9912V46.9512H61.9539V43.3012C61.9539 43.1945 61.9506 43.0978 61.9439 43.0112C61.9373 42.9178 61.9139 42.8445 61.8739 42.7912C61.8406 42.7312 61.7839 42.6878 61.7039 42.6612C61.6239 42.6345 61.5139 42.6278 61.3739 42.6412L61.3639 42.1212C61.5506 42.0878 61.7206 42.0712 61.8739 42.0712C62.0339 42.0712 62.1706 42.0945 62.2839 42.1412C62.4039 42.1878 62.4973 42.2645 62.5639 42.3712C62.6306 42.4778 62.6673 42.6245 62.6739 42.8112ZM67.0001 42.8112C67.1468 42.5312 67.3501 42.3345 67.6101 42.2212C67.8701 42.1012 68.1535 42.0412 68.4601 42.0412C68.8801 42.0412 69.2568 42.1612 69.5901 42.4012L69.4001 43.0612C69.2468 42.9612 69.0835 42.8845 68.9101 42.8312C68.7435 42.7712 68.5668 42.7412 68.3801 42.7412C68.2068 42.7412 68.0401 42.7712 67.8801 42.8312C67.7201 42.8912 67.5768 42.9745 67.4501 43.0812C67.3301 43.1878 67.2335 43.3212 67.1601 43.4812C67.0868 43.6345 67.0501 43.8045 67.0501 43.9912V46.9512H66.2801V43.3012C66.2801 43.1945 66.2768 43.0978 66.2701 43.0112C66.2635 42.9178 66.2401 42.8445 66.2001 42.7912C66.1668 42.7312 66.1101 42.6878 66.0301 42.6612C65.9501 42.6345 65.8401 42.6278 65.7001 42.6412L65.6901 42.1212C65.8768 42.0878 66.0468 42.0712 66.2001 42.0712C66.3601 42.0712 66.4968 42.0945 66.6101 42.1412C66.7301 42.1878 66.8235 42.2645 66.8901 42.3712C66.9568 42.4778 66.9935 42.6245 67.0001 42.8112ZM72.46 42.0412C73.2867 42.0478 73.88 42.2812 74.24 42.7412C74.6 43.1945 74.7134 43.8212 74.58 44.6212H70.77C70.7567 44.9012 70.7967 45.1512 70.89 45.3712C70.99 45.5845 71.1267 45.7678 71.3 45.9212C71.4734 46.0745 71.68 46.1912 71.92 46.2712C72.16 46.3512 72.4167 46.3912 72.69 46.3912C72.97 46.3912 73.24 46.3612 73.5 46.3012C73.7667 46.2412 74.04 46.1545 74.32 46.0412L74.44 46.6312C73.86 46.9045 73.27 47.0412 72.67 47.0412C72.27 47.0412 71.9034 46.9812 71.57 46.8612C71.2367 46.7412 70.95 46.5678 70.71 46.3412C70.47 46.1145 70.2867 45.8412 70.16 45.5212C70.0334 45.1945 69.9767 44.8245 69.99 44.4112C70.0034 44.0312 70.0767 43.6945 70.21 43.4012C70.3434 43.1078 70.52 42.8612 70.74 42.6612C70.9667 42.4545 71.2267 42.3012 71.52 42.2012C71.8134 42.0945 72.1267 42.0412 72.46 42.0412ZM72.46 42.6612C72.02 42.6612 71.65 42.7778 71.35 43.0112C71.05 43.2445 70.8667 43.5812 70.8 44.0212H73.94C73.9534 43.7945 73.9234 43.5978 73.85 43.4312C73.7767 43.2578 73.6734 43.1145 73.54 43.0012C73.4067 42.8878 73.2467 42.8045 73.06 42.7512C72.8734 42.6912 72.6734 42.6612 72.46 42.6612ZM79.5671 46.9512V44.1012C79.5671 43.6612 79.4405 43.3178 79.1871 43.0712C78.9405 42.8178 78.6171 42.6912 78.2171 42.6912C78.0105 42.6912 77.8205 42.7245 77.6471 42.7912C77.4738 42.8578 77.3205 42.9512 77.1871 43.0712C77.0605 43.1912 76.9605 43.3378 76.8871 43.5112C76.8138 43.6778 76.7771 43.8612 76.7771 44.0612V46.9512H75.9971V43.5112C75.9971 43.3512 75.9905 43.2178 75.9771 43.1112C75.9705 43.0045 75.9471 42.9212 75.9071 42.8612C75.8671 42.8012 75.8105 42.7645 75.7371 42.7512C75.6638 42.7312 75.5638 42.7278 75.4371 42.7412L75.4271 42.1212C75.5671 42.1012 75.7138 42.0845 75.8671 42.0712C76.0205 42.0578 76.1605 42.0712 76.2871 42.1112C76.4138 42.1445 76.5171 42.2178 76.5971 42.3312C76.6838 42.4445 76.7271 42.6178 76.7271 42.8512C76.9405 42.5245 77.1905 42.3078 77.4771 42.2012C77.7705 42.0945 78.0871 42.0412 78.4271 42.0412C78.7471 42.0412 79.0271 42.0945 79.2671 42.2012C79.5071 42.3012 79.7071 42.4445 79.8671 42.6312C80.0271 42.8112 80.1471 43.0278 80.2271 43.2812C80.3138 43.5345 80.3571 43.8078 80.3571 44.1012V46.9512H79.5671ZM83.0156 42.1512H84.7856V42.7212H83.0156V45.1612C83.0156 45.5945 83.1023 45.9112 83.2756 46.1112C83.4489 46.3112 83.6923 46.4112 84.0056 46.4112C84.2656 46.4112 84.5756 46.3445 84.9356 46.2112L85.0256 46.8212C84.5789 46.9678 84.1623 47.0412 83.7756 47.0412C83.3023 47.0412 82.9256 46.8945 82.6456 46.6012C82.3723 46.3078 82.2356 45.8345 82.2356 45.1812V42.7212L81.2056 42.6712V42.1512H82.2856L82.3656 40.6512H83.0156V42.1512ZM89.0525 45.0412C89.0658 45.2745 89.1358 45.4745 89.2625 45.6412C89.3891 45.8012 89.5491 45.9312 89.7425 46.0312C89.9358 46.1312 90.1458 46.2045 90.3725 46.2512C90.6058 46.2912 90.8291 46.3112 91.0425 46.3112C91.2491 46.3112 91.4625 46.2912 91.6825 46.2512C91.9091 46.2112 92.1125 46.1412 92.2925 46.0412C92.4791 45.9412 92.6325 45.8078 92.7525 45.6412C92.8725 45.4678 92.9358 45.2545 92.9425 45.0012C92.9425 44.7212 92.8825 44.5045 92.7625 44.3512C92.6425 44.1912 92.4858 44.0712 92.2925 43.9912C92.0991 43.9045 91.8825 43.8478 91.6425 43.8212C91.4091 43.7878 91.1725 43.7545 90.9325 43.7212C90.6125 43.6878 90.2991 43.6378 89.9925 43.5712C89.6925 43.5045 89.4225 43.4045 89.1825 43.2712C88.9425 43.1312 88.7491 42.9512 88.6025 42.7312C88.4558 42.5045 88.3825 42.2145 88.3825 41.8612C88.3825 41.5145 88.4558 41.2178 88.6025 40.9712C88.7558 40.7178 88.9525 40.5112 89.1925 40.3512C89.4325 40.1845 89.7025 40.0612 90.0025 39.9812C90.3091 39.9012 90.6158 39.8612 90.9225 39.8612C91.2225 39.8612 91.5258 39.8978 91.8325 39.9712C92.1391 40.0378 92.4158 40.1478 92.6625 40.3012C92.9158 40.4478 93.1225 40.6412 93.2825 40.8812C93.4425 41.1212 93.5291 41.4112 93.5425 41.7512H92.7625C92.7425 41.5312 92.6725 41.3478 92.5525 41.2012C92.4391 41.0545 92.2958 40.9378 92.1225 40.8512C91.9491 40.7645 91.7591 40.7045 91.5525 40.6712C91.3458 40.6312 91.1425 40.6112 90.9425 40.6112C90.7491 40.6112 90.5491 40.6345 90.3425 40.6812C90.1425 40.7212 89.9558 40.7912 89.7825 40.8912C89.6158 40.9845 89.4791 41.1112 89.3725 41.2712C89.2658 41.4312 89.2125 41.6245 89.2125 41.8512C89.2125 42.1112 89.2691 42.3145 89.3825 42.4612C89.4958 42.6078 89.6425 42.7212 89.8225 42.8012C90.0025 42.8745 90.2025 42.9278 90.4225 42.9612C90.6425 42.9878 90.8591 43.0145 91.0725 43.0412C91.4191 43.0812 91.7525 43.1345 92.0725 43.2012C92.3991 43.2612 92.6858 43.3612 92.9325 43.5012C93.1858 43.6412 93.3858 43.8312 93.5325 44.0712C93.6858 44.3045 93.7625 44.6145 93.7625 45.0012C93.7625 45.3745 93.6791 45.6912 93.5125 45.9512C93.3525 46.2045 93.1425 46.4112 92.8825 46.5712C92.6225 46.7312 92.3325 46.8478 92.0125 46.9212C91.6925 46.9945 91.3725 47.0345 91.0525 47.0412C90.7258 47.0478 90.3991 47.0145 90.0725 46.9412C89.7458 46.8678 89.4491 46.7512 89.1825 46.5912C88.9158 46.4312 88.6958 46.2245 88.5225 45.9712C88.3491 45.7112 88.2558 45.4012 88.2425 45.0412H89.0525ZM98.7173 43.6312C98.584 43.3312 98.384 43.1078 98.1173 42.9612C97.8573 42.8145 97.574 42.7412 97.2673 42.7412C97.0473 42.7412 96.8273 42.7778 96.6073 42.8512C96.394 42.9245 96.2006 43.0345 96.0273 43.1812C95.8606 43.3278 95.724 43.5145 95.6173 43.7412C95.5173 43.9612 95.4673 44.2212 95.4673 44.5212C95.4673 44.8212 95.5173 45.0845 95.6173 45.3112C95.724 45.5378 95.8573 45.7278 96.0173 45.8812C96.184 46.0345 96.3706 46.1512 96.5773 46.2312C96.7906 46.3112 97.0073 46.3512 97.2273 46.3512C97.5473 46.3512 97.8473 46.2678 98.1273 46.1012C98.414 45.9345 98.624 45.6812 98.7573 45.3412H99.5173C99.444 45.6278 99.3306 45.8778 99.1773 46.0912C99.024 46.3045 98.844 46.4812 98.6373 46.6212C98.4306 46.7612 98.204 46.8678 97.9573 46.9412C97.7173 47.0078 97.4706 47.0412 97.2173 47.0412C96.904 47.0412 96.594 46.9878 96.2873 46.8812C95.9873 46.7745 95.7173 46.6178 95.4773 46.4112C95.2373 46.1978 95.044 45.9345 94.8973 45.6212C94.7506 45.3012 94.6773 44.9345 94.6773 44.5212C94.6773 44.1012 94.7506 43.7345 94.8973 43.4212C95.0506 43.1078 95.2473 42.8512 95.4873 42.6512C95.7273 42.4445 96.0006 42.2912 96.3073 42.1912C96.614 42.0912 96.924 42.0412 97.2373 42.0412C97.484 42.0412 97.724 42.0778 97.9573 42.1512C98.1906 42.2178 98.4073 42.3178 98.6073 42.4512C98.8073 42.5778 98.9806 42.7412 99.1273 42.9412C99.2806 43.1412 99.394 43.3712 99.4673 43.6312H98.7173ZM105.431 44.5312C105.431 44.9512 105.358 45.3178 105.211 45.6312C105.065 45.9445 104.871 46.2078 104.631 46.4212C104.391 46.6278 104.118 46.7845 103.811 46.8912C103.505 46.9912 103.191 47.0412 102.871 47.0412C102.558 47.0412 102.248 46.9878 101.941 46.8812C101.641 46.7745 101.371 46.6178 101.131 46.4112C100.898 46.1978 100.708 45.9378 100.561 45.6312C100.421 45.3178 100.351 44.9512 100.351 44.5312C100.351 44.1112 100.425 43.7445 100.571 43.4312C100.718 43.1178 100.911 42.8612 101.151 42.6612C101.391 42.4545 101.661 42.3012 101.961 42.2012C102.268 42.0945 102.581 42.0412 102.901 42.0412C103.221 42.0412 103.531 42.0945 103.831 42.2012C104.138 42.3012 104.408 42.4545 104.641 42.6612C104.881 42.8678 105.071 43.1278 105.211 43.4412C105.358 43.7478 105.431 44.1112 105.431 44.5312ZM101.141 44.5312C101.141 44.8378 101.191 45.1078 101.291 45.3412C101.391 45.5745 101.525 45.7678 101.691 45.9212C101.858 46.0745 102.045 46.1912 102.251 46.2712C102.465 46.3512 102.681 46.3912 102.901 46.3912C103.121 46.3912 103.335 46.3512 103.541 46.2712C103.755 46.1912 103.941 46.0745 104.101 45.9212C104.268 45.7678 104.401 45.5745 104.501 45.3412C104.601 45.1078 104.651 44.8378 104.651 44.5312C104.651 44.2245 104.601 43.9578 104.501 43.7312C104.401 43.5045 104.268 43.3178 104.101 43.1712C103.935 43.0178 103.745 42.9045 103.531 42.8312C103.325 42.7512 103.111 42.7112 102.891 42.7112C102.671 42.7112 102.455 42.7512 102.241 42.8312C102.035 42.9045 101.848 43.0178 101.681 43.1712C101.521 43.3178 101.391 43.5045 101.291 43.7312C101.191 43.9578 101.141 44.2245 101.141 44.5312ZM107.508 42.8112C107.655 42.5312 107.858 42.3345 108.118 42.2212C108.378 42.1012 108.661 42.0412 108.968 42.0412C109.388 42.0412 109.765 42.1612 110.098 42.4012L109.908 43.0612C109.755 42.9612 109.591 42.8845 109.418 42.8312C109.251 42.7712 109.075 42.7412 108.888 42.7412C108.715 42.7412 108.548 42.7712 108.388 42.8312C108.228 42.8912 108.085 42.9745 107.958 43.0812C107.838 43.1878 107.741 43.3212 107.668 43.4812C107.595 43.6345 107.558 43.8045 107.558 43.9912V46.9512H106.788V43.3012C106.788 43.1945 106.785 43.0978 106.778 43.0112C106.771 42.9178 106.748 42.8445 106.708 42.7912C106.675 42.7312 106.618 42.6878 106.538 42.6612C106.458 42.6345 106.348 42.6278 106.208 42.6412L106.198 42.1212C106.385 42.0878 106.555 42.0712 106.708 42.0712C106.868 42.0712 107.005 42.0945 107.118 42.1412C107.238 42.1878 107.331 42.2645 107.398 42.3712C107.465 42.4778 107.501 42.6245 107.508 42.8112ZM112.968 42.0412C113.795 42.0478 114.388 42.2812 114.748 42.7412C115.108 43.1945 115.221 43.8212 115.088 44.6212H111.278C111.265 44.9012 111.305 45.1512 111.398 45.3712C111.498 45.5845 111.635 45.7678 111.808 45.9212C111.981 46.0745 112.188 46.1912 112.428 46.2712C112.668 46.3512 112.925 46.3912 113.198 46.3912C113.478 46.3912 113.748 46.3612 114.008 46.3012C114.275 46.2412 114.548 46.1545 114.828 46.0412L114.948 46.6312C114.368 46.9045 113.778 47.0412 113.178 47.0412C112.778 47.0412 112.411 46.9812 112.078 46.8612C111.745 46.7412 111.458 46.5678 111.218 46.3412C110.978 46.1145 110.795 45.8412 110.668 45.5212C110.541 45.1945 110.485 44.8245 110.498 44.4112C110.511 44.0312 110.585 43.6945 110.718 43.4012C110.851 43.1078 111.028 42.8612 111.248 42.6612C111.475 42.4545 111.735 42.3012 112.028 42.2012C112.321 42.0945 112.635 42.0412 112.968 42.0412ZM112.968 42.6612C112.528 42.6612 112.158 42.7778 111.858 43.0112C111.558 43.2445 111.375 43.5812 111.308 44.0212H114.448C114.461 43.7945 114.431 43.5978 114.358 43.4312C114.285 43.2578 114.181 43.1145 114.048 43.0012C113.915 42.8878 113.755 42.8045 113.568 42.7512C113.381 42.6912 113.181 42.6612 112.968 42.6612Z" fill="#434343"/>
<path d="M72.4157 63.3128L72.4093 63.8167L65.0509 80.0206L61.4272 79.9746L67.5524 66.3713L60.473 66.2813L60.5126 63.1616L72.4157 63.3128ZM80.4132 63.1743C83.845 63.2179 86.6259 65.3654 86.5799 68.9891L86.5068 74.7486C86.4604 78.3963 83.6255 80.4965 80.1938 80.4529C76.7141 80.4087 73.9334 78.2372 73.9798 74.5895L74.0529 68.83C74.0989 65.2063 76.9335 63.1301 80.4132 63.1743ZM80.2337 77.3092C81.6976 77.3278 82.8836 76.5508 83.0702 75.089C83.1233 74.6817 83.1528 74.25 83.1592 73.746L83.2077 69.9303C83.2138 69.4504 83.1956 68.9941 83.1531 68.5615C83.0043 67.0475 81.8372 66.3366 80.3733 66.3181C78.8374 66.2986 77.7007 66.9802 77.5135 68.4899C77.46 68.9213 77.4302 69.3769 77.4241 69.8569L77.3757 73.6726C77.3693 74.1765 77.3878 74.6088 77.4306 75.0174C77.58 76.4834 78.6979 77.2897 80.2337 77.3092ZM96.0682 63.3731C99.5 63.4167 102.281 65.5642 102.235 69.1879L102.162 74.9474C102.115 78.5951 99.2805 80.6953 95.8488 80.6517C92.3691 80.6075 89.5884 78.4361 89.6348 74.7883L89.7079 69.0288C89.7539 65.4051 92.5885 63.3289 96.0682 63.3731ZM95.8887 77.508C97.3526 77.5266 98.5386 76.7496 98.7251 75.2878C98.7783 74.8805 98.8078 74.4488 98.8142 73.9448L98.8627 70.1292C98.8688 69.6492 98.8506 69.1929 98.808 68.7603C98.6593 67.2463 97.4922 66.5355 96.0283 66.5169C94.4924 66.4974 93.3557 67.179 93.1685 68.6887C93.115 69.1201 93.0852 69.5757 93.0791 70.0557L93.0307 73.8714C93.0243 74.3754 93.0428 74.8076 93.0856 75.2162C93.235 76.6822 94.3528 77.4885 95.8887 77.508Z" fill="#26CA82"/>
<path d="M63.5787 95.3272C63.6141 92.5434 65.7094 91.0339 67.9172 91.0619C69.5851 91.0831 71.2428 91.9082 71.6979 93.8702L69.934 93.8478C69.5244 93.0265 68.8566 92.694 67.8967 92.6818C66.3248 92.6618 65.4216 93.8505 65.4026 95.3503C65.3823 96.9462 66.3284 98.0503 67.8283 98.0694C68.9802 98.084 69.8247 97.7347 70.2006 96.4794L67.9088 96.4503L67.9276 94.9744L71.8632 95.0244C71.901 95.8289 71.8676 96.5725 71.5819 97.337C70.9244 99.0208 69.4154 99.7216 67.8075 99.7012C65.5877 99.673 63.5434 98.1109 63.5787 95.3272ZM81.3917 95.5534C81.3592 98.1092 79.573 99.8506 77.0292 99.8183C74.7853 99.7898 72.7764 98.2762 72.8124 95.4444C72.8483 92.6127 74.9431 91.1511 77.1749 91.1795C79.3707 91.2074 81.4275 92.7336 81.3917 95.5534ZM74.6242 95.4674C74.6009 97.3033 75.7301 98.1577 77.074 98.1748C78.3819 98.1914 79.5805 97.3665 79.6038 95.5307C79.6265 93.7428 78.4617 92.852 77.1538 92.8354C75.834 92.8186 74.6468 93.6916 74.6242 95.4674ZM90.9768 95.6751C90.9444 98.2309 89.1581 99.9724 86.6143 99.9401C84.3705 99.9116 82.3616 98.3979 82.3975 95.5662C82.4335 92.7344 84.5282 91.2729 86.76 91.3012C88.9559 91.3291 91.0126 92.8553 90.9768 95.6751ZM84.2094 95.5892C84.1861 97.425 85.3153 98.2794 86.6592 98.2965C87.9671 98.3131 89.1657 97.4883 89.189 95.6524C89.2117 93.8646 88.0469 92.9737 86.739 92.9571C85.4191 92.9403 84.2319 93.8133 84.2094 95.5892ZM92.5158 91.5063L95.6356 91.5459C98.3114 91.5799 99.7255 93.6261 99.6984 95.7619C99.7071 97.9102 98.2408 99.9677 95.5291 99.9333L92.4093 99.8937L92.5158 91.5063ZM94.2177 98.2965L95.5256 98.3131C97.0735 98.3328 97.8933 97.0951 97.9104 95.7512C97.9274 94.4073 97.1149 93.1849 95.591 93.1655L94.2831 93.1489L94.2177 98.2965Z" fill="#26CA82"/>
<g filter="url(#filter3_d_1006_1766)">
<ellipse cx="272.193" cy="70.4812" rx="59.5339" ry="59.2362" transform="rotate(88.1152 272.193 70.4812)" fill="white"/>
</g>
<g filter="url(#filter4_d_1006_1766)">
<path d="M323.962 99.4542C329.029 90.3273 331.767 79.7413 331.398 68.533C330.317 35.6711 302.934 9.90351 270.236 10.9795C237.539 12.0555 211.909 39.5676 212.99 72.4295C213.299 81.8239 215.758 90.6385 219.876 98.412" stroke="url(#paint1_linear_1006_1766)" stroke-width="6" stroke-linecap="round"/>
</g>
<g filter="url(#filter5_d_1006_1766)">
<circle cx="321.289" cy="37.2887" r="4.15435" transform="rotate(88.1152 321.289 37.2887)" fill="#26CA82"/>
<circle cx="321.289" cy="37.2887" r="3.15435" transform="rotate(88.1152 321.289 37.2887)" stroke="white" stroke-width="2"/>
</g>
<path d="M239.058 43.4512C239.058 42.9045 239.148 42.4078 239.328 41.9612C239.514 41.5145 239.768 41.1345 240.088 40.8212C240.408 40.5078 240.781 40.2678 241.208 40.1012C241.641 39.9345 242.104 39.8545 242.598 39.8612C242.938 39.8612 243.271 39.9078 243.598 40.0012C243.924 40.0878 244.224 40.2245 244.498 40.4112C244.778 40.5912 245.021 40.8178 245.228 41.0912C245.441 41.3645 245.601 41.6845 245.708 42.0512H244.898C244.684 41.5712 244.374 41.2145 243.968 40.9812C243.561 40.7478 243.104 40.6312 242.598 40.6312C242.198 40.6245 241.831 40.6912 241.498 40.8312C241.164 40.9712 240.881 41.1678 240.648 41.4212C240.414 41.6745 240.231 41.9745 240.098 42.3212C239.971 42.6678 239.908 43.0445 239.908 43.4512C239.908 43.8445 239.971 44.2145 240.098 44.5612C240.224 44.9012 240.404 45.1978 240.638 45.4512C240.878 45.7045 241.161 45.9045 241.488 46.0512C241.821 46.1912 242.188 46.2612 242.588 46.2612C243.128 46.2612 243.608 46.1312 244.028 45.8712C244.448 45.6045 244.751 45.2178 244.938 44.7112H245.748C245.648 45.1045 245.491 45.4478 245.278 45.7412C245.071 46.0278 244.828 46.2678 244.548 46.4612C244.268 46.6545 243.958 46.7978 243.618 46.8912C243.284 46.9845 242.944 47.0312 242.598 47.0312C242.111 47.0312 241.651 46.9478 241.218 46.7812C240.791 46.6145 240.418 46.3778 240.098 46.0712C239.778 45.7578 239.524 45.3812 239.338 44.9412C239.151 44.5012 239.058 44.0045 239.058 43.4512ZM251.125 42.1312V45.6612C251.125 45.8412 251.131 45.9845 251.145 46.0912C251.158 46.1912 251.185 46.2712 251.225 46.3312C251.265 46.3845 251.321 46.4178 251.395 46.4312C251.468 46.4378 251.568 46.4345 251.695 46.4212L251.705 46.9612C251.518 46.9945 251.341 47.0112 251.175 47.0112C251.015 47.0178 250.875 46.9978 250.755 46.9512C250.635 46.8978 250.541 46.8145 250.475 46.7012C250.415 46.5812 250.391 46.4145 250.405 46.2012C250.311 46.3678 250.201 46.5078 250.075 46.6212C249.948 46.7278 249.808 46.8145 249.655 46.8812C249.508 46.9412 249.351 46.9812 249.185 47.0012C249.018 47.0278 248.851 47.0412 248.685 47.0412C248.365 47.0412 248.088 46.9878 247.855 46.8812C247.628 46.7745 247.441 46.6278 247.295 46.4412C247.148 46.2478 247.041 46.0245 246.975 45.7712C246.908 45.5178 246.875 45.2412 246.875 44.9412V42.1312H247.665V44.9412C247.658 45.3812 247.765 45.7345 247.985 46.0012C248.205 46.2678 248.515 46.4012 248.915 46.4012C249.335 46.4012 249.678 46.2712 249.945 46.0112C250.211 45.7445 250.345 45.3845 250.345 44.9312V42.1312H251.125ZM253.674 42.8112C253.821 42.5312 254.024 42.3345 254.284 42.2212C254.544 42.1012 254.827 42.0412 255.134 42.0412C255.554 42.0412 255.931 42.1612 256.264 42.4012L256.074 43.0612C255.921 42.9612 255.757 42.8845 255.584 42.8312C255.417 42.7712 255.241 42.7412 255.054 42.7412C254.881 42.7412 254.714 42.7712 254.554 42.8312C254.394 42.8912 254.251 42.9745 254.124 43.0812C254.004 43.1878 253.907 43.3212 253.834 43.4812C253.761 43.6345 253.724 43.8045 253.724 43.9912V46.9512H252.954V43.3012C252.954 43.1945 252.951 43.0978 252.944 43.0112C252.937 42.9178 252.914 42.8445 252.874 42.7912C252.841 42.7312 252.784 42.6878 252.704 42.6612C252.624 42.6345 252.514 42.6278 252.374 42.6412L252.364 42.1212C252.551 42.0878 252.721 42.0712 252.874 42.0712C253.034 42.0712 253.171 42.0945 253.284 42.1412C253.404 42.1878 253.497 42.2645 253.564 42.3712C253.631 42.4778 253.667 42.6245 253.674 42.8112ZM258 42.8112C258.147 42.5312 258.35 42.3345 258.61 42.2212C258.87 42.1012 259.153 42.0412 259.46 42.0412C259.88 42.0412 260.257 42.1612 260.59 42.4012L260.4 43.0612C260.247 42.9612 260.083 42.8845 259.91 42.8312C259.743 42.7712 259.567 42.7412 259.38 42.7412C259.207 42.7412 259.04 42.7712 258.88 42.8312C258.72 42.8912 258.577 42.9745 258.45 43.0812C258.33 43.1878 258.233 43.3212 258.16 43.4812C258.087 43.6345 258.05 43.8045 258.05 43.9912V46.9512H257.28V43.3012C257.28 43.1945 257.277 43.0978 257.27 43.0112C257.263 42.9178 257.24 42.8445 257.2 42.7912C257.167 42.7312 257.11 42.6878 257.03 42.6612C256.95 42.6345 256.84 42.6278 256.7 42.6412L256.69 42.1212C256.877 42.0878 257.047 42.0712 257.2 42.0712C257.36 42.0712 257.497 42.0945 257.61 42.1412C257.73 42.1878 257.823 42.2645 257.89 42.3712C257.957 42.4778 257.993 42.6245 258 42.8112ZM263.46 42.0412C264.287 42.0478 264.88 42.2812 265.24 42.7412C265.6 43.1945 265.713 43.8212 265.58 44.6212H261.77C261.757 44.9012 261.797 45.1512 261.89 45.3712C261.99 45.5845 262.127 45.7678 262.3 45.9212C262.473 46.0745 262.68 46.1912 262.92 46.2712C263.16 46.3512 263.417 46.3912 263.69 46.3912C263.97 46.3912 264.24 46.3612 264.5 46.3012C264.767 46.2412 265.04 46.1545 265.32 46.0412L265.44 46.6312C264.86 46.9045 264.27 47.0412 263.67 47.0412C263.27 47.0412 262.903 46.9812 262.57 46.8612C262.237 46.7412 261.95 46.5678 261.71 46.3412C261.47 46.1145 261.287 45.8412 261.16 45.5212C261.033 45.1945 260.977 44.8245 260.99 44.4112C261.003 44.0312 261.077 43.6945 261.21 43.4012C261.343 43.1078 261.52 42.8612 261.74 42.6612C261.967 42.4545 262.227 42.3012 262.52 42.2012C262.813 42.0945 263.127 42.0412 263.46 42.0412ZM263.46 42.6612C263.02 42.6612 262.65 42.7778 262.35 43.0112C262.05 43.2445 261.867 43.5812 261.8 44.0212H264.94C264.953 43.7945 264.923 43.5978 264.85 43.4312C264.777 43.2578 264.673 43.1145 264.54 43.0012C264.407 42.8878 264.247 42.8045 264.06 42.7512C263.873 42.6912 263.673 42.6612 263.46 42.6612ZM270.567 46.9512V44.1012C270.567 43.6612 270.44 43.3178 270.187 43.0712C269.94 42.8178 269.617 42.6912 269.217 42.6912C269.01 42.6912 268.82 42.7245 268.647 42.7912C268.474 42.8578 268.32 42.9512 268.187 43.0712C268.06 43.1912 267.96 43.3378 267.887 43.5112C267.814 43.6778 267.777 43.8612 267.777 44.0612V46.9512H266.997V43.5112C266.997 43.3512 266.99 43.2178 266.977 43.1112C266.97 43.0045 266.947 42.9212 266.907 42.8612C266.867 42.8012 266.81 42.7645 266.737 42.7512C266.664 42.7312 266.564 42.7278 266.437 42.7412L266.427 42.1212C266.567 42.1012 266.714 42.0845 266.867 42.0712C267.02 42.0578 267.16 42.0712 267.287 42.1112C267.414 42.1445 267.517 42.2178 267.597 42.3312C267.684 42.4445 267.727 42.6178 267.727 42.8512C267.94 42.5245 268.19 42.3078 268.477 42.2012C268.77 42.0945 269.087 42.0412 269.427 42.0412C269.747 42.0412 270.027 42.0945 270.267 42.2012C270.507 42.3012 270.707 42.4445 270.867 42.6312C271.027 42.8112 271.147 43.0278 271.227 43.2812C271.314 43.5345 271.357 43.8078 271.357 44.1012V46.9512H270.567ZM274.016 42.1512H275.786V42.7212H274.016V45.1612C274.016 45.5945 274.102 45.9112 274.276 46.1112C274.449 46.3112 274.692 46.4112 275.006 46.4112C275.266 46.4112 275.576 46.3445 275.936 46.2112L276.026 46.8212C275.579 46.9678 275.162 47.0412 274.776 47.0412C274.302 47.0412 273.926 46.8945 273.646 46.6012C273.372 46.3078 273.236 45.8345 273.236 45.1812V42.7212L272.206 42.6712V42.1512H273.286L273.366 40.6512H274.016V42.1512ZM280.052 45.0412C280.066 45.2745 280.136 45.4745 280.262 45.6412C280.389 45.8012 280.549 45.9312 280.742 46.0312C280.936 46.1312 281.146 46.2045 281.372 46.2512C281.606 46.2912 281.829 46.3112 282.042 46.3112C282.249 46.3112 282.462 46.2912 282.682 46.2512C282.909 46.2112 283.112 46.1412 283.292 46.0412C283.479 45.9412 283.632 45.8078 283.752 45.6412C283.872 45.4678 283.936 45.2545 283.942 45.0012C283.942 44.7212 283.882 44.5045 283.762 44.3512C283.642 44.1912 283.486 44.0712 283.292 43.9912C283.099 43.9045 282.882 43.8478 282.642 43.8212C282.409 43.7878 282.172 43.7545 281.932 43.7212C281.612 43.6878 281.299 43.6378 280.992 43.5712C280.692 43.5045 280.422 43.4045 280.182 43.2712C279.942 43.1312 279.749 42.9512 279.602 42.7312C279.456 42.5045 279.382 42.2145 279.382 41.8612C279.382 41.5145 279.456 41.2178 279.602 40.9712C279.756 40.7178 279.952 40.5112 280.192 40.3512C280.432 40.1845 280.702 40.0612 281.002 39.9812C281.309 39.9012 281.616 39.8612 281.922 39.8612C282.222 39.8612 282.526 39.8978 282.832 39.9712C283.139 40.0378 283.416 40.1478 283.662 40.3012C283.916 40.4478 284.122 40.6412 284.282 40.8812C284.442 41.1212 284.529 41.4112 284.542 41.7512H283.762C283.742 41.5312 283.672 41.3478 283.552 41.2012C283.439 41.0545 283.296 40.9378 283.122 40.8512C282.949 40.7645 282.759 40.7045 282.552 40.6712C282.346 40.6312 282.142 40.6112 281.942 40.6112C281.749 40.6112 281.549 40.6345 281.342 40.6812C281.142 40.7212 280.956 40.7912 280.782 40.8912C280.616 40.9845 280.479 41.1112 280.372 41.2712C280.266 41.4312 280.212 41.6245 280.212 41.8512C280.212 42.1112 280.269 42.3145 280.382 42.4612C280.496 42.6078 280.642 42.7212 280.822 42.8012C281.002 42.8745 281.202 42.9278 281.422 42.9612C281.642 42.9878 281.859 43.0145 282.072 43.0412C282.419 43.0812 282.752 43.1345 283.072 43.2012C283.399 43.2612 283.686 43.3612 283.932 43.5012C284.186 43.6412 284.386 43.8312 284.532 44.0712C284.686 44.3045 284.762 44.6145 284.762 45.0012C284.762 45.3745 284.679 45.6912 284.512 45.9512C284.352 46.2045 284.142 46.4112 283.882 46.5712C283.622 46.7312 283.332 46.8478 283.012 46.9212C282.692 46.9945 282.372 47.0345 282.052 47.0412C281.726 47.0478 281.399 47.0145 281.072 46.9412C280.746 46.8678 280.449 46.7512 280.182 46.5912C279.916 46.4312 279.696 46.2245 279.522 45.9712C279.349 45.7112 279.256 45.4012 279.242 45.0412H280.052ZM289.717 43.6312C289.584 43.3312 289.384 43.1078 289.117 42.9612C288.857 42.8145 288.574 42.7412 288.267 42.7412C288.047 42.7412 287.827 42.7778 287.607 42.8512C287.394 42.9245 287.201 43.0345 287.027 43.1812C286.861 43.3278 286.724 43.5145 286.617 43.7412C286.517 43.9612 286.467 44.2212 286.467 44.5212C286.467 44.8212 286.517 45.0845 286.617 45.3112C286.724 45.5378 286.857 45.7278 287.017 45.8812C287.184 46.0345 287.371 46.1512 287.577 46.2312C287.791 46.3112 288.007 46.3512 288.227 46.3512C288.547 46.3512 288.847 46.2678 289.127 46.1012C289.414 45.9345 289.624 45.6812 289.757 45.3412H290.517C290.444 45.6278 290.331 45.8778 290.177 46.0912C290.024 46.3045 289.844 46.4812 289.637 46.6212C289.431 46.7612 289.204 46.8678 288.957 46.9412C288.717 47.0078 288.471 47.0412 288.217 47.0412C287.904 47.0412 287.594 46.9878 287.287 46.8812C286.987 46.7745 286.717 46.6178 286.477 46.4112C286.237 46.1978 286.044 45.9345 285.897 45.6212C285.751 45.3012 285.677 44.9345 285.677 44.5212C285.677 44.1012 285.751 43.7345 285.897 43.4212C286.051 43.1078 286.247 42.8512 286.487 42.6512C286.727 42.4445 287.001 42.2912 287.307 42.1912C287.614 42.0912 287.924 42.0412 288.237 42.0412C288.484 42.0412 288.724 42.0778 288.957 42.1512C289.191 42.2178 289.407 42.3178 289.607 42.4512C289.807 42.5778 289.981 42.7412 290.127 42.9412C290.281 43.1412 290.394 43.3712 290.467 43.6312H289.717ZM296.431 44.5312C296.431 44.9512 296.358 45.3178 296.211 45.6312C296.065 45.9445 295.871 46.2078 295.631 46.4212C295.391 46.6278 295.118 46.7845 294.811 46.8912C294.505 46.9912 294.191 47.0412 293.871 47.0412C293.558 47.0412 293.248 46.9878 292.941 46.8812C292.641 46.7745 292.371 46.6178 292.131 46.4112C291.898 46.1978 291.708 45.9378 291.561 45.6312C291.421 45.3178 291.351 44.9512 291.351 44.5312C291.351 44.1112 291.425 43.7445 291.571 43.4312C291.718 43.1178 291.911 42.8612 292.151 42.6612C292.391 42.4545 292.661 42.3012 292.961 42.2012C293.268 42.0945 293.581 42.0412 293.901 42.0412C294.221 42.0412 294.531 42.0945 294.831 42.2012C295.138 42.3012 295.408 42.4545 295.641 42.6612C295.881 42.8678 296.071 43.1278 296.211 43.4412C296.358 43.7478 296.431 44.1112 296.431 44.5312ZM292.141 44.5312C292.141 44.8378 292.191 45.1078 292.291 45.3412C292.391 45.5745 292.525 45.7678 292.691 45.9212C292.858 46.0745 293.045 46.1912 293.251 46.2712C293.465 46.3512 293.681 46.3912 293.901 46.3912C294.121 46.3912 294.335 46.3512 294.541 46.2712C294.755 46.1912 294.941 46.0745 295.101 45.9212C295.268 45.7678 295.401 45.5745 295.501 45.3412C295.601 45.1078 295.651 44.8378 295.651 44.5312C295.651 44.2245 295.601 43.9578 295.501 43.7312C295.401 43.5045 295.268 43.3178 295.101 43.1712C294.935 43.0178 294.745 42.9045 294.531 42.8312C294.325 42.7512 294.111 42.7112 293.891 42.7112C293.671 42.7112 293.455 42.7512 293.241 42.8312C293.035 42.9045 292.848 43.0178 292.681 43.1712C292.521 43.3178 292.391 43.5045 292.291 43.7312C292.191 43.9578 292.141 44.2245 292.141 44.5312ZM298.508 42.8112C298.655 42.5312 298.858 42.3345 299.118 42.2212C299.378 42.1012 299.661 42.0412 299.968 42.0412C300.388 42.0412 300.765 42.1612 301.098 42.4012L300.908 43.0612C300.755 42.9612 300.591 42.8845 300.418 42.8312C300.251 42.7712 300.075 42.7412 299.888 42.7412C299.715 42.7412 299.548 42.7712 299.388 42.8312C299.228 42.8912 299.085 42.9745 298.958 43.0812C298.838 43.1878 298.741 43.3212 298.668 43.4812C298.595 43.6345 298.558 43.8045 298.558 43.9912V46.9512H297.788V43.3012C297.788 43.1945 297.785 43.0978 297.778 43.0112C297.771 42.9178 297.748 42.8445 297.708 42.7912C297.675 42.7312 297.618 42.6878 297.538 42.6612C297.458 42.6345 297.348 42.6278 297.208 42.6412L297.198 42.1212C297.385 42.0878 297.555 42.0712 297.708 42.0712C297.868 42.0712 298.005 42.0945 298.118 42.1412C298.238 42.1878 298.331 42.2645 298.398 42.3712C298.465 42.4778 298.501 42.6245 298.508 42.8112ZM303.968 42.0412C304.795 42.0478 305.388 42.2812 305.748 42.7412C306.108 43.1945 306.221 43.8212 306.088 44.6212H302.278C302.265 44.9012 302.305 45.1512 302.398 45.3712C302.498 45.5845 302.635 45.7678 302.808 45.9212C302.981 46.0745 303.188 46.1912 303.428 46.2712C303.668 46.3512 303.925 46.3912 304.198 46.3912C304.478 46.3912 304.748 46.3612 305.008 46.3012C305.275 46.2412 305.548 46.1545 305.828 46.0412L305.948 46.6312C305.368 46.9045 304.778 47.0412 304.178 47.0412C303.778 47.0412 303.411 46.9812 303.078 46.8612C302.745 46.7412 302.458 46.5678 302.218 46.3412C301.978 46.1145 301.795 45.8412 301.668 45.5212C301.541 45.1945 301.485 44.8245 301.498 44.4112C301.511 44.0312 301.585 43.6945 301.718 43.4012C301.851 43.1078 302.028 42.8612 302.248 42.6612C302.475 42.4545 302.735 42.3012 303.028 42.2012C303.321 42.0945 303.635 42.0412 303.968 42.0412ZM303.968 42.6612C303.528 42.6612 303.158 42.7778 302.858 43.0112C302.558 43.2445 302.375 43.5812 302.308 44.0212H305.448C305.461 43.7945 305.431 43.5978 305.358 43.4312C305.285 43.2578 305.181 43.1145 305.048 43.0012C304.915 42.8878 304.755 42.8045 304.568 42.7512C304.381 42.6912 304.181 42.6612 303.968 42.6612Z" fill="#434343"/>
<path d="M257.73 63.1205L261.665 63.1705L257.745 69.4333C258.011 69.2926 258.3 69.2243 258.612 69.2282C261.997 69.1512 264.347 71.2692 264.303 74.7249C264.254 78.5646 261.447 80.3291 257.872 80.2837C254.296 80.2383 251.583 78.4037 251.632 74.564C251.647 73.3401 252.096 72.0017 252.757 70.978L257.73 63.1205ZM257.91 77.236C259.638 77.2579 260.705 76.3834 260.727 74.6795C260.749 72.9517 259.705 71.9783 257.977 71.9564C256.25 71.9345 255.157 72.8807 255.136 74.6085C255.116 76.1684 256.183 77.214 257.91 77.236ZM272.548 80.2301L268.636 80.1804L272.722 74.0638C272.457 74.1804 272.095 74.2719 271.783 74.2679C268.326 74.344 265.952 72.2977 265.997 68.77C266.045 64.9303 268.852 63.1418 272.428 63.1872C275.98 63.2323 278.74 65.0915 278.692 68.9312C278.649 70.3708 278.252 71.4458 277.493 72.6123L272.548 80.2301ZM272.389 66.235C270.662 66.213 269.57 67.1112 269.548 68.8151C269.526 70.5429 270.594 71.5166 272.322 71.5385C274.05 71.5605 275.118 70.614 275.14 68.8861C275.162 67.1822 274.117 66.2569 272.389 66.235ZM287.678 63.3809C291.109 63.4244 293.89 65.5719 293.844 69.1956L293.771 74.9552C293.725 78.6029 290.89 80.703 287.458 80.6595C283.978 80.6153 281.198 78.4438 281.244 74.7961L281.317 69.0365C281.363 65.4128 284.198 63.3367 287.678 63.3809ZM287.498 77.5157C288.962 77.5343 290.148 76.7573 290.334 75.2956C290.388 74.8882 290.417 74.4565 290.424 73.9526L290.472 70.1369C290.478 69.6569 290.46 69.2007 290.417 68.7681C290.269 67.2541 289.102 66.5432 287.638 66.5246C286.102 66.5051 284.965 67.1867 284.778 68.6965C284.724 69.1278 284.695 69.5835 284.688 70.0634L284.64 73.8791C284.634 74.3831 284.652 74.8154 284.695 75.2239C284.844 76.69 285.962 77.4962 287.498 77.5157Z" fill="#26CA82"/>
<path d="M254.579 95.3272C254.614 92.5434 256.709 91.0339 258.917 91.0619C260.585 91.0831 262.243 91.9082 262.698 93.8702L260.934 93.8478C260.524 93.0265 259.857 92.694 258.897 92.6818C257.325 92.6618 256.422 93.8505 256.403 95.3503C256.382 96.9462 257.328 98.0503 258.828 98.0694C259.98 98.084 260.825 97.7347 261.201 96.4794L258.909 96.4503L258.928 94.9744L262.863 95.0244C262.901 95.8289 262.868 96.5725 262.582 97.337C261.924 99.0208 260.415 99.7216 258.808 99.7012C256.588 99.673 254.543 98.1109 254.579 95.3272ZM272.392 95.5534C272.359 98.1092 270.573 99.8506 268.029 99.8183C265.785 99.7898 263.776 98.2762 263.812 95.4444C263.848 92.6127 265.943 91.1511 268.175 91.1795C270.371 91.2074 272.427 92.7336 272.392 95.5534ZM265.624 95.4674C265.601 97.3033 266.73 98.1577 268.074 98.1748C269.382 98.1914 270.581 97.3665 270.604 95.5307C270.627 93.7428 269.462 92.852 268.154 92.8354C266.834 92.8186 265.647 93.6916 265.624 95.4674ZM281.977 95.6751C281.944 98.2309 280.158 99.9724 277.614 99.9401C275.371 99.9116 273.362 98.3979 273.398 95.5662C273.433 92.7344 275.528 91.2729 277.76 91.3012C279.956 91.3291 282.013 92.8553 281.977 95.6751ZM275.209 95.5892C275.186 97.425 276.315 98.2794 277.659 98.2965C278.967 98.3131 280.166 97.4883 280.189 95.6524C280.212 93.8646 279.047 92.9737 277.739 92.9571C276.419 92.9403 275.232 93.8133 275.209 95.5892ZM283.516 91.5063L286.636 91.5459C289.311 91.5799 290.725 93.6261 290.698 95.7619C290.707 97.9102 289.241 99.9677 286.529 99.9333L283.409 99.8937L283.516 91.5063ZM285.218 98.2965L286.526 98.3131C288.074 98.3328 288.893 97.0951 288.91 95.7512C288.927 94.4073 288.115 93.1849 286.591 93.1655L285.283 93.1489L285.218 98.2965Z" fill="#26CA82"/>
<path d="M177.327 62.2808C177.537 62.0697 177.82 61.9512 178.116 61.9512C178.412 61.9512 178.696 62.0697 178.905 62.2808L185.231 68.6679C185.44 68.8793 185.558 69.1658 185.558 69.4645C185.558 69.7632 185.44 70.0496 185.231 70.261L178.905 76.6481C178.694 76.8475 178.414 76.9561 178.124 76.951C177.835 76.946 177.559 76.8277 177.354 76.6211C177.15 76.4144 177.032 76.1357 177.027 75.8435C177.022 75.5514 177.13 75.2687 177.327 75.0551L181.748 70.5916L170.674 70.5916C170.378 70.5916 170.094 70.4728 169.885 70.2615C169.675 70.0501 169.558 69.7634 169.558 69.4645C169.558 69.1655 169.675 68.8788 169.885 68.6675C170.094 68.4561 170.378 68.3373 170.674 68.3373L181.748 68.3373L177.327 63.8738C177.118 63.6625 177.001 63.376 177.001 63.0773C177.001 62.7786 177.118 62.4921 177.327 62.2808Z" fill="#5A5A5A"/>
<defs>
<filter id="filter0_d_1006_1766" x="0.955078" y="10.9473" width="168.475" height="169.068" filterUnits="userSpaceOnUse" color-interpolation-filters="sRGB">
<feFlood flood-opacity="0" result="BackgroundImageFix"/>
<feColorMatrix in="SourceAlpha" type="matrix" values="0 0 0 0 0 0 0 0 0 0 0 0 0 0 0 0 0 0 127 0" result="hardAlpha"/>
<feOffset dx="4" dy="25"/>
<feGaussianBlur stdDeviation="12.5"/>
<feComposite in2="hardAlpha" operator="out"/>
<feColorMatrix type="matrix" values="0 0 0 0 0.223529 0 0 0 0 0.505882 0 0 0 0 0.964706 0 0 0 0.13 0"/>
<feBlend mode="normal" in2="BackgroundImageFix" result="effect1_dropShadow_1006_1766"/>
<feBlend mode="normal" in="SourceGraphic" in2="effect1_dropShadow_1006_1766" result="shape"/>
</filter>
<filter id="filter1_d_1006_1766" x="11.957" y="0.947266" width="138.475" height="108.508" filterUnits="userSpaceOnUse" color-interpolation-filters="sRGB">
<feFlood flood-opacity="0" result="BackgroundImageFix"/>
<feColorMatrix in="SourceAlpha" type="matrix" values="0 0 0 0 0 0 0 0 0 0 0 0 0 0 0 0 0 0 127 0" result="hardAlpha"/>
<feOffset/>
<feGaussianBlur stdDeviation="3.5"/>
<feComposite in2="hardAlpha" operator="out"/>
<feColorMatrix type="matrix" values="0 0 0 0 0.223529 0 0 0 0 0.505882 0 0 0 0 0.964706 0 0 0 0.14 0"/>
<feBlend mode="normal" in2="BackgroundImageFix" result="effect1_dropShadow_1006_1766"/>
<feBlend mode="normal" in="SourceGraphic" in2="effect1_dropShadow_1006_1766" result="shape"/>
</filter>
<filter id="filter2_d_1006_1766" x="127.416" y="43.1689" width="16.3086" height="16.3086" filterUnits="userSpaceOnUse" color-interpolation-filters="sRGB">
<feFlood flood-opacity="0" result="BackgroundImageFix"/>
<feColorMatrix in="SourceAlpha" type="matrix" values="0 0 0 0 0 0 0 0 0 0 0 0 0 0 0 0 0 0 127 0" result="hardAlpha"/>
<feOffset dy="4"/>
<feGaussianBlur stdDeviation="2"/>
<feComposite in2="hardAlpha" operator="out"/>
<feColorMatrix type="matrix" values="0 0 0 0 0.223529 0 0 0 0 0.505882 0 0 0 0 0.964706 0 0 0 0.12 0"/>
<feBlend mode="normal" in2="BackgroundImageFix" result="effect1_dropShadow_1006_1766"/>
<feBlend mode="normal" in="SourceGraphic" in2="effect1_dropShadow_1006_1766" result="shape"/>
</filter>
<filter id="filter3_d_1006_1766" x="191.956" y="10.9473" width="168.475" height="169.068" filterUnits="userSpaceOnUse" color-interpolation-filters="sRGB">
<feFlood flood-opacity="0" result="BackgroundImageFix"/>
<feColorMatrix in="SourceAlpha" type="matrix" values="0 0 0 0 0 0 0 0 0 0 0 0 0 0 0 0 0 0 127 0" result="hardAlpha"/>
<feOffset dx="4" dy="25"/>
<feGaussianBlur stdDeviation="12.5"/>
<feComposite in2="hardAlpha" operator="out"/>
<feColorMatrix type="matrix" values="0 0 0 0 0.223529 0 0 0 0 0.505882 0 0 0 0 0.964706 0 0 0 0.13 0"/>
<feBlend mode="normal" in2="BackgroundImageFix" result="effect1_dropShadow_1006_1766"/>
<feBlend mode="normal" in="SourceGraphic" in2="effect1_dropShadow_1006_1766" result="shape"/>
</filter>
<filter id="filter4_d_1006_1766" x="202.957" y="0.947266" width="138.475" height="108.508" filterUnits="userSpaceOnUse" color-interpolation-filters="sRGB">
<feFlood flood-opacity="0" result="BackgroundImageFix"/>
<feColorMatrix in="SourceAlpha" type="matrix" values="0 0 0 0 0 0 0 0 0 0 0 0 0 0 0 0 0 0 127 0" result="hardAlpha"/>
<feOffset/>
<feGaussianBlur stdDeviation="3.5"/>
<feComposite in2="hardAlpha" operator="out"/>
<feColorMatrix type="matrix" values="0 0 0 0 0.223529 0 0 0 0 0.505882 0 0 0 0 0.964706 0 0 0 0.14 0"/>
<feBlend mode="normal" in2="BackgroundImageFix" result="effect1_dropShadow_1006_1766"/>
<feBlend mode="normal" in="SourceGraphic" in2="effect1_dropShadow_1006_1766" result="shape"/>
</filter>
<filter id="filter5_d_1006_1766" x="313.135" y="33.1348" width="16.3086" height="16.3086" filterUnits="userSpaceOnUse" color-interpolation-filters="sRGB">
<feFlood flood-opacity="0" result="BackgroundImageFix"/>
<feColorMatrix in="SourceAlpha" type="matrix" values="0 0 0 0 0 0 0 0 0 0 0 0 0 0 0 0 0 0 127 0" result="hardAlpha"/>
<feOffset dy="4"/>
<feGaussianBlur stdDeviation="2"/>
<feComposite in2="hardAlpha" operator="out"/>
<feColorMatrix type="matrix" values="0 0 0 0 0.223529 0 0 0 0 0.505882 0 0 0 0 0.964706 0 0 0 0.12 0"/>
<feBlend mode="normal" in2="BackgroundImageFix" result="effect1_dropShadow_1006_1766"/>
<feBlend mode="normal" in="SourceGraphic" in2="effect1_dropShadow_1006_1766" result="shape"/>
</filter>
<linearGradient id="paint0_linear_1006_1766" x1="29.3742" y1="98.6663" x2="130.337" y2="96.6269" gradientUnits="userSpaceOnUse">
<stop stop-color="#FF6556"/>
<stop offset="0.32" stop-color="#FDA472"/>
<stop offset="0.58" stop-color="#FFC671"/>
<stop offset="1" stop-color="#23CF79"/>
</linearGradient>
<linearGradient id="paint1_linear_1006_1766" x1="220.374" y1="98.6663" x2="321.337" y2="96.6269" gradientUnits="userSpaceOnUse">
<stop stop-color="#FF6556"/>
<stop offset="0.32" stop-color="#FDA472"/>
<stop offset="0.58" stop-color="#FFC671"/>
<stop offset="1" stop-color="#23CF79"/>
</linearGradient>
</defs>
</svg>
