<svg width="356" height="181" viewBox="0 0 356 181" fill="none" xmlns="http://www.w3.org/2000/svg">
<g filter="url(#filter0_d_930_8009)">
<ellipse cx="81.1928" cy="70.4812" rx="59.5339" ry="59.2362" transform="rotate(88.1152 81.1928 70.4812)" fill="white"/>
</g>
<g filter="url(#filter1_d_930_8009)">
<path d="M132.962 99.4542C138.029 90.3273 140.767 79.7413 140.398 68.533C139.317 35.6711 111.934 9.90351 79.236 10.9795C46.5384 12.0555 20.9084 39.5676 21.9898 72.4295C22.299 81.8239 24.7577 90.6385 28.8755 98.412" stroke="url(#paint0_linear_930_8009)" stroke-width="6" stroke-linecap="round"/>
</g>
<g filter="url(#filter2_d_930_8009)">
<circle cx="135.57" cy="47.3229" r="4.15435" transform="rotate(88.1152 135.57 47.3229)" fill="#26CA82"/>
<circle cx="135.57" cy="47.3229" r="3.15435" transform="rotate(88.1152 135.57 47.3229)" stroke="white" stroke-width="2"/>
</g>
<path d="M48.0581 43.4512C48.0581 42.9045 48.1481 42.4078 48.3281 41.9612C48.5148 41.5145 48.7681 41.1345 49.0881 40.8212C49.4081 40.5078 49.7814 40.2678 50.2081 40.1012C50.6414 39.9345 51.1048 39.8545 51.5981 39.8612C51.9381 39.8612 52.2714 39.9078 52.5981 40.0012C52.9248 40.0878 53.2248 40.2245 53.4981 40.4112C53.7781 40.5912 54.0214 40.8178 54.2281 41.0912C54.4414 41.3645 54.6014 41.6845 54.7081 42.0512H53.8981C53.6848 41.5712 53.3748 41.2145 52.9681 40.9812C52.5614 40.7478 52.1048 40.6312 51.5981 40.6312C51.1981 40.6245 50.8314 40.6912 50.4981 40.8312C50.1648 40.9712 49.8814 41.1678 49.6481 41.4212C49.4148 41.6745 49.2314 41.9745 49.0981 42.3212C48.9714 42.6678 48.9081 43.0445 48.9081 43.4512C48.9081 43.8445 48.9714 44.2145 49.0981 44.5612C49.2248 44.9012 49.4048 45.1978 49.6381 45.4512C49.8781 45.7045 50.1614 45.9045 50.4881 46.0512C50.8214 46.1912 51.1881 46.2612 51.5881 46.2612C52.1281 46.2612 52.6081 46.1312 53.0281 45.8712C53.4481 45.6045 53.7514 45.2178 53.9381 44.7112H54.7481C54.6481 45.1045 54.4914 45.4478 54.2781 45.7412C54.0714 46.0278 53.8281 46.2678 53.5481 46.4612C53.2681 46.6545 52.9581 46.7978 52.6181 46.8912C52.2848 46.9845 51.9448 47.0312 51.5981 47.0312C51.1114 47.0312 50.6514 46.9478 50.2181 46.7812C49.7914 46.6145 49.4181 46.3778 49.0981 46.0712C48.7781 45.7578 48.5248 45.3812 48.3381 44.9412C48.1514 44.5012 48.0581 44.0045 48.0581 43.4512ZM60.1253 42.1312V45.6612C60.1253 45.8412 60.132 45.9845 60.1453 46.0912C60.1586 46.1912 60.1853 46.2712 60.2253 46.3312C60.2653 46.3845 60.322 46.4178 60.3953 46.4312C60.4686 46.4378 60.5686 46.4345 60.6953 46.4212L60.7053 46.9612C60.5186 46.9945 60.342 47.0112 60.1753 47.0112C60.0153 47.0178 59.8753 46.9978 59.7553 46.9512C59.6353 46.8978 59.542 46.8145 59.4753 46.7012C59.4153 46.5812 59.392 46.4145 59.4053 46.2012C59.312 46.3678 59.202 46.5078 59.0753 46.6212C58.9486 46.7278 58.8086 46.8145 58.6553 46.8812C58.5086 46.9412 58.352 46.9812 58.1853 47.0012C58.0186 47.0278 57.852 47.0412 57.6853 47.0412C57.3653 47.0412 57.0886 46.9878 56.8553 46.8812C56.6286 46.7745 56.442 46.6278 56.2953 46.4412C56.1486 46.2478 56.042 46.0245 55.9753 45.7712C55.9086 45.5178 55.8753 45.2412 55.8753 44.9412V42.1312H56.6653V44.9412C56.6586 45.3812 56.7653 45.7345 56.9853 46.0012C57.2053 46.2678 57.5153 46.4012 57.9153 46.4012C58.3353 46.4012 58.6786 46.2712 58.9453 46.0112C59.212 45.7445 59.3453 45.3845 59.3453 44.9312V42.1312H60.1253ZM62.6744 42.8112C62.8211 42.5312 63.0244 42.3345 63.2844 42.2212C63.5444 42.1012 63.8278 42.0412 64.1344 42.0412C64.5544 42.0412 64.9311 42.1612 65.2644 42.4012L65.0744 43.0612C64.9211 42.9612 64.7578 42.8845 64.5844 42.8312C64.4178 42.7712 64.2411 42.7412 64.0544 42.7412C63.8811 42.7412 63.7144 42.7712 63.5544 42.8312C63.3944 42.8912 63.2511 42.9745 63.1244 43.0812C63.0044 43.1878 62.9078 43.3212 62.8344 43.4812C62.7611 43.6345 62.7244 43.8045 62.7244 43.9912V46.9512H61.9544V43.3012C61.9544 43.1945 61.9511 43.0978 61.9444 43.0112C61.9378 42.9178 61.9144 42.8445 61.8744 42.7912C61.8411 42.7312 61.7844 42.6878 61.7044 42.6612C61.6244 42.6345 61.5144 42.6278 61.3744 42.6412L61.3644 42.1212C61.5511 42.0878 61.7211 42.0712 61.8744 42.0712C62.0344 42.0712 62.1711 42.0945 62.2844 42.1412C62.4044 42.1878 62.4978 42.2645 62.5644 42.3712C62.6311 42.4778 62.6678 42.6245 62.6744 42.8112ZM67.0006 42.8112C67.1473 42.5312 67.3506 42.3345 67.6106 42.2212C67.8706 42.1012 68.1539 42.0412 68.4606 42.0412C68.8806 42.0412 69.2573 42.1612 69.5906 42.4012L69.4006 43.0612C69.2473 42.9612 69.0839 42.8845 68.9106 42.8312C68.7439 42.7712 68.5673 42.7412 68.3806 42.7412C68.2073 42.7412 68.0406 42.7712 67.8806 42.8312C67.7206 42.8912 67.5773 42.9745 67.4506 43.0812C67.3306 43.1878 67.2339 43.3212 67.1606 43.4812C67.0873 43.6345 67.0506 43.8045 67.0506 43.9912V46.9512H66.2806V43.3012C66.2806 43.1945 66.2773 43.0978 66.2706 43.0112C66.2639 42.9178 66.2406 42.8445 66.2006 42.7912C66.1673 42.7312 66.1106 42.6878 66.0306 42.6612C65.9506 42.6345 65.8406 42.6278 65.7006 42.6412L65.6906 42.1212C65.8773 42.0878 66.0473 42.0712 66.2006 42.0712C66.3606 42.0712 66.4973 42.0945 66.6106 42.1412C66.7306 42.1878 66.8239 42.2645 66.8906 42.3712C66.9573 42.4778 66.9939 42.6245 67.0006 42.8112ZM72.4605 42.0412C73.2872 42.0478 73.8805 42.2812 74.2405 42.7412C74.6005 43.1945 74.7139 43.8212 74.5805 44.6212H70.7705C70.7572 44.9012 70.7972 45.1512 70.8905 45.3712C70.9905 45.5845 71.1272 45.7678 71.3005 45.9212C71.4739 46.0745 71.6805 46.1912 71.9205 46.2712C72.1605 46.3512 72.4172 46.3912 72.6905 46.3912C72.9705 46.3912 73.2405 46.3612 73.5005 46.3012C73.7672 46.2412 74.0405 46.1545 74.3205 46.0412L74.4405 46.6312C73.8605 46.9045 73.2705 47.0412 72.6705 47.0412C72.2705 47.0412 71.9039 46.9812 71.5705 46.8612C71.2372 46.7412 70.9505 46.5678 70.7105 46.3412C70.4705 46.1145 70.2872 45.8412 70.1605 45.5212C70.0339 45.1945 69.9772 44.8245 69.9905 44.4112C70.0039 44.0312 70.0772 43.6945 70.2105 43.4012C70.3439 43.1078 70.5205 42.8612 70.7405 42.6612C70.9672 42.4545 71.2272 42.3012 71.5205 42.2012C71.8139 42.0945 72.1272 42.0412 72.4605 42.0412ZM72.4605 42.6612C72.0205 42.6612 71.6505 42.7778 71.3505 43.0112C71.0505 43.2445 70.8672 43.5812 70.8005 44.0212H73.9405C73.9539 43.7945 73.9239 43.5978 73.8505 43.4312C73.7772 43.2578 73.6739 43.1145 73.5405 43.0012C73.4072 42.8878 73.2472 42.8045 73.0605 42.7512C72.8739 42.6912 72.6739 42.6612 72.4605 42.6612ZM79.5676 46.9512V44.1012C79.5676 43.6612 79.441 43.3178 79.1876 43.0712C78.941 42.8178 78.6176 42.6912 78.2176 42.6912C78.011 42.6912 77.821 42.7245 77.6476 42.7912C77.4743 42.8578 77.321 42.9512 77.1876 43.0712C77.061 43.1912 76.961 43.3378 76.8876 43.5112C76.8143 43.6778 76.7776 43.8612 76.7776 44.0612V46.9512H75.9976V43.5112C75.9976 43.3512 75.991 43.2178 75.9776 43.1112C75.971 43.0045 75.9476 42.9212 75.9076 42.8612C75.8676 42.8012 75.811 42.7645 75.7376 42.7512C75.6643 42.7312 75.5643 42.7278 75.4376 42.7412L75.4276 42.1212C75.5676 42.1012 75.7143 42.0845 75.8676 42.0712C76.021 42.0578 76.161 42.0712 76.2876 42.1112C76.4143 42.1445 76.5176 42.2178 76.5976 42.3312C76.6843 42.4445 76.7276 42.6178 76.7276 42.8512C76.941 42.5245 77.191 42.3078 77.4776 42.2012C77.771 42.0945 78.0876 42.0412 78.4276 42.0412C78.7476 42.0412 79.0276 42.0945 79.2676 42.2012C79.5076 42.3012 79.7076 42.4445 79.8676 42.6312C80.0276 42.8112 80.1476 43.0278 80.2276 43.2812C80.3143 43.5345 80.3576 43.8078 80.3576 44.1012V46.9512H79.5676ZM83.0161 42.1512H84.7861V42.7212H83.0161V45.1612C83.0161 45.5945 83.1027 45.9112 83.2761 46.1112C83.4494 46.3112 83.6927 46.4112 84.0061 46.4112C84.2661 46.4112 84.5761 46.3445 84.9361 46.2112L85.0261 46.8212C84.5794 46.9678 84.1627 47.0412 83.7761 47.0412C83.3027 47.0412 82.9261 46.8945 82.6461 46.6012C82.3727 46.3078 82.2361 45.8345 82.2361 45.1812V42.7212L81.2061 42.6712V42.1512H82.2861L82.3661 40.6512H83.0161V42.1512ZM89.0529 45.0412C89.0663 45.2745 89.1363 45.4745 89.2629 45.6412C89.3896 45.8012 89.5496 45.9312 89.7429 46.0312C89.9363 46.1312 90.1463 46.2045 90.3729 46.2512C90.6063 46.2912 90.8296 46.3112 91.0429 46.3112C91.2496 46.3112 91.4629 46.2912 91.6829 46.2512C91.9096 46.2112 92.1129 46.1412 92.2929 46.0412C92.4796 45.9412 92.6329 45.8078 92.7529 45.6412C92.8729 45.4678 92.9363 45.2545 92.9429 45.0012C92.9429 44.7212 92.8829 44.5045 92.7629 44.3512C92.6429 44.1912 92.4863 44.0712 92.2929 43.9912C92.0996 43.9045 91.8829 43.8478 91.6429 43.8212C91.4096 43.7878 91.1729 43.7545 90.9329 43.7212C90.6129 43.6878 90.2996 43.6378 89.9929 43.5712C89.6929 43.5045 89.4229 43.4045 89.1829 43.2712C88.9429 43.1312 88.7496 42.9512 88.6029 42.7312C88.4563 42.5045 88.3829 42.2145 88.3829 41.8612C88.3829 41.5145 88.4563 41.2178 88.6029 40.9712C88.7563 40.7178 88.9529 40.5112 89.1929 40.3512C89.4329 40.1845 89.7029 40.0612 90.0029 39.9812C90.3096 39.9012 90.6163 39.8612 90.9229 39.8612C91.2229 39.8612 91.5263 39.8978 91.8329 39.9712C92.1396 40.0378 92.4163 40.1478 92.6629 40.3012C92.9163 40.4478 93.1229 40.6412 93.2829 40.8812C93.4429 41.1212 93.5296 41.4112 93.5429 41.7512H92.7629C92.7429 41.5312 92.6729 41.3478 92.5529 41.2012C92.4396 41.0545 92.2963 40.9378 92.1229 40.8512C91.9496 40.7645 91.7596 40.7045 91.5529 40.6712C91.3463 40.6312 91.1429 40.6112 90.9429 40.6112C90.7496 40.6112 90.5496 40.6345 90.3429 40.6812C90.1429 40.7212 89.9563 40.7912 89.7829 40.8912C89.6163 40.9845 89.4796 41.1112 89.3729 41.2712C89.2663 41.4312 89.2129 41.6245 89.2129 41.8512C89.2129 42.1112 89.2696 42.3145 89.3829 42.4612C89.4963 42.6078 89.6429 42.7212 89.8229 42.8012C90.0029 42.8745 90.2029 42.9278 90.4229 42.9612C90.6429 42.9878 90.8596 43.0145 91.0729 43.0412C91.4196 43.0812 91.7529 43.1345 92.0729 43.2012C92.3996 43.2612 92.6863 43.3612 92.9329 43.5012C93.1863 43.6412 93.3863 43.8312 93.5329 44.0712C93.6863 44.3045 93.7629 44.6145 93.7629 45.0012C93.7629 45.3745 93.6796 45.6912 93.5129 45.9512C93.3529 46.2045 93.1429 46.4112 92.8829 46.5712C92.6229 46.7312 92.3329 46.8478 92.0129 46.9212C91.6929 46.9945 91.3729 47.0345 91.0529 47.0412C90.7263 47.0478 90.3996 47.0145 90.0729 46.9412C89.7463 46.8678 89.4496 46.7512 89.1829 46.5912C88.9163 46.4312 88.6963 46.2245 88.5229 45.9712C88.3496 45.7112 88.2563 45.4012 88.2429 45.0412H89.0529ZM98.7178 43.6312C98.5845 43.3312 98.3845 43.1078 98.1178 42.9612C97.8578 42.8145 97.5745 42.7412 97.2678 42.7412C97.0478 42.7412 96.8278 42.7778 96.6078 42.8512C96.3945 42.9245 96.2011 43.0345 96.0278 43.1812C95.8611 43.3278 95.7245 43.5145 95.6178 43.7412C95.5178 43.9612 95.4678 44.2212 95.4678 44.5212C95.4678 44.8212 95.5178 45.0845 95.6178 45.3112C95.7245 45.5378 95.8578 45.7278 96.0178 45.8812C96.1845 46.0345 96.3711 46.1512 96.5778 46.2312C96.7911 46.3112 97.0078 46.3512 97.2278 46.3512C97.5478 46.3512 97.8478 46.2678 98.1278 46.1012C98.4145 45.9345 98.6245 45.6812 98.7578 45.3412H99.5178C99.4445 45.6278 99.3311 45.8778 99.1778 46.0912C99.0245 46.3045 98.8445 46.4812 98.6378 46.6212C98.4311 46.7612 98.2045 46.8678 97.9578 46.9412C97.7178 47.0078 97.4711 47.0412 97.2178 47.0412C96.9045 47.0412 96.5945 46.9878 96.2878 46.8812C95.9878 46.7745 95.7178 46.6178 95.4778 46.4112C95.2378 46.1978 95.0445 45.9345 94.8978 45.6212C94.7511 45.3012 94.6778 44.9345 94.6778 44.5212C94.6778 44.1012 94.7511 43.7345 94.8978 43.4212C95.0511 43.1078 95.2478 42.8512 95.4878 42.6512C95.7278 42.4445 96.0011 42.2912 96.3078 42.1912C96.6145 42.0912 96.9245 42.0412 97.2378 42.0412C97.4845 42.0412 97.7245 42.0778 97.9578 42.1512C98.1911 42.2178 98.4078 42.3178 98.6078 42.4512C98.8078 42.5778 98.9811 42.7412 99.1278 42.9412C99.2811 43.1412 99.3945 43.3712 99.4678 43.6312H98.7178ZM105.432 44.5312C105.432 44.9512 105.359 45.3178 105.212 45.6312C105.065 45.9445 104.872 46.2078 104.632 46.4212C104.392 46.6278 104.119 46.7845 103.812 46.8912C103.505 46.9912 103.192 47.0412 102.872 47.0412C102.559 47.0412 102.249 46.9878 101.942 46.8812C101.642 46.7745 101.372 46.6178 101.132 46.4112C100.899 46.1978 100.709 45.9378 100.562 45.6312C100.422 45.3178 100.352 44.9512 100.352 44.5312C100.352 44.1112 100.425 43.7445 100.572 43.4312C100.719 43.1178 100.912 42.8612 101.152 42.6612C101.392 42.4545 101.662 42.3012 101.962 42.2012C102.269 42.0945 102.582 42.0412 102.902 42.0412C103.222 42.0412 103.532 42.0945 103.832 42.2012C104.139 42.3012 104.409 42.4545 104.642 42.6612C104.882 42.8678 105.072 43.1278 105.212 43.4412C105.359 43.7478 105.432 44.1112 105.432 44.5312ZM101.142 44.5312C101.142 44.8378 101.192 45.1078 101.292 45.3412C101.392 45.5745 101.525 45.7678 101.692 45.9212C101.859 46.0745 102.045 46.1912 102.252 46.2712C102.465 46.3512 102.682 46.3912 102.902 46.3912C103.122 46.3912 103.335 46.3512 103.542 46.2712C103.755 46.1912 103.942 46.0745 104.102 45.9212C104.269 45.7678 104.402 45.5745 104.502 45.3412C104.602 45.1078 104.652 44.8378 104.652 44.5312C104.652 44.2245 104.602 43.9578 104.502 43.7312C104.402 43.5045 104.269 43.3178 104.102 43.1712C103.935 43.0178 103.745 42.9045 103.532 42.8312C103.325 42.7512 103.112 42.7112 102.892 42.7112C102.672 42.7112 102.455 42.7512 102.242 42.8312C102.035 42.9045 101.849 43.0178 101.682 43.1712C101.522 43.3178 101.392 43.5045 101.292 43.7312C101.192 43.9578 101.142 44.2245 101.142 44.5312ZM107.508 42.8112C107.655 42.5312 107.858 42.3345 108.118 42.2212C108.378 42.1012 108.662 42.0412 108.968 42.0412C109.388 42.0412 109.765 42.1612 110.098 42.4012L109.908 43.0612C109.755 42.9612 109.592 42.8845 109.418 42.8312C109.252 42.7712 109.075 42.7412 108.888 42.7412C108.715 42.7412 108.548 42.7712 108.388 42.8312C108.228 42.8912 108.085 42.9745 107.958 43.0812C107.838 43.1878 107.742 43.3212 107.668 43.4812C107.595 43.6345 107.558 43.8045 107.558 43.9912V46.9512H106.788V43.3012C106.788 43.1945 106.785 43.0978 106.778 43.0112C106.772 42.9178 106.748 42.8445 106.708 42.7912C106.675 42.7312 106.618 42.6878 106.538 42.6612C106.458 42.6345 106.348 42.6278 106.208 42.6412L106.198 42.1212C106.385 42.0878 106.555 42.0712 106.708 42.0712C106.868 42.0712 107.005 42.0945 107.118 42.1412C107.238 42.1878 107.332 42.2645 107.398 42.3712C107.465 42.4778 107.502 42.6245 107.508 42.8112ZM112.968 42.0412C113.795 42.0478 114.388 42.2812 114.748 42.7412C115.108 43.1945 115.222 43.8212 115.088 44.6212H111.278C111.265 44.9012 111.305 45.1512 111.398 45.3712C111.498 45.5845 111.635 45.7678 111.808 45.9212C111.982 46.0745 112.188 46.1912 112.428 46.2712C112.668 46.3512 112.925 46.3912 113.198 46.3912C113.478 46.3912 113.748 46.3612 114.008 46.3012C114.275 46.2412 114.548 46.1545 114.828 46.0412L114.948 46.6312C114.368 46.9045 113.778 47.0412 113.178 47.0412C112.778 47.0412 112.412 46.9812 112.078 46.8612C111.745 46.7412 111.458 46.5678 111.218 46.3412C110.978 46.1145 110.795 45.8412 110.668 45.5212C110.542 45.1945 110.485 44.8245 110.498 44.4112C110.512 44.0312 110.585 43.6945 110.718 43.4012C110.852 43.1078 111.028 42.8612 111.248 42.6612C111.475 42.4545 111.735 42.3012 112.028 42.2012C112.322 42.0945 112.635 42.0412 112.968 42.0412ZM112.968 42.6612C112.528 42.6612 112.158 42.7778 111.858 43.0112C111.558 43.2445 111.375 43.5812 111.308 44.0212H114.448C114.462 43.7945 114.432 43.5978 114.358 43.4312C114.285 43.2578 114.182 43.1145 114.048 43.0012C113.915 42.8878 113.755 42.8045 113.568 42.7512C113.382 42.6912 113.182 42.6612 112.968 42.6612Z" fill="#434343"/>
<path d="M72.4159 63.3128L72.4095 63.8167L65.0511 80.0206L61.4274 79.9746L67.5527 66.3713L60.4732 66.2813L60.5129 63.1616L72.4159 63.3128ZM80.4135 63.1743C83.8452 63.2179 86.6262 65.3654 86.5801 68.9891L86.507 74.7486C86.4607 78.3963 83.6258 80.4965 80.1941 80.4529C76.7143 80.4087 73.9337 78.2372 73.98 74.5895L74.0532 68.83C74.0992 65.2063 76.9338 63.1301 80.4135 63.1743ZM80.234 77.3092C81.6979 77.3278 82.8838 76.5508 83.0704 75.089C83.1236 74.6817 83.1531 74.25 83.1595 73.746L83.2079 69.9303C83.214 69.4504 83.1958 68.9941 83.1533 68.5615C83.0045 67.0475 81.8374 66.3366 80.3736 66.3181C78.8377 66.2986 77.7009 66.9802 77.5138 68.4899C77.4603 68.9213 77.4305 69.3769 77.4244 69.8569L77.3759 73.6726C77.3695 74.1765 77.388 74.6088 77.4309 75.0174C77.5803 76.4834 78.6981 77.2897 80.234 77.3092ZM96.0685 63.3731C99.5002 63.4167 102.281 65.5642 102.235 69.1879L102.162 74.9474C102.116 78.5951 99.2808 80.6953 95.849 80.6517C92.3693 80.6075 89.5887 78.4361 89.635 74.7883L89.7081 69.0288C89.7542 65.4051 92.5888 63.3289 96.0685 63.3731ZM95.889 77.508C97.3529 77.5266 98.5388 76.7496 98.7254 75.2878C98.7786 74.8805 98.8081 74.4488 98.8145 73.9448L98.8629 70.1292C98.869 69.6492 98.8508 69.1929 98.8083 68.7603C98.6595 67.2463 97.4924 66.5355 96.0286 66.5169C94.4927 66.4974 93.3559 67.179 93.1687 68.6887C93.1153 69.1201 93.0855 69.5757 93.0794 70.0557L93.0309 73.8714C93.0245 74.3754 93.043 74.8076 93.0858 75.2162C93.2352 76.6822 94.3531 77.4885 95.889 77.508Z" fill="#26CA82"/>
<path d="M63.5787 95.3272C63.6141 92.5434 65.7094 91.0339 67.9172 91.0619C69.5851 91.0831 71.2428 91.9082 71.6979 93.8702L69.934 93.8478C69.5244 93.0265 68.8566 92.694 67.8967 92.6818C66.3248 92.6618 65.4216 93.8505 65.4026 95.3503C65.3823 96.9462 66.3284 98.0503 67.8283 98.0694C68.9802 98.084 69.8247 97.7347 70.2006 96.4794L67.9088 96.4503L67.9276 94.9744L71.8632 95.0244C71.901 95.8289 71.8676 96.5725 71.5819 97.337C70.9244 99.0208 69.4154 99.7216 67.8075 99.7012C65.5877 99.673 63.5434 98.1109 63.5787 95.3272ZM81.3917 95.5534C81.3592 98.1092 79.573 99.8506 77.0292 99.8183C74.7853 99.7898 72.7764 98.2762 72.8124 95.4444C72.8483 92.6127 74.9431 91.1511 77.1749 91.1795C79.3707 91.2074 81.4275 92.7336 81.3917 95.5534ZM74.6242 95.4674C74.6009 97.3033 75.7301 98.1577 77.074 98.1748C78.3819 98.1914 79.5805 97.3665 79.6038 95.5307C79.6265 93.7428 78.4617 92.852 77.1538 92.8354C75.834 92.8186 74.6468 93.6916 74.6242 95.4674ZM90.9768 95.6751C90.9444 98.2309 89.1581 99.9724 86.6143 99.9401C84.3705 99.9116 82.3616 98.3979 82.3975 95.5662C82.4335 92.7344 84.5282 91.2729 86.76 91.3012C88.9559 91.3291 91.0126 92.8553 90.9768 95.6751ZM84.2094 95.5892C84.1861 97.425 85.3153 98.2794 86.6592 98.2965C87.9671 98.3131 89.1657 97.4883 89.189 95.6524C89.2117 93.8646 88.0469 92.9737 86.739 92.9571C85.4191 92.9403 84.2319 93.8133 84.2094 95.5892ZM92.5158 91.5063L95.6356 91.5459C98.3114 91.5799 99.7255 93.6261 99.6984 95.7619C99.7071 97.9102 98.2408 99.9677 95.5291 99.9333L92.4093 99.8937L92.5158 91.5063ZM94.2177 98.2965L95.5256 98.3131C97.0735 98.3328 97.8933 97.0951 97.9104 95.7512C97.9274 94.4073 97.1149 93.1849 95.591 93.1655L94.2831 93.1489L94.2177 98.2965Z" fill="#26CA82"/>
<g filter="url(#filter3_d_930_8009)">
<ellipse cx="270.542" cy="70.4812" rx="59.5339" ry="59.2362" transform="rotate(88.1152 270.542 70.4812)" fill="white"/>
</g>
<g filter="url(#filter4_d_930_8009)">
<path d="M322.311 99.4542C327.378 90.3273 330.116 79.7413 329.748 68.533C328.666 35.6711 301.283 9.90351 268.585 10.9795C235.888 12.0555 210.258 39.5676 211.339 72.4295C211.648 81.8239 214.107 90.6385 218.225 98.412" stroke="url(#paint1_linear_930_8009)" stroke-width="6" stroke-linecap="round"/>
</g>
<g filter="url(#filter5_d_930_8009)">
<circle cx="246.289" cy="16.2887" r="4.15435" transform="rotate(88.1152 246.289 16.2887)" fill="#FEA573"/>
<circle cx="246.289" cy="16.2887" r="3.15435" transform="rotate(88.1152 246.289 16.2887)" stroke="white" stroke-width="2"/>
</g>
<path d="M233.837 46.9412V39.9412C234.297 39.9412 234.764 39.9412 235.237 39.9412C235.711 39.9345 236.177 39.9345 236.637 39.9412C237.011 39.9412 237.347 40.0045 237.647 40.1312C237.954 40.2512 238.214 40.4212 238.427 40.6412C238.641 40.8545 238.804 41.1078 238.917 41.4012C239.031 41.6945 239.087 42.0078 239.087 42.3412C239.087 42.6745 239.027 42.9878 238.907 43.2812C238.794 43.5678 238.631 43.8178 238.417 44.0312C238.204 44.2445 237.944 44.4145 237.637 44.5412C237.337 44.6612 237.004 44.7212 236.637 44.7212H234.667V46.9412H233.837ZM236.637 43.9712C236.871 43.9712 237.087 43.9312 237.287 43.8512C237.487 43.7712 237.661 43.6578 237.807 43.5112C237.954 43.3645 238.067 43.1912 238.147 42.9912C238.234 42.7845 238.277 42.5612 238.277 42.3212C238.277 42.0812 238.237 41.8612 238.157 41.6612C238.077 41.4612 237.964 41.2912 237.817 41.1512C237.671 41.0045 237.497 40.8912 237.297 40.8112C237.097 40.7245 236.877 40.6812 236.637 40.6812C236.317 40.6745 235.991 40.6745 235.657 40.6812C235.331 40.6812 234.997 40.6812 234.657 40.6812V43.9712H236.637ZM241.041 42.8112C241.188 42.5312 241.391 42.3345 241.651 42.2212C241.911 42.1012 242.195 42.0412 242.501 42.0412C242.921 42.0412 243.298 42.1612 243.631 42.4012L243.441 43.0612C243.288 42.9612 243.125 42.8845 242.951 42.8312C242.785 42.7712 242.608 42.7412 242.421 42.7412C242.248 42.7412 242.081 42.7712 241.921 42.8312C241.761 42.8912 241.618 42.9745 241.491 43.0812C241.371 43.1878 241.275 43.3212 241.201 43.4812C241.128 43.6345 241.091 43.8045 241.091 43.9912V46.9512H240.321V43.3012C240.321 43.1945 240.318 43.0978 240.311 43.0112C240.305 42.9178 240.281 42.8445 240.241 42.7912C240.208 42.7312 240.151 42.6878 240.071 42.6612C239.991 42.6345 239.881 42.6278 239.741 42.6412L239.731 42.1212C239.918 42.0878 240.088 42.0712 240.241 42.0712C240.401 42.0712 240.538 42.0945 240.651 42.1412C240.771 42.1878 240.865 42.2645 240.931 42.3712C240.998 42.4778 241.035 42.6245 241.041 42.8112ZM246.501 42.0412C247.328 42.0478 247.921 42.2812 248.281 42.7412C248.641 43.1945 248.755 43.8212 248.621 44.6212H244.811C244.798 44.9012 244.838 45.1512 244.931 45.3712C245.031 45.5845 245.168 45.7678 245.341 45.9212C245.515 46.0745 245.721 46.1912 245.961 46.2712C246.201 46.3512 246.458 46.3912 246.731 46.3912C247.011 46.3912 247.281 46.3612 247.541 46.3012C247.808 46.2412 248.081 46.1545 248.361 46.0412L248.481 46.6312C247.901 46.9045 247.311 47.0412 246.711 47.0412C246.311 47.0412 245.945 46.9812 245.611 46.8612C245.278 46.7412 244.991 46.5678 244.751 46.3412C244.511 46.1145 244.328 45.8412 244.201 45.5212C244.075 45.1945 244.018 44.8245 244.031 44.4112C244.045 44.0312 244.118 43.6945 244.251 43.4012C244.385 43.1078 244.561 42.8612 244.781 42.6612C245.008 42.4545 245.268 42.3012 245.561 42.2012C245.855 42.0945 246.168 42.0412 246.501 42.0412ZM246.501 42.6612C246.061 42.6612 245.691 42.7778 245.391 43.0112C245.091 43.2445 244.908 43.5812 244.841 44.0212H247.981C247.995 43.7945 247.965 43.5978 247.891 43.4312C247.818 43.2578 247.715 43.1145 247.581 43.0012C247.448 42.8878 247.288 42.8045 247.101 42.7512C246.915 42.6912 246.715 42.6612 246.501 42.6612ZM253.528 45.9212C253.362 46.2878 253.125 46.5645 252.818 46.7512C252.518 46.9378 252.175 47.0345 251.788 47.0412C251.428 47.0412 251.108 46.9745 250.828 46.8412C250.555 46.7078 250.325 46.5278 250.138 46.3012C249.952 46.0678 249.808 45.8012 249.708 45.5012C249.615 45.1945 249.568 44.8712 249.568 44.5312C249.568 44.1445 249.632 43.7978 249.758 43.4912C249.885 43.1778 250.052 42.9145 250.258 42.7012C250.472 42.4878 250.718 42.3245 250.998 42.2112C251.278 42.0978 251.575 42.0412 251.888 42.0412C252.142 42.0412 252.395 42.0812 252.648 42.1612C252.902 42.2345 253.152 42.3545 253.398 42.5212V39.6312H254.178V45.3612C254.178 45.5212 254.175 45.6712 254.168 45.8112C254.162 45.9445 254.172 46.0612 254.198 46.1612C254.232 46.2545 254.288 46.3245 254.368 46.3712C254.448 46.4112 254.575 46.4212 254.748 46.4012L254.758 46.9712C254.565 47.0045 254.392 47.0178 254.238 47.0112C254.085 47.0045 253.955 46.9645 253.848 46.8912C253.742 46.8112 253.662 46.6945 253.608 46.5412C253.555 46.3878 253.528 46.1812 253.528 45.9212ZM253.418 43.2412C253.185 43.0678 252.942 42.9378 252.688 42.8512C252.435 42.7645 252.192 42.7245 251.958 42.7312C251.738 42.7312 251.532 42.7712 251.338 42.8512C251.145 42.9312 250.975 43.0478 250.828 43.2012C250.682 43.3545 250.565 43.5445 250.478 43.7712C250.398 43.9912 250.358 44.2445 250.358 44.5312C250.358 44.7712 250.388 45.0012 250.448 45.2212C250.515 45.4412 250.612 45.6345 250.738 45.8012C250.865 45.9612 251.025 46.0912 251.218 46.1912C251.412 46.2912 251.638 46.3412 251.898 46.3412C252.125 46.3412 252.332 46.2978 252.518 46.2112C252.705 46.1245 252.862 46.0112 252.988 45.8712C253.122 45.7245 253.225 45.5545 253.298 45.3612C253.372 45.1678 253.412 44.9612 253.418 44.7412V43.2412ZM255.804 40.5412C255.804 40.3745 255.854 40.2512 255.954 40.1712C256.061 40.0912 256.174 40.0512 256.294 40.0512C256.421 40.0512 256.534 40.0912 256.634 40.1712C256.741 40.2512 256.794 40.3745 256.794 40.5412C256.794 40.7078 256.741 40.8345 256.634 40.9212C256.534 41.0012 256.421 41.0412 256.294 41.0412C256.174 41.0412 256.061 41.0012 255.954 40.9212C255.854 40.8345 255.804 40.7078 255.804 40.5412ZM256.684 46.9512H255.904V42.1312H256.684V46.9512ZM261.948 43.6312C261.815 43.3312 261.615 43.1078 261.348 42.9612C261.088 42.8145 260.805 42.7412 260.498 42.7412C260.278 42.7412 260.058 42.7778 259.838 42.8512C259.625 42.9245 259.431 43.0345 259.258 43.1812C259.091 43.3278 258.955 43.5145 258.848 43.7412C258.748 43.9612 258.698 44.2212 258.698 44.5212C258.698 44.8212 258.748 45.0845 258.848 45.3112C258.955 45.5378 259.088 45.7278 259.248 45.8812C259.415 46.0345 259.601 46.1512 259.808 46.2312C260.021 46.3112 260.238 46.3512 260.458 46.3512C260.778 46.3512 261.078 46.2678 261.358 46.1012C261.645 45.9345 261.855 45.6812 261.988 45.3412H262.748C262.675 45.6278 262.561 45.8778 262.408 46.0912C262.255 46.3045 262.075 46.4812 261.868 46.6212C261.661 46.7612 261.435 46.8678 261.188 46.9412C260.948 47.0078 260.701 47.0412 260.448 47.0412C260.135 47.0412 259.825 46.9878 259.518 46.8812C259.218 46.7745 258.948 46.6178 258.708 46.4112C258.468 46.1978 258.275 45.9345 258.128 45.6212C257.981 45.3012 257.908 44.9345 257.908 44.5212C257.908 44.1012 257.981 43.7345 258.128 43.4212C258.281 43.1078 258.478 42.8512 258.718 42.6512C258.958 42.4445 259.231 42.2912 259.538 42.1912C259.845 42.0912 260.155 42.0412 260.468 42.0412C260.715 42.0412 260.955 42.0778 261.188 42.1512C261.421 42.2178 261.638 42.3178 261.838 42.4512C262.038 42.5778 262.211 42.7412 262.358 42.9412C262.511 43.1412 262.625 43.3712 262.698 43.6312H261.948ZM265.172 42.1512H266.942V42.7212H265.172V45.1612C265.172 45.5945 265.259 45.9112 265.432 46.1112C265.605 46.3112 265.849 46.4112 266.162 46.4112C266.422 46.4112 266.732 46.3445 267.092 46.2112L267.182 46.8212C266.735 46.9678 266.319 47.0412 265.932 47.0412C265.459 47.0412 265.082 46.8945 264.802 46.6012C264.529 46.3078 264.392 45.8345 264.392 45.1812V42.7212L263.362 42.6712V42.1512H264.442L264.522 40.6512H265.172V42.1512ZM270.261 42.0412C271.088 42.0478 271.681 42.2812 272.041 42.7412C272.401 43.1945 272.514 43.8212 272.381 44.6212H268.571C268.558 44.9012 268.598 45.1512 268.691 45.3712C268.791 45.5845 268.928 45.7678 269.101 45.9212C269.274 46.0745 269.481 46.1912 269.721 46.2712C269.961 46.3512 270.218 46.3912 270.491 46.3912C270.771 46.3912 271.041 46.3612 271.301 46.3012C271.568 46.2412 271.841 46.1545 272.121 46.0412L272.241 46.6312C271.661 46.9045 271.071 47.0412 270.471 47.0412C270.071 47.0412 269.704 46.9812 269.371 46.8612C269.038 46.7412 268.751 46.5678 268.511 46.3412C268.271 46.1145 268.088 45.8412 267.961 45.5212C267.834 45.1945 267.778 44.8245 267.791 44.4112C267.804 44.0312 267.878 43.6945 268.011 43.4012C268.144 43.1078 268.321 42.8612 268.541 42.6612C268.768 42.4545 269.028 42.3012 269.321 42.2012C269.614 42.0945 269.928 42.0412 270.261 42.0412ZM270.261 42.6612C269.821 42.6612 269.451 42.7778 269.151 43.0112C268.851 43.2445 268.668 43.5812 268.601 44.0212H271.741C271.754 43.7945 271.724 43.5978 271.651 43.4312C271.578 43.2578 271.474 43.1145 271.341 43.0012C271.208 42.8878 271.048 42.8045 270.861 42.7512C270.674 42.6912 270.474 42.6612 270.261 42.6612ZM277.288 45.9212C277.122 46.2878 276.885 46.5645 276.578 46.7512C276.278 46.9378 275.935 47.0345 275.548 47.0412C275.188 47.0412 274.868 46.9745 274.588 46.8412C274.315 46.7078 274.085 46.5278 273.898 46.3012C273.712 46.0678 273.568 45.8012 273.468 45.5012C273.375 45.1945 273.328 44.8712 273.328 44.5312C273.328 44.1445 273.392 43.7978 273.518 43.4912C273.645 43.1778 273.812 42.9145 274.018 42.7012C274.232 42.4878 274.478 42.3245 274.758 42.2112C275.038 42.0978 275.335 42.0412 275.648 42.0412C275.902 42.0412 276.155 42.0812 276.408 42.1612C276.662 42.2345 276.912 42.3545 277.158 42.5212V39.6312H277.938V45.3612C277.938 45.5212 277.935 45.6712 277.928 45.8112C277.922 45.9445 277.932 46.0612 277.958 46.1612C277.992 46.2545 278.048 46.3245 278.128 46.3712C278.208 46.4112 278.335 46.4212 278.508 46.4012L278.518 46.9712C278.325 47.0045 278.152 47.0178 277.998 47.0112C277.845 47.0045 277.715 46.9645 277.608 46.8912C277.502 46.8112 277.422 46.6945 277.368 46.5412C277.315 46.3878 277.288 46.1812 277.288 45.9212ZM277.178 43.2412C276.945 43.0678 276.702 42.9378 276.448 42.8512C276.195 42.7645 275.952 42.7245 275.718 42.7312C275.498 42.7312 275.292 42.7712 275.098 42.8512C274.905 42.9312 274.735 43.0478 274.588 43.2012C274.442 43.3545 274.325 43.5445 274.238 43.7712C274.158 43.9912 274.118 44.2445 274.118 44.5312C274.118 44.7712 274.148 45.0012 274.208 45.2212C274.275 45.4412 274.372 45.6345 274.498 45.8012C274.625 45.9612 274.785 46.0912 274.978 46.1912C275.172 46.2912 275.398 46.3412 275.658 46.3412C275.885 46.3412 276.092 46.2978 276.278 46.2112C276.465 46.1245 276.622 46.0112 276.748 45.8712C276.882 45.7245 276.985 45.5545 277.058 45.3612C277.132 45.1678 277.172 44.9612 277.178 44.7412V43.2412ZM282.752 45.0412C282.765 45.2745 282.835 45.4745 282.962 45.6412C283.089 45.8012 283.249 45.9312 283.442 46.0312C283.635 46.1312 283.845 46.2045 284.072 46.2512C284.305 46.2912 284.529 46.3112 284.742 46.3112C284.949 46.3112 285.162 46.2912 285.382 46.2512C285.609 46.2112 285.812 46.1412 285.992 46.0412C286.179 45.9412 286.332 45.8078 286.452 45.6412C286.572 45.4678 286.635 45.2545 286.642 45.0012C286.642 44.7212 286.582 44.5045 286.462 44.3512C286.342 44.1912 286.185 44.0712 285.992 43.9912C285.799 43.9045 285.582 43.8478 285.342 43.8212C285.109 43.7878 284.872 43.7545 284.632 43.7212C284.312 43.6878 283.999 43.6378 283.692 43.5712C283.392 43.5045 283.122 43.4045 282.882 43.2712C282.642 43.1312 282.449 42.9512 282.302 42.7312C282.155 42.5045 282.082 42.2145 282.082 41.8612C282.082 41.5145 282.155 41.2178 282.302 40.9712C282.455 40.7178 282.652 40.5112 282.892 40.3512C283.132 40.1845 283.402 40.0612 283.702 39.9812C284.009 39.9012 284.315 39.8612 284.622 39.8612C284.922 39.8612 285.225 39.8978 285.532 39.9712C285.839 40.0378 286.115 40.1478 286.362 40.3012C286.615 40.4478 286.822 40.6412 286.982 40.8812C287.142 41.1212 287.229 41.4112 287.242 41.7512H286.462C286.442 41.5312 286.372 41.3478 286.252 41.2012C286.139 41.0545 285.995 40.9378 285.822 40.8512C285.649 40.7645 285.459 40.7045 285.252 40.6712C285.045 40.6312 284.842 40.6112 284.642 40.6112C284.449 40.6112 284.249 40.6345 284.042 40.6812C283.842 40.7212 283.655 40.7912 283.482 40.8912C283.315 40.9845 283.179 41.1112 283.072 41.2712C282.965 41.4312 282.912 41.6245 282.912 41.8512C282.912 42.1112 282.969 42.3145 283.082 42.4612C283.195 42.6078 283.342 42.7212 283.522 42.8012C283.702 42.8745 283.902 42.9278 284.122 42.9612C284.342 42.9878 284.559 43.0145 284.772 43.0412C285.119 43.0812 285.452 43.1345 285.772 43.2012C286.099 43.2612 286.385 43.3612 286.632 43.5012C286.885 43.6412 287.085 43.8312 287.232 44.0712C287.385 44.3045 287.462 44.6145 287.462 45.0012C287.462 45.3745 287.379 45.6912 287.212 45.9512C287.052 46.2045 286.842 46.4112 286.582 46.5712C286.322 46.7312 286.032 46.8478 285.712 46.9212C285.392 46.9945 285.072 47.0345 284.752 47.0412C284.425 47.0478 284.099 47.0145 283.772 46.9412C283.445 46.8678 283.149 46.7512 282.882 46.5912C282.615 46.4312 282.395 46.2245 282.222 45.9712C282.049 45.7112 281.955 45.4012 281.942 45.0412H282.752ZM292.417 43.6312C292.283 43.3312 292.083 43.1078 291.817 42.9612C291.557 42.8145 291.273 42.7412 290.967 42.7412C290.747 42.7412 290.527 42.7778 290.307 42.8512C290.093 42.9245 289.9 43.0345 289.727 43.1812C289.56 43.3278 289.423 43.5145 289.317 43.7412C289.217 43.9612 289.167 44.2212 289.167 44.5212C289.167 44.8212 289.217 45.0845 289.317 45.3112C289.423 45.5378 289.557 45.7278 289.717 45.8812C289.883 46.0345 290.07 46.1512 290.277 46.2312C290.49 46.3112 290.707 46.3512 290.927 46.3512C291.247 46.3512 291.547 46.2678 291.827 46.1012C292.113 45.9345 292.323 45.6812 292.457 45.3412H293.217C293.143 45.6278 293.03 45.8778 292.877 46.0912C292.723 46.3045 292.543 46.4812 292.337 46.6212C292.13 46.7612 291.903 46.8678 291.657 46.9412C291.417 47.0078 291.17 47.0412 290.917 47.0412C290.603 47.0412 290.293 46.9878 289.987 46.8812C289.687 46.7745 289.417 46.6178 289.177 46.4112C288.937 46.1978 288.743 45.9345 288.597 45.6212C288.45 45.3012 288.377 44.9345 288.377 44.5212C288.377 44.1012 288.45 43.7345 288.597 43.4212C288.75 43.1078 288.947 42.8512 289.187 42.6512C289.427 42.4445 289.7 42.2912 290.007 42.1912C290.313 42.0912 290.623 42.0412 290.937 42.0412C291.183 42.0412 291.423 42.0778 291.657 42.1512C291.89 42.2178 292.107 42.3178 292.307 42.4512C292.507 42.5778 292.68 42.7412 292.827 42.9412C292.98 43.1412 293.093 43.3712 293.167 43.6312H292.417ZM299.131 44.5312C299.131 44.9512 299.057 45.3178 298.911 45.6312C298.764 45.9445 298.571 46.2078 298.331 46.4212C298.091 46.6278 297.817 46.7845 297.511 46.8912C297.204 46.9912 296.891 47.0412 296.571 47.0412C296.257 47.0412 295.947 46.9878 295.641 46.8812C295.341 46.7745 295.071 46.6178 294.831 46.4112C294.597 46.1978 294.407 45.9378 294.261 45.6312C294.121 45.3178 294.051 44.9512 294.051 44.5312C294.051 44.1112 294.124 43.7445 294.271 43.4312C294.417 43.1178 294.611 42.8612 294.851 42.6612C295.091 42.4545 295.361 42.3012 295.661 42.2012C295.967 42.0945 296.281 42.0412 296.601 42.0412C296.921 42.0412 297.231 42.0945 297.531 42.2012C297.837 42.3012 298.107 42.4545 298.341 42.6612C298.581 42.8678 298.771 43.1278 298.911 43.4412C299.057 43.7478 299.131 44.1112 299.131 44.5312ZM294.841 44.5312C294.841 44.8378 294.891 45.1078 294.991 45.3412C295.091 45.5745 295.224 45.7678 295.391 45.9212C295.557 46.0745 295.744 46.1912 295.951 46.2712C296.164 46.3512 296.381 46.3912 296.601 46.3912C296.821 46.3912 297.034 46.3512 297.241 46.2712C297.454 46.1912 297.641 46.0745 297.801 45.9212C297.967 45.7678 298.101 45.5745 298.201 45.3412C298.301 45.1078 298.351 44.8378 298.351 44.5312C298.351 44.2245 298.301 43.9578 298.201 43.7312C298.101 43.5045 297.967 43.3178 297.801 43.1712C297.634 43.0178 297.444 42.9045 297.231 42.8312C297.024 42.7512 296.811 42.7112 296.591 42.7112C296.371 42.7112 296.154 42.7512 295.941 42.8312C295.734 42.9045 295.547 43.0178 295.381 43.1712C295.221 43.3178 295.091 43.5045 294.991 43.7312C294.891 43.9578 294.841 44.2245 294.841 44.5312ZM301.207 42.8112C301.354 42.5312 301.557 42.3345 301.817 42.2212C302.077 42.1012 302.361 42.0412 302.667 42.0412C303.087 42.0412 303.464 42.1612 303.797 42.4012L303.607 43.0612C303.454 42.9612 303.291 42.8845 303.117 42.8312C302.951 42.7712 302.774 42.7412 302.587 42.7412C302.414 42.7412 302.247 42.7712 302.087 42.8312C301.927 42.8912 301.784 42.9745 301.657 43.0812C301.537 43.1878 301.441 43.3212 301.367 43.4812C301.294 43.6345 301.257 43.8045 301.257 43.9912V46.9512H300.487V43.3012C300.487 43.1945 300.484 43.0978 300.477 43.0112C300.471 42.9178 300.447 42.8445 300.407 42.7912C300.374 42.7312 300.317 42.6878 300.237 42.6612C300.157 42.6345 300.047 42.6278 299.907 42.6412L299.897 42.1212C300.084 42.0878 300.254 42.0712 300.407 42.0712C300.567 42.0712 300.704 42.0945 300.817 42.1412C300.937 42.1878 301.031 42.2645 301.097 42.3712C301.164 42.4778 301.201 42.6245 301.207 42.8112ZM306.667 42.0412C307.494 42.0478 308.087 42.2812 308.447 42.7412C308.807 43.1945 308.921 43.8212 308.787 44.6212H304.977C304.964 44.9012 305.004 45.1512 305.097 45.3712C305.197 45.5845 305.334 45.7678 305.507 45.9212C305.681 46.0745 305.887 46.1912 306.127 46.2712C306.367 46.3512 306.624 46.3912 306.897 46.3912C307.177 46.3912 307.447 46.3612 307.707 46.3012C307.974 46.2412 308.247 46.1545 308.527 46.0412L308.647 46.6312C308.067 46.9045 307.477 47.0412 306.877 47.0412C306.477 47.0412 306.111 46.9812 305.777 46.8612C305.444 46.7412 305.157 46.5678 304.917 46.3412C304.677 46.1145 304.494 45.8412 304.367 45.5212C304.241 45.1945 304.184 44.8245 304.197 44.4112C304.211 44.0312 304.284 43.6945 304.417 43.4012C304.551 43.1078 304.727 42.8612 304.947 42.6612C305.174 42.4545 305.434 42.3012 305.727 42.2012C306.021 42.0945 306.334 42.0412 306.667 42.0412ZM306.667 42.6612C306.227 42.6612 305.857 42.7778 305.557 43.0112C305.257 43.2445 305.074 43.5812 305.007 44.0212H308.147C308.161 43.7945 308.131 43.5978 308.057 43.4312C307.984 43.2578 307.881 43.1145 307.747 43.0012C307.614 42.8878 307.454 42.8045 307.267 42.7512C307.081 42.6912 306.881 42.6612 306.667 42.6612Z" fill="#434343"/>
<path d="M254.188 66.1864L254.152 69.0662C254.729 68.9775 255.329 68.9371 255.977 68.9454C259.504 69.0622 262.319 70.442 262.265 74.6897C262.227 77.6414 260.081 80.3264 256.313 80.2785C253.17 80.2386 250.818 78.2886 250.667 75.0944L253.81 75.1344C253.913 76.5038 254.865 77.1159 256.281 77.1339C258.033 77.1561 258.791 76.0857 258.809 74.6698C258.86 70.6621 253.784 71.5817 251.164 71.8365L251.274 63.1732L261.569 63.3039L261.532 66.2797L254.188 66.1864ZM268.156 66.3638L268.119 69.2436C268.696 69.1549 269.297 69.1145 269.945 69.1228C273.472 69.2395 276.286 70.6194 276.232 74.8671C276.195 77.8188 274.049 80.5038 270.281 80.4559C267.137 80.416 264.786 78.466 264.634 75.2718L267.778 75.3117C267.881 76.6811 268.833 77.2933 270.249 77.3113C272.001 77.3335 272.758 76.2631 272.776 74.8472C272.827 70.8395 267.751 71.7591 265.132 72.0139L265.242 63.3506L275.537 63.4813L275.499 66.4571L268.156 66.3638ZM285.332 63.3657C288.764 63.4093 291.545 65.5568 291.499 69.1805L291.425 74.94C291.379 78.5877 288.544 80.6879 285.113 80.6443C281.633 80.6001 278.852 78.4286 278.898 74.7809L278.972 69.0214C279.018 65.3977 281.852 63.3215 285.332 63.3657ZM285.152 77.5005C286.616 77.5191 287.802 76.7421 287.989 75.2804C288.042 74.873 288.072 74.4414 288.078 73.9374L288.126 70.1217C288.132 69.6418 288.114 69.1855 288.072 68.7529C287.923 67.2389 286.756 66.528 285.292 66.5094C283.756 66.4899 282.619 67.1715 282.432 68.6813C282.379 69.1126 282.349 69.5683 282.343 70.0483L282.294 73.864C282.288 74.3679 282.307 74.8002 282.349 75.2088C282.499 76.6748 283.617 77.481 285.152 77.5005Z" fill="#FEA573"/>
<path d="M256.155 99.5301L254.355 99.5073L254.462 91.1079C255.662 91.1112 256.849 91.1383 258.049 91.1535C260.005 91.1783 261.018 92.6673 260.998 94.2512C260.978 95.8111 259.893 97.2014 257.973 97.177L256.185 97.1543L256.155 99.5301ZM256.168 95.618L257.992 95.6411C258.76 95.6509 259.273 94.9853 259.283 94.1814C259.293 93.4015 258.821 92.7354 258.029 92.7254C257.417 92.7056 256.817 92.71 256.205 92.7022L256.168 95.618ZM270.37 95.5223C270.338 98.0781 268.551 99.8196 266.008 99.7873C263.764 99.7588 261.755 98.2451 261.791 95.4134C261.827 92.5816 263.921 91.1201 266.153 91.1484C268.349 91.1763 270.406 92.7025 270.37 95.5223ZM263.603 95.4364C263.579 97.2722 264.709 98.1266 266.052 98.1437C267.36 98.1603 268.559 97.3355 268.582 95.4996C268.605 93.7117 267.44 92.8209 266.132 92.8043C264.812 92.7875 263.625 93.6605 263.603 95.4364ZM279.955 95.644C279.923 98.1998 278.137 99.9413 275.593 99.909C273.349 99.8805 271.34 98.3669 271.376 95.5351C271.412 92.7033 273.507 91.2418 275.738 91.2701C277.934 91.298 279.991 92.8243 279.955 95.644ZM273.188 95.5581C273.164 97.3939 274.294 98.2484 275.638 98.2654C276.945 98.282 278.144 97.4572 278.167 95.6213C278.19 93.8335 277.025 92.9426 275.717 92.926C274.397 92.9092 273.21 93.7822 273.188 95.5581ZM286.478 96.867L288.338 99.6868L288.335 99.9388L286.415 99.9144L284.723 97.1207L283.223 97.1017L283.188 99.8734L281.388 99.8506L281.495 91.4512C282.694 91.4665 283.882 91.4696 285.082 91.4968C287.002 91.5212 288.028 92.9263 288.009 94.4142C287.996 95.4821 287.444 96.4112 286.478 96.867ZM283.218 95.6255L285.018 95.6483C285.773 95.6579 286.273 95.0762 286.27 94.3561C286.279 93.6482 285.818 93.0783 285.05 93.0685L283.25 93.0457L283.218 95.6255Z" fill="#FEA573"/>
<path d="M177.328 62.2808C177.537 62.0697 177.821 61.9512 178.117 61.9512C178.413 61.9512 178.696 62.0697 178.906 62.2808L185.232 68.6679C185.441 68.8793 185.558 69.1658 185.558 69.4645C185.558 69.7632 185.441 70.0496 185.232 70.261L178.906 76.6481C178.694 76.8475 178.414 76.9561 178.125 76.951C177.835 76.946 177.559 76.8277 177.355 76.6211C177.15 76.4144 177.033 76.1357 177.028 75.8435C177.023 75.5514 177.13 75.2687 177.328 75.0551L181.749 70.5916L170.674 70.5916C170.378 70.5916 170.094 70.4728 169.885 70.2615C169.676 70.0501 169.558 69.7634 169.558 69.4645C169.558 69.1655 169.676 68.8788 169.885 68.6675C170.094 68.4561 170.378 68.3373 170.674 68.3373L181.749 68.3373L177.328 63.8738C177.119 63.6625 177.001 63.376 177.001 63.0773C177.001 62.7786 177.119 62.4921 177.328 62.2808Z" fill="#5A5A5A"/>
<defs>
<filter id="filter0_d_930_8009" x="0.955566" y="10.9473" width="168.474" height="169.068" filterUnits="userSpaceOnUse" color-interpolation-filters="sRGB">
<feFlood flood-opacity="0" result="BackgroundImageFix"/>
<feColorMatrix in="SourceAlpha" type="matrix" values="0 0 0 0 0 0 0 0 0 0 0 0 0 0 0 0 0 0 127 0" result="hardAlpha"/>
<feOffset dx="4" dy="25"/>
<feGaussianBlur stdDeviation="12.5"/>
<feComposite in2="hardAlpha" operator="out"/>
<feColorMatrix type="matrix" values="0 0 0 0 0.223529 0 0 0 0 0.505882 0 0 0 0 0.964706 0 0 0 0.13 0"/>
<feBlend mode="normal" in2="BackgroundImageFix" result="effect1_dropShadow_930_8009"/>
<feBlend mode="normal" in="SourceGraphic" in2="effect1_dropShadow_930_8009" result="shape"/>
</filter>
<filter id="filter1_d_930_8009" x="11.9568" y="0.947266" width="138.474" height="108.508" filterUnits="userSpaceOnUse" color-interpolation-filters="sRGB">
<feFlood flood-opacity="0" result="BackgroundImageFix"/>
<feColorMatrix in="SourceAlpha" type="matrix" values="0 0 0 0 0 0 0 0 0 0 0 0 0 0 0 0 0 0 127 0" result="hardAlpha"/>
<feOffset/>
<feGaussianBlur stdDeviation="3.5"/>
<feComposite in2="hardAlpha" operator="out"/>
<feColorMatrix type="matrix" values="0 0 0 0 0.223529 0 0 0 0 0.505882 0 0 0 0 0.964706 0 0 0 0.14 0"/>
<feBlend mode="normal" in2="BackgroundImageFix" result="effect1_dropShadow_930_8009"/>
<feBlend mode="normal" in="SourceGraphic" in2="effect1_dropShadow_930_8009" result="shape"/>
</filter>
<filter id="filter2_d_930_8009" x="127.416" y="43.1689" width="16.3088" height="16.3086" filterUnits="userSpaceOnUse" color-interpolation-filters="sRGB">
<feFlood flood-opacity="0" result="BackgroundImageFix"/>
<feColorMatrix in="SourceAlpha" type="matrix" values="0 0 0 0 0 0 0 0 0 0 0 0 0 0 0 0 0 0 127 0" result="hardAlpha"/>
<feOffset dy="4"/>
<feGaussianBlur stdDeviation="2"/>
<feComposite in2="hardAlpha" operator="out"/>
<feColorMatrix type="matrix" values="0 0 0 0 0.223529 0 0 0 0 0.505882 0 0 0 0 0.964706 0 0 0 0.12 0"/>
<feBlend mode="normal" in2="BackgroundImageFix" result="effect1_dropShadow_930_8009"/>
<feBlend mode="normal" in="SourceGraphic" in2="effect1_dropShadow_930_8009" result="shape"/>
</filter>
<filter id="filter3_d_930_8009" x="190.305" y="10.9473" width="168.474" height="169.068" filterUnits="userSpaceOnUse" color-interpolation-filters="sRGB">
<feFlood flood-opacity="0" result="BackgroundImageFix"/>
<feColorMatrix in="SourceAlpha" type="matrix" values="0 0 0 0 0 0 0 0 0 0 0 0 0 0 0 0 0 0 127 0" result="hardAlpha"/>
<feOffset dx="4" dy="25"/>
<feGaussianBlur stdDeviation="12.5"/>
<feComposite in2="hardAlpha" operator="out"/>
<feColorMatrix type="matrix" values="0 0 0 0 0.223529 0 0 0 0 0.505882 0 0 0 0 0.964706 0 0 0 0.13 0"/>
<feBlend mode="normal" in2="BackgroundImageFix" result="effect1_dropShadow_930_8009"/>
<feBlend mode="normal" in="SourceGraphic" in2="effect1_dropShadow_930_8009" result="shape"/>
</filter>
<filter id="filter4_d_930_8009" x="201.306" y="0.947266" width="138.474" height="108.508" filterUnits="userSpaceOnUse" color-interpolation-filters="sRGB">
<feFlood flood-opacity="0" result="BackgroundImageFix"/>
<feColorMatrix in="SourceAlpha" type="matrix" values="0 0 0 0 0 0 0 0 0 0 0 0 0 0 0 0 0 0 127 0" result="hardAlpha"/>
<feOffset/>
<feGaussianBlur stdDeviation="3.5"/>
<feComposite in2="hardAlpha" operator="out"/>
<feColorMatrix type="matrix" values="0 0 0 0 0.223529 0 0 0 0 0.505882 0 0 0 0 0.964706 0 0 0 0.14 0"/>
<feBlend mode="normal" in2="BackgroundImageFix" result="effect1_dropShadow_930_8009"/>
<feBlend mode="normal" in="SourceGraphic" in2="effect1_dropShadow_930_8009" result="shape"/>
</filter>
<filter id="filter5_d_930_8009" x="238.135" y="12.1348" width="16.3088" height="16.3086" filterUnits="userSpaceOnUse" color-interpolation-filters="sRGB">
<feFlood flood-opacity="0" result="BackgroundImageFix"/>
<feColorMatrix in="SourceAlpha" type="matrix" values="0 0 0 0 0 0 0 0 0 0 0 0 0 0 0 0 0 0 127 0" result="hardAlpha"/>
<feOffset dy="4"/>
<feGaussianBlur stdDeviation="2"/>
<feComposite in2="hardAlpha" operator="out"/>
<feColorMatrix type="matrix" values="0 0 0 0 0.223529 0 0 0 0 0.505882 0 0 0 0 0.964706 0 0 0 0.12 0"/>
<feBlend mode="normal" in2="BackgroundImageFix" result="effect1_dropShadow_930_8009"/>
<feBlend mode="normal" in="SourceGraphic" in2="effect1_dropShadow_930_8009" result="shape"/>
</filter>
<linearGradient id="paint0_linear_930_8009" x1="29.3739" y1="98.6663" x2="130.337" y2="96.6269" gradientUnits="userSpaceOnUse">
<stop stop-color="#FF6556"/>
<stop offset="0.32" stop-color="#FDA472"/>
<stop offset="0.58" stop-color="#FFC671"/>
<stop offset="1" stop-color="#23CF79"/>
</linearGradient>
<linearGradient id="paint1_linear_930_8009" x1="218.723" y1="98.6663" x2="319.686" y2="96.6269" gradientUnits="userSpaceOnUse">
<stop stop-color="#FF6556"/>
<stop offset="0.32" stop-color="#FDA472"/>
<stop offset="0.58" stop-color="#FFC671"/>
<stop offset="1" stop-color="#23CF79"/>
</linearGradient>
</defs>
</svg>
