<svg xmlns="http://www.w3.org/2000/svg" width="356" height="181" viewBox="0 0 356 181" fill="none">
<g filter="url(#filter0_d_263_2690)">
<ellipse cx="81.1928" cy="70.4815" rx="59.5339" ry="59.2362" transform="rotate(88.1152 81.1928 70.4815)" fill="white"/>
</g>
<g filter="url(#filter1_d_263_2690)">
<path d="M132.962 99.4545C138.029 90.3275 140.767 79.7415 140.398 68.5332C139.317 35.6713 111.934 9.90376 79.236 10.9797C46.5384 12.0557 20.9084 39.5678 21.9898 72.4297C22.299 81.8241 24.7577 90.6388 28.8755 98.4122" stroke="url(#paint0_linear_263_2690)" stroke-width="6" stroke-linecap="round"/>
</g>
<g filter="url(#filter2_d_263_2690)">
<circle cx="135.57" cy="47.3234" r="4.15435" transform="rotate(88.1152 135.57 47.3234)" fill="#008A00"/>
<circle cx="135.57" cy="47.3234" r="3.15435" transform="rotate(88.1152 135.57 47.3234)" stroke="white" stroke-width="2"/>
</g>
<path d="M48.0581 43.4514C48.0581 42.9047 48.1481 42.4081 48.3281 41.9614C48.5148 41.5147 48.7681 41.1347 49.0881 40.8214C49.4081 40.5081 49.7814 40.2681 50.2081 40.1014C50.6414 39.9347 51.1048 39.8547 51.5981 39.8614C51.9381 39.8614 52.2714 39.9081 52.5981 40.0014C52.9248 40.0881 53.2248 40.2247 53.4981 40.4114C53.7781 40.5914 54.0214 40.8181 54.2281 41.0914C54.4414 41.3647 54.6014 41.6847 54.7081 42.0514H53.8981C53.6848 41.5714 53.3748 41.2147 52.9681 40.9814C52.5614 40.7481 52.1048 40.6314 51.5981 40.6314C51.1981 40.6247 50.8314 40.6914 50.4981 40.8314C50.1648 40.9714 49.8814 41.1681 49.6481 41.4214C49.4148 41.6747 49.2314 41.9747 49.0981 42.3214C48.9714 42.6681 48.9081 43.0447 48.9081 43.4514C48.9081 43.8447 48.9714 44.2147 49.0981 44.5614C49.2248 44.9014 49.4048 45.1981 49.6381 45.4514C49.8781 45.7047 50.1614 45.9047 50.4881 46.0514C50.8214 46.1914 51.1881 46.2614 51.5881 46.2614C52.1281 46.2614 52.6081 46.1314 53.0281 45.8714C53.4481 45.6047 53.7514 45.2181 53.9381 44.7114H54.7481C54.6481 45.1047 54.4914 45.4481 54.2781 45.7414C54.0714 46.0281 53.8281 46.2681 53.5481 46.4614C53.2681 46.6547 52.9581 46.7981 52.6181 46.8914C52.2848 46.9847 51.9448 47.0314 51.5981 47.0314C51.1114 47.0314 50.6514 46.9481 50.2181 46.7814C49.7914 46.6147 49.4181 46.3781 49.0981 46.0714C48.7781 45.7581 48.5248 45.3814 48.3381 44.9414C48.1514 44.5014 48.0581 44.0047 48.0581 43.4514ZM60.1253 42.1314V45.6614C60.1253 45.8414 60.132 45.9847 60.1453 46.0914C60.1586 46.1914 60.1853 46.2714 60.2253 46.3314C60.2653 46.3847 60.322 46.4181 60.3953 46.4314C60.4686 46.4381 60.5686 46.4347 60.6953 46.4214L60.7053 46.9614C60.5186 46.9947 60.342 47.0114 60.1753 47.0114C60.0153 47.0181 59.8753 46.9981 59.7553 46.9514C59.6353 46.8981 59.542 46.8147 59.4753 46.7014C59.4153 46.5814 59.392 46.4147 59.4053 46.2014C59.312 46.3681 59.202 46.5081 59.0753 46.6214C58.9486 46.7281 58.8086 46.8147 58.6553 46.8814C58.5086 46.9414 58.352 46.9814 58.1853 47.0014C58.0186 47.0281 57.852 47.0414 57.6853 47.0414C57.3653 47.0414 57.0886 46.9881 56.8553 46.8814C56.6286 46.7747 56.442 46.6281 56.2953 46.4414C56.1486 46.2481 56.042 46.0247 55.9753 45.7714C55.9086 45.5181 55.8753 45.2414 55.8753 44.9414V42.1314H56.6653V44.9414C56.6586 45.3814 56.7653 45.7347 56.9853 46.0014C57.2053 46.2681 57.5153 46.4014 57.9153 46.4014C58.3353 46.4014 58.6786 46.2714 58.9453 46.0114C59.212 45.7447 59.3453 45.3847 59.3453 44.9314V42.1314H60.1253ZM62.6744 42.8114C62.8211 42.5314 63.0244 42.3347 63.2844 42.2214C63.5444 42.1014 63.8278 42.0414 64.1344 42.0414C64.5544 42.0414 64.9311 42.1614 65.2644 42.4014L65.0744 43.0614C64.9211 42.9614 64.7578 42.8847 64.5844 42.8314C64.4178 42.7714 64.2411 42.7414 64.0544 42.7414C63.8811 42.7414 63.7144 42.7714 63.5544 42.8314C63.3944 42.8914 63.2511 42.9747 63.1244 43.0814C63.0044 43.1881 62.9078 43.3214 62.8344 43.4814C62.7611 43.6347 62.7244 43.8047 62.7244 43.9914V46.9514H61.9544V43.3014C61.9544 43.1947 61.9511 43.0981 61.9444 43.0114C61.9378 42.9181 61.9144 42.8447 61.8744 42.7914C61.8411 42.7314 61.7844 42.6881 61.7044 42.6614C61.6244 42.6347 61.5144 42.6281 61.3744 42.6414L61.3644 42.1214C61.5511 42.0881 61.7211 42.0714 61.8744 42.0714C62.0344 42.0714 62.1711 42.0947 62.2844 42.1414C62.4044 42.1881 62.4978 42.2647 62.5644 42.3714C62.6311 42.4781 62.6678 42.6247 62.6744 42.8114ZM67.0006 42.8114C67.1473 42.5314 67.3506 42.3347 67.6106 42.2214C67.8706 42.1014 68.1539 42.0414 68.4606 42.0414C68.8806 42.0414 69.2573 42.1614 69.5906 42.4014L69.4006 43.0614C69.2473 42.9614 69.0839 42.8847 68.9106 42.8314C68.7439 42.7714 68.5673 42.7414 68.3806 42.7414C68.2073 42.7414 68.0406 42.7714 67.8806 42.8314C67.7206 42.8914 67.5773 42.9747 67.4506 43.0814C67.3306 43.1881 67.2339 43.3214 67.1606 43.4814C67.0873 43.6347 67.0506 43.8047 67.0506 43.9914V46.9514H66.2806V43.3014C66.2806 43.1947 66.2773 43.0981 66.2706 43.0114C66.2639 42.9181 66.2406 42.8447 66.2006 42.7914C66.1673 42.7314 66.1106 42.6881 66.0306 42.6614C65.9506 42.6347 65.8406 42.6281 65.7006 42.6414L65.6906 42.1214C65.8773 42.0881 66.0473 42.0714 66.2006 42.0714C66.3606 42.0714 66.4973 42.0947 66.6106 42.1414C66.7306 42.1881 66.8239 42.2647 66.8906 42.3714C66.9573 42.4781 66.9939 42.6247 67.0006 42.8114ZM72.4605 42.0414C73.2872 42.0481 73.8805 42.2814 74.2405 42.7414C74.6005 43.1947 74.7139 43.8214 74.5805 44.6214H70.7705C70.7572 44.9014 70.7972 45.1514 70.8905 45.3714C70.9905 45.5847 71.1272 45.7681 71.3005 45.9214C71.4739 46.0747 71.6805 46.1914 71.9205 46.2714C72.1605 46.3514 72.4172 46.3914 72.6905 46.3914C72.9705 46.3914 73.2405 46.3614 73.5005 46.3014C73.7672 46.2414 74.0405 46.1547 74.3205 46.0414L74.4405 46.6314C73.8605 46.9047 73.2705 47.0414 72.6705 47.0414C72.2705 47.0414 71.9039 46.9814 71.5705 46.8614C71.2372 46.7414 70.9505 46.5681 70.7105 46.3414C70.4705 46.1147 70.2872 45.8414 70.1605 45.5214C70.0339 45.1947 69.9772 44.8247 69.9905 44.4114C70.0039 44.0314 70.0772 43.6947 70.2105 43.4014C70.3439 43.1081 70.5205 42.8614 70.7405 42.6614C70.9672 42.4547 71.2272 42.3014 71.5205 42.2014C71.8139 42.0947 72.1272 42.0414 72.4605 42.0414ZM72.4605 42.6614C72.0205 42.6614 71.6505 42.7781 71.3505 43.0114C71.0505 43.2447 70.8672 43.5814 70.8005 44.0214H73.9405C73.9539 43.7947 73.9239 43.5981 73.8505 43.4314C73.7772 43.2581 73.6739 43.1147 73.5405 43.0014C73.4072 42.8881 73.2472 42.8047 73.0605 42.7514C72.8739 42.6914 72.6739 42.6614 72.4605 42.6614ZM79.5676 46.9514V44.1014C79.5676 43.6614 79.441 43.3181 79.1876 43.0714C78.941 42.8181 78.6176 42.6914 78.2176 42.6914C78.011 42.6914 77.821 42.7247 77.6476 42.7914C77.4743 42.8581 77.321 42.9514 77.1876 43.0714C77.061 43.1914 76.961 43.3381 76.8876 43.5114C76.8143 43.6781 76.7776 43.8614 76.7776 44.0614V46.9514H75.9976V43.5114C75.9976 43.3514 75.991 43.2181 75.9776 43.1114C75.971 43.0047 75.9476 42.9214 75.9076 42.8614C75.8676 42.8014 75.811 42.7647 75.7376 42.7514C75.6643 42.7314 75.5643 42.7281 75.4376 42.7414L75.4276 42.1214C75.5676 42.1014 75.7143 42.0847 75.8676 42.0714C76.021 42.0581 76.161 42.0714 76.2876 42.1114C76.4143 42.1447 76.5176 42.2181 76.5976 42.3314C76.6843 42.4447 76.7276 42.6181 76.7276 42.8514C76.941 42.5247 77.191 42.3081 77.4776 42.2014C77.771 42.0947 78.0876 42.0414 78.4276 42.0414C78.7476 42.0414 79.0276 42.0947 79.2676 42.2014C79.5076 42.3014 79.7076 42.4447 79.8676 42.6314C80.0276 42.8114 80.1476 43.0281 80.2276 43.2814C80.3143 43.5347 80.3576 43.8081 80.3576 44.1014V46.9514H79.5676ZM83.0161 42.1514H84.7861V42.7214H83.0161V45.1614C83.0161 45.5947 83.1027 45.9114 83.2761 46.1114C83.4494 46.3114 83.6927 46.4114 84.0061 46.4114C84.2661 46.4114 84.5761 46.3447 84.9361 46.2114L85.0261 46.8214C84.5794 46.9681 84.1627 47.0414 83.7761 47.0414C83.3027 47.0414 82.9261 46.8947 82.6461 46.6014C82.3727 46.3081 82.2361 45.8347 82.2361 45.1814V42.7214L81.2061 42.6714V42.1514H82.2861L82.3661 40.6514H83.0161V42.1514ZM89.0529 45.0414C89.0663 45.2747 89.1363 45.4747 89.2629 45.6414C89.3896 45.8014 89.5496 45.9314 89.7429 46.0314C89.9363 46.1314 90.1463 46.2047 90.3729 46.2514C90.6063 46.2914 90.8296 46.3114 91.0429 46.3114C91.2496 46.3114 91.4629 46.2914 91.6829 46.2514C91.9096 46.2114 92.1129 46.1414 92.2929 46.0414C92.4796 45.9414 92.6329 45.8081 92.7529 45.6414C92.8729 45.4681 92.9363 45.2547 92.9429 45.0014C92.9429 44.7214 92.8829 44.5047 92.7629 44.3514C92.6429 44.1914 92.4863 44.0714 92.2929 43.9914C92.0996 43.9047 91.8829 43.8481 91.6429 43.8214C91.4096 43.7881 91.1729 43.7547 90.9329 43.7214C90.6129 43.6881 90.2996 43.6381 89.9929 43.5714C89.6929 43.5047 89.4229 43.4047 89.1829 43.2714C88.9429 43.1314 88.7496 42.9514 88.6029 42.7314C88.4563 42.5047 88.3829 42.2147 88.3829 41.8614C88.3829 41.5147 88.4563 41.2181 88.6029 40.9714C88.7563 40.7181 88.9529 40.5114 89.1929 40.3514C89.4329 40.1847 89.7029 40.0614 90.0029 39.9814C90.3096 39.9014 90.6163 39.8614 90.9229 39.8614C91.2229 39.8614 91.5263 39.8981 91.8329 39.9714C92.1396 40.0381 92.4163 40.1481 92.6629 40.3014C92.9163 40.4481 93.1229 40.6414 93.2829 40.8814C93.4429 41.1214 93.5296 41.4114 93.5429 41.7514H92.7629C92.7429 41.5314 92.6729 41.3481 92.5529 41.2014C92.4396 41.0547 92.2963 40.9381 92.1229 40.8514C91.9496 40.7647 91.7596 40.7047 91.5529 40.6714C91.3463 40.6314 91.1429 40.6114 90.9429 40.6114C90.7496 40.6114 90.5496 40.6347 90.3429 40.6814C90.1429 40.7214 89.9563 40.7914 89.7829 40.8914C89.6163 40.9847 89.4796 41.1114 89.3729 41.2714C89.2663 41.4314 89.2129 41.6247 89.2129 41.8514C89.2129 42.1114 89.2696 42.3147 89.3829 42.4614C89.4963 42.6081 89.6429 42.7214 89.8229 42.8014C90.0029 42.8747 90.2029 42.9281 90.4229 42.9614C90.6429 42.9881 90.8596 43.0147 91.0729 43.0414C91.4196 43.0814 91.7529 43.1347 92.0729 43.2014C92.3996 43.2614 92.6863 43.3614 92.9329 43.5014C93.1863 43.6414 93.3863 43.8314 93.5329 44.0714C93.6863 44.3047 93.7629 44.6147 93.7629 45.0014C93.7629 45.3747 93.6796 45.6914 93.5129 45.9514C93.3529 46.2047 93.1429 46.4114 92.8829 46.5714C92.6229 46.7314 92.3329 46.8481 92.0129 46.9214C91.6929 46.9947 91.3729 47.0347 91.0529 47.0414C90.7263 47.0481 90.3996 47.0147 90.0729 46.9414C89.7463 46.8681 89.4496 46.7514 89.1829 46.5914C88.9163 46.4314 88.6963 46.2247 88.5229 45.9714C88.3496 45.7114 88.2563 45.4014 88.2429 45.0414H89.0529ZM98.7178 43.6314C98.5845 43.3314 98.3845 43.1081 98.1178 42.9614C97.8578 42.8147 97.5745 42.7414 97.2678 42.7414C97.0478 42.7414 96.8278 42.7781 96.6078 42.8514C96.3945 42.9247 96.2011 43.0347 96.0278 43.1814C95.8611 43.3281 95.7245 43.5147 95.6178 43.7414C95.5178 43.9614 95.4678 44.2214 95.4678 44.5214C95.4678 44.8214 95.5178 45.0847 95.6178 45.3114C95.7245 45.5381 95.8578 45.7281 96.0178 45.8814C96.1845 46.0347 96.3711 46.1514 96.5778 46.2314C96.7911 46.3114 97.0078 46.3514 97.2278 46.3514C97.5478 46.3514 97.8478 46.2681 98.1278 46.1014C98.4145 45.9347 98.6245 45.6814 98.7578 45.3414H99.5178C99.4445 45.6281 99.3311 45.8781 99.1778 46.0914C99.0245 46.3047 98.8445 46.4814 98.6378 46.6214C98.4311 46.7614 98.2045 46.8681 97.9578 46.9414C97.7178 47.0081 97.4711 47.0414 97.2178 47.0414C96.9045 47.0414 96.5945 46.9881 96.2878 46.8814C95.9878 46.7747 95.7178 46.6181 95.4778 46.4114C95.2378 46.1981 95.0445 45.9347 94.8978 45.6214C94.7511 45.3014 94.6778 44.9347 94.6778 44.5214C94.6778 44.1014 94.7511 43.7347 94.8978 43.4214C95.0511 43.1081 95.2478 42.8514 95.4878 42.6514C95.7278 42.4447 96.0011 42.2914 96.3078 42.1914C96.6145 42.0914 96.9245 42.0414 97.2378 42.0414C97.4845 42.0414 97.7245 42.0781 97.9578 42.1514C98.1911 42.2181 98.4078 42.3181 98.6078 42.4514C98.8078 42.5781 98.9811 42.7414 99.1278 42.9414C99.2811 43.1414 99.3945 43.3714 99.4678 43.6314H98.7178ZM105.432 44.5314C105.432 44.9514 105.359 45.3181 105.212 45.6314C105.065 45.9447 104.872 46.2081 104.632 46.4214C104.392 46.6281 104.119 46.7847 103.812 46.8914C103.505 46.9914 103.192 47.0414 102.872 47.0414C102.559 47.0414 102.249 46.9881 101.942 46.8814C101.642 46.7747 101.372 46.6181 101.132 46.4114C100.899 46.1981 100.709 45.9381 100.562 45.6314C100.422 45.3181 100.352 44.9514 100.352 44.5314C100.352 44.1114 100.425 43.7447 100.572 43.4314C100.719 43.1181 100.912 42.8614 101.152 42.6614C101.392 42.4547 101.662 42.3014 101.962 42.2014C102.269 42.0947 102.582 42.0414 102.902 42.0414C103.222 42.0414 103.532 42.0947 103.832 42.2014C104.139 42.3014 104.409 42.4547 104.642 42.6614C104.882 42.8681 105.072 43.1281 105.212 43.4414C105.359 43.7481 105.432 44.1114 105.432 44.5314ZM101.142 44.5314C101.142 44.8381 101.192 45.1081 101.292 45.3414C101.392 45.5747 101.525 45.7681 101.692 45.9214C101.859 46.0747 102.045 46.1914 102.252 46.2714C102.465 46.3514 102.682 46.3914 102.902 46.3914C103.122 46.3914 103.335 46.3514 103.542 46.2714C103.755 46.1914 103.942 46.0747 104.102 45.9214C104.269 45.7681 104.402 45.5747 104.502 45.3414C104.602 45.1081 104.652 44.8381 104.652 44.5314C104.652 44.2247 104.602 43.9581 104.502 43.7314C104.402 43.5047 104.269 43.3181 104.102 43.1714C103.935 43.0181 103.745 42.9047 103.532 42.8314C103.325 42.7514 103.112 42.7114 102.892 42.7114C102.672 42.7114 102.455 42.7514 102.242 42.8314C102.035 42.9047 101.849 43.0181 101.682 43.1714C101.522 43.3181 101.392 43.5047 101.292 43.7314C101.192 43.9581 101.142 44.2247 101.142 44.5314ZM107.508 42.8114C107.655 42.5314 107.858 42.3347 108.118 42.2214C108.378 42.1014 108.662 42.0414 108.968 42.0414C109.388 42.0414 109.765 42.1614 110.098 42.4014L109.908 43.0614C109.755 42.9614 109.592 42.8847 109.418 42.8314C109.252 42.7714 109.075 42.7414 108.888 42.7414C108.715 42.7414 108.548 42.7714 108.388 42.8314C108.228 42.8914 108.085 42.9747 107.958 43.0814C107.838 43.1881 107.742 43.3214 107.668 43.4814C107.595 43.6347 107.558 43.8047 107.558 43.9914V46.9514H106.788V43.3014C106.788 43.1947 106.785 43.0981 106.778 43.0114C106.772 42.9181 106.748 42.8447 106.708 42.7914C106.675 42.7314 106.618 42.6881 106.538 42.6614C106.458 42.6347 106.348 42.6281 106.208 42.6414L106.198 42.1214C106.385 42.0881 106.555 42.0714 106.708 42.0714C106.868 42.0714 107.005 42.0947 107.118 42.1414C107.238 42.1881 107.332 42.2647 107.398 42.3714C107.465 42.4781 107.502 42.6247 107.508 42.8114ZM112.968 42.0414C113.795 42.0481 114.388 42.2814 114.748 42.7414C115.108 43.1947 115.222 43.8214 115.088 44.6214H111.278C111.265 44.9014 111.305 45.1514 111.398 45.3714C111.498 45.5847 111.635 45.7681 111.808 45.9214C111.982 46.0747 112.188 46.1914 112.428 46.2714C112.668 46.3514 112.925 46.3914 113.198 46.3914C113.478 46.3914 113.748 46.3614 114.008 46.3014C114.275 46.2414 114.548 46.1547 114.828 46.0414L114.948 46.6314C114.368 46.9047 113.778 47.0414 113.178 47.0414C112.778 47.0414 112.412 46.9814 112.078 46.8614C111.745 46.7414 111.458 46.5681 111.218 46.3414C110.978 46.1147 110.795 45.8414 110.668 45.5214C110.542 45.1947 110.485 44.8247 110.498 44.4114C110.512 44.0314 110.585 43.6947 110.718 43.4014C110.852 43.1081 111.028 42.8614 111.248 42.6614C111.475 42.4547 111.735 42.3014 112.028 42.2014C112.322 42.0947 112.635 42.0414 112.968 42.0414ZM112.968 42.6614C112.528 42.6614 112.158 42.7781 111.858 43.0114C111.558 43.2447 111.375 43.5814 111.308 44.0214H114.448C114.462 43.7947 114.432 43.5981 114.358 43.4314C114.285 43.2581 114.182 43.1147 114.048 43.0014C113.915 42.8881 113.755 42.8047 113.568 42.7514C113.382 42.6914 113.182 42.6614 112.968 42.6614Z" fill="#434343"/>
<path d="M72.416 63.313L72.4096 63.817L65.0513 80.0208L61.4276 79.9748L67.5528 66.3715L60.4734 66.2816L60.513 63.1618L72.416 63.313ZM80.4136 63.1746C83.8453 63.2181 86.6263 65.3656 86.5803 68.9893L86.5071 74.7489C86.4608 78.3966 83.6259 80.4967 80.1942 80.4532C76.7145 80.409 73.9338 78.2375 73.9801 74.5898L74.0533 68.8302C74.0993 65.2065 76.9339 63.1304 80.4136 63.1746ZM80.2341 77.3094C81.698 77.328 82.8839 76.551 83.0705 75.0893C83.1237 74.6819 83.1532 74.2502 83.1596 73.7463L83.208 69.9306C83.2141 69.4506 83.1959 68.9944 83.1534 68.5618C83.0046 67.0478 81.8376 66.3369 80.3737 66.3183C78.8378 66.2988 77.7011 66.9804 77.5139 68.4902C77.4604 68.9215 77.4306 69.3772 77.4245 69.8571L77.3761 73.6728C77.3697 74.1768 77.3882 74.6091 77.431 75.0176C77.5804 76.4836 78.6982 77.2899 80.2341 77.3094ZM96.0686 63.3734C99.5003 63.4169 102.281 65.5644 102.235 69.1881L102.162 74.9477C102.116 78.5954 99.2809 80.6956 95.8492 80.652C92.3694 80.6078 89.5888 78.4363 89.6351 74.7886L89.7083 69.0291C89.7543 65.4053 92.5889 63.3292 96.0686 63.3734ZM95.8891 77.5082C97.353 77.5268 98.5389 76.7498 98.7255 75.2881C98.7787 74.8807 98.8082 74.449 98.8146 73.9451L98.863 70.1294C98.8691 69.6494 98.8509 69.1932 98.8084 68.7606C98.6596 67.2466 97.4926 66.5357 96.0287 66.5171C94.4928 66.4976 93.3561 67.1792 93.1689 68.689C93.1154 69.1203 93.0856 69.576 93.0795 70.0559L93.031 73.8716C93.0246 74.3756 93.0432 74.8079 93.086 75.2164C93.2354 76.6825 94.3532 77.4887 95.8891 77.5082Z" fill="#F26842"/>
<path d="M54.749 91.1986L54.729 92.7705L51.3933 92.7281L51.3716 94.432L54.4914 94.4716L54.4714 96.0435L51.3517 96.0038L51.3273 97.9237L54.759 97.9673L54.7383 99.5991L49.4947 99.5325L49.6014 91.1332L54.749 91.1986ZM59.467 94.1507L59.515 94.1513L60.3511 92.5778L61.1956 91.2805L63.1395 91.3051L63.1361 91.5691L60.5574 95.2327L63.324 99.4561L63.3208 99.7081L61.4369 99.6842L60.3656 98.0505L59.4856 96.4672L59.4256 96.4664L58.4811 98.0745L57.4173 99.6331L55.5094 99.6089L55.5126 99.3569L58.3976 95.2052L55.9007 91.4772L55.9041 91.2133L57.8599 91.2381L58.7183 92.6291L59.467 94.1507ZM63.7272 95.5249C63.7627 92.7292 65.8705 91.1838 68.0778 91.2478C69.7697 91.2693 71.558 92.2041 71.9156 94.2848L70.1757 94.2627C69.8158 93.3101 69.0652 92.8805 68.0573 92.8677C66.5694 92.8488 65.5593 93.9521 65.539 95.548C65.5207 96.9878 66.477 98.2361 67.9769 98.2551C69.0208 98.2684 69.8789 97.7872 70.1799 96.771L71.9077 96.7929C71.5196 99.0082 69.72 99.9094 67.9681 99.8872C65.7603 99.8591 63.6918 98.3087 63.7272 95.5249ZM78.5244 91.5005L78.5044 93.0724L75.1687 93.03L75.1471 94.7339L78.2668 94.7735L78.2468 96.3454L75.1271 96.3058L75.1027 98.2256L78.5344 98.2692L78.5137 99.9011L73.2701 99.8345L73.3768 91.4352L78.5244 91.5005ZM82.0433 91.5452L81.957 98.3367L85.4608 98.3812L85.4403 99.989L80.1368 99.9217L80.2434 91.5224L82.0433 91.5452ZM88.5115 91.6274L88.4253 98.4188L91.929 98.4633L91.9086 100.071L86.605 100.004L86.7117 91.6045L88.5115 91.6274ZM98.3275 91.752L98.3075 93.3239L94.9718 93.2815L94.9501 94.9854L98.0699 95.025L98.0499 96.5969L94.9302 96.5573L94.9058 98.4771L98.3375 98.5207L98.3168 100.153L93.0732 100.086L93.1799 91.6866L98.3275 91.752ZM106.479 100.28L101.789 95.3963L101.728 100.196L99.9399 100.173L100.047 91.7379L100.611 91.745L105.266 96.6045L105.326 91.8409L107.126 91.8638L107.019 100.287L106.479 100.28ZM110.537 93.4672L108.293 93.4387L108.313 91.8788L114.529 91.9578L114.509 93.5176L112.277 93.4893L112.19 100.329L110.45 100.307L110.537 93.4672Z" fill="#008A00"/>
<g filter="url(#filter3_d_263_2690)">
<ellipse cx="270.542" cy="70.4815" rx="59.5339" ry="59.2362" transform="rotate(88.1152 270.542 70.4815)" fill="white"/>
</g>
<g filter="url(#filter4_d_263_2690)">
<path d="M322.311 99.4545C327.378 90.3275 330.116 79.7415 329.748 68.5332C328.666 35.6713 301.283 9.90376 268.585 10.9797C235.888 12.0557 210.258 39.5678 211.339 72.4297C211.648 81.8241 214.107 90.6388 218.225 98.4122" stroke="url(#paint1_linear_263_2690)" stroke-width="6" stroke-linecap="round"/>
</g>
<g filter="url(#filter5_d_263_2690)">
<circle cx="324.92" cy="47.3234" r="4.15435" transform="rotate(88.1152 324.92 47.3234)" fill="#008A00"/>
<circle cx="324.92" cy="47.3234" r="3.15435" transform="rotate(88.1152 324.92 47.3234)" stroke="white" stroke-width="2"/>
</g>
<path d="M233.837 46.9414V39.9414C234.297 39.9414 234.764 39.9414 235.237 39.9414C235.711 39.9347 236.177 39.9347 236.637 39.9414C237.011 39.9414 237.347 40.0047 237.647 40.1314C237.954 40.2514 238.214 40.4214 238.427 40.6414C238.641 40.8547 238.804 41.1081 238.917 41.4014C239.031 41.6947 239.087 42.0081 239.087 42.3414C239.087 42.6747 239.027 42.9881 238.907 43.2814C238.794 43.5681 238.631 43.8181 238.417 44.0314C238.204 44.2447 237.944 44.4147 237.637 44.5414C237.337 44.6614 237.004 44.7214 236.637 44.7214H234.667V46.9414H233.837ZM236.637 43.9714C236.871 43.9714 237.087 43.9314 237.287 43.8514C237.487 43.7714 237.661 43.6581 237.807 43.5114C237.954 43.3647 238.067 43.1914 238.147 42.9914C238.234 42.7847 238.277 42.5614 238.277 42.3214C238.277 42.0814 238.237 41.8614 238.157 41.6614C238.077 41.4614 237.964 41.2914 237.817 41.1514C237.671 41.0047 237.497 40.8914 237.297 40.8114C237.097 40.7247 236.877 40.6814 236.637 40.6814C236.317 40.6747 235.991 40.6747 235.657 40.6814C235.331 40.6814 234.997 40.6814 234.657 40.6814V43.9714H236.637ZM241.041 42.8114C241.188 42.5314 241.391 42.3347 241.651 42.2214C241.911 42.1014 242.195 42.0414 242.501 42.0414C242.921 42.0414 243.298 42.1614 243.631 42.4014L243.441 43.0614C243.288 42.9614 243.125 42.8847 242.951 42.8314C242.785 42.7714 242.608 42.7414 242.421 42.7414C242.248 42.7414 242.081 42.7714 241.921 42.8314C241.761 42.8914 241.618 42.9747 241.491 43.0814C241.371 43.1881 241.275 43.3214 241.201 43.4814C241.128 43.6347 241.091 43.8047 241.091 43.9914V46.9514H240.321V43.3014C240.321 43.1947 240.318 43.0981 240.311 43.0114C240.305 42.9181 240.281 42.8447 240.241 42.7914C240.208 42.7314 240.151 42.6881 240.071 42.6614C239.991 42.6347 239.881 42.6281 239.741 42.6414L239.731 42.1214C239.918 42.0881 240.088 42.0714 240.241 42.0714C240.401 42.0714 240.538 42.0947 240.651 42.1414C240.771 42.1881 240.865 42.2647 240.931 42.3714C240.998 42.4781 241.035 42.6247 241.041 42.8114ZM246.501 42.0414C247.328 42.0481 247.921 42.2814 248.281 42.7414C248.641 43.1947 248.755 43.8214 248.621 44.6214H244.811C244.798 44.9014 244.838 45.1514 244.931 45.3714C245.031 45.5847 245.168 45.7681 245.341 45.9214C245.515 46.0747 245.721 46.1914 245.961 46.2714C246.201 46.3514 246.458 46.3914 246.731 46.3914C247.011 46.3914 247.281 46.3614 247.541 46.3014C247.808 46.2414 248.081 46.1547 248.361 46.0414L248.481 46.6314C247.901 46.9047 247.311 47.0414 246.711 47.0414C246.311 47.0414 245.945 46.9814 245.611 46.8614C245.278 46.7414 244.991 46.5681 244.751 46.3414C244.511 46.1147 244.328 45.8414 244.201 45.5214C244.075 45.1947 244.018 44.8247 244.031 44.4114C244.045 44.0314 244.118 43.6947 244.251 43.4014C244.385 43.1081 244.561 42.8614 244.781 42.6614C245.008 42.4547 245.268 42.3014 245.561 42.2014C245.855 42.0947 246.168 42.0414 246.501 42.0414ZM246.501 42.6614C246.061 42.6614 245.691 42.7781 245.391 43.0114C245.091 43.2447 244.908 43.5814 244.841 44.0214H247.981C247.995 43.7947 247.965 43.5981 247.891 43.4314C247.818 43.2581 247.715 43.1147 247.581 43.0014C247.448 42.8881 247.288 42.8047 247.101 42.7514C246.915 42.6914 246.715 42.6614 246.501 42.6614ZM253.528 45.9214C253.362 46.2881 253.125 46.5647 252.818 46.7514C252.518 46.9381 252.175 47.0347 251.788 47.0414C251.428 47.0414 251.108 46.9747 250.828 46.8414C250.555 46.7081 250.325 46.5281 250.138 46.3014C249.952 46.0681 249.808 45.8014 249.708 45.5014C249.615 45.1947 249.568 44.8714 249.568 44.5314C249.568 44.1447 249.632 43.7981 249.758 43.4914C249.885 43.1781 250.052 42.9147 250.258 42.7014C250.472 42.4881 250.718 42.3247 250.998 42.2114C251.278 42.0981 251.575 42.0414 251.888 42.0414C252.142 42.0414 252.395 42.0814 252.648 42.1614C252.902 42.2347 253.152 42.3547 253.398 42.5214V39.6314H254.178V45.3614C254.178 45.5214 254.175 45.6714 254.168 45.8114C254.162 45.9447 254.172 46.0614 254.198 46.1614C254.232 46.2547 254.288 46.3247 254.368 46.3714C254.448 46.4114 254.575 46.4214 254.748 46.4014L254.758 46.9714C254.565 47.0047 254.392 47.0181 254.238 47.0114C254.085 47.0047 253.955 46.9647 253.848 46.8914C253.742 46.8114 253.662 46.6947 253.608 46.5414C253.555 46.3881 253.528 46.1814 253.528 45.9214ZM253.418 43.2414C253.185 43.0681 252.942 42.9381 252.688 42.8514C252.435 42.7647 252.192 42.7247 251.958 42.7314C251.738 42.7314 251.532 42.7714 251.338 42.8514C251.145 42.9314 250.975 43.0481 250.828 43.2014C250.682 43.3547 250.565 43.5447 250.478 43.7714C250.398 43.9914 250.358 44.2447 250.358 44.5314C250.358 44.7714 250.388 45.0014 250.448 45.2214C250.515 45.4414 250.612 45.6347 250.738 45.8014C250.865 45.9614 251.025 46.0914 251.218 46.1914C251.412 46.2914 251.638 46.3414 251.898 46.3414C252.125 46.3414 252.332 46.2981 252.518 46.2114C252.705 46.1247 252.862 46.0114 252.988 45.8714C253.122 45.7247 253.225 45.5547 253.298 45.3614C253.372 45.1681 253.412 44.9614 253.418 44.7414V43.2414ZM255.804 40.5414C255.804 40.3747 255.854 40.2514 255.954 40.1714C256.061 40.0914 256.174 40.0514 256.294 40.0514C256.421 40.0514 256.534 40.0914 256.634 40.1714C256.741 40.2514 256.794 40.3747 256.794 40.5414C256.794 40.7081 256.741 40.8347 256.634 40.9214C256.534 41.0014 256.421 41.0414 256.294 41.0414C256.174 41.0414 256.061 41.0014 255.954 40.9214C255.854 40.8347 255.804 40.7081 255.804 40.5414ZM256.684 46.9514H255.904V42.1314H256.684V46.9514ZM261.948 43.6314C261.815 43.3314 261.615 43.1081 261.348 42.9614C261.088 42.8147 260.805 42.7414 260.498 42.7414C260.278 42.7414 260.058 42.7781 259.838 42.8514C259.625 42.9247 259.431 43.0347 259.258 43.1814C259.091 43.3281 258.955 43.5147 258.848 43.7414C258.748 43.9614 258.698 44.2214 258.698 44.5214C258.698 44.8214 258.748 45.0847 258.848 45.3114C258.955 45.5381 259.088 45.7281 259.248 45.8814C259.415 46.0347 259.601 46.1514 259.808 46.2314C260.021 46.3114 260.238 46.3514 260.458 46.3514C260.778 46.3514 261.078 46.2681 261.358 46.1014C261.645 45.9347 261.855 45.6814 261.988 45.3414H262.748C262.675 45.6281 262.561 45.8781 262.408 46.0914C262.255 46.3047 262.075 46.4814 261.868 46.6214C261.661 46.7614 261.435 46.8681 261.188 46.9414C260.948 47.0081 260.701 47.0414 260.448 47.0414C260.135 47.0414 259.825 46.9881 259.518 46.8814C259.218 46.7747 258.948 46.6181 258.708 46.4114C258.468 46.1981 258.275 45.9347 258.128 45.6214C257.981 45.3014 257.908 44.9347 257.908 44.5214C257.908 44.1014 257.981 43.7347 258.128 43.4214C258.281 43.1081 258.478 42.8514 258.718 42.6514C258.958 42.4447 259.231 42.2914 259.538 42.1914C259.845 42.0914 260.155 42.0414 260.468 42.0414C260.715 42.0414 260.955 42.0781 261.188 42.1514C261.421 42.2181 261.638 42.3181 261.838 42.4514C262.038 42.5781 262.211 42.7414 262.358 42.9414C262.511 43.1414 262.625 43.3714 262.698 43.6314H261.948ZM265.172 42.1514H266.942V42.7214H265.172V45.1614C265.172 45.5947 265.259 45.9114 265.432 46.1114C265.605 46.3114 265.849 46.4114 266.162 46.4114C266.422 46.4114 266.732 46.3447 267.092 46.2114L267.182 46.8214C266.735 46.9681 266.319 47.0414 265.932 47.0414C265.459 47.0414 265.082 46.8947 264.802 46.6014C264.529 46.3081 264.392 45.8347 264.392 45.1814V42.7214L263.362 42.6714V42.1514H264.442L264.522 40.6514H265.172V42.1514ZM270.261 42.0414C271.088 42.0481 271.681 42.2814 272.041 42.7414C272.401 43.1947 272.514 43.8214 272.381 44.6214H268.571C268.558 44.9014 268.598 45.1514 268.691 45.3714C268.791 45.5847 268.928 45.7681 269.101 45.9214C269.274 46.0747 269.481 46.1914 269.721 46.2714C269.961 46.3514 270.218 46.3914 270.491 46.3914C270.771 46.3914 271.041 46.3614 271.301 46.3014C271.568 46.2414 271.841 46.1547 272.121 46.0414L272.241 46.6314C271.661 46.9047 271.071 47.0414 270.471 47.0414C270.071 47.0414 269.704 46.9814 269.371 46.8614C269.038 46.7414 268.751 46.5681 268.511 46.3414C268.271 46.1147 268.088 45.8414 267.961 45.5214C267.834 45.1947 267.778 44.8247 267.791 44.4114C267.804 44.0314 267.878 43.6947 268.011 43.4014C268.144 43.1081 268.321 42.8614 268.541 42.6614C268.768 42.4547 269.028 42.3014 269.321 42.2014C269.614 42.0947 269.928 42.0414 270.261 42.0414ZM270.261 42.6614C269.821 42.6614 269.451 42.7781 269.151 43.0114C268.851 43.2447 268.668 43.5814 268.601 44.0214H271.741C271.754 43.7947 271.724 43.5981 271.651 43.4314C271.578 43.2581 271.474 43.1147 271.341 43.0014C271.208 42.8881 271.048 42.8047 270.861 42.7514C270.674 42.6914 270.474 42.6614 270.261 42.6614ZM277.288 45.9214C277.122 46.2881 276.885 46.5647 276.578 46.7514C276.278 46.9381 275.935 47.0347 275.548 47.0414C275.188 47.0414 274.868 46.9747 274.588 46.8414C274.315 46.7081 274.085 46.5281 273.898 46.3014C273.712 46.0681 273.568 45.8014 273.468 45.5014C273.375 45.1947 273.328 44.8714 273.328 44.5314C273.328 44.1447 273.392 43.7981 273.518 43.4914C273.645 43.1781 273.812 42.9147 274.018 42.7014C274.232 42.4881 274.478 42.3247 274.758 42.2114C275.038 42.0981 275.335 42.0414 275.648 42.0414C275.902 42.0414 276.155 42.0814 276.408 42.1614C276.662 42.2347 276.912 42.3547 277.158 42.5214V39.6314H277.938V45.3614C277.938 45.5214 277.935 45.6714 277.928 45.8114C277.922 45.9447 277.932 46.0614 277.958 46.1614C277.992 46.2547 278.048 46.3247 278.128 46.3714C278.208 46.4114 278.335 46.4214 278.508 46.4014L278.518 46.9714C278.325 47.0047 278.152 47.0181 277.998 47.0114C277.845 47.0047 277.715 46.9647 277.608 46.8914C277.502 46.8114 277.422 46.6947 277.368 46.5414C277.315 46.3881 277.288 46.1814 277.288 45.9214ZM277.178 43.2414C276.945 43.0681 276.702 42.9381 276.448 42.8514C276.195 42.7647 275.952 42.7247 275.718 42.7314C275.498 42.7314 275.292 42.7714 275.098 42.8514C274.905 42.9314 274.735 43.0481 274.588 43.2014C274.442 43.3547 274.325 43.5447 274.238 43.7714C274.158 43.9914 274.118 44.2447 274.118 44.5314C274.118 44.7714 274.148 45.0014 274.208 45.2214C274.275 45.4414 274.372 45.6347 274.498 45.8014C274.625 45.9614 274.785 46.0914 274.978 46.1914C275.172 46.2914 275.398 46.3414 275.658 46.3414C275.885 46.3414 276.092 46.2981 276.278 46.2114C276.465 46.1247 276.622 46.0114 276.748 45.8714C276.882 45.7247 276.985 45.5547 277.058 45.3614C277.132 45.1681 277.172 44.9614 277.178 44.7414V43.2414ZM282.752 45.0414C282.765 45.2747 282.835 45.4747 282.962 45.6414C283.089 45.8014 283.249 45.9314 283.442 46.0314C283.635 46.1314 283.845 46.2047 284.072 46.2514C284.305 46.2914 284.529 46.3114 284.742 46.3114C284.949 46.3114 285.162 46.2914 285.382 46.2514C285.609 46.2114 285.812 46.1414 285.992 46.0414C286.179 45.9414 286.332 45.8081 286.452 45.6414C286.572 45.4681 286.635 45.2547 286.642 45.0014C286.642 44.7214 286.582 44.5047 286.462 44.3514C286.342 44.1914 286.185 44.0714 285.992 43.9914C285.799 43.9047 285.582 43.8481 285.342 43.8214C285.109 43.7881 284.872 43.7547 284.632 43.7214C284.312 43.6881 283.999 43.6381 283.692 43.5714C283.392 43.5047 283.122 43.4047 282.882 43.2714C282.642 43.1314 282.449 42.9514 282.302 42.7314C282.155 42.5047 282.082 42.2147 282.082 41.8614C282.082 41.5147 282.155 41.2181 282.302 40.9714C282.455 40.7181 282.652 40.5114 282.892 40.3514C283.132 40.1847 283.402 40.0614 283.702 39.9814C284.009 39.9014 284.315 39.8614 284.622 39.8614C284.922 39.8614 285.225 39.8981 285.532 39.9714C285.839 40.0381 286.115 40.1481 286.362 40.3014C286.615 40.4481 286.822 40.6414 286.982 40.8814C287.142 41.1214 287.229 41.4114 287.242 41.7514H286.462C286.442 41.5314 286.372 41.3481 286.252 41.2014C286.139 41.0547 285.995 40.9381 285.822 40.8514C285.649 40.7647 285.459 40.7047 285.252 40.6714C285.045 40.6314 284.842 40.6114 284.642 40.6114C284.449 40.6114 284.249 40.6347 284.042 40.6814C283.842 40.7214 283.655 40.7914 283.482 40.8914C283.315 40.9847 283.179 41.1114 283.072 41.2714C282.965 41.4314 282.912 41.6247 282.912 41.8514C282.912 42.1114 282.969 42.3147 283.082 42.4614C283.195 42.6081 283.342 42.7214 283.522 42.8014C283.702 42.8747 283.902 42.9281 284.122 42.9614C284.342 42.9881 284.559 43.0147 284.772 43.0414C285.119 43.0814 285.452 43.1347 285.772 43.2014C286.099 43.2614 286.385 43.3614 286.632 43.5014C286.885 43.6414 287.085 43.8314 287.232 44.0714C287.385 44.3047 287.462 44.6147 287.462 45.0014C287.462 45.3747 287.379 45.6914 287.212 45.9514C287.052 46.2047 286.842 46.4114 286.582 46.5714C286.322 46.7314 286.032 46.8481 285.712 46.9214C285.392 46.9947 285.072 47.0347 284.752 47.0414C284.425 47.0481 284.099 47.0147 283.772 46.9414C283.445 46.8681 283.149 46.7514 282.882 46.5914C282.615 46.4314 282.395 46.2247 282.222 45.9714C282.049 45.7114 281.955 45.4014 281.942 45.0414H282.752ZM292.417 43.6314C292.283 43.3314 292.083 43.1081 291.817 42.9614C291.557 42.8147 291.273 42.7414 290.967 42.7414C290.747 42.7414 290.527 42.7781 290.307 42.8514C290.093 42.9247 289.9 43.0347 289.727 43.1814C289.56 43.3281 289.423 43.5147 289.317 43.7414C289.217 43.9614 289.167 44.2214 289.167 44.5214C289.167 44.8214 289.217 45.0847 289.317 45.3114C289.423 45.5381 289.557 45.7281 289.717 45.8814C289.883 46.0347 290.07 46.1514 290.277 46.2314C290.49 46.3114 290.707 46.3514 290.927 46.3514C291.247 46.3514 291.547 46.2681 291.827 46.1014C292.113 45.9347 292.323 45.6814 292.457 45.3414H293.217C293.143 45.6281 293.03 45.8781 292.877 46.0914C292.723 46.3047 292.543 46.4814 292.337 46.6214C292.13 46.7614 291.903 46.8681 291.657 46.9414C291.417 47.0081 291.17 47.0414 290.917 47.0414C290.603 47.0414 290.293 46.9881 289.987 46.8814C289.687 46.7747 289.417 46.6181 289.177 46.4114C288.937 46.1981 288.743 45.9347 288.597 45.6214C288.45 45.3014 288.377 44.9347 288.377 44.5214C288.377 44.1014 288.45 43.7347 288.597 43.4214C288.75 43.1081 288.947 42.8514 289.187 42.6514C289.427 42.4447 289.7 42.2914 290.007 42.1914C290.313 42.0914 290.623 42.0414 290.937 42.0414C291.183 42.0414 291.423 42.0781 291.657 42.1514C291.89 42.2181 292.107 42.3181 292.307 42.4514C292.507 42.5781 292.68 42.7414 292.827 42.9414C292.98 43.1414 293.093 43.3714 293.167 43.6314H292.417ZM299.131 44.5314C299.131 44.9514 299.057 45.3181 298.911 45.6314C298.764 45.9447 298.571 46.2081 298.331 46.4214C298.091 46.6281 297.817 46.7847 297.511 46.8914C297.204 46.9914 296.891 47.0414 296.571 47.0414C296.257 47.0414 295.947 46.9881 295.641 46.8814C295.341 46.7747 295.071 46.6181 294.831 46.4114C294.597 46.1981 294.407 45.9381 294.261 45.6314C294.121 45.3181 294.051 44.9514 294.051 44.5314C294.051 44.1114 294.124 43.7447 294.271 43.4314C294.417 43.1181 294.611 42.8614 294.851 42.6614C295.091 42.4547 295.361 42.3014 295.661 42.2014C295.967 42.0947 296.281 42.0414 296.601 42.0414C296.921 42.0414 297.231 42.0947 297.531 42.2014C297.837 42.3014 298.107 42.4547 298.341 42.6614C298.581 42.8681 298.771 43.1281 298.911 43.4414C299.057 43.7481 299.131 44.1114 299.131 44.5314ZM294.841 44.5314C294.841 44.8381 294.891 45.1081 294.991 45.3414C295.091 45.5747 295.224 45.7681 295.391 45.9214C295.557 46.0747 295.744 46.1914 295.951 46.2714C296.164 46.3514 296.381 46.3914 296.601 46.3914C296.821 46.3914 297.034 46.3514 297.241 46.2714C297.454 46.1914 297.641 46.0747 297.801 45.9214C297.967 45.7681 298.101 45.5747 298.201 45.3414C298.301 45.1081 298.351 44.8381 298.351 44.5314C298.351 44.2247 298.301 43.9581 298.201 43.7314C298.101 43.5047 297.967 43.3181 297.801 43.1714C297.634 43.0181 297.444 42.9047 297.231 42.8314C297.024 42.7514 296.811 42.7114 296.591 42.7114C296.371 42.7114 296.154 42.7514 295.941 42.8314C295.734 42.9047 295.547 43.0181 295.381 43.1714C295.221 43.3181 295.091 43.5047 294.991 43.7314C294.891 43.9581 294.841 44.2247 294.841 44.5314ZM301.207 42.8114C301.354 42.5314 301.557 42.3347 301.817 42.2214C302.077 42.1014 302.361 42.0414 302.667 42.0414C303.087 42.0414 303.464 42.1614 303.797 42.4014L303.607 43.0614C303.454 42.9614 303.291 42.8847 303.117 42.8314C302.951 42.7714 302.774 42.7414 302.587 42.7414C302.414 42.7414 302.247 42.7714 302.087 42.8314C301.927 42.8914 301.784 42.9747 301.657 43.0814C301.537 43.1881 301.441 43.3214 301.367 43.4814C301.294 43.6347 301.257 43.8047 301.257 43.9914V46.9514H300.487V43.3014C300.487 43.1947 300.484 43.0981 300.477 43.0114C300.471 42.9181 300.447 42.8447 300.407 42.7914C300.374 42.7314 300.317 42.6881 300.237 42.6614C300.157 42.6347 300.047 42.6281 299.907 42.6414L299.897 42.1214C300.084 42.0881 300.254 42.0714 300.407 42.0714C300.567 42.0714 300.704 42.0947 300.817 42.1414C300.937 42.1881 301.031 42.2647 301.097 42.3714C301.164 42.4781 301.201 42.6247 301.207 42.8114ZM306.667 42.0414C307.494 42.0481 308.087 42.2814 308.447 42.7414C308.807 43.1947 308.921 43.8214 308.787 44.6214H304.977C304.964 44.9014 305.004 45.1514 305.097 45.3714C305.197 45.5847 305.334 45.7681 305.507 45.9214C305.681 46.0747 305.887 46.1914 306.127 46.2714C306.367 46.3514 306.624 46.3914 306.897 46.3914C307.177 46.3914 307.447 46.3614 307.707 46.3014C307.974 46.2414 308.247 46.1547 308.527 46.0414L308.647 46.6314C308.067 46.9047 307.477 47.0414 306.877 47.0414C306.477 47.0414 306.111 46.9814 305.777 46.8614C305.444 46.7414 305.157 46.5681 304.917 46.3414C304.677 46.1147 304.494 45.8414 304.367 45.5214C304.241 45.1947 304.184 44.8247 304.197 44.4114C304.211 44.0314 304.284 43.6947 304.417 43.4014C304.551 43.1081 304.727 42.8614 304.947 42.6614C305.174 42.4547 305.434 42.3014 305.727 42.2014C306.021 42.0947 306.334 42.0414 306.667 42.0414ZM306.667 42.6614C306.227 42.6614 305.857 42.7781 305.557 43.0114C305.257 43.2447 305.074 43.5814 305.007 44.0214H308.147C308.161 43.7947 308.131 43.5981 308.057 43.4314C307.984 43.2581 307.881 43.1147 307.747 43.0014C307.614 42.8881 307.454 42.8047 307.267 42.7514C307.081 42.6914 306.881 42.6614 306.667 42.6614Z" fill="#434343"/>
<path d="M262.765 63.313L262.759 63.817L255.401 80.0208L251.777 79.9748L257.902 66.3715L250.823 66.2816L250.862 63.1618L262.765 63.313ZM267.554 66.3501L267.518 69.2298C268.095 69.1412 268.695 69.1008 269.343 69.109C272.87 69.2258 275.685 70.6057 275.631 74.8533C275.593 77.8051 273.447 80.49 269.679 80.4422C266.536 80.4023 264.184 78.4522 264.033 75.2581L267.177 75.298C267.279 76.6674 268.232 77.2795 269.647 77.2975C271.399 77.3198 272.157 76.2493 272.175 74.8334C272.226 70.8257 267.15 71.7454 264.53 72.0001L264.64 63.3368L274.935 63.4676L274.898 66.4433L267.554 66.3501ZM284.73 63.3519C288.162 63.3955 290.943 65.543 290.897 69.1667L290.824 74.9263C290.778 78.574 287.943 80.6741 284.511 80.6305C281.031 80.5864 278.251 78.4149 278.297 74.7672L278.37 69.0076C278.416 65.3839 281.251 63.3077 284.73 63.3519ZM284.551 77.4868C286.015 77.5054 287.201 76.7284 287.387 75.2666C287.441 74.8593 287.47 74.4276 287.476 73.9237L287.525 70.108C287.531 69.628 287.513 69.1717 287.47 68.7392C287.322 67.2252 286.154 66.5143 284.691 66.4957C283.155 66.4762 282.018 67.1578 281.831 68.6675C281.777 69.0989 281.747 69.5546 281.741 70.0345L281.693 73.8502C281.687 74.3542 281.705 74.7864 281.748 75.195C281.897 76.661 283.015 77.4673 284.551 77.4868Z" fill="#F26842"/>
<path d="M244.098 91.1732L244.078 92.7451L240.743 92.7027L240.721 94.4066L243.841 94.4462L243.821 96.0181L240.701 95.9784L240.677 97.8983L244.108 97.9419L244.088 99.5737L238.844 99.5071L238.951 91.1078L244.098 91.1732ZM248.816 94.1253L248.864 94.126L249.7 92.5524L250.545 91.2551L252.489 91.2798L252.485 91.5437L249.907 95.2073L252.673 99.4308L252.67 99.6827L250.786 99.6588L249.715 98.0251L248.835 96.4418L248.775 96.441L247.83 98.0491L246.766 99.6078L244.859 99.5835L244.862 99.3315L247.747 95.1798L245.25 91.4518L245.253 91.1879L247.209 91.2127L248.068 92.6037L248.816 94.1253ZM253.076 95.4996C253.112 92.7038 255.22 91.1584 257.427 91.2225C259.119 91.2439 260.907 92.1787 261.265 94.2594L259.525 94.2373C259.165 93.2847 258.414 92.8551 257.407 92.8423C255.919 92.8234 254.909 93.9267 254.888 95.5226C254.87 96.9624 255.826 98.2107 257.326 98.2297C258.37 98.243 259.228 97.7619 259.529 96.7456L261.257 96.7675C260.869 98.9828 259.069 99.884 257.317 99.8618C255.11 99.8337 253.041 98.2833 253.076 95.4996ZM267.874 91.4751L267.854 93.047L264.518 93.0046L264.496 94.7085L267.616 94.7481L267.596 96.32L264.476 96.2804L264.452 98.2002L267.884 98.2438L267.863 99.8757L262.619 99.8091L262.726 91.4098L267.874 91.4751ZM271.393 91.5198L271.306 98.3113L274.81 98.3558L274.79 99.9636L269.486 99.8963L269.593 91.497L271.393 91.5198ZM277.861 91.602L277.775 98.3934L281.278 98.4379L281.258 100.046L275.954 99.9784L276.061 91.5791L277.861 91.602ZM287.677 91.7266L287.657 93.2985L284.321 93.2561L284.299 94.96L287.419 94.9996L287.399 96.5715L284.279 96.5319L284.255 98.4517L287.687 98.4953L287.666 100.127L282.422 100.061L282.529 91.6613L287.677 91.7266ZM295.828 100.255L291.138 95.3709L291.077 100.17L289.289 100.148L289.396 91.7125L289.96 91.7196L294.615 96.5791L294.675 91.8155L296.475 91.8384L296.368 100.262L295.828 100.255ZM299.887 93.4418L297.643 93.4133L297.663 91.8534L303.878 91.9324L303.858 93.4923L301.626 93.4639L301.54 100.303L299.8 100.281L299.887 93.4418Z" fill="#008A00"/>
<path d="M177.328 62.2808C177.537 62.0697 177.821 61.9512 178.117 61.9512C178.413 61.9512 178.696 62.0697 178.906 62.2808L185.232 68.6679C185.441 68.8793 185.558 69.1658 185.558 69.4645C185.558 69.7632 185.441 70.0496 185.232 70.261L178.906 76.6481C178.694 76.8475 178.414 76.9561 178.125 76.951C177.835 76.946 177.559 76.8277 177.355 76.6211C177.15 76.4144 177.033 76.1357 177.028 75.8435C177.023 75.5514 177.13 75.2687 177.328 75.0551L181.749 70.5916L170.674 70.5916C170.378 70.5916 170.094 70.4728 169.885 70.2615C169.676 70.0501 169.558 69.7634 169.558 69.4645C169.558 69.1655 169.676 68.8788 169.885 68.6675C170.094 68.4561 170.378 68.3373 170.674 68.3373L181.749 68.3373L177.328 63.8738C177.119 63.6625 177.001 63.376 177.001 63.0773C177.001 62.7786 177.119 62.4921 177.328 62.2808Z" fill="#5A5A5A"/>
<defs>
<filter id="filter0_d_263_2690" x="0.955566" y="10.9473" width="168.474" height="169.068" filterUnits="userSpaceOnUse" color-interpolation-filters="sRGB">
<feFlood flood-opacity="0" result="BackgroundImageFix"/>
<feColorMatrix in="SourceAlpha" type="matrix" values="0 0 0 0 0 0 0 0 0 0 0 0 0 0 0 0 0 0 127 0" result="hardAlpha"/>
<feOffset dx="4" dy="25"/>
<feGaussianBlur stdDeviation="12.5"/>
<feComposite in2="hardAlpha" operator="out"/>
<feColorMatrix type="matrix" values="0 0 0 0 0.223529 0 0 0 0 0.505882 0 0 0 0 0.964706 0 0 0 0.13 0"/>
<feBlend mode="normal" in2="BackgroundImageFix" result="effect1_dropShadow_263_2690"/>
<feBlend mode="normal" in="SourceGraphic" in2="effect1_dropShadow_263_2690" result="shape"/>
</filter>
<filter id="filter1_d_263_2690" x="11.9568" y="0.947266" width="138.474" height="108.508" filterUnits="userSpaceOnUse" color-interpolation-filters="sRGB">
<feFlood flood-opacity="0" result="BackgroundImageFix"/>
<feColorMatrix in="SourceAlpha" type="matrix" values="0 0 0 0 0 0 0 0 0 0 0 0 0 0 0 0 0 0 127 0" result="hardAlpha"/>
<feOffset/>
<feGaussianBlur stdDeviation="3.5"/>
<feComposite in2="hardAlpha" operator="out"/>
<feColorMatrix type="matrix" values="0 0 0 0 0.223529 0 0 0 0 0.505882 0 0 0 0 0.964706 0 0 0 0.14 0"/>
<feBlend mode="normal" in2="BackgroundImageFix" result="effect1_dropShadow_263_2690"/>
<feBlend mode="normal" in="SourceGraphic" in2="effect1_dropShadow_263_2690" result="shape"/>
</filter>
<filter id="filter2_d_263_2690" x="127.416" y="43.1689" width="16.3088" height="16.3088" filterUnits="userSpaceOnUse" color-interpolation-filters="sRGB">
<feFlood flood-opacity="0" result="BackgroundImageFix"/>
<feColorMatrix in="SourceAlpha" type="matrix" values="0 0 0 0 0 0 0 0 0 0 0 0 0 0 0 0 0 0 127 0" result="hardAlpha"/>
<feOffset dy="4"/>
<feGaussianBlur stdDeviation="2"/>
<feComposite in2="hardAlpha" operator="out"/>
<feColorMatrix type="matrix" values="0 0 0 0 0.223529 0 0 0 0 0.505882 0 0 0 0 0.964706 0 0 0 0.12 0"/>
<feBlend mode="normal" in2="BackgroundImageFix" result="effect1_dropShadow_263_2690"/>
<feBlend mode="normal" in="SourceGraphic" in2="effect1_dropShadow_263_2690" result="shape"/>
</filter>
<filter id="filter3_d_263_2690" x="190.305" y="10.9473" width="168.474" height="169.068" filterUnits="userSpaceOnUse" color-interpolation-filters="sRGB">
<feFlood flood-opacity="0" result="BackgroundImageFix"/>
<feColorMatrix in="SourceAlpha" type="matrix" values="0 0 0 0 0 0 0 0 0 0 0 0 0 0 0 0 0 0 127 0" result="hardAlpha"/>
<feOffset dx="4" dy="25"/>
<feGaussianBlur stdDeviation="12.5"/>
<feComposite in2="hardAlpha" operator="out"/>
<feColorMatrix type="matrix" values="0 0 0 0 0.223529 0 0 0 0 0.505882 0 0 0 0 0.964706 0 0 0 0.13 0"/>
<feBlend mode="normal" in2="BackgroundImageFix" result="effect1_dropShadow_263_2690"/>
<feBlend mode="normal" in="SourceGraphic" in2="effect1_dropShadow_263_2690" result="shape"/>
</filter>
<filter id="filter4_d_263_2690" x="201.306" y="0.947266" width="138.474" height="108.508" filterUnits="userSpaceOnUse" color-interpolation-filters="sRGB">
<feFlood flood-opacity="0" result="BackgroundImageFix"/>
<feColorMatrix in="SourceAlpha" type="matrix" values="0 0 0 0 0 0 0 0 0 0 0 0 0 0 0 0 0 0 127 0" result="hardAlpha"/>
<feOffset/>
<feGaussianBlur stdDeviation="3.5"/>
<feComposite in2="hardAlpha" operator="out"/>
<feColorMatrix type="matrix" values="0 0 0 0 0.223529 0 0 0 0 0.505882 0 0 0 0 0.964706 0 0 0 0.14 0"/>
<feBlend mode="normal" in2="BackgroundImageFix" result="effect1_dropShadow_263_2690"/>
<feBlend mode="normal" in="SourceGraphic" in2="effect1_dropShadow_263_2690" result="shape"/>
</filter>
<filter id="filter5_d_263_2690" x="316.765" y="43.1689" width="16.3088" height="16.3088" filterUnits="userSpaceOnUse" color-interpolation-filters="sRGB">
<feFlood flood-opacity="0" result="BackgroundImageFix"/>
<feColorMatrix in="SourceAlpha" type="matrix" values="0 0 0 0 0 0 0 0 0 0 0 0 0 0 0 0 0 0 127 0" result="hardAlpha"/>
<feOffset dy="4"/>
<feGaussianBlur stdDeviation="2"/>
<feComposite in2="hardAlpha" operator="out"/>
<feColorMatrix type="matrix" values="0 0 0 0 0.223529 0 0 0 0 0.505882 0 0 0 0 0.964706 0 0 0 0.12 0"/>
<feBlend mode="normal" in2="BackgroundImageFix" result="effect1_dropShadow_263_2690"/>
<feBlend mode="normal" in="SourceGraphic" in2="effect1_dropShadow_263_2690" result="shape"/>
</filter>
<linearGradient id="paint0_linear_263_2690" x1="29.3739" y1="98.6666" x2="130.337" y2="96.6272" gradientUnits="userSpaceOnUse">
<stop stop-color="#FF6556"/>
<stop offset="0.32" stop-color="#FDA472"/>
<stop offset="0.58" stop-color="#FFC671"/>
<stop offset="1" stop-color="#23CF79"/>
</linearGradient>
<linearGradient id="paint1_linear_263_2690" x1="218.723" y1="98.6666" x2="319.686" y2="96.6272" gradientUnits="userSpaceOnUse">
<stop stop-color="#FF6556"/>
<stop offset="0.32" stop-color="#FDA472"/>
<stop offset="0.58" stop-color="#FFC671"/>
<stop offset="1" stop-color="#23CF79"/>
</linearGradient>
</defs>
</svg>