<svg width="356" height="181" viewBox="0 0 356 181" fill="none" xmlns="http://www.w3.org/2000/svg">
<g filter="url(#filter0_d_1006_1592)">
<ellipse cx="81.1928" cy="70.4812" rx="59.5339" ry="59.2362" transform="rotate(88.1152 81.1928 70.4812)" fill="white"/>
</g>
<g filter="url(#filter1_d_1006_1592)">
<path d="M132.962 99.4542C138.029 90.3273 140.767 79.7413 140.398 68.533C139.317 35.6711 111.934 9.90351 79.2362 10.9795C46.5387 12.0555 20.9087 39.5676 21.9901 72.4295C22.2992 81.8239 24.7579 90.6385 28.8758 98.412" stroke="url(#paint0_linear_1006_1592)" stroke-width="6" stroke-linecap="round"/>
</g>
<g filter="url(#filter2_d_1006_1592)">
<circle cx="135.57" cy="47.3229" r="4.15435" transform="rotate(88.1152 135.57 47.3229)" fill="#26CA82"/>
<circle cx="135.57" cy="47.3229" r="3.15435" transform="rotate(88.1152 135.57 47.3229)" stroke="white" stroke-width="2"/>
</g>
<path d="M48.0581 43.4512C48.0581 42.9045 48.1481 42.4078 48.3281 41.9612C48.5148 41.5145 48.7681 41.1345 49.0881 40.8212C49.4081 40.5078 49.7814 40.2678 50.2081 40.1012C50.6414 39.9345 51.1048 39.8545 51.5981 39.8612C51.9381 39.8612 52.2714 39.9078 52.5981 40.0012C52.9248 40.0878 53.2248 40.2245 53.4981 40.4112C53.7781 40.5912 54.0214 40.8178 54.2281 41.0912C54.4414 41.3645 54.6014 41.6845 54.7081 42.0512H53.8981C53.6848 41.5712 53.3748 41.2145 52.9681 40.9812C52.5614 40.7478 52.1048 40.6312 51.5981 40.6312C51.1981 40.6245 50.8314 40.6912 50.4981 40.8312C50.1648 40.9712 49.8814 41.1678 49.6481 41.4212C49.4148 41.6745 49.2314 41.9745 49.0981 42.3212C48.9714 42.6678 48.9081 43.0445 48.9081 43.4512C48.9081 43.8445 48.9714 44.2145 49.0981 44.5612C49.2248 44.9012 49.4048 45.1978 49.6381 45.4512C49.8781 45.7045 50.1614 45.9045 50.4881 46.0512C50.8214 46.1912 51.1881 46.2612 51.5881 46.2612C52.1281 46.2612 52.6081 46.1312 53.0281 45.8712C53.4481 45.6045 53.7514 45.2178 53.9381 44.7112H54.7481C54.6481 45.1045 54.4914 45.4478 54.2781 45.7412C54.0714 46.0278 53.8281 46.2678 53.5481 46.4612C53.2681 46.6545 52.9581 46.7978 52.6181 46.8912C52.2848 46.9845 51.9448 47.0312 51.5981 47.0312C51.1114 47.0312 50.6514 46.9478 50.2181 46.7812C49.7914 46.6145 49.4181 46.3778 49.0981 46.0712C48.7781 45.7578 48.5248 45.3812 48.3381 44.9412C48.1514 44.5012 48.0581 44.0045 48.0581 43.4512ZM60.1253 42.1312V45.6612C60.1253 45.8412 60.132 45.9845 60.1453 46.0912C60.1586 46.1912 60.1853 46.2712 60.2253 46.3312C60.2653 46.3845 60.322 46.4178 60.3953 46.4312C60.4686 46.4378 60.5686 46.4345 60.6953 46.4212L60.7053 46.9612C60.5186 46.9945 60.342 47.0112 60.1753 47.0112C60.0153 47.0178 59.8753 46.9978 59.7553 46.9512C59.6353 46.8978 59.542 46.8145 59.4753 46.7012C59.4153 46.5812 59.392 46.4145 59.4053 46.2012C59.312 46.3678 59.202 46.5078 59.0753 46.6212C58.9486 46.7278 58.8086 46.8145 58.6553 46.8812C58.5086 46.9412 58.352 46.9812 58.1853 47.0012C58.0186 47.0278 57.852 47.0412 57.6853 47.0412C57.3653 47.0412 57.0886 46.9878 56.8553 46.8812C56.6286 46.7745 56.442 46.6278 56.2953 46.4412C56.1486 46.2478 56.042 46.0245 55.9753 45.7712C55.9086 45.5178 55.8753 45.2412 55.8753 44.9412V42.1312H56.6653V44.9412C56.6586 45.3812 56.7653 45.7345 56.9853 46.0012C57.2053 46.2678 57.5153 46.4012 57.9153 46.4012C58.3353 46.4012 58.6786 46.2712 58.9453 46.0112C59.212 45.7445 59.3453 45.3845 59.3453 44.9312V42.1312H60.1253ZM62.6744 42.8112C62.8211 42.5312 63.0244 42.3345 63.2844 42.2212C63.5444 42.1012 63.8278 42.0412 64.1344 42.0412C64.5544 42.0412 64.9311 42.1612 65.2644 42.4012L65.0744 43.0612C64.9211 42.9612 64.7578 42.8845 64.5844 42.8312C64.4178 42.7712 64.2411 42.7412 64.0544 42.7412C63.8811 42.7412 63.7144 42.7712 63.5544 42.8312C63.3944 42.8912 63.2511 42.9745 63.1244 43.0812C63.0044 43.1878 62.9078 43.3212 62.8344 43.4812C62.7611 43.6345 62.7244 43.8045 62.7244 43.9912V46.9512H61.9544V43.3012C61.9544 43.1945 61.9511 43.0978 61.9444 43.0112C61.9378 42.9178 61.9144 42.8445 61.8744 42.7912C61.8411 42.7312 61.7844 42.6878 61.7044 42.6612C61.6244 42.6345 61.5144 42.6278 61.3744 42.6412L61.3644 42.1212C61.5511 42.0878 61.7211 42.0712 61.8744 42.0712C62.0344 42.0712 62.1711 42.0945 62.2844 42.1412C62.4044 42.1878 62.4978 42.2645 62.5644 42.3712C62.6311 42.4778 62.6678 42.6245 62.6744 42.8112ZM67.0006 42.8112C67.1473 42.5312 67.3506 42.3345 67.6106 42.2212C67.8706 42.1012 68.1539 42.0412 68.4606 42.0412C68.8806 42.0412 69.2573 42.1612 69.5906 42.4012L69.4006 43.0612C69.2473 42.9612 69.0839 42.8845 68.9106 42.8312C68.7439 42.7712 68.5673 42.7412 68.3806 42.7412C68.2073 42.7412 68.0406 42.7712 67.8806 42.8312C67.7206 42.8912 67.5773 42.9745 67.4506 43.0812C67.3306 43.1878 67.2339 43.3212 67.1606 43.4812C67.0873 43.6345 67.0506 43.8045 67.0506 43.9912V46.9512H66.2806V43.3012C66.2806 43.1945 66.2773 43.0978 66.2706 43.0112C66.2639 42.9178 66.2406 42.8445 66.2006 42.7912C66.1673 42.7312 66.1106 42.6878 66.0306 42.6612C65.9506 42.6345 65.8406 42.6278 65.7006 42.6412L65.6906 42.1212C65.8773 42.0878 66.0473 42.0712 66.2006 42.0712C66.3606 42.0712 66.4973 42.0945 66.6106 42.1412C66.7306 42.1878 66.8239 42.2645 66.8906 42.3712C66.9573 42.4778 66.9939 42.6245 67.0006 42.8112ZM72.4605 42.0412C73.2872 42.0478 73.8805 42.2812 74.2405 42.7412C74.6005 43.1945 74.7139 43.8212 74.5805 44.6212H70.7705C70.7572 44.9012 70.7972 45.1512 70.8905 45.3712C70.9905 45.5845 71.1272 45.7678 71.3005 45.9212C71.4739 46.0745 71.6805 46.1912 71.9205 46.2712C72.1605 46.3512 72.4172 46.3912 72.6905 46.3912C72.9705 46.3912 73.2405 46.3612 73.5005 46.3012C73.7672 46.2412 74.0405 46.1545 74.3205 46.0412L74.4405 46.6312C73.8605 46.9045 73.2705 47.0412 72.6705 47.0412C72.2705 47.0412 71.9039 46.9812 71.5705 46.8612C71.2372 46.7412 70.9505 46.5678 70.7105 46.3412C70.4705 46.1145 70.2872 45.8412 70.1605 45.5212C70.0339 45.1945 69.9772 44.8245 69.9905 44.4112C70.0039 44.0312 70.0772 43.6945 70.2105 43.4012C70.3439 43.1078 70.5205 42.8612 70.7405 42.6612C70.9672 42.4545 71.2272 42.3012 71.5205 42.2012C71.8139 42.0945 72.1272 42.0412 72.4605 42.0412ZM72.4605 42.6612C72.0205 42.6612 71.6505 42.7778 71.3505 43.0112C71.0505 43.2445 70.8672 43.5812 70.8005 44.0212H73.9405C73.9539 43.7945 73.9239 43.5978 73.8505 43.4312C73.7772 43.2578 73.6739 43.1145 73.5405 43.0012C73.4072 42.8878 73.2472 42.8045 73.0605 42.7512C72.8739 42.6912 72.6739 42.6612 72.4605 42.6612ZM79.5676 46.9512V44.1012C79.5676 43.6612 79.441 43.3178 79.1876 43.0712C78.941 42.8178 78.6176 42.6912 78.2176 42.6912C78.011 42.6912 77.821 42.7245 77.6476 42.7912C77.4743 42.8578 77.321 42.9512 77.1876 43.0712C77.061 43.1912 76.961 43.3378 76.8876 43.5112C76.8143 43.6778 76.7776 43.8612 76.7776 44.0612V46.9512H75.9976V43.5112C75.9976 43.3512 75.991 43.2178 75.9776 43.1112C75.971 43.0045 75.9476 42.9212 75.9076 42.8612C75.8676 42.8012 75.811 42.7645 75.7376 42.7512C75.6643 42.7312 75.5643 42.7278 75.4376 42.7412L75.4276 42.1212C75.5676 42.1012 75.7143 42.0845 75.8676 42.0712C76.021 42.0578 76.161 42.0712 76.2876 42.1112C76.4143 42.1445 76.5176 42.2178 76.5976 42.3312C76.6843 42.4445 76.7276 42.6178 76.7276 42.8512C76.941 42.5245 77.191 42.3078 77.4776 42.2012C77.771 42.0945 78.0876 42.0412 78.4276 42.0412C78.7476 42.0412 79.0276 42.0945 79.2676 42.2012C79.5076 42.3012 79.7076 42.4445 79.8676 42.6312C80.0276 42.8112 80.1476 43.0278 80.2276 43.2812C80.3143 43.5345 80.3576 43.8078 80.3576 44.1012V46.9512H79.5676ZM83.0161 42.1512H84.7861V42.7212H83.0161V45.1612C83.0161 45.5945 83.1027 45.9112 83.2761 46.1112C83.4494 46.3112 83.6927 46.4112 84.0061 46.4112C84.2661 46.4112 84.5761 46.3445 84.9361 46.2112L85.0261 46.8212C84.5794 46.9678 84.1627 47.0412 83.7761 47.0412C83.3027 47.0412 82.9261 46.8945 82.6461 46.6012C82.3727 46.3078 82.2361 45.8345 82.2361 45.1812V42.7212L81.2061 42.6712V42.1512H82.2861L82.3661 40.6512H83.0161V42.1512ZM89.0529 45.0412C89.0663 45.2745 89.1363 45.4745 89.2629 45.6412C89.3896 45.8012 89.5496 45.9312 89.7429 46.0312C89.9363 46.1312 90.1463 46.2045 90.3729 46.2512C90.6063 46.2912 90.8296 46.3112 91.0429 46.3112C91.2496 46.3112 91.4629 46.2912 91.6829 46.2512C91.9096 46.2112 92.1129 46.1412 92.2929 46.0412C92.4796 45.9412 92.6329 45.8078 92.7529 45.6412C92.8729 45.4678 92.9363 45.2545 92.9429 45.0012C92.9429 44.7212 92.8829 44.5045 92.7629 44.3512C92.6429 44.1912 92.4863 44.0712 92.2929 43.9912C92.0996 43.9045 91.8829 43.8478 91.6429 43.8212C91.4096 43.7878 91.1729 43.7545 90.9329 43.7212C90.6129 43.6878 90.2996 43.6378 89.9929 43.5712C89.6929 43.5045 89.4229 43.4045 89.1829 43.2712C88.9429 43.1312 88.7496 42.9512 88.6029 42.7312C88.4563 42.5045 88.3829 42.2145 88.3829 41.8612C88.3829 41.5145 88.4563 41.2178 88.6029 40.9712C88.7563 40.7178 88.9529 40.5112 89.1929 40.3512C89.4329 40.1845 89.7029 40.0612 90.0029 39.9812C90.3096 39.9012 90.6163 39.8612 90.9229 39.8612C91.2229 39.8612 91.5263 39.8978 91.8329 39.9712C92.1396 40.0378 92.4163 40.1478 92.6629 40.3012C92.9163 40.4478 93.1229 40.6412 93.2829 40.8812C93.4429 41.1212 93.5296 41.4112 93.5429 41.7512H92.7629C92.7429 41.5312 92.6729 41.3478 92.5529 41.2012C92.4396 41.0545 92.2963 40.9378 92.1229 40.8512C91.9496 40.7645 91.7596 40.7045 91.5529 40.6712C91.3463 40.6312 91.1429 40.6112 90.9429 40.6112C90.7496 40.6112 90.5496 40.6345 90.3429 40.6812C90.1429 40.7212 89.9563 40.7912 89.7829 40.8912C89.6163 40.9845 89.4796 41.1112 89.3729 41.2712C89.2663 41.4312 89.2129 41.6245 89.2129 41.8512C89.2129 42.1112 89.2696 42.3145 89.3829 42.4612C89.4963 42.6078 89.6429 42.7212 89.8229 42.8012C90.0029 42.8745 90.2029 42.9278 90.4229 42.9612C90.6429 42.9878 90.8596 43.0145 91.0729 43.0412C91.4196 43.0812 91.7529 43.1345 92.0729 43.2012C92.3996 43.2612 92.6863 43.3612 92.9329 43.5012C93.1863 43.6412 93.3863 43.8312 93.5329 44.0712C93.6863 44.3045 93.7629 44.6145 93.7629 45.0012C93.7629 45.3745 93.6796 45.6912 93.5129 45.9512C93.3529 46.2045 93.1429 46.4112 92.8829 46.5712C92.6229 46.7312 92.3329 46.8478 92.0129 46.9212C91.6929 46.9945 91.3729 47.0345 91.0529 47.0412C90.7263 47.0478 90.3996 47.0145 90.0729 46.9412C89.7463 46.8678 89.4496 46.7512 89.1829 46.5912C88.9163 46.4312 88.6963 46.2245 88.5229 45.9712C88.3496 45.7112 88.2563 45.4012 88.2429 45.0412H89.0529ZM98.7178 43.6312C98.5845 43.3312 98.3845 43.1078 98.1178 42.9612C97.8578 42.8145 97.5745 42.7412 97.2678 42.7412C97.0478 42.7412 96.8278 42.7778 96.6078 42.8512C96.3945 42.9245 96.2011 43.0345 96.0278 43.1812C95.8611 43.3278 95.7245 43.5145 95.6178 43.7412C95.5178 43.9612 95.4678 44.2212 95.4678 44.5212C95.4678 44.8212 95.5178 45.0845 95.6178 45.3112C95.7245 45.5378 95.8578 45.7278 96.0178 45.8812C96.1845 46.0345 96.3711 46.1512 96.5778 46.2312C96.7911 46.3112 97.0078 46.3512 97.2278 46.3512C97.5478 46.3512 97.8478 46.2678 98.1278 46.1012C98.4145 45.9345 98.6245 45.6812 98.7578 45.3412H99.5178C99.4445 45.6278 99.3311 45.8778 99.1778 46.0912C99.0245 46.3045 98.8445 46.4812 98.6378 46.6212C98.4311 46.7612 98.2045 46.8678 97.9578 46.9412C97.7178 47.0078 97.4711 47.0412 97.2178 47.0412C96.9045 47.0412 96.5945 46.9878 96.2878 46.8812C95.9878 46.7745 95.7178 46.6178 95.4778 46.4112C95.2378 46.1978 95.0445 45.9345 94.8978 45.6212C94.7511 45.3012 94.6778 44.9345 94.6778 44.5212C94.6778 44.1012 94.7511 43.7345 94.8978 43.4212C95.0511 43.1078 95.2478 42.8512 95.4878 42.6512C95.7278 42.4445 96.0011 42.2912 96.3078 42.1912C96.6145 42.0912 96.9245 42.0412 97.2378 42.0412C97.4845 42.0412 97.7245 42.0778 97.9578 42.1512C98.1911 42.2178 98.4078 42.3178 98.6078 42.4512C98.8078 42.5778 98.9811 42.7412 99.1278 42.9412C99.2811 43.1412 99.3945 43.3712 99.4678 43.6312H98.7178ZM105.432 44.5312C105.432 44.9512 105.359 45.3178 105.212 45.6312C105.065 45.9445 104.872 46.2078 104.632 46.4212C104.392 46.6278 104.119 46.7845 103.812 46.8912C103.505 46.9912 103.192 47.0412 102.872 47.0412C102.559 47.0412 102.249 46.9878 101.942 46.8812C101.642 46.7745 101.372 46.6178 101.132 46.4112C100.899 46.1978 100.709 45.9378 100.562 45.6312C100.422 45.3178 100.352 44.9512 100.352 44.5312C100.352 44.1112 100.425 43.7445 100.572 43.4312C100.719 43.1178 100.912 42.8612 101.152 42.6612C101.392 42.4545 101.662 42.3012 101.962 42.2012C102.269 42.0945 102.582 42.0412 102.902 42.0412C103.222 42.0412 103.532 42.0945 103.832 42.2012C104.139 42.3012 104.409 42.4545 104.642 42.6612C104.882 42.8678 105.072 43.1278 105.212 43.4412C105.359 43.7478 105.432 44.1112 105.432 44.5312ZM101.142 44.5312C101.142 44.8378 101.192 45.1078 101.292 45.3412C101.392 45.5745 101.525 45.7678 101.692 45.9212C101.859 46.0745 102.045 46.1912 102.252 46.2712C102.465 46.3512 102.682 46.3912 102.902 46.3912C103.122 46.3912 103.335 46.3512 103.542 46.2712C103.755 46.1912 103.942 46.0745 104.102 45.9212C104.269 45.7678 104.402 45.5745 104.502 45.3412C104.602 45.1078 104.652 44.8378 104.652 44.5312C104.652 44.2245 104.602 43.9578 104.502 43.7312C104.402 43.5045 104.269 43.3178 104.102 43.1712C103.935 43.0178 103.745 42.9045 103.532 42.8312C103.325 42.7512 103.112 42.7112 102.892 42.7112C102.672 42.7112 102.455 42.7512 102.242 42.8312C102.035 42.9045 101.849 43.0178 101.682 43.1712C101.522 43.3178 101.392 43.5045 101.292 43.7312C101.192 43.9578 101.142 44.2245 101.142 44.5312ZM107.508 42.8112C107.655 42.5312 107.858 42.3345 108.118 42.2212C108.378 42.1012 108.662 42.0412 108.968 42.0412C109.388 42.0412 109.765 42.1612 110.098 42.4012L109.908 43.0612C109.755 42.9612 109.592 42.8845 109.418 42.8312C109.252 42.7712 109.075 42.7412 108.888 42.7412C108.715 42.7412 108.548 42.7712 108.388 42.8312C108.228 42.8912 108.085 42.9745 107.958 43.0812C107.838 43.1878 107.742 43.3212 107.668 43.4812C107.595 43.6345 107.558 43.8045 107.558 43.9912V46.9512H106.788V43.3012C106.788 43.1945 106.785 43.0978 106.778 43.0112C106.772 42.9178 106.748 42.8445 106.708 42.7912C106.675 42.7312 106.618 42.6878 106.538 42.6612C106.458 42.6345 106.348 42.6278 106.208 42.6412L106.198 42.1212C106.385 42.0878 106.555 42.0712 106.708 42.0712C106.868 42.0712 107.005 42.0945 107.118 42.1412C107.238 42.1878 107.332 42.2645 107.398 42.3712C107.465 42.4778 107.502 42.6245 107.508 42.8112ZM112.968 42.0412C113.795 42.0478 114.388 42.2812 114.748 42.7412C115.108 43.1945 115.222 43.8212 115.088 44.6212H111.278C111.265 44.9012 111.305 45.1512 111.398 45.3712C111.498 45.5845 111.635 45.7678 111.808 45.9212C111.982 46.0745 112.188 46.1912 112.428 46.2712C112.668 46.3512 112.925 46.3912 113.198 46.3912C113.478 46.3912 113.748 46.3612 114.008 46.3012C114.275 46.2412 114.548 46.1545 114.828 46.0412L114.948 46.6312C114.368 46.9045 113.778 47.0412 113.178 47.0412C112.778 47.0412 112.412 46.9812 112.078 46.8612C111.745 46.7412 111.458 46.5678 111.218 46.3412C110.978 46.1145 110.795 45.8412 110.668 45.5212C110.542 45.1945 110.485 44.8245 110.498 44.4112C110.512 44.0312 110.585 43.6945 110.718 43.4012C110.852 43.1078 111.028 42.8612 111.248 42.6612C111.475 42.4545 111.735 42.3012 112.028 42.2012C112.322 42.0945 112.635 42.0412 112.968 42.0412ZM112.968 42.6612C112.528 42.6612 112.158 42.7778 111.858 43.0112C111.558 43.2445 111.375 43.5812 111.308 44.0212H114.448C114.462 43.7945 114.432 43.5978 114.358 43.4312C114.285 43.2578 114.182 43.1145 114.048 43.0012C113.915 42.8878 113.755 42.8045 113.568 42.7512C113.382 42.6912 113.182 42.6612 112.968 42.6612Z" fill="#434343"/>
<path d="M72.4161 63.3128L72.4097 63.8167L65.0514 80.0206L61.4277 79.9746L67.5529 66.3713L60.4735 66.2813L60.5131 63.1616L72.4161 63.3128ZM80.4137 63.1743C83.8455 63.2179 86.6264 65.3654 86.5804 68.9891L86.5072 74.7486C86.4609 78.3963 83.626 80.4965 80.1943 80.4529C76.7146 80.4087 73.9339 78.2372 73.9803 74.5895L74.0534 68.83C74.0994 65.2063 76.934 63.1301 80.4137 63.1743ZM80.2342 77.3092C81.6981 77.3278 82.8841 76.5508 83.0706 75.089C83.1238 74.6817 83.1533 74.25 83.1597 73.746L83.2082 69.9303C83.2143 69.4504 83.1961 68.9941 83.1535 68.5615C83.0048 67.0475 81.8377 66.3366 80.3738 66.3181C78.8379 66.2986 77.7012 66.9802 77.514 68.4899C77.4605 68.9213 77.4307 69.3769 77.4246 69.8569L77.3762 73.6726C77.3698 74.1765 77.3883 74.6088 77.4311 75.0174C77.5805 76.4834 78.6984 77.2897 80.2342 77.3092ZM96.0687 63.3731C99.5004 63.4167 102.281 65.5642 102.235 69.1879L102.162 74.9474C102.116 78.5951 99.281 80.6953 95.8493 80.6517C92.3696 80.6075 89.5889 78.4361 89.6352 74.7883L89.7084 69.0288C89.7544 65.4051 92.589 63.3289 96.0687 63.3731ZM95.8892 77.508C97.3531 77.5266 98.5391 76.7496 98.7256 75.2878C98.7788 74.8805 98.8083 74.4488 98.8147 73.9448L98.8632 70.1292C98.8692 69.6492 98.851 69.1929 98.8085 68.7603C98.6597 67.2463 97.4927 66.5355 96.0288 66.5169C94.4929 66.4974 93.3562 67.179 93.169 68.6887C93.1155 69.1201 93.0857 69.5757 93.0796 70.0557L93.0312 73.8714C93.0248 74.3754 93.0433 74.8076 93.0861 75.2162C93.2355 76.6822 94.3533 77.4885 95.8892 77.508Z" fill="#26CA82"/>
<path d="M63.5792 95.3272C63.6146 92.5434 65.7099 91.0339 67.9177 91.0619C69.5856 91.0831 71.2433 91.9082 71.6984 93.8702L69.9345 93.8478C69.5249 93.0265 68.8571 92.694 67.8972 92.6818C66.3253 92.6618 65.4221 93.8505 65.4031 95.3503C65.3828 96.9462 66.3289 98.0503 67.8287 98.0694C68.9807 98.084 69.8252 97.7347 70.2011 96.4794L67.9093 96.4503L67.9281 94.9744L71.8637 95.0244C71.9015 95.8289 71.8681 96.5725 71.5823 97.337C70.9249 99.0208 69.4159 99.7216 67.808 99.7012C65.5882 99.673 63.5439 98.1109 63.5792 95.3272ZM81.3922 95.5534C81.3597 98.1092 79.5734 99.8506 77.0297 99.8183C74.7858 99.7898 72.7769 98.2762 72.8129 95.4444C72.8488 92.6127 74.9435 91.1511 77.1754 91.1795C79.3712 91.2074 81.428 92.7336 81.3922 95.5534ZM74.6247 95.4674C74.6014 97.3033 75.7306 98.1577 77.0745 98.1748C78.3824 98.1914 79.581 97.3665 79.6043 95.5307C79.627 93.7428 78.4622 92.852 77.1543 92.8354C75.8344 92.8186 74.6473 93.6916 74.6247 95.4674ZM90.9773 95.6751C90.9449 98.2309 89.1586 99.9724 86.6148 99.9401C84.371 99.9116 82.3621 98.3979 82.398 95.5662C82.434 92.7344 84.5287 91.2729 86.7605 91.3012C88.9564 91.3291 91.0131 92.8553 90.9773 95.6751ZM84.2099 95.5892C84.1866 97.425 85.3158 98.2794 86.6597 98.2965C87.9676 98.3131 89.1662 97.4883 89.1895 95.6524C89.2122 93.8646 88.0474 92.9737 86.7395 92.9571C85.4196 92.9403 84.2324 93.8133 84.2099 95.5892ZM92.5163 91.5063L95.6361 91.5459C98.3119 91.5799 99.726 93.6261 99.6989 95.7619C99.7076 97.9102 98.2413 99.9677 95.5296 99.9333L92.4098 99.8937L92.5163 91.5063ZM94.2182 98.2965L95.5261 98.3131C97.074 98.3328 97.8938 97.0951 97.9109 95.7512C97.9279 94.4073 97.1154 93.1849 95.5915 93.1655L94.2836 93.1489L94.2182 98.2965Z" fill="#26CA82"/>
<g filter="url(#filter3_d_1006_1592)">
<ellipse cx="270.193" cy="70.4812" rx="59.5339" ry="59.2362" transform="rotate(88.1152 270.193 70.4812)" fill="white"/>
</g>
<g filter="url(#filter4_d_1006_1592)">
<path d="M321.962 99.4542C327.029 90.3273 329.767 79.7413 329.398 68.533C328.317 35.6711 300.934 9.90351 268.236 10.9795C235.539 12.0555 209.909 39.5676 210.99 72.4295C211.299 81.8239 213.758 90.6385 217.876 98.412" stroke="url(#paint1_linear_1006_1592)" stroke-width="6" stroke-linecap="round"/>
</g>
<g filter="url(#filter5_d_1006_1592)">
<circle cx="328.289" cy="57.2887" r="4.15435" transform="rotate(88.1152 328.289 57.2887)" fill="#26CA82"/>
<circle cx="328.289" cy="57.2887" r="3.15435" transform="rotate(88.1152 328.289 57.2887)" stroke="white" stroke-width="2"/>
</g>
<path d="M237.058 43.4512C237.058 42.9045 237.148 42.4078 237.328 41.9612C237.515 41.5145 237.768 41.1345 238.088 40.8212C238.408 40.5078 238.781 40.2678 239.208 40.1012C239.641 39.9345 240.105 39.8545 240.598 39.8612C240.938 39.8612 241.271 39.9078 241.598 40.0012C241.925 40.0878 242.225 40.2245 242.498 40.4112C242.778 40.5912 243.021 40.8178 243.228 41.0912C243.441 41.3645 243.601 41.6845 243.708 42.0512H242.898C242.685 41.5712 242.375 41.2145 241.968 40.9812C241.561 40.7478 241.105 40.6312 240.598 40.6312C240.198 40.6245 239.831 40.6912 239.498 40.8312C239.165 40.9712 238.881 41.1678 238.648 41.4212C238.415 41.6745 238.231 41.9745 238.098 42.3212C237.971 42.6678 237.908 43.0445 237.908 43.4512C237.908 43.8445 237.971 44.2145 238.098 44.5612C238.225 44.9012 238.405 45.1978 238.638 45.4512C238.878 45.7045 239.161 45.9045 239.488 46.0512C239.821 46.1912 240.188 46.2612 240.588 46.2612C241.128 46.2612 241.608 46.1312 242.028 45.8712C242.448 45.6045 242.751 45.2178 242.938 44.7112H243.748C243.648 45.1045 243.491 45.4478 243.278 45.7412C243.071 46.0278 242.828 46.2678 242.548 46.4612C242.268 46.6545 241.958 46.7978 241.618 46.8912C241.285 46.9845 240.945 47.0312 240.598 47.0312C240.111 47.0312 239.651 46.9478 239.218 46.7812C238.791 46.6145 238.418 46.3778 238.098 46.0712C237.778 45.7578 237.525 45.3812 237.338 44.9412C237.151 44.5012 237.058 44.0045 237.058 43.4512ZM249.125 42.1312V45.6612C249.125 45.8412 249.132 45.9845 249.145 46.0912C249.159 46.1912 249.185 46.2712 249.225 46.3312C249.265 46.3845 249.322 46.4178 249.395 46.4312C249.469 46.4378 249.569 46.4345 249.695 46.4212L249.705 46.9612C249.519 46.9945 249.342 47.0112 249.175 47.0112C249.015 47.0178 248.875 46.9978 248.755 46.9512C248.635 46.8978 248.542 46.8145 248.475 46.7012C248.415 46.5812 248.392 46.4145 248.405 46.2012C248.312 46.3678 248.202 46.5078 248.075 46.6212C247.949 46.7278 247.809 46.8145 247.655 46.8812C247.509 46.9412 247.352 46.9812 247.185 47.0012C247.019 47.0278 246.852 47.0412 246.685 47.0412C246.365 47.0412 246.089 46.9878 245.855 46.8812C245.629 46.7745 245.442 46.6278 245.295 46.4412C245.149 46.2478 245.042 46.0245 244.975 45.7712C244.909 45.5178 244.875 45.2412 244.875 44.9412V42.1312H245.665V44.9412C245.659 45.3812 245.765 45.7345 245.985 46.0012C246.205 46.2678 246.515 46.4012 246.915 46.4012C247.335 46.4012 247.679 46.2712 247.945 46.0112C248.212 45.7445 248.345 45.3845 248.345 44.9312V42.1312H249.125ZM251.674 42.8112C251.821 42.5312 252.024 42.3345 252.284 42.2212C252.544 42.1012 252.828 42.0412 253.134 42.0412C253.554 42.0412 253.931 42.1612 254.264 42.4012L254.074 43.0612C253.921 42.9612 253.758 42.8845 253.584 42.8312C253.418 42.7712 253.241 42.7412 253.054 42.7412C252.881 42.7412 252.714 42.7712 252.554 42.8312C252.394 42.8912 252.251 42.9745 252.124 43.0812C252.004 43.1878 251.908 43.3212 251.834 43.4812C251.761 43.6345 251.724 43.8045 251.724 43.9912V46.9512H250.954V43.3012C250.954 43.1945 250.951 43.0978 250.944 43.0112C250.938 42.9178 250.914 42.8445 250.874 42.7912C250.841 42.7312 250.784 42.6878 250.704 42.6612C250.624 42.6345 250.514 42.6278 250.374 42.6412L250.364 42.1212C250.551 42.0878 250.721 42.0712 250.874 42.0712C251.034 42.0712 251.171 42.0945 251.284 42.1412C251.404 42.1878 251.498 42.2645 251.564 42.3712C251.631 42.4778 251.668 42.6245 251.674 42.8112ZM256.001 42.8112C256.147 42.5312 256.351 42.3345 256.611 42.2212C256.871 42.1012 257.154 42.0412 257.461 42.0412C257.881 42.0412 258.257 42.1612 258.591 42.4012L258.401 43.0612C258.247 42.9612 258.084 42.8845 257.911 42.8312C257.744 42.7712 257.567 42.7412 257.381 42.7412C257.207 42.7412 257.041 42.7712 256.881 42.8312C256.721 42.8912 256.577 42.9745 256.451 43.0812C256.331 43.1878 256.234 43.3212 256.161 43.4812C256.087 43.6345 256.051 43.8045 256.051 43.9912V46.9512H255.281V43.3012C255.281 43.1945 255.277 43.0978 255.271 43.0112C255.264 42.9178 255.241 42.8445 255.201 42.7912C255.167 42.7312 255.111 42.6878 255.031 42.6612C254.951 42.6345 254.841 42.6278 254.701 42.6412L254.691 42.1212C254.877 42.0878 255.047 42.0712 255.201 42.0712C255.361 42.0712 255.497 42.0945 255.611 42.1412C255.731 42.1878 255.824 42.2645 255.891 42.3712C255.957 42.4778 255.994 42.6245 256.001 42.8112ZM261.461 42.0412C262.287 42.0478 262.881 42.2812 263.241 42.7412C263.601 43.1945 263.714 43.8212 263.581 44.6212H259.771C259.757 44.9012 259.797 45.1512 259.891 45.3712C259.991 45.5845 260.127 45.7678 260.301 45.9212C260.474 46.0745 260.681 46.1912 260.921 46.2712C261.161 46.3512 261.417 46.3912 261.691 46.3912C261.971 46.3912 262.241 46.3612 262.501 46.3012C262.767 46.2412 263.041 46.1545 263.321 46.0412L263.441 46.6312C262.861 46.9045 262.271 47.0412 261.671 47.0412C261.271 47.0412 260.904 46.9812 260.571 46.8612C260.237 46.7412 259.951 46.5678 259.711 46.3412C259.471 46.1145 259.287 45.8412 259.161 45.5212C259.034 45.1945 258.977 44.8245 258.991 44.4112C259.004 44.0312 259.077 43.6945 259.211 43.4012C259.344 43.1078 259.521 42.8612 259.741 42.6612C259.967 42.4545 260.227 42.3012 260.521 42.2012C260.814 42.0945 261.127 42.0412 261.461 42.0412ZM261.461 42.6612C261.021 42.6612 260.651 42.7778 260.351 43.0112C260.051 43.2445 259.867 43.5812 259.801 44.0212H262.941C262.954 43.7945 262.924 43.5978 262.851 43.4312C262.777 43.2578 262.674 43.1145 262.541 43.0012C262.407 42.8878 262.247 42.8045 262.061 42.7512C261.874 42.6912 261.674 42.6612 261.461 42.6612ZM268.568 46.9512V44.1012C268.568 43.6612 268.441 43.3178 268.188 43.0712C267.941 42.8178 267.618 42.6912 267.218 42.6912C267.011 42.6912 266.821 42.7245 266.648 42.7912C266.474 42.8578 266.321 42.9512 266.188 43.0712C266.061 43.1912 265.961 43.3378 265.888 43.5112C265.814 43.6778 265.778 43.8612 265.778 44.0612V46.9512H264.998V43.5112C264.998 43.3512 264.991 43.2178 264.978 43.1112C264.971 43.0045 264.948 42.9212 264.908 42.8612C264.868 42.8012 264.811 42.7645 264.738 42.7512C264.664 42.7312 264.564 42.7278 264.438 42.7412L264.428 42.1212C264.568 42.1012 264.714 42.0845 264.868 42.0712C265.021 42.0578 265.161 42.0712 265.288 42.1112C265.414 42.1445 265.518 42.2178 265.598 42.3312C265.684 42.4445 265.728 42.6178 265.728 42.8512C265.941 42.5245 266.191 42.3078 266.478 42.2012C266.771 42.0945 267.088 42.0412 267.428 42.0412C267.748 42.0412 268.028 42.0945 268.268 42.2012C268.508 42.3012 268.708 42.4445 268.868 42.6312C269.028 42.8112 269.148 43.0278 269.228 43.2812C269.314 43.5345 269.358 43.8078 269.358 44.1012V46.9512H268.568ZM272.016 42.1512H273.786V42.7212H272.016V45.1612C272.016 45.5945 272.103 45.9112 272.276 46.1112C272.449 46.3112 272.693 46.4112 273.006 46.4112C273.266 46.4112 273.576 46.3445 273.936 46.2112L274.026 46.8212C273.579 46.9678 273.163 47.0412 272.776 47.0412C272.303 47.0412 271.926 46.8945 271.646 46.6012C271.373 46.3078 271.236 45.8345 271.236 45.1812V42.7212L270.206 42.6712V42.1512H271.286L271.366 40.6512H272.016V42.1512ZM278.053 45.0412C278.066 45.2745 278.136 45.4745 278.263 45.6412C278.39 45.8012 278.55 45.9312 278.743 46.0312C278.936 46.1312 279.146 46.2045 279.373 46.2512C279.606 46.2912 279.83 46.3112 280.043 46.3112C280.25 46.3112 280.463 46.2912 280.683 46.2512C280.91 46.2112 281.113 46.1412 281.293 46.0412C281.48 45.9412 281.633 45.8078 281.753 45.6412C281.873 45.4678 281.936 45.2545 281.943 45.0012C281.943 44.7212 281.883 44.5045 281.763 44.3512C281.643 44.1912 281.486 44.0712 281.293 43.9912C281.1 43.9045 280.883 43.8478 280.643 43.8212C280.41 43.7878 280.173 43.7545 279.933 43.7212C279.613 43.6878 279.3 43.6378 278.993 43.5712C278.693 43.5045 278.423 43.4045 278.183 43.2712C277.943 43.1312 277.75 42.9512 277.603 42.7312C277.456 42.5045 277.383 42.2145 277.383 41.8612C277.383 41.5145 277.456 41.2178 277.603 40.9712C277.756 40.7178 277.953 40.5112 278.193 40.3512C278.433 40.1845 278.703 40.0612 279.003 39.9812C279.31 39.9012 279.616 39.8612 279.923 39.8612C280.223 39.8612 280.526 39.8978 280.833 39.9712C281.14 40.0378 281.416 40.1478 281.663 40.3012C281.916 40.4478 282.123 40.6412 282.283 40.8812C282.443 41.1212 282.53 41.4112 282.543 41.7512H281.763C281.743 41.5312 281.673 41.3478 281.553 41.2012C281.44 41.0545 281.296 40.9378 281.123 40.8512C280.95 40.7645 280.76 40.7045 280.553 40.6712C280.346 40.6312 280.143 40.6112 279.943 40.6112C279.75 40.6112 279.55 40.6345 279.343 40.6812C279.143 40.7212 278.956 40.7912 278.783 40.8912C278.616 40.9845 278.48 41.1112 278.373 41.2712C278.266 41.4312 278.213 41.6245 278.213 41.8512C278.213 42.1112 278.27 42.3145 278.383 42.4612C278.496 42.6078 278.643 42.7212 278.823 42.8012C279.003 42.8745 279.203 42.9278 279.423 42.9612C279.643 42.9878 279.86 43.0145 280.073 43.0412C280.42 43.0812 280.753 43.1345 281.073 43.2012C281.4 43.2612 281.686 43.3612 281.933 43.5012C282.186 43.6412 282.386 43.8312 282.533 44.0712C282.686 44.3045 282.763 44.6145 282.763 45.0012C282.763 45.3745 282.68 45.6912 282.513 45.9512C282.353 46.2045 282.143 46.4112 281.883 46.5712C281.623 46.7312 281.333 46.8478 281.013 46.9212C280.693 46.9945 280.373 47.0345 280.053 47.0412C279.726 47.0478 279.4 47.0145 279.073 46.9412C278.746 46.8678 278.45 46.7512 278.183 46.5912C277.916 46.4312 277.696 46.2245 277.523 45.9712C277.35 45.7112 277.256 45.4012 277.243 45.0412H278.053ZM287.718 43.6312C287.584 43.3312 287.384 43.1078 287.118 42.9612C286.858 42.8145 286.574 42.7412 286.268 42.7412C286.048 42.7412 285.828 42.7778 285.608 42.8512C285.394 42.9245 285.201 43.0345 285.028 43.1812C284.861 43.3278 284.724 43.5145 284.618 43.7412C284.518 43.9612 284.468 44.2212 284.468 44.5212C284.468 44.8212 284.518 45.0845 284.618 45.3112C284.724 45.5378 284.858 45.7278 285.018 45.8812C285.184 46.0345 285.371 46.1512 285.578 46.2312C285.791 46.3112 286.008 46.3512 286.228 46.3512C286.548 46.3512 286.848 46.2678 287.128 46.1012C287.414 45.9345 287.624 45.6812 287.758 45.3412H288.518C288.444 45.6278 288.331 45.8778 288.178 46.0912C288.024 46.3045 287.844 46.4812 287.638 46.6212C287.431 46.7612 287.204 46.8678 286.958 46.9412C286.718 47.0078 286.471 47.0412 286.218 47.0412C285.904 47.0412 285.594 46.9878 285.288 46.8812C284.988 46.7745 284.718 46.6178 284.478 46.4112C284.238 46.1978 284.044 45.9345 283.898 45.6212C283.751 45.3012 283.678 44.9345 283.678 44.5212C283.678 44.1012 283.751 43.7345 283.898 43.4212C284.051 43.1078 284.248 42.8512 284.488 42.6512C284.728 42.4445 285.001 42.2912 285.308 42.1912C285.614 42.0912 285.924 42.0412 286.238 42.0412C286.484 42.0412 286.724 42.0778 286.958 42.1512C287.191 42.2178 287.408 42.3178 287.608 42.4512C287.808 42.5778 287.981 42.7412 288.128 42.9412C288.281 43.1412 288.394 43.3712 288.468 43.6312H287.718ZM294.432 44.5312C294.432 44.9512 294.359 45.3178 294.212 45.6312C294.065 45.9445 293.872 46.2078 293.632 46.4212C293.392 46.6278 293.119 46.7845 292.812 46.8912C292.505 46.9912 292.192 47.0412 291.872 47.0412C291.559 47.0412 291.249 46.9878 290.942 46.8812C290.642 46.7745 290.372 46.6178 290.132 46.4112C289.899 46.1978 289.709 45.9378 289.562 45.6312C289.422 45.3178 289.352 44.9512 289.352 44.5312C289.352 44.1112 289.425 43.7445 289.572 43.4312C289.719 43.1178 289.912 42.8612 290.152 42.6612C290.392 42.4545 290.662 42.3012 290.962 42.2012C291.269 42.0945 291.582 42.0412 291.902 42.0412C292.222 42.0412 292.532 42.0945 292.832 42.2012C293.139 42.3012 293.409 42.4545 293.642 42.6612C293.882 42.8678 294.072 43.1278 294.212 43.4412C294.359 43.7478 294.432 44.1112 294.432 44.5312ZM290.142 44.5312C290.142 44.8378 290.192 45.1078 290.292 45.3412C290.392 45.5745 290.525 45.7678 290.692 45.9212C290.859 46.0745 291.045 46.1912 291.252 46.2712C291.465 46.3512 291.682 46.3912 291.902 46.3912C292.122 46.3912 292.335 46.3512 292.542 46.2712C292.755 46.1912 292.942 46.0745 293.102 45.9212C293.269 45.7678 293.402 45.5745 293.502 45.3412C293.602 45.1078 293.652 44.8378 293.652 44.5312C293.652 44.2245 293.602 43.9578 293.502 43.7312C293.402 43.5045 293.269 43.3178 293.102 43.1712C292.935 43.0178 292.745 42.9045 292.532 42.8312C292.325 42.7512 292.112 42.7112 291.892 42.7112C291.672 42.7112 291.455 42.7512 291.242 42.8312C291.035 42.9045 290.849 43.0178 290.682 43.1712C290.522 43.3178 290.392 43.5045 290.292 43.7312C290.192 43.9578 290.142 44.2245 290.142 44.5312ZM296.508 42.8112C296.655 42.5312 296.858 42.3345 297.118 42.2212C297.378 42.1012 297.662 42.0412 297.968 42.0412C298.388 42.0412 298.765 42.1612 299.098 42.4012L298.908 43.0612C298.755 42.9612 298.592 42.8845 298.418 42.8312C298.252 42.7712 298.075 42.7412 297.888 42.7412C297.715 42.7412 297.548 42.7712 297.388 42.8312C297.228 42.8912 297.085 42.9745 296.958 43.0812C296.838 43.1878 296.742 43.3212 296.668 43.4812C296.595 43.6345 296.558 43.8045 296.558 43.9912V46.9512H295.788V43.3012C295.788 43.1945 295.785 43.0978 295.778 43.0112C295.772 42.9178 295.748 42.8445 295.708 42.7912C295.675 42.7312 295.618 42.6878 295.538 42.6612C295.458 42.6345 295.348 42.6278 295.208 42.6412L295.198 42.1212C295.385 42.0878 295.555 42.0712 295.708 42.0712C295.868 42.0712 296.005 42.0945 296.118 42.1412C296.238 42.1878 296.332 42.2645 296.398 42.3712C296.465 42.4778 296.502 42.6245 296.508 42.8112ZM301.968 42.0412C302.795 42.0478 303.388 42.2812 303.748 42.7412C304.108 43.1945 304.222 43.8212 304.088 44.6212H300.278C300.265 44.9012 300.305 45.1512 300.398 45.3712C300.498 45.5845 300.635 45.7678 300.808 45.9212C300.982 46.0745 301.188 46.1912 301.428 46.2712C301.668 46.3512 301.925 46.3912 302.198 46.3912C302.478 46.3912 302.748 46.3612 303.008 46.3012C303.275 46.2412 303.548 46.1545 303.828 46.0412L303.948 46.6312C303.368 46.9045 302.778 47.0412 302.178 47.0412C301.778 47.0412 301.412 46.9812 301.078 46.8612C300.745 46.7412 300.458 46.5678 300.218 46.3412C299.978 46.1145 299.795 45.8412 299.668 45.5212C299.542 45.1945 299.485 44.8245 299.498 44.4112C299.512 44.0312 299.585 43.6945 299.718 43.4012C299.852 43.1078 300.028 42.8612 300.248 42.6612C300.475 42.4545 300.735 42.3012 301.028 42.2012C301.322 42.0945 301.635 42.0412 301.968 42.0412ZM301.968 42.6612C301.528 42.6612 301.158 42.7778 300.858 43.0112C300.558 43.2445 300.375 43.5812 300.308 44.0212H303.448C303.462 43.7945 303.432 43.5978 303.358 43.4312C303.285 43.2578 303.182 43.1145 303.048 43.0012C302.915 42.8878 302.755 42.8045 302.568 42.7512C302.382 42.6912 302.182 42.6612 301.968 42.6612Z" fill="#434343"/>
<path d="M262.416 63.3128L262.409 63.8167L255.051 80.0206L251.427 79.9746L257.552 66.3713L250.473 66.2813L250.513 63.1616L262.416 63.3128ZM267.205 66.3498L267.168 69.2296C267.745 69.1409 268.346 69.1005 268.994 69.1088C272.521 69.2256 275.335 70.6054 275.281 74.8531C275.244 77.8048 273.098 80.4898 269.33 80.4419C266.186 80.402 263.835 78.452 263.683 75.2578L266.827 75.2977C266.93 76.6672 267.882 77.2793 269.298 77.2973C271.05 77.3195 271.807 76.2491 271.825 74.8332C271.876 70.8255 266.8 71.7451 264.181 71.9999L264.291 63.3366L274.586 63.4673L274.548 66.4431L267.205 66.3498ZM284.381 63.3517C287.813 63.3953 290.594 65.5428 290.548 69.1665L290.474 74.926C290.428 78.5737 287.593 80.6739 284.161 80.6303C280.682 80.5861 277.901 78.4146 277.947 74.7669L278.021 69.0074C278.067 65.3837 280.901 63.3075 284.381 63.3517ZM284.201 77.4866C285.665 77.5051 286.851 76.7281 287.038 75.2664C287.091 74.859 287.12 74.4274 287.127 73.9234L287.175 70.1077C287.181 69.6278 287.163 69.1715 287.121 68.7389C286.972 67.2249 285.805 66.514 284.341 66.4954C282.805 66.4759 281.668 67.1576 281.481 68.6673C281.428 69.0987 281.398 69.5543 281.392 70.0343L281.343 73.85C281.337 74.3539 281.355 74.7862 281.398 75.1948C281.548 76.6608 282.665 77.467 284.201 77.4866Z" fill="#26CA82"/>
<path d="M252.579 95.3008C252.614 92.517 254.709 91.0075 256.917 91.0356C258.585 91.0567 260.243 91.8819 260.698 93.8438L258.934 93.8214C258.524 93.0001 257.857 92.6676 256.897 92.6554C255.325 92.6355 254.422 93.8241 254.403 95.324C254.382 96.9198 255.328 98.0239 256.828 98.043C257.98 98.0576 258.825 97.7083 259.201 96.453L256.909 96.4239L256.928 94.948L260.863 94.998C260.901 95.8025 260.868 96.5462 260.582 97.3106C259.924 98.9944 258.415 99.6953 256.808 99.6749C254.588 99.6467 252.543 98.0846 252.579 95.3008ZM270.392 95.527C270.359 98.0828 268.573 99.8243 266.029 99.792C263.785 99.7635 261.776 98.2498 261.812 95.4181C261.848 92.5863 263.943 91.1248 266.175 91.1531C268.371 91.181 270.427 92.7073 270.392 95.527ZM263.624 95.4411C263.601 97.2769 264.73 98.1313 266.074 98.1484C267.382 98.165 268.581 97.3402 268.604 95.5043C268.627 93.7165 267.462 92.8256 266.154 92.809C264.834 92.7922 263.647 93.6652 263.624 95.4411ZM279.977 95.6488C279.944 98.2045 278.158 99.946 275.614 99.9137C273.371 99.8852 271.362 98.3716 271.398 95.5398C271.433 92.708 273.528 91.2465 275.76 91.2749C277.956 91.3027 280.013 92.829 279.977 95.6488ZM273.209 95.5628C273.186 97.3987 274.315 98.2531 275.659 98.2701C276.967 98.2867 278.166 97.4619 278.189 95.626C278.212 93.8382 277.047 92.9473 275.739 92.9307C274.419 92.914 273.232 93.787 273.209 95.5628ZM281.516 91.48L284.636 91.5196C287.311 91.5536 288.725 93.5997 288.698 95.7355C288.707 97.8838 287.241 99.9413 284.529 99.9069L281.409 99.8673L281.516 91.48ZM283.218 98.2701L284.526 98.2867C286.074 98.3064 286.893 97.0687 286.91 95.7248C286.927 94.3809 286.115 93.1585 284.591 93.1391L283.283 93.1225L283.218 98.2701Z" fill="#26CA82"/>
<path d="M177.328 62.2808C177.537 62.0697 177.821 61.9512 178.117 61.9512C178.413 61.9512 178.696 62.0697 178.906 62.2808L185.232 68.6679C185.441 68.8793 185.558 69.1658 185.558 69.4645C185.558 69.7632 185.441 70.0496 185.232 70.261L178.906 76.6481C178.694 76.8475 178.414 76.9561 178.125 76.951C177.835 76.946 177.559 76.8277 177.355 76.6211C177.15 76.4144 177.033 76.1357 177.028 75.8435C177.023 75.5514 177.13 75.2687 177.328 75.0551L181.749 70.5916L170.674 70.5916C170.378 70.5916 170.094 70.4728 169.885 70.2615C169.676 70.0501 169.558 69.7634 169.558 69.4645C169.558 69.1655 169.676 68.8788 169.885 68.6675C170.094 68.4561 170.378 68.3373 170.674 68.3373L181.749 68.3373L177.328 63.8738C177.119 63.6625 177.001 63.376 177.001 63.0773C177.001 62.7786 177.119 62.4921 177.328 62.2808Z" fill="#5A5A5A"/>
<defs>
<filter id="filter0_d_1006_1592" x="0.955566" y="10.9473" width="168.475" height="169.068" filterUnits="userSpaceOnUse" color-interpolation-filters="sRGB">
<feFlood flood-opacity="0" result="BackgroundImageFix"/>
<feColorMatrix in="SourceAlpha" type="matrix" values="0 0 0 0 0 0 0 0 0 0 0 0 0 0 0 0 0 0 127 0" result="hardAlpha"/>
<feOffset dx="4" dy="25"/>
<feGaussianBlur stdDeviation="12.5"/>
<feComposite in2="hardAlpha" operator="out"/>
<feColorMatrix type="matrix" values="0 0 0 0 0.223529 0 0 0 0 0.505882 0 0 0 0 0.964706 0 0 0 0.13 0"/>
<feBlend mode="normal" in2="BackgroundImageFix" result="effect1_dropShadow_1006_1592"/>
<feBlend mode="normal" in="SourceGraphic" in2="effect1_dropShadow_1006_1592" result="shape"/>
</filter>
<filter id="filter1_d_1006_1592" x="11.957" y="0.947266" width="138.475" height="108.508" filterUnits="userSpaceOnUse" color-interpolation-filters="sRGB">
<feFlood flood-opacity="0" result="BackgroundImageFix"/>
<feColorMatrix in="SourceAlpha" type="matrix" values="0 0 0 0 0 0 0 0 0 0 0 0 0 0 0 0 0 0 127 0" result="hardAlpha"/>
<feOffset/>
<feGaussianBlur stdDeviation="3.5"/>
<feComposite in2="hardAlpha" operator="out"/>
<feColorMatrix type="matrix" values="0 0 0 0 0.223529 0 0 0 0 0.505882 0 0 0 0 0.964706 0 0 0 0.14 0"/>
<feBlend mode="normal" in2="BackgroundImageFix" result="effect1_dropShadow_1006_1592"/>
<feBlend mode="normal" in="SourceGraphic" in2="effect1_dropShadow_1006_1592" result="shape"/>
</filter>
<filter id="filter2_d_1006_1592" x="127.416" y="43.1689" width="16.3091" height="16.3086" filterUnits="userSpaceOnUse" color-interpolation-filters="sRGB">
<feFlood flood-opacity="0" result="BackgroundImageFix"/>
<feColorMatrix in="SourceAlpha" type="matrix" values="0 0 0 0 0 0 0 0 0 0 0 0 0 0 0 0 0 0 127 0" result="hardAlpha"/>
<feOffset dy="4"/>
<feGaussianBlur stdDeviation="2"/>
<feComposite in2="hardAlpha" operator="out"/>
<feColorMatrix type="matrix" values="0 0 0 0 0.223529 0 0 0 0 0.505882 0 0 0 0 0.964706 0 0 0 0.12 0"/>
<feBlend mode="normal" in2="BackgroundImageFix" result="effect1_dropShadow_1006_1592"/>
<feBlend mode="normal" in="SourceGraphic" in2="effect1_dropShadow_1006_1592" result="shape"/>
</filter>
<filter id="filter3_d_1006_1592" x="189.956" y="10.9473" width="168.475" height="169.068" filterUnits="userSpaceOnUse" color-interpolation-filters="sRGB">
<feFlood flood-opacity="0" result="BackgroundImageFix"/>
<feColorMatrix in="SourceAlpha" type="matrix" values="0 0 0 0 0 0 0 0 0 0 0 0 0 0 0 0 0 0 127 0" result="hardAlpha"/>
<feOffset dx="4" dy="25"/>
<feGaussianBlur stdDeviation="12.5"/>
<feComposite in2="hardAlpha" operator="out"/>
<feColorMatrix type="matrix" values="0 0 0 0 0.223529 0 0 0 0 0.505882 0 0 0 0 0.964706 0 0 0 0.13 0"/>
<feBlend mode="normal" in2="BackgroundImageFix" result="effect1_dropShadow_1006_1592"/>
<feBlend mode="normal" in="SourceGraphic" in2="effect1_dropShadow_1006_1592" result="shape"/>
</filter>
<filter id="filter4_d_1006_1592" x="200.957" y="0.947266" width="138.475" height="108.508" filterUnits="userSpaceOnUse" color-interpolation-filters="sRGB">
<feFlood flood-opacity="0" result="BackgroundImageFix"/>
<feColorMatrix in="SourceAlpha" type="matrix" values="0 0 0 0 0 0 0 0 0 0 0 0 0 0 0 0 0 0 127 0" result="hardAlpha"/>
<feOffset/>
<feGaussianBlur stdDeviation="3.5"/>
<feComposite in2="hardAlpha" operator="out"/>
<feColorMatrix type="matrix" values="0 0 0 0 0.223529 0 0 0 0 0.505882 0 0 0 0 0.964706 0 0 0 0.14 0"/>
<feBlend mode="normal" in2="BackgroundImageFix" result="effect1_dropShadow_1006_1592"/>
<feBlend mode="normal" in="SourceGraphic" in2="effect1_dropShadow_1006_1592" result="shape"/>
</filter>
<filter id="filter5_d_1006_1592" x="320.134" y="53.1348" width="16.3091" height="16.3086" filterUnits="userSpaceOnUse" color-interpolation-filters="sRGB">
<feFlood flood-opacity="0" result="BackgroundImageFix"/>
<feColorMatrix in="SourceAlpha" type="matrix" values="0 0 0 0 0 0 0 0 0 0 0 0 0 0 0 0 0 0 127 0" result="hardAlpha"/>
<feOffset dy="4"/>
<feGaussianBlur stdDeviation="2"/>
<feComposite in2="hardAlpha" operator="out"/>
<feColorMatrix type="matrix" values="0 0 0 0 0.223529 0 0 0 0 0.505882 0 0 0 0 0.964706 0 0 0 0.12 0"/>
<feBlend mode="normal" in2="BackgroundImageFix" result="effect1_dropShadow_1006_1592"/>
<feBlend mode="normal" in="SourceGraphic" in2="effect1_dropShadow_1006_1592" result="shape"/>
</filter>
<linearGradient id="paint0_linear_1006_1592" x1="29.3742" y1="98.6663" x2="130.337" y2="96.6269" gradientUnits="userSpaceOnUse">
<stop stop-color="#FF6556"/>
<stop offset="0.32" stop-color="#FDA472"/>
<stop offset="0.58" stop-color="#FFC671"/>
<stop offset="1" stop-color="#23CF79"/>
</linearGradient>
<linearGradient id="paint1_linear_1006_1592" x1="218.374" y1="98.6663" x2="319.337" y2="96.6269" gradientUnits="userSpaceOnUse">
<stop stop-color="#FF6556"/>
<stop offset="0.32" stop-color="#FDA472"/>
<stop offset="0.58" stop-color="#FFC671"/>
<stop offset="1" stop-color="#23CF79"/>
</linearGradient>
</defs>
</svg>
