<svg width="auto" height="auto" viewBox="0 0 360 315" fill="none" xmlns="http://www.w3.org/2000/svg">
<path d="M61.0083 248.365C61.083 248.962 61.3163 249.401 61.7083 249.681C62.1097 249.961 62.6043 250.101 63.1923 250.101C63.8737 250.101 64.4243 249.914 64.8443 249.541C65.2643 249.167 65.479 248.631 65.4883 247.931C65.4883 247.501 65.3857 247.133 65.1803 246.825C64.9843 246.517 64.723 246.279 64.3963 246.111C64.079 245.943 63.715 245.845 63.3043 245.817C62.903 245.779 62.497 245.817 62.0863 245.929V245.663L64.7743 242.191H60.4203V241.197H66.5803V241.379L63.7523 245.047C64.1537 245.037 64.527 245.107 64.8723 245.257C65.227 245.406 65.5303 245.616 65.7823 245.887C66.0343 246.148 66.2303 246.456 66.3703 246.811C66.5197 247.165 66.5943 247.539 66.5943 247.931C66.5943 248.397 66.515 248.827 66.3563 249.219C66.207 249.611 65.983 249.947 65.6843 250.227C65.395 250.507 65.0403 250.726 64.6203 250.885C64.2003 251.043 63.729 251.123 63.2063 251.123C62.7677 251.123 62.3617 251.062 61.9883 250.941C61.615 250.819 61.2837 250.642 60.9943 250.409C60.7143 250.175 60.4857 249.886 60.3083 249.541C60.131 249.195 60.0237 248.803 59.9863 248.365H61.0083ZM72.0007 241.071C72.5047 241.071 72.9714 241.15 73.4007 241.309C73.8394 241.458 74.2221 241.677 74.5487 241.967C74.8754 242.256 75.1321 242.611 75.3187 243.031C75.5054 243.441 75.5987 243.908 75.5987 244.431V247.791C75.5987 248.323 75.5054 248.794 75.3187 249.205C75.1321 249.615 74.8754 249.965 74.5487 250.255C74.2221 250.535 73.8394 250.749 73.4007 250.899C72.9714 251.048 72.5047 251.123 72.0007 251.123C71.4967 251.123 71.0207 251.048 70.5727 250.899C70.1341 250.749 69.7514 250.535 69.4247 250.255C69.0981 249.965 68.8414 249.615 68.6547 249.205C68.4681 248.794 68.3747 248.323 68.3747 247.791V244.431C68.3747 243.908 68.4681 243.441 68.6547 243.031C68.8414 242.611 69.0981 242.256 69.4247 241.967C69.7514 241.677 70.1341 241.458 70.5727 241.309C71.0207 241.15 71.4967 241.071 72.0007 241.071ZM72.0007 250.101C72.5607 250.101 73.0554 249.97 73.4847 249.709C73.9141 249.447 74.2034 249.065 74.3527 248.561C74.4554 248.253 74.5067 247.903 74.5067 247.511V244.711C74.5067 244.319 74.4554 243.969 74.3527 243.661C74.2034 243.157 73.9141 242.769 73.4847 242.499C73.0554 242.219 72.5607 242.079 72.0007 242.079C71.4127 242.079 70.9087 242.219 70.4887 242.499C70.0687 242.769 69.7841 243.157 69.6347 243.661C69.5321 243.969 69.4807 244.319 69.4807 244.711V247.511C69.4807 247.903 69.5321 248.253 69.6347 248.561C69.7841 249.065 70.0687 249.447 70.4887 249.709C70.9087 249.97 71.4127 250.101 72.0007 250.101ZM81.2156 241.071C81.7196 241.071 82.1862 241.15 82.6156 241.309C83.0542 241.458 83.4369 241.677 83.7636 241.967C84.0902 242.256 84.3469 242.611 84.5336 243.031C84.7202 243.441 84.8136 243.908 84.8136 244.431V247.791C84.8136 248.323 84.7202 248.794 84.5336 249.205C84.3469 249.615 84.0902 249.965 83.7636 250.255C83.4369 250.535 83.0542 250.749 82.6156 250.899C82.1862 251.048 81.7196 251.123 81.2156 251.123C80.7116 251.123 80.2356 251.048 79.7876 250.899C79.3489 250.749 78.9662 250.535 78.6396 250.255C78.3129 249.965 78.0562 249.615 77.8696 249.205C77.6829 248.794 77.5896 248.323 77.5896 247.791V244.431C77.5896 243.908 77.6829 243.441 77.8696 243.031C78.0562 242.611 78.3129 242.256 78.6396 241.967C78.9662 241.677 79.3489 241.458 79.7876 241.309C80.2356 241.15 80.7116 241.071 81.2156 241.071ZM81.2156 250.101C81.7756 250.101 82.2702 249.97 82.6996 249.709C83.1289 249.447 83.4182 249.065 83.5676 248.561C83.6702 248.253 83.7216 247.903 83.7216 247.511V244.711C83.7216 244.319 83.6702 243.969 83.5676 243.661C83.4182 243.157 83.1289 242.769 82.6996 242.499C82.2702 242.219 81.7756 242.079 81.2156 242.079C80.6276 242.079 80.1236 242.219 79.7036 242.499C79.2836 242.769 78.9989 243.157 78.8496 243.661C78.7469 243.969 78.6956 244.319 78.6956 244.711V247.511C78.6956 247.903 78.7469 248.253 78.8496 248.561C78.9989 249.065 79.2836 249.447 79.7036 249.709C80.1236 249.97 80.6276 250.101 81.2156 250.101Z" fill="#595959"/>
<path d="M263.906 251.997L266.496 248.091C266.309 248.193 266.104 248.273 265.88 248.329C265.656 248.385 265.437 248.413 265.222 248.413C264.737 248.422 264.284 248.361 263.864 248.231C263.444 248.091 263.08 247.885 262.772 247.615C262.464 247.344 262.221 247.013 262.044 246.621C261.867 246.229 261.778 245.781 261.778 245.277C261.778 244.745 261.871 244.283 262.058 243.891C262.254 243.489 262.511 243.153 262.828 242.883C263.155 242.612 263.533 242.411 263.962 242.281C264.401 242.141 264.867 242.071 265.362 242.071C265.847 242.071 266.305 242.141 266.734 242.281C267.173 242.411 267.551 242.612 267.868 242.883C268.195 243.153 268.451 243.489 268.638 243.891C268.834 244.283 268.932 244.745 268.932 245.277C268.923 245.669 268.867 246.023 268.764 246.341C268.661 246.658 268.503 246.975 268.288 247.293L265.194 251.997H263.906ZM265.362 243.079C265.026 243.079 264.709 243.13 264.41 243.233C264.111 243.326 263.855 243.466 263.64 243.653C263.425 243.839 263.253 244.073 263.122 244.353C263.001 244.623 262.94 244.931 262.94 245.277C262.94 245.631 263.001 245.949 263.122 246.229C263.253 246.499 263.425 246.728 263.64 246.915C263.864 247.101 264.125 247.246 264.424 247.349C264.723 247.442 265.04 247.489 265.376 247.489C265.712 247.489 266.025 247.442 266.314 247.349C266.613 247.246 266.869 247.101 267.084 246.915C267.299 246.728 267.467 246.499 267.588 246.229C267.719 245.949 267.784 245.631 267.784 245.277C267.784 244.931 267.719 244.623 267.588 244.353C267.467 244.073 267.294 243.839 267.07 243.653C266.855 243.466 266.599 243.326 266.3 243.233C266.011 243.13 265.698 243.079 265.362 243.079ZM274.069 242.071C274.573 242.071 275.04 242.15 275.469 242.309C275.908 242.458 276.29 242.677 276.617 242.967C276.944 243.256 277.2 243.611 277.387 244.031C277.574 244.441 277.667 244.908 277.667 245.431V248.791C277.667 249.323 277.574 249.794 277.387 250.205C277.2 250.615 276.944 250.965 276.617 251.255C276.29 251.535 275.908 251.749 275.469 251.899C275.04 252.048 274.573 252.123 274.069 252.123C273.565 252.123 273.089 252.048 272.641 251.899C272.202 251.749 271.82 251.535 271.493 251.255C271.166 250.965 270.91 250.615 270.723 250.205C270.536 249.794 270.443 249.323 270.443 248.791V245.431C270.443 244.908 270.536 244.441 270.723 244.031C270.91 243.611 271.166 243.256 271.493 242.967C271.82 242.677 272.202 242.458 272.641 242.309C273.089 242.15 273.565 242.071 274.069 242.071ZM274.069 251.101C274.629 251.101 275.124 250.97 275.553 250.709C275.982 250.447 276.272 250.065 276.421 249.561C276.524 249.253 276.575 248.903 276.575 248.511V245.711C276.575 245.319 276.524 244.969 276.421 244.661C276.272 244.157 275.982 243.769 275.553 243.499C275.124 243.219 274.629 243.079 274.069 243.079C273.481 243.079 272.977 243.219 272.557 243.499C272.137 243.769 271.852 244.157 271.703 244.661C271.6 244.969 271.549 245.319 271.549 245.711V248.511C271.549 248.903 271.6 249.253 271.703 249.561C271.852 250.065 272.137 250.447 272.557 250.709C272.977 250.97 273.481 251.101 274.069 251.101ZM283.284 242.071C283.788 242.071 284.255 242.15 284.684 242.309C285.123 242.458 285.505 242.677 285.832 242.967C286.159 243.256 286.415 243.611 286.602 244.031C286.789 244.441 286.882 244.908 286.882 245.431V248.791C286.882 249.323 286.789 249.794 286.602 250.205C286.415 250.615 286.159 250.965 285.832 251.255C285.505 251.535 285.123 251.749 284.684 251.899C284.255 252.048 283.788 252.123 283.284 252.123C282.78 252.123 282.304 252.048 281.856 251.899C281.417 251.749 281.035 251.535 280.708 251.255C280.381 250.965 280.125 250.615 279.938 250.205C279.751 249.794 279.658 249.323 279.658 248.791V245.431C279.658 244.908 279.751 244.441 279.938 244.031C280.125 243.611 280.381 243.256 280.708 242.967C281.035 242.677 281.417 242.458 281.856 242.309C282.304 242.15 282.78 242.071 283.284 242.071ZM283.284 251.101C283.844 251.101 284.339 250.97 284.768 250.709C285.197 250.447 285.487 250.065 285.636 249.561C285.739 249.253 285.79 248.903 285.79 248.511V245.711C285.79 245.319 285.739 244.969 285.636 244.661C285.487 244.157 285.197 243.769 284.768 243.499C284.339 243.219 283.844 243.079 283.284 243.079C282.696 243.079 282.192 243.219 281.772 243.499C281.352 243.769 281.067 244.157 280.918 244.661C280.815 244.969 280.764 245.319 280.764 245.711V248.511C280.764 248.903 280.815 249.253 280.918 249.561C281.067 250.065 281.352 250.447 281.772 250.709C282.192 250.97 282.696 251.101 283.284 251.101Z" fill="#595959"/>
<path d="M66.8552 230.766C56.9778 212.193 52.0981 191.371 52.695 170.343C53.2918 149.315 59.3446 128.803 70.2596 110.82C81.1746 92.8369 96.5769 77.9999 114.955 67.7646C133.334 57.5293 154.058 52.2474 175.093 52.4369C196.129 52.6264 216.754 58.2809 234.945 68.8456C253.136 79.4103 268.269 94.5224 278.858 112.699C289.447 130.876 295.13 151.494 295.347 172.529C295.565 193.564 290.311 214.295 280.101 232.687L232.742 206.396C238.395 196.213 241.303 184.736 241.183 173.09C241.062 161.444 237.916 150.029 232.054 139.966C226.191 129.902 217.813 121.536 207.742 115.687C197.67 109.838 186.251 106.707 174.605 106.602C162.959 106.497 151.486 109.422 141.311 115.088C131.136 120.755 122.608 128.969 116.565 138.926C110.522 148.882 107.171 160.238 106.841 171.88C106.51 183.522 109.212 195.05 114.68 205.333L66.8552 230.766Z" fill="#ECF1FD"/>
<g filter="url(#filter0_d_55_2446)">
<ellipse cx="174.393" cy="173.85" rx="105.528" ry="105" transform="rotate(88.1152 174.393 173.85)" fill="white"/>
</g>
<g filter="url(#filter1_d_55_2446)">
<path d="M266.158 225.206C275.138 209.028 279.992 190.264 279.339 170.396C277.422 112.147 228.883 66.4719 170.925 68.3792C112.966 70.2865 67.5354 119.053 69.4523 177.303C70.0003 193.955 74.3584 209.58 81.6576 223.359" stroke="url(#paint0_linear_55_2446)" stroke-width="6" stroke-linecap="round"/>
</g>
<g filter="url(#filter2_d_55_2446)">
<circle cx="270.78" cy="132.801" r="7.36385" transform="rotate(88.1152 270.78 132.801)" fill="#008A00"/>
<circle cx="270.78" cy="132.801" r="6.36385" transform="rotate(88.1152 270.78 132.801)" stroke="white" stroke-width="2"/>
</g>
<g clip-path="url(#clip0_55_2446)">
<path d="M200.754 148.364C206.473 148.248 211.223 151.673 211.345 157.712L211.539 167.31C211.661 173.389 207.054 177.042 201.335 177.158C195.537 177.275 190.786 173.81 190.663 167.731L190.469 158.133C190.347 152.095 194.955 148.481 200.754 148.364ZM201.23 171.919C203.669 171.87 205.602 170.51 205.833 168.065C205.899 167.384 205.924 166.663 205.907 165.823L205.779 159.464C205.763 158.665 205.707 157.906 205.613 157.187C205.282 154.674 203.299 153.553 200.86 153.603C198.3 153.654 196.444 154.852 196.215 157.377C196.149 158.099 196.125 158.859 196.141 159.659L196.269 166.018C196.286 166.858 196.341 167.577 196.435 168.255C196.764 170.689 198.67 171.971 201.23 171.919ZM199.373 205.483L195.214 205.567L195.12 200.888L204.998 200.689L205.47 224.084L210.309 223.986L210.402 228.585L195.125 228.894L195.032 224.295L199.751 224.199L199.373 205.483ZM205.874 260.843C205.947 258.521 204.364 257.393 202.725 257.426C201.125 257.458 199.262 258.296 199.317 261.056L194.198 261.159C194.088 255.68 197.302 252.415 202.781 252.304C210.7 252.144 213.861 260.082 208.451 267.593C207.635 268.769 206.437 270.874 202.971 275.545L212.089 275.361L212.194 280.56L194.237 280.922L194.212 279.643L203.848 265.525C204.82 264.105 205.787 262.485 205.874 260.843ZM194.439 324.727L199.677 324.621C199.885 326.978 201.507 328.025 203.906 327.977C206.506 327.924 208.111 326.211 208.1 323.651C207.889 319.174 203.717 318.619 200.131 319.331L200.114 318.491L205.093 309.509L195.215 309.708L195.119 304.949L212.916 304.59L212.933 305.43L207.051 315.311C211.545 315.98 213.659 319.618 213.738 323.497C213.838 328.456 210.409 333.006 204.09 333.134C198.851 333.24 194.748 330.122 194.439 324.727ZM212.809 379.007L212.922 384.566L207.523 384.675L207.41 379.116L194.333 379.38L194.281 376.781L206.157 356.697L212.356 356.572L212.711 374.168L215.311 374.116L215.409 378.955L212.809 379.007ZM207.732 363.347L207.692 363.347L200.998 374.605L207.677 374.47L207.569 369.151L207.732 363.347ZM202.24 413.748L202.337 418.547C203.293 418.367 204.291 418.267 205.371 418.246C211.252 418.247 216.017 420.391 216.16 427.47C216.259 432.389 212.831 436.979 206.552 437.105C201.313 437.211 197.29 434.092 196.862 428.779L202.101 428.674C202.347 430.949 203.967 431.917 206.327 431.869C209.246 431.81 210.449 429.985 210.402 427.626C210.267 420.947 201.862 422.757 197.512 423.325L197.221 408.888L214.377 408.542L214.477 413.501L202.24 413.748ZM206.597 460.509L213.156 460.377L206.97 471.024C207.405 470.775 207.882 470.645 208.402 470.635C214.037 470.321 218.066 473.72 218.183 479.479C218.312 485.878 213.733 488.971 207.775 489.091C201.816 489.212 197.196 486.304 197.067 479.906C197.026 477.866 197.7 475.612 198.745 473.871L206.597 460.509ZM207.672 484.012C210.551 483.954 212.281 482.439 212.224 479.6C212.166 476.72 210.374 475.156 207.494 475.214C204.615 475.272 202.848 476.908 202.906 479.788C202.958 482.387 204.793 484.071 207.672 484.012ZM218.555 512.478L218.572 513.318L207.203 540.713L201.164 540.835L210.622 517.84L198.824 518.078L198.719 512.879L218.555 512.478ZM215.653 576.71C218.365 578.256 219.976 580.784 220.077 583.782C220.294 588.619 216.461 592.937 209.742 593.073C202.983 593.209 199.059 589.088 198.962 584.289C198.901 581.249 200.447 578.578 203.135 576.923C201.63 575.713 200.596 574.054 200.515 572.015C200.314 568.018 203.482 564.393 209.16 564.279C214.799 564.165 218.029 567.58 218.109 571.54C218.15 573.579 217.187 575.399 215.653 576.71ZM209.379 575.077C211.498 575.034 212.91 573.645 212.875 571.885C212.84 570.166 211.334 568.916 209.255 568.958C207.055 569.002 205.682 570.35 205.717 572.07C205.753 573.83 207.259 575.119 209.379 575.077ZM209.642 588.114C212.481 588.057 214.323 586.139 214.274 583.699C214.223 581.18 212.305 579.338 209.466 579.396C206.586 579.454 204.787 581.491 204.838 584.01C204.886 586.41 206.802 588.171 209.642 588.114ZM211.097 644.656L204.578 644.788L211.049 634.375C210.613 634.584 210.016 634.756 209.496 634.766C203.742 635.083 199.675 631.804 199.556 625.925C199.427 619.527 204.004 616.394 209.963 616.273C215.882 616.154 220.582 619.099 220.712 625.498C220.72 627.898 220.117 629.711 218.916 631.695L211.097 644.656ZM210.066 621.352C207.186 621.41 205.417 622.966 205.475 625.806C205.533 628.685 207.365 630.248 210.244 630.19C213.124 630.132 214.851 628.497 214.793 625.618C214.735 622.778 212.945 621.294 210.066 621.352ZM211.255 668.258C216.974 668.142 221.724 671.567 221.846 677.606L222.04 687.204C222.163 693.282 217.556 696.936 211.837 697.052C206.038 697.169 201.287 693.704 201.164 687.625L200.97 678.027C200.848 671.989 205.456 668.375 211.255 668.258ZM211.731 691.813C214.171 691.764 216.103 690.404 216.334 687.959C216.4 687.278 216.426 686.557 216.409 685.717L216.28 679.358C216.264 678.559 216.209 677.8 216.114 677.081C215.784 674.567 213.801 673.447 211.361 673.497C208.802 673.548 206.945 674.746 206.716 677.271C206.651 677.993 206.626 678.753 206.642 679.553L206.771 685.912C206.788 686.752 206.842 687.471 206.936 688.149C207.265 690.583 209.172 691.865 211.731 691.813ZM209.875 725.377L205.716 725.461L205.621 720.782L215.499 720.583L215.972 743.978L220.811 743.88L220.904 748.479L205.627 748.788L205.534 744.189L210.253 744.093L209.875 725.377ZM216.376 780.737C216.449 778.415 214.866 777.287 213.226 777.32C211.626 777.352 209.763 778.19 209.819 780.95L204.7 781.053C204.589 775.574 207.804 772.309 213.283 772.198C221.201 772.038 224.362 779.976 218.953 787.487C218.136 788.663 216.938 790.768 213.472 795.439L222.59 795.255L222.695 800.454L204.739 800.816L204.713 799.537L214.35 785.419C215.321 783.999 216.289 782.379 216.376 780.737ZM204.94 844.621L210.179 844.515C210.387 846.872 212.008 847.919 214.408 847.871C217.007 847.818 218.613 846.105 218.601 843.545C218.391 839.068 214.219 838.513 210.632 839.225L210.615 838.385L215.595 829.403L205.717 829.602L205.621 824.843L223.417 824.484L223.434 825.324L217.552 835.205C222.047 835.874 224.161 839.512 224.239 843.391C224.339 848.35 220.91 852.9 214.592 853.028C209.353 853.134 205.249 850.016 204.94 844.621ZM223.311 898.901L223.423 904.46L218.024 904.569L217.912 899.01L204.835 899.274L204.782 896.675L216.659 876.591L222.858 876.466L223.213 894.062L225.812 894.01L225.91 898.849L223.311 898.901ZM218.233 883.241L218.193 883.241L211.499 894.499L218.178 894.364L218.071 889.045L218.233 883.241ZM212.741 933.642L212.838 938.441C213.795 938.261 214.793 938.161 215.873 938.139C221.754 938.141 226.518 940.285 226.661 947.363C226.761 952.282 223.333 956.873 217.054 956.999C211.815 957.105 207.791 953.986 207.364 948.673L212.603 948.568C212.849 950.843 214.469 951.811 216.828 951.763C219.747 951.704 220.951 949.879 220.903 947.52C220.768 940.841 212.363 942.651 208.014 943.219L207.722 928.782L224.879 928.436L224.979 933.395L212.741 933.642ZM217.099 980.403L223.657 980.271L217.471 990.918C217.906 990.669 218.384 990.539 218.904 990.529C224.538 990.215 228.568 993.614 228.684 999.373C228.813 1005.77 224.235 1008.86 218.276 1008.99C212.317 1009.11 207.698 1006.2 207.568 999.8C207.527 997.76 208.202 995.506 209.247 993.765L217.099 980.403ZM218.174 1003.91C221.053 1003.85 222.783 1002.33 222.725 999.494C222.667 996.614 220.875 995.05 217.996 995.108C215.116 995.166 213.349 996.802 213.407 999.682C213.46 1002.28 215.294 1003.96 218.174 1003.91ZM229.056 1032.37L229.073 1033.21L217.704 1060.61L211.666 1060.73L221.123 1037.73L209.326 1037.97L209.221 1032.77L229.056 1032.37ZM226.154 1096.6C228.866 1098.15 230.477 1100.68 230.578 1103.68C230.796 1108.51 226.962 1112.83 220.244 1112.97C213.485 1113.1 209.561 1108.98 209.464 1104.18C209.403 1101.14 210.949 1098.47 213.636 1096.82C212.131 1095.61 211.098 1093.95 211.016 1091.91C210.816 1087.91 213.983 1084.29 219.662 1084.17C225.301 1084.06 228.53 1087.47 228.61 1091.43C228.652 1093.47 227.688 1095.29 226.154 1096.6ZM219.88 1094.97C222 1094.93 223.412 1093.54 223.376 1091.78C223.342 1090.06 221.836 1088.81 219.756 1088.85C217.557 1088.9 216.184 1090.24 216.219 1091.96C216.254 1093.72 217.76 1095.01 219.88 1094.97ZM220.143 1108.01C222.983 1107.95 224.824 1106.03 224.775 1103.59C224.724 1101.07 222.807 1099.23 219.967 1099.29C217.088 1099.35 215.289 1101.38 215.34 1103.9C215.388 1106.3 217.304 1108.07 220.143 1108.01ZM221.598 1164.55L215.079 1164.68L221.55 1154.27C221.115 1154.48 220.518 1154.65 219.998 1154.66C214.243 1154.98 210.176 1151.7 210.057 1145.82C209.928 1139.42 214.506 1136.29 220.465 1136.17C226.383 1136.05 231.084 1138.99 231.213 1145.39C231.222 1147.79 230.618 1149.6 229.418 1151.59L221.598 1164.55ZM220.567 1141.25C217.688 1141.3 215.919 1142.86 215.976 1145.7C216.034 1148.58 217.866 1150.14 220.746 1150.08C223.625 1150.03 225.352 1148.39 225.294 1145.51C225.237 1142.67 223.447 1141.19 220.567 1141.25ZM221.757 1188.15C227.476 1188.04 232.226 1191.46 232.348 1197.5L232.542 1207.1C232.664 1213.18 228.057 1216.83 222.338 1216.95C216.54 1217.06 211.789 1213.6 211.666 1207.52L211.472 1197.92C211.35 1191.88 215.958 1188.27 221.757 1188.15ZM222.233 1211.71C224.672 1211.66 226.605 1210.3 226.836 1207.85C226.902 1207.17 226.927 1206.45 226.91 1205.61L226.782 1199.25C226.766 1198.45 226.71 1197.69 226.616 1196.98C226.285 1194.46 224.302 1193.34 221.863 1193.39C219.303 1193.44 217.447 1194.64 217.218 1197.17C217.152 1197.89 217.128 1198.65 217.144 1199.45L217.272 1205.81C217.289 1206.65 217.344 1207.36 217.438 1208.04C217.767 1210.48 219.673 1211.76 222.233 1211.71ZM220.376 1245.27L216.217 1245.36L216.123 1240.68L226.001 1240.48L226.473 1263.87L231.312 1263.77L231.405 1268.37L216.128 1268.68L216.035 1264.08L220.754 1263.99L220.376 1245.27ZM226.877 1300.63C226.95 1298.31 225.367 1297.18 223.728 1297.21C222.128 1297.25 220.265 1298.08 220.32 1300.84L215.201 1300.95C215.091 1295.47 218.305 1292.2 223.784 1292.09C231.703 1291.93 234.864 1299.87 229.454 1307.38C228.638 1308.56 227.44 1310.66 223.974 1315.33L233.092 1315.15L233.197 1320.35L215.24 1320.71L215.215 1319.43L224.851 1305.31C225.823 1303.89 226.79 1302.27 226.877 1300.63ZM215.442 1364.52L220.68 1364.41C220.888 1366.77 222.51 1367.81 224.909 1367.76C227.509 1367.71 229.114 1366 229.103 1363.44C228.892 1358.96 224.72 1358.41 221.134 1359.12L221.117 1358.28L226.096 1349.3L216.218 1349.5L216.122 1344.74L233.919 1344.38L233.936 1345.22L228.054 1355.1C232.548 1355.77 234.662 1359.41 234.741 1363.29C234.841 1368.24 231.412 1372.79 225.093 1372.92C219.854 1373.03 215.751 1369.91 215.442 1364.52ZM233.812 1418.8L233.925 1424.35L228.526 1424.46L228.413 1418.9L215.336 1419.17L215.284 1416.57L227.16 1396.48L233.359 1396.36L233.715 1413.96L236.314 1413.9L236.412 1418.74L233.812 1418.8ZM228.735 1403.13L228.695 1403.14L222.001 1414.39L228.68 1414.26L228.572 1408.94L228.735 1403.13ZM223.243 1453.54L223.34 1458.33C224.296 1458.16 225.294 1458.06 226.374 1458.03C232.255 1458.03 237.02 1460.18 237.163 1467.26C237.262 1472.18 233.834 1476.77 227.555 1476.89C222.316 1477 218.293 1473.88 217.865 1468.57L223.104 1468.46C223.35 1470.74 224.97 1471.7 227.33 1471.66C230.249 1471.6 231.452 1469.77 231.405 1467.41C231.27 1460.74 222.865 1462.55 218.515 1463.11L218.224 1448.68L235.38 1448.33L235.48 1453.29L223.243 1453.54ZM227.6 1500.3L234.159 1500.16L227.973 1510.81C228.408 1510.56 228.885 1510.43 229.405 1510.42C235.04 1510.11 239.069 1513.51 239.186 1519.27C239.315 1525.67 234.736 1528.76 228.778 1528.88C222.819 1529 218.199 1526.09 218.07 1519.69C218.029 1517.65 218.703 1515.4 219.748 1513.66L227.6 1500.3ZM228.675 1523.8C231.555 1523.74 233.284 1522.23 233.227 1519.39C233.169 1516.51 231.377 1514.94 228.497 1515C225.618 1515.06 223.851 1516.7 223.909 1519.58C223.961 1522.18 225.796 1523.86 228.675 1523.8ZM239.558 1552.27L239.575 1553.11L228.206 1580.5L222.167 1580.62L231.625 1557.63L219.827 1557.87L219.722 1552.67L239.558 1552.27ZM236.656 1616.5C239.368 1618.04 240.979 1620.57 241.08 1623.57C241.297 1628.41 237.464 1632.73 230.745 1632.86C223.986 1633 220.062 1628.88 219.965 1624.08C219.904 1621.04 221.45 1618.37 224.138 1616.71C222.633 1615.5 221.599 1613.84 221.518 1611.8C221.317 1607.81 224.485 1604.18 230.163 1604.07C235.802 1603.95 239.032 1607.37 239.112 1611.33C239.153 1613.37 238.19 1615.19 236.656 1616.5ZM230.382 1614.86C232.501 1614.82 233.913 1613.43 233.878 1611.67C233.843 1609.95 232.338 1608.7 230.258 1608.75C228.058 1608.79 226.685 1610.14 226.72 1611.86C226.756 1613.62 228.262 1614.91 230.382 1614.86ZM230.645 1627.9C233.484 1627.84 235.326 1625.93 235.277 1623.49C235.226 1620.97 233.308 1619.13 230.469 1619.18C227.589 1619.24 225.79 1621.28 225.841 1623.8C225.889 1626.2 227.805 1627.96 230.645 1627.9ZM232.1 1684.44L225.581 1684.58L232.052 1674.16C231.616 1674.37 231.019 1674.54 230.5 1674.55C224.745 1674.87 220.678 1671.59 220.559 1665.71C220.43 1659.31 225.007 1656.18 230.966 1656.06C236.885 1655.94 241.585 1658.89 241.715 1665.29C241.723 1667.69 241.12 1669.5 239.919 1671.48L232.1 1684.44ZM231.069 1661.14C228.189 1661.2 226.42 1662.75 226.478 1665.59C226.536 1668.47 228.368 1670.04 231.247 1669.98C234.127 1669.92 235.854 1668.28 235.796 1665.41C235.738 1662.57 233.948 1661.08 231.069 1661.14ZM232.258 1708.05C237.977 1707.93 242.727 1711.35 242.849 1717.39L243.043 1726.99C243.166 1733.07 238.559 1736.72 232.84 1736.84C227.041 1736.96 222.29 1733.49 222.167 1727.41L221.973 1717.82C221.851 1711.78 226.459 1708.16 232.258 1708.05ZM232.734 1731.6C235.174 1731.55 237.107 1730.19 237.337 1727.75C237.403 1727.07 237.429 1726.34 237.412 1725.51L237.283 1719.15C237.267 1718.35 237.212 1717.59 237.117 1716.87C236.787 1714.36 234.804 1713.24 232.364 1713.28C229.805 1713.34 227.948 1714.53 227.719 1717.06C227.654 1717.78 227.629 1718.54 227.645 1719.34L227.774 1725.7C227.791 1726.54 227.845 1727.26 227.939 1727.94C228.268 1730.37 230.175 1731.65 232.734 1731.6ZM230.878 1765.17L226.719 1765.25L226.624 1760.57L236.502 1760.37L236.975 1783.77L241.814 1783.67L241.907 1788.27L226.63 1788.58L226.537 1783.98L231.256 1783.88L230.878 1765.17ZM237.379 1820.53C237.452 1818.2 235.869 1817.07 234.229 1817.11C232.629 1817.14 230.766 1817.98 230.822 1820.74L225.703 1820.84C225.592 1815.36 228.807 1812.1 234.286 1811.99C242.204 1811.83 245.365 1819.76 239.956 1827.27C239.139 1828.45 237.942 1830.56 234.475 1835.23L243.593 1835.04L243.698 1840.24L225.742 1840.6L225.716 1839.32L235.353 1825.21C236.324 1823.79 237.292 1822.17 237.379 1820.53ZM225.943 1884.41L231.182 1884.3C231.39 1886.66 233.011 1887.71 235.411 1887.66C238.01 1887.61 239.616 1885.89 239.604 1883.33C239.394 1878.86 235.222 1878.3 231.635 1879.01L231.618 1878.17L236.598 1869.19L226.72 1869.39L226.624 1864.63L244.42 1864.27L244.437 1865.11L238.555 1874.99C243.05 1875.66 245.164 1879.3 245.242 1883.18C245.342 1888.14 241.913 1892.69 235.595 1892.82C230.356 1892.92 226.252 1889.8 225.943 1884.41ZM244.314 1938.69L244.426 1944.25L239.027 1944.36L238.915 1938.8L225.838 1939.06L225.785 1936.46L237.662 1916.38L243.861 1916.25L244.216 1933.85L246.815 1933.8L246.913 1938.64L244.314 1938.69ZM239.236 1923.03L239.196 1923.03L232.502 1934.29L239.181 1934.15L239.074 1928.83L239.236 1923.03ZM233.744 1973.43L233.841 1978.23C234.798 1978.05 235.796 1977.95 236.876 1977.93C242.757 1977.93 247.521 1980.07 247.664 1987.15C247.764 1992.07 244.336 1996.66 238.057 1996.79C232.818 1996.89 228.794 1993.77 228.367 1988.46L233.606 1988.36C233.852 1990.63 235.472 1991.6 237.831 1991.55C240.75 1991.49 241.954 1989.67 241.906 1987.31C241.771 1980.63 233.366 1982.44 229.017 1983.01L228.725 1968.57L245.882 1968.22L245.982 1973.18L233.744 1973.43ZM238.102 2020.19L244.66 2020.06L238.474 2030.71C238.909 2030.46 239.387 2030.33 239.907 2030.32C245.541 2030 249.571 2033.4 249.687 2039.16C249.816 2045.56 245.238 2048.65 239.279 2048.77C233.32 2048.89 228.701 2045.99 228.572 2039.59C228.53 2037.55 229.205 2035.29 230.25 2033.55L238.102 2020.19ZM239.177 2043.69C242.056 2043.64 243.786 2042.12 243.728 2039.28C243.67 2036.4 241.878 2034.84 238.999 2034.9C236.119 2034.95 234.352 2036.59 234.41 2039.47C234.463 2042.07 236.297 2043.75 239.177 2043.69ZM250.059 2072.16L250.076 2073L238.707 2100.4L232.669 2100.52L242.126 2077.52L230.329 2077.76L230.224 2072.56L250.059 2072.16ZM247.157 2136.39C249.869 2137.94 251.48 2140.47 251.581 2143.46C251.799 2148.3 247.965 2152.62 241.247 2152.75C234.488 2152.89 230.564 2148.77 230.467 2143.97C230.406 2140.93 231.952 2138.26 234.639 2136.6C233.134 2135.39 232.101 2133.74 232.019 2131.7C231.819 2127.7 234.986 2124.08 240.665 2123.96C246.304 2123.85 249.533 2127.26 249.613 2131.22C249.655 2133.26 248.691 2135.08 247.157 2136.39ZM240.883 2134.76C243.003 2134.72 244.415 2133.33 244.379 2131.57C244.345 2129.85 242.839 2128.6 240.759 2128.64C238.56 2128.68 237.187 2130.03 237.222 2131.75C237.257 2133.51 238.763 2134.8 240.883 2134.76ZM241.146 2147.8C243.986 2147.74 245.827 2145.82 245.778 2143.38C245.727 2140.86 243.81 2139.02 240.97 2139.08C238.091 2139.14 236.292 2141.17 236.343 2143.69C236.391 2146.09 238.307 2147.85 241.146 2147.8ZM242.601 2204.34L236.082 2204.47L242.553 2194.06C242.118 2194.27 241.521 2194.44 241.001 2194.45C235.246 2194.76 231.179 2191.49 231.06 2185.61C230.931 2179.21 235.509 2176.08 241.468 2175.95C247.386 2175.84 252.087 2178.78 252.216 2185.18C252.225 2187.58 251.621 2189.39 250.421 2191.38L242.601 2204.34ZM241.57 2181.03C238.691 2181.09 236.922 2182.65 236.979 2185.49C237.037 2188.37 238.869 2189.93 241.749 2189.87C244.628 2189.81 246.355 2188.18 246.297 2185.3C246.24 2182.46 244.45 2180.98 241.57 2181.03ZM242.76 2227.94C248.479 2227.82 253.229 2231.25 253.351 2237.29L253.545 2246.89C253.667 2252.96 249.06 2256.62 243.341 2256.73C237.543 2256.85 232.792 2253.39 232.669 2247.31L232.475 2237.71C232.353 2231.67 236.961 2228.06 242.76 2227.94ZM243.236 2251.49C245.675 2251.45 247.608 2250.09 247.839 2247.64C247.905 2246.96 247.93 2246.24 247.913 2245.4L247.785 2239.04C247.769 2238.24 247.713 2237.48 247.619 2236.76C247.288 2234.25 245.305 2233.13 242.866 2233.18C240.306 2233.23 238.45 2234.43 238.221 2236.95C238.155 2237.67 238.131 2238.44 238.147 2239.23L238.275 2245.59C238.292 2246.43 238.347 2247.15 238.441 2247.83C238.77 2250.26 240.676 2251.55 243.236 2251.49Z" fill="#F26842"/>
<path d="M161.877 -313.866L157.718 -313.782L157.624 -318.461L167.502 -318.66L167.974 -295.265L172.813 -295.363L172.906 -290.764L157.629 -290.455L157.536 -295.054L162.255 -295.149L161.877 -313.866ZM168.378 -258.506C168.451 -260.827 166.868 -261.956 165.229 -261.923C163.629 -261.89 161.766 -261.052 161.821 -258.293L156.702 -258.19C156.592 -263.669 159.806 -266.934 165.285 -267.045C173.204 -267.205 176.365 -259.267 170.955 -251.756C170.139 -250.579 168.941 -248.475 165.475 -243.804L174.593 -243.988L174.698 -238.789L156.741 -238.426L156.716 -239.706L166.352 -253.824C167.324 -255.244 168.291 -256.863 168.378 -258.506ZM156.943 -194.622L162.181 -194.727C162.389 -192.371 164.011 -191.324 166.41 -191.372C169.01 -191.425 170.615 -193.137 170.604 -195.698C170.393 -200.174 166.221 -200.73 162.635 -200.018L162.618 -200.857L167.597 -209.84L157.719 -209.64L157.623 -214.399L175.42 -214.759L175.437 -213.919L169.555 -204.038C174.049 -203.369 176.163 -199.731 176.242 -195.852C176.342 -190.893 172.913 -186.342 166.594 -186.215C161.355 -186.109 157.252 -189.227 156.943 -194.622ZM175.313 -140.341L175.426 -134.783L170.027 -134.674L169.914 -140.232L156.837 -139.968L156.785 -142.568L168.661 -162.652L174.86 -162.777L175.216 -145.18L177.815 -145.233L177.913 -140.394L175.313 -140.341ZM170.236 -156.002L170.196 -156.001L163.502 -144.744L170.181 -144.879L170.073 -150.198L170.236 -156.002ZM164.744 -105.601L164.841 -100.802C165.797 -100.981 166.795 -101.081 167.875 -101.103C173.756 -101.102 178.521 -98.9578 178.664 -91.8793C178.763 -86.9603 175.335 -82.3701 169.056 -82.2433C163.817 -82.1375 159.794 -85.2568 159.366 -90.5693L164.605 -90.6751C164.851 -88.3996 166.471 -87.4321 168.831 -87.4798C171.75 -87.5388 172.953 -89.3634 172.906 -91.7229C172.771 -98.4016 164.366 -96.5915 160.016 -96.0235L159.725 -110.461L176.881 -110.807L176.981 -105.848L164.744 -105.601ZM169.101 -58.8394L175.66 -58.9719L169.474 -48.3248C169.909 -48.5736 170.386 -48.7033 170.906 -48.7138C176.541 -49.0277 180.57 -45.6283 180.687 -39.8695C180.816 -33.4708 176.237 -30.3777 170.279 -30.2574C164.32 -30.137 159.7 -33.0443 159.571 -39.443C159.53 -41.4826 160.204 -43.7367 161.249 -45.4781L169.101 -58.8394ZM170.176 -35.3363C173.056 -35.3945 174.785 -36.9097 174.728 -39.7491C174.67 -42.6286 172.878 -44.1927 169.998 -44.1345C167.119 -44.0764 165.352 -42.4403 165.41 -39.5609C165.462 -36.9615 167.297 -35.2782 170.176 -35.3363ZM181.059 -6.8703L181.076 -6.03047L169.707 21.3647L163.668 21.4867L173.126 -1.50899L161.328 -1.27069L161.223 -6.46963L181.059 -6.8703ZM178.157 57.3614C180.869 58.907 182.48 61.4349 182.581 64.4335C182.798 69.2701 178.965 73.5884 172.246 73.7241C165.487 73.8606 161.563 69.739 161.466 64.94C161.405 61.9006 162.951 59.2289 165.639 57.5743C164.134 56.3644 163.1 54.7049 163.019 52.6662C162.818 48.6694 165.986 45.0447 171.664 44.93C177.303 44.8161 180.533 48.2316 180.613 52.1908C180.654 54.2303 179.691 56.0502 178.157 57.3614ZM171.883 55.7278C174.002 55.685 175.414 54.2962 175.379 52.5365C175.344 50.8169 173.839 49.567 171.759 49.609C169.559 49.6535 168.186 51.0015 168.221 52.7211C168.257 54.4808 169.763 55.7706 171.883 55.7278ZM172.146 68.7651C174.985 68.7078 176.827 66.7902 176.778 64.3507C176.727 61.8312 174.809 59.9896 171.97 60.0469C169.09 60.1051 167.291 62.1418 167.342 64.6613C167.39 67.0608 169.306 68.8225 172.146 68.7651ZM173.601 125.307L167.082 125.439L173.553 115.026C173.117 115.235 172.52 115.407 172.001 115.418C166.246 115.734 162.179 112.455 162.06 106.577C161.931 100.178 166.508 97.0447 172.467 96.9244C178.386 96.8048 183.086 99.7505 183.216 106.149C183.224 108.55 182.621 110.362 181.42 112.347L173.601 125.307ZM172.57 102.003C169.69 102.062 167.921 103.618 167.979 106.457C168.037 109.336 169.869 110.9 172.748 110.842C175.628 110.783 177.355 109.148 177.297 106.269C177.239 103.429 175.449 101.945 172.57 102.003ZM173.759 148.909C179.478 148.793 184.228 152.218 184.35 158.257L184.544 167.855C184.667 173.934 180.06 177.587 174.341 177.703C168.542 177.82 163.791 174.355 163.668 168.277L163.474 158.679C163.352 152.64 167.96 149.026 173.759 148.909ZM174.235 172.464C176.675 172.415 178.608 171.055 178.838 168.61C178.904 167.929 178.93 167.208 178.913 166.368L178.784 160.01C178.768 159.21 178.713 158.451 178.618 157.733C178.288 155.219 176.305 154.099 173.865 154.148C171.306 154.2 169.449 155.397 169.22 157.922C169.155 158.644 169.13 159.405 169.146 160.204L169.275 166.563C169.292 167.403 169.346 168.122 169.44 168.8C169.769 171.234 171.676 172.516 174.235 172.464ZM172.379 206.028L168.22 206.112L168.125 201.433L178.003 201.234L178.476 224.629L183.315 224.531L183.408 229.13L168.131 229.439L168.038 224.84L172.757 224.745L172.379 206.028ZM178.88 261.388C178.953 259.066 177.37 257.938 175.73 257.971C174.13 258.004 172.267 258.841 172.323 261.601L167.204 261.704C167.093 256.225 170.308 252.96 175.787 252.849C183.705 252.689 186.866 260.627 181.457 268.138C180.64 269.314 179.443 271.419 175.976 276.09L185.094 275.906L185.199 281.105L167.243 281.468L167.217 280.188L176.854 266.07C177.825 264.65 178.793 263.031 178.88 261.388ZM167.444 325.272L172.683 325.167C172.891 327.523 174.512 328.57 176.912 328.522C179.511 328.469 181.117 326.757 181.105 324.196C180.895 319.72 176.723 319.164 173.136 319.876L173.119 319.037L178.099 310.054L168.221 310.254L168.125 305.495L185.921 305.135L185.938 305.975L180.056 315.856C184.551 316.525 186.665 320.163 186.743 324.042C186.843 329.001 183.415 333.552 177.096 333.679C171.857 333.785 167.753 330.667 167.444 325.272ZM185.815 379.552L185.927 385.111L180.528 385.22L180.416 379.662L167.339 379.926L167.286 377.326L179.163 357.242L185.362 357.117L185.717 374.713L188.316 374.661L188.414 379.5L185.815 379.552ZM180.737 363.892L180.697 363.893L174.003 375.15L180.682 375.015L180.575 369.696L180.737 363.892ZM175.245 414.293L175.342 419.092C176.299 418.913 177.297 418.812 178.377 418.791C184.258 418.792 189.022 420.936 189.165 428.015C189.265 432.934 185.837 437.524 179.558 437.651C174.319 437.756 170.295 434.637 169.868 429.325L175.107 429.219C175.353 431.494 176.973 432.462 179.332 432.414C182.251 432.355 183.455 430.531 183.407 428.171C183.272 421.492 174.867 423.302 170.518 423.87L170.226 409.433L187.383 409.087L187.483 414.046L175.245 414.293ZM179.603 461.055L186.161 460.922L179.975 471.569C180.41 471.32 180.888 471.191 181.408 471.18C187.042 470.866 191.072 474.266 191.188 480.024C191.317 486.423 186.739 489.516 180.78 489.637C174.821 489.757 170.202 486.85 170.073 480.451C170.031 478.411 170.706 476.157 171.751 474.416L179.603 461.055ZM180.678 484.558C183.557 484.499 185.287 482.984 185.229 480.145C185.171 477.265 183.379 475.701 180.5 475.759C177.62 475.818 175.853 477.454 175.911 480.333C175.964 482.932 177.798 484.616 180.678 484.558ZM191.56 513.024L191.577 513.863L180.208 541.259L174.17 541.381L183.627 518.385L171.83 518.623L171.725 513.424L191.56 513.024ZM188.658 577.255C191.37 578.801 192.981 581.329 193.082 584.327C193.3 589.164 189.466 593.482 182.748 593.618C175.989 593.755 172.065 589.633 171.968 584.834C171.907 581.795 173.453 579.123 176.14 577.468C174.635 576.258 173.602 574.599 173.52 572.56C173.32 568.563 176.487 564.939 182.166 564.824C187.805 564.71 191.034 568.125 191.114 572.085C191.156 574.124 190.192 575.944 188.658 577.255ZM182.384 575.622C184.504 575.579 185.916 574.19 185.88 572.43C185.846 570.711 184.34 569.461 182.26 569.503C180.061 569.547 178.688 570.895 178.723 572.615C178.758 574.375 180.264 575.665 182.384 575.622ZM182.647 588.659C185.487 588.602 187.328 586.684 187.279 584.245C187.228 581.725 185.311 579.883 182.471 579.941C179.592 579.999 177.793 582.036 177.844 584.555C177.892 586.955 179.808 588.716 182.647 588.659ZM184.102 645.201L177.583 645.333L184.054 634.92C183.619 635.129 183.022 635.301 182.502 635.312C176.747 635.628 172.68 632.349 172.561 626.47C172.432 620.072 177.01 616.939 182.969 616.818C188.887 616.699 193.588 619.644 193.717 626.043C193.726 628.443 193.122 630.256 191.922 632.241L184.102 645.201ZM183.071 621.897C180.192 621.955 178.423 623.511 178.48 626.351C178.538 629.23 180.37 630.794 183.25 630.735C186.129 630.677 187.856 629.042 187.798 626.163C187.741 623.323 185.951 621.839 183.071 621.897ZM184.261 668.803C189.98 668.687 194.73 672.112 194.852 678.151L195.046 687.749C195.168 693.828 190.561 697.481 184.842 697.597C179.044 697.714 174.293 694.249 174.17 688.171L173.976 678.573C173.854 672.534 178.462 668.92 184.261 668.803ZM184.737 692.358C187.176 692.309 189.109 690.949 189.34 688.504C189.406 687.823 189.431 687.102 189.414 686.262L189.286 679.904C189.27 679.104 189.214 678.345 189.12 677.626C188.789 675.113 186.806 673.992 184.367 674.042C181.807 674.093 179.951 675.291 179.722 677.816C179.656 678.538 179.632 679.298 179.648 680.098L179.776 686.457C179.793 687.297 179.848 688.016 179.942 688.694C180.271 691.128 182.177 692.41 184.737 692.358Z" fill="#F26842"/>
<path d="M138.033 -157.352L133.874 -157.268L133.78 -161.947L143.658 -162.146L144.13 -138.751L148.969 -138.849L149.062 -134.25L133.785 -133.941L133.692 -138.54L138.411 -138.636L138.033 -157.352ZM144.534 -101.992C144.607 -104.314 143.024 -105.442 141.385 -105.409C139.785 -105.377 137.921 -104.539 137.977 -101.779L132.858 -101.676C132.748 -107.155 135.962 -110.42 141.441 -110.531C149.36 -110.691 152.521 -102.753 147.111 -95.2425C146.295 -94.0658 145.097 -91.9612 141.631 -87.2902L150.749 -87.4744L150.854 -82.2755L132.897 -81.9127L132.872 -83.1925L142.508 -97.31C143.48 -98.7299 144.447 -100.35 144.534 -101.992ZM133.098 -38.1079L138.337 -38.2137C138.545 -35.8574 140.167 -34.8099 142.566 -34.8584C145.166 -34.9109 146.771 -36.6237 146.76 -39.184C146.549 -43.6606 142.377 -44.2165 138.791 -43.5039L138.774 -44.3438L143.753 -53.3262L133.875 -53.1266L133.779 -57.8857L151.576 -58.2451L151.593 -57.4053L145.711 -47.5245C150.205 -46.8551 152.319 -43.2171 152.398 -39.3379C152.498 -34.3789 149.069 -29.8287 142.75 -29.7011C137.511 -29.5953 133.407 -32.713 133.098 -38.1079ZM151.469 16.1722L151.581 21.7311L146.183 21.8401L146.07 16.2812L132.993 16.5454L132.94 13.9459L144.817 -6.13802L151.016 -6.26323L151.371 11.3332L153.971 11.2807L154.069 16.1197L151.469 16.1722ZM146.392 0.511534L146.352 0.512342L139.658 11.7698L146.337 11.6349L146.229 6.31601L146.392 0.511534ZM140.9 50.9127L140.997 55.7117C141.953 55.5324 142.951 55.4322 144.031 55.4104C149.912 55.4116 154.677 57.5559 154.82 64.6344C154.919 69.5534 151.491 74.1436 145.212 74.2704C139.973 74.3762 135.95 71.2568 135.522 65.9444L140.761 65.8386C141.007 68.1141 142.627 69.0816 144.987 69.0339C147.906 68.9749 149.109 67.1502 149.062 64.7907C148.927 58.1121 140.522 59.9222 136.172 60.4902L135.881 46.0531L153.037 45.7065L153.137 50.6655L140.9 50.9127ZM145.257 97.6743L151.816 97.5418L145.63 108.189C146.065 107.94 146.542 107.81 147.062 107.8C152.697 107.486 156.726 110.885 156.843 116.644C156.972 123.043 152.393 126.136 146.435 126.256C140.476 126.377 135.856 123.469 135.727 117.071C135.686 115.031 136.36 112.777 137.405 111.036L145.257 97.6743ZM146.332 121.177C149.211 121.119 150.941 119.604 150.884 116.765C150.826 113.885 149.034 112.321 146.154 112.379C143.275 112.437 141.508 114.073 141.566 116.953C141.618 119.552 143.453 121.236 146.332 121.177ZM157.215 149.643L157.232 150.483L145.863 177.878L139.824 178L149.282 155.005L137.484 155.243L137.379 150.044L157.215 149.643ZM154.313 213.875C157.025 215.421 158.636 217.949 158.736 220.947C158.954 225.784 155.121 230.102 148.402 230.238C141.643 230.374 137.719 226.253 137.622 221.454C137.561 218.414 139.107 215.743 141.794 214.088C140.29 212.878 139.256 211.219 139.175 209.18C138.974 205.183 142.142 201.558 147.82 201.444C153.459 201.33 156.689 204.745 156.769 208.704C156.81 210.744 155.847 212.564 154.313 213.875ZM148.038 212.241C150.158 212.199 151.57 210.81 151.535 209.05C151.5 207.331 149.994 206.081 147.915 206.123C145.715 206.167 144.342 207.515 144.377 209.235C144.413 210.994 145.919 212.284 148.038 212.241ZM148.302 225.279C151.141 225.221 152.983 223.304 152.934 220.864C152.883 218.345 150.965 216.503 148.126 216.561C145.246 216.619 143.447 218.655 143.498 221.175C143.546 223.574 145.462 225.336 148.302 225.279ZM149.757 281.821L143.238 281.953L149.709 271.54C149.273 271.749 148.676 271.921 148.156 271.931C142.402 272.248 138.335 268.969 138.216 263.09C138.087 256.692 142.664 253.558 148.623 253.438C154.542 253.318 159.242 256.264 159.372 262.663C159.38 265.063 158.777 266.876 157.576 268.86L149.757 281.821ZM148.726 258.517C145.846 258.575 144.077 260.131 144.135 262.971C144.193 265.85 146.025 267.413 148.904 267.355C151.784 267.297 153.511 265.662 153.453 262.782C153.395 259.943 151.605 258.459 148.726 258.517ZM149.915 305.423C155.634 305.307 160.384 308.732 160.506 314.771L160.7 324.369C160.823 330.447 156.216 334.101 150.497 334.217C144.698 334.334 139.947 330.869 139.824 324.79L139.63 315.192C139.508 309.153 144.116 305.54 149.915 305.423ZM150.391 328.978C152.831 328.928 154.763 327.569 154.994 325.124C155.06 324.443 155.086 323.722 155.069 322.882L154.94 316.523C154.924 315.724 154.869 314.964 154.774 314.246C154.444 311.732 152.461 310.612 150.021 310.661C147.462 310.713 145.605 311.911 145.376 314.436C145.311 315.158 145.286 315.918 145.302 316.718L145.431 323.077C145.448 323.917 145.502 324.636 145.596 325.314C145.925 327.748 147.832 329.029 150.391 328.978Z" fill="#F26842"/>
</g>
<mask id="mask0_55_2446" style="mask-type:alpha" maskUnits="userSpaceOnUse" x="212" y="201" width="17" height="17">
<rect x="212.66" y="201.509" width="16" height="16" transform="rotate(-1.15718 212.66 201.509)" fill="#D9D9D9"/>
</mask>
<g mask="url(#mask0_55_2446)">
<path d="M220.384 212.522L221.384 212.502L221.307 208.669L220.307 208.689L220.384 212.522ZM220.784 207.538C220.936 207.535 221.063 207.481 221.164 207.376C221.265 207.271 221.314 207.142 221.311 206.989C221.308 206.837 221.254 206.71 221.149 206.609C221.044 206.508 220.915 206.459 220.762 206.462C220.61 206.465 220.483 206.519 220.382 206.624C220.281 206.73 220.232 206.858 220.235 207.011C220.238 207.163 220.292 207.29 220.397 207.391C220.502 207.492 220.631 207.541 220.784 207.538ZM220.949 215.678C220.074 215.695 219.247 215.546 218.47 215.229C217.692 214.912 217.013 214.475 216.431 213.916C215.85 213.358 215.385 212.697 215.037 211.934C214.689 211.17 214.506 210.351 214.488 209.475C214.471 208.599 214.62 207.772 214.937 206.995C215.254 206.218 215.691 205.538 216.25 204.957C216.808 204.375 217.469 203.91 218.232 203.562C218.996 203.214 219.816 203.031 220.691 203.014C221.567 202.996 222.394 203.146 223.171 203.462C223.948 203.779 224.628 204.217 225.209 204.775C225.791 205.333 226.256 205.994 226.604 206.758C226.952 207.521 227.135 208.341 227.152 209.217C227.17 210.092 227.021 210.919 226.704 211.696C226.387 212.474 225.949 213.153 225.391 213.735C224.833 214.316 224.172 214.781 223.408 215.129C222.645 215.477 221.825 215.66 220.949 215.678ZM220.928 214.678C222.417 214.648 223.667 214.106 224.679 213.052C225.692 211.998 226.183 210.727 226.153 209.238C226.123 207.749 225.581 206.499 224.527 205.487C223.473 204.475 222.201 203.983 220.713 204.013C219.224 204.044 217.974 204.586 216.961 205.64C215.949 206.694 215.458 207.965 215.488 209.453C215.518 210.942 216.06 212.192 217.114 213.205C218.168 214.217 219.44 214.708 220.928 214.678Z" fill="#004364"/>
</g>
<path d="M137.653 205.875L137.69 207.708L133.799 207.787L133.839 209.775L137.478 209.701L137.515 211.535L133.876 211.608L133.921 213.848L137.924 213.767L137.963 215.671L131.846 215.794L131.648 205.996L137.653 205.875ZM143.267 209.136L143.323 209.135L144.238 207.268L145.173 205.723L147.44 205.677L147.447 205.985L144.58 210.356L147.968 215.174L147.974 215.468L145.777 215.513L144.465 213.649L143.378 211.836L143.308 211.838L142.268 213.749L141.088 215.607L138.862 215.652L138.856 215.358L142.061 210.407L139.006 206.155L139 205.848L141.282 205.801L142.336 207.391L143.267 209.136ZM148.288 210.575C148.222 207.314 150.62 205.431 153.197 205.421C155.17 205.381 157.291 206.402 157.788 208.815L155.758 208.856C155.302 207.759 154.41 207.287 153.235 207.31C151.499 207.345 150.364 208.671 150.401 210.532C150.435 212.212 151.598 213.631 153.348 213.595C154.565 213.571 155.548 212.977 155.86 211.78L157.875 211.74C157.507 214.338 155.444 215.457 153.4 215.499C150.825 215.551 148.353 213.822 148.288 210.575ZM165.387 205.315L165.424 207.148L161.533 207.227L161.573 209.214L165.212 209.141L165.25 210.974L161.61 211.048L161.656 213.288L165.659 213.207L165.697 215.11L159.58 215.234L159.382 205.436L165.387 205.315ZM169.492 205.232L169.652 213.154L173.739 213.071L173.777 214.947L167.59 215.072L167.393 205.274L169.492 205.232ZM177.037 205.079L177.198 213.002L181.285 212.919L181.323 214.795L175.136 214.92L174.938 205.122L177.037 205.079ZM188.488 204.848L188.525 206.682L184.634 206.76L184.674 208.748L188.313 208.674L188.35 210.508L184.711 210.581L184.756 212.821L188.759 212.74L188.798 214.644L182.681 214.767L182.483 204.969L188.488 204.848ZM198.32 214.479L192.664 208.964L192.777 214.563L190.691 214.605L190.492 204.765L191.15 204.752L196.764 210.24L196.652 204.683L198.752 204.641L198.95 214.467L198.32 214.479ZM202.791 206.379L200.173 206.432L200.137 204.613L207.387 204.466L207.424 206.286L204.821 206.338L204.982 214.317L202.952 214.358L202.791 206.379Z" fill="#008A00"/>
<defs>
<filter id="filter0_d_55_2446" x="48.3912" y="68.3218" width="260.003" height="261.056" filterUnits="userSpaceOnUse" color-interpolation-filters="sRGB">
<feFlood flood-opacity="0" result="BackgroundImageFix"/>
<feColorMatrix in="SourceAlpha" type="matrix" values="0 0 0 0 0 0 0 0 0 0 0 0 0 0 0 0 0 0 127 0" result="hardAlpha"/>
<feOffset dx="4" dy="25"/>
<feGaussianBlur stdDeviation="12.5"/>
<feComposite in2="hardAlpha" operator="out"/>
<feColorMatrix type="matrix" values="0 0 0 0 0.223529 0 0 0 0 0.505882 0 0 0 0 0.964706 0 0 0 0.13 0"/>
<feBlend mode="normal" in2="BackgroundImageFix" result="effect1_dropShadow_55_2446"/>
<feBlend mode="normal" in="SourceGraphic" in2="effect1_dropShadow_55_2446" result="shape"/>
</filter>
<filter id="filter1_d_55_2446" x="59.3938" y="58.3213" width="230.003" height="176.885" filterUnits="userSpaceOnUse" color-interpolation-filters="sRGB">
<feFlood flood-opacity="0" result="BackgroundImageFix"/>
<feColorMatrix in="SourceAlpha" type="matrix" values="0 0 0 0 0 0 0 0 0 0 0 0 0 0 0 0 0 0 127 0" result="hardAlpha"/>
<feOffset/>
<feGaussianBlur stdDeviation="3.5"/>
<feComposite in2="hardAlpha" operator="out"/>
<feColorMatrix type="matrix" values="0 0 0 0 0.223529 0 0 0 0 0.505882 0 0 0 0 0.964706 0 0 0 0.14 0"/>
<feBlend mode="normal" in2="BackgroundImageFix" result="effect1_dropShadow_55_2446"/>
<feBlend mode="normal" in="SourceGraphic" in2="effect1_dropShadow_55_2446" result="shape"/>
</filter>
<filter id="filter2_d_55_2446" x="259.416" y="125.437" width="22.7279" height="22.7275" filterUnits="userSpaceOnUse" color-interpolation-filters="sRGB">
<feFlood flood-opacity="0" result="BackgroundImageFix"/>
<feColorMatrix in="SourceAlpha" type="matrix" values="0 0 0 0 0 0 0 0 0 0 0 0 0 0 0 0 0 0 127 0" result="hardAlpha"/>
<feOffset dy="4"/>
<feGaussianBlur stdDeviation="2"/>
<feComposite in2="hardAlpha" operator="out"/>
<feColorMatrix type="matrix" values="0 0 0 0 0.223529 0 0 0 0 0.505882 0 0 0 0 0.964706 0 0 0 0.12 0"/>
<feBlend mode="normal" in2="BackgroundImageFix" result="effect1_dropShadow_55_2446"/>
<feBlend mode="normal" in="SourceGraphic" in2="effect1_dropShadow_55_2446" result="shape"/>
</filter>
<linearGradient id="paint0_linear_55_2446" x1="82.5411" y1="223.81" x2="261.505" y2="220.195" gradientUnits="userSpaceOnUse">
<stop stop-color="#FF6556"/>
<stop offset="0.32" stop-color="#FDA472"/>
<stop offset="0.58" stop-color="#FFC671"/>
<stop offset="1" stop-color="#23CF79"/>
</linearGradient>
<clipPath id="clip0_55_2446">
<rect width="81" height="52" fill="white" transform="translate(133 138.13) rotate(-1.15718)"/>
</clipPath>
</defs>
</svg>
