<svg xmlns="http://www.w3.org/2000/svg" width="208" height="147" viewBox="0 0 208 147" fill="none">
  <g clip-path="url(#clip0_577_1627)">
    <path d="M177.082 107.272C178 107.272 178.746 106.529 178.729 105.613C178.497 93.159 175.661 80.8903 170.402 69.5939C170.014 68.7628 169.018 68.421 168.192 68.8225L164.453 70.6412C163.628 71.0426 163.286 72.0352 163.671 72.867C168.435 83.1431 171.012 94.2931 171.242 105.613C171.261 106.529 172.003 107.272 172.921 107.272H177.082Z" fill="#008A00"/>
    <path d="M167.003 66.4857C167.815 66.0598 168.13 65.056 167.688 64.2527C163.038 55.7971 157.048 48.1478 149.95 41.6017C149.275 40.9797 148.223 41.0417 147.613 41.7262L144.847 44.8266C144.236 45.511 144.298 46.5586 144.972 47.1817C151.398 53.1288 156.83 60.0643 161.059 67.7249C161.502 68.5275 162.506 68.841 163.319 68.415L167.003 66.4857Z" fill="#8CCF54"/>
    <path d="M148.306 36.8177C148.934 36.1318 148.877 35.0638 148.167 34.4629C141.174 28.551 132.241 22.6612 123.791 19.1662C122.938 18.8137 121.974 19.2508 121.651 20.1132L116.917 32.7477C116.597 33.602 117.028 34.5521 117.877 34.8938C125.252 37.8679 131.059 41.462 137.128 46.6036C137.817 47.1881 138.85 47.1332 139.46 46.4669L148.306 36.8177Z" fill="#FCD800"/>
    <path d="M117.833 24.3126C118.132 23.4464 117.672 22.5002 116.799 22.2174C108.154 19.4175 99.1332 17.9462 90.0461 17.8541C89.1276 17.8449 88.3893 18.5955 88.397 19.5119L88.432 23.663C88.4397 24.5793 89.1901 25.3142 90.1086 25.325C98.3442 25.4223 106.517 26.7554 114.356 29.2795C115.23 29.5609 116.176 29.1028 116.475 28.2366L117.833 24.3126Z" fill="#FF871F"/>
    <path d="M1.19062 107.272C0.27231 107.272 -0.473696 106.528 -0.456622 105.612C-0.0356885 82.9565 8.99206 61.2799 24.8356 44.9902C40.6791 28.7006 62.1217 19.049 84.8017 17.9534C85.7189 17.9091 86.4857 18.631 86.5131 19.5469L86.6372 23.6964C86.6646 24.6123 85.9423 25.3752 85.0252 25.4211C64.2909 26.4577 44.6945 35.2969 30.2068 50.1927C15.719 65.0884 7.44983 84.8992 7.0299 105.612C7.01126 106.529 6.26871 107.272 5.3504 107.272H1.19062Z" fill="#E15825"/>
    <path fill-rule="evenodd" clip-rule="evenodd" d="M164.062 104.218C164.945 77.6542 139.681 34.1 90.893 34.1C36.3101 34.1 16.2381 77.4084 15.0637 103.992C15.0037 105.35 16.1127 106.451 17.4748 106.451H89.4646H161.674C162.947 106.451 164.02 105.488 164.062 104.218ZM62.8248 106.446C62.8248 91.687 74.8144 79.7222 89.6041 79.7222C104.394 79.7222 116.383 91.687 116.383 106.446H62.8248Z" fill="#99DBEA"/>
    <path d="M105.205 106.713H74.0056C74.0056 101.195 78.1085 91.3483 89.9043 91.3483C100.418 91.3483 105.717 101.195 105.205 106.713Z" fill="#FCD800"/>
    <path d="M124.139 46.6997L87.5713 96.7094C86.4228 98.2837 86.8447 100.488 88.5003 101.565C90.1565 102.641 92.3816 102.158 93.4038 100.501L126.562 48.2747C126.964 47.6229 126.766 46.7724 126.114 46.349C125.463 45.9255 124.591 46.0804 124.139 46.6997Z" fill="#2C2C2C"/>
    <path opacity="0.2" fill-rule="evenodd" clip-rule="evenodd" d="M132.386 134.112C132.389 134.092 132.39 134.073 132.39 134.053C132.39 133.976 132.365 133.898 132.315 133.821C135.117 133.968 138.406 134.053 141.926 134.053C152.16 134.053 160.456 133.338 160.456 132.455C160.456 131.573 152.16 130.857 141.926 130.857C134.156 130.857 127.503 131.27 124.75 131.855C116.46 130.772 102.229 130.058 86.0639 130.058C66.9237 130.058 50.4946 131.059 43.4316 132.487C42.2378 132.466 41.0023 132.456 39.7373 132.456C29.5031 132.456 21.2065 133.171 21.2065 134.054C21.2065 134.936 29.5031 135.652 39.7373 135.652C41.003 135.652 42.239 135.641 43.4333 135.62C50.4971 137.047 66.9252 138.049 86.0639 138.049C98.1488 138.049 109.152 137.65 117.401 136.996C120.29 137.157 123.73 137.25 127.421 137.25C137.655 137.25 145.951 136.534 145.951 135.651C145.951 134.917 140.21 134.299 132.386 134.112Z" fill="#004364"/>
    <path opacity="0.2" d="M91.4712 130.3C114.557 130.3 133.272 128.707 133.272 126.742C133.272 124.777 114.557 123.183 91.4712 123.183C68.3853 123.183 49.6705 124.777 49.6705 126.742C49.6705 128.707 68.3853 130.3 91.4712 130.3Z" fill="#004364"/>
    <path d="M101.895 94.134L152.354 84.8228C153.09 84.687 153.796 85.1721 153.932 85.9061L159.678 116.913C159.814 117.647 159.328 118.352 158.592 118.488L108.133 127.799C107.398 127.935 106.691 127.45 106.555 126.716L100.81 95.7089C100.674 94.9748 101.16 94.2698 101.895 94.134Z" fill="#47447C"/>
    <path d="M144.054 101.141L151.993 99.6758C152.361 99.608 152.714 99.8505 152.782 100.218L153.549 104.355C153.617 104.722 153.374 105.074 153.006 105.142L145.067 106.607C144.699 106.675 144.346 106.433 144.278 106.066L143.512 101.928C143.444 101.561 143.687 101.209 144.054 101.141Z" fill="#FFEDA0"/>
    <path d="M101.077 98.1043L147.862 77.0707C148.544 76.7641 149.346 77.0672 149.653 77.7478L162.632 106.498C162.939 107.178 162.635 107.979 161.953 108.285L115.168 129.319C114.486 129.625 113.684 129.322 113.377 128.642L100.398 99.8918C100.091 99.2112 100.394 98.4109 101.077 98.1043Z" fill="#7E79D0"/>
    <path d="M156.157 101.552L146.389 105.944" stroke="#004364" stroke-width="1.2137"/>
    <path d="M143.265 107.348L127.246 114.55" stroke="#004364" stroke-width="1.2137"/>
    <path d="M143.694 94.8918L151.055 91.5824C151.396 91.4291 151.797 91.5807 151.951 91.921L153.683 95.7572C153.836 96.0975 153.685 96.4976 153.344 96.6509L145.982 99.9603C145.641 100.114 145.24 99.962 145.087 99.6217L143.355 95.7855C143.201 95.4452 143.353 95.0451 143.694 94.8918Z" fill="#FFEDA0"/>
    <path d="M121.655 110.341C119.891 109.627 117.881 110.475 117.166 112.236C116.451 113.996 117.301 116.001 119.065 116.715C120.829 117.429 122.839 116.581 123.554 114.82C124.269 113.06 123.419 111.054 121.655 110.341Z" fill="#FFF9D9"/>
    <path d="M114.267 113.714C113.464 113.389 112.55 113.775 112.224 114.576C111.899 115.378 112.286 116.29 113.088 116.615C113.891 116.94 114.806 116.554 115.132 115.753C115.457 114.952 115.07 114.039 114.267 113.714Z" fill="#FFF9D9"/>
    <path d="M46.7177 69.4608H119.509C120.572 69.4608 121.433 70.3204 121.433 71.3808V131.559C121.433 132.619 120.572 133.479 119.509 133.479H46.7177C45.6551 133.479 44.7938 132.619 44.7938 131.559V71.3808C44.7938 70.3204 45.6551 69.4608 46.7177 69.4608Z" fill="#F8D0D8"/>
    <path d="M44.8202 62.6937H121.397C122.46 62.6937 123.321 63.5533 123.321 64.6136V127.954C123.321 129.014 122.46 129.874 121.397 129.874H44.8202C43.7577 129.874 42.8963 129.014 42.8963 127.954V64.6136C42.8963 63.5533 43.7577 62.6937 44.8202 62.6937Z" fill="white"/>
    <path d="M123.321 64.6136C123.321 63.5533 122.46 62.6937 121.397 62.6937H44.8205C43.758 62.6937 42.8966 63.5533 42.8966 64.6136V78.1769H123.321V64.6136Z" fill="#FF7171"/>
    <path d="M99.3295 82.7053H114.423C115.485 82.7053 116.347 83.5649 116.347 84.6252V97.9693C116.347 99.0296 115.485 99.8892 114.423 99.8892H99.3295C98.2669 99.8892 97.4056 99.0296 97.4056 97.9693V84.6252C97.4056 83.5649 98.2669 82.7053 99.3295 82.7053Z" fill="#F8D0D8"/>
    <path d="M75.5632 82.7052H90.6564C91.719 82.7052 92.5803 83.5648 92.5803 84.6251V97.9691C92.5803 99.0295 91.719 99.8891 90.6564 99.8891H75.5632C74.5007 99.8891 73.6393 99.0295 73.6393 97.9691V84.6251C73.6393 83.5648 74.5007 82.7052 75.5632 82.7052Z" fill="#F8D0D8"/>
    <path d="M75.5632 104.417H90.6564C91.719 104.417 92.5803 105.277 92.5803 106.337V119.681C92.5803 120.741 91.719 121.601 90.6564 121.601H75.5632C74.5007 121.601 73.6393 120.741 73.6393 119.681V106.337C73.6393 105.277 74.5007 104.417 75.5632 104.417Z" fill="#F8D0D8"/>
    <path d="M51.8015 82.7053H66.8947C67.9572 82.7053 68.8186 83.5649 68.8186 84.6252V97.9693C68.8186 99.0296 67.9572 99.8892 66.8947 99.8892H51.8015C50.739 99.8892 49.8776 99.0296 49.8776 97.9693V84.6252C49.8776 83.5649 50.739 82.7053 51.8015 82.7053Z" fill="#F8D0D8"/>
    <path d="M51.8014 104.417H66.8946C67.9571 104.417 68.8185 105.277 68.8185 106.337V119.681C68.8185 120.741 67.9571 121.601 66.8946 121.601H51.8014C50.7388 121.601 49.8775 120.741 49.8775 119.681V106.337C49.8775 105.277 50.7388 104.417 51.8014 104.417Z" fill="#F8D0D8"/>
    <path d="M99.3295 104.417H114.423C115.485 104.417 116.347 105.277 116.347 106.337V119.681C116.347 120.741 115.485 121.601 114.423 121.601H99.3295C98.2669 121.601 97.4056 120.741 97.4056 119.681V106.337C97.4056 105.277 98.2669 104.417 99.3295 104.417Z" fill="#F8D0D8"/>
    <path d="M106.873 58.899V68.6068" stroke="#004364" stroke-width="4.59737" stroke-linecap="round"/>
    <path d="M59.3452 58.899V68.6068" stroke="#004364" stroke-width="4.59737" stroke-linecap="round"/>
    <path d="M113.251 129.396H142.329C142.944 129.396 143.443 129.893 143.443 130.507V134.407C143.443 135.021 142.944 135.518 142.329 135.518H113.251C112.636 135.518 112.137 135.021 112.137 134.407V130.507C112.137 129.893 112.636 129.396 113.251 129.396Z" fill="#FBD801"/>
    <path d="M141.586 129.887H114.001" stroke="#B28B67" stroke-width="0.997693" stroke-linecap="round"/>
    <path d="M111.39 123.272H140.469C141.084 123.272 141.583 123.769 141.583 124.383V128.283C141.583 128.897 141.084 129.394 140.469 129.394H111.39C110.775 129.394 110.277 128.897 110.277 128.283V124.383C110.277 123.769 110.775 123.272 111.39 123.272Z" fill="#FBD801"/>
    <path d="M139.724 123.765H112.139" stroke="#B28B67" stroke-width="0.997693" stroke-linecap="round"/>
    <path d="M107.989 117.149H137.068C137.683 117.149 138.181 117.646 138.181 118.26V122.161C138.181 122.774 137.683 123.272 137.068 123.272H107.989C107.374 123.272 106.876 122.774 106.876 122.161V118.26C106.876 117.646 107.374 117.149 107.989 117.149Z" fill="#FBD801"/>
    <path d="M136.323 117.641H108.738" stroke="#B28B67" stroke-width="0.997693" stroke-linecap="round"/>
    <path d="M111.39 111.026H140.469C141.084 111.026 141.583 111.524 141.583 112.137V116.038C141.583 116.652 141.084 117.149 140.469 117.149H111.39C110.775 117.149 110.277 116.652 110.277 116.038V112.137C110.277 111.524 110.775 111.026 111.39 111.026Z" fill="#FBD801"/>
    <path d="M139.724 111.52H112.139" stroke="#B28B67" stroke-width="0.997693" stroke-linecap="round"/>
    <path d="M76.5514 62.4913C76.5509 60.5496 75.7775 58.6879 74.4014 57.3153C73.0254 55.9427 71.1593 55.172 69.2138 55.1724C67.2682 55.173 65.4026 55.9449 64.0273 57.3181C62.652 58.6914 61.8796 60.5536 61.8801 62.4953L69.2158 62.4933L76.5514 62.4913Z" fill="#47447C"/>
    <path opacity="0.2" d="M42.8978 62.5557H64.8799V118.805C64.8799 121.646 62.5721 123.949 59.7255 123.949H42.8978V62.5557Z" fill="#004364"/>
    <path fill-rule="evenodd" clip-rule="evenodd" d="M69.2638 55.266L30.3428 55.2766C28.4741 55.8429 28.0069 56.3059 26.6057 57.9521C25.2045 59.5984 25.0645 60.3699 24.9716 62.1701L24.9874 121.22L58.0342 121.212L57.915 121.21C61.7067 121.21 61.9317 117.01 61.9299 113.864L61.9446 116.622L61.9303 63.1886C62.3032 59.6911 62.7235 59.1252 64.0781 57.6334C65.4327 56.1414 66.7875 55.5238 69.2638 55.266Z" fill="#B2AFEB"/>
    <path d="M57.0743 62.5436L30.0968 62.5509" stroke="#F2F2FC" stroke-width="1.37188" stroke-linecap="round"/>
    <path d="M57.076 67.54L30.0985 67.5474" stroke="#F2F2FC" stroke-width="1.37188" stroke-linecap="round"/>
    <path d="M57.0769 72.5398L30.0994 72.5472" stroke="#F2F2FC" stroke-width="1.37188" stroke-linecap="round"/>
    <path d="M57.0777 77.6502L30.1002 77.6575" stroke="#F2F2FC" stroke-width="1.37188" stroke-linecap="round"/>
    <path d="M57.0802 83.1009L43.5898 83.1046" stroke="#F2F2FC" stroke-width="1.37188" stroke-linecap="round"/>
    <path d="M55.7844 114.431C55.7844 118.672 56.0007 120.83 58.0938 121.21L22.6315 121.219C20.32 121.22 19.7715 117.281 19.7708 114.431H55.7844Z" fill="#47447C"/>
    <path d="M24.9514 109.277C17.761 109.277 11.932 103.46 11.932 96.284C11.932 89.1084 17.761 83.2915 24.9514 83.2915C32.1418 83.2915 37.9708 89.1084 37.9708 96.284C37.9708 103.46 32.1418 109.277 24.9514 109.277Z" fill="#00B14F"/>
    <path d="M18.9462 97.5509L22.2952 100.894" stroke="#FBE8EC" stroke-width="1.70677" stroke-linecap="round"/>
    <path d="M31.6612 91.6736L22.4238 100.892" stroke="#FBE8EC" stroke-width="1.70677" stroke-linecap="round"/>
  </g>
  <defs>
    <clipPath id="clip0_577_1627">
      <rect width="208" height="147" fill="white"/>
    </clipPath>
  </defs>
</svg>