<svg xmlns="http://www.w3.org/2000/svg" width="20" height="24" viewBox="0 0 20 24" fill="none">
  <path d="M9.49016 7.01601H10.5062C10.6124 7.01108 10.7184 7.02773 10.8179 7.06495C10.9175 7.10217 11.0084 7.15919 11.0853 7.23256C11.1621 7.30593 11.2233 7.39413 11.2651 7.49182C11.3069 7.58952 11.3285 7.69467 11.3285 7.80093C11.3285 7.90719 11.3069 8.01234 11.2651 8.11003C11.2233 8.20773 11.1621 8.29593 11.0853 8.3693C11.0084 8.44267 10.9175 8.49969 10.8179 8.53691C10.7184 8.57413 10.6124 8.59078 10.5062 8.58585H7.20568V10.4199H9.08034V12.2302H10.911V10.3843C11.5635 10.2839 12.1539 9.94041 12.5639 9.42287C12.9738 8.90533 13.1729 8.25194 13.1213 7.59374C13.0696 6.93554 12.7711 6.3212 12.2854 5.87391C11.7998 5.42662 11.1631 5.17946 10.5028 5.18199H9.48677C9.2849 5.17261 9.09441 5.08582 8.95487 4.93965C8.81533 4.79347 8.73747 4.59916 8.73747 4.39707C8.73747 4.19499 8.81533 4.00067 8.95487 3.8545C9.09441 3.70832 9.2849 3.62153 9.48677 3.61215H12.7839V1.77813H10.911V0H9.08034V1.8137C8.43176 1.91902 7.8465 2.26437 7.44074 2.78118C7.03497 3.298 6.83838 3.9485 6.88998 4.60354C6.94158 5.25859 7.23761 5.87028 7.71929 6.31719C8.20097 6.7641 8.83309 7.01354 9.49016 7.01601ZM19.761 16.2742C19.6174 15.9484 19.4109 15.654 19.1535 15.4081C18.8961 15.1621 18.5927 14.9692 18.2607 14.8406C17.9287 14.7119 17.5745 14.65 17.2186 14.6583C16.8626 14.6666 16.5118 14.7449 16.1861 14.8889L13.6849 15.9947C13.7696 15.6443 13.8123 15.285 13.8119 14.9245C13.8119 14.6873 13.7177 14.4599 13.55 14.2922C13.3823 14.1245 13.1549 14.0303 12.9177 14.0303H7.83734C6.66195 14.03 5.53292 14.4888 4.69089 15.3089C4.50621 15.0323 4.25607 14.8057 3.9627 14.6491C3.66933 14.4926 3.34182 14.4109 3.00928 14.4114H2.02369C1.53758 14.4135 1.06834 14.5897 0.701081 14.9082C0.333828 15.2267 0.0929013 15.6662 0.0220152 16.1472L3.00928 16.137C3.08732 16.1379 3.16194 16.1691 3.21728 16.2242C3.27262 16.2792 3.30432 16.3536 3.30564 16.4317V20.6772C3.30432 20.7552 3.27262 20.8296 3.21728 20.8847C3.16194 20.9397 3.08732 20.971 3.00928 20.9718H2.02369C1.94595 20.9705 1.87175 20.9391 1.81677 20.8841C1.7618 20.8291 1.73033 20.7549 1.72902 20.6772V17.8762H0V20.6772C0 21.2161 0.214101 21.733 0.595204 22.1141C0.976307 22.4952 1.49319 22.7093 2.03215 22.7093H3.01775C3.34969 22.7091 3.67646 22.6271 3.96916 22.4705C4.26187 22.314 4.5115 22.0877 4.69597 21.8118C5.53827 22.6313 6.66726 23.0894 7.84242 23.0887H10.9415C11.0657 23.0886 11.1885 23.0627 11.3022 23.0124L18.3876 19.8643C18.7143 19.7196 19.0091 19.5118 19.2551 19.2528C19.5011 18.9937 19.6935 18.6886 19.8211 18.3549C19.9488 18.0213 20.0092 17.6656 19.9989 17.3085C19.9885 16.9514 19.9077 16.5999 19.761 16.2742ZM17.656 18.2199L10.7416 21.2902H7.83395C7.47457 21.2902 7.11871 21.2194 6.78669 21.0819C6.45467 20.9444 6.15298 20.7428 5.89886 20.4887C5.64474 20.2345 5.44316 19.9329 5.30563 19.6008C5.1681 19.2688 5.09732 18.9129 5.09732 18.5536C5.09732 18.1942 5.1681 17.8383 5.30563 17.5063C5.44316 17.1743 5.64474 16.8726 5.89886 16.6185C6.15298 16.3644 6.45467 16.1628 6.78669 16.0252C7.11871 15.8877 7.47457 15.8169 7.83395 15.8169H11.8762C11.6897 16.3577 11.3392 16.8268 10.8737 17.1592C10.4081 17.4915 9.8505 17.6705 9.27848 17.6713H8.29796V19.4579H9.27848C9.99699 19.4589 10.7053 19.2882 11.3445 18.96L16.9058 16.5248C17.1304 16.4251 17.3854 16.4187 17.6147 16.507C17.844 16.5953 18.0288 16.771 18.1285 16.9956C18.2282 17.2201 18.2346 17.4751 18.1463 17.7044C18.0581 17.9337 17.8823 18.1185 17.6577 18.2183L17.656 18.2199Z" fill="#4D4D4D"/>
</svg>