<svg width="368" height="161" viewBox="0 0 368 161" fill="none" xmlns="http://www.w3.org/2000/svg">
<g filter="url(#filter0_d_901_2774)">
<g clip-path="url(#clip0_901_2774)">
<rect x="20" y="16" width="328" height="121" rx="12" fill="#E6F6FA"/>
<circle cx="120" cy="-9" r="94" fill="#CCEDFA"/>
<circle cx="293.5" cy="122.5" r="31.5" fill="#CCEDFA"/>
<path d="M94.2818 69.6741C94.8926 69.6741 95.3907 69.1804 95.3651 68.5721C95.2285 65.311 94.4856 62.1034 93.1741 59.1123C92.9293 58.5544 92.2645 58.3278 91.7152 58.5945C91.1653 58.8612 90.9399 59.5201 91.1824 60.079C92.3487 62.768 93.0159 65.6459 93.1496 68.5722C93.1775 69.1803 93.6705 69.6741 94.2818 69.6741Z" fill="#008A00"/>
<path d="M91.3725 57.9214C91.9133 57.6385 92.1239 56.9709 91.8177 56.4441C90.5916 54.3364 89.078 52.4078 87.3209 50.7135C86.8817 50.2901 86.1803 50.3321 85.7739 50.7868C85.3674 51.2415 85.41 51.9364 85.8475 52.3616C87.4077 53.8774 88.7559 55.5956 89.8555 57.4698C90.1641 57.9954 90.8312 58.2044 91.3725 57.9214Z" fill="#8CCF54"/>
<path d="M86.1741 49.1136C86.4775 48.7833 86.45 48.2685 86.1039 47.9827C84.1555 46.3739 81.7417 44.7937 79.4265 43.7927C79.0182 43.6161 78.552 43.8269 78.3961 44.2422L77.2138 47.3916C77.0594 47.803 77.2681 48.26 77.6748 48.4298C79.6291 49.2461 81.2168 50.2248 82.8494 51.5739C83.1854 51.8517 83.6829 51.8258 83.9777 51.5048L86.1741 49.1136Z" fill="#FCD800"/>
<path d="M77.1748 45.7688C77.3743 45.1934 77.0682 44.5635 76.4825 44.3891C74.3024 43.7396 72.0474 43.3726 69.7732 43.297C69.1622 43.2767 68.6707 43.7767 68.6758 44.3855C68.681 44.9942 69.1809 45.481 69.7917 45.5036C71.8139 45.5785 73.8188 45.9048 75.7596 46.475C76.3459 46.6472 76.9754 46.3443 77.1748 45.7688Z" fill="#FF871F"/>
<path d="M43.4965 69.675C42.8853 69.675 42.3873 69.1811 42.4128 68.5728C42.6839 62.1089 45.3318 55.954 49.8738 51.2933C54.4159 46.6326 60.5141 43.813 66.9933 43.3504C67.603 43.3069 68.1135 43.7878 68.1317 44.3963C68.1499 45.0048 67.669 45.5102 67.0595 45.5561C61.1559 46.0001 55.6034 48.5794 51.4622 52.8287C47.3211 57.078 44.898 62.6826 44.6285 68.573C44.6006 69.1811 44.1077 69.675 43.4965 69.675Z" fill="#E15825"/>
<path opacity="0.8" fill-rule="evenodd" clip-rule="evenodd" d="M91.043 68.8417C91.3492 61.0084 83.8768 48.0796 69.4074 48.0796C53.2147 48.0796 47.2926 60.9429 46.9798 68.7821C46.9654 69.1425 47.2602 69.4333 47.6223 69.4333H68.9852H90.406C90.7447 69.4333 91.0293 69.1787 91.043 68.8417ZM61.1063 69.432C61.1063 65.076 64.6519 61.5447 69.0256 61.5447C73.3994 61.5447 76.945 65.076 76.945 69.432H61.1063Z" fill="#00A6CA"/>
<path d="M74.3422 69.4111H63.1152C63.1152 67.4295 64.5916 63.8931 68.8363 63.8931C72.6197 63.8931 74.5267 67.4295 74.3422 69.4111Z" fill="#FCD800"/>
<path d="M75.9927 50.0788L67.8383 66.7323C67.5823 67.2564 67.8232 67.8838 68.3688 68.114C68.9145 68.3443 69.5462 68.0852 69.7602 67.5434L76.791 50.4158C76.8752 50.2026 76.772 49.9624 76.5574 49.8719C76.3428 49.7813 76.0934 49.8726 75.9927 50.0788Z" fill="#2C2C2C"/>
<path fill-rule="evenodd" clip-rule="evenodd" d="M51.5271 64.7534L57.0376 84.0129L61.0581 98.208H63.9906L59.7182 64.7534H51.5271Z" fill="#47447C"/>
<path fill-rule="evenodd" clip-rule="evenodd" d="M50.0536 64.7534C49.926 74.68 49.4914 80.0942 49.3576 80.9961C49.2238 81.8979 47.2003 87.6352 43.2871 98.208H46.3249C51.3067 88.0653 54.0876 82.3279 54.6678 80.9961C55.2479 79.6642 57.0382 74.2499 59.7349 64.7534H50.0536Z" fill="#5F5BA9"/>
<path fill-rule="evenodd" clip-rule="evenodd" d="M43.7166 101.271L43.8685 98.0923H47.0604C48.5739 99.1519 50.5498 100.01 52.9882 100.666V101.271H47.2124L45.2365 100.968V101.271H43.7166Z" fill="#191847"/>
<path fill-rule="evenodd" clip-rule="evenodd" d="M61.3477 101.271L61.4996 98.0923H64.6915C66.205 99.1519 68.1809 100.01 70.6193 100.666V101.271H64.8435L62.8676 100.968V101.271H61.3477Z" fill="#191847"/>
<path fill-rule="evenodd" clip-rule="evenodd" d="M65.5107 59.8991L70.854 57.1478C71.7559 56.1314 72.6394 55.3464 73.5045 54.7928C73.7672 54.6908 74.2236 54.6362 73.7802 55.378C73.3367 56.1198 72.9038 56.92 73.1149 57.1568C73.3261 57.3937 73.8743 57.0829 74.1235 57.4739C74.2898 57.7347 73.3568 58.118 71.3246 58.6241L67.4084 62.0275L65.5107 59.8991Z" fill="#D6A97F"/>
<path d="M46.528 65.6908L44.3235 65.0762C42.9931 69.4924 42.2021 71.9122 41.9505 72.3355C41.766 72.6458 40.509 73.5355 39.646 74.0329C39.2997 74.2325 39.4137 74.5305 39.5321 74.6164C40.4953 75.3149 41.2175 74.631 42.1238 74.2924C43.1167 73.9214 42.9392 75.1695 43.7253 74.8889C43.532 74.3502 43.3533 73.3655 43.6601 72.7488C43.7965 72.4747 44.6981 70.4066 46.528 65.6908Z" fill="#D6A97F"/>
<path fill-rule="evenodd" clip-rule="evenodd" d="M54.9473 49.0981L56.1559 49.2963C59.0185 52.062 58.6964 58.8757 60.6042 59.7553C62.2897 60.5323 65.0954 58.5927 67.808 58.5927C68.0037 58.5211 68.2013 58.4494 68.4005 58.3782L69.4875 60.1825C69.3676 60.3117 69.2418 60.4416 69.1107 60.5718C69.1107 62.7097 61.783 65.602 59.5019 64.2291C55.6893 61.9347 54.8092 53.7397 54.9473 49.0981Z" fill="#B11030"/>
<path fill-rule="evenodd" clip-rule="evenodd" d="M54.4881 46.5013C53.7714 45.6635 53.2865 44.6368 53.3675 43.4864C53.601 40.1718 58.2338 40.901 59.135 42.5739C60.0362 44.2469 59.9291 48.4904 58.7644 48.7894C58.3 48.9087 57.3105 48.6166 56.3034 48.0121L56.9355 52.4659H53.2031L54.4881 46.5013Z" fill="#D6A97F"/>
<path fill-rule="evenodd" clip-rule="evenodd" d="M55.6491 44.7012C55.527 44.6176 55.3812 44.5669 55.2246 44.5669C54.7951 44.5669 54.447 44.9483 54.447 45.3413C54.447 45.7502 54.6409 46.0664 54.9177 46.2005C54.7699 46.4884 54.6212 46.6974 54.447 46.7353C53.7748 46.6676 52.8918 45.0037 52.8918 43.6376C52.8918 42.1422 54.0865 40.8496 56.3132 40.8496C58.3145 40.8496 59.0734 41.6715 59.1125 42.3985C58.2549 42.6332 56.7562 42.7236 54.6025 42.7082V42.8631L56.4687 43.018L56.7797 43.9474C56.2849 43.9106 55.9313 44.2486 55.6491 44.7012Z" fill="#262626"/>
<path fill-rule="evenodd" clip-rule="evenodd" d="M57.4472 50.5282C57.3198 58.6422 60.2326 63.597 61.0973 68.6001C61.9208 74.7924 50.9483 73.1213 49.5135 70.4865C48.9327 69.4199 48.7447 65.6064 49.5135 63.1508C48.7913 63.9079 48.8857 64.0254 48.0259 65.3548C46.9268 67.4265 46.0183 66.7793 46.0183 67.2961L43.8302 66.5172C43.9577 65.815 43.5926 65.8656 43.8301 64.2971C44.8948 57.2691 48.3728 52.7531 53.0291 49.5924L53.0773 48.9062C53.097 48.6258 53.3413 48.4143 53.6229 48.4339L57.065 48.6736C57.3466 48.6932 57.559 48.9365 57.5393 49.217L57.4472 50.5282Z" fill="#FF7171"/>
<path d="M51.5577 58.6553L49.4579 63.0887C48.7188 65.8324 49.0202 68.8793 49.3281 70.0503L51.5577 58.6553Z" fill="#B11030"/>
<path d="M92.3527 47.4678C90.0314 47.4678 88.1501 45.5939 88.1501 43.2825C88.1501 40.971 90.0314 39.0972 92.3527 39.0972C94.6735 39.0972 96.5548 40.971 96.5548 43.2825C96.5548 45.5939 94.6735 47.4678 92.3527 47.4678Z" fill="#44BA74"/>
<path fill-rule="evenodd" clip-rule="evenodd" d="M90.197 43.4739C90.3171 43.3544 90.5118 43.3544 90.6319 43.474L91.7129 44.5508C91.833 44.6704 91.833 44.8642 91.7129 44.9837C91.5928 45.1033 91.3981 45.1033 91.278 44.9837L90.197 43.9069C90.0769 43.7873 90.0769 43.5935 90.197 43.4739Z" fill="#FBE8EC"/>
<path fill-rule="evenodd" clip-rule="evenodd" d="M94.7361 41.5804C94.616 41.4608 94.4213 41.4608 94.3012 41.5804L91.3196 44.5501C91.1995 44.6697 91.1995 44.8635 91.3196 44.983C91.4397 45.1026 91.6344 45.1026 91.7545 44.983L94.7361 42.0134C94.8562 41.8938 94.8562 41.7 94.7361 41.5804Z" fill="#FBE8EC"/>
<path opacity="0.2" d="M70.8577 101.271C70.8577 102.15 63.8821 102.862 55.2772 102.862C46.6724 102.862 39.6968 102.15 39.6968 101.271C39.6968 100.393 46.6724 99.6812 55.2772 99.6812C63.8821 99.6812 70.8577 100.393 70.8577 101.271Z" fill="black"/>
<path d="M112.672 48.416C112.672 44.688 115.456 42.592 118.4 42.64C120.656 42.64 123.056 43.856 123.568 46.624H121.248C120.752 45.36 119.744 44.8 118.4 44.8C116.416 44.8 115.088 46.288 115.088 48.416C115.088 50.336 116.384 51.984 118.384 51.984C119.776 51.984 120.912 51.328 121.296 49.968H123.6C123.12 52.928 120.736 54.16 118.4 54.16C115.456 54.16 112.672 52.128 112.672 48.416ZM132.796 54H130.54V49.536C130.588 48.448 129.948 47.904 129.116 47.904C128.22 47.888 127.468 48.512 127.468 49.584V54H125.212V42.32H127.468V47.12C127.964 46.432 128.796 46.128 129.756 46.128C131.964 46.128 132.796 47.552 132.796 49.536V54ZM138.358 46.128C141.174 46.128 142.358 48.144 141.766 50.768H136.55C136.694 52.032 137.766 52.304 138.598 52.384C139.558 52.432 140.534 52.288 141.462 51.904L141.718 53.488C140.806 53.92 139.75 54.16 138.726 54.16C136.134 54.208 134.31 52.656 134.31 50.048C134.358 47.36 136.31 46.128 138.358 46.128ZM138.358 47.744C137.238 47.744 136.758 48.416 136.566 49.344H139.958C140.006 48.336 139.414 47.744 138.358 47.744ZM151.027 49.072H148.899C148.627 48.352 148.051 48.048 147.283 48.048C146.227 48.048 145.331 48.736 145.331 50.112C145.331 51.504 146.227 52.288 147.283 52.288C147.987 52.288 148.659 51.856 148.931 51.04H151.059C150.739 53.104 148.995 54.144 147.219 54.16C145.187 54.176 143.107 52.832 143.107 50.112C143.107 47.408 145.203 46.128 147.235 46.128C148.979 46.128 150.675 47.056 151.027 49.072ZM154.827 49.12H155.371C157.147 49.12 157.595 47.872 157.595 46.288H159.707C159.755 47.92 159.387 49.28 157.867 50.08L160.075 53.76V53.984H157.819L155.979 50.784C155.786 50.848 155.579 50.88 155.339 50.88H154.827V53.984H152.603V42.304H154.827V49.12ZM172.671 46.544L169.471 54.752C168.495 57.264 167.423 58.592 164.623 57.568L164.863 56.016C166.127 56.576 166.783 56.096 167.231 54.816L167.519 54.016L164.143 46.544V46.288H166.495L167.535 48.896L168.543 51.744H168.591L169.471 48.912L170.399 46.288H172.671V46.544ZM181.502 50.112C181.502 52.816 179.47 54.16 177.438 54.16C175.39 54.16 173.326 52.816 173.326 50.112C173.326 47.44 175.342 46.144 177.374 46.128C179.438 46.112 181.502 47.392 181.502 50.112ZM175.55 50.112C175.55 51.504 176.462 52.208 177.39 52.208C178.334 52.224 179.278 51.52 179.278 50.112C179.278 48.736 178.382 48.096 177.438 48.096C176.494 48.096 175.55 48.72 175.55 50.112ZM188.206 46.288H190.446V51.696C190.446 52.416 190.478 52.672 191.166 52.624L191.182 53.984C190.094 54.24 188.366 54.384 188.366 52.896C187.934 53.792 186.814 54.16 185.902 54.16C183.678 54.16 183.038 52.64 183.038 50.72V46.288H185.294V50.72C185.294 51.952 185.838 52.4 186.622 52.4C187.518 52.416 188.206 51.712 188.206 50.672V46.288ZM195.142 47.44C195.462 46.56 196.438 46.128 197.382 46.128C197.974 46.112 198.582 46.288 199.03 46.624L198.534 48.496C198.07 48.192 197.59 48.064 197.094 48.08C196.118 48.08 195.286 48.72 195.286 49.904V54H193.094V48.64C193.094 48 193.03 47.584 192.326 47.696V46.32C193.446 46.064 195.014 46.064 195.142 47.44ZM203.344 48.416C203.344 44.688 206.128 42.592 209.072 42.64C211.328 42.64 213.728 43.856 214.24 46.624H211.92C211.424 45.36 210.416 44.8 209.072 44.8C207.088 44.8 205.76 46.288 205.76 48.416C205.76 50.336 207.056 51.984 209.056 51.984C210.448 51.984 211.584 51.328 211.968 49.968H214.272C213.792 52.928 211.408 54.16 209.072 54.16C206.128 54.16 203.344 52.128 203.344 48.416ZM219.548 52.096H221.132V54H215.564V52.096H217.148V44.656H215.692V42.8H221.004V44.656H219.548V52.096ZM231.443 46.128C231.443 46.944 231.027 47.76 230.323 48.192C231.363 48.624 231.923 49.536 231.923 50.688C231.923 52.656 230.611 54 228.371 54H223.171V42.816H227.923C229.971 42.816 231.443 44.032 231.443 46.128ZM227.747 44.864H225.555V47.408H227.747C228.563 47.408 229.075 46.96 229.091 46.208C229.107 45.392 228.579 44.864 227.747 44.864ZM228.099 49.36H225.555V51.92H228.211C229.027 51.92 229.507 51.44 229.555 50.688C229.571 50.24 229.395 49.824 229.059 49.584C228.787 49.392 228.467 49.36 228.099 49.36ZM237.235 52.096H238.819V54H233.251V52.096H234.835V44.656H233.379V42.8H238.691V44.656H237.235V52.096ZM243.243 42.8V51.856H247.915V54H240.843V42.8H243.243ZM252.185 51.6H254.425C254.441 52.24 255.049 52.528 255.689 52.512C256.345 52.512 257.001 52.32 257.017 51.632C257.017 51.056 256.457 50.992 255.913 50.912C254.361 50.704 252.345 50.544 252.345 48.672C252.345 46.944 253.769 46.128 255.657 46.128C257.497 46.128 259.081 46.96 259.001 48.592H256.889C256.873 48.032 256.329 47.808 255.689 47.808C255.049 47.808 254.505 48.096 254.505 48.608C254.505 49.184 255.113 49.216 255.609 49.264C257.337 49.472 259.305 49.552 259.257 51.616C259.209 53.456 257.529 54.16 255.785 54.16C254.041 54.16 252.265 53.648 252.185 51.6ZM268.293 49.072H266.165C265.893 48.352 265.317 48.048 264.549 48.048C263.493 48.048 262.597 48.736 262.597 50.112C262.597 51.504 263.493 52.288 264.549 52.288C265.253 52.288 265.925 51.856 266.197 51.04H268.325C268.005 53.104 266.261 54.144 264.485 54.16C262.453 54.176 260.373 52.832 260.373 50.112C260.373 47.408 262.469 46.128 264.501 46.128C266.245 46.128 267.941 47.056 268.293 49.072ZM277.58 50.112C277.58 52.816 275.548 54.16 273.516 54.16C271.468 54.16 269.404 52.816 269.404 50.112C269.404 47.44 271.42 46.144 273.452 46.128C275.516 46.112 277.58 47.392 277.58 50.112ZM271.628 50.112C271.628 51.504 272.54 52.208 273.468 52.208C274.412 52.224 275.356 51.52 275.356 50.112C275.356 48.736 274.46 48.096 273.516 48.096C272.572 48.096 271.628 48.72 271.628 50.112ZM281.532 47.44C281.852 46.56 282.828 46.128 283.772 46.128C284.364 46.112 284.972 46.288 285.42 46.624L284.924 48.496C284.46 48.192 283.98 48.064 283.484 48.08C282.508 48.08 281.676 48.72 281.676 49.904V54H279.484V48.64C279.484 48 279.42 47.584 278.716 47.696V46.32C279.836 46.064 281.404 46.064 281.532 47.44ZM290.015 46.128C292.831 46.128 294.015 48.144 293.423 50.768H288.207C288.351 52.032 289.423 52.304 290.255 52.384C291.215 52.432 292.191 52.288 293.119 51.904L293.375 53.488C292.463 53.92 291.407 54.16 290.383 54.16C287.791 54.208 285.967 52.656 285.967 50.048C286.015 47.36 287.967 46.128 290.015 46.128ZM290.015 47.744C288.895 47.744 288.415 48.416 288.223 49.344H291.615C291.663 48.336 291.071 47.744 290.015 47.744ZM113.76 74V67.888H112.336V66.304H113.792L113.808 65.328C113.808 62.176 116.24 61.792 118.768 62.56L118.544 64.224C117.392 63.792 115.936 63.728 115.936 65.376V66.304H118.368V67.888H115.936V74H113.76ZM127.205 70.112C127.205 72.816 125.173 74.16 123.141 74.16C121.093 74.16 119.029 72.816 119.029 70.112C119.029 67.44 121.045 66.144 123.077 66.128C125.141 66.112 127.205 67.392 127.205 70.112ZM121.253 70.112C121.253 71.504 122.165 72.208 123.093 72.208C124.037 72.224 124.981 71.52 124.981 70.112C124.981 68.736 124.085 68.096 123.141 68.096C122.197 68.096 121.253 68.72 121.253 70.112ZM131.157 67.44C131.477 66.56 132.453 66.128 133.397 66.128C133.989 66.112 134.597 66.288 135.045 66.624L134.549 68.496C134.085 68.192 133.605 68.064 133.109 68.08C132.133 68.08 131.301 68.72 131.301 69.904V74H129.109V68.64C129.109 68 129.045 67.584 128.341 67.696V66.32C129.461 66.064 131.029 66.064 131.157 67.44ZM140.229 74V67.888H138.805V66.304H140.261L140.277 65.328C140.277 62.176 142.709 61.792 145.237 62.56L145.013 64.224C143.861 63.792 142.405 63.728 142.405 65.376V66.304H144.837V67.888H142.405V74H140.229ZM148.423 67.44C148.743 66.56 149.719 66.128 150.663 66.128C151.255 66.112 151.863 66.288 152.311 66.624L151.815 68.496C151.351 68.192 150.871 68.064 150.375 68.08C149.399 68.08 148.567 68.72 148.567 69.904V74H146.375V68.64C146.375 68 146.311 67.584 145.607 67.696V66.32C146.727 66.064 148.295 66.064 148.423 67.44ZM156.905 66.128C159.721 66.128 160.905 68.144 160.313 70.768H155.097C155.241 72.032 156.313 72.304 157.145 72.384C158.105 72.432 159.081 72.288 160.009 71.904L160.265 73.488C159.353 73.92 158.297 74.16 157.273 74.16C154.681 74.208 152.857 72.656 152.857 70.048C152.905 67.36 154.857 66.128 156.905 66.128ZM156.905 67.744C155.785 67.744 155.305 68.416 155.113 69.344H158.505C158.553 68.336 157.961 67.744 156.905 67.744ZM165.702 66.128C168.518 66.128 169.702 68.144 169.11 70.768H163.894C164.038 72.032 165.11 72.304 165.942 72.384C166.902 72.432 167.878 72.288 168.806 71.904L169.062 73.488C168.15 73.92 167.094 74.16 166.07 74.16C163.478 74.208 161.654 72.656 161.654 70.048C161.702 67.36 163.654 66.128 165.702 66.128ZM165.702 67.744C164.582 67.744 164.102 68.416 163.91 69.344H167.302C167.35 68.336 166.758 67.744 165.702 67.744Z" fill="#262626"/>
<path d="M119.032 88.88C119.032 89.288 118.932 89.648 118.732 89.96C118.54 90.264 118.264 90.484 117.904 90.62C118.384 90.756 118.756 90.996 119.02 91.34C119.284 91.676 119.416 92.108 119.416 92.636C119.416 93.02 119.348 93.36 119.212 93.656C119.084 93.952 118.904 94.2 118.672 94.4C118.44 94.592 118.16 94.74 117.832 94.844C117.504 94.948 117.144 95 116.752 95H113.116V86.6H116.392C116.768 86.6 117.116 86.644 117.436 86.732C117.764 86.82 118.044 86.956 118.276 87.14C118.516 87.324 118.7 87.56 118.828 87.848C118.964 88.136 119.032 88.48 119.032 88.88ZM114.112 87.44V90.296H116.332C116.572 90.296 116.796 90.272 117.004 90.224C117.22 90.176 117.404 90.096 117.556 89.984C117.716 89.872 117.84 89.728 117.928 89.552C118.016 89.376 118.06 89.156 118.06 88.892C118.06 88.62 118.016 88.392 117.928 88.208C117.848 88.024 117.728 87.876 117.568 87.764C117.416 87.652 117.232 87.572 117.016 87.524C116.808 87.468 116.58 87.44 116.332 87.44H114.112ZM114.112 91.136V94.136H116.68C116.928 94.136 117.156 94.108 117.364 94.052C117.572 93.988 117.752 93.896 117.904 93.776C118.064 93.648 118.188 93.492 118.276 93.308C118.364 93.116 118.408 92.892 118.408 92.636C118.416 92.356 118.368 92.12 118.264 91.928C118.168 91.736 118.032 91.584 117.856 91.472C117.68 91.352 117.468 91.268 117.22 91.22C116.98 91.164 116.724 91.136 116.452 91.136H114.112ZM124.827 93.956C124.723 94.156 124.587 94.328 124.419 94.472C124.251 94.616 124.063 94.736 123.855 94.832C123.655 94.928 123.439 94.996 123.207 95.036C122.983 95.084 122.763 95.108 122.547 95.108C122.283 95.108 122.027 95.076 121.779 95.012C121.531 94.948 121.311 94.848 121.119 94.712C120.935 94.568 120.787 94.392 120.675 94.184C120.563 93.968 120.507 93.712 120.507 93.416C120.507 93.096 120.563 92.816 120.675 92.576C120.795 92.336 120.955 92.136 121.155 91.976C121.363 91.816 121.599 91.696 121.863 91.616C122.127 91.536 122.411 91.496 122.715 91.496C123.051 91.496 123.395 91.528 123.747 91.592C124.099 91.648 124.419 91.756 124.707 91.916V91.076C124.707 90.836 124.647 90.636 124.527 90.476C124.415 90.316 124.267 90.192 124.083 90.104C123.907 90.016 123.711 89.956 123.495 89.924C123.287 89.884 123.083 89.864 122.883 89.864C122.547 89.864 122.231 89.9 121.935 89.972C121.639 90.036 121.367 90.14 121.119 90.284L120.963 89.54C121.243 89.396 121.559 89.288 121.911 89.216C122.271 89.144 122.643 89.108 123.027 89.108C123.355 89.108 123.671 89.14 123.975 89.204C124.287 89.268 124.559 89.38 124.791 89.54C125.031 89.692 125.219 89.896 125.355 90.152C125.499 90.408 125.567 90.724 125.559 91.1V93.512C125.559 93.672 125.559 93.816 125.559 93.944C125.567 94.064 125.591 94.164 125.631 94.244C125.671 94.324 125.735 94.38 125.823 94.412C125.919 94.444 126.055 94.448 126.231 94.424L126.243 95.036C126.003 95.076 125.795 95.092 125.619 95.084C125.443 95.076 125.295 95.032 125.175 94.952C125.055 94.872 124.967 94.752 124.911 94.592C124.855 94.432 124.827 94.22 124.827 93.956ZM124.695 92.636C124.511 92.524 124.255 92.428 123.927 92.348C123.599 92.268 123.267 92.228 122.931 92.228C122.747 92.228 122.563 92.248 122.379 92.288C122.203 92.328 122.043 92.392 121.899 92.48C121.763 92.568 121.651 92.684 121.563 92.828C121.475 92.972 121.431 93.148 121.431 93.356C121.431 93.54 121.467 93.696 121.539 93.824C121.611 93.944 121.707 94.04 121.827 94.112C121.947 94.184 122.083 94.236 122.235 94.268C122.395 94.292 122.555 94.304 122.715 94.304C122.907 94.304 123.103 94.28 123.303 94.232C123.511 94.184 123.707 94.108 123.891 94.004C124.083 93.9 124.247 93.768 124.383 93.608C124.527 93.44 124.631 93.24 124.695 93.008V92.636ZM131.943 95V91.58C131.943 91.052 131.791 90.64 131.487 90.344C131.191 90.04 130.803 89.888 130.323 89.888C130.075 89.888 129.847 89.928 129.639 90.008C129.431 90.088 129.247 90.2 129.087 90.344C128.935 90.488 128.815 90.664 128.727 90.872C128.639 91.072 128.595 91.292 128.595 91.532V95H127.659V90.872C127.659 90.68 127.651 90.52 127.635 90.392C127.627 90.264 127.599 90.164 127.551 90.092C127.503 90.02 127.435 89.976 127.347 89.96C127.259 89.936 127.139 89.932 126.987 89.948L126.975 89.204C127.143 89.18 127.319 89.16 127.503 89.144C127.687 89.128 127.855 89.144 128.007 89.192C128.159 89.232 128.283 89.32 128.379 89.456C128.483 89.592 128.535 89.8 128.535 90.08C128.791 89.688 129.091 89.428 129.435 89.3C129.787 89.172 130.167 89.108 130.575 89.108C130.959 89.108 131.295 89.172 131.583 89.3C131.871 89.42 132.111 89.592 132.303 89.816C132.495 90.032 132.639 90.292 132.735 90.596C132.839 90.9 132.891 91.228 132.891 91.58V95H131.943ZM136.355 91.604C137.155 91.604 137.735 91.416 138.095 91.04C138.455 90.664 138.635 90.056 138.635 89.216H139.535C139.535 89.88 139.415 90.452 139.175 90.932C138.935 91.404 138.499 91.764 137.867 92.012L139.811 94.892V95H138.839L137.051 92.3C136.835 92.348 136.599 92.372 136.343 92.372H135.587V95H134.639V86.228H135.587V91.604H136.355ZM141.529 93.368C141.545 93.552 141.601 93.708 141.697 93.836C141.801 93.956 141.929 94.056 142.081 94.136C142.241 94.216 142.417 94.272 142.609 94.304C142.801 94.336 142.993 94.352 143.185 94.352C143.385 94.352 143.581 94.332 143.773 94.292C143.965 94.252 144.137 94.192 144.289 94.112C144.441 94.032 144.565 93.928 144.661 93.8C144.757 93.672 144.809 93.52 144.817 93.344C144.817 93.176 144.781 93.04 144.709 92.936C144.645 92.832 144.545 92.748 144.409 92.684C144.273 92.612 144.101 92.556 143.893 92.516C143.693 92.468 143.461 92.424 143.197 92.384C142.909 92.352 142.621 92.308 142.333 92.252C142.053 92.196 141.797 92.112 141.565 92C141.341 91.888 141.153 91.74 141.001 91.556C140.857 91.364 140.781 91.116 140.773 90.812C140.765 90.516 140.829 90.26 140.965 90.044C141.101 89.828 141.281 89.652 141.505 89.516C141.737 89.372 141.997 89.268 142.285 89.204C142.573 89.14 142.869 89.108 143.173 89.108C143.469 89.108 143.761 89.144 144.049 89.216C144.345 89.28 144.605 89.38 144.829 89.516C145.061 89.652 145.245 89.824 145.381 90.032C145.517 90.24 145.581 90.484 145.573 90.764H144.673C144.673 90.612 144.629 90.48 144.541 90.368C144.461 90.248 144.349 90.152 144.205 90.08C144.069 90 143.909 89.944 143.725 89.912C143.549 89.872 143.365 89.852 143.173 89.852C142.989 89.852 142.805 89.872 142.621 89.912C142.437 89.944 142.273 89.996 142.129 90.068C141.985 90.14 141.869 90.236 141.781 90.356C141.693 90.476 141.653 90.62 141.661 90.788C141.669 91.068 141.805 91.264 142.069 91.376C142.341 91.48 142.745 91.572 143.281 91.652C143.585 91.692 143.885 91.74 144.181 91.796C144.477 91.844 144.741 91.928 144.973 92.048C145.205 92.16 145.389 92.32 145.525 92.528C145.669 92.728 145.737 93 145.729 93.344C145.729 93.64 145.657 93.9 145.513 94.124C145.377 94.34 145.193 94.52 144.961 94.664C144.729 94.808 144.457 94.916 144.145 94.988C143.841 95.06 143.521 95.1 143.185 95.108C142.873 95.108 142.565 95.08 142.261 95.024C141.965 94.968 141.697 94.872 141.457 94.736C141.225 94.6 141.033 94.42 140.881 94.196C140.729 93.972 140.641 93.696 140.617 93.368H141.529ZM154.724 91.016C154.564 90.656 154.324 90.388 154.004 90.212C153.692 90.036 153.352 89.948 152.984 89.948C152.72 89.948 152.456 89.992 152.192 90.08C151.936 90.168 151.704 90.3 151.496 90.476C151.296 90.652 151.132 90.876 151.004 91.148C150.884 91.412 150.824 91.724 150.824 92.084C150.824 92.444 150.884 92.76 151.004 93.032C151.132 93.304 151.292 93.532 151.484 93.716C151.684 93.9 151.908 94.04 152.156 94.136C152.412 94.232 152.672 94.28 152.936 94.28C153.32 94.28 153.68 94.18 154.016 93.98C154.36 93.78 154.612 93.476 154.772 93.068H155.684C155.596 93.412 155.46 93.712 155.276 93.968C155.092 94.224 154.876 94.436 154.628 94.604C154.38 94.772 154.108 94.9 153.812 94.988C153.524 95.068 153.228 95.108 152.924 95.108C152.548 95.108 152.176 95.044 151.808 94.916C151.448 94.788 151.124 94.6 150.836 94.352C150.548 94.096 150.316 93.78 150.14 93.404C149.964 93.02 149.876 92.58 149.876 92.084C149.876 91.58 149.964 91.14 150.14 90.764C150.324 90.388 150.56 90.08 150.848 89.84C151.136 89.592 151.464 89.408 151.832 89.288C152.2 89.168 152.572 89.108 152.948 89.108C153.244 89.108 153.532 89.152 153.812 89.24C154.092 89.32 154.352 89.44 154.592 89.6C154.832 89.752 155.04 89.948 155.216 90.188C155.4 90.428 155.536 90.704 155.624 91.016H154.724ZM161.353 95V91.628C161.361 91.076 161.221 90.648 160.933 90.344C160.645 90.04 160.249 89.888 159.745 89.888C159.217 89.88 158.793 90.04 158.473 90.368C158.161 90.696 158.005 91.128 158.005 91.664V95H157.057V86.228H158.005V90.008C158.261 89.688 158.541 89.46 158.845 89.324C159.149 89.18 159.529 89.108 159.985 89.108C160.777 89.116 161.361 89.352 161.737 89.816C162.121 90.272 162.313 90.876 162.313 91.628V95H161.353ZM166.656 89.108C167.648 89.116 168.36 89.396 168.792 89.948C169.224 90.492 169.36 91.244 169.2 92.204H164.628C164.612 92.54 164.66 92.84 164.772 93.104C164.892 93.36 165.056 93.58 165.264 93.764C165.472 93.948 165.72 94.088 166.008 94.184C166.296 94.28 166.604 94.328 166.932 94.328C167.268 94.328 167.592 94.292 167.904 94.22C168.224 94.148 168.552 94.044 168.888 93.908L169.032 94.616C168.336 94.944 167.628 95.108 166.908 95.108C166.428 95.108 165.988 95.036 165.588 94.892C165.188 94.748 164.844 94.54 164.556 94.268C164.268 93.996 164.048 93.668 163.896 93.284C163.744 92.892 163.676 92.448 163.692 91.952C163.708 91.496 163.796 91.092 163.956 90.74C164.116 90.388 164.328 90.092 164.592 89.852C164.864 89.604 165.176 89.42 165.528 89.3C165.88 89.172 166.256 89.108 166.656 89.108ZM166.656 89.852C166.128 89.852 165.684 89.992 165.324 90.272C164.964 90.552 164.744 90.956 164.664 91.484H168.432C168.448 91.212 168.412 90.976 168.324 90.776C168.236 90.568 168.112 90.396 167.952 90.26C167.792 90.124 167.6 90.024 167.376 89.96C167.152 89.888 166.912 89.852 166.656 89.852ZM175.173 91.016C175.013 90.656 174.773 90.388 174.453 90.212C174.141 90.036 173.801 89.948 173.433 89.948C173.169 89.948 172.905 89.992 172.641 90.08C172.385 90.168 172.153 90.3 171.945 90.476C171.745 90.652 171.581 90.876 171.453 91.148C171.333 91.412 171.273 91.724 171.273 92.084C171.273 92.444 171.333 92.76 171.453 93.032C171.581 93.304 171.741 93.532 171.933 93.716C172.133 93.9 172.357 94.04 172.605 94.136C172.861 94.232 173.121 94.28 173.385 94.28C173.769 94.28 174.129 94.18 174.465 93.98C174.809 93.78 175.061 93.476 175.221 93.068H176.133C176.045 93.412 175.909 93.712 175.725 93.968C175.541 94.224 175.325 94.436 175.077 94.604C174.829 94.772 174.557 94.9 174.261 94.988C173.973 95.068 173.677 95.108 173.373 95.108C172.997 95.108 172.625 95.044 172.257 94.916C171.897 94.788 171.573 94.6 171.285 94.352C170.997 94.096 170.765 93.78 170.589 93.404C170.413 93.02 170.325 92.58 170.325 92.084C170.325 91.58 170.413 91.14 170.589 90.764C170.773 90.388 171.009 90.08 171.297 89.84C171.585 89.592 171.913 89.408 172.281 89.288C172.649 89.168 173.021 89.108 173.397 89.108C173.693 89.108 173.981 89.152 174.261 89.24C174.541 89.32 174.801 89.44 175.041 89.6C175.281 89.752 175.489 89.948 175.665 90.188C175.849 90.428 175.985 90.704 176.073 91.016H175.173ZM179.222 91.604C180.022 91.604 180.602 91.416 180.962 91.04C181.322 90.664 181.502 90.056 181.502 89.216H182.402C182.402 89.88 182.282 90.452 182.042 90.932C181.802 91.404 181.366 91.764 180.734 92.012L182.678 94.892V95H181.706L179.918 92.3C179.702 92.348 179.466 92.372 179.21 92.372H178.454V95H177.506V86.228H178.454V91.604H179.222ZM189.453 95.408C189.293 95.792 189.125 96.168 188.949 96.536C188.773 96.904 188.561 97.208 188.313 97.448C188.073 97.696 187.785 97.856 187.449 97.928C187.121 98 186.721 97.932 186.249 97.724L186.381 97.028C186.653 97.156 186.889 97.212 187.089 97.196C187.297 97.18 187.473 97.112 187.617 96.992C187.769 96.88 187.901 96.724 188.013 96.524C188.125 96.324 188.229 96.104 188.325 95.864L188.661 95.048L186.009 89.324V89.228H187.005L188.157 91.796L189.105 94.088H189.117L189.993 91.82L191.049 89.228H191.997V89.324L189.453 95.408ZM198.781 92.096C198.781 92.6 198.693 93.04 198.517 93.416C198.341 93.792 198.109 94.108 197.821 94.364C197.533 94.612 197.205 94.8 196.837 94.928C196.469 95.048 196.093 95.108 195.709 95.108C195.333 95.108 194.961 95.044 194.593 94.916C194.233 94.788 193.909 94.6 193.621 94.352C193.341 94.096 193.113 93.784 192.937 93.416C192.769 93.04 192.685 92.6 192.685 92.096C192.685 91.592 192.773 91.152 192.949 90.776C193.125 90.4 193.357 90.092 193.645 89.852C193.933 89.604 194.257 89.42 194.617 89.3C194.985 89.172 195.361 89.108 195.745 89.108C196.129 89.108 196.501 89.172 196.861 89.3C197.229 89.42 197.553 89.604 197.833 89.852C198.121 90.1 198.349 90.412 198.517 90.788C198.693 91.156 198.781 91.592 198.781 92.096ZM193.633 92.096C193.633 92.464 193.693 92.788 193.813 93.068C193.933 93.348 194.093 93.58 194.293 93.764C194.493 93.948 194.717 94.088 194.965 94.184C195.221 94.28 195.481 94.328 195.745 94.328C196.009 94.328 196.265 94.28 196.513 94.184C196.769 94.088 196.993 93.948 197.185 93.764C197.385 93.58 197.545 93.348 197.665 93.068C197.785 92.788 197.845 92.464 197.845 92.096C197.845 91.728 197.785 91.408 197.665 91.136C197.545 90.864 197.385 90.64 197.185 90.464C196.985 90.28 196.757 90.144 196.501 90.056C196.253 89.96 195.997 89.912 195.733 89.912C195.469 89.912 195.209 89.96 194.953 90.056C194.705 90.144 194.481 90.28 194.281 90.464C194.089 90.64 193.933 90.864 193.813 91.136C193.693 91.408 193.633 91.728 193.633 92.096ZM205.256 89.216V93.452C205.256 93.668 205.264 93.84 205.28 93.968C205.296 94.088 205.328 94.184 205.376 94.256C205.424 94.32 205.492 94.36 205.58 94.376C205.668 94.384 205.788 94.38 205.94 94.364L205.952 95.012C205.728 95.052 205.516 95.072 205.316 95.072C205.124 95.08 204.956 95.056 204.812 95C204.668 94.936 204.556 94.836 204.476 94.7C204.404 94.556 204.376 94.356 204.392 94.1C204.28 94.3 204.148 94.468 203.996 94.604C203.844 94.732 203.676 94.836 203.492 94.916C203.316 94.988 203.128 95.036 202.928 95.06C202.728 95.092 202.528 95.108 202.328 95.108C201.944 95.108 201.612 95.044 201.332 94.916C201.06 94.788 200.836 94.612 200.66 94.388C200.484 94.156 200.356 93.888 200.276 93.584C200.196 93.28 200.156 92.948 200.156 92.588V89.216H201.104V92.588C201.096 93.116 201.224 93.54 201.488 93.86C201.752 94.18 202.124 94.34 202.604 94.34C203.108 94.34 203.52 94.184 203.84 93.872C204.16 93.552 204.32 93.12 204.32 92.576V89.216H205.256ZM208.315 90.032C208.491 89.696 208.735 89.46 209.047 89.324C209.359 89.18 209.699 89.108 210.067 89.108C210.571 89.108 211.023 89.252 211.423 89.54L211.195 90.332C211.011 90.212 210.815 90.12 210.607 90.056C210.407 89.984 210.195 89.948 209.971 89.948C209.763 89.948 209.563 89.984 209.371 90.056C209.179 90.128 209.007 90.228 208.855 90.356C208.711 90.484 208.595 90.644 208.507 90.836C208.419 91.02 208.375 91.224 208.375 91.448V95H207.451V90.62C207.451 90.492 207.447 90.376 207.439 90.272C207.431 90.16 207.403 90.072 207.355 90.008C207.315 89.936 207.247 89.884 207.151 89.852C207.055 89.82 206.923 89.812 206.755 89.828L206.743 89.204C206.967 89.164 207.171 89.144 207.355 89.144C207.547 89.144 207.711 89.172 207.847 89.228C207.991 89.284 208.103 89.376 208.183 89.504C208.263 89.632 208.307 89.808 208.315 90.032ZM214.928 90.8C214.928 90.144 215.036 89.548 215.252 89.012C215.476 88.476 215.78 88.02 216.164 87.644C216.548 87.268 216.996 86.98 217.508 86.78C218.028 86.58 218.584 86.484 219.176 86.492C219.584 86.492 219.984 86.548 220.376 86.66C220.768 86.764 221.128 86.928 221.456 87.152C221.792 87.368 222.084 87.64 222.332 87.968C222.588 88.296 222.78 88.68 222.908 89.12H221.936C221.68 88.544 221.308 88.116 220.82 87.836C220.332 87.556 219.784 87.416 219.176 87.416C218.696 87.408 218.256 87.488 217.856 87.656C217.456 87.824 217.116 88.06 216.836 88.364C216.556 88.668 216.336 89.028 216.176 89.444C216.024 89.86 215.948 90.312 215.948 90.8C215.948 91.272 216.024 91.716 216.176 92.132C216.328 92.54 216.544 92.896 216.824 93.2C217.112 93.504 217.452 93.744 217.844 93.92C218.244 94.088 218.684 94.172 219.164 94.172C219.812 94.172 220.388 94.016 220.892 93.704C221.396 93.384 221.76 92.92 221.984 92.312H222.956C222.836 92.784 222.648 93.196 222.392 93.548C222.144 93.892 221.852 94.18 221.516 94.412C221.18 94.644 220.808 94.816 220.4 94.928C220 95.04 219.592 95.096 219.176 95.096C218.592 95.096 218.04 94.996 217.52 94.796C217.008 94.596 216.56 94.312 216.176 93.944C215.792 93.568 215.488 93.116 215.264 92.588C215.04 92.06 214.928 91.464 214.928 90.8ZM227.825 94.196V95H223.913V94.196H225.365V87.392H224.009V86.6H227.729V87.392H226.373V94.196H227.825ZM235.305 88.88C235.305 89.288 235.205 89.648 235.005 89.96C234.813 90.264 234.537 90.484 234.177 90.62C234.657 90.756 235.029 90.996 235.293 91.34C235.557 91.676 235.689 92.108 235.689 92.636C235.689 93.02 235.621 93.36 235.485 93.656C235.357 93.952 235.177 94.2 234.945 94.4C234.713 94.592 234.433 94.74 234.105 94.844C233.777 94.948 233.417 95 233.025 95H229.389V86.6H232.665C233.041 86.6 233.389 86.644 233.709 86.732C234.037 86.82 234.317 86.956 234.549 87.14C234.789 87.324 234.973 87.56 235.101 87.848C235.237 88.136 235.305 88.48 235.305 88.88ZM230.385 87.44V90.296H232.605C232.845 90.296 233.069 90.272 233.277 90.224C233.493 90.176 233.677 90.096 233.829 89.984C233.989 89.872 234.113 89.728 234.201 89.552C234.289 89.376 234.333 89.156 234.333 88.892C234.333 88.62 234.289 88.392 234.201 88.208C234.121 88.024 234.001 87.876 233.841 87.764C233.689 87.652 233.505 87.572 233.289 87.524C233.081 87.468 232.853 87.44 232.605 87.44H230.385ZM230.385 91.136V94.136H232.953C233.201 94.136 233.429 94.108 233.637 94.052C233.845 93.988 234.025 93.896 234.177 93.776C234.337 93.648 234.461 93.492 234.549 93.308C234.637 93.116 234.681 92.892 234.681 92.636C234.689 92.356 234.641 92.12 234.537 91.928C234.441 91.736 234.305 91.584 234.129 91.472C233.953 91.352 233.741 91.268 233.493 91.22C233.253 91.164 232.997 91.136 232.725 91.136H230.385ZM240.598 94.196V95H236.686V94.196H238.138V87.392H236.782V86.6H240.502V87.392H239.146V94.196H240.598ZM243.171 94.1H247.131V95H242.163V86.6H243.171V94.1ZM251.606 92.708C251.622 92.988 251.706 93.228 251.858 93.428C252.01 93.62 252.202 93.776 252.434 93.896C252.666 94.016 252.918 94.104 253.19 94.16C253.47 94.208 253.738 94.232 253.994 94.232C254.242 94.232 254.498 94.208 254.762 94.16C255.034 94.112 255.278 94.028 255.494 93.908C255.718 93.788 255.902 93.628 256.046 93.428C256.19 93.22 256.266 92.964 256.274 92.66C256.274 92.324 256.202 92.064 256.058 91.88C255.914 91.688 255.726 91.544 255.494 91.448C255.262 91.344 255.002 91.276 254.714 91.244C254.434 91.204 254.15 91.164 253.862 91.124C253.478 91.084 253.102 91.024 252.734 90.944C252.374 90.864 252.05 90.744 251.762 90.584C251.474 90.416 251.242 90.2 251.066 89.936C250.89 89.664 250.802 89.316 250.802 88.892C250.802 88.476 250.89 88.12 251.066 87.824C251.25 87.52 251.486 87.272 251.774 87.08C252.062 86.88 252.386 86.732 252.746 86.636C253.114 86.54 253.482 86.492 253.85 86.492C254.21 86.492 254.574 86.536 254.942 86.624C255.31 86.704 255.642 86.836 255.938 87.02C256.242 87.196 256.49 87.428 256.682 87.716C256.874 88.004 256.978 88.352 256.994 88.76H256.058C256.034 88.496 255.95 88.276 255.806 88.1C255.67 87.924 255.498 87.784 255.29 87.68C255.082 87.576 254.854 87.504 254.606 87.464C254.358 87.416 254.114 87.392 253.874 87.392C253.642 87.392 253.402 87.42 253.154 87.476C252.914 87.524 252.69 87.608 252.482 87.728C252.282 87.84 252.118 87.992 251.99 88.184C251.862 88.376 251.798 88.608 251.798 88.88C251.798 89.192 251.866 89.436 252.002 89.612C252.138 89.788 252.314 89.924 252.53 90.02C252.746 90.108 252.986 90.172 253.25 90.212C253.514 90.244 253.774 90.276 254.03 90.308C254.446 90.356 254.846 90.42 255.23 90.5C255.622 90.572 255.966 90.692 256.262 90.86C256.566 91.028 256.806 91.256 256.982 91.544C257.166 91.824 257.258 92.196 257.258 92.66C257.258 93.108 257.158 93.488 256.958 93.8C256.766 94.104 256.514 94.352 256.202 94.544C255.89 94.736 255.542 94.876 255.158 94.964C254.774 95.052 254.39 95.1 254.006 95.108C253.614 95.116 253.222 95.076 252.83 94.988C252.438 94.9 252.082 94.76 251.762 94.568C251.442 94.376 251.178 94.128 250.97 93.824C250.762 93.512 250.65 93.14 250.634 92.708H251.606ZM263.204 91.016C263.044 90.656 262.804 90.388 262.484 90.212C262.172 90.036 261.832 89.948 261.464 89.948C261.2 89.948 260.936 89.992 260.672 90.08C260.416 90.168 260.184 90.3 259.976 90.476C259.776 90.652 259.612 90.876 259.484 91.148C259.364 91.412 259.304 91.724 259.304 92.084C259.304 92.444 259.364 92.76 259.484 93.032C259.612 93.304 259.772 93.532 259.964 93.716C260.164 93.9 260.388 94.04 260.636 94.136C260.892 94.232 261.152 94.28 261.416 94.28C261.8 94.28 262.16 94.18 262.496 93.98C262.84 93.78 263.092 93.476 263.252 93.068H264.164C264.076 93.412 263.94 93.712 263.756 93.968C263.572 94.224 263.356 94.436 263.108 94.604C262.86 94.772 262.588 94.9 262.292 94.988C262.004 95.068 261.708 95.108 261.404 95.108C261.028 95.108 260.656 95.044 260.288 94.916C259.928 94.788 259.604 94.6 259.316 94.352C259.028 94.096 258.796 93.78 258.62 93.404C258.444 93.02 258.356 92.58 258.356 92.084C258.356 91.58 258.444 91.14 258.62 90.764C258.804 90.388 259.04 90.08 259.328 89.84C259.616 89.592 259.944 89.408 260.312 89.288C260.68 89.168 261.052 89.108 261.428 89.108C261.724 89.108 262.012 89.152 262.292 89.24C262.572 89.32 262.832 89.44 263.072 89.6C263.312 89.752 263.52 89.948 263.696 90.188C263.88 90.428 264.016 90.704 264.104 91.016H263.204ZM271.261 92.096C271.261 92.6 271.173 93.04 270.997 93.416C270.821 93.792 270.589 94.108 270.301 94.364C270.013 94.612 269.685 94.8 269.317 94.928C268.949 95.048 268.573 95.108 268.189 95.108C267.813 95.108 267.441 95.044 267.073 94.916C266.713 94.788 266.389 94.6 266.101 94.352C265.821 94.096 265.593 93.784 265.417 93.416C265.249 93.04 265.165 92.6 265.165 92.096C265.165 91.592 265.253 91.152 265.429 90.776C265.605 90.4 265.837 90.092 266.125 89.852C266.413 89.604 266.737 89.42 267.097 89.3C267.465 89.172 267.841 89.108 268.225 89.108C268.609 89.108 268.981 89.172 269.341 89.3C269.709 89.42 270.033 89.604 270.313 89.852C270.601 90.1 270.829 90.412 270.997 90.788C271.173 91.156 271.261 91.592 271.261 92.096ZM266.113 92.096C266.113 92.464 266.173 92.788 266.293 93.068C266.413 93.348 266.573 93.58 266.773 93.764C266.973 93.948 267.197 94.088 267.445 94.184C267.701 94.28 267.961 94.328 268.225 94.328C268.489 94.328 268.745 94.28 268.993 94.184C269.249 94.088 269.473 93.948 269.665 93.764C269.865 93.58 270.025 93.348 270.145 93.068C270.265 92.788 270.325 92.464 270.325 92.096C270.325 91.728 270.265 91.408 270.145 91.136C270.025 90.864 269.865 90.64 269.665 90.464C269.465 90.28 269.237 90.144 268.981 90.056C268.733 89.96 268.477 89.912 268.213 89.912C267.949 89.912 267.689 89.96 267.433 90.056C267.185 90.144 266.961 90.28 266.761 90.464C266.569 90.64 266.413 90.864 266.293 91.136C266.173 91.408 266.113 91.728 266.113 92.096ZM273.753 90.032C273.929 89.696 274.173 89.46 274.485 89.324C274.797 89.18 275.137 89.108 275.505 89.108C276.009 89.108 276.461 89.252 276.861 89.54L276.633 90.332C276.449 90.212 276.253 90.12 276.045 90.056C275.845 89.984 275.633 89.948 275.409 89.948C275.201 89.948 275.001 89.984 274.809 90.056C274.617 90.128 274.445 90.228 274.293 90.356C274.149 90.484 274.033 90.644 273.945 90.836C273.857 91.02 273.813 91.224 273.813 91.448V95H272.889V90.62C272.889 90.492 272.885 90.376 272.877 90.272C272.869 90.16 272.841 90.072 272.793 90.008C272.753 89.936 272.685 89.884 272.589 89.852C272.493 89.82 272.361 89.812 272.193 89.828L272.181 89.204C272.405 89.164 272.609 89.144 272.793 89.144C272.985 89.144 273.149 89.172 273.285 89.228C273.429 89.284 273.541 89.376 273.621 89.504C273.701 89.632 273.745 89.808 273.753 90.032ZM280.305 89.108C281.297 89.116 282.009 89.396 282.441 89.948C282.873 90.492 283.009 91.244 282.849 92.204H278.277C278.261 92.54 278.309 92.84 278.421 93.104C278.541 93.36 278.705 93.58 278.913 93.764C279.121 93.948 279.369 94.088 279.657 94.184C279.945 94.28 280.253 94.328 280.581 94.328C280.917 94.328 281.241 94.292 281.553 94.22C281.873 94.148 282.201 94.044 282.537 93.908L282.681 94.616C281.985 94.944 281.277 95.108 280.557 95.108C280.077 95.108 279.637 95.036 279.237 94.892C278.837 94.748 278.493 94.54 278.205 94.268C277.917 93.996 277.697 93.668 277.545 93.284C277.393 92.892 277.325 92.448 277.341 91.952C277.357 91.496 277.445 91.092 277.605 90.74C277.765 90.388 277.977 90.092 278.241 89.852C278.513 89.604 278.825 89.42 279.177 89.3C279.529 89.172 279.905 89.108 280.305 89.108ZM280.305 89.852C279.777 89.852 279.333 89.992 278.973 90.272C278.613 90.552 278.393 90.956 278.313 91.484H282.081C282.097 91.212 282.061 90.976 281.973 90.776C281.885 90.568 281.761 90.396 281.601 90.26C281.441 90.124 281.249 90.024 281.025 89.96C280.801 89.888 280.561 89.852 280.305 89.852ZM291.351 93.956C291.247 94.156 291.111 94.328 290.943 94.472C290.775 94.616 290.587 94.736 290.379 94.832C290.179 94.928 289.963 94.996 289.731 95.036C289.507 95.084 289.287 95.108 289.071 95.108C288.807 95.108 288.551 95.076 288.303 95.012C288.055 94.948 287.835 94.848 287.643 94.712C287.459 94.568 287.311 94.392 287.199 94.184C287.087 93.968 287.031 93.712 287.031 93.416C287.031 93.096 287.087 92.816 287.199 92.576C287.319 92.336 287.479 92.136 287.679 91.976C287.887 91.816 288.123 91.696 288.387 91.616C288.651 91.536 288.935 91.496 289.239 91.496C289.575 91.496 289.919 91.528 290.271 91.592C290.623 91.648 290.943 91.756 291.231 91.916V91.076C291.231 90.836 291.171 90.636 291.051 90.476C290.939 90.316 290.791 90.192 290.607 90.104C290.431 90.016 290.235 89.956 290.019 89.924C289.811 89.884 289.607 89.864 289.407 89.864C289.071 89.864 288.755 89.9 288.459 89.972C288.163 90.036 287.891 90.14 287.643 90.284L287.487 89.54C287.767 89.396 288.083 89.288 288.435 89.216C288.795 89.144 289.167 89.108 289.551 89.108C289.879 89.108 290.195 89.14 290.499 89.204C290.811 89.268 291.083 89.38 291.315 89.54C291.555 89.692 291.743 89.896 291.879 90.152C292.023 90.408 292.091 90.724 292.083 91.1V93.512C292.083 93.672 292.083 93.816 292.083 93.944C292.091 94.064 292.115 94.164 292.155 94.244C292.195 94.324 292.259 94.38 292.347 94.412C292.443 94.444 292.579 94.448 292.755 94.424L292.767 95.036C292.527 95.076 292.319 95.092 292.143 95.084C291.967 95.076 291.819 95.032 291.699 94.952C291.579 94.872 291.491 94.752 291.435 94.592C291.379 94.432 291.351 94.22 291.351 93.956ZM291.219 92.636C291.035 92.524 290.779 92.428 290.451 92.348C290.123 92.268 289.791 92.228 289.455 92.228C289.271 92.228 289.087 92.248 288.903 92.288C288.727 92.328 288.567 92.392 288.423 92.48C288.287 92.568 288.175 92.684 288.087 92.828C287.999 92.972 287.955 93.148 287.955 93.356C287.955 93.54 287.991 93.696 288.063 93.824C288.135 93.944 288.231 94.04 288.351 94.112C288.471 94.184 288.607 94.236 288.759 94.268C288.919 94.292 289.079 94.304 289.239 94.304C289.431 94.304 289.627 94.28 289.827 94.232C290.035 94.184 290.231 94.108 290.415 94.004C290.607 93.9 290.771 93.768 290.907 93.608C291.051 93.44 291.155 93.24 291.219 93.008V92.636ZM298.466 95V91.58C298.466 91.052 298.314 90.64 298.01 90.344C297.714 90.04 297.326 89.888 296.846 89.888C296.598 89.888 296.37 89.928 296.162 90.008C295.954 90.088 295.77 90.2 295.61 90.344C295.458 90.488 295.338 90.664 295.25 90.872C295.162 91.072 295.118 91.292 295.118 91.532V95H294.182V90.872C294.182 90.68 294.174 90.52 294.158 90.392C294.15 90.264 294.122 90.164 294.074 90.092C294.026 90.02 293.958 89.976 293.87 89.96C293.782 89.936 293.662 89.932 293.51 89.948L293.498 89.204C293.666 89.18 293.842 89.16 294.026 89.144C294.21 89.128 294.378 89.144 294.53 89.192C294.682 89.232 294.806 89.32 294.902 89.456C295.006 89.592 295.058 89.8 295.058 90.08C295.314 89.688 295.614 89.428 295.958 89.3C296.31 89.172 296.69 89.108 297.098 89.108C297.482 89.108 297.818 89.172 298.106 89.3C298.394 89.42 298.634 89.592 298.826 89.816C299.018 90.032 299.162 90.292 299.258 90.596C299.362 90.9 299.414 91.228 299.414 91.58V95H298.466ZM305.542 93.764C305.342 94.204 305.058 94.536 304.69 94.76C304.33 94.984 303.918 95.1 303.454 95.108C303.022 95.108 302.638 95.028 302.302 94.868C301.974 94.708 301.698 94.492 301.474 94.22C301.25 93.94 301.078 93.62 300.958 93.26C300.846 92.892 300.79 92.504 300.79 92.096C300.79 91.632 300.866 91.216 301.018 90.848C301.17 90.472 301.37 90.156 301.618 89.9C301.874 89.644 302.17 89.448 302.506 89.312C302.842 89.176 303.198 89.108 303.574 89.108C303.878 89.108 304.182 89.156 304.486 89.252C304.79 89.34 305.09 89.484 305.386 89.684V86.216H306.322V93.092C306.322 93.284 306.318 93.464 306.31 93.632C306.302 93.792 306.314 93.932 306.346 94.052C306.386 94.164 306.454 94.248 306.55 94.304C306.646 94.352 306.798 94.364 307.006 94.34L307.018 95.024C306.786 95.064 306.578 95.08 306.394 95.072C306.21 95.064 306.054 95.016 305.926 94.928C305.798 94.832 305.702 94.692 305.638 94.508C305.574 94.324 305.542 94.076 305.542 93.764ZM305.41 90.548C305.13 90.34 304.838 90.184 304.534 90.08C304.23 89.976 303.938 89.928 303.658 89.936C303.394 89.936 303.146 89.984 302.914 90.08C302.682 90.176 302.478 90.316 302.302 90.5C302.126 90.684 301.986 90.912 301.882 91.184C301.786 91.448 301.738 91.752 301.738 92.096C301.738 92.384 301.774 92.66 301.846 92.924C301.926 93.188 302.042 93.42 302.194 93.62C302.346 93.812 302.538 93.968 302.77 94.088C303.002 94.208 303.274 94.268 303.586 94.268C303.858 94.268 304.106 94.216 304.33 94.112C304.554 94.008 304.742 93.872 304.894 93.704C305.054 93.528 305.178 93.324 305.266 93.092C305.354 92.86 305.402 92.612 305.41 92.348V90.548ZM119.704 110.856V111H118.648L116.32 107.916H114.124V111H113.116V102.588H116.464C116.896 102.588 117.288 102.66 117.64 102.804C117.992 102.94 118.292 103.128 118.54 103.368C118.796 103.608 118.992 103.892 119.128 104.22C119.264 104.548 119.332 104.904 119.332 105.288C119.332 105.616 119.28 105.916 119.176 106.188C119.08 106.46 118.944 106.704 118.768 106.92C118.592 107.128 118.38 107.308 118.132 107.46C117.892 107.604 117.624 107.712 117.328 107.784L119.704 110.856ZM116.464 107.088C116.728 107.088 116.976 107.044 117.208 106.956C117.44 106.868 117.64 106.748 117.808 106.596C117.984 106.436 118.12 106.244 118.216 106.02C118.312 105.796 118.36 105.548 118.36 105.276C118.36 105.004 118.312 104.76 118.216 104.544C118.12 104.32 117.988 104.132 117.82 103.98C117.652 103.82 117.452 103.696 117.22 103.608C116.988 103.52 116.736 103.476 116.464 103.476H114.112V107.088H116.464ZM123.367 105.108C124.359 105.116 125.071 105.396 125.503 105.948C125.935 106.492 126.071 107.244 125.911 108.204H121.339C121.323 108.54 121.371 108.84 121.483 109.104C121.603 109.36 121.767 109.58 121.975 109.764C122.183 109.948 122.431 110.088 122.719 110.184C123.007 110.28 123.315 110.328 123.643 110.328C123.979 110.328 124.303 110.292 124.615 110.22C124.935 110.148 125.263 110.044 125.599 109.908L125.743 110.616C125.047 110.944 124.339 111.108 123.619 111.108C123.139 111.108 122.699 111.036 122.299 110.892C121.899 110.748 121.555 110.54 121.267 110.268C120.979 109.996 120.759 109.668 120.607 109.284C120.455 108.892 120.387 108.448 120.403 107.952C120.419 107.496 120.507 107.092 120.667 106.74C120.827 106.388 121.039 106.092 121.303 105.852C121.575 105.604 121.887 105.42 122.239 105.3C122.591 105.172 122.967 105.108 123.367 105.108ZM123.367 105.852C122.839 105.852 122.395 105.992 122.035 106.272C121.675 106.552 121.455 106.956 121.375 107.484H125.143C125.159 107.212 125.123 106.976 125.035 106.776C124.947 106.568 124.823 106.396 124.663 106.26C124.503 106.124 124.311 106.024 124.087 105.96C123.863 105.888 123.623 105.852 123.367 105.852ZM128.392 106.176C128.64 105.776 128.956 105.5 129.34 105.348C129.724 105.188 130.112 105.108 130.504 105.108C130.928 105.108 131.3 105.184 131.62 105.336C131.948 105.488 132.224 105.7 132.448 105.972C132.672 106.236 132.84 106.548 132.952 106.908C133.064 107.268 133.12 107.656 133.12 108.072C133.12 108.536 133.044 108.956 132.892 109.332C132.74 109.7 132.536 110.016 132.28 110.28C132.032 110.544 131.736 110.748 131.392 110.892C131.056 111.036 130.704 111.108 130.336 111.108C130.032 111.108 129.728 111.072 129.424 111C129.12 110.936 128.82 110.804 128.524 110.604V113.976H127.588V107.148C127.588 106.964 127.588 106.792 127.588 106.632C127.588 106.464 127.568 106.324 127.528 106.212C127.496 106.092 127.432 106.004 127.336 105.948C127.24 105.892 127.096 105.876 126.904 105.9L126.892 105.204C127.348 105.124 127.716 105.152 127.996 105.288C128.276 105.424 128.408 105.72 128.392 106.176ZM128.5 109.728C128.764 109.936 129.036 110.08 129.316 110.16C129.604 110.24 129.888 110.28 130.168 110.28C130.432 110.28 130.684 110.232 130.924 110.136C131.172 110.032 131.384 109.888 131.56 109.704C131.744 109.512 131.888 109.28 131.992 109.008C132.104 108.736 132.16 108.424 132.16 108.072C132.16 107.784 132.124 107.512 132.052 107.256C131.988 107 131.88 106.776 131.728 106.584C131.576 106.392 131.384 106.24 131.152 106.128C130.92 106.016 130.644 105.96 130.324 105.96C130.044 105.96 129.792 106.012 129.568 106.116C129.352 106.212 129.164 106.348 129.004 106.524C128.852 106.692 128.732 106.892 128.644 107.124C128.556 107.348 128.508 107.584 128.5 107.832V109.728ZM140.304 108.096C140.304 108.6 140.216 109.04 140.04 109.416C139.864 109.792 139.632 110.108 139.344 110.364C139.056 110.612 138.728 110.8 138.36 110.928C137.992 111.048 137.616 111.108 137.232 111.108C136.856 111.108 136.484 111.044 136.116 110.916C135.756 110.788 135.432 110.6 135.144 110.352C134.864 110.096 134.636 109.784 134.46 109.416C134.292 109.04 134.208 108.6 134.208 108.096C134.208 107.592 134.296 107.152 134.472 106.776C134.648 106.4 134.88 106.092 135.168 105.852C135.456 105.604 135.78 105.42 136.14 105.3C136.508 105.172 136.884 105.108 137.268 105.108C137.652 105.108 138.024 105.172 138.384 105.3C138.752 105.42 139.076 105.604 139.356 105.852C139.644 106.1 139.872 106.412 140.04 106.788C140.216 107.156 140.304 107.592 140.304 108.096ZM135.156 108.096C135.156 108.464 135.216 108.788 135.336 109.068C135.456 109.348 135.616 109.58 135.816 109.764C136.016 109.948 136.24 110.088 136.488 110.184C136.744 110.28 137.004 110.328 137.268 110.328C137.532 110.328 137.788 110.28 138.036 110.184C138.292 110.088 138.516 109.948 138.708 109.764C138.908 109.58 139.068 109.348 139.188 109.068C139.308 108.788 139.368 108.464 139.368 108.096C139.368 107.728 139.308 107.408 139.188 107.136C139.068 106.864 138.908 106.64 138.708 106.464C138.508 106.28 138.28 106.144 138.024 106.056C137.776 105.96 137.52 105.912 137.256 105.912C136.992 105.912 136.732 105.96 136.476 106.056C136.228 106.144 136.004 106.28 135.804 106.464C135.612 106.64 135.456 106.864 135.336 107.136C135.216 107.408 135.156 107.728 135.156 108.096ZM142.796 106.032C142.972 105.696 143.216 105.46 143.528 105.324C143.84 105.18 144.18 105.108 144.548 105.108C145.052 105.108 145.504 105.252 145.904 105.54L145.676 106.332C145.492 106.212 145.296 106.12 145.088 106.056C144.888 105.984 144.676 105.948 144.452 105.948C144.244 105.948 144.044 105.984 143.852 106.056C143.66 106.128 143.488 106.228 143.336 106.356C143.192 106.484 143.076 106.644 142.988 106.836C142.9 107.02 142.856 107.224 142.856 107.448V111H141.932V106.62C141.932 106.492 141.928 106.376 141.92 106.272C141.912 106.16 141.884 106.072 141.836 106.008C141.796 105.936 141.728 105.884 141.632 105.852C141.536 105.82 141.404 105.812 141.236 105.828L141.224 105.204C141.448 105.164 141.652 105.144 141.836 105.144C142.028 105.144 142.192 105.172 142.328 105.228C142.472 105.284 142.584 105.376 142.664 105.504C142.744 105.632 142.788 105.808 142.796 106.032ZM148.479 105.24H150.603V105.924H148.479V108.852C148.479 109.372 148.583 109.752 148.791 109.992C148.999 110.232 149.291 110.352 149.667 110.352C149.979 110.352 150.351 110.272 150.783 110.112L150.891 110.844C150.355 111.02 149.855 111.108 149.391 111.108C148.823 111.108 148.371 110.932 148.035 110.58C147.707 110.228 147.543 109.66 147.543 108.876V105.924L146.307 105.864V105.24H147.603L147.699 103.44H148.479V105.24ZM155.064 102.228H156V105.588C156.296 105.412 156.596 105.288 156.9 105.216C157.204 105.136 157.508 105.1 157.812 105.108C158.18 105.116 158.532 105.188 158.868 105.324C159.204 105.46 159.496 105.66 159.744 105.924C160 106.18 160.204 106.496 160.355 106.872C160.508 107.24 160.584 107.664 160.584 108.144C160.584 108.688 160.496 109.152 160.32 109.536C160.152 109.912 159.924 110.216 159.636 110.448C159.348 110.68 159.012 110.848 158.628 110.952C158.244 111.056 157.844 111.108 157.428 111.108C157.028 111.108 156.628 111.068 156.228 110.988C155.828 110.9 155.44 110.776 155.064 110.616V102.228ZM155.976 110.016C156.224 110.104 156.476 110.176 156.732 110.232C156.988 110.28 157.24 110.3 157.488 110.292C157.776 110.284 158.052 110.24 158.316 110.16C158.58 110.08 158.808 109.956 159 109.788C159.2 109.62 159.356 109.4 159.468 109.128C159.588 108.856 159.648 108.528 159.648 108.144C159.648 107.768 159.592 107.44 159.48 107.16C159.376 106.88 159.232 106.648 159.048 106.464C158.872 106.272 158.664 106.132 158.424 106.044C158.192 105.948 157.944 105.9 157.68 105.9C157.4 105.892 157.112 105.936 156.816 106.032C156.528 106.12 156.248 106.26 155.976 106.452V110.016ZM164.641 105.108C165.633 105.116 166.345 105.396 166.777 105.948C167.209 106.492 167.345 107.244 167.185 108.204H162.613C162.597 108.54 162.645 108.84 162.757 109.104C162.877 109.36 163.041 109.58 163.249 109.764C163.457 109.948 163.705 110.088 163.993 110.184C164.281 110.28 164.589 110.328 164.917 110.328C165.253 110.328 165.577 110.292 165.889 110.22C166.209 110.148 166.537 110.044 166.873 109.908L167.017 110.616C166.321 110.944 165.613 111.108 164.893 111.108C164.413 111.108 163.973 111.036 163.573 110.892C163.173 110.748 162.829 110.54 162.541 110.268C162.253 109.996 162.033 109.668 161.881 109.284C161.729 108.892 161.661 108.448 161.677 107.952C161.693 107.496 161.781 107.092 161.941 106.74C162.101 106.388 162.313 106.092 162.577 105.852C162.849 105.604 163.161 105.42 163.513 105.3C163.865 105.172 164.241 105.108 164.641 105.108ZM164.641 105.852C164.113 105.852 163.669 105.992 163.309 106.272C162.949 106.552 162.729 106.956 162.649 107.484H166.417C166.433 107.212 166.397 106.976 166.309 106.776C166.221 106.568 166.097 106.396 165.937 106.26C165.777 106.124 165.585 106.024 165.361 105.96C165.137 105.888 164.897 105.852 164.641 105.852ZM169.247 105.984H168.011V105.264H169.259V104.292C169.259 103.756 169.351 103.328 169.535 103.008C169.727 102.68 169.979 102.448 170.291 102.312C170.603 102.176 170.963 102.124 171.371 102.156C171.779 102.188 172.199 102.288 172.631 102.456L172.499 103.152C172.211 103.032 171.927 102.952 171.647 102.912C171.375 102.864 171.127 102.876 170.903 102.948C170.687 103.012 170.511 103.148 170.375 103.356C170.247 103.556 170.183 103.848 170.183 104.232V105.264H172.283V105.984H170.183V111H169.247V105.984ZM178.87 108.096C178.87 108.6 178.782 109.04 178.606 109.416C178.43 109.792 178.198 110.108 177.91 110.364C177.622 110.612 177.294 110.8 176.926 110.928C176.558 111.048 176.182 111.108 175.798 111.108C175.422 111.108 175.05 111.044 174.682 110.916C174.322 110.788 173.998 110.6 173.71 110.352C173.43 110.096 173.202 109.784 173.026 109.416C172.858 109.04 172.774 108.6 172.774 108.096C172.774 107.592 172.862 107.152 173.038 106.776C173.214 106.4 173.446 106.092 173.734 105.852C174.022 105.604 174.346 105.42 174.706 105.3C175.074 105.172 175.45 105.108 175.834 105.108C176.218 105.108 176.59 105.172 176.95 105.3C177.318 105.42 177.642 105.604 177.922 105.852C178.21 106.1 178.438 106.412 178.606 106.788C178.782 107.156 178.87 107.592 178.87 108.096ZM173.722 108.096C173.722 108.464 173.782 108.788 173.902 109.068C174.022 109.348 174.182 109.58 174.382 109.764C174.582 109.948 174.806 110.088 175.054 110.184C175.31 110.28 175.57 110.328 175.834 110.328C176.098 110.328 176.354 110.28 176.602 110.184C176.858 110.088 177.082 109.948 177.274 109.764C177.474 109.58 177.634 109.348 177.754 109.068C177.874 108.788 177.934 108.464 177.934 108.096C177.934 107.728 177.874 107.408 177.754 107.136C177.634 106.864 177.474 106.64 177.274 106.464C177.074 106.28 176.846 106.144 176.59 106.056C176.342 105.96 176.086 105.912 175.822 105.912C175.558 105.912 175.298 105.96 175.042 106.056C174.794 106.144 174.57 106.28 174.37 106.464C174.178 106.64 174.022 106.864 173.902 107.136C173.782 107.408 173.722 107.728 173.722 108.096ZM181.362 106.032C181.538 105.696 181.782 105.46 182.094 105.324C182.406 105.18 182.746 105.108 183.114 105.108C183.618 105.108 184.07 105.252 184.47 105.54L184.242 106.332C184.058 106.212 183.862 106.12 183.654 106.056C183.454 105.984 183.242 105.948 183.018 105.948C182.81 105.948 182.61 105.984 182.418 106.056C182.226 106.128 182.054 106.228 181.902 106.356C181.758 106.484 181.642 106.644 181.554 106.836C181.466 107.02 181.422 107.224 181.422 107.448V111H180.498V106.62C180.498 106.492 180.494 106.376 180.486 106.272C180.478 106.16 180.45 106.072 180.402 106.008C180.362 105.936 180.294 105.884 180.198 105.852C180.102 105.82 179.97 105.812 179.802 105.828L179.79 105.204C180.014 105.164 180.218 105.144 180.402 105.144C180.594 105.144 180.758 105.172 180.894 105.228C181.038 105.284 181.15 105.376 181.23 105.504C181.31 105.632 181.354 105.808 181.362 106.032ZM187.914 105.108C188.906 105.116 189.618 105.396 190.05 105.948C190.482 106.492 190.618 107.244 190.458 108.204H185.886C185.87 108.54 185.918 108.84 186.03 109.104C186.15 109.36 186.314 109.58 186.522 109.764C186.73 109.948 186.978 110.088 187.266 110.184C187.554 110.28 187.862 110.328 188.19 110.328C188.526 110.328 188.85 110.292 189.162 110.22C189.482 110.148 189.81 110.044 190.146 109.908L190.29 110.616C189.594 110.944 188.886 111.108 188.166 111.108C187.686 111.108 187.246 111.036 186.846 110.892C186.446 110.748 186.102 110.54 185.814 110.268C185.526 109.996 185.306 109.668 185.154 109.284C185.002 108.892 184.934 108.448 184.95 107.952C184.966 107.496 185.054 107.092 185.214 106.74C185.374 106.388 185.586 106.092 185.85 105.852C186.122 105.604 186.434 105.42 186.786 105.3C187.138 105.172 187.514 105.108 187.914 105.108ZM187.914 105.852C187.386 105.852 186.942 105.992 186.582 106.272C186.222 106.552 186.002 106.956 185.922 107.484H189.69C189.706 107.212 189.67 106.976 189.582 106.776C189.494 106.568 189.37 106.396 189.21 106.26C189.05 106.124 188.858 106.024 188.634 105.96C188.41 105.888 188.17 105.852 187.914 105.852ZM198.96 109.956C198.856 110.156 198.72 110.328 198.552 110.472C198.384 110.616 198.196 110.736 197.988 110.832C197.788 110.928 197.572 110.996 197.34 111.036C197.116 111.084 196.896 111.108 196.68 111.108C196.416 111.108 196.16 111.076 195.912 111.012C195.664 110.948 195.444 110.848 195.252 110.712C195.068 110.568 194.92 110.392 194.808 110.184C194.696 109.968 194.64 109.712 194.64 109.416C194.64 109.096 194.696 108.816 194.808 108.576C194.928 108.336 195.088 108.136 195.288 107.976C195.496 107.816 195.732 107.696 195.996 107.616C196.26 107.536 196.544 107.496 196.848 107.496C197.184 107.496 197.528 107.528 197.88 107.592C198.232 107.648 198.552 107.756 198.84 107.916V107.076C198.84 106.836 198.78 106.636 198.66 106.476C198.548 106.316 198.4 106.192 198.216 106.104C198.04 106.016 197.844 105.956 197.628 105.924C197.42 105.884 197.216 105.864 197.016 105.864C196.68 105.864 196.364 105.9 196.068 105.972C195.772 106.036 195.5 106.14 195.252 106.284L195.096 105.54C195.376 105.396 195.692 105.288 196.044 105.216C196.404 105.144 196.776 105.108 197.16 105.108C197.488 105.108 197.804 105.14 198.108 105.204C198.42 105.268 198.692 105.38 198.924 105.54C199.164 105.692 199.352 105.896 199.488 106.152C199.632 106.408 199.7 106.724 199.692 107.1V109.512C199.692 109.672 199.692 109.816 199.692 109.944C199.7 110.064 199.724 110.164 199.764 110.244C199.804 110.324 199.868 110.38 199.956 110.412C200.052 110.444 200.188 110.448 200.364 110.424L200.376 111.036C200.136 111.076 199.928 111.092 199.752 111.084C199.576 111.076 199.428 111.032 199.308 110.952C199.188 110.872 199.1 110.752 199.044 110.592C198.988 110.432 198.96 110.22 198.96 109.956ZM198.828 108.636C198.644 108.524 198.388 108.428 198.06 108.348C197.732 108.268 197.4 108.228 197.064 108.228C196.88 108.228 196.696 108.248 196.512 108.288C196.336 108.328 196.176 108.392 196.032 108.48C195.896 108.568 195.784 108.684 195.696 108.828C195.608 108.972 195.564 109.148 195.564 109.356C195.564 109.54 195.6 109.696 195.672 109.824C195.744 109.944 195.84 110.04 195.96 110.112C196.08 110.184 196.216 110.236 196.368 110.268C196.528 110.292 196.688 110.304 196.848 110.304C197.04 110.304 197.236 110.28 197.436 110.232C197.644 110.184 197.84 110.108 198.024 110.004C198.216 109.9 198.38 109.768 198.516 109.608C198.66 109.44 198.764 109.24 198.828 109.008V108.636ZM202.572 106.176C202.82 105.776 203.136 105.5 203.52 105.348C203.904 105.188 204.292 105.108 204.684 105.108C205.108 105.108 205.48 105.184 205.8 105.336C206.128 105.488 206.404 105.7 206.628 105.972C206.852 106.236 207.02 106.548 207.132 106.908C207.243 107.268 207.299 107.656 207.299 108.072C207.299 108.536 207.224 108.956 207.072 109.332C206.92 109.7 206.716 110.016 206.46 110.28C206.212 110.544 205.916 110.748 205.572 110.892C205.236 111.036 204.884 111.108 204.516 111.108C204.212 111.108 203.908 111.072 203.604 111C203.3 110.936 203 110.804 202.704 110.604V113.976H201.768V107.148C201.768 106.964 201.768 106.792 201.768 106.632C201.768 106.464 201.748 106.324 201.708 106.212C201.676 106.092 201.612 106.004 201.516 105.948C201.42 105.892 201.276 105.876 201.083 105.9L201.072 105.204C201.528 105.124 201.896 105.152 202.176 105.288C202.456 105.424 202.588 105.72 202.572 106.176ZM202.68 109.728C202.944 109.936 203.216 110.08 203.496 110.16C203.784 110.24 204.068 110.28 204.348 110.28C204.612 110.28 204.864 110.232 205.104 110.136C205.352 110.032 205.564 109.888 205.74 109.704C205.924 109.512 206.068 109.28 206.172 109.008C206.284 108.736 206.34 108.424 206.34 108.072C206.34 107.784 206.304 107.512 206.232 107.256C206.168 107 206.06 106.776 205.908 106.584C205.756 106.392 205.564 106.24 205.332 106.128C205.1 106.016 204.824 105.96 204.504 105.96C204.224 105.96 203.972 106.012 203.748 106.116C203.532 106.212 203.344 106.348 203.184 106.524C203.032 106.692 202.912 106.892 202.824 107.124C202.736 107.348 202.688 107.584 202.68 107.832V109.728ZM209.732 106.176C209.98 105.776 210.296 105.5 210.68 105.348C211.064 105.188 211.452 105.108 211.844 105.108C212.268 105.108 212.64 105.184 212.96 105.336C213.288 105.488 213.564 105.7 213.788 105.972C214.012 106.236 214.18 106.548 214.292 106.908C214.404 107.268 214.46 107.656 214.46 108.072C214.46 108.536 214.384 108.956 214.232 109.332C214.08 109.7 213.876 110.016 213.62 110.28C213.372 110.544 213.076 110.748 212.732 110.892C212.396 111.036 212.044 111.108 211.676 111.108C211.372 111.108 211.068 111.072 210.764 111C210.46 110.936 210.16 110.804 209.864 110.604V113.976H208.928V107.148C208.928 106.964 208.928 106.792 208.928 106.632C208.928 106.464 208.908 106.324 208.868 106.212C208.836 106.092 208.772 106.004 208.676 105.948C208.58 105.892 208.436 105.876 208.244 105.9L208.232 105.204C208.688 105.124 209.056 105.152 209.336 105.288C209.616 105.424 209.748 105.72 209.732 106.176ZM209.84 109.728C210.104 109.936 210.376 110.08 210.656 110.16C210.944 110.24 211.228 110.28 211.508 110.28C211.772 110.28 212.024 110.232 212.264 110.136C212.512 110.032 212.724 109.888 212.9 109.704C213.084 109.512 213.228 109.28 213.332 109.008C213.444 108.736 213.5 108.424 213.5 108.072C213.5 107.784 213.464 107.512 213.392 107.256C213.328 107 213.22 106.776 213.068 106.584C212.916 106.392 212.724 106.24 212.492 106.128C212.26 106.016 211.984 105.96 211.664 105.96C211.384 105.96 211.132 106.012 210.908 106.116C210.692 106.212 210.504 106.348 210.344 106.524C210.192 106.692 210.072 106.892 209.984 107.124C209.896 107.348 209.848 107.584 209.84 107.832V109.728ZM216.964 106.032C217.14 105.696 217.384 105.46 217.696 105.324C218.008 105.18 218.348 105.108 218.716 105.108C219.22 105.108 219.672 105.252 220.072 105.54L219.844 106.332C219.66 106.212 219.464 106.12 219.256 106.056C219.056 105.984 218.844 105.948 218.62 105.948C218.412 105.948 218.212 105.984 218.02 106.056C217.828 106.128 217.656 106.228 217.504 106.356C217.36 106.484 217.244 106.644 217.156 106.836C217.068 107.02 217.024 107.224 217.024 107.448V111H216.1V106.62C216.1 106.492 216.096 106.376 216.088 106.272C216.08 106.16 216.052 106.072 216.004 106.008C215.964 105.936 215.896 105.884 215.8 105.852C215.704 105.82 215.572 105.812 215.404 105.828L215.392 105.204C215.616 105.164 215.82 105.144 216.004 105.144C216.196 105.144 216.36 105.172 216.496 105.228C216.64 105.284 216.752 105.376 216.832 105.504C216.912 105.632 216.956 105.808 216.964 106.032ZM226.648 108.096C226.648 108.6 226.56 109.04 226.384 109.416C226.208 109.792 225.976 110.108 225.688 110.364C225.4 110.612 225.072 110.8 224.704 110.928C224.336 111.048 223.96 111.108 223.576 111.108C223.2 111.108 222.828 111.044 222.46 110.916C222.1 110.788 221.776 110.6 221.488 110.352C221.208 110.096 220.98 109.784 220.804 109.416C220.636 109.04 220.552 108.6 220.552 108.096C220.552 107.592 220.64 107.152 220.816 106.776C220.992 106.4 221.224 106.092 221.512 105.852C221.8 105.604 222.124 105.42 222.484 105.3C222.852 105.172 223.228 105.108 223.612 105.108C223.996 105.108 224.368 105.172 224.728 105.3C225.096 105.42 225.42 105.604 225.7 105.852C225.988 106.1 226.216 106.412 226.384 106.788C226.56 107.156 226.648 107.592 226.648 108.096ZM221.5 108.096C221.5 108.464 221.56 108.788 221.68 109.068C221.8 109.348 221.96 109.58 222.16 109.764C222.36 109.948 222.584 110.088 222.832 110.184C223.088 110.28 223.348 110.328 223.612 110.328C223.876 110.328 224.132 110.28 224.38 110.184C224.636 110.088 224.86 109.948 225.052 109.764C225.252 109.58 225.412 109.348 225.532 109.068C225.652 108.788 225.712 108.464 225.712 108.096C225.712 107.728 225.652 107.408 225.532 107.136C225.412 106.864 225.252 106.64 225.052 106.464C224.852 106.28 224.624 106.144 224.368 106.056C224.12 105.96 223.864 105.912 223.6 105.912C223.336 105.912 223.076 105.96 222.82 106.056C222.572 106.144 222.348 106.28 222.148 106.464C221.956 106.64 221.8 106.864 221.68 107.136C221.56 107.408 221.5 107.728 221.5 108.096ZM229.984 111.048L227.236 105.324V105.216H228.256L229.24 107.388L230.2 109.632L231.16 107.352L232.108 105.216H233.116V105.324L230.38 111.048H229.984ZM234.187 103.308C234.187 103.108 234.247 102.96 234.367 102.864C234.495 102.768 234.631 102.72 234.775 102.72C234.927 102.72 235.063 102.768 235.183 102.864C235.311 102.96 235.375 103.108 235.375 103.308C235.375 103.508 235.311 103.66 235.183 103.764C235.063 103.86 234.927 103.908 234.775 103.908C234.631 103.908 234.495 103.86 234.367 103.764C234.247 103.66 234.187 103.508 234.187 103.308ZM235.243 111H234.307V105.216H235.243V111ZM241.572 111V107.58C241.572 107.052 241.42 106.64 241.116 106.344C240.82 106.04 240.432 105.888 239.952 105.888C239.704 105.888 239.476 105.928 239.268 106.008C239.06 106.088 238.876 106.2 238.716 106.344C238.564 106.488 238.444 106.664 238.356 106.872C238.268 107.072 238.224 107.292 238.224 107.532V111H237.288V106.872C237.288 106.68 237.28 106.52 237.264 106.392C237.256 106.264 237.228 106.164 237.18 106.092C237.132 106.02 237.064 105.976 236.976 105.96C236.888 105.936 236.768 105.932 236.616 105.948L236.604 105.204C236.772 105.18 236.948 105.16 237.132 105.144C237.316 105.128 237.484 105.144 237.636 105.192C237.788 105.232 237.912 105.32 238.008 105.456C238.112 105.592 238.164 105.8 238.164 106.08C238.42 105.688 238.72 105.428 239.064 105.3C239.416 105.172 239.796 105.108 240.204 105.108C240.588 105.108 240.924 105.172 241.212 105.3C241.5 105.42 241.74 105.592 241.932 105.816C242.124 106.032 242.268 106.292 242.364 106.596C242.468 106.9 242.52 107.228 242.52 107.58V111H241.572ZM248.479 110.568C248.167 110.768 247.855 110.916 247.543 111.012C247.231 111.108 246.927 111.16 246.631 111.168C246.255 111.184 245.899 111.128 245.563 111C245.235 110.864 244.947 110.668 244.699 110.412C244.459 110.148 244.267 109.828 244.123 109.452C243.979 109.068 243.907 108.628 243.907 108.132C243.907 107.628 243.987 107.188 244.147 106.812C244.315 106.436 244.539 106.124 244.819 105.876C245.107 105.628 245.443 105.444 245.827 105.324C246.219 105.196 246.639 105.132 247.087 105.132C247.495 105.132 247.891 105.18 248.275 105.276C248.659 105.372 249.031 105.5 249.391 105.66V111.408C249.391 111.912 249.319 112.328 249.175 112.656C249.031 112.992 248.835 113.26 248.587 113.46C248.339 113.66 248.047 113.8 247.711 113.88C247.383 113.96 247.035 114 246.667 114C246.283 114 245.887 113.944 245.479 113.832C245.079 113.72 244.691 113.56 244.315 113.352L244.471 112.584C244.807 112.768 245.163 112.92 245.539 113.04C245.923 113.16 246.295 113.216 246.655 113.208C246.903 113.208 247.135 113.188 247.351 113.148C247.575 113.108 247.771 113.028 247.939 112.908C248.107 112.788 248.239 112.612 248.335 112.38C248.431 112.156 248.479 111.856 248.479 111.48V110.568ZM248.467 106.2C247.987 106.016 247.519 105.924 247.063 105.924C246.759 105.924 246.471 105.972 246.199 106.068C245.935 106.156 245.703 106.292 245.503 106.476C245.303 106.652 245.143 106.88 245.023 107.16C244.903 107.432 244.843 107.752 244.843 108.12C244.843 108.496 244.895 108.824 244.999 109.104C245.103 109.384 245.243 109.62 245.419 109.812C245.595 109.996 245.799 110.136 246.031 110.232C246.271 110.32 246.523 110.364 246.787 110.364C247.059 110.364 247.335 110.316 247.615 110.22C247.903 110.116 248.187 109.96 248.467 109.752V106.2ZM256.719 111.408C256.559 111.792 256.391 112.168 256.215 112.536C256.039 112.904 255.827 113.208 255.579 113.448C255.339 113.696 255.051 113.856 254.715 113.928C254.387 114 253.987 113.932 253.515 113.724L253.647 113.028C253.919 113.156 254.155 113.212 254.355 113.196C254.563 113.18 254.739 113.112 254.883 112.992C255.035 112.88 255.167 112.724 255.279 112.524C255.391 112.324 255.495 112.104 255.591 111.864L255.927 111.048L253.275 105.324V105.228H254.271L255.423 107.796L256.371 110.088H256.383L257.259 107.82L258.315 105.228H259.263V105.324L256.719 111.408ZM266.046 108.096C266.046 108.6 265.958 109.04 265.782 109.416C265.606 109.792 265.374 110.108 265.086 110.364C264.798 110.612 264.47 110.8 264.102 110.928C263.734 111.048 263.358 111.108 262.974 111.108C262.598 111.108 262.226 111.044 261.858 110.916C261.498 110.788 261.174 110.6 260.886 110.352C260.606 110.096 260.378 109.784 260.202 109.416C260.034 109.04 259.95 108.6 259.95 108.096C259.95 107.592 260.038 107.152 260.214 106.776C260.39 106.4 260.622 106.092 260.91 105.852C261.198 105.604 261.522 105.42 261.882 105.3C262.25 105.172 262.626 105.108 263.01 105.108C263.394 105.108 263.766 105.172 264.126 105.3C264.494 105.42 264.818 105.604 265.098 105.852C265.386 106.1 265.614 106.412 265.782 106.788C265.958 107.156 266.046 107.592 266.046 108.096ZM260.898 108.096C260.898 108.464 260.958 108.788 261.078 109.068C261.198 109.348 261.358 109.58 261.558 109.764C261.758 109.948 261.982 110.088 262.23 110.184C262.486 110.28 262.746 110.328 263.01 110.328C263.274 110.328 263.53 110.28 263.778 110.184C264.034 110.088 264.258 109.948 264.45 109.764C264.65 109.58 264.81 109.348 264.93 109.068C265.05 108.788 265.11 108.464 265.11 108.096C265.11 107.728 265.05 107.408 264.93 107.136C264.81 106.864 264.65 106.64 264.45 106.464C264.25 106.28 264.022 106.144 263.766 106.056C263.518 105.96 263.262 105.912 262.998 105.912C262.734 105.912 262.474 105.96 262.218 106.056C261.97 106.144 261.746 106.28 261.546 106.464C261.354 106.64 261.198 106.864 261.078 107.136C260.958 107.408 260.898 107.728 260.898 108.096ZM272.522 105.216V109.452C272.522 109.668 272.53 109.84 272.546 109.968C272.562 110.088 272.594 110.184 272.642 110.256C272.69 110.32 272.758 110.36 272.846 110.376C272.934 110.384 273.054 110.38 273.206 110.364L273.218 111.012C272.994 111.052 272.782 111.072 272.582 111.072C272.39 111.08 272.222 111.056 272.078 111C271.934 110.936 271.822 110.836 271.742 110.7C271.67 110.556 271.642 110.356 271.658 110.1C271.546 110.3 271.414 110.468 271.262 110.604C271.11 110.732 270.942 110.836 270.758 110.916C270.582 110.988 270.394 111.036 270.194 111.06C269.994 111.092 269.794 111.108 269.594 111.108C269.21 111.108 268.878 111.044 268.598 110.916C268.326 110.788 268.102 110.612 267.926 110.388C267.75 110.156 267.622 109.888 267.542 109.584C267.462 109.28 267.422 108.948 267.422 108.588V105.216H268.37V108.588C268.362 109.116 268.49 109.54 268.754 109.86C269.018 110.18 269.39 110.34 269.87 110.34C270.374 110.34 270.786 110.184 271.106 109.872C271.426 109.552 271.586 109.12 271.586 108.576V105.216H272.522ZM275.581 106.032C275.757 105.696 276.001 105.46 276.313 105.324C276.625 105.18 276.965 105.108 277.333 105.108C277.837 105.108 278.289 105.252 278.689 105.54L278.461 106.332C278.277 106.212 278.081 106.12 277.873 106.056C277.673 105.984 277.461 105.948 277.237 105.948C277.029 105.948 276.829 105.984 276.637 106.056C276.445 106.128 276.273 106.228 276.121 106.356C275.977 106.484 275.861 106.644 275.773 106.836C275.685 107.02 275.641 107.224 275.641 107.448V111H274.717V106.62C274.717 106.492 274.713 106.376 274.705 106.272C274.697 106.16 274.669 106.072 274.621 106.008C274.581 105.936 274.513 105.884 274.417 105.852C274.321 105.82 274.189 105.812 274.021 105.828L274.009 105.204C274.233 105.164 274.437 105.144 274.621 105.144C274.813 105.144 274.977 105.172 275.113 105.228C275.257 105.284 275.369 105.376 275.449 105.504C275.529 105.632 275.573 105.808 275.581 106.032ZM283.394 102.204V108.924C283.394 109.204 283.406 109.436 283.43 109.62C283.454 109.804 283.502 109.956 283.574 110.076C283.646 110.188 283.742 110.268 283.862 110.316C283.99 110.364 284.15 110.388 284.342 110.388C284.486 110.388 284.654 110.376 284.846 110.352L284.882 111.036C284.754 111.052 284.638 111.068 284.534 111.084C284.438 111.1 284.322 111.108 284.186 111.108C283.562 111.108 283.114 110.936 282.842 110.592C282.578 110.248 282.446 109.692 282.446 108.924V102.204H283.394ZM291.534 108.096C291.534 108.6 291.446 109.04 291.27 109.416C291.094 109.792 290.862 110.108 290.574 110.364C290.286 110.612 289.958 110.8 289.59 110.928C289.222 111.048 288.846 111.108 288.462 111.108C288.086 111.108 287.714 111.044 287.346 110.916C286.986 110.788 286.662 110.6 286.374 110.352C286.094 110.096 285.866 109.784 285.69 109.416C285.522 109.04 285.438 108.6 285.438 108.096C285.438 107.592 285.526 107.152 285.702 106.776C285.878 106.4 286.11 106.092 286.398 105.852C286.686 105.604 287.01 105.42 287.37 105.3C287.738 105.172 288.114 105.108 288.498 105.108C288.882 105.108 289.254 105.172 289.614 105.3C289.982 105.42 290.306 105.604 290.586 105.852C290.874 106.1 291.102 106.412 291.27 106.788C291.446 107.156 291.534 107.592 291.534 108.096ZM286.386 108.096C286.386 108.464 286.446 108.788 286.566 109.068C286.686 109.348 286.846 109.58 287.046 109.764C287.246 109.948 287.47 110.088 287.718 110.184C287.974 110.28 288.234 110.328 288.498 110.328C288.762 110.328 289.018 110.28 289.266 110.184C289.522 110.088 289.746 109.948 289.938 109.764C290.138 109.58 290.298 109.348 290.418 109.068C290.538 108.788 290.598 108.464 290.598 108.096C290.598 107.728 290.538 107.408 290.418 107.136C290.298 106.864 290.138 106.64 289.938 106.464C289.738 106.28 289.51 106.144 289.254 106.056C289.006 105.96 288.75 105.912 288.486 105.912C288.222 105.912 287.962 105.96 287.706 106.056C287.458 106.144 287.234 106.28 287.034 106.464C286.842 106.64 286.686 106.864 286.566 107.136C286.446 107.408 286.386 107.728 286.386 108.096ZM296.87 109.956C296.766 110.156 296.63 110.328 296.462 110.472C296.294 110.616 296.106 110.736 295.898 110.832C295.698 110.928 295.482 110.996 295.25 111.036C295.026 111.084 294.806 111.108 294.59 111.108C294.326 111.108 294.07 111.076 293.822 111.012C293.574 110.948 293.354 110.848 293.162 110.712C292.978 110.568 292.83 110.392 292.718 110.184C292.606 109.968 292.55 109.712 292.55 109.416C292.55 109.096 292.606 108.816 292.718 108.576C292.838 108.336 292.998 108.136 293.198 107.976C293.406 107.816 293.642 107.696 293.906 107.616C294.17 107.536 294.454 107.496 294.758 107.496C295.094 107.496 295.438 107.528 295.79 107.592C296.142 107.648 296.462 107.756 296.75 107.916V107.076C296.75 106.836 296.69 106.636 296.57 106.476C296.458 106.316 296.31 106.192 296.126 106.104C295.95 106.016 295.754 105.956 295.538 105.924C295.33 105.884 295.126 105.864 294.926 105.864C294.59 105.864 294.274 105.9 293.978 105.972C293.682 106.036 293.41 106.14 293.162 106.284L293.006 105.54C293.286 105.396 293.602 105.288 293.954 105.216C294.314 105.144 294.686 105.108 295.07 105.108C295.398 105.108 295.714 105.14 296.018 105.204C296.33 105.268 296.602 105.38 296.834 105.54C297.074 105.692 297.262 105.896 297.398 106.152C297.542 106.408 297.61 106.724 297.602 107.1V109.512C297.602 109.672 297.602 109.816 297.602 109.944C297.61 110.064 297.634 110.164 297.674 110.244C297.714 110.324 297.778 110.38 297.866 110.412C297.962 110.444 298.098 110.448 298.274 110.424L298.286 111.036C298.046 111.076 297.838 111.092 297.662 111.084C297.486 111.076 297.338 111.032 297.218 110.952C297.098 110.872 297.01 110.752 296.954 110.592C296.898 110.432 296.87 110.22 296.87 109.956ZM296.738 108.636C296.554 108.524 296.298 108.428 295.97 108.348C295.642 108.268 295.31 108.228 294.974 108.228C294.79 108.228 294.606 108.248 294.422 108.288C294.246 108.328 294.086 108.392 293.942 108.48C293.806 108.568 293.694 108.684 293.606 108.828C293.518 108.972 293.474 109.148 293.474 109.356C293.474 109.54 293.51 109.696 293.582 109.824C293.654 109.944 293.75 110.04 293.87 110.112C293.99 110.184 294.126 110.236 294.278 110.268C294.438 110.292 294.598 110.304 294.758 110.304C294.95 110.304 295.146 110.28 295.346 110.232C295.554 110.184 295.75 110.108 295.934 110.004C296.126 109.9 296.29 109.768 296.426 109.608C296.57 109.44 296.674 109.24 296.738 109.008V108.636ZM303.986 111V107.58C303.986 107.052 303.834 106.64 303.53 106.344C303.234 106.04 302.846 105.888 302.366 105.888C302.118 105.888 301.89 105.928 301.682 106.008C301.474 106.088 301.29 106.2 301.13 106.344C300.978 106.488 300.858 106.664 300.77 106.872C300.682 107.072 300.638 107.292 300.638 107.532V111H299.702V106.872C299.702 106.68 299.694 106.52 299.678 106.392C299.67 106.264 299.642 106.164 299.594 106.092C299.546 106.02 299.478 105.976 299.39 105.96C299.302 105.936 299.182 105.932 299.03 105.948L299.018 105.204C299.186 105.18 299.362 105.16 299.546 105.144C299.73 105.128 299.898 105.144 300.05 105.192C300.202 105.232 300.326 105.32 300.422 105.456C300.526 105.592 300.578 105.8 300.578 106.08C300.834 105.688 301.134 105.428 301.478 105.3C301.83 105.172 302.21 105.108 302.618 105.108C303.002 105.108 303.338 105.172 303.626 105.3C303.914 105.42 304.154 105.592 304.346 105.816C304.538 106.032 304.682 106.292 304.778 106.596C304.882 106.9 304.934 107.228 304.934 107.58V111H303.986Z" fill="#595959"/>
</g>
</g>
<defs>
<filter id="filter0_d_901_2774" x="0" y="0" width="368" height="161" filterUnits="userSpaceOnUse" color-interpolation-filters="sRGB">
<feFlood flood-opacity="0" result="BackgroundImageFix"/>
<feColorMatrix in="SourceAlpha" type="matrix" values="0 0 0 0 0 0 0 0 0 0 0 0 0 0 0 0 0 0 127 0" result="hardAlpha"/>
<feOffset dy="4"/>
<feGaussianBlur stdDeviation="10"/>
<feColorMatrix type="matrix" values="0 0 0 0 0 0 0 0 0 0.228917 0 0 0 0 0.341667 0 0 0 0.05 0"/>
<feBlend mode="normal" in2="BackgroundImageFix" result="effect1_dropShadow_901_2774"/>
<feBlend mode="normal" in="SourceGraphic" in2="effect1_dropShadow_901_2774" result="shape"/>
</filter>
<clipPath id="clip0_901_2774">
<rect x="20" y="16" width="328" height="121" rx="12" fill="white"/>
</clipPath>
</defs>
</svg>
