<svg width="360" height="161" viewBox="0 0 360 161" fill="none" xmlns="http://www.w3.org/2000/svg">
<g filter="url(#filter0_d_119_3461)">
<g clip-path="url(#clip0_119_3461)">
<rect x="16" y="16" width="328" height="121" rx="12" fill="#E6F6FA"/>
<circle cx="116" cy="-9" r="94" fill="#CCEDFA"/>
<circle cx="289.5" cy="122.5" r="31.5" fill="#CCEDFA"/>
<path d="M90.2818 69.6741C90.8926 69.6741 91.3907 69.1804 91.3651 68.5721C91.2285 65.311 90.4856 62.1034 89.1741 59.1123C88.9293 58.5544 88.2645 58.3278 87.7152 58.5945C87.1653 58.8612 86.9399 59.5201 87.1824 60.079C88.3487 62.768 89.0159 65.6459 89.1496 68.5722C89.1775 69.1803 89.6705 69.6741 90.2818 69.6741Z" fill="#008A00"/>
<path d="M87.3725 57.9214C87.9133 57.6385 88.1239 56.9709 87.8177 56.4441C86.5916 54.3364 85.078 52.4078 83.3209 50.7135C82.8817 50.2901 82.1803 50.3321 81.7739 50.7868C81.3674 51.2415 81.41 51.9364 81.8475 52.3616C83.4077 53.8774 84.7559 55.5956 85.8555 57.4698C86.1641 57.9954 86.8312 58.2044 87.3725 57.9214Z" fill="#8CCF54"/>
<path d="M82.174 49.1136C82.4774 48.7833 82.4499 48.2685 82.1038 47.9827C80.1553 46.3739 77.7416 44.7937 75.4264 43.7927C75.018 43.6161 74.5519 43.8269 74.396 44.2422L73.2137 47.3916C73.0593 47.803 73.268 48.26 73.6747 48.4298C75.6289 49.2461 77.2166 50.2248 78.8492 51.5739C79.1853 51.8517 79.6828 51.8258 79.9776 51.5048L82.174 49.1136Z" fill="#FCD800"/>
<path d="M73.1748 45.7688C73.3743 45.1934 73.0682 44.5635 72.4825 44.3891C70.3024 43.7396 68.0474 43.3726 65.7732 43.297C65.1622 43.2767 64.6707 43.7767 64.6758 44.3855C64.681 44.9942 65.1809 45.481 65.7917 45.5036C67.8139 45.5785 69.8188 45.9048 71.7596 46.475C72.3459 46.6472 72.9754 46.3443 73.1748 45.7688Z" fill="#FF871F"/>
<path d="M39.4965 69.675C38.8853 69.675 38.3873 69.1811 38.4128 68.5728C38.6839 62.1089 41.3318 55.954 45.8738 51.2933C50.4159 46.6326 56.5141 43.813 62.9933 43.3504C63.603 43.3069 64.1135 43.7878 64.1317 44.3963C64.1499 45.0048 63.669 45.5102 63.0595 45.5561C57.1559 46.0001 51.6034 48.5794 47.4622 52.8287C43.3211 57.078 40.898 62.6826 40.6285 68.573C40.6006 69.1811 40.1077 69.675 39.4965 69.675Z" fill="#E15825"/>
<path opacity="0.8" fill-rule="evenodd" clip-rule="evenodd" d="M87.0429 68.8417C87.3491 61.0084 79.8767 48.0796 65.4073 48.0796C49.2146 48.0796 43.2925 60.9429 42.9796 68.7821C42.9652 69.1425 43.26 69.4333 43.6222 69.4333H64.9851H86.4059C86.7446 69.4333 87.0292 69.1787 87.0429 68.8417ZM57.1062 69.432C57.1062 65.076 60.6518 61.5447 65.0255 61.5447C69.3992 61.5447 72.9449 65.076 72.9449 69.432H57.1062Z" fill="#00A6CA"/>
<path d="M70.3422 69.4111H59.1152C59.1152 67.4295 60.5916 63.8931 64.8363 63.8931C68.6197 63.8931 70.5267 67.4295 70.3422 69.4111Z" fill="#FCD800"/>
<path d="M71.9929 50.0788L63.8384 66.7323C63.5825 67.2564 63.8234 67.8838 64.369 68.114C64.9146 68.3443 65.5463 68.0852 65.7603 67.5434L72.7911 50.4158C72.8753 50.2026 72.7721 49.9624 72.5575 49.8719C72.3429 49.7813 72.0935 49.8726 71.9929 50.0788Z" fill="#2C2C2C"/>
<path fill-rule="evenodd" clip-rule="evenodd" d="M47.5271 64.7534L53.0376 84.0129L57.0581 98.208H59.9906L55.7182 64.7534H47.5271Z" fill="#47447C"/>
<path fill-rule="evenodd" clip-rule="evenodd" d="M46.0536 64.7534C45.926 74.68 45.4914 80.0942 45.3576 80.9961C45.2238 81.8979 43.2003 87.6352 39.2871 98.208H42.3249C47.3067 88.0653 50.0876 82.3279 50.6678 80.9961C51.2479 79.6642 53.0382 74.2499 55.7349 64.7534H46.0536Z" fill="#5F5BA9"/>
<path fill-rule="evenodd" clip-rule="evenodd" d="M39.7164 101.271L39.8684 98.0923H43.0603C44.5738 99.1519 46.5497 100.01 48.9881 100.666V101.271H43.2123L41.2364 100.968V101.271H39.7164Z" fill="#191847"/>
<path fill-rule="evenodd" clip-rule="evenodd" d="M57.3478 101.271L57.4998 98.0923H60.6917C62.2051 99.1519 64.1811 100.01 66.6194 100.666V101.271H60.8437L58.8677 100.968V101.271H57.3478Z" fill="#191847"/>
<path fill-rule="evenodd" clip-rule="evenodd" d="M61.5106 59.8991L66.8539 57.1478C67.7558 56.1314 68.6393 55.3464 69.5043 54.7928C69.767 54.6908 70.2235 54.6362 69.7801 55.378C69.3366 56.1198 68.9037 56.92 69.1148 57.1568C69.3259 57.3937 69.8742 57.0829 70.1234 57.4739C70.2896 57.7347 69.3567 58.118 67.3245 58.6241L63.4083 62.0275L61.5106 59.8991Z" fill="#D6A97F"/>
<path d="M42.528 65.6908L40.3235 65.0762C38.9931 69.4924 38.2021 71.9122 37.9505 72.3355C37.766 72.6458 36.509 73.5355 35.646 74.0329C35.2997 74.2325 35.4137 74.5305 35.5321 74.6164C36.4953 75.3149 37.2175 74.631 38.1238 74.2924C39.1167 73.9214 38.9392 75.1695 39.7253 74.8889C39.532 74.3502 39.3533 73.3655 39.6601 72.7488C39.7965 72.4747 40.6981 70.4066 42.528 65.6908Z" fill="#D6A97F"/>
<path fill-rule="evenodd" clip-rule="evenodd" d="M50.9475 49.0981L52.156 49.2963C55.0187 52.062 54.6965 58.8757 56.6043 59.7553C58.2898 60.5323 61.0955 58.5927 63.8082 58.5927C64.0039 58.5211 64.2014 58.4494 64.4006 58.3782L65.4876 60.1825C65.3677 60.3117 65.2419 60.4416 65.1108 60.5718C65.1108 62.7097 57.7831 65.602 55.502 64.2291C51.6895 61.9347 50.8093 53.7397 50.9475 49.0981Z" fill="#B11030"/>
<path fill-rule="evenodd" clip-rule="evenodd" d="M50.4881 46.5013C49.7714 45.6635 49.2865 44.6368 49.3675 43.4864C49.601 40.1718 54.2338 40.901 55.135 42.5739C56.0362 44.2469 55.9291 48.4904 54.7644 48.7894C54.3 48.9087 53.3105 48.6166 52.3034 48.0121L52.9355 52.4659H49.2031L50.4881 46.5013Z" fill="#D6A97F"/>
<path fill-rule="evenodd" clip-rule="evenodd" d="M51.649 44.7012C51.5269 44.6176 51.3811 44.5669 51.2244 44.5669C50.795 44.5669 50.4469 44.9483 50.4469 45.3413C50.4469 45.7502 50.6407 46.0664 50.9176 46.2005C50.7697 46.4884 50.621 46.6974 50.4469 46.7353C49.7747 46.6676 48.8917 45.0037 48.8917 43.6376C48.8917 42.1422 50.0864 40.8496 52.313 40.8496C54.3144 40.8496 55.0732 41.6715 55.1123 42.3985C54.2547 42.6332 52.7561 42.7236 50.6024 42.7082V42.8631L52.4685 43.018L52.7796 43.9474C52.2847 43.9106 51.9311 44.2486 51.649 44.7012Z" fill="#262626"/>
<path fill-rule="evenodd" clip-rule="evenodd" d="M53.4472 50.5282C53.3198 58.6422 56.2326 63.597 57.0973 68.6001C57.9208 74.7924 46.9483 73.1213 45.5135 70.4865C44.9327 69.4199 44.7447 65.6064 45.5135 63.1508C44.7913 63.9079 44.8857 64.0254 44.0259 65.3548C42.9268 67.4265 42.0183 66.7793 42.0183 67.2961L39.8302 66.5172C39.9577 65.815 39.5926 65.8656 39.8301 64.2971C40.8948 57.2691 44.3728 52.7531 49.0291 49.5924L49.0773 48.9062C49.097 48.6258 49.3413 48.4143 49.6229 48.4339L53.065 48.6736C53.3466 48.6932 53.559 48.9365 53.5393 49.217L53.4472 50.5282Z" fill="#FF7171"/>
<path d="M47.5576 58.6553L45.4578 63.0887C44.7187 65.8324 45.02 68.8793 45.328 70.0503L47.5576 58.6553Z" fill="#B11030"/>
<path d="M88.3527 47.4678C86.0314 47.4678 84.1501 45.5939 84.1501 43.2825C84.1501 40.971 86.0314 39.0972 88.3527 39.0972C90.6735 39.0972 92.5548 40.971 92.5548 43.2825C92.5548 45.5939 90.6735 47.4678 88.3527 47.4678Z" fill="#44BA74"/>
<path fill-rule="evenodd" clip-rule="evenodd" d="M86.197 43.4739C86.3171 43.3544 86.5118 43.3544 86.6319 43.474L87.7129 44.5508C87.833 44.6704 87.833 44.8642 87.7129 44.9837C87.5928 45.1033 87.3981 45.1033 87.278 44.9837L86.197 43.9069C86.0769 43.7873 86.0769 43.5935 86.197 43.4739Z" fill="#FBE8EC"/>
<path fill-rule="evenodd" clip-rule="evenodd" d="M90.7361 41.5804C90.616 41.4608 90.4213 41.4608 90.3012 41.5804L87.3196 44.5501C87.1995 44.6697 87.1995 44.8635 87.3196 44.983C87.4397 45.1026 87.6344 45.1026 87.7545 44.983L90.7361 42.0134C90.8562 41.8938 90.8562 41.7 90.7361 41.5804Z" fill="#FBE8EC"/>
<path opacity="0.2" d="M66.8577 101.271C66.8577 102.15 59.8821 102.862 51.2772 102.862C42.6724 102.862 35.6968 102.15 35.6968 101.271C35.6968 100.393 42.6724 99.6812 51.2772 99.6812C59.8821 99.6812 66.8577 100.393 66.8577 101.271Z" fill="black"/>
<path d="M108.672 48.416C108.672 44.688 111.456 42.592 114.4 42.64C116.656 42.64 119.056 43.856 119.568 46.624H117.248C116.752 45.36 115.744 44.8 114.4 44.8C112.416 44.8 111.088 46.288 111.088 48.416C111.088 50.336 112.384 51.984 114.384 51.984C115.776 51.984 116.912 51.328 117.296 49.968H119.6C119.12 52.928 116.736 54.16 114.4 54.16C111.456 54.16 108.672 52.128 108.672 48.416ZM128.796 54H126.54V49.536C126.588 48.448 125.948 47.904 125.116 47.904C124.22 47.888 123.468 48.512 123.468 49.584V54H121.212V42.32H123.468V47.12C123.964 46.432 124.796 46.128 125.756 46.128C127.964 46.128 128.796 47.552 128.796 49.536V54ZM134.358 46.128C137.174 46.128 138.358 48.144 137.766 50.768H132.55C132.694 52.032 133.766 52.304 134.598 52.384C135.558 52.432 136.534 52.288 137.462 51.904L137.718 53.488C136.806 53.92 135.75 54.16 134.726 54.16C132.134 54.208 130.31 52.656 130.31 50.048C130.358 47.36 132.31 46.128 134.358 46.128ZM134.358 47.744C133.238 47.744 132.758 48.416 132.566 49.344H135.958C136.006 48.336 135.414 47.744 134.358 47.744ZM147.027 49.072H144.899C144.627 48.352 144.051 48.048 143.283 48.048C142.227 48.048 141.331 48.736 141.331 50.112C141.331 51.504 142.227 52.288 143.283 52.288C143.987 52.288 144.659 51.856 144.931 51.04H147.059C146.739 53.104 144.995 54.144 143.219 54.16C141.187 54.176 139.107 52.832 139.107 50.112C139.107 47.408 141.203 46.128 143.235 46.128C144.979 46.128 146.675 47.056 147.027 49.072ZM150.827 49.12H151.371C153.147 49.12 153.595 47.872 153.595 46.288H155.707C155.755 47.92 155.387 49.28 153.867 50.08L156.075 53.76V53.984H153.819L151.979 50.784C151.786 50.848 151.579 50.88 151.339 50.88H150.827V53.984H148.603V42.304H150.827V49.12ZM168.671 46.544L165.471 54.752C164.495 57.264 163.423 58.592 160.623 57.568L160.863 56.016C162.127 56.576 162.783 56.096 163.231 54.816L163.519 54.016L160.143 46.544V46.288H162.495L163.535 48.896L164.543 51.744H164.591L165.471 48.912L166.399 46.288H168.671V46.544ZM177.502 50.112C177.502 52.816 175.47 54.16 173.438 54.16C171.39 54.16 169.326 52.816 169.326 50.112C169.326 47.44 171.342 46.144 173.374 46.128C175.438 46.112 177.502 47.392 177.502 50.112ZM171.55 50.112C171.55 51.504 172.462 52.208 173.39 52.208C174.334 52.224 175.278 51.52 175.278 50.112C175.278 48.736 174.382 48.096 173.438 48.096C172.494 48.096 171.55 48.72 171.55 50.112ZM184.206 46.288H186.446V51.696C186.446 52.416 186.478 52.672 187.166 52.624L187.182 53.984C186.094 54.24 184.366 54.384 184.366 52.896C183.934 53.792 182.814 54.16 181.902 54.16C179.678 54.16 179.038 52.64 179.038 50.72V46.288H181.294V50.72C181.294 51.952 181.838 52.4 182.622 52.4C183.518 52.416 184.206 51.712 184.206 50.672V46.288ZM191.142 47.44C191.462 46.56 192.438 46.128 193.382 46.128C193.974 46.112 194.582 46.288 195.03 46.624L194.534 48.496C194.07 48.192 193.59 48.064 193.094 48.08C192.118 48.08 191.286 48.72 191.286 49.904V54H189.094V48.64C189.094 48 189.03 47.584 188.326 47.696V46.32C189.446 46.064 191.014 46.064 191.142 47.44ZM199.344 48.416C199.344 44.688 202.128 42.592 205.072 42.64C207.328 42.64 209.728 43.856 210.24 46.624H207.92C207.424 45.36 206.416 44.8 205.072 44.8C203.088 44.8 201.76 46.288 201.76 48.416C201.76 50.336 203.056 51.984 205.056 51.984C206.448 51.984 207.584 51.328 207.968 49.968H210.272C209.792 52.928 207.408 54.16 205.072 54.16C202.128 54.16 199.344 52.128 199.344 48.416ZM215.548 52.096H217.132V54H211.564V52.096H213.148V44.656H211.692V42.8H217.004V44.656H215.548V52.096ZM227.443 46.128C227.443 46.944 227.027 47.76 226.323 48.192C227.363 48.624 227.923 49.536 227.923 50.688C227.923 52.656 226.611 54 224.371 54H219.171V42.816H223.923C225.971 42.816 227.443 44.032 227.443 46.128ZM223.747 44.864H221.555V47.408H223.747C224.563 47.408 225.075 46.96 225.091 46.208C225.107 45.392 224.579 44.864 223.747 44.864ZM224.099 49.36H221.555V51.92H224.211C225.027 51.92 225.507 51.44 225.555 50.688C225.571 50.24 225.395 49.824 225.059 49.584C224.787 49.392 224.467 49.36 224.099 49.36ZM233.235 52.096H234.819V54H229.251V52.096H230.835V44.656H229.379V42.8H234.691V44.656H233.235V52.096ZM239.243 42.8V51.856H243.915V54H236.843V42.8H239.243ZM248.185 51.6H250.425C250.441 52.24 251.049 52.528 251.689 52.512C252.345 52.512 253.001 52.32 253.017 51.632C253.017 51.056 252.457 50.992 251.913 50.912C250.361 50.704 248.345 50.544 248.345 48.672C248.345 46.944 249.769 46.128 251.657 46.128C253.497 46.128 255.081 46.96 255.001 48.592H252.889C252.873 48.032 252.329 47.808 251.689 47.808C251.049 47.808 250.505 48.096 250.505 48.608C250.505 49.184 251.113 49.216 251.609 49.264C253.337 49.472 255.305 49.552 255.257 51.616C255.209 53.456 253.529 54.16 251.785 54.16C250.041 54.16 248.265 53.648 248.185 51.6ZM264.293 49.072H262.165C261.893 48.352 261.317 48.048 260.549 48.048C259.493 48.048 258.597 48.736 258.597 50.112C258.597 51.504 259.493 52.288 260.549 52.288C261.253 52.288 261.925 51.856 262.197 51.04H264.325C264.005 53.104 262.261 54.144 260.485 54.16C258.453 54.176 256.373 52.832 256.373 50.112C256.373 47.408 258.469 46.128 260.501 46.128C262.245 46.128 263.941 47.056 264.293 49.072ZM273.58 50.112C273.58 52.816 271.548 54.16 269.516 54.16C267.468 54.16 265.404 52.816 265.404 50.112C265.404 47.44 267.42 46.144 269.452 46.128C271.516 46.112 273.58 47.392 273.58 50.112ZM267.628 50.112C267.628 51.504 268.54 52.208 269.468 52.208C270.412 52.224 271.356 51.52 271.356 50.112C271.356 48.736 270.46 48.096 269.516 48.096C268.572 48.096 267.628 48.72 267.628 50.112ZM277.532 47.44C277.852 46.56 278.828 46.128 279.772 46.128C280.364 46.112 280.972 46.288 281.42 46.624L280.924 48.496C280.46 48.192 279.98 48.064 279.484 48.08C278.508 48.08 277.676 48.72 277.676 49.904V54H275.484V48.64C275.484 48 275.42 47.584 274.716 47.696V46.32C275.836 46.064 277.404 46.064 277.532 47.44ZM286.015 46.128C288.831 46.128 290.015 48.144 289.423 50.768H284.207C284.351 52.032 285.423 52.304 286.255 52.384C287.215 52.432 288.191 52.288 289.119 51.904L289.375 53.488C288.463 53.92 287.407 54.16 286.383 54.16C283.791 54.208 281.967 52.656 281.967 50.048C282.015 47.36 283.967 46.128 286.015 46.128ZM286.015 47.744C284.895 47.744 284.415 48.416 284.223 49.344H287.615C287.663 48.336 287.071 47.744 286.015 47.744ZM109.76 74V67.888H108.336V66.304H109.792L109.808 65.328C109.808 62.176 112.24 61.792 114.768 62.56L114.544 64.224C113.392 63.792 111.936 63.728 111.936 65.376V66.304H114.368V67.888H111.936V74H109.76ZM123.205 70.112C123.205 72.816 121.173 74.16 119.141 74.16C117.093 74.16 115.029 72.816 115.029 70.112C115.029 67.44 117.045 66.144 119.077 66.128C121.141 66.112 123.205 67.392 123.205 70.112ZM117.253 70.112C117.253 71.504 118.165 72.208 119.093 72.208C120.037 72.224 120.981 71.52 120.981 70.112C120.981 68.736 120.085 68.096 119.141 68.096C118.197 68.096 117.253 68.72 117.253 70.112ZM127.157 67.44C127.477 66.56 128.453 66.128 129.397 66.128C129.989 66.112 130.597 66.288 131.045 66.624L130.549 68.496C130.085 68.192 129.605 68.064 129.109 68.08C128.133 68.08 127.301 68.72 127.301 69.904V74H125.109V68.64C125.109 68 125.045 67.584 124.341 67.696V66.32C125.461 66.064 127.029 66.064 127.157 67.44ZM136.229 74V67.888H134.805V66.304H136.261L136.277 65.328C136.277 62.176 138.709 61.792 141.237 62.56L141.013 64.224C139.861 63.792 138.405 63.728 138.405 65.376V66.304H140.837V67.888H138.405V74H136.229ZM144.423 67.44C144.743 66.56 145.719 66.128 146.663 66.128C147.255 66.112 147.863 66.288 148.311 66.624L147.815 68.496C147.351 68.192 146.871 68.064 146.375 68.08C145.399 68.08 144.567 68.72 144.567 69.904V74H142.375V68.64C142.375 68 142.311 67.584 141.607 67.696V66.32C142.727 66.064 144.295 66.064 144.423 67.44ZM152.905 66.128C155.721 66.128 156.905 68.144 156.313 70.768H151.097C151.241 72.032 152.313 72.304 153.145 72.384C154.105 72.432 155.081 72.288 156.009 71.904L156.265 73.488C155.353 73.92 154.297 74.16 153.273 74.16C150.681 74.208 148.857 72.656 148.857 70.048C148.905 67.36 150.857 66.128 152.905 66.128ZM152.905 67.744C151.785 67.744 151.305 68.416 151.113 69.344H154.505C154.553 68.336 153.961 67.744 152.905 67.744ZM161.702 66.128C164.518 66.128 165.702 68.144 165.11 70.768H159.894C160.038 72.032 161.11 72.304 161.942 72.384C162.902 72.432 163.878 72.288 164.806 71.904L165.062 73.488C164.15 73.92 163.094 74.16 162.07 74.16C159.478 74.208 157.654 72.656 157.654 70.048C157.702 67.36 159.654 66.128 161.702 66.128ZM161.702 67.744C160.582 67.744 160.102 68.416 159.91 69.344H163.302C163.35 68.336 162.758 67.744 161.702 67.744Z" fill="#262626"/>
<path d="M115.032 88.88C115.032 89.288 114.932 89.648 114.732 89.96C114.54 90.264 114.264 90.484 113.904 90.62C114.384 90.756 114.756 90.996 115.02 91.34C115.284 91.676 115.416 92.108 115.416 92.636C115.416 93.02 115.348 93.36 115.212 93.656C115.084 93.952 114.904 94.2 114.672 94.4C114.44 94.592 114.16 94.74 113.832 94.844C113.504 94.948 113.144 95 112.752 95H109.116V86.6H112.392C112.768 86.6 113.116 86.644 113.436 86.732C113.764 86.82 114.044 86.956 114.276 87.14C114.516 87.324 114.7 87.56 114.828 87.848C114.964 88.136 115.032 88.48 115.032 88.88ZM110.112 87.44V90.296H112.332C112.572 90.296 112.796 90.272 113.004 90.224C113.22 90.176 113.404 90.096 113.556 89.984C113.716 89.872 113.84 89.728 113.928 89.552C114.016 89.376 114.06 89.156 114.06 88.892C114.06 88.62 114.016 88.392 113.928 88.208C113.848 88.024 113.728 87.876 113.568 87.764C113.416 87.652 113.232 87.572 113.016 87.524C112.808 87.468 112.58 87.44 112.332 87.44H110.112ZM110.112 91.136V94.136H112.68C112.928 94.136 113.156 94.108 113.364 94.052C113.572 93.988 113.752 93.896 113.904 93.776C114.064 93.648 114.188 93.492 114.276 93.308C114.364 93.116 114.408 92.892 114.408 92.636C114.416 92.356 114.368 92.12 114.264 91.928C114.168 91.736 114.032 91.584 113.856 91.472C113.68 91.352 113.468 91.268 113.22 91.22C112.98 91.164 112.724 91.136 112.452 91.136H110.112ZM120.827 93.956C120.723 94.156 120.587 94.328 120.419 94.472C120.251 94.616 120.063 94.736 119.855 94.832C119.655 94.928 119.439 94.996 119.207 95.036C118.983 95.084 118.763 95.108 118.547 95.108C118.283 95.108 118.027 95.076 117.779 95.012C117.531 94.948 117.311 94.848 117.119 94.712C116.935 94.568 116.787 94.392 116.675 94.184C116.563 93.968 116.507 93.712 116.507 93.416C116.507 93.096 116.563 92.816 116.675 92.576C116.795 92.336 116.955 92.136 117.155 91.976C117.363 91.816 117.599 91.696 117.863 91.616C118.127 91.536 118.411 91.496 118.715 91.496C119.051 91.496 119.395 91.528 119.747 91.592C120.099 91.648 120.419 91.756 120.707 91.916V91.076C120.707 90.836 120.647 90.636 120.527 90.476C120.415 90.316 120.267 90.192 120.083 90.104C119.907 90.016 119.711 89.956 119.495 89.924C119.287 89.884 119.083 89.864 118.883 89.864C118.547 89.864 118.231 89.9 117.935 89.972C117.639 90.036 117.367 90.14 117.119 90.284L116.963 89.54C117.243 89.396 117.559 89.288 117.911 89.216C118.271 89.144 118.643 89.108 119.027 89.108C119.355 89.108 119.671 89.14 119.975 89.204C120.287 89.268 120.559 89.38 120.791 89.54C121.031 89.692 121.219 89.896 121.355 90.152C121.499 90.408 121.567 90.724 121.559 91.1V93.512C121.559 93.672 121.559 93.816 121.559 93.944C121.567 94.064 121.591 94.164 121.631 94.244C121.671 94.324 121.735 94.38 121.823 94.412C121.919 94.444 122.055 94.448 122.231 94.424L122.243 95.036C122.003 95.076 121.795 95.092 121.619 95.084C121.443 95.076 121.295 95.032 121.175 94.952C121.055 94.872 120.967 94.752 120.911 94.592C120.855 94.432 120.827 94.22 120.827 93.956ZM120.695 92.636C120.511 92.524 120.255 92.428 119.927 92.348C119.599 92.268 119.267 92.228 118.931 92.228C118.747 92.228 118.563 92.248 118.379 92.288C118.203 92.328 118.043 92.392 117.899 92.48C117.763 92.568 117.651 92.684 117.563 92.828C117.475 92.972 117.431 93.148 117.431 93.356C117.431 93.54 117.467 93.696 117.539 93.824C117.611 93.944 117.707 94.04 117.827 94.112C117.947 94.184 118.083 94.236 118.235 94.268C118.395 94.292 118.555 94.304 118.715 94.304C118.907 94.304 119.103 94.28 119.303 94.232C119.511 94.184 119.707 94.108 119.891 94.004C120.083 93.9 120.247 93.768 120.383 93.608C120.527 93.44 120.631 93.24 120.695 93.008V92.636ZM127.943 95V91.58C127.943 91.052 127.791 90.64 127.487 90.344C127.191 90.04 126.803 89.888 126.323 89.888C126.075 89.888 125.847 89.928 125.639 90.008C125.431 90.088 125.247 90.2 125.087 90.344C124.935 90.488 124.815 90.664 124.727 90.872C124.639 91.072 124.595 91.292 124.595 91.532V95H123.659V90.872C123.659 90.68 123.651 90.52 123.635 90.392C123.627 90.264 123.599 90.164 123.551 90.092C123.503 90.02 123.435 89.976 123.347 89.96C123.259 89.936 123.139 89.932 122.987 89.948L122.975 89.204C123.143 89.18 123.319 89.16 123.503 89.144C123.687 89.128 123.855 89.144 124.007 89.192C124.159 89.232 124.283 89.32 124.379 89.456C124.483 89.592 124.535 89.8 124.535 90.08C124.791 89.688 125.091 89.428 125.435 89.3C125.787 89.172 126.167 89.108 126.575 89.108C126.959 89.108 127.295 89.172 127.583 89.3C127.871 89.42 128.111 89.592 128.303 89.816C128.495 90.032 128.639 90.292 128.735 90.596C128.839 90.9 128.891 91.228 128.891 91.58V95H127.943ZM132.355 91.604C133.155 91.604 133.735 91.416 134.095 91.04C134.455 90.664 134.635 90.056 134.635 89.216H135.535C135.535 89.88 135.415 90.452 135.175 90.932C134.935 91.404 134.499 91.764 133.867 92.012L135.811 94.892V95H134.839L133.051 92.3C132.835 92.348 132.599 92.372 132.343 92.372H131.587V95H130.639V86.228H131.587V91.604H132.355ZM137.529 93.368C137.545 93.552 137.601 93.708 137.697 93.836C137.801 93.956 137.929 94.056 138.081 94.136C138.241 94.216 138.417 94.272 138.609 94.304C138.801 94.336 138.993 94.352 139.185 94.352C139.385 94.352 139.581 94.332 139.773 94.292C139.965 94.252 140.137 94.192 140.289 94.112C140.441 94.032 140.565 93.928 140.661 93.8C140.757 93.672 140.809 93.52 140.817 93.344C140.817 93.176 140.781 93.04 140.709 92.936C140.645 92.832 140.545 92.748 140.409 92.684C140.273 92.612 140.101 92.556 139.893 92.516C139.693 92.468 139.461 92.424 139.197 92.384C138.909 92.352 138.621 92.308 138.333 92.252C138.053 92.196 137.797 92.112 137.565 92C137.341 91.888 137.153 91.74 137.001 91.556C136.857 91.364 136.781 91.116 136.773 90.812C136.765 90.516 136.829 90.26 136.965 90.044C137.101 89.828 137.281 89.652 137.505 89.516C137.737 89.372 137.997 89.268 138.285 89.204C138.573 89.14 138.869 89.108 139.173 89.108C139.469 89.108 139.761 89.144 140.049 89.216C140.345 89.28 140.605 89.38 140.829 89.516C141.061 89.652 141.245 89.824 141.381 90.032C141.517 90.24 141.581 90.484 141.573 90.764H140.673C140.673 90.612 140.629 90.48 140.541 90.368C140.461 90.248 140.349 90.152 140.205 90.08C140.069 90 139.909 89.944 139.725 89.912C139.549 89.872 139.365 89.852 139.173 89.852C138.989 89.852 138.805 89.872 138.621 89.912C138.437 89.944 138.273 89.996 138.129 90.068C137.985 90.14 137.869 90.236 137.781 90.356C137.693 90.476 137.653 90.62 137.661 90.788C137.669 91.068 137.805 91.264 138.069 91.376C138.341 91.48 138.745 91.572 139.281 91.652C139.585 91.692 139.885 91.74 140.181 91.796C140.477 91.844 140.741 91.928 140.973 92.048C141.205 92.16 141.389 92.32 141.525 92.528C141.669 92.728 141.737 93 141.729 93.344C141.729 93.64 141.657 93.9 141.513 94.124C141.377 94.34 141.193 94.52 140.961 94.664C140.729 94.808 140.457 94.916 140.145 94.988C139.841 95.06 139.521 95.1 139.185 95.108C138.873 95.108 138.565 95.08 138.261 95.024C137.965 94.968 137.697 94.872 137.457 94.736C137.225 94.6 137.033 94.42 136.881 94.196C136.729 93.972 136.641 93.696 136.617 93.368H137.529ZM150.724 91.016C150.564 90.656 150.324 90.388 150.004 90.212C149.692 90.036 149.352 89.948 148.984 89.948C148.72 89.948 148.456 89.992 148.192 90.08C147.936 90.168 147.704 90.3 147.496 90.476C147.296 90.652 147.132 90.876 147.004 91.148C146.884 91.412 146.824 91.724 146.824 92.084C146.824 92.444 146.884 92.76 147.004 93.032C147.132 93.304 147.292 93.532 147.484 93.716C147.684 93.9 147.908 94.04 148.156 94.136C148.412 94.232 148.672 94.28 148.936 94.28C149.32 94.28 149.68 94.18 150.016 93.98C150.36 93.78 150.612 93.476 150.772 93.068H151.684C151.596 93.412 151.46 93.712 151.276 93.968C151.092 94.224 150.876 94.436 150.628 94.604C150.38 94.772 150.108 94.9 149.812 94.988C149.524 95.068 149.228 95.108 148.924 95.108C148.548 95.108 148.176 95.044 147.808 94.916C147.448 94.788 147.124 94.6 146.836 94.352C146.548 94.096 146.316 93.78 146.14 93.404C145.964 93.02 145.876 92.58 145.876 92.084C145.876 91.58 145.964 91.14 146.14 90.764C146.324 90.388 146.56 90.08 146.848 89.84C147.136 89.592 147.464 89.408 147.832 89.288C148.2 89.168 148.572 89.108 148.948 89.108C149.244 89.108 149.532 89.152 149.812 89.24C150.092 89.32 150.352 89.44 150.592 89.6C150.832 89.752 151.04 89.948 151.216 90.188C151.4 90.428 151.536 90.704 151.624 91.016H150.724ZM157.353 95V91.628C157.361 91.076 157.221 90.648 156.933 90.344C156.645 90.04 156.249 89.888 155.745 89.888C155.217 89.88 154.793 90.04 154.473 90.368C154.161 90.696 154.005 91.128 154.005 91.664V95H153.057V86.228H154.005V90.008C154.261 89.688 154.541 89.46 154.845 89.324C155.149 89.18 155.529 89.108 155.985 89.108C156.777 89.116 157.361 89.352 157.737 89.816C158.121 90.272 158.313 90.876 158.313 91.628V95H157.353ZM162.656 89.108C163.648 89.116 164.36 89.396 164.792 89.948C165.224 90.492 165.36 91.244 165.2 92.204H160.628C160.612 92.54 160.66 92.84 160.772 93.104C160.892 93.36 161.056 93.58 161.264 93.764C161.472 93.948 161.72 94.088 162.008 94.184C162.296 94.28 162.604 94.328 162.932 94.328C163.268 94.328 163.592 94.292 163.904 94.22C164.224 94.148 164.552 94.044 164.888 93.908L165.032 94.616C164.336 94.944 163.628 95.108 162.908 95.108C162.428 95.108 161.988 95.036 161.588 94.892C161.188 94.748 160.844 94.54 160.556 94.268C160.268 93.996 160.048 93.668 159.896 93.284C159.744 92.892 159.676 92.448 159.692 91.952C159.708 91.496 159.796 91.092 159.956 90.74C160.116 90.388 160.328 90.092 160.592 89.852C160.864 89.604 161.176 89.42 161.528 89.3C161.88 89.172 162.256 89.108 162.656 89.108ZM162.656 89.852C162.128 89.852 161.684 89.992 161.324 90.272C160.964 90.552 160.744 90.956 160.664 91.484H164.432C164.448 91.212 164.412 90.976 164.324 90.776C164.236 90.568 164.112 90.396 163.952 90.26C163.792 90.124 163.6 90.024 163.376 89.96C163.152 89.888 162.912 89.852 162.656 89.852ZM171.173 91.016C171.013 90.656 170.773 90.388 170.453 90.212C170.141 90.036 169.801 89.948 169.433 89.948C169.169 89.948 168.905 89.992 168.641 90.08C168.385 90.168 168.153 90.3 167.945 90.476C167.745 90.652 167.581 90.876 167.453 91.148C167.333 91.412 167.273 91.724 167.273 92.084C167.273 92.444 167.333 92.76 167.453 93.032C167.581 93.304 167.741 93.532 167.933 93.716C168.133 93.9 168.357 94.04 168.605 94.136C168.861 94.232 169.121 94.28 169.385 94.28C169.769 94.28 170.129 94.18 170.465 93.98C170.809 93.78 171.061 93.476 171.221 93.068H172.133C172.045 93.412 171.909 93.712 171.725 93.968C171.541 94.224 171.325 94.436 171.077 94.604C170.829 94.772 170.557 94.9 170.261 94.988C169.973 95.068 169.677 95.108 169.373 95.108C168.997 95.108 168.625 95.044 168.257 94.916C167.897 94.788 167.573 94.6 167.285 94.352C166.997 94.096 166.765 93.78 166.589 93.404C166.413 93.02 166.325 92.58 166.325 92.084C166.325 91.58 166.413 91.14 166.589 90.764C166.773 90.388 167.009 90.08 167.297 89.84C167.585 89.592 167.913 89.408 168.281 89.288C168.649 89.168 169.021 89.108 169.397 89.108C169.693 89.108 169.981 89.152 170.261 89.24C170.541 89.32 170.801 89.44 171.041 89.6C171.281 89.752 171.489 89.948 171.665 90.188C171.849 90.428 171.985 90.704 172.073 91.016H171.173ZM175.222 91.604C176.022 91.604 176.602 91.416 176.962 91.04C177.322 90.664 177.502 90.056 177.502 89.216H178.402C178.402 89.88 178.282 90.452 178.042 90.932C177.802 91.404 177.366 91.764 176.734 92.012L178.678 94.892V95H177.706L175.918 92.3C175.702 92.348 175.466 92.372 175.21 92.372H174.454V95H173.506V86.228H174.454V91.604H175.222ZM185.453 95.408C185.293 95.792 185.125 96.168 184.949 96.536C184.773 96.904 184.561 97.208 184.313 97.448C184.073 97.696 183.785 97.856 183.449 97.928C183.121 98 182.721 97.932 182.249 97.724L182.381 97.028C182.653 97.156 182.889 97.212 183.089 97.196C183.297 97.18 183.473 97.112 183.617 96.992C183.769 96.88 183.901 96.724 184.013 96.524C184.125 96.324 184.229 96.104 184.325 95.864L184.661 95.048L182.009 89.324V89.228H183.005L184.157 91.796L185.105 94.088H185.117L185.993 91.82L187.049 89.228H187.997V89.324L185.453 95.408ZM194.781 92.096C194.781 92.6 194.693 93.04 194.517 93.416C194.341 93.792 194.109 94.108 193.821 94.364C193.533 94.612 193.205 94.8 192.837 94.928C192.469 95.048 192.093 95.108 191.709 95.108C191.333 95.108 190.961 95.044 190.593 94.916C190.233 94.788 189.909 94.6 189.621 94.352C189.341 94.096 189.113 93.784 188.937 93.416C188.769 93.04 188.685 92.6 188.685 92.096C188.685 91.592 188.773 91.152 188.949 90.776C189.125 90.4 189.357 90.092 189.645 89.852C189.933 89.604 190.257 89.42 190.617 89.3C190.985 89.172 191.361 89.108 191.745 89.108C192.129 89.108 192.501 89.172 192.861 89.3C193.229 89.42 193.553 89.604 193.833 89.852C194.121 90.1 194.349 90.412 194.517 90.788C194.693 91.156 194.781 91.592 194.781 92.096ZM189.633 92.096C189.633 92.464 189.693 92.788 189.813 93.068C189.933 93.348 190.093 93.58 190.293 93.764C190.493 93.948 190.717 94.088 190.965 94.184C191.221 94.28 191.481 94.328 191.745 94.328C192.009 94.328 192.265 94.28 192.513 94.184C192.769 94.088 192.993 93.948 193.185 93.764C193.385 93.58 193.545 93.348 193.665 93.068C193.785 92.788 193.845 92.464 193.845 92.096C193.845 91.728 193.785 91.408 193.665 91.136C193.545 90.864 193.385 90.64 193.185 90.464C192.985 90.28 192.757 90.144 192.501 90.056C192.253 89.96 191.997 89.912 191.733 89.912C191.469 89.912 191.209 89.96 190.953 90.056C190.705 90.144 190.481 90.28 190.281 90.464C190.089 90.64 189.933 90.864 189.813 91.136C189.693 91.408 189.633 91.728 189.633 92.096ZM201.256 89.216V93.452C201.256 93.668 201.264 93.84 201.28 93.968C201.296 94.088 201.328 94.184 201.376 94.256C201.424 94.32 201.492 94.36 201.58 94.376C201.668 94.384 201.788 94.38 201.94 94.364L201.952 95.012C201.728 95.052 201.516 95.072 201.316 95.072C201.124 95.08 200.956 95.056 200.812 95C200.668 94.936 200.556 94.836 200.476 94.7C200.404 94.556 200.376 94.356 200.392 94.1C200.28 94.3 200.148 94.468 199.996 94.604C199.844 94.732 199.676 94.836 199.492 94.916C199.316 94.988 199.128 95.036 198.928 95.06C198.728 95.092 198.528 95.108 198.328 95.108C197.944 95.108 197.612 95.044 197.332 94.916C197.06 94.788 196.836 94.612 196.66 94.388C196.484 94.156 196.356 93.888 196.276 93.584C196.196 93.28 196.156 92.948 196.156 92.588V89.216H197.104V92.588C197.096 93.116 197.224 93.54 197.488 93.86C197.752 94.18 198.124 94.34 198.604 94.34C199.108 94.34 199.52 94.184 199.84 93.872C200.16 93.552 200.32 93.12 200.32 92.576V89.216H201.256ZM204.315 90.032C204.491 89.696 204.735 89.46 205.047 89.324C205.359 89.18 205.699 89.108 206.067 89.108C206.571 89.108 207.023 89.252 207.423 89.54L207.195 90.332C207.011 90.212 206.815 90.12 206.607 90.056C206.407 89.984 206.195 89.948 205.971 89.948C205.763 89.948 205.563 89.984 205.371 90.056C205.179 90.128 205.007 90.228 204.855 90.356C204.711 90.484 204.595 90.644 204.507 90.836C204.419 91.02 204.375 91.224 204.375 91.448V95H203.451V90.62C203.451 90.492 203.447 90.376 203.439 90.272C203.431 90.16 203.403 90.072 203.355 90.008C203.315 89.936 203.247 89.884 203.151 89.852C203.055 89.82 202.923 89.812 202.755 89.828L202.743 89.204C202.967 89.164 203.171 89.144 203.355 89.144C203.547 89.144 203.711 89.172 203.847 89.228C203.991 89.284 204.103 89.376 204.183 89.504C204.263 89.632 204.307 89.808 204.315 90.032ZM210.928 90.8C210.928 90.144 211.036 89.548 211.252 89.012C211.476 88.476 211.78 88.02 212.164 87.644C212.548 87.268 212.996 86.98 213.508 86.78C214.028 86.58 214.584 86.484 215.176 86.492C215.584 86.492 215.984 86.548 216.376 86.66C216.768 86.764 217.128 86.928 217.456 87.152C217.792 87.368 218.084 87.64 218.332 87.968C218.588 88.296 218.78 88.68 218.908 89.12H217.936C217.68 88.544 217.308 88.116 216.82 87.836C216.332 87.556 215.784 87.416 215.176 87.416C214.696 87.408 214.256 87.488 213.856 87.656C213.456 87.824 213.116 88.06 212.836 88.364C212.556 88.668 212.336 89.028 212.176 89.444C212.024 89.86 211.948 90.312 211.948 90.8C211.948 91.272 212.024 91.716 212.176 92.132C212.328 92.54 212.544 92.896 212.824 93.2C213.112 93.504 213.452 93.744 213.844 93.92C214.244 94.088 214.684 94.172 215.164 94.172C215.812 94.172 216.388 94.016 216.892 93.704C217.396 93.384 217.76 92.92 217.984 92.312H218.956C218.836 92.784 218.648 93.196 218.392 93.548C218.144 93.892 217.852 94.18 217.516 94.412C217.18 94.644 216.808 94.816 216.4 94.928C216 95.04 215.592 95.096 215.176 95.096C214.592 95.096 214.04 94.996 213.52 94.796C213.008 94.596 212.56 94.312 212.176 93.944C211.792 93.568 211.488 93.116 211.264 92.588C211.04 92.06 210.928 91.464 210.928 90.8ZM223.825 94.196V95H219.913V94.196H221.365V87.392H220.009V86.6H223.729V87.392H222.373V94.196H223.825ZM231.305 88.88C231.305 89.288 231.205 89.648 231.005 89.96C230.813 90.264 230.537 90.484 230.177 90.62C230.657 90.756 231.029 90.996 231.293 91.34C231.557 91.676 231.689 92.108 231.689 92.636C231.689 93.02 231.621 93.36 231.485 93.656C231.357 93.952 231.177 94.2 230.945 94.4C230.713 94.592 230.433 94.74 230.105 94.844C229.777 94.948 229.417 95 229.025 95H225.389V86.6H228.665C229.041 86.6 229.389 86.644 229.709 86.732C230.037 86.82 230.317 86.956 230.549 87.14C230.789 87.324 230.973 87.56 231.101 87.848C231.237 88.136 231.305 88.48 231.305 88.88ZM226.385 87.44V90.296H228.605C228.845 90.296 229.069 90.272 229.277 90.224C229.493 90.176 229.677 90.096 229.829 89.984C229.989 89.872 230.113 89.728 230.201 89.552C230.289 89.376 230.333 89.156 230.333 88.892C230.333 88.62 230.289 88.392 230.201 88.208C230.121 88.024 230.001 87.876 229.841 87.764C229.689 87.652 229.505 87.572 229.289 87.524C229.081 87.468 228.853 87.44 228.605 87.44H226.385ZM226.385 91.136V94.136H228.953C229.201 94.136 229.429 94.108 229.637 94.052C229.845 93.988 230.025 93.896 230.177 93.776C230.337 93.648 230.461 93.492 230.549 93.308C230.637 93.116 230.681 92.892 230.681 92.636C230.689 92.356 230.641 92.12 230.537 91.928C230.441 91.736 230.305 91.584 230.129 91.472C229.953 91.352 229.741 91.268 229.493 91.22C229.253 91.164 228.997 91.136 228.725 91.136H226.385ZM236.598 94.196V95H232.686V94.196H234.138V87.392H232.782V86.6H236.502V87.392H235.146V94.196H236.598ZM239.171 94.1H243.131V95H238.163V86.6H239.171V94.1ZM247.606 92.708C247.622 92.988 247.706 93.228 247.858 93.428C248.01 93.62 248.202 93.776 248.434 93.896C248.666 94.016 248.918 94.104 249.19 94.16C249.47 94.208 249.738 94.232 249.994 94.232C250.242 94.232 250.498 94.208 250.762 94.16C251.034 94.112 251.278 94.028 251.494 93.908C251.718 93.788 251.902 93.628 252.046 93.428C252.19 93.22 252.266 92.964 252.274 92.66C252.274 92.324 252.202 92.064 252.058 91.88C251.914 91.688 251.726 91.544 251.494 91.448C251.262 91.344 251.002 91.276 250.714 91.244C250.434 91.204 250.15 91.164 249.862 91.124C249.478 91.084 249.102 91.024 248.734 90.944C248.374 90.864 248.05 90.744 247.762 90.584C247.474 90.416 247.242 90.2 247.066 89.936C246.89 89.664 246.802 89.316 246.802 88.892C246.802 88.476 246.89 88.12 247.066 87.824C247.25 87.52 247.486 87.272 247.774 87.08C248.062 86.88 248.386 86.732 248.746 86.636C249.114 86.54 249.482 86.492 249.85 86.492C250.21 86.492 250.574 86.536 250.942 86.624C251.31 86.704 251.642 86.836 251.938 87.02C252.242 87.196 252.49 87.428 252.682 87.716C252.874 88.004 252.978 88.352 252.994 88.76H252.058C252.034 88.496 251.95 88.276 251.806 88.1C251.67 87.924 251.498 87.784 251.29 87.68C251.082 87.576 250.854 87.504 250.606 87.464C250.358 87.416 250.114 87.392 249.874 87.392C249.642 87.392 249.402 87.42 249.154 87.476C248.914 87.524 248.69 87.608 248.482 87.728C248.282 87.84 248.118 87.992 247.99 88.184C247.862 88.376 247.798 88.608 247.798 88.88C247.798 89.192 247.866 89.436 248.002 89.612C248.138 89.788 248.314 89.924 248.53 90.02C248.746 90.108 248.986 90.172 249.25 90.212C249.514 90.244 249.774 90.276 250.03 90.308C250.446 90.356 250.846 90.42 251.23 90.5C251.622 90.572 251.966 90.692 252.262 90.86C252.566 91.028 252.806 91.256 252.982 91.544C253.166 91.824 253.258 92.196 253.258 92.66C253.258 93.108 253.158 93.488 252.958 93.8C252.766 94.104 252.514 94.352 252.202 94.544C251.89 94.736 251.542 94.876 251.158 94.964C250.774 95.052 250.39 95.1 250.006 95.108C249.614 95.116 249.222 95.076 248.83 94.988C248.438 94.9 248.082 94.76 247.762 94.568C247.442 94.376 247.178 94.128 246.97 93.824C246.762 93.512 246.65 93.14 246.634 92.708H247.606ZM259.204 91.016C259.044 90.656 258.804 90.388 258.484 90.212C258.172 90.036 257.832 89.948 257.464 89.948C257.2 89.948 256.936 89.992 256.672 90.08C256.416 90.168 256.184 90.3 255.976 90.476C255.776 90.652 255.612 90.876 255.484 91.148C255.364 91.412 255.304 91.724 255.304 92.084C255.304 92.444 255.364 92.76 255.484 93.032C255.612 93.304 255.772 93.532 255.964 93.716C256.164 93.9 256.388 94.04 256.636 94.136C256.892 94.232 257.152 94.28 257.416 94.28C257.8 94.28 258.16 94.18 258.496 93.98C258.84 93.78 259.092 93.476 259.252 93.068H260.164C260.076 93.412 259.94 93.712 259.756 93.968C259.572 94.224 259.356 94.436 259.108 94.604C258.86 94.772 258.588 94.9 258.292 94.988C258.004 95.068 257.708 95.108 257.404 95.108C257.028 95.108 256.656 95.044 256.288 94.916C255.928 94.788 255.604 94.6 255.316 94.352C255.028 94.096 254.796 93.78 254.62 93.404C254.444 93.02 254.356 92.58 254.356 92.084C254.356 91.58 254.444 91.14 254.62 90.764C254.804 90.388 255.04 90.08 255.328 89.84C255.616 89.592 255.944 89.408 256.312 89.288C256.68 89.168 257.052 89.108 257.428 89.108C257.724 89.108 258.012 89.152 258.292 89.24C258.572 89.32 258.832 89.44 259.072 89.6C259.312 89.752 259.52 89.948 259.696 90.188C259.88 90.428 260.016 90.704 260.104 91.016H259.204ZM267.261 92.096C267.261 92.6 267.173 93.04 266.997 93.416C266.821 93.792 266.589 94.108 266.301 94.364C266.013 94.612 265.685 94.8 265.317 94.928C264.949 95.048 264.573 95.108 264.189 95.108C263.813 95.108 263.441 95.044 263.073 94.916C262.713 94.788 262.389 94.6 262.101 94.352C261.821 94.096 261.593 93.784 261.417 93.416C261.249 93.04 261.165 92.6 261.165 92.096C261.165 91.592 261.253 91.152 261.429 90.776C261.605 90.4 261.837 90.092 262.125 89.852C262.413 89.604 262.737 89.42 263.097 89.3C263.465 89.172 263.841 89.108 264.225 89.108C264.609 89.108 264.981 89.172 265.341 89.3C265.709 89.42 266.033 89.604 266.313 89.852C266.601 90.1 266.829 90.412 266.997 90.788C267.173 91.156 267.261 91.592 267.261 92.096ZM262.113 92.096C262.113 92.464 262.173 92.788 262.293 93.068C262.413 93.348 262.573 93.58 262.773 93.764C262.973 93.948 263.197 94.088 263.445 94.184C263.701 94.28 263.961 94.328 264.225 94.328C264.489 94.328 264.745 94.28 264.993 94.184C265.249 94.088 265.473 93.948 265.665 93.764C265.865 93.58 266.025 93.348 266.145 93.068C266.265 92.788 266.325 92.464 266.325 92.096C266.325 91.728 266.265 91.408 266.145 91.136C266.025 90.864 265.865 90.64 265.665 90.464C265.465 90.28 265.237 90.144 264.981 90.056C264.733 89.96 264.477 89.912 264.213 89.912C263.949 89.912 263.689 89.96 263.433 90.056C263.185 90.144 262.961 90.28 262.761 90.464C262.569 90.64 262.413 90.864 262.293 91.136C262.173 91.408 262.113 91.728 262.113 92.096ZM269.753 90.032C269.929 89.696 270.173 89.46 270.485 89.324C270.797 89.18 271.137 89.108 271.505 89.108C272.009 89.108 272.461 89.252 272.861 89.54L272.633 90.332C272.449 90.212 272.253 90.12 272.045 90.056C271.845 89.984 271.633 89.948 271.409 89.948C271.201 89.948 271.001 89.984 270.809 90.056C270.617 90.128 270.445 90.228 270.293 90.356C270.149 90.484 270.033 90.644 269.945 90.836C269.857 91.02 269.813 91.224 269.813 91.448V95H268.889V90.62C268.889 90.492 268.885 90.376 268.877 90.272C268.869 90.16 268.841 90.072 268.793 90.008C268.753 89.936 268.685 89.884 268.589 89.852C268.493 89.82 268.361 89.812 268.193 89.828L268.181 89.204C268.405 89.164 268.609 89.144 268.793 89.144C268.985 89.144 269.149 89.172 269.285 89.228C269.429 89.284 269.541 89.376 269.621 89.504C269.701 89.632 269.745 89.808 269.753 90.032ZM276.305 89.108C277.297 89.116 278.009 89.396 278.441 89.948C278.873 90.492 279.009 91.244 278.849 92.204H274.277C274.261 92.54 274.309 92.84 274.421 93.104C274.541 93.36 274.705 93.58 274.913 93.764C275.121 93.948 275.369 94.088 275.657 94.184C275.945 94.28 276.253 94.328 276.581 94.328C276.917 94.328 277.241 94.292 277.553 94.22C277.873 94.148 278.201 94.044 278.537 93.908L278.681 94.616C277.985 94.944 277.277 95.108 276.557 95.108C276.077 95.108 275.637 95.036 275.237 94.892C274.837 94.748 274.493 94.54 274.205 94.268C273.917 93.996 273.697 93.668 273.545 93.284C273.393 92.892 273.325 92.448 273.341 91.952C273.357 91.496 273.445 91.092 273.605 90.74C273.765 90.388 273.977 90.092 274.241 89.852C274.513 89.604 274.825 89.42 275.177 89.3C275.529 89.172 275.905 89.108 276.305 89.108ZM276.305 89.852C275.777 89.852 275.333 89.992 274.973 90.272C274.613 90.552 274.393 90.956 274.313 91.484H278.081C278.097 91.212 278.061 90.976 277.973 90.776C277.885 90.568 277.761 90.396 277.601 90.26C277.441 90.124 277.249 90.024 277.025 89.96C276.801 89.888 276.561 89.852 276.305 89.852ZM287.351 93.956C287.247 94.156 287.111 94.328 286.943 94.472C286.775 94.616 286.587 94.736 286.379 94.832C286.179 94.928 285.963 94.996 285.731 95.036C285.507 95.084 285.287 95.108 285.071 95.108C284.807 95.108 284.551 95.076 284.303 95.012C284.055 94.948 283.835 94.848 283.643 94.712C283.459 94.568 283.311 94.392 283.199 94.184C283.087 93.968 283.031 93.712 283.031 93.416C283.031 93.096 283.087 92.816 283.199 92.576C283.319 92.336 283.479 92.136 283.679 91.976C283.887 91.816 284.123 91.696 284.387 91.616C284.651 91.536 284.935 91.496 285.239 91.496C285.575 91.496 285.919 91.528 286.271 91.592C286.623 91.648 286.943 91.756 287.231 91.916V91.076C287.231 90.836 287.171 90.636 287.051 90.476C286.939 90.316 286.791 90.192 286.607 90.104C286.431 90.016 286.235 89.956 286.019 89.924C285.811 89.884 285.607 89.864 285.407 89.864C285.071 89.864 284.755 89.9 284.459 89.972C284.163 90.036 283.891 90.14 283.643 90.284L283.487 89.54C283.767 89.396 284.083 89.288 284.435 89.216C284.795 89.144 285.167 89.108 285.551 89.108C285.879 89.108 286.195 89.14 286.499 89.204C286.811 89.268 287.083 89.38 287.315 89.54C287.555 89.692 287.743 89.896 287.879 90.152C288.023 90.408 288.091 90.724 288.083 91.1V93.512C288.083 93.672 288.083 93.816 288.083 93.944C288.091 94.064 288.115 94.164 288.155 94.244C288.195 94.324 288.259 94.38 288.347 94.412C288.443 94.444 288.579 94.448 288.755 94.424L288.767 95.036C288.527 95.076 288.319 95.092 288.143 95.084C287.967 95.076 287.819 95.032 287.699 94.952C287.579 94.872 287.491 94.752 287.435 94.592C287.379 94.432 287.351 94.22 287.351 93.956ZM287.219 92.636C287.035 92.524 286.779 92.428 286.451 92.348C286.123 92.268 285.791 92.228 285.455 92.228C285.271 92.228 285.087 92.248 284.903 92.288C284.727 92.328 284.567 92.392 284.423 92.48C284.287 92.568 284.175 92.684 284.087 92.828C283.999 92.972 283.955 93.148 283.955 93.356C283.955 93.54 283.991 93.696 284.063 93.824C284.135 93.944 284.231 94.04 284.351 94.112C284.471 94.184 284.607 94.236 284.759 94.268C284.919 94.292 285.079 94.304 285.239 94.304C285.431 94.304 285.627 94.28 285.827 94.232C286.035 94.184 286.231 94.108 286.415 94.004C286.607 93.9 286.771 93.768 286.907 93.608C287.051 93.44 287.155 93.24 287.219 93.008V92.636ZM294.466 95V91.58C294.466 91.052 294.314 90.64 294.01 90.344C293.714 90.04 293.326 89.888 292.846 89.888C292.598 89.888 292.37 89.928 292.162 90.008C291.954 90.088 291.77 90.2 291.61 90.344C291.458 90.488 291.338 90.664 291.25 90.872C291.162 91.072 291.118 91.292 291.118 91.532V95H290.182V90.872C290.182 90.68 290.174 90.52 290.158 90.392C290.15 90.264 290.122 90.164 290.074 90.092C290.026 90.02 289.958 89.976 289.87 89.96C289.782 89.936 289.662 89.932 289.51 89.948L289.498 89.204C289.666 89.18 289.842 89.16 290.026 89.144C290.21 89.128 290.378 89.144 290.53 89.192C290.682 89.232 290.806 89.32 290.902 89.456C291.006 89.592 291.058 89.8 291.058 90.08C291.314 89.688 291.614 89.428 291.958 89.3C292.31 89.172 292.69 89.108 293.098 89.108C293.482 89.108 293.818 89.172 294.106 89.3C294.394 89.42 294.634 89.592 294.826 89.816C295.018 90.032 295.162 90.292 295.258 90.596C295.362 90.9 295.414 91.228 295.414 91.58V95H294.466ZM301.542 93.764C301.342 94.204 301.058 94.536 300.69 94.76C300.33 94.984 299.918 95.1 299.454 95.108C299.022 95.108 298.638 95.028 298.302 94.868C297.974 94.708 297.698 94.492 297.474 94.22C297.25 93.94 297.078 93.62 296.958 93.26C296.846 92.892 296.79 92.504 296.79 92.096C296.79 91.632 296.866 91.216 297.018 90.848C297.17 90.472 297.37 90.156 297.618 89.9C297.874 89.644 298.17 89.448 298.506 89.312C298.842 89.176 299.198 89.108 299.574 89.108C299.878 89.108 300.182 89.156 300.486 89.252C300.79 89.34 301.09 89.484 301.386 89.684V86.216H302.322V93.092C302.322 93.284 302.318 93.464 302.31 93.632C302.302 93.792 302.314 93.932 302.346 94.052C302.386 94.164 302.454 94.248 302.55 94.304C302.646 94.352 302.798 94.364 303.006 94.34L303.018 95.024C302.786 95.064 302.578 95.08 302.394 95.072C302.21 95.064 302.054 95.016 301.926 94.928C301.798 94.832 301.702 94.692 301.638 94.508C301.574 94.324 301.542 94.076 301.542 93.764ZM301.41 90.548C301.13 90.34 300.838 90.184 300.534 90.08C300.23 89.976 299.938 89.928 299.658 89.936C299.394 89.936 299.146 89.984 298.914 90.08C298.682 90.176 298.478 90.316 298.302 90.5C298.126 90.684 297.986 90.912 297.882 91.184C297.786 91.448 297.738 91.752 297.738 92.096C297.738 92.384 297.774 92.66 297.846 92.924C297.926 93.188 298.042 93.42 298.194 93.62C298.346 93.812 298.538 93.968 298.77 94.088C299.002 94.208 299.274 94.268 299.586 94.268C299.858 94.268 300.106 94.216 300.33 94.112C300.554 94.008 300.742 93.872 300.894 93.704C301.054 93.528 301.178 93.324 301.266 93.092C301.354 92.86 301.402 92.612 301.41 92.348V90.548ZM115.704 110.856V111H114.648L112.32 107.916H110.124V111H109.116V102.588H112.464C112.896 102.588 113.288 102.66 113.64 102.804C113.992 102.94 114.292 103.128 114.54 103.368C114.796 103.608 114.992 103.892 115.128 104.22C115.264 104.548 115.332 104.904 115.332 105.288C115.332 105.616 115.28 105.916 115.176 106.188C115.08 106.46 114.944 106.704 114.768 106.92C114.592 107.128 114.38 107.308 114.132 107.46C113.892 107.604 113.624 107.712 113.328 107.784L115.704 110.856ZM112.464 107.088C112.728 107.088 112.976 107.044 113.208 106.956C113.44 106.868 113.64 106.748 113.808 106.596C113.984 106.436 114.12 106.244 114.216 106.02C114.312 105.796 114.36 105.548 114.36 105.276C114.36 105.004 114.312 104.76 114.216 104.544C114.12 104.32 113.988 104.132 113.82 103.98C113.652 103.82 113.452 103.696 113.22 103.608C112.988 103.52 112.736 103.476 112.464 103.476H110.112V107.088H112.464ZM119.367 105.108C120.359 105.116 121.071 105.396 121.503 105.948C121.935 106.492 122.071 107.244 121.911 108.204H117.339C117.323 108.54 117.371 108.84 117.483 109.104C117.603 109.36 117.767 109.58 117.975 109.764C118.183 109.948 118.431 110.088 118.719 110.184C119.007 110.28 119.315 110.328 119.643 110.328C119.979 110.328 120.303 110.292 120.615 110.22C120.935 110.148 121.263 110.044 121.599 109.908L121.743 110.616C121.047 110.944 120.339 111.108 119.619 111.108C119.139 111.108 118.699 111.036 118.299 110.892C117.899 110.748 117.555 110.54 117.267 110.268C116.979 109.996 116.759 109.668 116.607 109.284C116.455 108.892 116.387 108.448 116.403 107.952C116.419 107.496 116.507 107.092 116.667 106.74C116.827 106.388 117.039 106.092 117.303 105.852C117.575 105.604 117.887 105.42 118.239 105.3C118.591 105.172 118.967 105.108 119.367 105.108ZM119.367 105.852C118.839 105.852 118.395 105.992 118.035 106.272C117.675 106.552 117.455 106.956 117.375 107.484H121.143C121.159 107.212 121.123 106.976 121.035 106.776C120.947 106.568 120.823 106.396 120.663 106.26C120.503 106.124 120.311 106.024 120.087 105.96C119.863 105.888 119.623 105.852 119.367 105.852ZM124.392 106.176C124.64 105.776 124.956 105.5 125.34 105.348C125.724 105.188 126.112 105.108 126.504 105.108C126.928 105.108 127.3 105.184 127.62 105.336C127.948 105.488 128.224 105.7 128.448 105.972C128.672 106.236 128.84 106.548 128.952 106.908C129.064 107.268 129.12 107.656 129.12 108.072C129.12 108.536 129.044 108.956 128.892 109.332C128.74 109.7 128.536 110.016 128.28 110.28C128.032 110.544 127.736 110.748 127.392 110.892C127.056 111.036 126.704 111.108 126.336 111.108C126.032 111.108 125.728 111.072 125.424 111C125.12 110.936 124.82 110.804 124.524 110.604V113.976H123.588V107.148C123.588 106.964 123.588 106.792 123.588 106.632C123.588 106.464 123.568 106.324 123.528 106.212C123.496 106.092 123.432 106.004 123.336 105.948C123.24 105.892 123.096 105.876 122.904 105.9L122.892 105.204C123.348 105.124 123.716 105.152 123.996 105.288C124.276 105.424 124.408 105.72 124.392 106.176ZM124.5 109.728C124.764 109.936 125.036 110.08 125.316 110.16C125.604 110.24 125.888 110.28 126.168 110.28C126.432 110.28 126.684 110.232 126.924 110.136C127.172 110.032 127.384 109.888 127.56 109.704C127.744 109.512 127.888 109.28 127.992 109.008C128.104 108.736 128.16 108.424 128.16 108.072C128.16 107.784 128.124 107.512 128.052 107.256C127.988 107 127.88 106.776 127.728 106.584C127.576 106.392 127.384 106.24 127.152 106.128C126.92 106.016 126.644 105.96 126.324 105.96C126.044 105.96 125.792 106.012 125.568 106.116C125.352 106.212 125.164 106.348 125.004 106.524C124.852 106.692 124.732 106.892 124.644 107.124C124.556 107.348 124.508 107.584 124.5 107.832V109.728ZM136.304 108.096C136.304 108.6 136.216 109.04 136.04 109.416C135.864 109.792 135.632 110.108 135.344 110.364C135.056 110.612 134.728 110.8 134.36 110.928C133.992 111.048 133.616 111.108 133.232 111.108C132.856 111.108 132.484 111.044 132.116 110.916C131.756 110.788 131.432 110.6 131.144 110.352C130.864 110.096 130.636 109.784 130.46 109.416C130.292 109.04 130.208 108.6 130.208 108.096C130.208 107.592 130.296 107.152 130.472 106.776C130.648 106.4 130.88 106.092 131.168 105.852C131.456 105.604 131.78 105.42 132.14 105.3C132.508 105.172 132.884 105.108 133.268 105.108C133.652 105.108 134.024 105.172 134.384 105.3C134.752 105.42 135.076 105.604 135.356 105.852C135.644 106.1 135.872 106.412 136.04 106.788C136.216 107.156 136.304 107.592 136.304 108.096ZM131.156 108.096C131.156 108.464 131.216 108.788 131.336 109.068C131.456 109.348 131.616 109.58 131.816 109.764C132.016 109.948 132.24 110.088 132.488 110.184C132.744 110.28 133.004 110.328 133.268 110.328C133.532 110.328 133.788 110.28 134.036 110.184C134.292 110.088 134.516 109.948 134.708 109.764C134.908 109.58 135.068 109.348 135.188 109.068C135.308 108.788 135.368 108.464 135.368 108.096C135.368 107.728 135.308 107.408 135.188 107.136C135.068 106.864 134.908 106.64 134.708 106.464C134.508 106.28 134.28 106.144 134.024 106.056C133.776 105.96 133.52 105.912 133.256 105.912C132.992 105.912 132.732 105.96 132.476 106.056C132.228 106.144 132.004 106.28 131.804 106.464C131.612 106.64 131.456 106.864 131.336 107.136C131.216 107.408 131.156 107.728 131.156 108.096ZM138.796 106.032C138.972 105.696 139.216 105.46 139.528 105.324C139.84 105.18 140.18 105.108 140.548 105.108C141.052 105.108 141.504 105.252 141.904 105.54L141.676 106.332C141.492 106.212 141.296 106.12 141.088 106.056C140.888 105.984 140.676 105.948 140.452 105.948C140.244 105.948 140.044 105.984 139.852 106.056C139.66 106.128 139.488 106.228 139.336 106.356C139.192 106.484 139.076 106.644 138.988 106.836C138.9 107.02 138.856 107.224 138.856 107.448V111H137.932V106.62C137.932 106.492 137.928 106.376 137.92 106.272C137.912 106.16 137.884 106.072 137.836 106.008C137.796 105.936 137.728 105.884 137.632 105.852C137.536 105.82 137.404 105.812 137.236 105.828L137.224 105.204C137.448 105.164 137.652 105.144 137.836 105.144C138.028 105.144 138.192 105.172 138.328 105.228C138.472 105.284 138.584 105.376 138.664 105.504C138.744 105.632 138.788 105.808 138.796 106.032ZM144.479 105.24H146.603V105.924H144.479V108.852C144.479 109.372 144.583 109.752 144.791 109.992C144.999 110.232 145.291 110.352 145.667 110.352C145.979 110.352 146.351 110.272 146.783 110.112L146.891 110.844C146.355 111.02 145.855 111.108 145.391 111.108C144.823 111.108 144.371 110.932 144.035 110.58C143.707 110.228 143.543 109.66 143.543 108.876V105.924L142.307 105.864V105.24H143.603L143.699 103.44H144.479V105.24ZM151.064 102.228H152V105.588C152.296 105.412 152.596 105.288 152.9 105.216C153.204 105.136 153.508 105.1 153.812 105.108C154.18 105.116 154.532 105.188 154.868 105.324C155.204 105.46 155.496 105.66 155.744 105.924C156 106.18 156.204 106.496 156.355 106.872C156.508 107.24 156.584 107.664 156.584 108.144C156.584 108.688 156.496 109.152 156.32 109.536C156.152 109.912 155.924 110.216 155.636 110.448C155.348 110.68 155.012 110.848 154.628 110.952C154.244 111.056 153.844 111.108 153.428 111.108C153.028 111.108 152.628 111.068 152.228 110.988C151.828 110.9 151.44 110.776 151.064 110.616V102.228ZM151.976 110.016C152.224 110.104 152.476 110.176 152.732 110.232C152.988 110.28 153.24 110.3 153.488 110.292C153.776 110.284 154.052 110.24 154.316 110.16C154.58 110.08 154.808 109.956 155 109.788C155.2 109.62 155.356 109.4 155.468 109.128C155.588 108.856 155.648 108.528 155.648 108.144C155.648 107.768 155.592 107.44 155.48 107.16C155.376 106.88 155.232 106.648 155.048 106.464C154.872 106.272 154.664 106.132 154.424 106.044C154.192 105.948 153.944 105.9 153.68 105.9C153.4 105.892 153.112 105.936 152.816 106.032C152.528 106.12 152.248 106.26 151.976 106.452V110.016ZM160.641 105.108C161.633 105.116 162.345 105.396 162.777 105.948C163.209 106.492 163.345 107.244 163.185 108.204H158.613C158.597 108.54 158.645 108.84 158.757 109.104C158.877 109.36 159.041 109.58 159.249 109.764C159.457 109.948 159.705 110.088 159.993 110.184C160.281 110.28 160.589 110.328 160.917 110.328C161.253 110.328 161.577 110.292 161.889 110.22C162.209 110.148 162.537 110.044 162.873 109.908L163.017 110.616C162.321 110.944 161.613 111.108 160.893 111.108C160.413 111.108 159.973 111.036 159.573 110.892C159.173 110.748 158.829 110.54 158.541 110.268C158.253 109.996 158.033 109.668 157.881 109.284C157.729 108.892 157.661 108.448 157.677 107.952C157.693 107.496 157.781 107.092 157.941 106.74C158.101 106.388 158.313 106.092 158.577 105.852C158.849 105.604 159.161 105.42 159.513 105.3C159.865 105.172 160.241 105.108 160.641 105.108ZM160.641 105.852C160.113 105.852 159.669 105.992 159.309 106.272C158.949 106.552 158.729 106.956 158.649 107.484H162.417C162.433 107.212 162.397 106.976 162.309 106.776C162.221 106.568 162.097 106.396 161.937 106.26C161.777 106.124 161.585 106.024 161.361 105.96C161.137 105.888 160.897 105.852 160.641 105.852ZM165.247 105.984H164.011V105.264H165.259V104.292C165.259 103.756 165.351 103.328 165.535 103.008C165.727 102.68 165.979 102.448 166.291 102.312C166.603 102.176 166.963 102.124 167.371 102.156C167.779 102.188 168.199 102.288 168.631 102.456L168.499 103.152C168.211 103.032 167.927 102.952 167.647 102.912C167.375 102.864 167.127 102.876 166.903 102.948C166.687 103.012 166.511 103.148 166.375 103.356C166.247 103.556 166.183 103.848 166.183 104.232V105.264H168.283V105.984H166.183V111H165.247V105.984ZM174.87 108.096C174.87 108.6 174.782 109.04 174.606 109.416C174.43 109.792 174.198 110.108 173.91 110.364C173.622 110.612 173.294 110.8 172.926 110.928C172.558 111.048 172.182 111.108 171.798 111.108C171.422 111.108 171.05 111.044 170.682 110.916C170.322 110.788 169.998 110.6 169.71 110.352C169.43 110.096 169.202 109.784 169.026 109.416C168.858 109.04 168.774 108.6 168.774 108.096C168.774 107.592 168.862 107.152 169.038 106.776C169.214 106.4 169.446 106.092 169.734 105.852C170.022 105.604 170.346 105.42 170.706 105.3C171.074 105.172 171.45 105.108 171.834 105.108C172.218 105.108 172.59 105.172 172.95 105.3C173.318 105.42 173.642 105.604 173.922 105.852C174.21 106.1 174.438 106.412 174.606 106.788C174.782 107.156 174.87 107.592 174.87 108.096ZM169.722 108.096C169.722 108.464 169.782 108.788 169.902 109.068C170.022 109.348 170.182 109.58 170.382 109.764C170.582 109.948 170.806 110.088 171.054 110.184C171.31 110.28 171.57 110.328 171.834 110.328C172.098 110.328 172.354 110.28 172.602 110.184C172.858 110.088 173.082 109.948 173.274 109.764C173.474 109.58 173.634 109.348 173.754 109.068C173.874 108.788 173.934 108.464 173.934 108.096C173.934 107.728 173.874 107.408 173.754 107.136C173.634 106.864 173.474 106.64 173.274 106.464C173.074 106.28 172.846 106.144 172.59 106.056C172.342 105.96 172.086 105.912 171.822 105.912C171.558 105.912 171.298 105.96 171.042 106.056C170.794 106.144 170.57 106.28 170.37 106.464C170.178 106.64 170.022 106.864 169.902 107.136C169.782 107.408 169.722 107.728 169.722 108.096ZM177.362 106.032C177.538 105.696 177.782 105.46 178.094 105.324C178.406 105.18 178.746 105.108 179.114 105.108C179.618 105.108 180.07 105.252 180.47 105.54L180.242 106.332C180.058 106.212 179.862 106.12 179.654 106.056C179.454 105.984 179.242 105.948 179.018 105.948C178.81 105.948 178.61 105.984 178.418 106.056C178.226 106.128 178.054 106.228 177.902 106.356C177.758 106.484 177.642 106.644 177.554 106.836C177.466 107.02 177.422 107.224 177.422 107.448V111H176.498V106.62C176.498 106.492 176.494 106.376 176.486 106.272C176.478 106.16 176.45 106.072 176.402 106.008C176.362 105.936 176.294 105.884 176.198 105.852C176.102 105.82 175.97 105.812 175.802 105.828L175.79 105.204C176.014 105.164 176.218 105.144 176.402 105.144C176.594 105.144 176.758 105.172 176.894 105.228C177.038 105.284 177.15 105.376 177.23 105.504C177.31 105.632 177.354 105.808 177.362 106.032ZM183.914 105.108C184.906 105.116 185.618 105.396 186.05 105.948C186.482 106.492 186.618 107.244 186.458 108.204H181.886C181.87 108.54 181.918 108.84 182.03 109.104C182.15 109.36 182.314 109.58 182.522 109.764C182.73 109.948 182.978 110.088 183.266 110.184C183.554 110.28 183.862 110.328 184.19 110.328C184.526 110.328 184.85 110.292 185.162 110.22C185.482 110.148 185.81 110.044 186.146 109.908L186.29 110.616C185.594 110.944 184.886 111.108 184.166 111.108C183.686 111.108 183.246 111.036 182.846 110.892C182.446 110.748 182.102 110.54 181.814 110.268C181.526 109.996 181.306 109.668 181.154 109.284C181.002 108.892 180.934 108.448 180.95 107.952C180.966 107.496 181.054 107.092 181.214 106.74C181.374 106.388 181.586 106.092 181.85 105.852C182.122 105.604 182.434 105.42 182.786 105.3C183.138 105.172 183.514 105.108 183.914 105.108ZM183.914 105.852C183.386 105.852 182.942 105.992 182.582 106.272C182.222 106.552 182.002 106.956 181.922 107.484H185.69C185.706 107.212 185.67 106.976 185.582 106.776C185.494 106.568 185.37 106.396 185.21 106.26C185.05 106.124 184.858 106.024 184.634 105.96C184.41 105.888 184.17 105.852 183.914 105.852ZM194.96 109.956C194.856 110.156 194.72 110.328 194.552 110.472C194.384 110.616 194.196 110.736 193.988 110.832C193.788 110.928 193.572 110.996 193.34 111.036C193.116 111.084 192.896 111.108 192.68 111.108C192.416 111.108 192.16 111.076 191.912 111.012C191.664 110.948 191.444 110.848 191.252 110.712C191.068 110.568 190.92 110.392 190.808 110.184C190.696 109.968 190.64 109.712 190.64 109.416C190.64 109.096 190.696 108.816 190.808 108.576C190.928 108.336 191.088 108.136 191.288 107.976C191.496 107.816 191.732 107.696 191.996 107.616C192.26 107.536 192.544 107.496 192.848 107.496C193.184 107.496 193.528 107.528 193.88 107.592C194.232 107.648 194.552 107.756 194.84 107.916V107.076C194.84 106.836 194.78 106.636 194.66 106.476C194.548 106.316 194.4 106.192 194.216 106.104C194.04 106.016 193.844 105.956 193.628 105.924C193.42 105.884 193.216 105.864 193.016 105.864C192.68 105.864 192.364 105.9 192.068 105.972C191.772 106.036 191.5 106.14 191.252 106.284L191.096 105.54C191.376 105.396 191.692 105.288 192.044 105.216C192.404 105.144 192.776 105.108 193.16 105.108C193.488 105.108 193.804 105.14 194.108 105.204C194.42 105.268 194.692 105.38 194.924 105.54C195.164 105.692 195.352 105.896 195.488 106.152C195.632 106.408 195.7 106.724 195.692 107.1V109.512C195.692 109.672 195.692 109.816 195.692 109.944C195.7 110.064 195.724 110.164 195.764 110.244C195.804 110.324 195.868 110.38 195.956 110.412C196.052 110.444 196.188 110.448 196.364 110.424L196.376 111.036C196.136 111.076 195.928 111.092 195.752 111.084C195.576 111.076 195.428 111.032 195.308 110.952C195.188 110.872 195.1 110.752 195.044 110.592C194.988 110.432 194.96 110.22 194.96 109.956ZM194.828 108.636C194.644 108.524 194.388 108.428 194.06 108.348C193.732 108.268 193.4 108.228 193.064 108.228C192.88 108.228 192.696 108.248 192.512 108.288C192.336 108.328 192.176 108.392 192.032 108.48C191.896 108.568 191.784 108.684 191.696 108.828C191.608 108.972 191.564 109.148 191.564 109.356C191.564 109.54 191.6 109.696 191.672 109.824C191.744 109.944 191.84 110.04 191.96 110.112C192.08 110.184 192.216 110.236 192.368 110.268C192.528 110.292 192.688 110.304 192.848 110.304C193.04 110.304 193.236 110.28 193.436 110.232C193.644 110.184 193.84 110.108 194.024 110.004C194.216 109.9 194.38 109.768 194.516 109.608C194.66 109.44 194.764 109.24 194.828 109.008V108.636ZM198.572 106.176C198.82 105.776 199.136 105.5 199.52 105.348C199.904 105.188 200.292 105.108 200.684 105.108C201.108 105.108 201.48 105.184 201.8 105.336C202.128 105.488 202.404 105.7 202.628 105.972C202.852 106.236 203.02 106.548 203.132 106.908C203.243 107.268 203.299 107.656 203.299 108.072C203.299 108.536 203.224 108.956 203.072 109.332C202.92 109.7 202.716 110.016 202.46 110.28C202.212 110.544 201.916 110.748 201.572 110.892C201.236 111.036 200.884 111.108 200.516 111.108C200.212 111.108 199.908 111.072 199.604 111C199.3 110.936 199 110.804 198.704 110.604V113.976H197.768V107.148C197.768 106.964 197.768 106.792 197.768 106.632C197.768 106.464 197.748 106.324 197.708 106.212C197.676 106.092 197.612 106.004 197.516 105.948C197.42 105.892 197.276 105.876 197.083 105.9L197.072 105.204C197.528 105.124 197.896 105.152 198.176 105.288C198.456 105.424 198.588 105.72 198.572 106.176ZM198.68 109.728C198.944 109.936 199.216 110.08 199.496 110.16C199.784 110.24 200.068 110.28 200.348 110.28C200.612 110.28 200.864 110.232 201.104 110.136C201.352 110.032 201.564 109.888 201.74 109.704C201.924 109.512 202.068 109.28 202.172 109.008C202.284 108.736 202.34 108.424 202.34 108.072C202.34 107.784 202.304 107.512 202.232 107.256C202.168 107 202.06 106.776 201.908 106.584C201.756 106.392 201.564 106.24 201.332 106.128C201.1 106.016 200.824 105.96 200.504 105.96C200.224 105.96 199.972 106.012 199.748 106.116C199.532 106.212 199.344 106.348 199.184 106.524C199.032 106.692 198.912 106.892 198.824 107.124C198.736 107.348 198.688 107.584 198.68 107.832V109.728ZM205.732 106.176C205.98 105.776 206.296 105.5 206.68 105.348C207.064 105.188 207.452 105.108 207.844 105.108C208.268 105.108 208.64 105.184 208.96 105.336C209.288 105.488 209.564 105.7 209.788 105.972C210.012 106.236 210.18 106.548 210.292 106.908C210.404 107.268 210.46 107.656 210.46 108.072C210.46 108.536 210.384 108.956 210.232 109.332C210.08 109.7 209.876 110.016 209.62 110.28C209.372 110.544 209.076 110.748 208.732 110.892C208.396 111.036 208.044 111.108 207.676 111.108C207.372 111.108 207.068 111.072 206.764 111C206.46 110.936 206.16 110.804 205.864 110.604V113.976H204.928V107.148C204.928 106.964 204.928 106.792 204.928 106.632C204.928 106.464 204.908 106.324 204.868 106.212C204.836 106.092 204.772 106.004 204.676 105.948C204.58 105.892 204.436 105.876 204.244 105.9L204.232 105.204C204.688 105.124 205.056 105.152 205.336 105.288C205.616 105.424 205.748 105.72 205.732 106.176ZM205.84 109.728C206.104 109.936 206.376 110.08 206.656 110.16C206.944 110.24 207.228 110.28 207.508 110.28C207.772 110.28 208.024 110.232 208.264 110.136C208.512 110.032 208.724 109.888 208.9 109.704C209.084 109.512 209.228 109.28 209.332 109.008C209.444 108.736 209.5 108.424 209.5 108.072C209.5 107.784 209.464 107.512 209.392 107.256C209.328 107 209.22 106.776 209.068 106.584C208.916 106.392 208.724 106.24 208.492 106.128C208.26 106.016 207.984 105.96 207.664 105.96C207.384 105.96 207.132 106.012 206.908 106.116C206.692 106.212 206.504 106.348 206.344 106.524C206.192 106.692 206.072 106.892 205.984 107.124C205.896 107.348 205.848 107.584 205.84 107.832V109.728ZM212.964 106.032C213.14 105.696 213.384 105.46 213.696 105.324C214.008 105.18 214.348 105.108 214.716 105.108C215.22 105.108 215.672 105.252 216.072 105.54L215.844 106.332C215.66 106.212 215.464 106.12 215.256 106.056C215.056 105.984 214.844 105.948 214.62 105.948C214.412 105.948 214.212 105.984 214.02 106.056C213.828 106.128 213.656 106.228 213.504 106.356C213.36 106.484 213.244 106.644 213.156 106.836C213.068 107.02 213.024 107.224 213.024 107.448V111H212.1V106.62C212.1 106.492 212.096 106.376 212.088 106.272C212.08 106.16 212.052 106.072 212.004 106.008C211.964 105.936 211.896 105.884 211.8 105.852C211.704 105.82 211.572 105.812 211.404 105.828L211.392 105.204C211.616 105.164 211.82 105.144 212.004 105.144C212.196 105.144 212.36 105.172 212.496 105.228C212.64 105.284 212.752 105.376 212.832 105.504C212.912 105.632 212.956 105.808 212.964 106.032ZM222.648 108.096C222.648 108.6 222.56 109.04 222.384 109.416C222.208 109.792 221.976 110.108 221.688 110.364C221.4 110.612 221.072 110.8 220.704 110.928C220.336 111.048 219.96 111.108 219.576 111.108C219.2 111.108 218.828 111.044 218.46 110.916C218.1 110.788 217.776 110.6 217.488 110.352C217.208 110.096 216.98 109.784 216.804 109.416C216.636 109.04 216.552 108.6 216.552 108.096C216.552 107.592 216.64 107.152 216.816 106.776C216.992 106.4 217.224 106.092 217.512 105.852C217.8 105.604 218.124 105.42 218.484 105.3C218.852 105.172 219.228 105.108 219.612 105.108C219.996 105.108 220.368 105.172 220.728 105.3C221.096 105.42 221.42 105.604 221.7 105.852C221.988 106.1 222.216 106.412 222.384 106.788C222.56 107.156 222.648 107.592 222.648 108.096ZM217.5 108.096C217.5 108.464 217.56 108.788 217.68 109.068C217.8 109.348 217.96 109.58 218.16 109.764C218.36 109.948 218.584 110.088 218.832 110.184C219.088 110.28 219.348 110.328 219.612 110.328C219.876 110.328 220.132 110.28 220.38 110.184C220.636 110.088 220.86 109.948 221.052 109.764C221.252 109.58 221.412 109.348 221.532 109.068C221.652 108.788 221.712 108.464 221.712 108.096C221.712 107.728 221.652 107.408 221.532 107.136C221.412 106.864 221.252 106.64 221.052 106.464C220.852 106.28 220.624 106.144 220.368 106.056C220.12 105.96 219.864 105.912 219.6 105.912C219.336 105.912 219.076 105.96 218.82 106.056C218.572 106.144 218.348 106.28 218.148 106.464C217.956 106.64 217.8 106.864 217.68 107.136C217.56 107.408 217.5 107.728 217.5 108.096ZM225.984 111.048L223.236 105.324V105.216H224.256L225.24 107.388L226.2 109.632L227.16 107.352L228.108 105.216H229.116V105.324L226.38 111.048H225.984ZM230.187 103.308C230.187 103.108 230.247 102.96 230.367 102.864C230.495 102.768 230.631 102.72 230.775 102.72C230.927 102.72 231.063 102.768 231.183 102.864C231.311 102.96 231.375 103.108 231.375 103.308C231.375 103.508 231.311 103.66 231.183 103.764C231.063 103.86 230.927 103.908 230.775 103.908C230.631 103.908 230.495 103.86 230.367 103.764C230.247 103.66 230.187 103.508 230.187 103.308ZM231.243 111H230.307V105.216H231.243V111ZM237.572 111V107.58C237.572 107.052 237.42 106.64 237.116 106.344C236.82 106.04 236.432 105.888 235.952 105.888C235.704 105.888 235.476 105.928 235.268 106.008C235.06 106.088 234.876 106.2 234.716 106.344C234.564 106.488 234.444 106.664 234.356 106.872C234.268 107.072 234.224 107.292 234.224 107.532V111H233.288V106.872C233.288 106.68 233.28 106.52 233.264 106.392C233.256 106.264 233.228 106.164 233.18 106.092C233.132 106.02 233.064 105.976 232.976 105.96C232.888 105.936 232.768 105.932 232.616 105.948L232.604 105.204C232.772 105.18 232.948 105.16 233.132 105.144C233.316 105.128 233.484 105.144 233.636 105.192C233.788 105.232 233.912 105.32 234.008 105.456C234.112 105.592 234.164 105.8 234.164 106.08C234.42 105.688 234.72 105.428 235.064 105.3C235.416 105.172 235.796 105.108 236.204 105.108C236.588 105.108 236.924 105.172 237.212 105.3C237.5 105.42 237.74 105.592 237.932 105.816C238.124 106.032 238.268 106.292 238.364 106.596C238.468 106.9 238.52 107.228 238.52 107.58V111H237.572ZM244.479 110.568C244.167 110.768 243.855 110.916 243.543 111.012C243.231 111.108 242.927 111.16 242.631 111.168C242.255 111.184 241.899 111.128 241.563 111C241.235 110.864 240.947 110.668 240.699 110.412C240.459 110.148 240.267 109.828 240.123 109.452C239.979 109.068 239.907 108.628 239.907 108.132C239.907 107.628 239.987 107.188 240.147 106.812C240.315 106.436 240.539 106.124 240.819 105.876C241.107 105.628 241.443 105.444 241.827 105.324C242.219 105.196 242.639 105.132 243.087 105.132C243.495 105.132 243.891 105.18 244.275 105.276C244.659 105.372 245.031 105.5 245.391 105.66V111.408C245.391 111.912 245.319 112.328 245.175 112.656C245.031 112.992 244.835 113.26 244.587 113.46C244.339 113.66 244.047 113.8 243.711 113.88C243.383 113.96 243.035 114 242.667 114C242.283 114 241.887 113.944 241.479 113.832C241.079 113.72 240.691 113.56 240.315 113.352L240.471 112.584C240.807 112.768 241.163 112.92 241.539 113.04C241.923 113.16 242.295 113.216 242.655 113.208C242.903 113.208 243.135 113.188 243.351 113.148C243.575 113.108 243.771 113.028 243.939 112.908C244.107 112.788 244.239 112.612 244.335 112.38C244.431 112.156 244.479 111.856 244.479 111.48V110.568ZM244.467 106.2C243.987 106.016 243.519 105.924 243.063 105.924C242.759 105.924 242.471 105.972 242.199 106.068C241.935 106.156 241.703 106.292 241.503 106.476C241.303 106.652 241.143 106.88 241.023 107.16C240.903 107.432 240.843 107.752 240.843 108.12C240.843 108.496 240.895 108.824 240.999 109.104C241.103 109.384 241.243 109.62 241.419 109.812C241.595 109.996 241.799 110.136 242.031 110.232C242.271 110.32 242.523 110.364 242.787 110.364C243.059 110.364 243.335 110.316 243.615 110.22C243.903 110.116 244.187 109.96 244.467 109.752V106.2ZM252.719 111.408C252.559 111.792 252.391 112.168 252.215 112.536C252.039 112.904 251.827 113.208 251.579 113.448C251.339 113.696 251.051 113.856 250.715 113.928C250.387 114 249.987 113.932 249.515 113.724L249.647 113.028C249.919 113.156 250.155 113.212 250.355 113.196C250.563 113.18 250.739 113.112 250.883 112.992C251.035 112.88 251.167 112.724 251.279 112.524C251.391 112.324 251.495 112.104 251.591 111.864L251.927 111.048L249.275 105.324V105.228H250.271L251.423 107.796L252.371 110.088H252.383L253.259 107.82L254.315 105.228H255.263V105.324L252.719 111.408ZM262.046 108.096C262.046 108.6 261.958 109.04 261.782 109.416C261.606 109.792 261.374 110.108 261.086 110.364C260.798 110.612 260.47 110.8 260.102 110.928C259.734 111.048 259.358 111.108 258.974 111.108C258.598 111.108 258.226 111.044 257.858 110.916C257.498 110.788 257.174 110.6 256.886 110.352C256.606 110.096 256.378 109.784 256.202 109.416C256.034 109.04 255.95 108.6 255.95 108.096C255.95 107.592 256.038 107.152 256.214 106.776C256.39 106.4 256.622 106.092 256.91 105.852C257.198 105.604 257.522 105.42 257.882 105.3C258.25 105.172 258.626 105.108 259.01 105.108C259.394 105.108 259.766 105.172 260.126 105.3C260.494 105.42 260.818 105.604 261.098 105.852C261.386 106.1 261.614 106.412 261.782 106.788C261.958 107.156 262.046 107.592 262.046 108.096ZM256.898 108.096C256.898 108.464 256.958 108.788 257.078 109.068C257.198 109.348 257.358 109.58 257.558 109.764C257.758 109.948 257.982 110.088 258.23 110.184C258.486 110.28 258.746 110.328 259.01 110.328C259.274 110.328 259.53 110.28 259.778 110.184C260.034 110.088 260.258 109.948 260.45 109.764C260.65 109.58 260.81 109.348 260.93 109.068C261.05 108.788 261.11 108.464 261.11 108.096C261.11 107.728 261.05 107.408 260.93 107.136C260.81 106.864 260.65 106.64 260.45 106.464C260.25 106.28 260.022 106.144 259.766 106.056C259.518 105.96 259.262 105.912 258.998 105.912C258.734 105.912 258.474 105.96 258.218 106.056C257.97 106.144 257.746 106.28 257.546 106.464C257.354 106.64 257.198 106.864 257.078 107.136C256.958 107.408 256.898 107.728 256.898 108.096ZM268.522 105.216V109.452C268.522 109.668 268.53 109.84 268.546 109.968C268.562 110.088 268.594 110.184 268.642 110.256C268.69 110.32 268.758 110.36 268.846 110.376C268.934 110.384 269.054 110.38 269.206 110.364L269.218 111.012C268.994 111.052 268.782 111.072 268.582 111.072C268.39 111.08 268.222 111.056 268.078 111C267.934 110.936 267.822 110.836 267.742 110.7C267.67 110.556 267.642 110.356 267.658 110.1C267.546 110.3 267.414 110.468 267.262 110.604C267.11 110.732 266.942 110.836 266.758 110.916C266.582 110.988 266.394 111.036 266.194 111.06C265.994 111.092 265.794 111.108 265.594 111.108C265.21 111.108 264.878 111.044 264.598 110.916C264.326 110.788 264.102 110.612 263.926 110.388C263.75 110.156 263.622 109.888 263.542 109.584C263.462 109.28 263.422 108.948 263.422 108.588V105.216H264.37V108.588C264.362 109.116 264.49 109.54 264.754 109.86C265.018 110.18 265.39 110.34 265.87 110.34C266.374 110.34 266.786 110.184 267.106 109.872C267.426 109.552 267.586 109.12 267.586 108.576V105.216H268.522ZM271.581 106.032C271.757 105.696 272.001 105.46 272.313 105.324C272.625 105.18 272.965 105.108 273.333 105.108C273.837 105.108 274.289 105.252 274.689 105.54L274.461 106.332C274.277 106.212 274.081 106.12 273.873 106.056C273.673 105.984 273.461 105.948 273.237 105.948C273.029 105.948 272.829 105.984 272.637 106.056C272.445 106.128 272.273 106.228 272.121 106.356C271.977 106.484 271.861 106.644 271.773 106.836C271.685 107.02 271.641 107.224 271.641 107.448V111H270.717V106.62C270.717 106.492 270.713 106.376 270.705 106.272C270.697 106.16 270.669 106.072 270.621 106.008C270.581 105.936 270.513 105.884 270.417 105.852C270.321 105.82 270.189 105.812 270.021 105.828L270.009 105.204C270.233 105.164 270.437 105.144 270.621 105.144C270.813 105.144 270.977 105.172 271.113 105.228C271.257 105.284 271.369 105.376 271.449 105.504C271.529 105.632 271.573 105.808 271.581 106.032ZM279.394 102.204V108.924C279.394 109.204 279.406 109.436 279.43 109.62C279.454 109.804 279.502 109.956 279.574 110.076C279.646 110.188 279.742 110.268 279.862 110.316C279.99 110.364 280.15 110.388 280.342 110.388C280.486 110.388 280.654 110.376 280.846 110.352L280.882 111.036C280.754 111.052 280.638 111.068 280.534 111.084C280.438 111.1 280.322 111.108 280.186 111.108C279.562 111.108 279.114 110.936 278.842 110.592C278.578 110.248 278.446 109.692 278.446 108.924V102.204H279.394ZM287.534 108.096C287.534 108.6 287.446 109.04 287.27 109.416C287.094 109.792 286.862 110.108 286.574 110.364C286.286 110.612 285.958 110.8 285.59 110.928C285.222 111.048 284.846 111.108 284.462 111.108C284.086 111.108 283.714 111.044 283.346 110.916C282.986 110.788 282.662 110.6 282.374 110.352C282.094 110.096 281.866 109.784 281.69 109.416C281.522 109.04 281.438 108.6 281.438 108.096C281.438 107.592 281.526 107.152 281.702 106.776C281.878 106.4 282.11 106.092 282.398 105.852C282.686 105.604 283.01 105.42 283.37 105.3C283.738 105.172 284.114 105.108 284.498 105.108C284.882 105.108 285.254 105.172 285.614 105.3C285.982 105.42 286.306 105.604 286.586 105.852C286.874 106.1 287.102 106.412 287.27 106.788C287.446 107.156 287.534 107.592 287.534 108.096ZM282.386 108.096C282.386 108.464 282.446 108.788 282.566 109.068C282.686 109.348 282.846 109.58 283.046 109.764C283.246 109.948 283.47 110.088 283.718 110.184C283.974 110.28 284.234 110.328 284.498 110.328C284.762 110.328 285.018 110.28 285.266 110.184C285.522 110.088 285.746 109.948 285.938 109.764C286.138 109.58 286.298 109.348 286.418 109.068C286.538 108.788 286.598 108.464 286.598 108.096C286.598 107.728 286.538 107.408 286.418 107.136C286.298 106.864 286.138 106.64 285.938 106.464C285.738 106.28 285.51 106.144 285.254 106.056C285.006 105.96 284.75 105.912 284.486 105.912C284.222 105.912 283.962 105.96 283.706 106.056C283.458 106.144 283.234 106.28 283.034 106.464C282.842 106.64 282.686 106.864 282.566 107.136C282.446 107.408 282.386 107.728 282.386 108.096ZM292.87 109.956C292.766 110.156 292.63 110.328 292.462 110.472C292.294 110.616 292.106 110.736 291.898 110.832C291.698 110.928 291.482 110.996 291.25 111.036C291.026 111.084 290.806 111.108 290.59 111.108C290.326 111.108 290.07 111.076 289.822 111.012C289.574 110.948 289.354 110.848 289.162 110.712C288.978 110.568 288.83 110.392 288.718 110.184C288.606 109.968 288.55 109.712 288.55 109.416C288.55 109.096 288.606 108.816 288.718 108.576C288.838 108.336 288.998 108.136 289.198 107.976C289.406 107.816 289.642 107.696 289.906 107.616C290.17 107.536 290.454 107.496 290.758 107.496C291.094 107.496 291.438 107.528 291.79 107.592C292.142 107.648 292.462 107.756 292.75 107.916V107.076C292.75 106.836 292.69 106.636 292.57 106.476C292.458 106.316 292.31 106.192 292.126 106.104C291.95 106.016 291.754 105.956 291.538 105.924C291.33 105.884 291.126 105.864 290.926 105.864C290.59 105.864 290.274 105.9 289.978 105.972C289.682 106.036 289.41 106.14 289.162 106.284L289.006 105.54C289.286 105.396 289.602 105.288 289.954 105.216C290.314 105.144 290.686 105.108 291.07 105.108C291.398 105.108 291.714 105.14 292.018 105.204C292.33 105.268 292.602 105.38 292.834 105.54C293.074 105.692 293.262 105.896 293.398 106.152C293.542 106.408 293.61 106.724 293.602 107.1V109.512C293.602 109.672 293.602 109.816 293.602 109.944C293.61 110.064 293.634 110.164 293.674 110.244C293.714 110.324 293.778 110.38 293.866 110.412C293.962 110.444 294.098 110.448 294.274 110.424L294.286 111.036C294.046 111.076 293.838 111.092 293.662 111.084C293.486 111.076 293.338 111.032 293.218 110.952C293.098 110.872 293.01 110.752 292.954 110.592C292.898 110.432 292.87 110.22 292.87 109.956ZM292.738 108.636C292.554 108.524 292.298 108.428 291.97 108.348C291.642 108.268 291.31 108.228 290.974 108.228C290.79 108.228 290.606 108.248 290.422 108.288C290.246 108.328 290.086 108.392 289.942 108.48C289.806 108.568 289.694 108.684 289.606 108.828C289.518 108.972 289.474 109.148 289.474 109.356C289.474 109.54 289.51 109.696 289.582 109.824C289.654 109.944 289.75 110.04 289.87 110.112C289.99 110.184 290.126 110.236 290.278 110.268C290.438 110.292 290.598 110.304 290.758 110.304C290.95 110.304 291.146 110.28 291.346 110.232C291.554 110.184 291.75 110.108 291.934 110.004C292.126 109.9 292.29 109.768 292.426 109.608C292.57 109.44 292.674 109.24 292.738 109.008V108.636ZM299.986 111V107.58C299.986 107.052 299.834 106.64 299.53 106.344C299.234 106.04 298.846 105.888 298.366 105.888C298.118 105.888 297.89 105.928 297.682 106.008C297.474 106.088 297.29 106.2 297.13 106.344C296.978 106.488 296.858 106.664 296.77 106.872C296.682 107.072 296.638 107.292 296.638 107.532V111H295.702V106.872C295.702 106.68 295.694 106.52 295.678 106.392C295.67 106.264 295.642 106.164 295.594 106.092C295.546 106.02 295.478 105.976 295.39 105.96C295.302 105.936 295.182 105.932 295.03 105.948L295.018 105.204C295.186 105.18 295.362 105.16 295.546 105.144C295.73 105.128 295.898 105.144 296.05 105.192C296.202 105.232 296.326 105.32 296.422 105.456C296.526 105.592 296.578 105.8 296.578 106.08C296.834 105.688 297.134 105.428 297.478 105.3C297.83 105.172 298.21 105.108 298.618 105.108C299.002 105.108 299.338 105.172 299.626 105.3C299.914 105.42 300.154 105.592 300.346 105.816C300.538 106.032 300.682 106.292 300.778 106.596C300.882 106.9 300.934 107.228 300.934 107.58V111H299.986Z" fill="#595959"/>
</g>
</g>
<defs>
<filter id="filter0_d_119_3461" x="-4" y="0" width="368" height="161" filterUnits="userSpaceOnUse" color-interpolation-filters="sRGB">
<feFlood flood-opacity="0" result="BackgroundImageFix"/>
<feColorMatrix in="SourceAlpha" type="matrix" values="0 0 0 0 0 0 0 0 0 0 0 0 0 0 0 0 0 0 127 0" result="hardAlpha"/>
<feOffset dy="4"/>
<feGaussianBlur stdDeviation="10"/>
<feColorMatrix type="matrix" values="0 0 0 0 0 0 0 0 0 0.228917 0 0 0 0 0.341667 0 0 0 0.05 0"/>
<feBlend mode="normal" in2="BackgroundImageFix" result="effect1_dropShadow_119_3461"/>
<feBlend mode="normal" in="SourceGraphic" in2="effect1_dropShadow_119_3461" result="shape"/>
</filter>
<clipPath id="clip0_119_3461">
<rect x="16" y="16" width="328" height="121" rx="12" fill="white"/>
</clipPath>
</defs>
</svg>
