<svg width="328" height="121" viewBox="0 0 328 121" fill="none" xmlns="http://www.w3.org/2000/svg">
<g clip-path="url(#clip0_912_1903)">
<rect width="328" height="121" rx="12" fill="#E6F6FA"/>
<circle cx="100" cy="-25" r="94" fill="#CCEDFA"/>
<circle cx="273.5" cy="106.5" r="31.5" fill="#CCEDFA"/>
<path d="M74.2818 53.6741C74.8926 53.6741 75.3907 53.1804 75.3651 52.5721C75.2285 49.311 74.4856 46.1034 73.1741 43.1123C72.9293 42.5544 72.2645 42.3278 71.7152 42.5945C71.1653 42.8612 70.9399 43.5201 71.1824 44.079C72.3487 46.768 73.0159 49.6459 73.1496 52.5722C73.1775 53.1803 73.6705 53.6741 74.2818 53.6741Z" fill="#008A00"/>
<path d="M71.3725 41.9214C71.9133 41.6385 72.1239 40.9709 71.8177 40.4441C70.5916 38.3364 69.078 36.4078 67.3209 34.7135C66.8817 34.2901 66.1803 34.3321 65.7739 34.7868C65.3674 35.2415 65.41 35.9364 65.8475 36.3616C67.4077 37.8774 68.7559 39.5956 69.8555 41.4698C70.1641 41.9954 70.8312 42.2044 71.3725 41.9214Z" fill="#8CCF54"/>
<path d="M66.1741 33.1136C66.4775 32.7833 66.45 32.2685 66.1039 31.9827C64.1555 30.3739 61.7417 28.7937 59.4265 27.7927C59.0182 27.6161 58.552 27.8269 58.3961 28.2422L57.2138 31.3916C57.0594 31.803 57.2681 32.26 57.6748 32.4298C59.6291 33.2461 61.2168 34.2248 62.8494 35.5739C63.1854 35.8517 63.6829 35.8258 63.9777 35.5048L66.1741 33.1136Z" fill="#FCD800"/>
<path d="M57.1748 29.7688C57.3743 29.1934 57.0682 28.5635 56.4825 28.3891C54.3024 27.7396 52.0474 27.3726 49.7732 27.297C49.1622 27.2767 48.6707 27.7767 48.6758 28.3855C48.681 28.9942 49.1809 29.481 49.7917 29.5036C51.8139 29.5785 53.8188 29.9048 55.7596 30.475C56.3459 30.6472 56.9754 30.3443 57.1748 29.7688Z" fill="#FF871F"/>
<path d="M23.4965 53.675C22.8853 53.675 22.3873 53.1811 22.4128 52.5728C22.6839 46.1089 25.3318 39.954 29.8738 35.2933C34.4159 30.6326 40.5141 27.813 46.9933 27.3504C47.603 27.3069 48.1135 27.7878 48.1317 28.3963C48.1499 29.0048 47.669 29.5102 47.0595 29.5561C41.1559 30.0001 35.6034 32.5794 31.4622 36.8287C27.3211 41.078 24.898 46.6826 24.6285 52.573C24.6006 53.1811 24.1077 53.675 23.4965 53.675Z" fill="#E15825"/>
<path opacity="0.8" fill-rule="evenodd" clip-rule="evenodd" d="M71.043 52.8417C71.3492 45.0084 63.8768 32.0796 49.4074 32.0796C33.2147 32.0796 27.2926 44.9429 26.9798 52.7821C26.9654 53.1425 27.2602 53.4333 27.6223 53.4333H48.9852H70.406C70.7447 53.4333 71.0293 53.1787 71.043 52.8417ZM41.1063 53.432C41.1063 49.076 44.6519 45.5447 49.0256 45.5447C53.3994 45.5447 56.945 49.076 56.945 53.432H41.1063Z" fill="#00A6CA"/>
<path d="M54.3422 53.4111H43.1152C43.1152 51.4295 44.5916 47.8931 48.8363 47.8931C52.6197 47.8931 54.5267 51.4295 54.3422 53.4111Z" fill="#FCD800"/>
<path d="M55.9927 34.0788L47.8383 50.7323C47.5823 51.2564 47.8232 51.8838 48.3688 52.114C48.9145 52.3443 49.5462 52.0852 49.7602 51.5434L56.791 34.4158C56.8752 34.2026 56.772 33.9624 56.5574 33.8719C56.3428 33.7813 56.0934 33.8726 55.9927 34.0788Z" fill="#2C2C2C"/>
<path fill-rule="evenodd" clip-rule="evenodd" d="M31.5271 48.7534L37.0376 68.0129L41.0581 82.208H43.9906L39.7182 48.7534H31.5271Z" fill="#47447C"/>
<path fill-rule="evenodd" clip-rule="evenodd" d="M30.0536 48.7534C29.926 58.68 29.4914 64.0942 29.3576 64.9961C29.2238 65.8979 27.2003 71.6352 23.2871 82.208H26.3249C31.3067 72.0653 34.0876 66.3279 34.6678 64.9961C35.2479 63.6642 37.0382 58.2499 39.7349 48.7534H30.0536Z" fill="#5F5BA9"/>
<path fill-rule="evenodd" clip-rule="evenodd" d="M23.7166 85.2711L23.8685 82.0923H27.0604C28.5739 83.1519 30.5498 84.0096 32.9882 84.6656V85.2711H27.2124L25.2365 84.9683V85.2711H23.7166Z" fill="#191847"/>
<path fill-rule="evenodd" clip-rule="evenodd" d="M41.3477 85.2711L41.4996 82.0923H44.6915C46.205 83.1519 48.1809 84.0096 50.6193 84.6656V85.2711H44.8435L42.8676 84.9683V85.2711H41.3477Z" fill="#191847"/>
<path fill-rule="evenodd" clip-rule="evenodd" d="M45.5107 43.8991L50.854 41.1478C51.7559 40.1314 52.6394 39.3464 53.5045 38.7928C53.7672 38.6908 54.2236 38.6362 53.7802 39.378C53.3367 40.1198 52.9038 40.92 53.1149 41.1568C53.3261 41.3937 53.8743 41.0829 54.1235 41.4739C54.2898 41.7347 53.3568 42.118 51.3246 42.6241L47.4084 46.0275L45.5107 43.8991Z" fill="#D6A97F"/>
<path d="M26.528 49.6908L24.3235 49.0762C22.9931 53.4924 22.2021 55.9122 21.9505 56.3355C21.766 56.6458 20.509 57.5355 19.646 58.0329C19.2997 58.2325 19.4137 58.5305 19.5321 58.6164C20.4953 59.3149 21.2175 58.631 22.1238 58.2924C23.1167 57.9214 22.9392 59.1695 23.7253 58.8889C23.532 58.3502 23.3533 57.3655 23.6601 56.7488C23.7965 56.4747 24.6981 54.4066 26.528 49.6908Z" fill="#D6A97F"/>
<path fill-rule="evenodd" clip-rule="evenodd" d="M34.9473 33.0981L36.1559 33.2963C39.0185 36.062 38.6964 42.8757 40.6042 43.7553C42.2897 44.5323 45.0954 42.5927 47.808 42.5927C48.0037 42.5211 48.2013 42.4494 48.4005 42.3782L49.4875 44.1825C49.3676 44.3117 49.2418 44.4416 49.1107 44.5718C49.1107 46.7097 41.783 49.602 39.5019 48.2291C35.6893 45.9347 34.8092 37.7397 34.9473 33.0981Z" fill="#B11030"/>
<path fill-rule="evenodd" clip-rule="evenodd" d="M34.4881 30.5013C33.7714 29.6635 33.2865 28.6368 33.3675 27.4864C33.601 24.1718 38.2338 24.901 39.135 26.5739C40.0362 28.2469 39.9291 32.4904 38.7644 32.7894C38.3 32.9087 37.3105 32.6166 36.3034 32.0121L36.9355 36.4659H33.2031L34.4881 30.5013Z" fill="#D6A97F"/>
<path fill-rule="evenodd" clip-rule="evenodd" d="M35.6491 28.7012C35.527 28.6176 35.3812 28.5669 35.2246 28.5669C34.7951 28.5669 34.447 28.9483 34.447 29.3413C34.447 29.7502 34.6409 30.0664 34.9177 30.2005C34.7699 30.4884 34.6212 30.6974 34.447 30.7353C33.7748 30.6676 32.8918 29.0037 32.8918 27.6376C32.8918 26.1422 34.0865 24.8496 36.3132 24.8496C38.3145 24.8496 39.0734 25.6715 39.1125 26.3985C38.2549 26.6332 36.7562 26.7236 34.6025 26.7082V26.8631L36.4687 27.018L36.7797 27.9474C36.2849 27.9106 35.9313 28.2486 35.6491 28.7012Z" fill="#262626"/>
<path fill-rule="evenodd" clip-rule="evenodd" d="M37.4472 34.5282C37.3198 42.6422 40.2326 47.597 41.0973 52.6001C41.9208 58.7924 30.9483 57.1213 29.5135 54.4865C28.9327 53.4199 28.7447 49.6064 29.5135 47.1508C28.7913 47.9079 28.8857 48.0254 28.0259 49.3548C26.9268 51.4265 26.0183 50.7793 26.0183 51.2961L23.8302 50.5172C23.9577 49.815 23.5926 49.8656 23.8301 48.2971C24.8948 41.2691 28.3728 36.7531 33.0291 33.5924L33.0773 32.9062C33.097 32.6258 33.3413 32.4143 33.6229 32.4339L37.065 32.6736C37.3466 32.6932 37.559 32.9365 37.5393 33.217L37.4472 34.5282Z" fill="#FF7171"/>
<path d="M31.5577 42.6553L29.4579 47.0887C28.7188 49.8324 29.0202 52.8793 29.3281 54.0503L31.5577 42.6553Z" fill="#B11030"/>
<path d="M72.3527 31.4678C70.0314 31.4678 68.1501 29.5939 68.1501 27.2825C68.1501 24.971 70.0314 23.0972 72.3527 23.0972C74.6735 23.0972 76.5548 24.971 76.5548 27.2825C76.5548 29.5939 74.6735 31.4678 72.3527 31.4678Z" fill="#44BA74"/>
<path fill-rule="evenodd" clip-rule="evenodd" d="M70.197 27.4739C70.3171 27.3544 70.5118 27.3544 70.6319 27.474L71.7129 28.5508C71.833 28.6704 71.833 28.8642 71.7129 28.9837C71.5928 29.1033 71.3981 29.1033 71.278 28.9837L70.197 27.9069C70.0769 27.7873 70.0769 27.5935 70.197 27.4739Z" fill="#FBE8EC"/>
<path fill-rule="evenodd" clip-rule="evenodd" d="M74.7361 25.5804C74.616 25.4608 74.4213 25.4608 74.3012 25.5804L71.3196 28.5501C71.1995 28.6697 71.1995 28.8635 71.3196 28.983C71.4397 29.1026 71.6344 29.1026 71.7545 28.983L74.7361 26.0134C74.8562 25.8938 74.8562 25.7 74.7361 25.5804Z" fill="#FBE8EC"/>
<path opacity="0.2" d="M50.8577 85.2714C50.8577 86.1501 43.8821 86.8622 35.2772 86.8622C26.6724 86.8622 19.6968 86.1501 19.6968 85.2714C19.6968 84.3932 26.6724 83.6812 35.2772 83.6812C43.8821 83.6812 50.8577 84.3932 50.8577 85.2714Z" fill="black"/>
<path d="M92.672 32.416C92.672 28.688 95.456 26.592 98.4 26.64C100.656 26.64 103.056 27.856 103.568 30.624H101.248C100.752 29.36 99.744 28.8 98.4 28.8C96.416 28.8 95.088 30.288 95.088 32.416C95.088 34.336 96.384 35.984 98.384 35.984C99.776 35.984 100.912 35.328 101.296 33.968H103.6C103.12 36.928 100.736 38.16 98.4 38.16C95.456 38.16 92.672 36.128 92.672 32.416ZM112.796 38H110.54V33.536C110.588 32.448 109.948 31.904 109.116 31.904C108.22 31.888 107.468 32.512 107.468 33.584V38H105.212V26.32H107.468V31.12C107.964 30.432 108.796 30.128 109.756 30.128C111.964 30.128 112.796 31.552 112.796 33.536V38ZM118.358 30.128C121.174 30.128 122.358 32.144 121.766 34.768H116.55C116.694 36.032 117.766 36.304 118.598 36.384C119.558 36.432 120.534 36.288 121.462 35.904L121.718 37.488C120.806 37.92 119.75 38.16 118.726 38.16C116.134 38.208 114.31 36.656 114.31 34.048C114.358 31.36 116.31 30.128 118.358 30.128ZM118.358 31.744C117.238 31.744 116.758 32.416 116.566 33.344H119.958C120.006 32.336 119.414 31.744 118.358 31.744ZM131.027 33.072H128.899C128.627 32.352 128.051 32.048 127.283 32.048C126.227 32.048 125.331 32.736 125.331 34.112C125.331 35.504 126.227 36.288 127.283 36.288C127.987 36.288 128.659 35.856 128.931 35.04H131.059C130.739 37.104 128.995 38.144 127.219 38.16C125.187 38.176 123.107 36.832 123.107 34.112C123.107 31.408 125.203 30.128 127.235 30.128C128.979 30.128 130.675 31.056 131.027 33.072ZM134.827 33.12H135.371C137.147 33.12 137.595 31.872 137.595 30.288H139.707C139.755 31.92 139.387 33.28 137.867 34.08L140.075 37.76V37.984H137.819L135.979 34.784C135.786 34.848 135.579 34.88 135.339 34.88H134.827V37.984H132.603V26.304H134.827V33.12ZM152.671 30.544L149.471 38.752C148.495 41.264 147.423 42.592 144.623 41.568L144.863 40.016C146.127 40.576 146.783 40.096 147.231 38.816L147.519 38.016L144.143 30.544V30.288H146.495L147.535 32.896L148.543 35.744H148.591L149.471 32.912L150.399 30.288H152.671V30.544ZM161.502 34.112C161.502 36.816 159.47 38.16 157.438 38.16C155.39 38.16 153.326 36.816 153.326 34.112C153.326 31.44 155.342 30.144 157.374 30.128C159.438 30.112 161.502 31.392 161.502 34.112ZM155.55 34.112C155.55 35.504 156.462 36.208 157.39 36.208C158.334 36.224 159.278 35.52 159.278 34.112C159.278 32.736 158.382 32.096 157.438 32.096C156.494 32.096 155.55 32.72 155.55 34.112ZM168.206 30.288H170.446V35.696C170.446 36.416 170.478 36.672 171.166 36.624L171.182 37.984C170.094 38.24 168.366 38.384 168.366 36.896C167.934 37.792 166.814 38.16 165.902 38.16C163.678 38.16 163.038 36.64 163.038 34.72V30.288H165.294V34.72C165.294 35.952 165.838 36.4 166.622 36.4C167.518 36.416 168.206 35.712 168.206 34.672V30.288ZM175.142 31.44C175.462 30.56 176.438 30.128 177.382 30.128C177.974 30.112 178.582 30.288 179.03 30.624L178.534 32.496C178.07 32.192 177.59 32.064 177.094 32.08C176.118 32.08 175.286 32.72 175.286 33.904V38H173.094V32.64C173.094 32 173.03 31.584 172.326 31.696V30.32C173.446 30.064 175.014 30.064 175.142 31.44ZM183.344 32.416C183.344 28.688 186.128 26.592 189.072 26.64C191.328 26.64 193.728 27.856 194.24 30.624H191.92C191.424 29.36 190.416 28.8 189.072 28.8C187.088 28.8 185.76 30.288 185.76 32.416C185.76 34.336 187.056 35.984 189.056 35.984C190.448 35.984 191.584 35.328 191.968 33.968H194.272C193.792 36.928 191.408 38.16 189.072 38.16C186.128 38.16 183.344 36.128 183.344 32.416ZM199.548 36.096H201.132V38H195.564V36.096H197.148V28.656H195.692V26.8H201.004V28.656H199.548V36.096ZM211.443 30.128C211.443 30.944 211.027 31.76 210.323 32.192C211.363 32.624 211.923 33.536 211.923 34.688C211.923 36.656 210.611 38 208.371 38H203.171V26.816H207.923C209.971 26.816 211.443 28.032 211.443 30.128ZM207.747 28.864H205.555V31.408H207.747C208.563 31.408 209.075 30.96 209.091 30.208C209.107 29.392 208.579 28.864 207.747 28.864ZM208.099 33.36H205.555V35.92H208.211C209.027 35.92 209.507 35.44 209.555 34.688C209.571 34.24 209.395 33.824 209.059 33.584C208.787 33.392 208.467 33.36 208.099 33.36ZM217.235 36.096H218.819V38H213.251V36.096H214.835V28.656H213.379V26.8H218.691V28.656H217.235V36.096ZM223.243 26.8V35.856H227.915V38H220.843V26.8H223.243ZM232.185 35.6H234.425C234.441 36.24 235.049 36.528 235.689 36.512C236.345 36.512 237.001 36.32 237.017 35.632C237.017 35.056 236.457 34.992 235.913 34.912C234.361 34.704 232.345 34.544 232.345 32.672C232.345 30.944 233.769 30.128 235.657 30.128C237.497 30.128 239.081 30.96 239.001 32.592H236.889C236.873 32.032 236.329 31.808 235.689 31.808C235.049 31.808 234.505 32.096 234.505 32.608C234.505 33.184 235.113 33.216 235.609 33.264C237.337 33.472 239.305 33.552 239.257 35.616C239.209 37.456 237.529 38.16 235.785 38.16C234.041 38.16 232.265 37.648 232.185 35.6ZM248.293 33.072H246.165C245.893 32.352 245.317 32.048 244.549 32.048C243.493 32.048 242.597 32.736 242.597 34.112C242.597 35.504 243.493 36.288 244.549 36.288C245.253 36.288 245.925 35.856 246.197 35.04H248.325C248.005 37.104 246.261 38.144 244.485 38.16C242.453 38.176 240.373 36.832 240.373 34.112C240.373 31.408 242.469 30.128 244.501 30.128C246.245 30.128 247.941 31.056 248.293 33.072ZM257.58 34.112C257.58 36.816 255.548 38.16 253.516 38.16C251.468 38.16 249.404 36.816 249.404 34.112C249.404 31.44 251.42 30.144 253.452 30.128C255.516 30.112 257.58 31.392 257.58 34.112ZM251.628 34.112C251.628 35.504 252.54 36.208 253.468 36.208C254.412 36.224 255.356 35.52 255.356 34.112C255.356 32.736 254.46 32.096 253.516 32.096C252.572 32.096 251.628 32.72 251.628 34.112ZM261.532 31.44C261.852 30.56 262.828 30.128 263.772 30.128C264.364 30.112 264.972 30.288 265.42 30.624L264.924 32.496C264.46 32.192 263.98 32.064 263.484 32.08C262.508 32.08 261.676 32.72 261.676 33.904V38H259.484V32.64C259.484 32 259.42 31.584 258.716 31.696V30.32C259.836 30.064 261.404 30.064 261.532 31.44ZM270.015 30.128C272.831 30.128 274.015 32.144 273.423 34.768H268.207C268.351 36.032 269.423 36.304 270.255 36.384C271.215 36.432 272.191 36.288 273.119 35.904L273.375 37.488C272.463 37.92 271.407 38.16 270.383 38.16C267.791 38.208 265.967 36.656 265.967 34.048C266.015 31.36 267.967 30.128 270.015 30.128ZM270.015 31.744C268.895 31.744 268.415 32.416 268.223 33.344H271.615C271.663 32.336 271.071 31.744 270.015 31.744ZM93.76 58V51.888H92.336V50.304H93.792L93.808 49.328C93.808 46.176 96.24 45.792 98.768 46.56L98.544 48.224C97.392 47.792 95.936 47.728 95.936 49.376V50.304H98.368V51.888H95.936V58H93.76ZM107.205 54.112C107.205 56.816 105.173 58.16 103.141 58.16C101.093 58.16 99.0291 56.816 99.0291 54.112C99.0291 51.44 101.045 50.144 103.077 50.128C105.141 50.112 107.205 51.392 107.205 54.112ZM101.253 54.112C101.253 55.504 102.165 56.208 103.093 56.208C104.037 56.224 104.981 55.52 104.981 54.112C104.981 52.736 104.085 52.096 103.141 52.096C102.197 52.096 101.253 52.72 101.253 54.112ZM111.157 51.44C111.477 50.56 112.453 50.128 113.397 50.128C113.989 50.112 114.597 50.288 115.045 50.624L114.549 52.496C114.085 52.192 113.605 52.064 113.109 52.08C112.133 52.08 111.301 52.72 111.301 53.904V58H109.109V52.64C109.109 52 109.045 51.584 108.341 51.696V50.32C109.461 50.064 111.029 50.064 111.157 51.44ZM126.384 51.92V54.016H122.368V58H119.984V46.8H126.848V48.896H122.368V51.92H126.384ZM135.454 53.92L137.982 57.648V57.984H135.422L133.118 54.288H131.118V57.984H128.718V46.784C130.318 46.784 131.902 46.768 133.502 46.784C136.062 46.784 137.454 48.64 137.454 50.624C137.454 52.048 136.734 53.296 135.454 53.92ZM131.086 52.32H133.486C134.494 52.32 135.15 51.536 135.134 50.576C135.134 49.632 134.51 48.88 133.486 48.88H131.086V52.32ZM146.629 46.8V48.896H142.181V51.168H146.341V53.264H142.181V55.824H146.757V58H139.765V46.8H146.629ZM155.785 46.8V48.896H151.337V51.168H155.497V53.264H151.337V55.824H155.913V58H148.921V46.8H155.785Z" fill="#262626"/>
<path d="M99.032 72.88C99.032 73.288 98.932 73.648 98.732 73.96C98.54 74.264 98.264 74.484 97.904 74.62C98.384 74.756 98.756 74.996 99.02 75.34C99.284 75.676 99.416 76.108 99.416 76.636C99.416 77.02 99.348 77.36 99.212 77.656C99.084 77.952 98.904 78.2 98.672 78.4C98.44 78.592 98.16 78.74 97.832 78.844C97.504 78.948 97.144 79 96.752 79H93.116V70.6H96.392C96.768 70.6 97.116 70.644 97.436 70.732C97.764 70.82 98.044 70.956 98.276 71.14C98.516 71.324 98.7 71.56 98.828 71.848C98.964 72.136 99.032 72.48 99.032 72.88ZM94.112 71.44V74.296H96.332C96.572 74.296 96.796 74.272 97.004 74.224C97.22 74.176 97.404 74.096 97.556 73.984C97.716 73.872 97.84 73.728 97.928 73.552C98.016 73.376 98.06 73.156 98.06 72.892C98.06 72.62 98.016 72.392 97.928 72.208C97.848 72.024 97.728 71.876 97.568 71.764C97.416 71.652 97.232 71.572 97.016 71.524C96.808 71.468 96.58 71.44 96.332 71.44H94.112ZM94.112 75.136V78.136H96.68C96.928 78.136 97.156 78.108 97.364 78.052C97.572 77.988 97.752 77.896 97.904 77.776C98.064 77.648 98.188 77.492 98.276 77.308C98.364 77.116 98.408 76.892 98.408 76.636C98.416 76.356 98.368 76.12 98.264 75.928C98.168 75.736 98.032 75.584 97.856 75.472C97.68 75.352 97.468 75.268 97.22 75.22C96.98 75.164 96.724 75.136 96.452 75.136H94.112ZM104.827 77.956C104.723 78.156 104.587 78.328 104.419 78.472C104.251 78.616 104.063 78.736 103.855 78.832C103.655 78.928 103.439 78.996 103.207 79.036C102.983 79.084 102.763 79.108 102.547 79.108C102.283 79.108 102.027 79.076 101.779 79.012C101.531 78.948 101.311 78.848 101.119 78.712C100.935 78.568 100.787 78.392 100.675 78.184C100.563 77.968 100.507 77.712 100.507 77.416C100.507 77.096 100.563 76.816 100.675 76.576C100.795 76.336 100.955 76.136 101.155 75.976C101.363 75.816 101.599 75.696 101.863 75.616C102.127 75.536 102.411 75.496 102.715 75.496C103.051 75.496 103.395 75.528 103.747 75.592C104.099 75.648 104.419 75.756 104.707 75.916V75.076C104.707 74.836 104.647 74.636 104.527 74.476C104.415 74.316 104.267 74.192 104.083 74.104C103.907 74.016 103.711 73.956 103.495 73.924C103.287 73.884 103.083 73.864 102.883 73.864C102.547 73.864 102.231 73.9 101.935 73.972C101.639 74.036 101.367 74.14 101.119 74.284L100.963 73.54C101.243 73.396 101.559 73.288 101.911 73.216C102.271 73.144 102.643 73.108 103.027 73.108C103.355 73.108 103.671 73.14 103.975 73.204C104.287 73.268 104.559 73.38 104.791 73.54C105.031 73.692 105.219 73.896 105.355 74.152C105.499 74.408 105.567 74.724 105.559 75.1V77.512C105.559 77.672 105.559 77.816 105.559 77.944C105.567 78.064 105.591 78.164 105.631 78.244C105.671 78.324 105.735 78.38 105.823 78.412C105.919 78.444 106.055 78.448 106.231 78.424L106.243 79.036C106.003 79.076 105.795 79.092 105.619 79.084C105.443 79.076 105.295 79.032 105.175 78.952C105.055 78.872 104.967 78.752 104.911 78.592C104.855 78.432 104.827 78.22 104.827 77.956ZM104.695 76.636C104.511 76.524 104.255 76.428 103.927 76.348C103.599 76.268 103.267 76.228 102.931 76.228C102.747 76.228 102.563 76.248 102.379 76.288C102.203 76.328 102.043 76.392 101.899 76.48C101.763 76.568 101.651 76.684 101.563 76.828C101.475 76.972 101.431 77.148 101.431 77.356C101.431 77.54 101.467 77.696 101.539 77.824C101.611 77.944 101.707 78.04 101.827 78.112C101.947 78.184 102.083 78.236 102.235 78.268C102.395 78.292 102.555 78.304 102.715 78.304C102.907 78.304 103.103 78.28 103.303 78.232C103.511 78.184 103.707 78.108 103.891 78.004C104.083 77.9 104.247 77.768 104.383 77.608C104.527 77.44 104.631 77.24 104.695 77.008V76.636ZM111.943 79V75.58C111.943 75.052 111.791 74.64 111.487 74.344C111.191 74.04 110.803 73.888 110.323 73.888C110.075 73.888 109.847 73.928 109.639 74.008C109.431 74.088 109.247 74.2 109.087 74.344C108.935 74.488 108.815 74.664 108.727 74.872C108.639 75.072 108.595 75.292 108.595 75.532V79H107.659V74.872C107.659 74.68 107.651 74.52 107.635 74.392C107.627 74.264 107.599 74.164 107.551 74.092C107.503 74.02 107.435 73.976 107.347 73.96C107.259 73.936 107.139 73.932 106.987 73.948L106.975 73.204C107.143 73.18 107.319 73.16 107.503 73.144C107.687 73.128 107.855 73.144 108.007 73.192C108.159 73.232 108.283 73.32 108.379 73.456C108.483 73.592 108.535 73.8 108.535 74.08C108.791 73.688 109.091 73.428 109.435 73.3C109.787 73.172 110.167 73.108 110.575 73.108C110.959 73.108 111.295 73.172 111.583 73.3C111.871 73.42 112.111 73.592 112.303 73.816C112.495 74.032 112.639 74.292 112.735 74.596C112.839 74.9 112.891 75.228 112.891 75.58V79H111.943ZM116.355 75.604C117.155 75.604 117.735 75.416 118.095 75.04C118.455 74.664 118.635 74.056 118.635 73.216H119.535C119.535 73.88 119.415 74.452 119.175 74.932C118.935 75.404 118.499 75.764 117.867 76.012L119.811 78.892V79H118.839L117.051 76.3C116.835 76.348 116.599 76.372 116.343 76.372H115.587V79H114.639V70.228H115.587V75.604H116.355ZM121.529 77.368C121.545 77.552 121.601 77.708 121.697 77.836C121.801 77.956 121.929 78.056 122.081 78.136C122.241 78.216 122.417 78.272 122.609 78.304C122.801 78.336 122.993 78.352 123.185 78.352C123.385 78.352 123.581 78.332 123.773 78.292C123.965 78.252 124.137 78.192 124.289 78.112C124.441 78.032 124.565 77.928 124.661 77.8C124.757 77.672 124.809 77.52 124.817 77.344C124.817 77.176 124.781 77.04 124.709 76.936C124.645 76.832 124.545 76.748 124.409 76.684C124.273 76.612 124.101 76.556 123.893 76.516C123.693 76.468 123.461 76.424 123.197 76.384C122.909 76.352 122.621 76.308 122.333 76.252C122.053 76.196 121.797 76.112 121.565 76C121.341 75.888 121.153 75.74 121.001 75.556C120.857 75.364 120.781 75.116 120.773 74.812C120.765 74.516 120.829 74.26 120.965 74.044C121.101 73.828 121.281 73.652 121.505 73.516C121.737 73.372 121.997 73.268 122.285 73.204C122.573 73.14 122.869 73.108 123.173 73.108C123.469 73.108 123.761 73.144 124.049 73.216C124.345 73.28 124.605 73.38 124.829 73.516C125.061 73.652 125.245 73.824 125.381 74.032C125.517 74.24 125.581 74.484 125.573 74.764H124.673C124.673 74.612 124.629 74.48 124.541 74.368C124.461 74.248 124.349 74.152 124.205 74.08C124.069 74 123.909 73.944 123.725 73.912C123.549 73.872 123.365 73.852 123.173 73.852C122.989 73.852 122.805 73.872 122.621 73.912C122.437 73.944 122.273 73.996 122.129 74.068C121.985 74.14 121.869 74.236 121.781 74.356C121.693 74.476 121.653 74.62 121.661 74.788C121.669 75.068 121.805 75.264 122.069 75.376C122.341 75.48 122.745 75.572 123.281 75.652C123.585 75.692 123.885 75.74 124.181 75.796C124.477 75.844 124.741 75.928 124.973 76.048C125.205 76.16 125.389 76.32 125.525 76.528C125.669 76.728 125.737 77 125.729 77.344C125.729 77.64 125.657 77.9 125.513 78.124C125.377 78.34 125.193 78.52 124.961 78.664C124.729 78.808 124.457 78.916 124.145 78.988C123.841 79.06 123.521 79.1 123.185 79.108C122.873 79.108 122.565 79.08 122.261 79.024C121.965 78.968 121.697 78.872 121.457 78.736C121.225 78.6 121.033 78.42 120.881 78.196C120.729 77.972 120.641 77.696 120.617 77.368H121.529ZM134.724 75.016C134.564 74.656 134.324 74.388 134.004 74.212C133.692 74.036 133.352 73.948 132.984 73.948C132.72 73.948 132.456 73.992 132.192 74.08C131.936 74.168 131.704 74.3 131.496 74.476C131.296 74.652 131.132 74.876 131.004 75.148C130.884 75.412 130.824 75.724 130.824 76.084C130.824 76.444 130.884 76.76 131.004 77.032C131.132 77.304 131.292 77.532 131.484 77.716C131.684 77.9 131.908 78.04 132.156 78.136C132.412 78.232 132.672 78.28 132.936 78.28C133.32 78.28 133.68 78.18 134.016 77.98C134.36 77.78 134.612 77.476 134.772 77.068H135.684C135.596 77.412 135.46 77.712 135.276 77.968C135.092 78.224 134.876 78.436 134.628 78.604C134.38 78.772 134.108 78.9 133.812 78.988C133.524 79.068 133.228 79.108 132.924 79.108C132.548 79.108 132.176 79.044 131.808 78.916C131.448 78.788 131.124 78.6 130.836 78.352C130.548 78.096 130.316 77.78 130.14 77.404C129.964 77.02 129.876 76.58 129.876 76.084C129.876 75.58 129.964 75.14 130.14 74.764C130.324 74.388 130.56 74.08 130.848 73.84C131.136 73.592 131.464 73.408 131.832 73.288C132.2 73.168 132.572 73.108 132.948 73.108C133.244 73.108 133.532 73.152 133.812 73.24C134.092 73.32 134.352 73.44 134.592 73.6C134.832 73.752 135.04 73.948 135.216 74.188C135.4 74.428 135.536 74.704 135.624 75.016H134.724ZM141.353 79V75.628C141.361 75.076 141.221 74.648 140.933 74.344C140.645 74.04 140.249 73.888 139.745 73.888C139.217 73.88 138.793 74.04 138.473 74.368C138.161 74.696 138.005 75.128 138.005 75.664V79H137.057V70.228H138.005V74.008C138.261 73.688 138.541 73.46 138.845 73.324C139.149 73.18 139.529 73.108 139.985 73.108C140.777 73.116 141.361 73.352 141.737 73.816C142.121 74.272 142.313 74.876 142.313 75.628V79H141.353ZM146.656 73.108C147.648 73.116 148.36 73.396 148.792 73.948C149.224 74.492 149.36 75.244 149.2 76.204H144.628C144.612 76.54 144.66 76.84 144.772 77.104C144.892 77.36 145.056 77.58 145.264 77.764C145.472 77.948 145.72 78.088 146.008 78.184C146.296 78.28 146.604 78.328 146.932 78.328C147.268 78.328 147.592 78.292 147.904 78.22C148.224 78.148 148.552 78.044 148.888 77.908L149.032 78.616C148.336 78.944 147.628 79.108 146.908 79.108C146.428 79.108 145.988 79.036 145.588 78.892C145.188 78.748 144.844 78.54 144.556 78.268C144.268 77.996 144.048 77.668 143.896 77.284C143.744 76.892 143.676 76.448 143.692 75.952C143.708 75.496 143.796 75.092 143.956 74.74C144.116 74.388 144.328 74.092 144.592 73.852C144.864 73.604 145.176 73.42 145.528 73.3C145.88 73.172 146.256 73.108 146.656 73.108ZM146.656 73.852C146.128 73.852 145.684 73.992 145.324 74.272C144.964 74.552 144.744 74.956 144.664 75.484H148.432C148.448 75.212 148.412 74.976 148.324 74.776C148.236 74.568 148.112 74.396 147.952 74.26C147.792 74.124 147.6 74.024 147.376 73.96C147.152 73.888 146.912 73.852 146.656 73.852ZM155.173 75.016C155.013 74.656 154.773 74.388 154.453 74.212C154.141 74.036 153.801 73.948 153.433 73.948C153.169 73.948 152.905 73.992 152.641 74.08C152.385 74.168 152.153 74.3 151.945 74.476C151.745 74.652 151.581 74.876 151.453 75.148C151.333 75.412 151.273 75.724 151.273 76.084C151.273 76.444 151.333 76.76 151.453 77.032C151.581 77.304 151.741 77.532 151.933 77.716C152.133 77.9 152.357 78.04 152.605 78.136C152.861 78.232 153.121 78.28 153.385 78.28C153.769 78.28 154.129 78.18 154.465 77.98C154.809 77.78 155.061 77.476 155.221 77.068H156.133C156.045 77.412 155.909 77.712 155.725 77.968C155.541 78.224 155.325 78.436 155.077 78.604C154.829 78.772 154.557 78.9 154.261 78.988C153.973 79.068 153.677 79.108 153.373 79.108C152.997 79.108 152.625 79.044 152.257 78.916C151.897 78.788 151.573 78.6 151.285 78.352C150.997 78.096 150.765 77.78 150.589 77.404C150.413 77.02 150.325 76.58 150.325 76.084C150.325 75.58 150.413 75.14 150.589 74.764C150.773 74.388 151.009 74.08 151.297 73.84C151.585 73.592 151.913 73.408 152.281 73.288C152.649 73.168 153.021 73.108 153.397 73.108C153.693 73.108 153.981 73.152 154.261 73.24C154.541 73.32 154.801 73.44 155.041 73.6C155.281 73.752 155.489 73.948 155.665 74.188C155.849 74.428 155.985 74.704 156.073 75.016H155.173ZM159.222 75.604C160.022 75.604 160.602 75.416 160.962 75.04C161.322 74.664 161.502 74.056 161.502 73.216H162.402C162.402 73.88 162.282 74.452 162.042 74.932C161.802 75.404 161.366 75.764 160.734 76.012L162.678 78.892V79H161.706L159.918 76.3C159.702 76.348 159.466 76.372 159.21 76.372H158.454V79H157.506V70.228H158.454V75.604H159.222ZM169.453 79.408C169.293 79.792 169.125 80.168 168.949 80.536C168.773 80.904 168.561 81.208 168.313 81.448C168.073 81.696 167.785 81.856 167.449 81.928C167.121 82 166.721 81.932 166.249 81.724L166.381 81.028C166.653 81.156 166.889 81.212 167.089 81.196C167.297 81.18 167.473 81.112 167.617 80.992C167.769 80.88 167.901 80.724 168.013 80.524C168.125 80.324 168.229 80.104 168.325 79.864L168.661 79.048L166.009 73.324V73.228H167.005L168.157 75.796L169.105 78.088H169.117L169.993 75.82L171.049 73.228H171.997V73.324L169.453 79.408ZM178.781 76.096C178.781 76.6 178.693 77.04 178.517 77.416C178.341 77.792 178.109 78.108 177.821 78.364C177.533 78.612 177.205 78.8 176.837 78.928C176.469 79.048 176.093 79.108 175.709 79.108C175.333 79.108 174.961 79.044 174.593 78.916C174.233 78.788 173.909 78.6 173.621 78.352C173.341 78.096 173.113 77.784 172.937 77.416C172.769 77.04 172.685 76.6 172.685 76.096C172.685 75.592 172.773 75.152 172.949 74.776C173.125 74.4 173.357 74.092 173.645 73.852C173.933 73.604 174.257 73.42 174.617 73.3C174.985 73.172 175.361 73.108 175.745 73.108C176.129 73.108 176.501 73.172 176.861 73.3C177.229 73.42 177.553 73.604 177.833 73.852C178.121 74.1 178.349 74.412 178.517 74.788C178.693 75.156 178.781 75.592 178.781 76.096ZM173.633 76.096C173.633 76.464 173.693 76.788 173.813 77.068C173.933 77.348 174.093 77.58 174.293 77.764C174.493 77.948 174.717 78.088 174.965 78.184C175.221 78.28 175.481 78.328 175.745 78.328C176.009 78.328 176.265 78.28 176.513 78.184C176.769 78.088 176.993 77.948 177.185 77.764C177.385 77.58 177.545 77.348 177.665 77.068C177.785 76.788 177.845 76.464 177.845 76.096C177.845 75.728 177.785 75.408 177.665 75.136C177.545 74.864 177.385 74.64 177.185 74.464C176.985 74.28 176.757 74.144 176.501 74.056C176.253 73.96 175.997 73.912 175.733 73.912C175.469 73.912 175.209 73.96 174.953 74.056C174.705 74.144 174.481 74.28 174.281 74.464C174.089 74.64 173.933 74.864 173.813 75.136C173.693 75.408 173.633 75.728 173.633 76.096ZM185.256 73.216V77.452C185.256 77.668 185.264 77.84 185.28 77.968C185.296 78.088 185.328 78.184 185.376 78.256C185.424 78.32 185.492 78.36 185.58 78.376C185.668 78.384 185.788 78.38 185.94 78.364L185.952 79.012C185.728 79.052 185.516 79.072 185.316 79.072C185.124 79.08 184.956 79.056 184.812 79C184.668 78.936 184.556 78.836 184.476 78.7C184.404 78.556 184.376 78.356 184.392 78.1C184.28 78.3 184.148 78.468 183.996 78.604C183.844 78.732 183.676 78.836 183.492 78.916C183.316 78.988 183.128 79.036 182.928 79.06C182.728 79.092 182.528 79.108 182.328 79.108C181.944 79.108 181.612 79.044 181.332 78.916C181.06 78.788 180.836 78.612 180.66 78.388C180.484 78.156 180.356 77.888 180.276 77.584C180.196 77.28 180.156 76.948 180.156 76.588V73.216H181.104V76.588C181.096 77.116 181.224 77.54 181.488 77.86C181.752 78.18 182.124 78.34 182.604 78.34C183.108 78.34 183.52 78.184 183.84 77.872C184.16 77.552 184.32 77.12 184.32 76.576V73.216H185.256ZM188.315 74.032C188.491 73.696 188.735 73.46 189.047 73.324C189.359 73.18 189.699 73.108 190.067 73.108C190.571 73.108 191.023 73.252 191.423 73.54L191.195 74.332C191.011 74.212 190.815 74.12 190.607 74.056C190.407 73.984 190.195 73.948 189.971 73.948C189.763 73.948 189.563 73.984 189.371 74.056C189.179 74.128 189.007 74.228 188.855 74.356C188.711 74.484 188.595 74.644 188.507 74.836C188.419 75.02 188.375 75.224 188.375 75.448V79H187.451V74.62C187.451 74.492 187.447 74.376 187.439 74.272C187.431 74.16 187.403 74.072 187.355 74.008C187.315 73.936 187.247 73.884 187.151 73.852C187.055 73.82 186.923 73.812 186.755 73.828L186.743 73.204C186.967 73.164 187.171 73.144 187.355 73.144C187.547 73.144 187.711 73.172 187.847 73.228C187.991 73.284 188.103 73.376 188.183 73.504C188.263 73.632 188.307 73.808 188.315 74.032ZM194.928 74.8C194.928 74.144 195.036 73.548 195.252 73.012C195.476 72.476 195.78 72.02 196.164 71.644C196.548 71.268 196.996 70.98 197.508 70.78C198.028 70.58 198.584 70.484 199.176 70.492C199.584 70.492 199.984 70.548 200.376 70.66C200.768 70.764 201.128 70.928 201.456 71.152C201.792 71.368 202.084 71.64 202.332 71.968C202.588 72.296 202.78 72.68 202.908 73.12H201.936C201.68 72.544 201.308 72.116 200.82 71.836C200.332 71.556 199.784 71.416 199.176 71.416C198.696 71.408 198.256 71.488 197.856 71.656C197.456 71.824 197.116 72.06 196.836 72.364C196.556 72.668 196.336 73.028 196.176 73.444C196.024 73.86 195.948 74.312 195.948 74.8C195.948 75.272 196.024 75.716 196.176 76.132C196.328 76.54 196.544 76.896 196.824 77.2C197.112 77.504 197.452 77.744 197.844 77.92C198.244 78.088 198.684 78.172 199.164 78.172C199.812 78.172 200.388 78.016 200.892 77.704C201.396 77.384 201.76 76.92 201.984 76.312H202.956C202.836 76.784 202.648 77.196 202.392 77.548C202.144 77.892 201.852 78.18 201.516 78.412C201.18 78.644 200.808 78.816 200.4 78.928C200 79.04 199.592 79.096 199.176 79.096C198.592 79.096 198.04 78.996 197.52 78.796C197.008 78.596 196.56 78.312 196.176 77.944C195.792 77.568 195.488 77.116 195.264 76.588C195.04 76.06 194.928 75.464 194.928 74.8ZM207.825 78.196V79H203.913V78.196H205.365V71.392H204.009V70.6H207.729V71.392H206.373V78.196H207.825ZM215.305 72.88C215.305 73.288 215.205 73.648 215.005 73.96C214.813 74.264 214.537 74.484 214.177 74.62C214.657 74.756 215.029 74.996 215.293 75.34C215.557 75.676 215.689 76.108 215.689 76.636C215.689 77.02 215.621 77.36 215.485 77.656C215.357 77.952 215.177 78.2 214.945 78.4C214.713 78.592 214.433 78.74 214.105 78.844C213.777 78.948 213.417 79 213.025 79H209.389V70.6H212.665C213.041 70.6 213.389 70.644 213.709 70.732C214.037 70.82 214.317 70.956 214.549 71.14C214.789 71.324 214.973 71.56 215.101 71.848C215.237 72.136 215.305 72.48 215.305 72.88ZM210.385 71.44V74.296H212.605C212.845 74.296 213.069 74.272 213.277 74.224C213.493 74.176 213.677 74.096 213.829 73.984C213.989 73.872 214.113 73.728 214.201 73.552C214.289 73.376 214.333 73.156 214.333 72.892C214.333 72.62 214.289 72.392 214.201 72.208C214.121 72.024 214.001 71.876 213.841 71.764C213.689 71.652 213.505 71.572 213.289 71.524C213.081 71.468 212.853 71.44 212.605 71.44H210.385ZM210.385 75.136V78.136H212.953C213.201 78.136 213.429 78.108 213.637 78.052C213.845 77.988 214.025 77.896 214.177 77.776C214.337 77.648 214.461 77.492 214.549 77.308C214.637 77.116 214.681 76.892 214.681 76.636C214.689 76.356 214.641 76.12 214.537 75.928C214.441 75.736 214.305 75.584 214.129 75.472C213.953 75.352 213.741 75.268 213.493 75.22C213.253 75.164 212.997 75.136 212.725 75.136H210.385ZM220.598 78.196V79H216.686V78.196H218.138V71.392H216.782V70.6H220.502V71.392H219.146V78.196H220.598ZM223.171 78.1H227.131V79H222.163V70.6H223.171V78.1ZM231.606 76.708C231.622 76.988 231.706 77.228 231.858 77.428C232.01 77.62 232.202 77.776 232.434 77.896C232.666 78.016 232.918 78.104 233.19 78.16C233.47 78.208 233.738 78.232 233.994 78.232C234.242 78.232 234.498 78.208 234.762 78.16C235.034 78.112 235.278 78.028 235.494 77.908C235.718 77.788 235.902 77.628 236.046 77.428C236.19 77.22 236.266 76.964 236.274 76.66C236.274 76.324 236.202 76.064 236.058 75.88C235.914 75.688 235.726 75.544 235.494 75.448C235.262 75.344 235.002 75.276 234.714 75.244C234.434 75.204 234.15 75.164 233.862 75.124C233.478 75.084 233.102 75.024 232.734 74.944C232.374 74.864 232.05 74.744 231.762 74.584C231.474 74.416 231.242 74.2 231.066 73.936C230.89 73.664 230.802 73.316 230.802 72.892C230.802 72.476 230.89 72.12 231.066 71.824C231.25 71.52 231.486 71.272 231.774 71.08C232.062 70.88 232.386 70.732 232.746 70.636C233.114 70.54 233.482 70.492 233.85 70.492C234.21 70.492 234.574 70.536 234.942 70.624C235.31 70.704 235.642 70.836 235.938 71.02C236.242 71.196 236.49 71.428 236.682 71.716C236.874 72.004 236.978 72.352 236.994 72.76H236.058C236.034 72.496 235.95 72.276 235.806 72.1C235.67 71.924 235.498 71.784 235.29 71.68C235.082 71.576 234.854 71.504 234.606 71.464C234.358 71.416 234.114 71.392 233.874 71.392C233.642 71.392 233.402 71.42 233.154 71.476C232.914 71.524 232.69 71.608 232.482 71.728C232.282 71.84 232.118 71.992 231.99 72.184C231.862 72.376 231.798 72.608 231.798 72.88C231.798 73.192 231.866 73.436 232.002 73.612C232.138 73.788 232.314 73.924 232.53 74.02C232.746 74.108 232.986 74.172 233.25 74.212C233.514 74.244 233.774 74.276 234.03 74.308C234.446 74.356 234.846 74.42 235.23 74.5C235.622 74.572 235.966 74.692 236.262 74.86C236.566 75.028 236.806 75.256 236.982 75.544C237.166 75.824 237.258 76.196 237.258 76.66C237.258 77.108 237.158 77.488 236.958 77.8C236.766 78.104 236.514 78.352 236.202 78.544C235.89 78.736 235.542 78.876 235.158 78.964C234.774 79.052 234.39 79.1 234.006 79.108C233.614 79.116 233.222 79.076 232.83 78.988C232.438 78.9 232.082 78.76 231.762 78.568C231.442 78.376 231.178 78.128 230.97 77.824C230.762 77.512 230.65 77.14 230.634 76.708H231.606ZM243.204 75.016C243.044 74.656 242.804 74.388 242.484 74.212C242.172 74.036 241.832 73.948 241.464 73.948C241.2 73.948 240.936 73.992 240.672 74.08C240.416 74.168 240.184 74.3 239.976 74.476C239.776 74.652 239.612 74.876 239.484 75.148C239.364 75.412 239.304 75.724 239.304 76.084C239.304 76.444 239.364 76.76 239.484 77.032C239.612 77.304 239.772 77.532 239.964 77.716C240.164 77.9 240.388 78.04 240.636 78.136C240.892 78.232 241.152 78.28 241.416 78.28C241.8 78.28 242.16 78.18 242.496 77.98C242.84 77.78 243.092 77.476 243.252 77.068H244.164C244.076 77.412 243.94 77.712 243.756 77.968C243.572 78.224 243.356 78.436 243.108 78.604C242.86 78.772 242.588 78.9 242.292 78.988C242.004 79.068 241.708 79.108 241.404 79.108C241.028 79.108 240.656 79.044 240.288 78.916C239.928 78.788 239.604 78.6 239.316 78.352C239.028 78.096 238.796 77.78 238.62 77.404C238.444 77.02 238.356 76.58 238.356 76.084C238.356 75.58 238.444 75.14 238.62 74.764C238.804 74.388 239.04 74.08 239.328 73.84C239.616 73.592 239.944 73.408 240.312 73.288C240.68 73.168 241.052 73.108 241.428 73.108C241.724 73.108 242.012 73.152 242.292 73.24C242.572 73.32 242.832 73.44 243.072 73.6C243.312 73.752 243.52 73.948 243.696 74.188C243.88 74.428 244.016 74.704 244.104 75.016H243.204ZM251.261 76.096C251.261 76.6 251.173 77.04 250.997 77.416C250.821 77.792 250.589 78.108 250.301 78.364C250.013 78.612 249.685 78.8 249.317 78.928C248.949 79.048 248.573 79.108 248.189 79.108C247.813 79.108 247.441 79.044 247.073 78.916C246.713 78.788 246.389 78.6 246.101 78.352C245.821 78.096 245.593 77.784 245.417 77.416C245.249 77.04 245.165 76.6 245.165 76.096C245.165 75.592 245.253 75.152 245.429 74.776C245.605 74.4 245.837 74.092 246.125 73.852C246.413 73.604 246.737 73.42 247.097 73.3C247.465 73.172 247.841 73.108 248.225 73.108C248.609 73.108 248.981 73.172 249.341 73.3C249.709 73.42 250.033 73.604 250.313 73.852C250.601 74.1 250.829 74.412 250.997 74.788C251.173 75.156 251.261 75.592 251.261 76.096ZM246.113 76.096C246.113 76.464 246.173 76.788 246.293 77.068C246.413 77.348 246.573 77.58 246.773 77.764C246.973 77.948 247.197 78.088 247.445 78.184C247.701 78.28 247.961 78.328 248.225 78.328C248.489 78.328 248.745 78.28 248.993 78.184C249.249 78.088 249.473 77.948 249.665 77.764C249.865 77.58 250.025 77.348 250.145 77.068C250.265 76.788 250.325 76.464 250.325 76.096C250.325 75.728 250.265 75.408 250.145 75.136C250.025 74.864 249.865 74.64 249.665 74.464C249.465 74.28 249.237 74.144 248.981 74.056C248.733 73.96 248.477 73.912 248.213 73.912C247.949 73.912 247.689 73.96 247.433 74.056C247.185 74.144 246.961 74.28 246.761 74.464C246.569 74.64 246.413 74.864 246.293 75.136C246.173 75.408 246.113 75.728 246.113 76.096ZM253.753 74.032C253.929 73.696 254.173 73.46 254.485 73.324C254.797 73.18 255.137 73.108 255.505 73.108C256.009 73.108 256.461 73.252 256.861 73.54L256.633 74.332C256.449 74.212 256.253 74.12 256.045 74.056C255.845 73.984 255.633 73.948 255.409 73.948C255.201 73.948 255.001 73.984 254.809 74.056C254.617 74.128 254.445 74.228 254.293 74.356C254.149 74.484 254.033 74.644 253.945 74.836C253.857 75.02 253.813 75.224 253.813 75.448V79H252.889V74.62C252.889 74.492 252.885 74.376 252.877 74.272C252.869 74.16 252.841 74.072 252.793 74.008C252.753 73.936 252.685 73.884 252.589 73.852C252.493 73.82 252.361 73.812 252.193 73.828L252.181 73.204C252.405 73.164 252.609 73.144 252.793 73.144C252.985 73.144 253.149 73.172 253.285 73.228C253.429 73.284 253.541 73.376 253.621 73.504C253.701 73.632 253.745 73.808 253.753 74.032ZM260.305 73.108C261.297 73.116 262.009 73.396 262.441 73.948C262.873 74.492 263.009 75.244 262.849 76.204H258.277C258.261 76.54 258.309 76.84 258.421 77.104C258.541 77.36 258.705 77.58 258.913 77.764C259.121 77.948 259.369 78.088 259.657 78.184C259.945 78.28 260.253 78.328 260.581 78.328C260.917 78.328 261.241 78.292 261.553 78.22C261.873 78.148 262.201 78.044 262.537 77.908L262.681 78.616C261.985 78.944 261.277 79.108 260.557 79.108C260.077 79.108 259.637 79.036 259.237 78.892C258.837 78.748 258.493 78.54 258.205 78.268C257.917 77.996 257.697 77.668 257.545 77.284C257.393 76.892 257.325 76.448 257.341 75.952C257.357 75.496 257.445 75.092 257.605 74.74C257.765 74.388 257.977 74.092 258.241 73.852C258.513 73.604 258.825 73.42 259.177 73.3C259.529 73.172 259.905 73.108 260.305 73.108ZM260.305 73.852C259.777 73.852 259.333 73.992 258.973 74.272C258.613 74.552 258.393 74.956 258.313 75.484H262.081C262.097 75.212 262.061 74.976 261.973 74.776C261.885 74.568 261.761 74.396 261.601 74.26C261.441 74.124 261.249 74.024 261.025 73.96C260.801 73.888 260.561 73.852 260.305 73.852ZM271.351 77.956C271.247 78.156 271.111 78.328 270.943 78.472C270.775 78.616 270.587 78.736 270.379 78.832C270.179 78.928 269.963 78.996 269.731 79.036C269.507 79.084 269.287 79.108 269.071 79.108C268.807 79.108 268.551 79.076 268.303 79.012C268.055 78.948 267.835 78.848 267.643 78.712C267.459 78.568 267.311 78.392 267.199 78.184C267.087 77.968 267.031 77.712 267.031 77.416C267.031 77.096 267.087 76.816 267.199 76.576C267.319 76.336 267.479 76.136 267.679 75.976C267.887 75.816 268.123 75.696 268.387 75.616C268.651 75.536 268.935 75.496 269.239 75.496C269.575 75.496 269.919 75.528 270.271 75.592C270.623 75.648 270.943 75.756 271.231 75.916V75.076C271.231 74.836 271.171 74.636 271.051 74.476C270.939 74.316 270.791 74.192 270.607 74.104C270.431 74.016 270.235 73.956 270.019 73.924C269.811 73.884 269.607 73.864 269.407 73.864C269.071 73.864 268.755 73.9 268.459 73.972C268.163 74.036 267.891 74.14 267.643 74.284L267.487 73.54C267.767 73.396 268.083 73.288 268.435 73.216C268.795 73.144 269.167 73.108 269.551 73.108C269.879 73.108 270.195 73.14 270.499 73.204C270.811 73.268 271.083 73.38 271.315 73.54C271.555 73.692 271.743 73.896 271.879 74.152C272.023 74.408 272.091 74.724 272.083 75.1V77.512C272.083 77.672 272.083 77.816 272.083 77.944C272.091 78.064 272.115 78.164 272.155 78.244C272.195 78.324 272.259 78.38 272.347 78.412C272.443 78.444 272.579 78.448 272.755 78.424L272.767 79.036C272.527 79.076 272.319 79.092 272.143 79.084C271.967 79.076 271.819 79.032 271.699 78.952C271.579 78.872 271.491 78.752 271.435 78.592C271.379 78.432 271.351 78.22 271.351 77.956ZM271.219 76.636C271.035 76.524 270.779 76.428 270.451 76.348C270.123 76.268 269.791 76.228 269.455 76.228C269.271 76.228 269.087 76.248 268.903 76.288C268.727 76.328 268.567 76.392 268.423 76.48C268.287 76.568 268.175 76.684 268.087 76.828C267.999 76.972 267.955 77.148 267.955 77.356C267.955 77.54 267.991 77.696 268.063 77.824C268.135 77.944 268.231 78.04 268.351 78.112C268.471 78.184 268.607 78.236 268.759 78.268C268.919 78.292 269.079 78.304 269.239 78.304C269.431 78.304 269.627 78.28 269.827 78.232C270.035 78.184 270.231 78.108 270.415 78.004C270.607 77.9 270.771 77.768 270.907 77.608C271.051 77.44 271.155 77.24 271.219 77.008V76.636ZM278.466 79V75.58C278.466 75.052 278.314 74.64 278.01 74.344C277.714 74.04 277.326 73.888 276.846 73.888C276.598 73.888 276.37 73.928 276.162 74.008C275.954 74.088 275.77 74.2 275.61 74.344C275.458 74.488 275.338 74.664 275.25 74.872C275.162 75.072 275.118 75.292 275.118 75.532V79H274.182V74.872C274.182 74.68 274.174 74.52 274.158 74.392C274.15 74.264 274.122 74.164 274.074 74.092C274.026 74.02 273.958 73.976 273.87 73.96C273.782 73.936 273.662 73.932 273.51 73.948L273.498 73.204C273.666 73.18 273.842 73.16 274.026 73.144C274.21 73.128 274.378 73.144 274.53 73.192C274.682 73.232 274.806 73.32 274.902 73.456C275.006 73.592 275.058 73.8 275.058 74.08C275.314 73.688 275.614 73.428 275.958 73.3C276.31 73.172 276.69 73.108 277.098 73.108C277.482 73.108 277.818 73.172 278.106 73.3C278.394 73.42 278.634 73.592 278.826 73.816C279.018 74.032 279.162 74.292 279.258 74.596C279.362 74.9 279.414 75.228 279.414 75.58V79H278.466ZM285.542 77.764C285.342 78.204 285.058 78.536 284.69 78.76C284.33 78.984 283.918 79.1 283.454 79.108C283.022 79.108 282.638 79.028 282.302 78.868C281.974 78.708 281.698 78.492 281.474 78.22C281.25 77.94 281.078 77.62 280.958 77.26C280.846 76.892 280.79 76.504 280.79 76.096C280.79 75.632 280.866 75.216 281.018 74.848C281.17 74.472 281.37 74.156 281.618 73.9C281.874 73.644 282.17 73.448 282.506 73.312C282.842 73.176 283.198 73.108 283.574 73.108C283.878 73.108 284.182 73.156 284.486 73.252C284.79 73.34 285.09 73.484 285.386 73.684V70.216H286.322V77.092C286.322 77.284 286.318 77.464 286.31 77.632C286.302 77.792 286.314 77.932 286.346 78.052C286.386 78.164 286.454 78.248 286.55 78.304C286.646 78.352 286.798 78.364 287.006 78.34L287.018 79.024C286.786 79.064 286.578 79.08 286.394 79.072C286.21 79.064 286.054 79.016 285.926 78.928C285.798 78.832 285.702 78.692 285.638 78.508C285.574 78.324 285.542 78.076 285.542 77.764ZM285.41 74.548C285.13 74.34 284.838 74.184 284.534 74.08C284.23 73.976 283.938 73.928 283.658 73.936C283.394 73.936 283.146 73.984 282.914 74.08C282.682 74.176 282.478 74.316 282.302 74.5C282.126 74.684 281.986 74.912 281.882 75.184C281.786 75.448 281.738 75.752 281.738 76.096C281.738 76.384 281.774 76.66 281.846 76.924C281.926 77.188 282.042 77.42 282.194 77.62C282.346 77.812 282.538 77.968 282.77 78.088C283.002 78.208 283.274 78.268 283.586 78.268C283.858 78.268 284.106 78.216 284.33 78.112C284.554 78.008 284.742 77.872 284.894 77.704C285.054 77.528 285.178 77.324 285.266 77.092C285.354 76.86 285.402 76.612 285.41 76.348V74.548ZM99.704 94.856V95H98.648L96.32 91.916H94.124V95H93.116V86.588H96.464C96.896 86.588 97.288 86.66 97.64 86.804C97.992 86.94 98.292 87.128 98.54 87.368C98.796 87.608 98.992 87.892 99.128 88.22C99.264 88.548 99.332 88.904 99.332 89.288C99.332 89.616 99.28 89.916 99.176 90.188C99.08 90.46 98.944 90.704 98.768 90.92C98.592 91.128 98.38 91.308 98.132 91.46C97.892 91.604 97.624 91.712 97.328 91.784L99.704 94.856ZM96.464 91.088C96.728 91.088 96.976 91.044 97.208 90.956C97.44 90.868 97.64 90.748 97.808 90.596C97.984 90.436 98.12 90.244 98.216 90.02C98.312 89.796 98.36 89.548 98.36 89.276C98.36 89.004 98.312 88.76 98.216 88.544C98.12 88.32 97.988 88.132 97.82 87.98C97.652 87.82 97.452 87.696 97.22 87.608C96.988 87.52 96.736 87.476 96.464 87.476H94.112V91.088H96.464ZM103.367 89.108C104.359 89.116 105.071 89.396 105.503 89.948C105.935 90.492 106.071 91.244 105.911 92.204H101.339C101.323 92.54 101.371 92.84 101.483 93.104C101.603 93.36 101.767 93.58 101.975 93.764C102.183 93.948 102.431 94.088 102.719 94.184C103.007 94.28 103.315 94.328 103.643 94.328C103.979 94.328 104.303 94.292 104.615 94.22C104.935 94.148 105.263 94.044 105.599 93.908L105.743 94.616C105.047 94.944 104.339 95.108 103.619 95.108C103.139 95.108 102.699 95.036 102.299 94.892C101.899 94.748 101.555 94.54 101.267 94.268C100.979 93.996 100.759 93.668 100.607 93.284C100.455 92.892 100.387 92.448 100.403 91.952C100.419 91.496 100.507 91.092 100.667 90.74C100.827 90.388 101.039 90.092 101.303 89.852C101.575 89.604 101.887 89.42 102.239 89.3C102.591 89.172 102.967 89.108 103.367 89.108ZM103.367 89.852C102.839 89.852 102.395 89.992 102.035 90.272C101.675 90.552 101.455 90.956 101.375 91.484H105.143C105.159 91.212 105.123 90.976 105.035 90.776C104.947 90.568 104.823 90.396 104.663 90.26C104.503 90.124 104.311 90.024 104.087 89.96C103.863 89.888 103.623 89.852 103.367 89.852ZM108.392 90.176C108.64 89.776 108.956 89.5 109.34 89.348C109.724 89.188 110.112 89.108 110.504 89.108C110.928 89.108 111.3 89.184 111.62 89.336C111.948 89.488 112.224 89.7 112.448 89.972C112.672 90.236 112.84 90.548 112.952 90.908C113.064 91.268 113.12 91.656 113.12 92.072C113.12 92.536 113.044 92.956 112.892 93.332C112.74 93.7 112.536 94.016 112.28 94.28C112.032 94.544 111.736 94.748 111.392 94.892C111.056 95.036 110.704 95.108 110.336 95.108C110.032 95.108 109.728 95.072 109.424 95C109.12 94.936 108.82 94.804 108.524 94.604V97.976H107.588V91.148C107.588 90.964 107.588 90.792 107.588 90.632C107.588 90.464 107.568 90.324 107.528 90.212C107.496 90.092 107.432 90.004 107.336 89.948C107.24 89.892 107.096 89.876 106.904 89.9L106.892 89.204C107.348 89.124 107.716 89.152 107.996 89.288C108.276 89.424 108.408 89.72 108.392 90.176ZM108.5 93.728C108.764 93.936 109.036 94.08 109.316 94.16C109.604 94.24 109.888 94.28 110.168 94.28C110.432 94.28 110.684 94.232 110.924 94.136C111.172 94.032 111.384 93.888 111.56 93.704C111.744 93.512 111.888 93.28 111.992 93.008C112.104 92.736 112.16 92.424 112.16 92.072C112.16 91.784 112.124 91.512 112.052 91.256C111.988 91 111.88 90.776 111.728 90.584C111.576 90.392 111.384 90.24 111.152 90.128C110.92 90.016 110.644 89.96 110.324 89.96C110.044 89.96 109.792 90.012 109.568 90.116C109.352 90.212 109.164 90.348 109.004 90.524C108.852 90.692 108.732 90.892 108.644 91.124C108.556 91.348 108.508 91.584 108.5 91.832V93.728ZM120.304 92.096C120.304 92.6 120.216 93.04 120.04 93.416C119.864 93.792 119.632 94.108 119.344 94.364C119.056 94.612 118.728 94.8 118.36 94.928C117.992 95.048 117.616 95.108 117.232 95.108C116.856 95.108 116.484 95.044 116.116 94.916C115.756 94.788 115.432 94.6 115.144 94.352C114.864 94.096 114.636 93.784 114.46 93.416C114.292 93.04 114.208 92.6 114.208 92.096C114.208 91.592 114.296 91.152 114.472 90.776C114.648 90.4 114.88 90.092 115.168 89.852C115.456 89.604 115.78 89.42 116.14 89.3C116.508 89.172 116.884 89.108 117.268 89.108C117.652 89.108 118.024 89.172 118.384 89.3C118.752 89.42 119.076 89.604 119.356 89.852C119.644 90.1 119.872 90.412 120.04 90.788C120.216 91.156 120.304 91.592 120.304 92.096ZM115.156 92.096C115.156 92.464 115.216 92.788 115.336 93.068C115.456 93.348 115.616 93.58 115.816 93.764C116.016 93.948 116.24 94.088 116.488 94.184C116.744 94.28 117.004 94.328 117.268 94.328C117.532 94.328 117.788 94.28 118.036 94.184C118.292 94.088 118.516 93.948 118.708 93.764C118.908 93.58 119.068 93.348 119.188 93.068C119.308 92.788 119.368 92.464 119.368 92.096C119.368 91.728 119.308 91.408 119.188 91.136C119.068 90.864 118.908 90.64 118.708 90.464C118.508 90.28 118.28 90.144 118.024 90.056C117.776 89.96 117.52 89.912 117.256 89.912C116.992 89.912 116.732 89.96 116.476 90.056C116.228 90.144 116.004 90.28 115.804 90.464C115.612 90.64 115.456 90.864 115.336 91.136C115.216 91.408 115.156 91.728 115.156 92.096ZM122.796 90.032C122.972 89.696 123.216 89.46 123.528 89.324C123.84 89.18 124.18 89.108 124.548 89.108C125.052 89.108 125.504 89.252 125.904 89.54L125.676 90.332C125.492 90.212 125.296 90.12 125.088 90.056C124.888 89.984 124.676 89.948 124.452 89.948C124.244 89.948 124.044 89.984 123.852 90.056C123.66 90.128 123.488 90.228 123.336 90.356C123.192 90.484 123.076 90.644 122.988 90.836C122.9 91.02 122.856 91.224 122.856 91.448V95H121.932V90.62C121.932 90.492 121.928 90.376 121.92 90.272C121.912 90.16 121.884 90.072 121.836 90.008C121.796 89.936 121.728 89.884 121.632 89.852C121.536 89.82 121.404 89.812 121.236 89.828L121.224 89.204C121.448 89.164 121.652 89.144 121.836 89.144C122.028 89.144 122.192 89.172 122.328 89.228C122.472 89.284 122.584 89.376 122.664 89.504C122.744 89.632 122.788 89.808 122.796 90.032ZM128.479 89.24H130.603V89.924H128.479V92.852C128.479 93.372 128.583 93.752 128.791 93.992C128.999 94.232 129.291 94.352 129.667 94.352C129.979 94.352 130.351 94.272 130.783 94.112L130.891 94.844C130.355 95.02 129.855 95.108 129.391 95.108C128.823 95.108 128.371 94.932 128.035 94.58C127.707 94.228 127.543 93.66 127.543 92.876V89.924L126.307 89.864V89.24H127.603L127.699 87.44H128.479V89.24ZM135.064 86.228H136V89.588C136.296 89.412 136.596 89.288 136.9 89.216C137.204 89.136 137.508 89.1 137.812 89.108C138.18 89.116 138.532 89.188 138.868 89.324C139.204 89.46 139.496 89.66 139.744 89.924C140 90.18 140.204 90.496 140.355 90.872C140.508 91.24 140.584 91.664 140.584 92.144C140.584 92.688 140.496 93.152 140.32 93.536C140.152 93.912 139.924 94.216 139.636 94.448C139.348 94.68 139.012 94.848 138.628 94.952C138.244 95.056 137.844 95.108 137.428 95.108C137.028 95.108 136.628 95.068 136.228 94.988C135.828 94.9 135.44 94.776 135.064 94.616V86.228ZM135.976 94.016C136.224 94.104 136.476 94.176 136.732 94.232C136.988 94.28 137.24 94.3 137.488 94.292C137.776 94.284 138.052 94.24 138.316 94.16C138.58 94.08 138.808 93.956 139 93.788C139.2 93.62 139.356 93.4 139.468 93.128C139.588 92.856 139.648 92.528 139.648 92.144C139.648 91.768 139.592 91.44 139.48 91.16C139.376 90.88 139.232 90.648 139.048 90.464C138.872 90.272 138.664 90.132 138.424 90.044C138.192 89.948 137.944 89.9 137.68 89.9C137.4 89.892 137.112 89.936 136.816 90.032C136.528 90.12 136.248 90.26 135.976 90.452V94.016ZM144.641 89.108C145.633 89.116 146.345 89.396 146.777 89.948C147.209 90.492 147.345 91.244 147.185 92.204H142.613C142.597 92.54 142.645 92.84 142.757 93.104C142.877 93.36 143.041 93.58 143.249 93.764C143.457 93.948 143.705 94.088 143.993 94.184C144.281 94.28 144.589 94.328 144.917 94.328C145.253 94.328 145.577 94.292 145.889 94.22C146.209 94.148 146.537 94.044 146.873 93.908L147.017 94.616C146.321 94.944 145.613 95.108 144.893 95.108C144.413 95.108 143.973 95.036 143.573 94.892C143.173 94.748 142.829 94.54 142.541 94.268C142.253 93.996 142.033 93.668 141.881 93.284C141.729 92.892 141.661 92.448 141.677 91.952C141.693 91.496 141.781 91.092 141.941 90.74C142.101 90.388 142.313 90.092 142.577 89.852C142.849 89.604 143.161 89.42 143.513 89.3C143.865 89.172 144.241 89.108 144.641 89.108ZM144.641 89.852C144.113 89.852 143.669 89.992 143.309 90.272C142.949 90.552 142.729 90.956 142.649 91.484H146.417C146.433 91.212 146.397 90.976 146.309 90.776C146.221 90.568 146.097 90.396 145.937 90.26C145.777 90.124 145.585 90.024 145.361 89.96C145.137 89.888 144.897 89.852 144.641 89.852ZM149.247 89.984H148.011V89.264H149.259V88.292C149.259 87.756 149.351 87.328 149.535 87.008C149.727 86.68 149.979 86.448 150.291 86.312C150.603 86.176 150.963 86.124 151.371 86.156C151.779 86.188 152.199 86.288 152.631 86.456L152.499 87.152C152.211 87.032 151.927 86.952 151.647 86.912C151.375 86.864 151.127 86.876 150.903 86.948C150.687 87.012 150.511 87.148 150.375 87.356C150.247 87.556 150.183 87.848 150.183 88.232V89.264H152.283V89.984H150.183V95H149.247V89.984ZM158.87 92.096C158.87 92.6 158.782 93.04 158.606 93.416C158.43 93.792 158.198 94.108 157.91 94.364C157.622 94.612 157.294 94.8 156.926 94.928C156.558 95.048 156.182 95.108 155.798 95.108C155.422 95.108 155.05 95.044 154.682 94.916C154.322 94.788 153.998 94.6 153.71 94.352C153.43 94.096 153.202 93.784 153.026 93.416C152.858 93.04 152.774 92.6 152.774 92.096C152.774 91.592 152.862 91.152 153.038 90.776C153.214 90.4 153.446 90.092 153.734 89.852C154.022 89.604 154.346 89.42 154.706 89.3C155.074 89.172 155.45 89.108 155.834 89.108C156.218 89.108 156.59 89.172 156.95 89.3C157.318 89.42 157.642 89.604 157.922 89.852C158.21 90.1 158.438 90.412 158.606 90.788C158.782 91.156 158.87 91.592 158.87 92.096ZM153.722 92.096C153.722 92.464 153.782 92.788 153.902 93.068C154.022 93.348 154.182 93.58 154.382 93.764C154.582 93.948 154.806 94.088 155.054 94.184C155.31 94.28 155.57 94.328 155.834 94.328C156.098 94.328 156.354 94.28 156.602 94.184C156.858 94.088 157.082 93.948 157.274 93.764C157.474 93.58 157.634 93.348 157.754 93.068C157.874 92.788 157.934 92.464 157.934 92.096C157.934 91.728 157.874 91.408 157.754 91.136C157.634 90.864 157.474 90.64 157.274 90.464C157.074 90.28 156.846 90.144 156.59 90.056C156.342 89.96 156.086 89.912 155.822 89.912C155.558 89.912 155.298 89.96 155.042 90.056C154.794 90.144 154.57 90.28 154.37 90.464C154.178 90.64 154.022 90.864 153.902 91.136C153.782 91.408 153.722 91.728 153.722 92.096ZM161.362 90.032C161.538 89.696 161.782 89.46 162.094 89.324C162.406 89.18 162.746 89.108 163.114 89.108C163.618 89.108 164.07 89.252 164.47 89.54L164.242 90.332C164.058 90.212 163.862 90.12 163.654 90.056C163.454 89.984 163.242 89.948 163.018 89.948C162.81 89.948 162.61 89.984 162.418 90.056C162.226 90.128 162.054 90.228 161.902 90.356C161.758 90.484 161.642 90.644 161.554 90.836C161.466 91.02 161.422 91.224 161.422 91.448V95H160.498V90.62C160.498 90.492 160.494 90.376 160.486 90.272C160.478 90.16 160.45 90.072 160.402 90.008C160.362 89.936 160.294 89.884 160.198 89.852C160.102 89.82 159.97 89.812 159.802 89.828L159.79 89.204C160.014 89.164 160.218 89.144 160.402 89.144C160.594 89.144 160.758 89.172 160.894 89.228C161.038 89.284 161.15 89.376 161.23 89.504C161.31 89.632 161.354 89.808 161.362 90.032ZM167.914 89.108C168.906 89.116 169.618 89.396 170.05 89.948C170.482 90.492 170.618 91.244 170.458 92.204H165.886C165.87 92.54 165.918 92.84 166.03 93.104C166.15 93.36 166.314 93.58 166.522 93.764C166.73 93.948 166.978 94.088 167.266 94.184C167.554 94.28 167.862 94.328 168.19 94.328C168.526 94.328 168.85 94.292 169.162 94.22C169.482 94.148 169.81 94.044 170.146 93.908L170.29 94.616C169.594 94.944 168.886 95.108 168.166 95.108C167.686 95.108 167.246 95.036 166.846 94.892C166.446 94.748 166.102 94.54 165.814 94.268C165.526 93.996 165.306 93.668 165.154 93.284C165.002 92.892 164.934 92.448 164.95 91.952C164.966 91.496 165.054 91.092 165.214 90.74C165.374 90.388 165.586 90.092 165.85 89.852C166.122 89.604 166.434 89.42 166.786 89.3C167.138 89.172 167.514 89.108 167.914 89.108ZM167.914 89.852C167.386 89.852 166.942 89.992 166.582 90.272C166.222 90.552 166.002 90.956 165.922 91.484H169.69C169.706 91.212 169.67 90.976 169.582 90.776C169.494 90.568 169.37 90.396 169.21 90.26C169.05 90.124 168.858 90.024 168.634 89.96C168.41 89.888 168.17 89.852 167.914 89.852ZM178.96 93.956C178.856 94.156 178.72 94.328 178.552 94.472C178.384 94.616 178.196 94.736 177.988 94.832C177.788 94.928 177.572 94.996 177.34 95.036C177.116 95.084 176.896 95.108 176.68 95.108C176.416 95.108 176.16 95.076 175.912 95.012C175.664 94.948 175.444 94.848 175.252 94.712C175.068 94.568 174.92 94.392 174.808 94.184C174.696 93.968 174.64 93.712 174.64 93.416C174.64 93.096 174.696 92.816 174.808 92.576C174.928 92.336 175.088 92.136 175.288 91.976C175.496 91.816 175.732 91.696 175.996 91.616C176.26 91.536 176.544 91.496 176.848 91.496C177.184 91.496 177.528 91.528 177.88 91.592C178.232 91.648 178.552 91.756 178.84 91.916V91.076C178.84 90.836 178.78 90.636 178.66 90.476C178.548 90.316 178.4 90.192 178.216 90.104C178.04 90.016 177.844 89.956 177.628 89.924C177.42 89.884 177.216 89.864 177.016 89.864C176.68 89.864 176.364 89.9 176.068 89.972C175.772 90.036 175.5 90.14 175.252 90.284L175.096 89.54C175.376 89.396 175.692 89.288 176.044 89.216C176.404 89.144 176.776 89.108 177.16 89.108C177.488 89.108 177.804 89.14 178.108 89.204C178.42 89.268 178.692 89.38 178.924 89.54C179.164 89.692 179.352 89.896 179.488 90.152C179.632 90.408 179.7 90.724 179.692 91.1V93.512C179.692 93.672 179.692 93.816 179.692 93.944C179.7 94.064 179.724 94.164 179.764 94.244C179.804 94.324 179.868 94.38 179.956 94.412C180.052 94.444 180.188 94.448 180.364 94.424L180.376 95.036C180.136 95.076 179.928 95.092 179.752 95.084C179.576 95.076 179.428 95.032 179.308 94.952C179.188 94.872 179.1 94.752 179.044 94.592C178.988 94.432 178.96 94.22 178.96 93.956ZM178.828 92.636C178.644 92.524 178.388 92.428 178.06 92.348C177.732 92.268 177.4 92.228 177.064 92.228C176.88 92.228 176.696 92.248 176.512 92.288C176.336 92.328 176.176 92.392 176.032 92.48C175.896 92.568 175.784 92.684 175.696 92.828C175.608 92.972 175.564 93.148 175.564 93.356C175.564 93.54 175.6 93.696 175.672 93.824C175.744 93.944 175.84 94.04 175.96 94.112C176.08 94.184 176.216 94.236 176.368 94.268C176.528 94.292 176.688 94.304 176.848 94.304C177.04 94.304 177.236 94.28 177.436 94.232C177.644 94.184 177.84 94.108 178.024 94.004C178.216 93.9 178.38 93.768 178.516 93.608C178.66 93.44 178.764 93.24 178.828 93.008V92.636ZM182.572 90.176C182.82 89.776 183.136 89.5 183.52 89.348C183.904 89.188 184.292 89.108 184.684 89.108C185.108 89.108 185.48 89.184 185.8 89.336C186.128 89.488 186.404 89.7 186.628 89.972C186.852 90.236 187.02 90.548 187.132 90.908C187.243 91.268 187.299 91.656 187.299 92.072C187.299 92.536 187.224 92.956 187.072 93.332C186.92 93.7 186.716 94.016 186.46 94.28C186.212 94.544 185.916 94.748 185.572 94.892C185.236 95.036 184.884 95.108 184.516 95.108C184.212 95.108 183.908 95.072 183.604 95C183.3 94.936 183 94.804 182.704 94.604V97.976H181.768V91.148C181.768 90.964 181.768 90.792 181.768 90.632C181.768 90.464 181.748 90.324 181.708 90.212C181.676 90.092 181.612 90.004 181.516 89.948C181.42 89.892 181.276 89.876 181.083 89.9L181.072 89.204C181.528 89.124 181.896 89.152 182.176 89.288C182.456 89.424 182.588 89.72 182.572 90.176ZM182.68 93.728C182.944 93.936 183.216 94.08 183.496 94.16C183.784 94.24 184.068 94.28 184.348 94.28C184.612 94.28 184.864 94.232 185.104 94.136C185.352 94.032 185.564 93.888 185.74 93.704C185.924 93.512 186.068 93.28 186.172 93.008C186.284 92.736 186.34 92.424 186.34 92.072C186.34 91.784 186.304 91.512 186.232 91.256C186.168 91 186.06 90.776 185.908 90.584C185.756 90.392 185.564 90.24 185.332 90.128C185.1 90.016 184.824 89.96 184.504 89.96C184.224 89.96 183.972 90.012 183.748 90.116C183.532 90.212 183.344 90.348 183.184 90.524C183.032 90.692 182.912 90.892 182.824 91.124C182.736 91.348 182.688 91.584 182.68 91.832V93.728ZM189.732 90.176C189.98 89.776 190.296 89.5 190.68 89.348C191.064 89.188 191.452 89.108 191.844 89.108C192.268 89.108 192.64 89.184 192.96 89.336C193.288 89.488 193.564 89.7 193.788 89.972C194.012 90.236 194.18 90.548 194.292 90.908C194.404 91.268 194.46 91.656 194.46 92.072C194.46 92.536 194.384 92.956 194.232 93.332C194.08 93.7 193.876 94.016 193.62 94.28C193.372 94.544 193.076 94.748 192.732 94.892C192.396 95.036 192.044 95.108 191.676 95.108C191.372 95.108 191.068 95.072 190.764 95C190.46 94.936 190.16 94.804 189.864 94.604V97.976H188.928V91.148C188.928 90.964 188.928 90.792 188.928 90.632C188.928 90.464 188.908 90.324 188.868 90.212C188.836 90.092 188.772 90.004 188.676 89.948C188.58 89.892 188.436 89.876 188.244 89.9L188.232 89.204C188.688 89.124 189.056 89.152 189.336 89.288C189.616 89.424 189.748 89.72 189.732 90.176ZM189.84 93.728C190.104 93.936 190.376 94.08 190.656 94.16C190.944 94.24 191.228 94.28 191.508 94.28C191.772 94.28 192.024 94.232 192.264 94.136C192.512 94.032 192.724 93.888 192.9 93.704C193.084 93.512 193.228 93.28 193.332 93.008C193.444 92.736 193.5 92.424 193.5 92.072C193.5 91.784 193.464 91.512 193.392 91.256C193.328 91 193.22 90.776 193.068 90.584C192.916 90.392 192.724 90.24 192.492 90.128C192.26 90.016 191.984 89.96 191.664 89.96C191.384 89.96 191.132 90.012 190.908 90.116C190.692 90.212 190.504 90.348 190.344 90.524C190.192 90.692 190.072 90.892 189.984 91.124C189.896 91.348 189.848 91.584 189.84 91.832V93.728ZM196.964 90.032C197.14 89.696 197.384 89.46 197.696 89.324C198.008 89.18 198.348 89.108 198.716 89.108C199.22 89.108 199.672 89.252 200.072 89.54L199.844 90.332C199.66 90.212 199.464 90.12 199.256 90.056C199.056 89.984 198.844 89.948 198.62 89.948C198.412 89.948 198.212 89.984 198.02 90.056C197.828 90.128 197.656 90.228 197.504 90.356C197.36 90.484 197.244 90.644 197.156 90.836C197.068 91.02 197.024 91.224 197.024 91.448V95H196.1V90.62C196.1 90.492 196.096 90.376 196.088 90.272C196.08 90.16 196.052 90.072 196.004 90.008C195.964 89.936 195.896 89.884 195.8 89.852C195.704 89.82 195.572 89.812 195.404 89.828L195.392 89.204C195.616 89.164 195.82 89.144 196.004 89.144C196.196 89.144 196.36 89.172 196.496 89.228C196.64 89.284 196.752 89.376 196.832 89.504C196.912 89.632 196.956 89.808 196.964 90.032ZM206.648 92.096C206.648 92.6 206.56 93.04 206.384 93.416C206.208 93.792 205.976 94.108 205.688 94.364C205.4 94.612 205.072 94.8 204.704 94.928C204.336 95.048 203.96 95.108 203.576 95.108C203.2 95.108 202.828 95.044 202.46 94.916C202.1 94.788 201.776 94.6 201.488 94.352C201.208 94.096 200.98 93.784 200.804 93.416C200.636 93.04 200.552 92.6 200.552 92.096C200.552 91.592 200.64 91.152 200.816 90.776C200.992 90.4 201.224 90.092 201.512 89.852C201.8 89.604 202.124 89.42 202.484 89.3C202.852 89.172 203.228 89.108 203.612 89.108C203.996 89.108 204.368 89.172 204.728 89.3C205.096 89.42 205.42 89.604 205.7 89.852C205.988 90.1 206.216 90.412 206.384 90.788C206.56 91.156 206.648 91.592 206.648 92.096ZM201.5 92.096C201.5 92.464 201.56 92.788 201.68 93.068C201.8 93.348 201.96 93.58 202.16 93.764C202.36 93.948 202.584 94.088 202.832 94.184C203.088 94.28 203.348 94.328 203.612 94.328C203.876 94.328 204.132 94.28 204.38 94.184C204.636 94.088 204.86 93.948 205.052 93.764C205.252 93.58 205.412 93.348 205.532 93.068C205.652 92.788 205.712 92.464 205.712 92.096C205.712 91.728 205.652 91.408 205.532 91.136C205.412 90.864 205.252 90.64 205.052 90.464C204.852 90.28 204.624 90.144 204.368 90.056C204.12 89.96 203.864 89.912 203.6 89.912C203.336 89.912 203.076 89.96 202.82 90.056C202.572 90.144 202.348 90.28 202.148 90.464C201.956 90.64 201.8 90.864 201.68 91.136C201.56 91.408 201.5 91.728 201.5 92.096ZM209.984 95.048L207.236 89.324V89.216H208.256L209.24 91.388L210.2 93.632L211.16 91.352L212.108 89.216H213.116V89.324L210.38 95.048H209.984ZM214.187 87.308C214.187 87.108 214.247 86.96 214.367 86.864C214.495 86.768 214.631 86.72 214.775 86.72C214.927 86.72 215.063 86.768 215.183 86.864C215.311 86.96 215.375 87.108 215.375 87.308C215.375 87.508 215.311 87.66 215.183 87.764C215.063 87.86 214.927 87.908 214.775 87.908C214.631 87.908 214.495 87.86 214.367 87.764C214.247 87.66 214.187 87.508 214.187 87.308ZM215.243 95H214.307V89.216H215.243V95ZM221.572 95V91.58C221.572 91.052 221.42 90.64 221.116 90.344C220.82 90.04 220.432 89.888 219.952 89.888C219.704 89.888 219.476 89.928 219.268 90.008C219.06 90.088 218.876 90.2 218.716 90.344C218.564 90.488 218.444 90.664 218.356 90.872C218.268 91.072 218.224 91.292 218.224 91.532V95H217.288V90.872C217.288 90.68 217.28 90.52 217.264 90.392C217.256 90.264 217.228 90.164 217.18 90.092C217.132 90.02 217.064 89.976 216.976 89.96C216.888 89.936 216.768 89.932 216.616 89.948L216.604 89.204C216.772 89.18 216.948 89.16 217.132 89.144C217.316 89.128 217.484 89.144 217.636 89.192C217.788 89.232 217.912 89.32 218.008 89.456C218.112 89.592 218.164 89.8 218.164 90.08C218.42 89.688 218.72 89.428 219.064 89.3C219.416 89.172 219.796 89.108 220.204 89.108C220.588 89.108 220.924 89.172 221.212 89.3C221.5 89.42 221.74 89.592 221.932 89.816C222.124 90.032 222.268 90.292 222.364 90.596C222.468 90.9 222.52 91.228 222.52 91.58V95H221.572ZM228.479 94.568C228.167 94.768 227.855 94.916 227.543 95.012C227.231 95.108 226.927 95.16 226.631 95.168C226.255 95.184 225.899 95.128 225.563 95C225.235 94.864 224.947 94.668 224.699 94.412C224.459 94.148 224.267 93.828 224.123 93.452C223.979 93.068 223.907 92.628 223.907 92.132C223.907 91.628 223.987 91.188 224.147 90.812C224.315 90.436 224.539 90.124 224.819 89.876C225.107 89.628 225.443 89.444 225.827 89.324C226.219 89.196 226.639 89.132 227.087 89.132C227.495 89.132 227.891 89.18 228.275 89.276C228.659 89.372 229.031 89.5 229.391 89.66V95.408C229.391 95.912 229.319 96.328 229.175 96.656C229.031 96.992 228.835 97.26 228.587 97.46C228.339 97.66 228.047 97.8 227.711 97.88C227.383 97.96 227.035 98 226.667 98C226.283 98 225.887 97.944 225.479 97.832C225.079 97.72 224.691 97.56 224.315 97.352L224.471 96.584C224.807 96.768 225.163 96.92 225.539 97.04C225.923 97.16 226.295 97.216 226.655 97.208C226.903 97.208 227.135 97.188 227.351 97.148C227.575 97.108 227.771 97.028 227.939 96.908C228.107 96.788 228.239 96.612 228.335 96.38C228.431 96.156 228.479 95.856 228.479 95.48V94.568ZM228.467 90.2C227.987 90.016 227.519 89.924 227.063 89.924C226.759 89.924 226.471 89.972 226.199 90.068C225.935 90.156 225.703 90.292 225.503 90.476C225.303 90.652 225.143 90.88 225.023 91.16C224.903 91.432 224.843 91.752 224.843 92.12C224.843 92.496 224.895 92.824 224.999 93.104C225.103 93.384 225.243 93.62 225.419 93.812C225.595 93.996 225.799 94.136 226.031 94.232C226.271 94.32 226.523 94.364 226.787 94.364C227.059 94.364 227.335 94.316 227.615 94.22C227.903 94.116 228.187 93.96 228.467 93.752V90.2ZM236.719 95.408C236.559 95.792 236.391 96.168 236.215 96.536C236.039 96.904 235.827 97.208 235.579 97.448C235.339 97.696 235.051 97.856 234.715 97.928C234.387 98 233.987 97.932 233.515 97.724L233.647 97.028C233.919 97.156 234.155 97.212 234.355 97.196C234.563 97.18 234.739 97.112 234.883 96.992C235.035 96.88 235.167 96.724 235.279 96.524C235.391 96.324 235.495 96.104 235.591 95.864L235.927 95.048L233.275 89.324V89.228H234.271L235.423 91.796L236.371 94.088H236.383L237.259 91.82L238.315 89.228H239.263V89.324L236.719 95.408ZM246.046 92.096C246.046 92.6 245.958 93.04 245.782 93.416C245.606 93.792 245.374 94.108 245.086 94.364C244.798 94.612 244.47 94.8 244.102 94.928C243.734 95.048 243.358 95.108 242.974 95.108C242.598 95.108 242.226 95.044 241.858 94.916C241.498 94.788 241.174 94.6 240.886 94.352C240.606 94.096 240.378 93.784 240.202 93.416C240.034 93.04 239.95 92.6 239.95 92.096C239.95 91.592 240.038 91.152 240.214 90.776C240.39 90.4 240.622 90.092 240.91 89.852C241.198 89.604 241.522 89.42 241.882 89.3C242.25 89.172 242.626 89.108 243.01 89.108C243.394 89.108 243.766 89.172 244.126 89.3C244.494 89.42 244.818 89.604 245.098 89.852C245.386 90.1 245.614 90.412 245.782 90.788C245.958 91.156 246.046 91.592 246.046 92.096ZM240.898 92.096C240.898 92.464 240.958 92.788 241.078 93.068C241.198 93.348 241.358 93.58 241.558 93.764C241.758 93.948 241.982 94.088 242.23 94.184C242.486 94.28 242.746 94.328 243.01 94.328C243.274 94.328 243.53 94.28 243.778 94.184C244.034 94.088 244.258 93.948 244.45 93.764C244.65 93.58 244.81 93.348 244.93 93.068C245.05 92.788 245.11 92.464 245.11 92.096C245.11 91.728 245.05 91.408 244.93 91.136C244.81 90.864 244.65 90.64 244.45 90.464C244.25 90.28 244.022 90.144 243.766 90.056C243.518 89.96 243.262 89.912 242.998 89.912C242.734 89.912 242.474 89.96 242.218 90.056C241.97 90.144 241.746 90.28 241.546 90.464C241.354 90.64 241.198 90.864 241.078 91.136C240.958 91.408 240.898 91.728 240.898 92.096ZM252.522 89.216V93.452C252.522 93.668 252.53 93.84 252.546 93.968C252.562 94.088 252.594 94.184 252.642 94.256C252.69 94.32 252.758 94.36 252.846 94.376C252.934 94.384 253.054 94.38 253.206 94.364L253.218 95.012C252.994 95.052 252.782 95.072 252.582 95.072C252.39 95.08 252.222 95.056 252.078 95C251.934 94.936 251.822 94.836 251.742 94.7C251.67 94.556 251.642 94.356 251.658 94.1C251.546 94.3 251.414 94.468 251.262 94.604C251.11 94.732 250.942 94.836 250.758 94.916C250.582 94.988 250.394 95.036 250.194 95.06C249.994 95.092 249.794 95.108 249.594 95.108C249.21 95.108 248.878 95.044 248.598 94.916C248.326 94.788 248.102 94.612 247.926 94.388C247.75 94.156 247.622 93.888 247.542 93.584C247.462 93.28 247.422 92.948 247.422 92.588V89.216H248.37V92.588C248.362 93.116 248.49 93.54 248.754 93.86C249.018 94.18 249.39 94.34 249.87 94.34C250.374 94.34 250.786 94.184 251.106 93.872C251.426 93.552 251.586 93.12 251.586 92.576V89.216H252.522ZM255.581 90.032C255.757 89.696 256.001 89.46 256.313 89.324C256.625 89.18 256.965 89.108 257.333 89.108C257.837 89.108 258.289 89.252 258.689 89.54L258.461 90.332C258.277 90.212 258.081 90.12 257.873 90.056C257.673 89.984 257.461 89.948 257.237 89.948C257.029 89.948 256.829 89.984 256.637 90.056C256.445 90.128 256.273 90.228 256.121 90.356C255.977 90.484 255.861 90.644 255.773 90.836C255.685 91.02 255.641 91.224 255.641 91.448V95H254.717V90.62C254.717 90.492 254.713 90.376 254.705 90.272C254.697 90.16 254.669 90.072 254.621 90.008C254.581 89.936 254.513 89.884 254.417 89.852C254.321 89.82 254.189 89.812 254.021 89.828L254.009 89.204C254.233 89.164 254.437 89.144 254.621 89.144C254.813 89.144 254.977 89.172 255.113 89.228C255.257 89.284 255.369 89.376 255.449 89.504C255.529 89.632 255.573 89.808 255.581 90.032ZM263.394 86.204V92.924C263.394 93.204 263.406 93.436 263.43 93.62C263.454 93.804 263.502 93.956 263.574 94.076C263.646 94.188 263.742 94.268 263.862 94.316C263.99 94.364 264.15 94.388 264.342 94.388C264.486 94.388 264.654 94.376 264.846 94.352L264.882 95.036C264.754 95.052 264.638 95.068 264.534 95.084C264.438 95.1 264.322 95.108 264.186 95.108C263.562 95.108 263.114 94.936 262.842 94.592C262.578 94.248 262.446 93.692 262.446 92.924V86.204H263.394ZM271.534 92.096C271.534 92.6 271.446 93.04 271.27 93.416C271.094 93.792 270.862 94.108 270.574 94.364C270.286 94.612 269.958 94.8 269.59 94.928C269.222 95.048 268.846 95.108 268.462 95.108C268.086 95.108 267.714 95.044 267.346 94.916C266.986 94.788 266.662 94.6 266.374 94.352C266.094 94.096 265.866 93.784 265.69 93.416C265.522 93.04 265.438 92.6 265.438 92.096C265.438 91.592 265.526 91.152 265.702 90.776C265.878 90.4 266.11 90.092 266.398 89.852C266.686 89.604 267.01 89.42 267.37 89.3C267.738 89.172 268.114 89.108 268.498 89.108C268.882 89.108 269.254 89.172 269.614 89.3C269.982 89.42 270.306 89.604 270.586 89.852C270.874 90.1 271.102 90.412 271.27 90.788C271.446 91.156 271.534 91.592 271.534 92.096ZM266.386 92.096C266.386 92.464 266.446 92.788 266.566 93.068C266.686 93.348 266.846 93.58 267.046 93.764C267.246 93.948 267.47 94.088 267.718 94.184C267.974 94.28 268.234 94.328 268.498 94.328C268.762 94.328 269.018 94.28 269.266 94.184C269.522 94.088 269.746 93.948 269.938 93.764C270.138 93.58 270.298 93.348 270.418 93.068C270.538 92.788 270.598 92.464 270.598 92.096C270.598 91.728 270.538 91.408 270.418 91.136C270.298 90.864 270.138 90.64 269.938 90.464C269.738 90.28 269.51 90.144 269.254 90.056C269.006 89.96 268.75 89.912 268.486 89.912C268.222 89.912 267.962 89.96 267.706 90.056C267.458 90.144 267.234 90.28 267.034 90.464C266.842 90.64 266.686 90.864 266.566 91.136C266.446 91.408 266.386 91.728 266.386 92.096ZM276.87 93.956C276.766 94.156 276.63 94.328 276.462 94.472C276.294 94.616 276.106 94.736 275.898 94.832C275.698 94.928 275.482 94.996 275.25 95.036C275.026 95.084 274.806 95.108 274.59 95.108C274.326 95.108 274.07 95.076 273.822 95.012C273.574 94.948 273.354 94.848 273.162 94.712C272.978 94.568 272.83 94.392 272.718 94.184C272.606 93.968 272.55 93.712 272.55 93.416C272.55 93.096 272.606 92.816 272.718 92.576C272.838 92.336 272.998 92.136 273.198 91.976C273.406 91.816 273.642 91.696 273.906 91.616C274.17 91.536 274.454 91.496 274.758 91.496C275.094 91.496 275.438 91.528 275.79 91.592C276.142 91.648 276.462 91.756 276.75 91.916V91.076C276.75 90.836 276.69 90.636 276.57 90.476C276.458 90.316 276.31 90.192 276.126 90.104C275.95 90.016 275.754 89.956 275.538 89.924C275.33 89.884 275.126 89.864 274.926 89.864C274.59 89.864 274.274 89.9 273.978 89.972C273.682 90.036 273.41 90.14 273.162 90.284L273.006 89.54C273.286 89.396 273.602 89.288 273.954 89.216C274.314 89.144 274.686 89.108 275.07 89.108C275.398 89.108 275.714 89.14 276.018 89.204C276.33 89.268 276.602 89.38 276.834 89.54C277.074 89.692 277.262 89.896 277.398 90.152C277.542 90.408 277.61 90.724 277.602 91.1V93.512C277.602 93.672 277.602 93.816 277.602 93.944C277.61 94.064 277.634 94.164 277.674 94.244C277.714 94.324 277.778 94.38 277.866 94.412C277.962 94.444 278.098 94.448 278.274 94.424L278.286 95.036C278.046 95.076 277.838 95.092 277.662 95.084C277.486 95.076 277.338 95.032 277.218 94.952C277.098 94.872 277.01 94.752 276.954 94.592C276.898 94.432 276.87 94.22 276.87 93.956ZM276.738 92.636C276.554 92.524 276.298 92.428 275.97 92.348C275.642 92.268 275.31 92.228 274.974 92.228C274.79 92.228 274.606 92.248 274.422 92.288C274.246 92.328 274.086 92.392 273.942 92.48C273.806 92.568 273.694 92.684 273.606 92.828C273.518 92.972 273.474 93.148 273.474 93.356C273.474 93.54 273.51 93.696 273.582 93.824C273.654 93.944 273.75 94.04 273.87 94.112C273.99 94.184 274.126 94.236 274.278 94.268C274.438 94.292 274.598 94.304 274.758 94.304C274.95 94.304 275.146 94.28 275.346 94.232C275.554 94.184 275.75 94.108 275.934 94.004C276.126 93.9 276.29 93.768 276.426 93.608C276.57 93.44 276.674 93.24 276.738 93.008V92.636ZM283.986 95V91.58C283.986 91.052 283.834 90.64 283.53 90.344C283.234 90.04 282.846 89.888 282.366 89.888C282.118 89.888 281.89 89.928 281.682 90.008C281.474 90.088 281.29 90.2 281.13 90.344C280.978 90.488 280.858 90.664 280.77 90.872C280.682 91.072 280.638 91.292 280.638 91.532V95H279.702V90.872C279.702 90.68 279.694 90.52 279.678 90.392C279.67 90.264 279.642 90.164 279.594 90.092C279.546 90.02 279.478 89.976 279.39 89.96C279.302 89.936 279.182 89.932 279.03 89.948L279.018 89.204C279.186 89.18 279.362 89.16 279.546 89.144C279.73 89.128 279.898 89.144 280.05 89.192C280.202 89.232 280.326 89.32 280.422 89.456C280.526 89.592 280.578 89.8 280.578 90.08C280.834 89.688 281.134 89.428 281.478 89.3C281.83 89.172 282.21 89.108 282.618 89.108C283.002 89.108 283.338 89.172 283.626 89.3C283.914 89.42 284.154 89.592 284.346 89.816C284.538 90.032 284.682 90.292 284.778 90.596C284.882 90.9 284.934 91.228 284.934 91.58V95H283.986Z" fill="#595959"/>
</g>
<defs>
<clipPath id="clip0_912_1903">
<rect width="328" height="121" fill="white"/>
</clipPath>
</defs>
</svg>
