<svg width="auto" height="auto" viewBox="0 0 350 124" fill="none" xmlns="http://www.w3.org/2000/svg">
<g filter="url(#filter0_d_119_3461)">
<g clip-path="url(#clip0_119_3461)">
<rect x="16" y="16" width="328" height="104" rx="12" fill="#E6F6FA"/>
<circle cx="116" cy="-9" r="94" fill="#CCEDFA"/>
<circle cx="289.5" cy="122.5" r="31.5" fill="#CCEDFA"/>
<path d="M90.2818 69.6741C90.8926 69.6741 91.3907 69.1804 91.3651 68.5721C91.2285 65.311 90.4856 62.1034 89.1741 59.1123C88.9293 58.5544 88.2645 58.3278 87.7152 58.5945C87.1653 58.8612 86.9399 59.5201 87.1824 60.079C88.3487 62.768 89.0159 65.6459 89.1496 68.5722C89.1775 69.1803 89.6705 69.6741 90.2818 69.6741Z" fill="#008A00"/>
<path d="M87.3725 57.9214C87.9133 57.6385 88.1239 56.9709 87.8177 56.4441C86.5916 54.3364 85.078 52.4078 83.3209 50.7135C82.8817 50.2901 82.1803 50.3321 81.7739 50.7868C81.3674 51.2415 81.41 51.9364 81.8475 52.3616C83.4077 53.8774 84.7559 55.5956 85.8555 57.4698C86.1641 57.9954 86.8312 58.2044 87.3725 57.9214Z" fill="#8CCF54"/>
<path d="M82.174 49.1136C82.4774 48.7833 82.4499 48.2685 82.1038 47.9827C80.1553 46.3739 77.7416 44.7937 75.4264 43.7927C75.018 43.6161 74.5519 43.8269 74.396 44.2422L73.2137 47.3916C73.0593 47.803 73.268 48.26 73.6747 48.4298C75.6289 49.2461 77.2166 50.2248 78.8492 51.5739C79.1853 51.8517 79.6828 51.8258 79.9776 51.5048L82.174 49.1136Z" fill="#FCD800"/>
<path d="M73.1748 45.7688C73.3743 45.1934 73.0682 44.5635 72.4825 44.3891C70.3024 43.7396 68.0474 43.3726 65.7732 43.297C65.1622 43.2767 64.6707 43.7767 64.6758 44.3855C64.681 44.9942 65.1809 45.481 65.7917 45.5036C67.8139 45.5785 69.8188 45.9048 71.7596 46.475C72.3459 46.6472 72.9754 46.3443 73.1748 45.7688Z" fill="#FF871F"/>
<path d="M39.4965 69.675C38.8853 69.675 38.3873 69.1811 38.4128 68.5728C38.6839 62.1089 41.3318 55.954 45.8738 51.2933C50.4159 46.6326 56.5141 43.813 62.9933 43.3504C63.603 43.3069 64.1135 43.7878 64.1317 44.3963C64.1499 45.0048 63.669 45.5102 63.0595 45.5561C57.1559 46.0001 51.6034 48.5794 47.4622 52.8287C43.3211 57.078 40.898 62.6826 40.6285 68.573C40.6006 69.1811 40.1077 69.675 39.4965 69.675Z" fill="#E15825"/>
<path opacity="0.8" fill-rule="evenodd" clip-rule="evenodd" d="M87.0429 68.8417C87.3491 61.0084 79.8767 48.0796 65.4073 48.0796C49.2146 48.0796 43.2925 60.9429 42.9796 68.7821C42.9652 69.1425 43.26 69.4333 43.6222 69.4333H64.9851H86.4059C86.7446 69.4333 87.0292 69.1787 87.0429 68.8417ZM57.1062 69.432C57.1062 65.076 60.6518 61.5447 65.0255 61.5447C69.3992 61.5447 72.9449 65.076 72.9449 69.432H57.1062Z" fill="#00A6CA"/>
<path d="M70.3422 69.4111H59.1152C59.1152 67.4295 60.5916 63.8931 64.8363 63.8931C68.6197 63.8931 70.5267 67.4295 70.3422 69.4111Z" fill="#FCD800"/>
<path d="M71.9929 50.0788L63.8384 66.7323C63.5825 67.2564 63.8234 67.8838 64.369 68.114C64.9146 68.3443 65.5463 68.0852 65.7603 67.5434L72.7911 50.4158C72.8753 50.2026 72.7721 49.9624 72.5575 49.8719C72.3429 49.7813 72.0935 49.8726 71.9929 50.0788Z" fill="#2C2C2C"/>
<path fill-rule="evenodd" clip-rule="evenodd" d="M47.5271 64.7534L53.0376 84.0129L57.0581 98.208H59.9906L55.7182 64.7534H47.5271Z" fill="#47447C"/>
<path fill-rule="evenodd" clip-rule="evenodd" d="M46.0536 64.7534C45.926 74.68 45.4914 80.0942 45.3576 80.9961C45.2238 81.8979 43.2003 87.6352 39.2871 98.208H42.3249C47.3067 88.0653 50.0876 82.3279 50.6678 80.9961C51.2479 79.6642 53.0382 74.2499 55.7349 64.7534H46.0536Z" fill="#5F5BA9"/>
<path fill-rule="evenodd" clip-rule="evenodd" d="M39.7164 101.271L39.8684 98.0923H43.0603C44.5738 99.1519 46.5497 100.01 48.9881 100.666V101.271H43.2123L41.2364 100.968V101.271H39.7164Z" fill="#191847"/>
<path fill-rule="evenodd" clip-rule="evenodd" d="M57.3478 101.271L57.4998 98.0923H60.6917C62.2051 99.1519 64.1811 100.01 66.6194 100.666V101.271H60.8437L58.8677 100.968V101.271H57.3478Z" fill="#191847"/>
<path fill-rule="evenodd" clip-rule="evenodd" d="M61.5106 59.8991L66.8539 57.1478C67.7558 56.1314 68.6393 55.3464 69.5043 54.7928C69.767 54.6908 70.2235 54.6362 69.7801 55.378C69.3366 56.1198 68.9037 56.92 69.1148 57.1568C69.3259 57.3937 69.8742 57.0829 70.1234 57.4739C70.2896 57.7347 69.3567 58.118 67.3245 58.6241L63.4083 62.0275L61.5106 59.8991Z" fill="#D6A97F"/>
<path d="M42.528 65.6908L40.3235 65.0762C38.9931 69.4924 38.2021 71.9122 37.9505 72.3355C37.766 72.6458 36.509 73.5355 35.646 74.0329C35.2997 74.2325 35.4137 74.5305 35.5321 74.6164C36.4953 75.3149 37.2175 74.631 38.1238 74.2924C39.1167 73.9214 38.9392 75.1695 39.7253 74.8889C39.532 74.3502 39.3533 73.3655 39.6601 72.7488C39.7965 72.4747 40.6981 70.4066 42.528 65.6908Z" fill="#D6A97F"/>
<path fill-rule="evenodd" clip-rule="evenodd" d="M50.9475 49.0981L52.156 49.2963C55.0187 52.062 54.6965 58.8757 56.6043 59.7553C58.2898 60.5323 61.0955 58.5927 63.8082 58.5927C64.0039 58.5211 64.2014 58.4494 64.4006 58.3782L65.4876 60.1825C65.3677 60.3117 65.2419 60.4416 65.1108 60.5718C65.1108 62.7097 57.7831 65.602 55.502 64.2291C51.6895 61.9347 50.8093 53.7397 50.9475 49.0981Z" fill="#B11030"/>
<path fill-rule="evenodd" clip-rule="evenodd" d="M50.4881 46.5013C49.7714 45.6635 49.2865 44.6368 49.3675 43.4864C49.601 40.1718 54.2338 40.901 55.135 42.5739C56.0362 44.2469 55.9291 48.4904 54.7644 48.7894C54.3 48.9087 53.3105 48.6166 52.3034 48.0121L52.9355 52.4659H49.2031L50.4881 46.5013Z" fill="#D6A97F"/>
<path fill-rule="evenodd" clip-rule="evenodd" d="M51.649 44.7012C51.5269 44.6176 51.3811 44.5669 51.2244 44.5669C50.795 44.5669 50.4469 44.9483 50.4469 45.3413C50.4469 45.7502 50.6407 46.0664 50.9176 46.2005C50.7697 46.4884 50.621 46.6974 50.4469 46.7353C49.7747 46.6676 48.8917 45.0037 48.8917 43.6376C48.8917 42.1422 50.0864 40.8496 52.313 40.8496C54.3144 40.8496 55.0732 41.6715 55.1123 42.3985C54.2547 42.6332 52.7561 42.7236 50.6024 42.7082V42.8631L52.4685 43.018L52.7796 43.9474C52.2847 43.9106 51.9311 44.2486 51.649 44.7012Z" fill="#262626"/>
<path fill-rule="evenodd" clip-rule="evenodd" d="M53.4472 50.5282C53.3198 58.6422 56.2326 63.597 57.0973 68.6001C57.9208 74.7924 46.9483 73.1213 45.5135 70.4865C44.9327 69.4199 44.7447 65.6064 45.5135 63.1508C44.7913 63.9079 44.8857 64.0254 44.0259 65.3548C42.9268 67.4265 42.0183 66.7793 42.0183 67.2961L39.8302 66.5172C39.9577 65.815 39.5926 65.8656 39.8301 64.2971C40.8948 57.2691 44.3728 52.7531 49.0291 49.5924L49.0773 48.9062C49.097 48.6258 49.3413 48.4143 49.6229 48.4339L53.065 48.6736C53.3466 48.6932 53.559 48.9365 53.5393 49.217L53.4472 50.5282Z" fill="#FF7171"/>
<path d="M47.5576 58.6553L45.4578 63.0887C44.7187 65.8324 45.02 68.8793 45.328 70.0503L47.5576 58.6553Z" fill="#B11030"/>
<path d="M88.3527 47.4678C86.0314 47.4678 84.1501 45.5939 84.1501 43.2825C84.1501 40.971 86.0314 39.0972 88.3527 39.0972C90.6735 39.0972 92.5548 40.971 92.5548 43.2825C92.5548 45.5939 90.6735 47.4678 88.3527 47.4678Z" fill="#44BA74"/>
<path fill-rule="evenodd" clip-rule="evenodd" d="M86.197 43.4739C86.3171 43.3544 86.5118 43.3544 86.6319 43.474L87.7129 44.5508C87.833 44.6704 87.833 44.8642 87.7129 44.9837C87.5928 45.1033 87.3981 45.1033 87.278 44.9837L86.197 43.9069C86.0769 43.7873 86.0769 43.5935 86.197 43.4739Z" fill="#FBE8EC"/>
<path fill-rule="evenodd" clip-rule="evenodd" d="M90.7361 41.5804C90.616 41.4608 90.4213 41.4608 90.3012 41.5804L87.3196 44.5501C87.1995 44.6697 87.1995 44.8635 87.3196 44.983C87.4397 45.1026 87.6344 45.1026 87.7545 44.983L90.7361 42.0134C90.8562 41.8938 90.8562 41.7 90.7361 41.5804Z" fill="#FBE8EC"/>
<path opacity="0.2" d="M66.8577 101.271C66.8577 102.15 59.8821 102.862 51.2772 102.862C42.6724 102.862 35.6968 102.15 35.6968 101.271C35.6968 100.393 42.6724 99.6812 51.2772 99.6812C59.8821 99.6812 66.8577 100.393 66.8577 101.271Z" fill="black"/>
<path d="M108.672 48.4C108.672 44.688 111.44 42.64 114.384 42.64C116.608 42.64 118.832 43.712 119.472 46.32H117.12C116.56 45.232 115.664 44.8 114.384 44.8C112.288 44.8 111.104 46.4 111.104 48.4C111.104 50.528 112.384 51.984 114.384 51.984C115.92 51.984 117.04 51.504 117.52 49.824H114.464V47.856H119.712C119.776 48.928 119.744 49.92 119.376 50.944C118.528 53.2 116.528 54.16 114.384 54.16C111.424 54.16 108.672 52.112 108.672 48.4ZM124.937 46.128C127.753 46.128 128.937 48.144 128.345 50.768H123.129C123.273 52.032 124.345 52.304 125.177 52.384C126.137 52.432 127.113 52.288 128.041 51.904L128.297 53.488C127.385 53.92 126.329 54.16 125.305 54.16C122.713 54.208 120.889 52.656 120.889 50.048C120.937 47.36 122.889 46.128 124.937 46.128ZM124.937 47.744C123.817 47.744 123.337 48.416 123.145 49.344H126.537C126.585 48.336 125.993 47.744 124.937 47.744ZM133.093 43.904V46.304H135.605V47.984H133.093V50.848C133.093 52.448 134.421 52.528 135.701 52.064L135.909 53.76C133.253 54.496 130.901 54.064 130.901 50.896V47.984L129.445 47.84V46.304H131.061L131.301 43.904H133.093ZM141.776 54V47.888H140.352V46.304H141.808L141.824 45.328C141.824 42.176 144.256 41.792 146.784 42.56L146.56 44.224C145.408 43.792 143.952 43.728 143.952 45.376V46.304H146.384V47.888H143.952V54H141.776ZM149.97 47.44C150.29 46.56 151.266 46.128 152.21 46.128C152.802 46.112 153.41 46.288 153.858 46.624L153.362 48.496C152.898 48.192 152.418 48.064 151.922 48.08C150.946 48.08 150.114 48.72 150.114 49.904V54H147.922V48.64C147.922 48 147.858 47.584 147.154 47.696V46.32C148.274 46.064 149.842 46.064 149.97 47.44ZM158.452 46.128C161.268 46.128 162.452 48.144 161.86 50.768H156.644C156.788 52.032 157.86 52.304 158.692 52.384C159.652 52.432 160.628 52.288 161.556 51.904L161.812 53.488C160.9 53.92 159.844 54.16 158.82 54.16C156.228 54.208 154.404 52.656 154.404 50.048C154.452 47.36 156.404 46.128 158.452 46.128ZM158.452 47.744C157.332 47.744 156.852 48.416 156.66 49.344H160.052C160.1 48.336 159.508 47.744 158.452 47.744ZM167.249 46.128C170.065 46.128 171.249 48.144 170.657 50.768H165.441C165.585 52.032 166.657 52.304 167.489 52.384C168.449 52.432 169.425 52.288 170.353 51.904L170.609 53.488C169.697 53.92 168.641 54.16 167.617 54.16C165.025 54.208 163.201 52.656 163.201 50.048C163.249 47.36 165.201 46.128 167.249 46.128ZM167.249 47.744C166.129 47.744 165.649 48.416 165.457 49.344H168.849C168.897 48.336 168.305 47.744 167.249 47.744ZM183.84 49.072H181.712C181.44 48.352 180.864 48.048 180.096 48.048C179.04 48.048 178.144 48.736 178.144 50.112C178.144 51.504 179.04 52.288 180.096 52.288C180.8 52.288 181.472 51.856 181.744 51.04H183.872C183.552 53.104 181.808 54.144 180.032 54.16C178 54.176 175.92 52.832 175.92 50.112C175.92 47.408 178.016 46.128 180.048 46.128C181.792 46.128 183.488 47.056 183.84 49.072ZM187.751 47.44C188.071 46.56 189.047 46.128 189.991 46.128C190.583 46.112 191.191 46.288 191.639 46.624L191.143 48.496C190.679 48.192 190.199 48.064 189.703 48.08C188.727 48.08 187.895 48.72 187.895 49.904V54H185.703V48.64C185.703 48 185.639 47.584 184.935 47.696V46.32C186.055 46.064 187.623 46.064 187.751 47.44ZM196.233 46.128C199.049 46.128 200.233 48.144 199.641 50.768H194.425C194.569 52.032 195.641 52.304 196.473 52.384C197.433 52.432 198.409 52.288 199.337 51.904L199.593 53.488C198.681 53.92 197.625 54.16 196.601 54.16C194.009 54.208 192.185 52.656 192.185 50.048C192.233 47.36 194.185 46.128 196.233 46.128ZM196.233 47.744C195.113 47.744 194.633 48.416 194.441 49.344H197.833C197.881 48.336 197.289 47.744 196.233 47.744ZM206.886 52.704C206.454 53.664 205.574 54.144 204.566 54.16C202.23 54.208 200.998 52.304 200.998 50.144C200.998 47.696 202.662 46.128 204.662 46.128C205.158 46.128 205.926 46.24 206.454 46.496V42.304H208.694V51.44C208.694 52.192 208.598 52.608 209.414 52.56L209.43 54.016C208.31 54.272 206.934 54.256 206.886 52.704ZM206.518 50.448V48.384C206.038 48.096 205.526 48.032 205.078 48.032C204.038 48.048 203.222 48.752 203.222 50.144C203.222 51.248 203.718 52.176 204.918 52.176C205.894 52.176 206.518 51.392 206.518 50.448ZM210.927 43.904C210.927 42.192 213.551 42.24 213.551 43.904C213.551 45.568 210.927 45.552 210.927 43.904ZM213.359 46.32V54H211.118V46.32H213.359ZM218.406 43.904V46.304H220.918V47.984H218.406V50.848C218.406 52.448 219.734 52.528 221.014 52.064L221.222 53.76C218.566 54.496 216.214 54.064 216.214 50.896V47.984L214.758 47.84V46.304H216.374L216.614 43.904H218.406ZM228.923 47.44C229.243 46.56 230.219 46.128 231.163 46.128C231.755 46.112 232.363 46.288 232.811 46.624L232.315 48.496C231.851 48.192 231.371 48.064 230.875 48.08C229.899 48.08 229.067 48.72 229.067 49.904V54H226.875V48.64C226.875 48 226.811 47.584 226.107 47.696V46.32C227.227 46.064 228.795 46.064 228.923 47.44ZM237.405 46.128C240.221 46.128 241.405 48.144 240.813 50.768H235.597C235.741 52.032 236.813 52.304 237.645 52.384C238.605 52.432 239.581 52.288 240.509 51.904L240.765 53.488C239.853 53.92 238.797 54.16 237.773 54.16C235.181 54.208 233.357 52.656 233.357 50.048C233.405 47.36 235.357 46.128 237.405 46.128ZM237.405 47.744C236.285 47.744 235.805 48.416 235.613 49.344H239.005C239.053 48.336 238.461 47.744 237.405 47.744ZM244.698 47.536C245.13 46.576 246.138 46.128 247.13 46.128C249.386 46.128 250.602 47.888 250.602 50.08C250.602 52.432 249.018 54.16 246.97 54.16C246.378 54.16 245.754 54.08 245.13 53.76V57.952H242.89V48.928C242.89 48.192 242.986 47.744 242.17 47.792L242.154 46.304C243.194 46.08 244.698 46.064 244.698 47.536ZM245.066 49.792V51.904C245.562 52.192 246.058 52.272 246.522 52.272C247.594 52.272 248.346 51.424 248.346 50.08C248.346 49.008 247.802 48.096 246.666 48.096C245.658 48.112 245.082 48.88 245.066 49.792ZM259.94 50.112C259.94 52.816 257.908 54.16 255.876 54.16C253.828 54.16 251.764 52.816 251.764 50.112C251.764 47.44 253.78 46.144 255.812 46.128C257.876 46.112 259.94 47.392 259.94 50.112ZM253.988 50.112C253.988 51.504 254.9 52.208 255.828 52.208C256.772 52.224 257.716 51.52 257.716 50.112C257.716 48.736 256.82 48.096 255.876 48.096C254.932 48.096 253.988 48.72 253.988 50.112ZM263.892 47.44C264.212 46.56 265.188 46.128 266.132 46.128C266.724 46.112 267.332 46.288 267.78 46.624L267.284 48.496C266.82 48.192 266.34 48.064 265.844 48.08C264.868 48.08 264.036 48.72 264.036 49.904V54H261.844V48.64C261.844 48 261.78 47.584 261.076 47.696V46.32C262.196 46.064 263.764 46.064 263.892 47.44ZM271.906 43.904V46.304H274.418V47.984H271.906V50.848C271.906 52.448 273.234 52.528 274.514 52.064L274.722 53.76C272.066 54.496 269.714 54.064 269.714 50.896V47.984L268.258 47.84V46.304H269.874L270.114 43.904H271.906Z" fill="#262626"/>
<path d="M108.6 70.788C108.6 70.14 108.708 69.552 108.924 69.024C109.14 68.488 109.436 68.036 109.812 67.668C110.196 67.292 110.64 67.004 111.144 66.804C111.656 66.596 112.204 66.492 112.788 66.492C113.196 66.492 113.596 66.54 113.988 66.636C114.388 66.732 114.756 66.884 115.092 67.092C115.428 67.292 115.72 67.552 115.968 67.872C116.216 68.184 116.4 68.56 116.52 69H115.536C115.424 68.696 115.276 68.444 115.092 68.244C114.916 68.036 114.708 67.872 114.468 67.752C114.228 67.624 113.964 67.536 113.676 67.488C113.396 67.432 113.1 67.404 112.788 67.404C112.3 67.404 111.86 67.492 111.468 67.668C111.076 67.836 110.74 68.072 110.46 68.376C110.188 68.68 109.976 69.04 109.824 69.456C109.68 69.864 109.608 70.308 109.608 70.788C109.608 71.276 109.68 71.728 109.824 72.144C109.976 72.56 110.188 72.92 110.46 73.224C110.74 73.52 111.076 73.752 111.468 73.92C111.86 74.088 112.3 74.172 112.788 74.172C113.22 74.172 113.616 74.116 113.976 74.004C114.344 73.892 114.664 73.724 114.936 73.5C115.208 73.268 115.428 72.98 115.596 72.636C115.764 72.292 115.868 71.892 115.908 71.436H112.92V70.584H116.832C116.856 71.192 116.788 71.772 116.628 72.324C116.468 72.868 116.216 73.348 115.872 73.764C115.536 74.172 115.108 74.5 114.588 74.748C114.076 74.988 113.476 75.108 112.788 75.108C112.196 75.108 111.644 75.008 111.132 74.808C110.62 74.6 110.176 74.308 109.8 73.932C109.424 73.548 109.128 73.092 108.912 72.564C108.704 72.028 108.6 71.436 108.6 70.788ZM120.832 69.108C121.824 69.116 122.536 69.396 122.968 69.948C123.4 70.492 123.536 71.244 123.376 72.204H118.804C118.788 72.54 118.836 72.84 118.948 73.104C119.068 73.36 119.232 73.58 119.44 73.764C119.648 73.948 119.896 74.088 120.184 74.184C120.472 74.28 120.78 74.328 121.108 74.328C121.444 74.328 121.768 74.292 122.08 74.22C122.4 74.148 122.728 74.044 123.064 73.908L123.208 74.616C122.512 74.944 121.804 75.108 121.084 75.108C120.604 75.108 120.164 75.036 119.764 74.892C119.364 74.748 119.02 74.54 118.732 74.268C118.444 73.996 118.224 73.668 118.072 73.284C117.92 72.892 117.852 72.448 117.868 71.952C117.884 71.496 117.972 71.092 118.132 70.74C118.292 70.388 118.504 70.092 118.768 69.852C119.04 69.604 119.352 69.42 119.704 69.3C120.056 69.172 120.432 69.108 120.832 69.108ZM120.832 69.852C120.304 69.852 119.86 69.992 119.5 70.272C119.14 70.552 118.92 70.956 118.84 71.484H122.608C122.624 71.212 122.588 70.976 122.5 70.776C122.412 70.568 122.288 70.396 122.128 70.26C121.968 70.124 121.776 70.024 121.552 69.96C121.328 69.888 121.088 69.852 120.832 69.852ZM126.421 69.24H128.545V69.924H126.421V72.852C126.421 73.372 126.525 73.752 126.733 73.992C126.941 74.232 127.233 74.352 127.609 74.352C127.921 74.352 128.293 74.272 128.725 74.112L128.833 74.844C128.297 75.02 127.797 75.108 127.333 75.108C126.765 75.108 126.313 74.932 125.977 74.58C125.649 74.228 125.485 73.66 125.485 72.876V69.924L124.249 69.864V69.24H125.545L125.641 67.44H126.421V69.24ZM133.395 69.984H132.159V69.264H133.407V68.292C133.407 67.756 133.499 67.328 133.683 67.008C133.875 66.68 134.127 66.448 134.439 66.312C134.751 66.176 135.111 66.124 135.519 66.156C135.927 66.188 136.347 66.288 136.779 66.456L136.647 67.152C136.359 67.032 136.075 66.952 135.795 66.912C135.523 66.864 135.275 66.876 135.051 66.948C134.835 67.012 134.659 67.148 134.523 67.356C134.395 67.556 134.331 67.848 134.331 68.232V69.264H136.431V69.984H134.331V75H133.395V69.984ZM138.503 70.032C138.679 69.696 138.923 69.46 139.235 69.324C139.547 69.18 139.887 69.108 140.255 69.108C140.759 69.108 141.211 69.252 141.611 69.54L141.383 70.332C141.199 70.212 141.003 70.12 140.795 70.056C140.595 69.984 140.383 69.948 140.159 69.948C139.951 69.948 139.751 69.984 139.559 70.056C139.367 70.128 139.195 70.228 139.043 70.356C138.899 70.484 138.783 70.644 138.695 70.836C138.607 71.02 138.563 71.224 138.563 71.448V75H137.639V70.62C137.639 70.492 137.635 70.376 137.627 70.272C137.619 70.16 137.591 70.072 137.543 70.008C137.503 69.936 137.435 69.884 137.339 69.852C137.243 69.82 137.111 69.812 136.943 69.828L136.931 69.204C137.155 69.164 137.359 69.144 137.543 69.144C137.735 69.144 137.899 69.172 138.035 69.228C138.179 69.284 138.291 69.376 138.371 69.504C138.451 69.632 138.495 69.808 138.503 70.032ZM145.055 69.108C146.047 69.116 146.759 69.396 147.191 69.948C147.623 70.492 147.759 71.244 147.599 72.204H143.027C143.011 72.54 143.059 72.84 143.171 73.104C143.291 73.36 143.455 73.58 143.663 73.764C143.871 73.948 144.119 74.088 144.407 74.184C144.695 74.28 145.003 74.328 145.331 74.328C145.667 74.328 145.991 74.292 146.303 74.22C146.623 74.148 146.951 74.044 147.287 73.908L147.431 74.616C146.735 74.944 146.027 75.108 145.307 75.108C144.827 75.108 144.387 75.036 143.987 74.892C143.587 74.748 143.243 74.54 142.955 74.268C142.667 73.996 142.447 73.668 142.295 73.284C142.143 72.892 142.075 72.448 142.091 71.952C142.107 71.496 142.195 71.092 142.355 70.74C142.515 70.388 142.727 70.092 142.991 69.852C143.263 69.604 143.575 69.42 143.927 69.3C144.279 69.172 144.655 69.108 145.055 69.108ZM145.055 69.852C144.527 69.852 144.083 69.992 143.723 70.272C143.363 70.552 143.143 70.956 143.063 71.484H146.831C146.847 71.212 146.811 70.976 146.723 70.776C146.635 70.568 146.511 70.396 146.351 70.26C146.191 70.124 145.999 70.024 145.775 69.96C145.551 69.888 145.311 69.852 145.055 69.852ZM151.699 69.108C152.691 69.116 153.403 69.396 153.835 69.948C154.267 70.492 154.403 71.244 154.243 72.204H149.671C149.655 72.54 149.703 72.84 149.815 73.104C149.935 73.36 150.099 73.58 150.307 73.764C150.515 73.948 150.763 74.088 151.051 74.184C151.339 74.28 151.647 74.328 151.975 74.328C152.311 74.328 152.635 74.292 152.947 74.22C153.267 74.148 153.595 74.044 153.931 73.908L154.075 74.616C153.379 74.944 152.671 75.108 151.951 75.108C151.471 75.108 151.031 75.036 150.631 74.892C150.231 74.748 149.887 74.54 149.599 74.268C149.311 73.996 149.091 73.668 148.939 73.284C148.787 72.892 148.719 72.448 148.735 71.952C148.751 71.496 148.839 71.092 148.999 70.74C149.159 70.388 149.371 70.092 149.635 69.852C149.907 69.604 150.219 69.42 150.571 69.3C150.923 69.172 151.299 69.108 151.699 69.108ZM151.699 69.852C151.171 69.852 150.727 69.992 150.367 70.272C150.007 70.552 149.787 70.956 149.707 71.484H153.475C153.491 71.212 153.455 70.976 153.367 70.776C153.279 70.568 153.155 70.396 152.995 70.26C152.835 70.124 152.643 70.024 152.419 69.96C152.195 69.888 151.955 69.852 151.699 69.852ZM163.321 71.016C163.161 70.656 162.921 70.388 162.601 70.212C162.289 70.036 161.949 69.948 161.581 69.948C161.317 69.948 161.053 69.992 160.789 70.08C160.533 70.168 160.301 70.3 160.093 70.476C159.893 70.652 159.729 70.876 159.601 71.148C159.481 71.412 159.421 71.724 159.421 72.084C159.421 72.444 159.481 72.76 159.601 73.032C159.729 73.304 159.889 73.532 160.081 73.716C160.281 73.9 160.505 74.04 160.753 74.136C161.009 74.232 161.269 74.28 161.533 74.28C161.917 74.28 162.277 74.18 162.613 73.98C162.957 73.78 163.209 73.476 163.369 73.068H164.281C164.193 73.412 164.057 73.712 163.873 73.968C163.689 74.224 163.473 74.436 163.225 74.604C162.977 74.772 162.705 74.9 162.409 74.988C162.121 75.068 161.825 75.108 161.521 75.108C161.145 75.108 160.773 75.044 160.405 74.916C160.045 74.788 159.721 74.6 159.433 74.352C159.145 74.096 158.913 73.78 158.737 73.404C158.561 73.02 158.473 72.58 158.473 72.084C158.473 71.58 158.561 71.14 158.737 70.764C158.921 70.388 159.157 70.08 159.445 69.84C159.733 69.592 160.061 69.408 160.429 69.288C160.797 69.168 161.169 69.108 161.545 69.108C161.841 69.108 162.129 69.152 162.409 69.24C162.689 69.32 162.949 69.44 163.189 69.6C163.429 69.752 163.637 69.948 163.813 70.188C163.997 70.428 164.133 70.704 164.221 71.016H163.321ZM166.698 70.032C166.874 69.696 167.118 69.46 167.43 69.324C167.742 69.18 168.082 69.108 168.45 69.108C168.954 69.108 169.406 69.252 169.806 69.54L169.578 70.332C169.394 70.212 169.198 70.12 168.99 70.056C168.79 69.984 168.578 69.948 168.354 69.948C168.146 69.948 167.946 69.984 167.754 70.056C167.562 70.128 167.39 70.228 167.238 70.356C167.094 70.484 166.978 70.644 166.89 70.836C166.802 71.02 166.758 71.224 166.758 71.448V75H165.834V70.62C165.834 70.492 165.83 70.376 165.822 70.272C165.814 70.16 165.786 70.072 165.738 70.008C165.698 69.936 165.63 69.884 165.534 69.852C165.438 69.82 165.306 69.812 165.138 69.828L165.126 69.204C165.35 69.164 165.554 69.144 165.738 69.144C165.93 69.144 166.094 69.172 166.23 69.228C166.374 69.284 166.486 69.376 166.566 69.504C166.646 69.632 166.69 69.808 166.698 70.032ZM173.25 69.108C174.242 69.116 174.954 69.396 175.386 69.948C175.818 70.492 175.954 71.244 175.794 72.204H171.222C171.206 72.54 171.254 72.84 171.366 73.104C171.486 73.36 171.65 73.58 171.858 73.764C172.066 73.948 172.314 74.088 172.602 74.184C172.89 74.28 173.198 74.328 173.526 74.328C173.862 74.328 174.186 74.292 174.498 74.22C174.818 74.148 175.146 74.044 175.482 73.908L175.626 74.616C174.93 74.944 174.222 75.108 173.502 75.108C173.022 75.108 172.582 75.036 172.182 74.892C171.782 74.748 171.438 74.54 171.15 74.268C170.862 73.996 170.642 73.668 170.49 73.284C170.338 72.892 170.27 72.448 170.286 71.952C170.302 71.496 170.39 71.092 170.55 70.74C170.71 70.388 170.922 70.092 171.186 69.852C171.458 69.604 171.77 69.42 172.122 69.3C172.474 69.172 172.85 69.108 173.25 69.108ZM173.25 69.852C172.722 69.852 172.278 69.992 171.918 70.272C171.558 70.552 171.338 70.956 171.258 71.484H175.026C175.042 71.212 175.006 70.976 174.918 70.776C174.83 70.568 174.706 70.396 174.546 70.26C174.386 70.124 174.194 70.024 173.97 69.96C173.746 69.888 173.506 69.852 173.25 69.852ZM181.683 73.764C181.483 74.204 181.199 74.536 180.831 74.76C180.471 74.984 180.059 75.1 179.595 75.108C179.163 75.108 178.779 75.028 178.443 74.868C178.115 74.708 177.839 74.492 177.615 74.22C177.391 73.94 177.219 73.62 177.099 73.26C176.987 72.892 176.931 72.504 176.931 72.096C176.931 71.632 177.007 71.216 177.159 70.848C177.311 70.472 177.511 70.156 177.759 69.9C178.015 69.644 178.311 69.448 178.647 69.312C178.983 69.176 179.339 69.108 179.715 69.108C180.019 69.108 180.323 69.156 180.627 69.252C180.931 69.34 181.231 69.484 181.527 69.684V66.216H182.463V73.092C182.463 73.284 182.459 73.464 182.451 73.632C182.443 73.792 182.455 73.932 182.487 74.052C182.527 74.164 182.595 74.248 182.691 74.304C182.787 74.352 182.939 74.364 183.147 74.34L183.159 75.024C182.927 75.064 182.719 75.08 182.535 75.072C182.351 75.064 182.195 75.016 182.067 74.928C181.939 74.832 181.843 74.692 181.779 74.508C181.715 74.324 181.683 74.076 181.683 73.764ZM181.551 70.548C181.271 70.34 180.979 70.184 180.675 70.08C180.371 69.976 180.079 69.928 179.799 69.936C179.535 69.936 179.287 69.984 179.055 70.08C178.823 70.176 178.619 70.316 178.443 70.5C178.267 70.684 178.127 70.912 178.023 71.184C177.927 71.448 177.879 71.752 177.879 72.096C177.879 72.384 177.915 72.66 177.987 72.924C178.067 73.188 178.183 73.42 178.335 73.62C178.487 73.812 178.679 73.968 178.911 74.088C179.143 74.208 179.415 74.268 179.727 74.268C179.999 74.268 180.247 74.216 180.471 74.112C180.695 74.008 180.883 73.872 181.035 73.704C181.195 73.528 181.319 73.324 181.407 73.092C181.495 72.86 181.543 72.612 181.551 72.348V70.548ZM184.414 67.308C184.414 67.108 184.474 66.96 184.594 66.864C184.722 66.768 184.858 66.72 185.002 66.72C185.154 66.72 185.29 66.768 185.41 66.864C185.538 66.96 185.602 67.108 185.602 67.308C185.602 67.508 185.538 67.66 185.41 67.764C185.29 67.86 185.154 67.908 185.002 67.908C184.858 67.908 184.722 67.86 184.594 67.764C184.474 67.66 184.414 67.508 184.414 67.308ZM185.47 75H184.534V69.216H185.47V75ZM188.858 69.24H190.982V69.924H188.858V72.852C188.858 73.372 188.962 73.752 189.17 73.992C189.378 74.232 189.67 74.352 190.046 74.352C190.358 74.352 190.73 74.272 191.162 74.112L191.27 74.844C190.734 75.02 190.234 75.108 189.77 75.108C189.202 75.108 188.75 74.932 188.414 74.58C188.086 74.228 187.922 73.66 187.922 72.876V69.924L186.686 69.864V69.24H187.982L188.078 67.44H188.858V69.24ZM196.522 70.032C196.698 69.696 196.942 69.46 197.254 69.324C197.566 69.18 197.906 69.108 198.274 69.108C198.778 69.108 199.23 69.252 199.63 69.54L199.402 70.332C199.218 70.212 199.022 70.12 198.814 70.056C198.614 69.984 198.402 69.948 198.178 69.948C197.97 69.948 197.77 69.984 197.578 70.056C197.386 70.128 197.214 70.228 197.062 70.356C196.918 70.484 196.802 70.644 196.714 70.836C196.626 71.02 196.582 71.224 196.582 71.448V75H195.658V70.62C195.658 70.492 195.654 70.376 195.646 70.272C195.638 70.16 195.61 70.072 195.562 70.008C195.522 69.936 195.454 69.884 195.358 69.852C195.262 69.82 195.13 69.812 194.962 69.828L194.95 69.204C195.174 69.164 195.378 69.144 195.562 69.144C195.754 69.144 195.918 69.172 196.054 69.228C196.198 69.284 196.31 69.376 196.39 69.504C196.47 69.632 196.514 69.808 196.522 70.032ZM203.074 69.108C204.066 69.116 204.778 69.396 205.21 69.948C205.642 70.492 205.778 71.244 205.618 72.204H201.046C201.03 72.54 201.078 72.84 201.19 73.104C201.31 73.36 201.474 73.58 201.682 73.764C201.89 73.948 202.138 74.088 202.426 74.184C202.714 74.28 203.022 74.328 203.35 74.328C203.686 74.328 204.01 74.292 204.322 74.22C204.642 74.148 204.97 74.044 205.306 73.908L205.45 74.616C204.754 74.944 204.046 75.108 203.326 75.108C202.846 75.108 202.406 75.036 202.006 74.892C201.606 74.748 201.262 74.54 200.974 74.268C200.686 73.996 200.466 73.668 200.314 73.284C200.162 72.892 200.094 72.448 200.11 71.952C200.126 71.496 200.214 71.092 200.374 70.74C200.534 70.388 200.746 70.092 201.01 69.852C201.282 69.604 201.594 69.42 201.946 69.3C202.298 69.172 202.674 69.108 203.074 69.108ZM203.074 69.852C202.546 69.852 202.102 69.992 201.742 70.272C201.382 70.552 201.162 70.956 201.082 71.484H204.85C204.866 71.212 204.83 70.976 204.742 70.776C204.654 70.568 204.53 70.396 204.37 70.26C204.21 70.124 204.018 70.024 203.794 69.96C203.57 69.888 203.33 69.852 203.074 69.852ZM208.099 70.176C208.347 69.776 208.663 69.5 209.047 69.348C209.431 69.188 209.819 69.108 210.211 69.108C210.635 69.108 211.007 69.184 211.327 69.336C211.655 69.488 211.931 69.7 212.155 69.972C212.379 70.236 212.547 70.548 212.659 70.908C212.771 71.268 212.827 71.656 212.827 72.072C212.827 72.536 212.751 72.956 212.599 73.332C212.447 73.7 212.243 74.016 211.987 74.28C211.739 74.544 211.443 74.748 211.099 74.892C210.763 75.036 210.411 75.108 210.043 75.108C209.739 75.108 209.435 75.072 209.131 75C208.827 74.936 208.527 74.804 208.231 74.604V77.976H207.295V71.148C207.295 70.964 207.295 70.792 207.295 70.632C207.295 70.464 207.275 70.324 207.235 70.212C207.203 70.092 207.139 70.004 207.043 69.948C206.947 69.892 206.803 69.876 206.611 69.9L206.599 69.204C207.055 69.124 207.423 69.152 207.703 69.288C207.983 69.424 208.115 69.72 208.099 70.176ZM208.207 73.728C208.471 73.936 208.743 74.08 209.023 74.16C209.311 74.24 209.595 74.28 209.875 74.28C210.139 74.28 210.391 74.232 210.631 74.136C210.879 74.032 211.091 73.888 211.267 73.704C211.451 73.512 211.595 73.28 211.699 73.008C211.811 72.736 211.867 72.424 211.867 72.072C211.867 71.784 211.831 71.512 211.759 71.256C211.695 71 211.587 70.776 211.435 70.584C211.283 70.392 211.091 70.24 210.859 70.128C210.627 70.016 210.351 69.96 210.031 69.96C209.751 69.96 209.499 70.012 209.275 70.116C209.059 70.212 208.871 70.348 208.711 70.524C208.559 70.692 208.439 70.892 208.351 71.124C208.263 71.348 208.215 71.584 208.207 71.832V73.728ZM220.011 72.096C220.011 72.6 219.923 73.04 219.747 73.416C219.571 73.792 219.339 74.108 219.051 74.364C218.763 74.612 218.435 74.8 218.067 74.928C217.699 75.048 217.323 75.108 216.939 75.108C216.563 75.108 216.191 75.044 215.823 74.916C215.463 74.788 215.139 74.6 214.851 74.352C214.571 74.096 214.343 73.784 214.167 73.416C213.999 73.04 213.915 72.6 213.915 72.096C213.915 71.592 214.003 71.152 214.179 70.776C214.355 70.4 214.587 70.092 214.875 69.852C215.163 69.604 215.487 69.42 215.847 69.3C216.215 69.172 216.591 69.108 216.975 69.108C217.359 69.108 217.731 69.172 218.091 69.3C218.459 69.42 218.783 69.604 219.063 69.852C219.351 70.1 219.579 70.412 219.747 70.788C219.923 71.156 220.011 71.592 220.011 72.096ZM214.863 72.096C214.863 72.464 214.923 72.788 215.043 73.068C215.163 73.348 215.323 73.58 215.523 73.764C215.723 73.948 215.947 74.088 216.195 74.184C216.451 74.28 216.711 74.328 216.975 74.328C217.239 74.328 217.495 74.28 217.743 74.184C217.999 74.088 218.223 73.948 218.415 73.764C218.615 73.58 218.775 73.348 218.895 73.068C219.015 72.788 219.075 72.464 219.075 72.096C219.075 71.728 219.015 71.408 218.895 71.136C218.775 70.864 218.615 70.64 218.415 70.464C218.215 70.28 217.987 70.144 217.731 70.056C217.483 69.96 217.227 69.912 216.963 69.912C216.699 69.912 216.439 69.96 216.183 70.056C215.935 70.144 215.711 70.28 215.511 70.464C215.319 70.64 215.163 70.864 215.043 71.136C214.923 71.408 214.863 71.728 214.863 72.096ZM222.503 70.032C222.679 69.696 222.923 69.46 223.235 69.324C223.547 69.18 223.887 69.108 224.255 69.108C224.759 69.108 225.211 69.252 225.611 69.54L225.383 70.332C225.199 70.212 225.003 70.12 224.795 70.056C224.595 69.984 224.383 69.948 224.159 69.948C223.951 69.948 223.751 69.984 223.559 70.056C223.367 70.128 223.195 70.228 223.043 70.356C222.899 70.484 222.783 70.644 222.695 70.836C222.607 71.02 222.563 71.224 222.563 71.448V75H221.639V70.62C221.639 70.492 221.635 70.376 221.627 70.272C221.619 70.16 221.591 70.072 221.543 70.008C221.503 69.936 221.435 69.884 221.339 69.852C221.243 69.82 221.111 69.812 220.943 69.828L220.931 69.204C221.155 69.164 221.359 69.144 221.543 69.144C221.735 69.144 221.899 69.172 222.035 69.228C222.179 69.284 222.291 69.376 222.371 69.504C222.451 69.632 222.495 69.808 222.503 70.032ZM228.186 69.24H230.31V69.924H228.186V72.852C228.186 73.372 228.29 73.752 228.498 73.992C228.706 74.232 228.998 74.352 229.374 74.352C229.686 74.352 230.058 74.272 230.49 74.112L230.598 74.844C230.062 75.02 229.562 75.108 229.098 75.108C228.53 75.108 228.078 74.932 227.742 74.58C227.414 74.228 227.25 73.66 227.25 72.876V69.924L226.014 69.864V69.24H227.31L227.406 67.44H228.186V69.24ZM234.711 67.308C234.711 67.108 234.771 66.96 234.891 66.864C235.019 66.768 235.155 66.72 235.299 66.72C235.451 66.72 235.587 66.768 235.707 66.864C235.835 66.96 235.899 67.108 235.899 67.308C235.899 67.508 235.835 67.66 235.707 67.764C235.587 67.86 235.451 67.908 235.299 67.908C235.155 67.908 235.019 67.86 234.891 67.764C234.771 67.66 234.711 67.508 234.711 67.308ZM235.767 75H234.831V69.216H235.767V75ZM242.095 75V71.58C242.095 71.052 241.943 70.64 241.639 70.344C241.343 70.04 240.955 69.888 240.475 69.888C240.227 69.888 239.999 69.928 239.791 70.008C239.583 70.088 239.399 70.2 239.239 70.344C239.087 70.488 238.967 70.664 238.879 70.872C238.791 71.072 238.747 71.292 238.747 71.532V75H237.811V70.872C237.811 70.68 237.803 70.52 237.787 70.392C237.779 70.264 237.751 70.164 237.703 70.092C237.655 70.02 237.587 69.976 237.499 69.96C237.411 69.936 237.291 69.932 237.139 69.948L237.127 69.204C237.295 69.18 237.471 69.16 237.655 69.144C237.839 69.128 238.007 69.144 238.159 69.192C238.311 69.232 238.435 69.32 238.531 69.456C238.635 69.592 238.687 69.8 238.687 70.08C238.943 69.688 239.243 69.428 239.587 69.3C239.939 69.172 240.319 69.108 240.727 69.108C241.111 69.108 241.447 69.172 241.735 69.3C242.023 69.42 242.263 69.592 242.455 69.816C242.647 70.032 242.791 70.292 242.887 70.596C242.991 70.9 243.043 71.228 243.043 71.58V75H242.095ZM251.784 73.956C251.68 74.156 251.544 74.328 251.376 74.472C251.208 74.616 251.02 74.736 250.812 74.832C250.612 74.928 250.396 74.996 250.164 75.036C249.94 75.084 249.72 75.108 249.504 75.108C249.24 75.108 248.984 75.076 248.736 75.012C248.488 74.948 248.268 74.848 248.076 74.712C247.892 74.568 247.744 74.392 247.632 74.184C247.52 73.968 247.464 73.712 247.464 73.416C247.464 73.096 247.52 72.816 247.632 72.576C247.752 72.336 247.912 72.136 248.112 71.976C248.32 71.816 248.556 71.696 248.82 71.616C249.084 71.536 249.368 71.496 249.672 71.496C250.008 71.496 250.352 71.528 250.704 71.592C251.056 71.648 251.376 71.756 251.664 71.916V71.076C251.664 70.836 251.604 70.636 251.484 70.476C251.372 70.316 251.224 70.192 251.04 70.104C250.864 70.016 250.668 69.956 250.452 69.924C250.244 69.884 250.04 69.864 249.84 69.864C249.504 69.864 249.188 69.9 248.892 69.972C248.596 70.036 248.324 70.14 248.076 70.284L247.92 69.54C248.2 69.396 248.516 69.288 248.868 69.216C249.228 69.144 249.6 69.108 249.984 69.108C250.312 69.108 250.628 69.14 250.932 69.204C251.244 69.268 251.516 69.38 251.748 69.54C251.988 69.692 252.176 69.896 252.312 70.152C252.456 70.408 252.524 70.724 252.516 71.1V73.512C252.516 73.672 252.516 73.816 252.516 73.944C252.524 74.064 252.548 74.164 252.588 74.244C252.628 74.324 252.692 74.38 252.78 74.412C252.876 74.444 253.012 74.448 253.188 74.424L253.2 75.036C252.96 75.076 252.752 75.092 252.576 75.084C252.4 75.076 252.252 75.032 252.132 74.952C252.012 74.872 251.924 74.752 251.868 74.592C251.812 74.432 251.784 74.22 251.784 73.956ZM251.652 72.636C251.468 72.524 251.212 72.428 250.884 72.348C250.556 72.268 250.224 72.228 249.888 72.228C249.704 72.228 249.52 72.248 249.336 72.288C249.16 72.328 249 72.392 248.856 72.48C248.72 72.568 248.608 72.684 248.52 72.828C248.432 72.972 248.388 73.148 248.388 73.356C248.388 73.54 248.424 73.696 248.496 73.824C248.568 73.944 248.664 74.04 248.784 74.112C248.904 74.184 249.04 74.236 249.192 74.268C249.352 74.292 249.512 74.304 249.672 74.304C249.864 74.304 250.06 74.28 250.26 74.232C250.468 74.184 250.664 74.108 250.848 74.004C251.04 73.9 251.204 73.768 251.34 73.608C251.484 73.44 251.588 73.24 251.652 73.008V72.636ZM109.392 89.368C109.408 89.552 109.464 89.708 109.56 89.836C109.664 89.956 109.792 90.056 109.944 90.136C110.104 90.216 110.28 90.272 110.472 90.304C110.664 90.336 110.856 90.352 111.048 90.352C111.248 90.352 111.444 90.332 111.636 90.292C111.828 90.252 112 90.192 112.152 90.112C112.304 90.032 112.428 89.928 112.524 89.8C112.62 89.672 112.672 89.52 112.68 89.344C112.68 89.176 112.644 89.04 112.572 88.936C112.508 88.832 112.408 88.748 112.272 88.684C112.136 88.612 111.964 88.556 111.756 88.516C111.556 88.468 111.324 88.424 111.06 88.384C110.772 88.352 110.484 88.308 110.196 88.252C109.916 88.196 109.66 88.112 109.428 88C109.204 87.888 109.016 87.74 108.864 87.556C108.72 87.364 108.644 87.116 108.636 86.812C108.628 86.516 108.692 86.26 108.828 86.044C108.964 85.828 109.144 85.652 109.368 85.516C109.6 85.372 109.86 85.268 110.148 85.204C110.436 85.14 110.732 85.108 111.036 85.108C111.332 85.108 111.624 85.144 111.912 85.216C112.208 85.28 112.468 85.38 112.692 85.516C112.924 85.652 113.108 85.824 113.244 86.032C113.38 86.24 113.444 86.484 113.436 86.764H112.536C112.536 86.612 112.492 86.48 112.404 86.368C112.324 86.248 112.212 86.152 112.068 86.08C111.932 86 111.772 85.944 111.588 85.912C111.412 85.872 111.228 85.852 111.036 85.852C110.852 85.852 110.668 85.872 110.484 85.912C110.3 85.944 110.136 85.996 109.992 86.068C109.848 86.14 109.732 86.236 109.644 86.356C109.556 86.476 109.516 86.62 109.524 86.788C109.532 87.068 109.668 87.264 109.932 87.376C110.204 87.48 110.608 87.572 111.144 87.652C111.448 87.692 111.748 87.74 112.044 87.796C112.34 87.844 112.604 87.928 112.836 88.048C113.068 88.16 113.252 88.32 113.388 88.528C113.532 88.728 113.6 89 113.592 89.344C113.592 89.64 113.52 89.9 113.376 90.124C113.24 90.34 113.056 90.52 112.824 90.664C112.592 90.808 112.32 90.916 112.008 90.988C111.704 91.06 111.384 91.1 111.048 91.108C110.736 91.108 110.428 91.08 110.124 91.024C109.828 90.968 109.56 90.872 109.32 90.736C109.088 90.6 108.896 90.42 108.744 90.196C108.592 89.972 108.504 89.696 108.48 89.368H109.392ZM114.921 83.308C114.921 83.108 114.981 82.96 115.101 82.864C115.229 82.768 115.365 82.72 115.509 82.72C115.661 82.72 115.797 82.768 115.917 82.864C116.045 82.96 116.109 83.108 116.109 83.308C116.109 83.508 116.045 83.66 115.917 83.764C115.797 83.86 115.661 83.908 115.509 83.908C115.365 83.908 115.229 83.86 115.101 83.764C114.981 83.66 114.921 83.508 114.921 83.308ZM115.977 91H115.041V85.216H115.977V91ZM122.306 91V87.58C122.306 87.052 122.154 86.64 121.85 86.344C121.554 86.04 121.166 85.888 120.686 85.888C120.438 85.888 120.21 85.928 120.002 86.008C119.794 86.088 119.61 86.2 119.45 86.344C119.298 86.488 119.178 86.664 119.09 86.872C119.002 87.072 118.958 87.292 118.958 87.532V91H118.022V86.872C118.022 86.68 118.014 86.52 117.998 86.392C117.99 86.264 117.962 86.164 117.914 86.092C117.866 86.02 117.798 85.976 117.71 85.96C117.622 85.936 117.502 85.932 117.35 85.948L117.338 85.204C117.506 85.18 117.682 85.16 117.866 85.144C118.05 85.128 118.218 85.144 118.37 85.192C118.522 85.232 118.646 85.32 118.742 85.456C118.846 85.592 118.898 85.8 118.898 86.08C119.154 85.688 119.454 85.428 119.798 85.3C120.15 85.172 120.53 85.108 120.938 85.108C121.322 85.108 121.658 85.172 121.946 85.3C122.234 85.42 122.474 85.592 122.666 85.816C122.858 86.032 123.002 86.292 123.098 86.596C123.202 86.9 123.254 87.228 123.254 87.58V91H122.306ZM129.214 90.568C128.902 90.768 128.59 90.916 128.278 91.012C127.966 91.108 127.662 91.16 127.366 91.168C126.99 91.184 126.634 91.128 126.298 91C125.97 90.864 125.682 90.668 125.434 90.412C125.194 90.148 125.002 89.828 124.858 89.452C124.714 89.068 124.642 88.628 124.642 88.132C124.642 87.628 124.722 87.188 124.882 86.812C125.05 86.436 125.274 86.124 125.554 85.876C125.842 85.628 126.178 85.444 126.562 85.324C126.954 85.196 127.374 85.132 127.822 85.132C128.23 85.132 128.626 85.18 129.01 85.276C129.394 85.372 129.766 85.5 130.126 85.66V91.408C130.126 91.912 130.054 92.328 129.91 92.656C129.766 92.992 129.57 93.26 129.322 93.46C129.074 93.66 128.782 93.8 128.446 93.88C128.118 93.96 127.77 94 127.402 94C127.018 94 126.622 93.944 126.214 93.832C125.814 93.72 125.426 93.56 125.05 93.352L125.206 92.584C125.542 92.768 125.898 92.92 126.274 93.04C126.658 93.16 127.03 93.216 127.39 93.208C127.638 93.208 127.87 93.188 128.086 93.148C128.31 93.108 128.506 93.028 128.674 92.908C128.842 92.788 128.974 92.612 129.07 92.38C129.166 92.156 129.214 91.856 129.214 91.48V90.568ZM129.202 86.2C128.722 86.016 128.254 85.924 127.798 85.924C127.494 85.924 127.206 85.972 126.934 86.068C126.67 86.156 126.438 86.292 126.238 86.476C126.038 86.652 125.878 86.88 125.758 87.16C125.638 87.432 125.578 87.752 125.578 88.12C125.578 88.496 125.63 88.824 125.734 89.104C125.838 89.384 125.978 89.62 126.154 89.812C126.33 89.996 126.534 90.136 126.766 90.232C127.006 90.32 127.258 90.364 127.522 90.364C127.794 90.364 128.07 90.316 128.35 90.22C128.638 90.116 128.922 89.96 129.202 89.752V86.2ZM132.804 82.204V88.924C132.804 89.204 132.816 89.436 132.84 89.62C132.864 89.804 132.912 89.956 132.984 90.076C133.056 90.188 133.152 90.268 133.272 90.316C133.4 90.364 133.56 90.388 133.752 90.388C133.896 90.388 134.064 90.376 134.256 90.352L134.292 91.036C134.164 91.052 134.048 91.068 133.944 91.084C133.848 91.1 133.732 91.108 133.596 91.108C132.972 91.108 132.524 90.936 132.252 90.592C131.988 90.248 131.856 89.692 131.856 88.924V82.204H132.804ZM137.813 85.108C138.805 85.116 139.517 85.396 139.949 85.948C140.381 86.492 140.517 87.244 140.357 88.204H135.785C135.769 88.54 135.817 88.84 135.929 89.104C136.049 89.36 136.213 89.58 136.421 89.764C136.629 89.948 136.877 90.088 137.165 90.184C137.453 90.28 137.761 90.328 138.089 90.328C138.425 90.328 138.749 90.292 139.061 90.22C139.381 90.148 139.709 90.044 140.045 89.908L140.189 90.616C139.493 90.944 138.785 91.108 138.065 91.108C137.585 91.108 137.145 91.036 136.745 90.892C136.345 90.748 136.001 90.54 135.713 90.268C135.425 89.996 135.205 89.668 135.053 89.284C134.901 88.892 134.833 88.448 134.849 87.952C134.865 87.496 134.953 87.092 135.113 86.74C135.273 86.388 135.485 86.092 135.749 85.852C136.021 85.604 136.333 85.42 136.685 85.3C137.037 85.172 137.413 85.108 137.813 85.108ZM137.813 85.852C137.285 85.852 136.841 85.992 136.481 86.272C136.121 86.552 135.901 86.956 135.821 87.484H139.589C139.605 87.212 139.569 86.976 139.481 86.776C139.393 86.568 139.269 86.396 139.109 86.26C138.949 86.124 138.757 86.024 138.533 85.96C138.309 85.888 138.069 85.852 137.813 85.852ZM149.435 87.016C149.275 86.656 149.035 86.388 148.715 86.212C148.403 86.036 148.063 85.948 147.695 85.948C147.431 85.948 147.167 85.992 146.903 86.08C146.647 86.168 146.415 86.3 146.207 86.476C146.007 86.652 145.843 86.876 145.715 87.148C145.595 87.412 145.535 87.724 145.535 88.084C145.535 88.444 145.595 88.76 145.715 89.032C145.843 89.304 146.003 89.532 146.195 89.716C146.395 89.9 146.619 90.04 146.867 90.136C147.123 90.232 147.383 90.28 147.647 90.28C148.031 90.28 148.391 90.18 148.727 89.98C149.071 89.78 149.323 89.476 149.483 89.068H150.395C150.307 89.412 150.171 89.712 149.987 89.968C149.803 90.224 149.587 90.436 149.339 90.604C149.091 90.772 148.819 90.9 148.523 90.988C148.235 91.068 147.939 91.108 147.635 91.108C147.259 91.108 146.887 91.044 146.519 90.916C146.159 90.788 145.835 90.6 145.547 90.352C145.259 90.096 145.027 89.78 144.851 89.404C144.675 89.02 144.587 88.58 144.587 88.084C144.587 87.58 144.675 87.14 144.851 86.764C145.035 86.388 145.271 86.08 145.559 85.84C145.847 85.592 146.175 85.408 146.543 85.288C146.911 85.168 147.283 85.108 147.659 85.108C147.955 85.108 148.243 85.152 148.523 85.24C148.803 85.32 149.063 85.44 149.303 85.6C149.543 85.752 149.751 85.948 149.927 86.188C150.111 86.428 150.247 86.704 150.335 87.016H149.435ZM152.655 82.204V88.924C152.655 89.204 152.667 89.436 152.691 89.62C152.715 89.804 152.763 89.956 152.835 90.076C152.907 90.188 153.003 90.268 153.123 90.316C153.251 90.364 153.411 90.388 153.603 90.388C153.747 90.388 153.915 90.376 154.107 90.352L154.143 91.036C154.015 91.052 153.899 91.068 153.795 91.084C153.699 91.1 153.583 91.108 153.447 91.108C152.823 91.108 152.375 90.936 152.103 90.592C151.839 90.248 151.707 89.692 151.707 88.924V82.204H152.655ZM154.976 83.308C154.976 83.108 155.036 82.96 155.156 82.864C155.284 82.768 155.42 82.72 155.564 82.72C155.716 82.72 155.852 82.768 155.972 82.864C156.1 82.96 156.164 83.108 156.164 83.308C156.164 83.508 156.1 83.66 155.972 83.764C155.852 83.86 155.716 83.908 155.564 83.908C155.42 83.908 155.284 83.86 155.156 83.764C155.036 83.66 154.976 83.508 154.976 83.308ZM156.032 91H155.096V85.216H156.032V91ZM162.349 87.016C162.189 86.656 161.949 86.388 161.629 86.212C161.317 86.036 160.977 85.948 160.609 85.948C160.345 85.948 160.081 85.992 159.817 86.08C159.561 86.168 159.329 86.3 159.121 86.476C158.921 86.652 158.757 86.876 158.629 87.148C158.509 87.412 158.449 87.724 158.449 88.084C158.449 88.444 158.509 88.76 158.629 89.032C158.757 89.304 158.917 89.532 159.109 89.716C159.309 89.9 159.533 90.04 159.781 90.136C160.037 90.232 160.297 90.28 160.561 90.28C160.945 90.28 161.305 90.18 161.641 89.98C161.985 89.78 162.237 89.476 162.397 89.068H163.309C163.221 89.412 163.085 89.712 162.901 89.968C162.717 90.224 162.501 90.436 162.253 90.604C162.005 90.772 161.733 90.9 161.437 90.988C161.149 91.068 160.853 91.108 160.549 91.108C160.173 91.108 159.801 91.044 159.433 90.916C159.073 90.788 158.749 90.6 158.461 90.352C158.173 90.096 157.941 89.78 157.765 89.404C157.589 89.02 157.501 88.58 157.501 88.084C157.501 87.58 157.589 87.14 157.765 86.764C157.949 86.388 158.185 86.08 158.473 85.84C158.761 85.592 159.089 85.408 159.457 85.288C159.825 85.168 160.197 85.108 160.573 85.108C160.869 85.108 161.157 85.152 161.437 85.24C161.717 85.32 161.977 85.44 162.217 85.6C162.457 85.752 162.665 85.948 162.841 86.188C163.025 86.428 163.161 86.704 163.249 87.016H162.349ZM166.398 87.604C167.198 87.604 167.778 87.416 168.138 87.04C168.498 86.664 168.678 86.056 168.678 85.216H169.578C169.578 85.88 169.458 86.452 169.218 86.932C168.978 87.404 168.542 87.764 167.91 88.012L169.854 90.892V91H168.882L167.094 88.3C166.878 88.348 166.642 88.372 166.386 88.372H165.63V91H164.682V82.228H165.63V87.604H166.398Z" fill="#595959"/>
<g clip-path="url(#clip1_119_3461)">
<path d="M313.333 60L311.453 61.88L317.56 68L311.453 74.12L313.333 76L321.333 68L313.333 60Z" fill="#004364"/>
</g>
</g>
</g>
<defs>
<filter id="filter0_d_119_3461" x="-4" y="0" width="368" height="144" filterUnits="userSpaceOnUse" color-interpolation-filters="sRGB">
<feFlood flood-opacity="0" result="BackgroundImageFix"/>
<feColorMatrix in="SourceAlpha" type="matrix" values="0 0 0 0 0 0 0 0 0 0 0 0 0 0 0 0 0 0 127 0" result="hardAlpha"/>
<feOffset dy="4"/>
<feGaussianBlur stdDeviation="10"/>
<feColorMatrix type="matrix" values="0 0 0 0 0 0 0 0 0 0.228917 0 0 0 0 0.341667 0 0 0 0.05 0"/>
<feBlend mode="normal" in2="BackgroundImageFix" result="effect1_dropShadow_119_3461"/>
<feBlend mode="normal" in="SourceGraphic" in2="effect1_dropShadow_119_3461" result="shape"/>
</filter>
<clipPath id="clip0_119_3461">
<rect x="16" y="16" width="328" height="104" rx="12" fill="white"/>
</clipPath>
<clipPath id="clip1_119_3461">
<rect width="32" height="32" fill="white" transform="translate(300 52)"/>
</clipPath>
</defs>
</svg>
