<svg xmlns="http://www.w3.org/2000/svg" width="16" height="15" viewBox="0 0 16 15" fill="none">
  <path d="M0.796211 7.48931C0.797945 5.94642 1.29428 4.44472 2.21234 3.20469C3.1304 1.96466 4.42183 1.05161 5.89703 0.599603V2.09591C4.57965 2.60979 3.49553 3.58747 2.84874 4.84494C2.20194 6.1024 2.03707 7.55291 2.38517 8.92345C2.73327 10.294 3.57032 11.49 4.73877 12.2865C5.90721 13.0829 7.32647 13.4247 8.7294 13.2477C10.1323 13.0707 11.4222 12.3869 12.3561 11.3252C13.2901 10.2635 13.8038 8.897 13.8005 7.48295C13.7972 6.0689 13.2772 4.70481 12.3383 3.64745C11.3994 2.59009 10.1063 1.91237 8.70261 1.74188V7.72578L10.088 6.34704L11.0847 7.34369L8.89766 9.53071C8.66046 9.76746 8.33902 9.90043 8.00388 9.90043C7.66875 9.90043 7.34731 9.76746 7.11011 9.53071L4.92309 7.34369L5.91974 6.34704L7.29848 7.72578V0.32038C7.52961 0.297668 7.76341 0.285645 7.99988 0.285645C9.42674 0.285645 10.8216 0.708759 12.008 1.50148C13.1944 2.29421 14.119 3.42093 14.6651 4.73919C15.2111 6.05744 15.354 7.508 15.0756 8.90745C14.7972 10.3069 14.1101 11.5924 13.1012 12.6013C12.0922 13.6103 10.8068 14.2974 9.40733 14.5757C8.00788 14.8541 6.55731 14.7112 5.23906 14.1652C3.92081 13.6192 2.79408 12.6945 2.00136 11.5081C1.20864 10.3217 0.785522 8.92686 0.785522 7.5L0.796211 7.48931Z" fill="#F26842"/>
</svg>