<svg xmlns="http://www.w3.org/2000/svg" width="150" height="146" viewBox="0 0 150 146" fill="none">
  <mask id="mask0_263_1947" style="mask-type:luminance" maskUnits="userSpaceOnUse" x="0" y="0" width="150" height="146">
    <path d="M149.538 0H0V146H149.538V0Z" fill="white"/>
  </mask>
  <g mask="url(#mask0_263_1947)">
    <path opacity="0.2" d="M74.4579 131.943C100.297 131.943 121.244 130.149 121.244 127.935C121.244 125.722 100.297 123.927 74.4579 123.927C48.6187 123.927 27.6719 125.722 27.6719 127.935C27.6719 130.149 48.6187 131.943 74.4579 131.943Z" fill="#004364"/>
    <path d="M108.244 109.462C106.27 108.658 104.02 109.614 103.22 111.596C102.419 113.579 103.371 115.838 105.345 116.642C107.319 117.446 109.569 116.49 110.369 114.508C111.17 112.525 110.218 110.266 108.244 109.462Z" fill="#FFF9D9"/>
    <path d="M99.973 113.261C99.0743 112.895 98.0505 113.33 97.6861 114.233C97.3217 115.135 97.7548 116.163 98.6534 116.529C99.552 116.895 100.576 116.46 100.94 115.558C101.305 114.655 100.872 113.627 99.973 113.261Z" fill="#FFF9D9"/>
    <path d="M113.434 56.5815H31.9612C30.772 56.5815 29.8079 57.5497 29.8079 58.744V126.524C29.8079 127.719 30.772 128.687 31.9612 128.687H113.434C114.623 128.687 115.588 127.719 115.588 126.524V58.744C115.588 57.5497 114.623 56.5815 113.434 56.5815Z" fill="#F8D0D8"/>
    <path d="M115.557 48.959H29.8465C28.6572 48.959 27.6931 49.9272 27.6931 51.1215V122.463C27.6931 123.658 28.6572 124.626 29.8465 124.626H115.557C116.746 124.626 117.71 123.658 117.71 122.463V51.1215C117.71 49.9272 116.746 48.959 115.557 48.959Z" fill="white"/>
    <path d="M27.6931 51.1215C27.6931 49.9272 28.6573 48.959 29.8465 48.959H115.557C116.746 48.959 117.71 49.9272 117.71 51.1215V66.3982H27.6931V51.1215Z" fill="#FF7171"/>
    <path d="M54.5471 71.499H37.6538C36.4646 71.499 35.5005 72.4672 35.5005 73.6615V88.6913C35.5005 89.8856 36.4646 90.8538 37.6538 90.8538H54.5471C55.7364 90.8538 56.7005 89.8856 56.7005 88.6913V73.6615C56.7005 72.4672 55.7364 71.499 54.5471 71.499Z" fill="#B11030"/>
    <path d="M81.1482 71.4988H64.2549C63.0656 71.4988 62.1016 72.467 62.1016 73.6612V88.691C62.1016 89.8853 63.0656 90.8535 64.2549 90.8535H81.1482C82.3374 90.8535 83.3015 89.8853 83.3015 88.691V73.6612C83.3015 72.467 82.3374 71.4988 81.1482 71.4988Z" fill="#F8D0D8"/>
    <path d="M81.1482 95.9529H64.2549C63.0656 95.9529 62.1016 96.9211 62.1016 98.1154V113.145C62.1016 114.339 63.0656 115.308 64.2549 115.308H81.1482C82.3374 115.308 83.3015 114.339 83.3015 113.145V98.1154C83.3015 96.9211 82.3374 95.9529 81.1482 95.9529Z" fill="#F8D0D8"/>
    <path d="M46.9809 74.9172L46.8518 82.3893C46.8518 83.3291 45.3545 83.3291 45.3545 82.3893L45.2253 74.9172C45.2253 74.2807 46.9809 74.2211 46.9809 74.9172Z" fill="white"/>
    <path d="M45.3836 85.9817C45.5837 86.1826 45.8233 86.2831 46.1028 86.2831C46.2916 86.2831 46.4614 86.2375 46.6125 86.1466C46.7672 86.0518 46.8898 85.9267 46.9805 85.7713C47.0749 85.6158 47.1221 85.4452 47.1221 85.2595C47.1221 84.9789 47.0221 84.7382 46.822 84.5372C46.6218 84.3363 46.3822 84.2358 46.1028 84.2358C45.8233 84.2358 45.5837 84.3363 45.3836 84.5372C45.1835 84.7382 45.0835 84.9789 45.0835 85.2595C45.0835 85.54 45.1835 85.7808 45.3836 85.9817Z" fill="white"/>
    <path d="M107.742 71.4988H90.8492C89.6599 71.4988 88.6958 72.467 88.6958 73.6612V88.691C88.6958 89.8853 89.6599 90.8535 90.8492 90.8535H107.742C108.932 90.8535 109.896 89.8853 109.896 88.691V73.6612C109.896 72.467 108.932 71.4988 107.742 71.4988Z" fill="#F8D0D8"/>
    <path d="M107.742 95.9529H90.8492C89.6599 95.9529 88.6958 96.9211 88.6958 98.1154V113.145C88.6958 114.339 89.6599 115.308 90.8492 115.308H107.742C108.932 115.308 109.896 114.339 109.896 113.145V98.1154C109.896 96.9211 108.932 95.9529 107.742 95.9529Z" fill="#F8D0D8"/>
    <path d="M54.5471 95.9531H37.6538C36.4646 95.9531 35.5005 96.9213 35.5005 98.1156V113.145C35.5005 114.34 36.4646 115.308 37.6538 115.308H54.5471C55.7364 115.308 56.7005 114.34 56.7005 113.145V98.1156C56.7005 96.9213 55.7364 95.9531 54.5471 95.9531Z" fill="#F8D0D8"/>
    <path d="M46.1028 44.6853V55.6194" stroke="#004364" stroke-width="4.97664" stroke-linecap="round"/>
    <path d="M99.2983 44.6853V55.6194" stroke="#004364" stroke-width="4.97664" stroke-linecap="round"/>
    <path d="M76.2227 49.1043C76.2227 46.7883 77.1388 44.5673 78.7694 42.9296C80.4002 41.2921 82.6118 40.3721 84.918 40.3721C87.2242 40.3721 89.4359 41.2921 91.0665 42.9296C92.6973 44.5673 93.6134 46.7883 93.6134 49.1043H84.918H76.2227Z" fill="#185230"/>
    <path fill-rule="evenodd" clip-rule="evenodd" d="M84.8623 40.4832H130.997C133.213 41.158 133.766 41.7101 135.428 43.6734C137.09 45.6365 137.256 46.5568 137.366 48.704V118.128V121.465V122.959C137.366 123.106 137.309 123.247 137.205 123.351L136.097 124.464C135.88 124.682 135.53 124.682 135.314 124.464L132.774 121.913C132.557 121.697 132.206 121.697 131.991 121.913L129.451 124.464C129.234 124.682 128.883 124.682 128.668 124.464L126.128 121.913C125.911 121.697 125.56 121.697 125.345 121.913L122.805 124.464C122.588 124.682 122.237 124.682 122.021 124.464L119.482 121.913C119.265 121.697 118.914 121.697 118.698 121.913L116.159 124.464C115.942 124.682 115.591 124.682 115.375 124.464L112.835 121.913C112.619 121.697 112.268 121.697 112.052 121.913L109.512 124.464C109.296 124.682 108.945 124.682 108.729 124.464L106.189 121.913C105.973 121.697 105.622 121.697 105.406 121.913L102.866 124.464C102.65 124.682 102.299 124.682 102.083 124.464L99.5431 121.913C99.3269 121.697 98.9762 121.697 98.7599 121.913L96.2388 124.445C96.0153 124.67 95.6505 124.661 95.4376 124.427L93.7022 122.514C93.6092 122.412 93.5577 122.277 93.5577 122.139V121.465V118.128V49.931C93.1146 45.7592 92.6161 45.0844 91.01 43.3052C89.4038 41.5261 87.7977 40.7899 84.8623 40.4832Z" fill="#C1EDD3"/>
    <path d="M119.28 85.1434H122.591L111.638 107.495H108.359L119.28 85.1434ZM128.451 102.475C128.451 103.711 128.175 104.745 127.622 105.576C127.091 106.387 126.413 106.994 125.585 107.399C124.778 107.804 123.898 108.007 122.942 108.007C122.008 108.007 121.127 107.804 120.299 107.399C119.492 106.994 118.813 106.387 118.261 105.576C117.73 104.745 117.465 103.711 117.465 102.475C117.465 101.26 117.73 100.247 118.261 99.4369C118.813 98.6055 119.492 97.9874 120.299 97.5823C121.127 97.1773 122.008 96.9747 122.942 96.9747C123.898 96.9747 124.778 97.1773 125.585 97.5823C126.413 97.9874 127.091 98.6055 127.622 99.4369C128.175 100.247 128.451 101.26 128.451 102.475ZM120.268 102.475C120.268 103.157 120.395 103.722 120.65 104.169C120.925 104.617 121.265 104.958 121.668 105.193C122.071 105.406 122.496 105.513 122.942 105.513C123.41 105.513 123.845 105.406 124.247 105.193C124.651 104.958 124.98 104.617 125.235 104.169C125.511 103.722 125.648 103.157 125.648 102.475C125.648 101.814 125.511 101.26 125.235 100.812C124.98 100.364 124.651 100.034 124.247 99.8206C123.845 99.5862 123.41 99.4689 122.942 99.4689C122.496 99.4689 122.071 99.5862 121.668 99.8206C121.265 100.034 120.925 100.364 120.65 100.812C120.395 101.26 120.268 101.814 120.268 102.475ZM113.708 90.2277C113.708 91.4642 113.432 92.4873 112.88 93.2974C112.349 94.1075 111.67 94.7258 110.842 95.1521C110.036 95.5572 109.155 95.7596 108.199 95.7596C107.265 95.7596 106.384 95.5572 105.557 95.1521C104.75 94.7258 104.071 94.1075 103.519 93.2974C102.988 92.4873 102.723 91.4642 102.723 90.2277C102.723 88.9913 102.988 87.9681 103.519 87.158C104.071 86.3266 104.75 85.7083 105.557 85.3033C106.384 84.8982 107.265 84.6958 108.199 84.6958C109.155 84.6958 110.036 84.8982 110.842 85.3033C111.67 85.7083 112.349 86.3266 112.88 87.158C113.432 87.9681 113.708 88.9913 113.708 90.2277ZM105.557 90.2277C105.557 90.9098 105.684 91.4748 105.939 91.9225C106.215 92.3701 106.544 92.7112 106.926 92.9457C107.329 93.1588 107.764 93.2654 108.231 93.2654C108.698 93.2654 109.123 93.1588 109.505 92.9457C109.908 92.7112 110.237 92.3701 110.492 91.9225C110.768 91.4748 110.906 90.9098 110.906 90.2277C110.906 89.5456 110.768 88.9807 110.492 88.5329C110.237 88.0853 109.908 87.7548 109.505 87.5416C109.123 87.3072 108.698 87.19 108.231 87.19C107.764 87.19 107.329 87.3072 106.926 87.5416C106.544 87.7548 106.215 88.0853 105.939 88.5329C105.684 88.9807 105.557 89.5456 105.557 90.2277Z" fill="white"/>
    <path d="M108.869 55.7049V57.8033H104.435V60.0779H108.582V62.1763H104.435V64.7392H108.997V66.9177H102.027V55.7049H108.869ZM116.514 61.0069L120.997 55.6729H121.858V66.9177H119.465V60.8468L116.657 64.3709H116.355L113.547 60.8468V66.9177H111.155V55.6729H112.032L116.514 61.0069ZM127.839 65.0115H129.419V66.9177H123.868V65.0115H125.447V57.5631H123.996V55.7049H129.291V57.5631H127.839V65.0115Z" fill="#004364"/>
    <path d="M101.754 71.3489H131.219C131.861 71.3489 132.382 71.8718 132.382 72.5169C132.382 73.1619 131.861 73.6849 131.219 73.6849H101.754C101.112 73.6849 100.591 73.1619 100.591 72.5169C100.591 71.8718 101.112 71.3489 101.754 71.3489Z" fill="#004364"/>
    <path d="M101.754 75.1306H131.219C131.861 75.1306 132.382 75.6535 132.382 76.2986C132.382 76.9437 131.861 77.4666 131.219 77.4666H101.754C101.112 77.4666 100.591 76.9437 100.591 76.2986C100.591 75.6535 101.112 75.1306 101.754 75.1306Z" fill="#004364"/>
    <path d="M132.381 53.6071C140.21 53.6071 146.557 47.2333 146.557 39.3709C146.557 31.5085 140.21 25.1348 132.381 25.1348C124.551 25.1348 118.205 31.5085 118.205 39.3709C118.205 47.2333 124.551 53.6071 132.381 53.6071Z" fill="white"/>
    <path fill-rule="evenodd" clip-rule="evenodd" d="M140.428 44.5342C140.428 41.0165 133.143 40.6584 133.143 40.6584C132.762 40.6212 132.478 40.6026 132.164 40.6026C129.552 40.6026 124.336 41.8503 124.336 44.3272V46.1895H133.143C133.143 46.1895 138.253 46.1895 140.428 46.1895C140.428 46.1895 140.428 48.0517 140.428 44.5342ZM132.164 38.7404C134.327 38.7404 136.079 37.0736 136.079 35.0158C136.079 32.958 134.327 31.2913 132.164 31.2913C130.002 31.2913 128.25 32.958 128.25 35.0158C128.25 37.0736 130.002 38.7404 132.164 38.7404Z" fill="#004364"/>
    <path fill-rule="evenodd" clip-rule="evenodd" d="M20.725 63.7495C19.8508 62.7191 19.2591 61.4562 19.358 60.0412C19.6429 55.9642 25.2943 56.8611 26.3937 58.9189C27.493 60.9766 27.3624 66.1963 25.9416 66.564C25.375 66.7107 24.1679 66.3514 22.9394 65.6079L23.7105 71.0862H19.1575L20.725 63.7495Z" fill="#D6A97F"/>
    <path fill-rule="evenodd" clip-rule="evenodd" d="M24.5933 56.677C23.9711 56.4864 23.068 56.4219 22.6881 56.4655C22.9042 55.9455 22.9899 55.3663 22.92 54.8022C22.8521 54.254 22.6082 53.7874 22.3826 53.2983C22.2787 53.0729 22.1609 52.8487 21.9851 52.6763C21.8062 52.5006 21.5797 52.3846 21.3422 52.3293C21.0991 52.2727 20.8449 52.2774 20.6014 52.3288C20.4937 52.3516 20.3971 52.4009 20.2915 52.4285C20.1833 52.4567 20.1308 52.3887 20.0523 52.3203C19.8631 52.1556 19.5857 52.0744 19.3464 52.0453C19.0778 52.0128 18.7991 52.0534 18.543 52.1421C18.2937 52.2284 18.0542 52.3685 17.874 52.5727C17.7937 52.6636 17.7209 52.767 17.6736 52.8812C17.6541 52.9282 17.6509 52.9559 17.6043 52.973C17.5613 52.989 17.5109 52.9893 17.4664 53.0045C17.0365 53.1508 16.669 53.4842 16.4689 53.9125C16.3522 54.1623 16.2969 54.6022 16.312 55.0952C16.3271 55.5883 16.7704 56.8747 17.1851 57.344C17.5552 57.7627 18.0992 58.0392 18.6242 58.1602C18.2757 58.5602 18.0437 59.0599 17.8722 59.5683C17.6859 60.1205 17.5706 60.6942 17.5279 61.2788C17.4876 61.8343 17.4837 62.4216 17.6134 62.9652C17.7347 63.4734 17.9942 63.8904 18.4271 64.155C18.6256 64.2762 18.8389 64.3673 19.0536 64.4505C19.2652 64.5325 19.4774 64.6122 19.6989 64.6582C20.1183 64.7452 20.6016 64.7303 20.9245 64.3951C21.0409 64.2742 21.169 64.1223 21.2539 63.9747C21.2845 63.9216 21.303 63.887 21.2658 63.8351C21.2214 63.7728 21.1495 63.7252 21.0924 63.6767C20.7667 63.3994 20.5651 63.0293 20.5143 62.5895C20.4627 62.1433 20.5822 61.5673 21.0142 61.3725C21.5475 61.1321 22.1348 61.4081 22.6088 61.6653C22.8102 60.9513 23.2239 60.3085 23.8724 59.9809C24.5898 59.6186 25.4131 59.5762 26.1503 59.2653C26.3424 59.1843 26.5381 59.0923 26.6796 58.9273C26.7387 58.8583 26.8081 58.7687 26.8316 58.6776C26.8627 58.5577 26.7857 58.4572 26.7263 58.3638C26.4109 57.8683 25.2154 56.8675 24.5933 56.677Z" fill="#262626"/>
    <path fill-rule="evenodd" clip-rule="evenodd" d="M18.2424 88.241L24.6208 110.719L29.2746 127.286H32.6689L27.7236 88.241H18.2424Z" fill="#004364"/>
    <path fill-rule="evenodd" clip-rule="evenodd" d="M16.5358 88.241C16.3882 99.8265 15.8852 106.146 15.7303 107.198C15.5754 108.251 13.2332 114.947 8.70361 127.286H12.2199C17.9863 115.449 21.2053 108.753 21.8767 107.198C22.5483 105.644 24.6206 99.3246 27.742 88.241H16.5358Z" fill="#005F8D"/>
    <path fill-rule="evenodd" clip-rule="evenodd" d="M8.39111 130.467L8.56704 126.757H12.2617C14.0136 127.994 16.3006 128.996 19.123 129.76V130.467H12.4375L10.1504 130.114V130.467H8.39111Z" fill="#262626"/>
    <path fill-rule="evenodd" clip-rule="evenodd" d="M28.7954 130.467L28.9713 126.757H32.6659C34.4178 127.994 36.7049 128.996 39.5272 129.76V130.467H32.8418L30.5547 130.114V130.467H28.7954Z" fill="#262626"/>
    <path fill-rule="evenodd" clip-rule="evenodd" d="M9.71927 82.4092L13.9923 82.4253C9.30681 93.014 6.86372 98.5582 6.66304 99.0576C6.2115 100.181 7.16701 101.893 7.57564 102.813C6.24478 103.411 6.38659 101.196 4.70774 101.98C3.17539 102.696 2.00971 103.993 0.239293 102.896C0.0216304 102.761 -0.216893 102.254 0.35941 101.857C1.79519 100.868 3.86423 99.1378 4.1438 98.5681C4.52503 97.7914 6.38352 92.4052 9.71927 82.4092Z" fill="#D6A97F"/>
    <path d="M40.7295 84.1486L32.9697 83.644L33.6378 87.3173L40.2575 86.1267C42.8455 86.9266 44.1351 87.1239 44.1266 86.7186C44.1138 86.1106 43.2985 86.0909 43.2242 85.6821C43.1499 85.2734 44.1666 84.6648 45.1558 84.1289C46.145 83.593 45.6034 83.347 45.2443 83.2847C43.9153 83.3248 42.4104 83.6127 40.7295 84.1486Z" fill="#D6A97F"/>
    <path fill-rule="evenodd" clip-rule="evenodd" d="M21.4226 68.8L24.7681 69.0238C25.5921 76.51 29.4823 82.5454 38.4812 83.2915L35.1788 91.7482C29.2346 90.0901 25.8486 91.7792 22.1471 76.4973C21.7101 73.8506 21.365 71.0963 21.4226 68.8Z" fill="#5F5BA9"/>
    <path fill-rule="evenodd" clip-rule="evenodd" d="M19.7708 67.8222L24.8399 68.9881C24.8399 77.7436 27.6172 83.3299 29.0417 89.7672H15.3515C15.1587 91.9916 15.0403 94.2778 14.9785 96.6259H4.72778C7.05066 84.2143 11.9535 74.612 19.4362 67.8191H19.7682L19.7708 67.8222Z" fill="#7E79D0"/>
    <path fill-rule="evenodd" clip-rule="evenodd" d="M17.5118 77.2764C17.159 82.7322 17.3664 86.8959 18.1343 89.7672H15.3518C15.7338 85.3608 16.4079 81.1972 17.5118 77.2764Z" fill="#5F5BA9"/>
    <path opacity="0.2" d="M23.1419 131.943C33.5999 131.943 42.0778 131.314 42.0778 130.538C42.0778 129.762 33.5999 129.132 23.1419 129.132C12.6839 129.132 4.20605 129.762 4.20605 130.538C4.20605 131.314 12.6839 131.943 23.1419 131.943Z" fill="#004364"/>
  </g>
</svg>