<svg xmlns="http://www.w3.org/2000/svg" width="16" height="16" viewBox="0 0 16 16" fill="none">
  <path d="M8.00122 -6.99489e-07C3.58227 -1.08581e-06 1.08581e-06 3.58227 6.99489e-07 8.00122C3.13172e-07 12.4202 3.58227 16.0024 8.00122 16.0024C12.4202 16.0024 16.0024 12.4202 16.0024 8.00122C16.0024 3.58227 12.4202 -3.13172e-07 8.00122 -6.99489e-07Z" fill="#00A6CA"/>
  <path d="M7.34819 12.7162L7.44422 6.24442C7.44422 5.43045 8.55815 5.43045 8.55815 6.24442L8.65417 12.7162C8.65417 13.2674 7.34819 13.319 7.34819 12.7162Z" fill="white"/>
  <path d="M8.53555 3.70323C8.38672 3.5544 8.20841 3.47999 8.00061 3.47999C7.86021 3.47999 7.73385 3.51368 7.62153 3.58108C7.5064 3.65128 7.41514 3.74394 7.34774 3.85907C7.27754 3.97421 7.24244 4.10057 7.24244 4.23816C7.24244 4.44596 7.31685 4.62427 7.46568 4.7731C7.61451 4.92192 7.79282 4.99634 8.00061 4.99634C8.20841 4.99634 8.38672 4.92192 8.53555 4.7731C8.68438 4.62427 8.75879 4.44596 8.75879 4.23816C8.75879 4.03037 8.68438 3.85205 8.53555 3.70323Z" fill="white"/>
</svg>