<svg xmlns="http://www.w3.org/2000/svg" width="91" height="91" viewBox="0 0 91 91" fill="none">
  <path d="M50.4907 7.88925C43.5689 7.86906 31.4166 11.28 31.7517 13.0118C34.4107 16.6653 43.2 19.5633 50.4907 7.88925Z" fill="#B11030"/>
  <path d="M15.4708 65.095C11.9838 51.0614 28.488 35.0003 35.4577 24.4169L31.7056 12.9985C43.1093 16.8626 41.5869 5.53646 53.1389 8.32345L50.4119 24.4169C57.1234 35.1724 70.8116 52.3041 70.6051 61.3904C70.347 72.7482 56.9409 83.6213 43.0016 83.105C29.0623 82.5888 18.2012 76.0834 15.4708 65.095Z" fill="#FF7171"/>
  <path d="M40.1537 67.9356L33.985 57.7398V55.3369H35.883C36.6423 55.3369 37.3066 55.2287 37.876 55.0122C38.4666 54.7741 38.9516 54.4386 39.3312 54.0056C39.7319 53.5727 40.0061 53.0532 40.1537 52.447H33.985V50.0442H40.1221C39.9956 49.4814 39.7741 48.9835 39.4578 48.5505C39.1625 48.1176 38.7618 47.7821 38.2557 47.544C37.7706 47.2842 37.1801 47.1543 36.4841 47.1543H33.985V44.7515H48.2523V47.1543H43.2856C43.6441 47.5656 43.9394 48.0094 44.1714 48.4856C44.4244 48.9618 44.5932 49.4814 44.6775 50.0442H48.2523V52.447H44.7408C44.5299 54.0489 43.9288 55.3045 42.9376 56.2136C41.9464 57.1012 39.8163 57.7073 38.2557 58.032L44.6775 67.9356H40.1537Z" fill="#F8D0D8"/>
  <path d="M44.3057 25.6685C45.3687 25.6685 47.6493 25.0464 48.505 24.7095" stroke="#005F8D" stroke-width="0.933125"/>
  <path fill-rule="evenodd" clip-rule="evenodd" d="M43.8353 23.425C44.0288 22.6524 44.8818 22.251 45.6005 22.5944L62.6076 30.7212C62.6487 30.7409 62.6964 30.7411 62.7378 30.722C62.8143 30.6865 62.9051 30.7197 62.9406 30.7962L75.3176 57.4602C75.6105 58.0913 75.3364 58.8403 74.7053 59.1332L53.3966 69.0243C52.7655 69.3172 52.0165 69.0431 51.7236 68.412L39.2859 41.6174C39.2855 41.6164 39.2842 41.6159 39.2832 41.6164C39.2817 41.6171 39.28 41.6157 39.2804 41.614L43.8353 23.425ZM46.4338 26.7982C47.0795 26.4984 47.36 25.732 47.0603 25.0862C46.7605 24.4405 45.9941 24.16 45.3483 24.4597C44.7026 24.7595 44.4221 25.5259 44.7218 26.1717C45.0216 26.8174 45.788 27.0979 46.4338 26.7982Z" fill="#005F8D"/>
  <path d="M50.7147 22.6539C52.5602 22.977 50.0398 23.9455 49.0684 24.4531M34.9246 24.2498C34.7653 26.685 39.4967 26.5904 44.1855 25.6852" stroke="#005F8D" stroke-width="0.933125"/>
  <path fill-rule="evenodd" clip-rule="evenodd" d="M44.4165 23.2193C44.6073 22.4327 45.4799 22.0276 46.2039 22.3896L63.0093 30.7904C63.0104 30.7909 63.0117 30.791 63.0128 30.7905C63.014 30.7899 63.0153 30.79 63.0164 30.7905C63.0171 30.7909 63.0178 30.7916 63.0182 30.7924L63.0188 30.7938C63.0194 30.7949 63.0203 30.7959 63.0214 30.7964L63.0465 30.809C63.0543 30.8129 63.0541 30.8241 63.0462 30.8278C63.0409 30.8303 63.0387 30.8365 63.0411 30.8418L75.4578 57.5913C75.7507 58.2224 75.4766 58.9714 74.8456 59.2643L54.0736 68.9062C53.4425 69.1991 52.6935 68.925 52.4006 68.294L39.9808 41.5377C39.98 41.5362 39.9782 41.5355 39.9767 41.5362C39.9743 41.5373 39.9717 41.5352 39.9723 41.5327L39.9739 41.5262C39.9742 41.5248 39.9741 41.5234 39.9735 41.5221L39.9674 41.509C39.9629 41.4993 39.9671 41.4878 39.9768 41.4833C39.9822 41.4808 39.9861 41.476 39.9875 41.4703L44.4165 23.2193ZM47.1068 26.6811C47.7525 26.3813 48.033 25.6149 47.7333 24.9691C47.4335 24.3234 46.667 24.0429 46.0213 24.3426C45.3755 24.6424 45.0951 25.4088 45.3948 26.0546C45.6945 26.7003 46.461 26.9808 47.1068 26.6811Z" fill="#CCEDFA"/>
  <path d="M51.4839 42.4338C52.0921 43.2231 52.3829 44.0968 52.3939 44.8473C52.405 45.5976 52.1431 46.1678 51.7141 46.4983C51.2851 46.8288 50.6669 46.9366 49.9443 46.7345C49.2214 46.5324 48.4508 46.0283 47.8427 45.239C47.2346 44.4496 46.9438 43.576 46.9327 42.8255C46.9216 42.0752 47.1835 41.505 47.6125 41.1744C48.0415 40.8439 48.6597 40.7361 49.3824 40.9382C50.1052 41.1404 50.8758 41.6444 51.4839 42.4338Z" stroke="#005F8D" stroke-width="1.67964"/>
  <path d="M64.979 45.5153C65.5871 46.3047 65.8779 47.1783 65.889 47.9288C65.9001 48.6791 65.6382 49.2493 65.2091 49.5799C64.7801 49.9104 64.162 50.0182 63.4393 49.8161C62.7164 49.6139 61.9459 49.1099 61.3377 48.3205C60.7296 47.5312 60.4388 46.6575 60.4277 45.907C60.4166 45.1567 60.6785 44.5865 61.1075 44.256C61.5366 43.9255 62.1547 43.8177 62.8774 44.0198C63.6002 44.2219 64.3708 44.726 64.979 45.5153Z" stroke="#005F8D" stroke-width="1.67964"/>
  <path d="M52.5968 35.8755L61.3678 56.1125" stroke="#005F8D" stroke-width="1.67964"/>
</svg>