<svg xmlns="http://www.w3.org/2000/svg" width="20" height="16" viewBox="0 0 20 16" fill="none">
  <path d="M17.6574 5.05044H11.8233C11.908 3.87622 11.636 2.70376 11.0424 1.68465C10.7339 1.15648 9.77274 -0.0788797 8.46137 0.00397065C8.00154 0.0373836 7.5609 0.200505 7.1913 0.474138C6.8217 0.74777 6.53852 1.12053 6.37508 1.54854C6.20754 2.0248 6.18627 2.53973 6.31398 3.02801C6.44363 3.58133 7.00246 4.01038 7.03226 4.49712C7.06952 5.10962 6.61501 5.56678 6.15006 5.89818C5.62253 6.27396 5.07712 6.62164 4.63155 7.09655C4.50037 6.72494 4.25671 6.40267 3.93393 6.17384C3.61115 5.94502 3.22502 5.82083 2.8284 5.81829H1.90597C1.46241 5.81937 1.03305 5.97365 0.691542 6.25466C0.350033 6.53567 0.117657 6.9259 0.0342746 7.35842H2.8284C2.92211 7.35957 3.01165 7.39703 3.07791 7.46282C3.14417 7.52861 3.18191 7.6175 3.18307 7.71053V14.1078C3.18153 14.2005 3.14362 14.289 3.0774 14.3545C3.01117 14.42 2.92185 14.4572 2.8284 14.4584H1.90597C1.81252 14.4572 1.7232 14.42 1.65698 14.3545C1.59075 14.289 1.55284 14.2005 1.5513 14.1078V8.92961H0V14.1078C0.000394669 14.6095 0.201328 15.0906 0.558681 15.4453C0.916034 15.8001 1.40059 15.9996 1.90597 16H2.82989C3.33677 16 3.8231 15.8011 4.18291 15.4467C4.54272 15.0922 4.74683 14.611 4.75076 14.1078V10.3662C4.75076 9.5214 5.24849 8.65887 5.83414 8.073C6.46748 7.43831 7.29305 7.01962 7.91148 6.36717C8.20618 6.05195 8.41759 5.66912 8.52682 5.25294C8.63604 4.83675 8.63966 4.40018 8.53737 3.98226C8.40623 3.44522 8.05156 3.0354 7.94129 2.88006C7.83676 2.74323 7.77722 2.57776 7.77076 2.40615C7.7643 2.23455 7.81124 2.06513 7.90519 1.92094C7.99914 1.77675 8.13554 1.66478 8.29584 1.60027C8.45614 1.53576 8.63257 1.52183 8.80113 1.56037C9.18858 1.65358 9.42702 2.03824 9.62968 2.34893C10.576 3.79585 10.1766 5.4351 10.1408 5.6659C10.1051 5.8967 10.1244 6.54471 10.9083 6.60241C10.9321 6.60241 13.2017 6.60241 13.8067 6.60241H17.6574C17.8464 6.62572 18.0202 6.71678 18.1463 6.85847C18.2724 7.00015 18.342 7.18268 18.342 7.37173C18.342 7.56078 18.2724 7.74331 18.1463 7.885C18.0202 8.02668 17.8464 8.11774 17.6574 8.14106H14.455C14.2475 8.14106 14.0485 8.22289 13.9017 8.36855C13.755 8.51422 13.6726 8.71178 13.6726 8.91778C13.6747 8.96733 13.6797 9.01673 13.6875 9.06572L13.6979 9.12934C13.7706 9.52857 13.9645 9.89617 14.2538 10.1827C14.3396 10.2681 14.3878 10.3839 14.3878 10.5045C14.3878 10.6252 14.3396 10.7409 14.2538 10.8263C13.8769 11.2013 13.6652 11.7094 13.6652 12.2392C13.6652 12.769 13.8769 13.2771 14.2538 13.6521C14.3396 13.7375 14.3878 13.8532 14.3878 13.9739C14.3878 14.0945 14.3396 14.2102 14.2538 14.2956C14.1714 14.3784 14.0595 14.4257 13.9423 14.4273C12.4715 14.4273 9.35847 14.4273 9.3376 14.4273C8.9467 14.4246 8.57276 14.2684 8.29746 13.9929C8.02216 13.7173 7.86786 13.3448 7.86826 12.9567H6.33187C6.3287 13.7558 6.64527 14.5233 7.21199 15.0907C7.77871 15.658 8.54918 15.9787 9.354 15.9822H13.9542C14.3487 15.9763 14.7327 15.8555 15.0586 15.6347C15.3844 15.414 15.6378 15.1031 15.7872 14.7406C15.9366 14.3781 15.9754 13.98 15.8988 13.5958C15.8223 13.2116 15.6337 12.8582 15.3565 12.5795C15.2707 12.494 15.2225 12.3783 15.2225 12.2577C15.2225 12.137 15.2707 12.0213 15.3565 11.9359C15.6446 11.6488 15.838 11.2816 15.9112 10.8829C15.9844 10.4842 15.9339 10.0729 15.7663 9.70337H17.6574C18.2787 9.70337 18.8745 9.45834 19.3139 9.02219C19.7532 8.58603 20 7.99447 20 7.37765C20 6.76083 19.7532 6.16927 19.3139 5.73311C18.8745 5.29695 18.2787 5.05192 17.6574 5.05192V5.05044Z" fill="#008A00"/>
</svg>