<svg xmlns="http://www.w3.org/2000/svg" width="18" height="17" viewBox="0 0 18 17" fill="none">
  <path d="M9.59408 15.1479V16.6712C10.772 16.6701 11.9235 16.3218 12.9046 15.6698C13.8856 15.0179 14.6528 14.0913 15.1102 13.0058H13.3936C12.9971 13.6587 12.4394 14.1986 11.774 14.5737C11.1086 14.9489 10.3579 15.1466 9.59408 15.1479ZM15.103 5.82359H14.9039C14.8697 4.26739 14.2274 2.78648 13.1147 1.69799C12.002 0.609508 10.5073 0 8.95073 0C7.39416 0 5.89946 0.609508 4.78675 1.69799C3.67404 2.78648 3.03178 4.26739 2.99752 5.82359H2.68738C1.15544 5.82359 0 7.04106 0 8.65667C0.00114543 9.40756 0.300043 10.1273 0.831141 10.6582C1.36224 11.189 2.08218 11.4875 2.83308 11.4883H3.75772C3.95972 11.4883 4.15345 11.4081 4.29628 11.2652C4.43912 11.1224 4.51936 10.9287 4.51936 10.7267V5.90004C4.51936 4.72496 4.98616 3.59801 5.81707 2.7671C6.64797 1.93619 7.77493 1.4694 8.95001 1.4694C10.1251 1.4694 11.252 1.93619 12.0829 2.7671C12.9139 3.59801 13.3807 4.72496 13.3807 5.90004V11.4883H15.103C15.4803 11.4968 15.8556 11.4298 16.2066 11.2913C16.5577 11.1528 16.8776 10.9456 17.1475 10.6817C17.4174 10.4179 17.6318 10.1027 17.7782 9.75486C17.9246 9.40699 18 9.03337 18 8.65594C18 8.27852 17.9246 7.9049 17.7782 7.55702C17.6318 7.20915 17.4174 6.89403 17.1475 6.63018C16.8776 6.36633 16.5577 6.15906 16.2066 6.02055C15.8556 5.88204 15.4803 5.81507 15.103 5.82359ZM2.99608 9.96502H2.83308C2.4862 9.96463 2.15363 9.82667 1.90835 9.58139C1.66307 9.33611 1.52511 9.00354 1.52473 8.65667C1.52473 8.0061 1.9243 7.34687 2.68882 7.34687H2.99608V9.96502ZM15.103 9.96502H14.9039V7.34687H15.103C15.4502 7.34687 15.7832 7.48479 16.0287 7.73029C16.2742 7.97579 16.4121 8.30876 16.4121 8.65594C16.4121 9.00313 16.2742 9.3361 16.0287 9.5816C15.7832 9.8271 15.4502 9.96502 15.103 9.96502Z" fill="#F26842"/>
</svg>