<svg xmlns="http://www.w3.org/2000/svg" width="94" height="92" viewBox="0 0 94 92" fill="none">
  <g clip-path="url(#clip0_175_4025)">
    <path d="M54.6801 8.08105H9.03734C7.5997 8.08105 6.43427 9.23595 6.43427 10.6606V75.2363C6.43427 76.6609 7.5997 77.8158 9.03734 77.8158H54.6801C56.1178 77.8158 57.2832 76.6609 57.2832 75.2363V10.6606C57.2832 9.23595 56.1178 8.08105 54.6801 8.08105Z" fill="#004364"/>
    <path d="M55.0126 10.3301H8.70374V72.8664H55.0126V10.3301Z" fill="white"/>
    <path d="M41.7962 5.83105H21.922C21.8938 5.83105 21.871 5.83489 21.871 5.83961V11.6712C21.871 11.676 21.8938 11.6798 21.922 11.6798H41.7962C41.8244 11.6798 41.8473 11.676 41.8473 11.6712V5.83961C41.8473 5.83489 41.8244 5.83105 41.7962 5.83105Z" fill="#005F8D"/>
    <path d="M32.086 11.2298C34.4681 11.2298 36.3991 9.3162 36.3991 6.9557C36.3991 4.5952 34.4681 2.68164 32.086 2.68164C29.704 2.68164 27.7729 4.5952 27.7729 6.9557C27.7729 9.3162 29.704 11.2298 32.086 11.2298Z" fill="#005F8D"/>
    <path d="M45.0256 36.874H18.6931C18.1916 36.874 17.7851 37.2769 17.7851 37.7738C17.7851 38.2708 18.1916 38.6736 18.6931 38.6736H45.0256C45.5271 38.6736 45.9336 38.2708 45.9336 37.7738C45.9336 37.2769 45.5271 36.874 45.0256 36.874Z" fill="#E6F6FA"/>
    <path d="M45.0256 42.2734H18.6931C18.1916 42.2734 17.7851 42.6763 17.7851 43.1732C17.7851 43.6702 18.1916 44.073 18.6931 44.073H45.0256C45.5271 44.073 45.9336 43.6702 45.9336 43.1732C45.9336 42.6763 45.5271 42.2734 45.0256 42.2734Z" fill="#E6F6FA"/>
    <path d="M45.0256 47.6719H18.6931C18.1916 47.6719 17.7851 48.0747 17.7851 48.5717C17.7851 49.0686 18.1916 49.4715 18.6931 49.4715H45.0256C45.5271 49.4715 45.9336 49.0686 45.9336 48.5717C45.9336 48.0747 45.5271 47.6719 45.0256 47.6719Z" fill="#E6F6FA"/>
    <path d="M33.8556 53.0713H18.6931C18.1916 53.0713 17.7851 53.4741 17.7851 53.9711C17.7851 54.468 18.1916 54.8709 18.6931 54.8709H33.8556C34.3571 54.8709 34.7636 54.468 34.7636 53.9711C34.7636 53.4741 34.3571 53.0713 33.8556 53.0713Z" fill="#E6F6FA"/>
    <path d="M43.9806 16.3066H19.471C18.3928 16.3066 17.5187 17.1728 17.5187 18.2413V30.8196C17.5187 31.8881 18.3928 32.7543 19.471 32.7543H43.9806C45.0588 32.7543 45.9329 31.8881 45.9329 30.8196V18.2413C45.9329 17.1728 45.0588 16.3066 43.9806 16.3066Z" fill="#E6F6FA"/>
    <path d="M8.56079 17.2191C13.1977 17.2191 16.9567 13.4941 16.9567 8.89908C16.9567 4.30408 13.1977 0.579102 8.56079 0.579102C3.92384 0.579102 0.164856 4.30408 0.164856 8.89908C0.164856 13.4941 3.92384 17.2191 8.56079 17.2191Z" fill="#FCD800"/>
    <path d="M8.39471 12.3872L6.66516 9.31844V8.59524H7.24169C7.47228 8.59524 7.67402 8.56264 7.84698 8.4975C8.02638 8.42585 8.17367 8.32482 8.289 8.19455C8.41069 8.06422 8.49399 7.90787 8.53882 7.72544H6.66516V7.00221H8.5292C8.49074 6.83281 8.42349 6.68295 8.32739 6.55264C8.23773 6.42233 8.11604 6.32134 7.96231 6.24968C7.81495 6.17149 7.63562 6.13239 7.4242 6.13239H6.66516V5.40918H10.9986V6.13239H9.49003C9.59892 6.25619 9.68858 6.38975 9.75908 6.53309C9.83595 6.67644 9.88721 6.83281 9.91281 7.00221H10.9986V7.72544H9.93204C9.86798 8.20759 9.6854 8.58549 9.38431 8.85914C9.0833 9.12626 8.69573 9.30869 8.22175 9.40643L10.105 12.3872H8.39471Z" fill="#262626"/>
    <path d="M42.6962 56.1521L64.7856 34.123L86.8748 56.1521V85.346H42.6962V56.1521Z" fill="#CCEDFA"/>
    <path d="M24.0862 56.7646H42.6783V85.3468H24.0862V56.7646Z" fill="#00A6CA"/>
    <path d="M38.3784 57.0869H27.9598V73.0742H38.3784V57.0869Z" fill="#004364" stroke="#99DBEA" stroke-width="0.9"/>
    <path d="M33.1913 72.9816V58.5752" stroke="#99DBEA" stroke-width="0.9"/>
    <path d="M28.1047 65.7783H38.3575" stroke="#99DBEA" stroke-width="0.9"/>
    <path d="M36.2444 58.4425H18.7491L47.0876 30.7514C47.4529 30.3945 47.9453 30.1943 48.4583 30.1943H64.6785L36.2444 58.4425Z" fill="#FF7171"/>
    <path d="M38.7038 60.8438L36.2784 58.4404H18.7435L21.1689 60.8438H38.7038Z" fill="#B11030"/>
    <path d="M90.582 60.8325L93.0781 58.3589L64.6343 30.1719L36.1904 58.3589L38.6866 60.8325L64.6343 35.1195L90.582 60.8325Z" fill="#B11030"/>
    <path d="M86.8734 57.1611V60.8179H90.5943L86.8734 57.1611Z" fill="#FF7171"/>
    <path d="M75.4321 55.0234H56.9538V85.3456H75.4321V55.0234Z" fill="#004364"/>
    <path d="M75.4401 85.3456V55.0234H56.9538V85.3456" stroke="#00A6CA" stroke-width="0.9"/>
    <path d="M62.8159 56.6041L75.0959 55.4287V85.3496H62.8159V56.6041Z" fill="#99DBEA"/>
    <path opacity="0.2" d="M75.0952 88.3446C80.9882 88.3446 85.7655 87.8285 85.7655 87.1919C85.7655 86.5552 80.9882 86.0391 75.0952 86.0391C69.2021 86.0391 64.4249 86.5552 64.4249 87.1919C64.4249 87.8285 69.2021 88.3446 75.0952 88.3446Z" fill="black"/>
    <path fill-rule="evenodd" clip-rule="evenodd" d="M71.93 57.6069C71.6597 58.594 71.3074 60.8127 71.6669 61.1607H73.9411C73.9411 61.1567 73.9418 61.1528 73.9418 61.1488C74.7849 61.0563 75.44 60.3482 75.44 59.4882V57.8563C75.44 56.9336 74.6852 56.1855 73.7546 56.1855H73.5976C72.7516 56.1855 72.0516 56.8025 71.93 57.6069Z" fill="#262626"/>
    <path fill-rule="evenodd" clip-rule="evenodd" d="M74.5572 59.1763C74.9187 58.756 75.1631 58.2409 75.1219 57.6637C75.0047 56.0007 72.6685 56.3665 72.2139 57.2059C71.7595 58.0453 71.8135 60.1743 72.4009 60.3244C72.6352 60.3842 73.1341 60.2377 73.6417 59.9343L73.3229 62.1689H75.205L74.5572 59.1763Z" fill="#B28B67"/>
    <path fill-rule="evenodd" clip-rule="evenodd" d="M74.0488 58.8961C73.9621 59.8191 73.9968 60.8732 74.2549 61.1234H76.529C76.6562 58.9418 75.4314 59.7866 75.4314 57.7326C75.3547 57.6587 75.2831 57.5855 75.2115 57.5224L75.2137 57.462C74.8204 56.6631 74.3207 56.2637 73.7155 56.2637C72.8073 56.2637 72.5202 56.6823 72.2764 57.0379C72.4588 57.6584 73.1674 57.7504 73.7965 58.1372C73.871 58.0775 73.965 58.0417 74.0684 58.0417C74.3062 58.0417 74.4993 58.2331 74.4993 58.4691C74.4993 58.7051 74.3062 58.8965 74.0684 58.8965C74.0618 58.8965 74.0553 58.8964 74.0488 58.8961Z" fill="#262626"/>
    <path fill-rule="evenodd" clip-rule="evenodd" d="M78.2326 76.2409C76.3511 76.7618 74.7278 77.0226 73.3634 77.0226C71.9981 77.0226 70.7304 76.6214 69.5597 75.8181C71.4006 75.2829 72.9165 75.0156 74.1081 75.0156C75.299 75.0156 76.6743 75.424 78.2326 76.2409Z" fill="#47447C"/>
    <path fill-rule="evenodd" clip-rule="evenodd" d="M71.7356 77.7751C71.7537 77.7486 71.769 77.7185 71.7812 77.687C72.0326 77.0278 76.0604 69.9189 76.4617 68.6191H71.927C71.6219 69.6073 70.2487 75.8089 70.0554 77.0464C69.4457 78.9975 68.1903 85.3188 68.0301 85.7566C67.8615 86.2173 68.8101 86.6974 69.0629 86.1306C69.4651 85.2299 70.4235 82.7364 70.8502 81.2138C71.2502 79.7864 71.576 78.5024 71.7356 77.7751Z" fill="#B28B67"/>
    <path fill-rule="evenodd" clip-rule="evenodd" d="M75.4451 78.6435C77.2861 79.1043 84.0223 79.9383 84.4843 80.0687C84.9594 80.2034 85.3766 79.2325 84.7887 79.0219C83.8538 78.6873 81.2767 77.9134 79.7149 77.5981C78.4582 77.3445 77.3114 77.1374 76.5413 77.0156C76.6064 74.8724 76.905 69.7299 76.7091 68.6191H72.6967C72.8847 69.6843 74.4683 77.4562 74.7625 78.2344C74.8565 78.5117 75.1349 78.6342 75.4451 78.6435Z" fill="#B28B67"/>
    <path fill-rule="evenodd" clip-rule="evenodd" d="M84.7461 78.764C84.9919 78.7188 85.172 78.7059 85.2862 78.726C85.4258 78.7503 85.6246 78.8084 85.8842 78.9015C85.8553 79.0613 85.5993 80.5001 85.1156 83.2179C84.7215 83.2645 84.5313 83.1642 84.5443 82.9177C84.5574 82.6705 84.566 82.4656 84.5711 82.3015L84.0252 80.1376C84.0151 80.096 84.0404 80.0537 84.0823 80.043L84.0845 80.0423L84.4229 79.9684C84.5682 79.7635 84.6535 79.5908 84.6781 79.4511C84.6984 79.3372 84.6803 79.1724 84.6232 78.956C84.6007 78.8729 84.6514 78.7876 84.7352 78.7661C84.7388 78.7654 84.7425 78.7647 84.7461 78.764Z" fill="#004364"/>
    <path fill-rule="evenodd" clip-rule="evenodd" d="M69.3494 86.0576C69.4372 86.2898 69.481 86.4632 69.481 86.5785C69.481 86.7183 69.4575 86.9232 69.4104 87.1919C69.2463 87.1919 67.772 87.1919 64.9874 87.1919C64.8724 86.815 64.9388 86.6122 65.1864 86.5821C65.4341 86.552 65.6398 86.5248 65.8035 86.5004L67.8593 85.5926C67.8989 85.5754 67.9452 85.5926 67.9629 85.632L67.9637 85.6342L68.0959 85.9516C68.3251 86.0576 68.5115 86.1106 68.6548 86.1106C68.7712 86.1106 68.932 86.0641 69.1372 85.9709C69.216 85.9351 69.3091 85.9695 69.3452 86.0469C69.3467 86.0505 69.3481 86.054 69.3494 86.0576Z" fill="#004364"/>
    <path fill-rule="evenodd" clip-rule="evenodd" d="M76.6975 68.6191C74.9289 68.1178 73.2564 68.1178 71.6784 68.6191C71.1295 71.101 69.7956 72.0861 69.561 75.8914C72.2273 77.2041 75.5211 74.9549 78.2659 76.2353C79.0497 74.4447 77.9521 70.1317 76.6975 68.6191Z" fill="#5F5BA9"/>
    <path fill-rule="evenodd" clip-rule="evenodd" d="M78.8154 66.2441L77.0988 66.2505C78.9817 70.4495 79.9629 72.6482 80.0439 72.846C80.2254 73.2917 79.8414 73.9703 79.6773 74.335C80.2117 74.5721 80.1553 73.6937 80.8299 74.0054C81.4452 74.2891 81.9138 74.8036 82.6253 74.3686C82.7128 74.3149 82.809 74.1136 82.5768 73.9559C81.9998 73.564 81.1683 72.8775 81.0562 72.6518C80.9029 72.3437 80.156 70.2081 78.8154 66.2441Z" fill="#B28B67"/>
    <path d="M65.5616 69.1275L68.5159 68.1182L68.6453 69.5934L65.9536 69.8344C65.0352 70.4126 64.5561 70.6237 64.5166 70.4678C64.4573 70.2339 64.7712 70.1407 64.7568 69.9765C64.7424 69.8123 64.2839 69.6865 63.844 69.5857C63.4039 69.4848 63.5878 69.3337 63.7204 69.2721C64.2397 69.1476 64.8534 69.0994 65.5616 69.1275Z" fill="#B28B67"/>
    <path fill-rule="evenodd" clip-rule="evenodd" d="M74.1125 60.8477L72.7683 60.9364C72.4371 63.905 70.611 68.0198 66.7118 68.593L68.6615 71.8249C70.8949 70.9467 72.7336 67.7643 73.4118 63.7101C73.5875 62.6606 74.1356 61.7583 74.1125 60.8477Z" fill="#FFC700"/>
    <path fill-rule="evenodd" clip-rule="evenodd" d="M74.7763 60.4602L72.7387 60.9225C72.7387 64.3946 71.6229 66.6097 71.0504 69.1625H76.5522C76.6295 70.0446 76.6773 70.9511 76.7018 71.8823H80.8212C79.8877 66.9605 77.9173 63.1527 74.9108 60.459H74.777L74.7763 60.4602Z" fill="#FCD800"/>
    <path fill-rule="evenodd" clip-rule="evenodd" d="M75.683 64.209C75.8255 66.3725 75.7416 68.0236 75.4329 69.1622H76.5515C76.3982 67.4149 76.127 65.7638 75.683 64.209Z" fill="#FFC700"/>
    <path d="M64.109 70.9648C64.5439 70.9648 64.8964 70.6155 64.8964 70.1845C64.8964 69.7536 64.5439 69.4043 64.109 69.4043C63.6742 69.4043 63.3217 69.7536 63.3217 70.1845C63.3217 70.6155 63.6742 70.9648 64.109 70.9648Z" fill="#00A6CA"/>
  </g>
  <defs>
    <clipPath id="clip0_175_4025">
      <rect width="94" height="91" fill="white" transform="translate(0 0.5)"/>
    </clipPath>
  </defs>
</svg>