<svg xmlns="http://www.w3.org/2000/svg" width="97" height="92" viewBox="0 0 97 92" fill="none">
  <path opacity="0.2" d="M13.0231 86.6907C18.8417 86.6907 23.5587 86.1013 23.5587 85.3742C23.5587 84.6471 18.8417 84.0576 13.0231 84.0576C7.20448 84.0576 2.48755 84.6471 2.48755 85.3742C2.48755 86.1013 7.20448 86.6907 13.0231 86.6907Z" fill="#004364"/>
  <path opacity="0.2" d="M80.3131 87.4907C86.4476 87.4907 91.4205 86.7322 91.4205 85.7966C91.4205 84.861 86.4476 84.1025 80.3131 84.1025C74.1787 84.1025 69.2058 84.861 69.2058 85.7966C69.2058 86.7322 74.1787 87.4907 80.3131 87.4907Z" fill="#004364"/>
  <path opacity="0.2" d="M86.3407 87.4908C91.8774 87.4908 96.3657 87.1016 96.3657 86.6214C96.3657 86.1412 91.8774 85.752 86.3407 85.752C80.804 85.752 76.3157 86.1412 76.3157 86.6214C76.3157 87.1016 80.804 87.4908 86.3407 87.4908Z" fill="#004364"/>
  <path opacity="0.2" d="M65.7035 85.7524C71.8379 85.7524 76.8109 84.9939 76.8109 84.0583C76.8109 83.1227 71.8379 82.3643 65.7035 82.3643C59.5691 82.3643 54.5962 83.1227 54.5962 84.0583C54.5962 84.9939 59.5691 85.7524 65.7035 85.7524Z" fill="#004364"/>
  <path opacity="0.2" d="M38.4182 84.4829C52.5612 84.4829 64.0264 83.7244 64.0264 82.7888C64.0264 81.8532 52.5612 81.0947 38.4182 81.0947C24.2752 81.0947 12.81 81.8532 12.81 82.7888C12.81 83.7244 24.2752 84.4829 38.4182 84.4829Z" fill="#004364"/>
  <path d="M61.5673 9.88574H14.4999C13.0174 9.88574 11.8156 11.0931 11.8156 12.5825V80.0929C11.8156 81.5823 13.0174 82.7896 14.4999 82.7896H61.5673C63.0498 82.7896 64.2516 81.5823 64.2516 80.0929V12.5825C64.2516 11.0931 63.0498 9.88574 61.5673 9.88574Z" fill="#004364"/>
  <path d="M61.9112 12.2373H14.157V77.6154H61.9112V12.2373Z" fill="white"/>
  <path d="M48.2761 7.53516H27.7817C27.7526 7.53516 27.729 7.53916 27.729 7.54411V13.6407C27.729 13.6456 27.7526 13.6496 27.7817 13.6496H48.2761C48.3052 13.6496 48.3288 13.6456 48.3288 13.6407V7.54411C48.3288 7.53916 48.3052 7.53516 48.2761 7.53516Z" fill="#005F8D"/>
  <path d="M38.2631 13.1788C40.7195 13.1788 42.7108 11.1782 42.7108 8.71047C42.7108 6.24271 40.7195 4.24219 38.2631 4.24219C35.8067 4.24219 33.8154 6.24271 33.8154 8.71047C33.8154 11.1782 35.8067 13.1788 38.2631 13.1788Z" fill="#005F8D"/>
  <path d="M51.6098 39.9883H24.4555C23.9384 39.9883 23.5191 40.4094 23.5191 40.929V40.929C23.5191 41.4485 23.9384 41.8697 24.4555 41.8697H51.6098C52.127 41.8697 52.5462 41.4485 52.5462 40.929C52.5462 40.4094 52.127 39.9883 51.6098 39.9883Z" fill="#E6F6FA"/>
  <path d="M51.6098 45.6328H24.4555C23.9384 45.6328 23.5191 46.054 23.5191 46.5735V46.5735C23.5191 47.093 23.9384 47.5142 24.4555 47.5142H51.6098C52.127 47.5142 52.5462 47.093 52.5462 46.5735C52.5462 46.054 52.127 45.6328 51.6098 45.6328Z" fill="#E6F6FA"/>
  <path d="M51.6098 51.2773H24.4555C23.9384 51.2773 23.5191 51.6985 23.5191 52.218V52.218C23.5191 52.7376 23.9384 53.1587 24.4555 53.1587H51.6098C52.127 53.1587 52.5462 52.7376 52.5462 52.218C52.5462 51.6985 52.127 51.2773 51.6098 51.2773Z" fill="#E6F6FA"/>
  <path d="M40.0912 56.9209H24.4555C23.9384 56.9209 23.5191 57.3421 23.5191 57.8616V57.8616C23.5191 58.3811 23.9384 58.8023 24.4555 58.8023H40.0912C40.6083 58.8023 41.0275 58.3811 41.0275 57.8616C41.0275 57.3421 40.6083 56.9209 40.0912 56.9209Z" fill="#E6F6FA"/>
  <path d="M50.5332 18.4854H25.2585C24.1466 18.4854 23.2453 19.3909 23.2453 20.5079V33.6579C23.2453 34.7749 24.1466 35.6804 25.2585 35.6804H50.5332C51.645 35.6804 52.5464 34.7749 52.5464 33.6579V20.5079C52.5464 19.3909 51.645 18.4854 50.5332 18.4854Z" fill="#E6F6FA"/>
  <path d="M73.2729 80.7266H55.8908C55.5232 80.7266 55.2252 81.0259 55.2252 81.3952V83.7424C55.2252 84.1117 55.5232 84.411 55.8908 84.411H73.2729C73.6404 84.411 73.9384 84.1117 73.9384 83.7424V81.3952C73.9384 81.0259 73.6404 80.7266 73.2729 80.7266Z" fill="#FFC700"/>
  <path d="M56.3369 81.0225H72.8263" stroke="#B28B67" stroke-width="0.933116" stroke-linecap="round"/>
  <path d="M74.9278 77.042H57.5457C57.1781 77.042 56.8802 77.3413 56.8802 77.7106V80.0579C56.8802 80.4271 57.1781 80.7265 57.5457 80.7265H74.9278C75.2953 80.7265 75.5933 80.4271 75.5933 80.0579V77.7106C75.5933 77.3413 75.2953 77.042 74.9278 77.042Z" fill="#FFC700"/>
  <path d="M57.9918 77.3389H74.481" stroke="#B28B67" stroke-width="0.933116" stroke-linecap="round"/>
  <path fill-rule="evenodd" clip-rule="evenodd" d="M85.4413 37.7822L81.3873 37.7975C85.8329 47.8483 88.1509 53.1107 88.3413 53.5848C88.77 54.6515 87.8635 56.276 87.4755 57.149C88.7386 57.7167 88.6038 55.6144 90.1964 56.3589C91.6507 57.0385 92.757 58.2698 94.4366 57.2285C94.6428 57.1005 94.8696 56.6184 94.3225 56.2418C92.9602 55.3033 90.9967 53.6609 90.7321 53.1202C90.3698 52.383 88.6066 47.2704 85.4413 37.7822Z" fill="#D6A97F"/>
  <path d="M67.958 45.079L72.817 42.1621L75.9325 44.3662L69.3564 46.6187C67.4067 48.6356 66.3363 49.4599 66.145 49.0916C65.8582 48.5391 66.5864 48.1124 66.453 47.708C66.3195 47.3036 65.1005 47.2673 63.942 47.2824C62.7836 47.2975 63.153 46.8048 63.4474 46.5687C64.67 45.9378 66.1735 45.4413 67.958 45.079Z" fill="#B28B67"/>
  <path fill-rule="evenodd" clip-rule="evenodd" d="M83.6183 28.8291L80.4437 29.0416C79.662 36.1473 74.4247 42.0763 68.528 44.4195L74.5987 49.2988C75.3469 49.2988 79.3139 49.0271 82.8259 34.5215C83.241 32.0094 83.6725 31.0087 83.6183 28.8291Z" fill="#67D995"/>
  <path fill-rule="evenodd" clip-rule="evenodd" d="M63.6345 51.6479C62.201 50.7831 59.7958 51.8942 59.7974 53.131C59.8024 56.8315 63.164 74.2719 63.3395 75.3747C63.515 76.4774 65.3953 76.7683 65.5047 75.3782C65.6789 73.1663 66.0027 65.5092 65.6788 61.965C65.5451 60.502 65.4011 59.1087 65.2594 57.8657C67.0234 61.0659 69.7514 65.6478 73.4433 71.6114L75.4482 70.6915C73.8741 65.4817 72.5831 61.8038 71.576 59.6577C69.8513 55.983 68.2341 52.8361 67.5534 51.7276C66.4828 49.984 64.6192 50.5923 63.6345 51.6479Z" fill="#B28B67"/>
  <path fill-rule="evenodd" clip-rule="evenodd" d="M75.3041 67.797L68.4244 51.4247C66.7764 48.7614 62.1556 51.9667 62.7176 53.5114C63.9936 57.0184 70.483 68.372 70.8631 69.4169L75.3041 67.797Z" fill="#47447C"/>
  <path fill-rule="evenodd" clip-rule="evenodd" d="M75.6871 69.6579C76.1158 70.0123 76.3946 70.3017 76.523 70.5263C76.6799 70.7993 76.8639 71.2241 77.0743 71.8004C76.7591 71.9833 73.9254 73.627 68.5733 76.7311C67.9307 76.1256 67.8306 75.6555 68.273 75.3209C68.7153 74.9863 69.0803 74.704 69.3681 74.4747L72.3021 70.4132C72.3584 70.335 72.4676 70.3176 72.5453 70.3743C72.5467 70.3753 72.5482 70.3763 72.5496 70.3773L73.1587 70.849C73.7186 70.7999 74.1358 70.6955 74.4111 70.5357C74.6351 70.4059 74.8918 70.1358 75.1821 69.7254C75.2934 69.5679 75.5102 69.5309 75.6671 69.6427C75.6743 69.6475 75.6807 69.6526 75.6871 69.6579Z" fill="#262626"/>
  <path fill-rule="evenodd" clip-rule="evenodd" d="M65.9452 74.489C66.1399 75.0114 66.2372 75.4019 66.2372 75.6613C66.2372 75.9766 66.1849 76.4366 66.0803 77.0413C65.7163 77.0413 62.4442 77.0413 56.264 77.0413C56.0089 76.1944 56.1562 75.7372 56.7058 75.6692C57.2554 75.6018 57.7119 75.5409 58.0755 75.4865L62.638 73.4429C62.7258 73.4035 62.8287 73.4436 62.8678 73.5317C62.8685 73.5332 62.8691 73.5346 62.8698 73.536L63.1631 74.2511C63.6718 74.489 64.0853 74.6087 64.4034 74.6087C64.6618 74.6087 65.0187 74.5034 65.4741 74.2941C65.6489 74.2132 65.8555 74.2906 65.9356 74.4661C65.939 74.474 65.9422 74.4812 65.9452 74.489Z" fill="#262626"/>
  <path fill-rule="evenodd" clip-rule="evenodd" d="M59.315 54.3878C59.315 59.0329 61.5108 69.8682 61.5123 70.891L66.2367 70.8946C65.5453 61.2264 65.3 56.3403 65.5011 56.2361C65.8028 56.0799 77.8668 57.4462 81.485 57.4462C86.703 57.4462 88.8613 54.1408 89.036 48.0176H78.7005C76.5965 48.2438 65.6191 50.4681 61.5424 51.2327C59.7972 51.5601 59.315 53.1081 59.315 54.3878Z" fill="#5F5BA9"/>
  <path d="M90.078 67.833H72.6959C72.3283 67.833 72.0303 68.1324 72.0303 68.5016V70.8489C72.0303 71.2181 72.3283 71.5175 72.6959 71.5175H90.078C90.4455 71.5175 90.7435 71.2181 90.7435 70.8489V68.5016C90.7435 68.1324 90.4455 67.833 90.078 67.833Z" fill="#FBD801"/>
  <path d="M73.1423 68.1289H89.6316" stroke="#B28B67" stroke-width="0.933116" stroke-linecap="round"/>
  <path d="M91.9588 60.5977H74.5767C74.2091 60.5977 73.9111 60.897 73.9111 61.2663V63.6135C73.9111 63.9828 74.2091 64.2821 74.5767 64.2821H91.9588C92.3263 64.2821 92.6243 63.9828 92.6243 63.6135V61.2663C92.6243 60.897 92.3263 60.5977 91.9588 60.5977Z" fill="#FBD801"/>
  <path d="M75.0224 60.8936H91.5117" stroke="#B28B67" stroke-width="0.933116" stroke-linecap="round"/>
  <path d="M89.6087 64.1484H72.2266C71.859 64.1484 71.561 64.4478 71.561 64.817V67.1643C71.561 67.5336 71.859 67.8329 72.2266 67.8329H89.6087C89.9762 67.8329 90.2742 67.5336 90.2742 67.1643V64.817C90.2742 64.4478 89.9762 64.1484 89.6087 64.1484Z" fill="#FBD801"/>
  <path d="M72.673 64.4443H89.1623" stroke="#B28B67" stroke-width="0.933116" stroke-linecap="round"/>
  <path opacity="0.2" d="M72.0128 76.8672H66.2372V84.4104H72.0128V76.8672Z" fill="#004364"/>
  <path d="M89.3132 56.9131H71.9311C71.5635 56.9131 71.2655 57.2124 71.2655 57.5817V59.9289C71.2655 60.2982 71.5635 60.5976 71.9311 60.5976H89.3132C89.6807 60.5976 89.9787 60.2982 89.9787 59.9289V57.5817C89.9787 57.2124 89.6807 56.9131 89.3132 56.9131Z" fill="#FBD801"/>
  <path d="M72.377 57.209H88.8663" stroke="#B28B67" stroke-width="0.933116" stroke-linecap="round"/>
  <path d="M87.0209 78.6055H69.6388C69.2712 78.6055 68.9733 78.9048 68.9733 79.2741V81.6213C68.9733 81.9906 69.2712 82.2899 69.6388 82.2899H87.0209C87.3885 82.2899 87.6864 81.9906 87.6864 81.6213V79.2741C87.6864 78.9048 87.3885 78.6055 87.0209 78.6055Z" fill="#FBD801"/>
  <path d="M70.0849 78.9023H86.5739" stroke="#B28B67" stroke-width="0.933116" stroke-linecap="round"/>
  <path d="M89.0051 82.29H71.623C71.2555 82.29 70.9575 82.5894 70.9575 82.9586V85.3059C70.9575 85.6752 71.2555 85.9745 71.623 85.9745H89.0051C89.3727 85.9745 89.6707 85.6752 89.6707 85.3059V82.9586C89.6707 82.5894 89.3727 82.29 89.0051 82.29Z" fill="#FBD801"/>
  <path d="M72.0689 82.5859H88.5581" stroke="#B28B67" stroke-width="0.933116" stroke-linecap="round"/>
  <path d="M89.0533 74.9199H71.6712C71.3037 74.9199 71.0057 75.2193 71.0057 75.5885V77.9358C71.0057 78.305 71.3037 78.6044 71.6712 78.6044H89.0533C89.4209 78.6044 89.7189 78.305 89.7189 77.9358V75.5885C89.7189 75.2193 89.4209 74.9199 89.0533 74.9199Z" fill="#FBD801"/>
  <path d="M72.1174 75.2168H88.6067" stroke="#B28B67" stroke-width="0.933116" stroke-linecap="round"/>
  <path d="M87.0209 71.2354H69.6388C69.2712 71.2354 68.9733 71.5347 68.9733 71.904V74.2512C68.9733 74.6205 69.2712 74.9198 69.6388 74.9198H87.0209C87.3885 74.9198 87.6864 74.6205 87.6864 74.2512V71.904C87.6864 71.5347 87.3885 71.2354 87.0209 71.2354Z" fill="#FBD801"/>
  <path d="M70.0849 71.5322H86.5739" stroke="#B28B67" stroke-width="0.933116" stroke-linecap="round"/>
  <path d="M62.2653 50.0505L63.3606 49.2626L55.9908 39.8209L53.606 38.5605L62.2653 50.0505Z" fill="#CCEDFA"/>
  <path d="M53.9483 38.8003L62.2838 50.0117C62.4811 50.277 62.4269 50.6529 62.1628 50.8511C61.8986 51.0493 61.5245 50.9949 61.3272 50.7295L52.9916 39.5182C52.7943 39.2528 52.8485 38.8769 53.1127 38.6787C53.3768 38.4805 53.7509 38.5349 53.9483 38.8003Z" fill="#595959"/>
  <path d="M61.8782 50.0442L77.2494 46.9348C77.5726 46.8694 77.8874 47.0797 77.9525 47.4044L77.9525 47.4044C78.0176 47.7291 77.8083 48.0454 77.4851 48.1108L62.1139 51.2202C61.7907 51.2856 61.4759 51.0753 61.4108 50.7506C61.3457 50.4259 61.555 50.1096 61.8782 50.0442Z" fill="#595959"/>
  <path fill-rule="evenodd" clip-rule="evenodd" d="M83.5484 24.6045C84.3579 23.6505 84.905 22.4812 84.8137 21.171C84.5498 17.396 79.3196 18.2264 78.3018 20.1318C77.284 22.037 77.4053 26.87 78.7205 27.2106C79.2447 27.3463 80.3617 27.0137 81.4993 26.3251L80.7853 31.3976H84.9991L83.5484 24.6045Z" fill="#D6A97F"/>
  <path fill-rule="evenodd" clip-rule="evenodd" d="M82.0862 24.339C82.609 25.3467 83.3316 26.1056 84.0534 26.1056C85.4249 26.1056 86.4006 24.2635 86.4006 22.2829C86.4006 22.2133 86.3992 22.1443 86.3963 22.0756C87.8471 23.0758 88.9647 25.0472 90.8847 25.0472C93.4966 25.0472 94.5336 19.7552 90.8847 19.7552C88.4034 19.7552 87.1823 20.1187 86.1303 20.6562C85.9235 20.0685 85.6068 19.5746 85.2202 19.2295C85.1268 19.1243 84.9841 19.0236 84.8001 18.9302C84.6874 18.8684 84.5712 18.818 84.4513 18.7801C83.8173 18.5459 82.8979 18.3807 81.8716 18.3447C81.6797 18.338 81.4921 18.336 81.3081 18.3385C81.3053 17.3668 80.52 16.5801 79.5521 16.5801C78.5828 16.5801 77.7961 17.3698 77.7961 18.344C77.7961 19.2862 78.5315 20.0558 79.4573 20.1055C79.9865 20.2696 80.6669 20.3901 81.4215 20.4409C81.348 20.7176 81.3081 21.032 81.3081 21.3872C81.3081 21.7009 81.3423 22.0335 81.4058 22.3713C81.5699 22.1759 81.7888 22.0484 82.0106 22.0484C82.6319 22.0484 83.0641 22.5618 83.0641 23.1068C83.0641 23.7985 82.6668 24.299 82.0862 24.339Z" fill="#262626"/>
  <path fill-rule="evenodd" clip-rule="evenodd" d="M84.8508 27.6388L80.0414 28.7454C80.0414 37.0561 77.406 42.3585 76.0544 48.4688H84.0854C83.8465 50.9232 83.8758 51.5 83.589 53.663L92.6243 53.4051C91.9788 48.4688 92.2684 34.0836 85.1681 27.6357H84.8536L84.8508 27.6388Z" fill="#C1EDD3"/>
  <path fill-rule="evenodd" clip-rule="evenodd" d="M85.1967 36.0977C85.5312 41.2764 83.2353 47.393 81.649 48.4952H84.0904C84.9977 43.067 85.5226 41.1481 85.1967 36.0977Z" fill="#67D995"/>
  <path d="M15.9514 55.9229C13.2088 55.9149 8.39357 57.2727 8.5263 57.9621C9.57989 59.4164 13.0626 60.57 15.9514 55.9229Z" fill="#B11030"/>
  <path d="M2.0752 78.6948C0.693527 73.1087 7.23313 66.7151 9.99478 62.5021L8.50804 57.9568C13.0266 59.4949 12.4234 54.9863 17.0007 56.0957L15.9202 62.5021C18.5795 66.7836 24.0033 73.6031 23.9215 77.2202C23.8192 81.7415 18.5072 86.0701 12.9839 85.8645C7.46065 85.6588 3.15706 83.0692 2.0752 78.6948Z" fill="#FF7171"/>
  <path d="M11.8553 79.8259L9.41093 75.7668V74.8102H10.163C10.4639 74.8102 10.7271 74.7672 10.9527 74.6812C11.1867 74.5866 11.3789 74.4526 11.5293 74.2807C11.6881 74.108 11.7968 73.9016 11.8553 73.6602H9.41093V72.7036H11.8427C11.7926 72.4793 11.7048 72.2815 11.5794 72.109C11.4625 71.9367 11.3037 71.8031 11.1031 71.7083C10.9109 71.6049 10.6769 71.5532 10.4012 71.5532H9.41093V70.5967H15.0642V71.5532H13.0962C13.2383 71.7169 13.3553 71.8936 13.4472 72.0832C13.5475 72.2729 13.6143 72.4793 13.6478 72.7036H15.0642V73.6602H13.6728C13.5892 74.2979 13.3511 74.7973 12.9583 75.1599C12.5656 75.5131 11.7215 75.7539 11.1031 75.8836L13.6478 79.8259H11.8553Z" fill="#F8D0D8"/>
  <path d="M13.501 63.0009C13.9221 63.0009 14.8258 62.7533 15.1649 62.6191" stroke="#005F8D" stroke-width="0.5184"/>
  <path fill-rule="evenodd" clip-rule="evenodd" d="M13.3145 62.1075C13.3912 61.7999 13.7291 61.6401 14.0139 61.7768L20.7531 65.0121C20.7693 65.0199 20.7882 65.02 20.8046 65.0123C20.8348 64.9982 20.8708 65.0115 20.8848 65.0419L25.7891 75.656C25.9051 75.9075 25.7965 76.2056 25.5465 76.3224L17.1032 80.2598C16.8531 80.3766 16.5563 80.2669 16.4402 80.0162L11.5119 69.3495L11.5108 69.349L11.5097 69.3481L13.3145 62.1075ZM14.3441 63.4504C14.6 63.3311 14.7111 63.026 14.5924 62.7689C14.4736 62.5119 14.1699 62.4002 13.914 62.5196C13.6582 62.6389 13.547 62.944 13.6658 63.201C13.7846 63.4581 14.0883 63.5697 14.3441 63.4504Z" fill="#005F8D"/>
  <path d="M16.0403 61.8008C16.7716 61.9294 15.7729 62.315 15.388 62.517M9.78366 62.4361C9.72054 63.4055 11.5954 63.3678 13.4532 63.0074" stroke="#005F8D" stroke-width="0.5184"/>
  <path fill-rule="evenodd" clip-rule="evenodd" d="M13.5451 62.0261C13.6207 61.713 13.9664 61.5517 14.2533 61.6958L20.9123 65.04C20.9127 65.0402 20.9132 65.0402 20.9136 65.04C20.9144 65.0396 20.9154 65.04 20.9158 65.0408C20.916 65.0412 20.9166 65.0421 20.9171 65.0423L20.927 65.0474C20.9301 65.0489 20.93 65.0534 20.9268 65.0549C20.9248 65.0558 20.9239 65.0583 20.9248 65.0604L25.8448 75.7087C25.9608 75.9602 25.8523 76.2583 25.6022 76.3751L17.3716 80.2128C17.1215 80.3296 16.8247 80.2207 16.7087 79.9692L11.7875 69.3182C11.7872 69.3175 11.7864 69.3173 11.7859 69.3176C11.7849 69.3181 11.7839 69.3172 11.7841 69.3162L11.7847 69.3136C11.7849 69.313 11.7849 69.3125 11.7846 69.312L11.7821 69.3067C11.7804 69.3029 11.7821 69.2983 11.7859 69.2966C11.788 69.2955 11.7896 69.2936 11.7901 69.2913L13.5451 62.0261ZM14.6108 63.4043C14.8667 63.285 14.9779 62.9798 14.8591 62.7228C14.7404 62.4657 14.4367 62.354 14.1808 62.4733C13.9249 62.5927 13.8137 62.8978 13.9326 63.1548C14.0513 63.4119 14.355 63.5236 14.6108 63.4043Z" fill="#CCEDFA"/>
  <path d="M16.3454 69.674C16.5864 69.9882 16.7016 70.336 16.706 70.6348C16.7104 70.9335 16.6066 71.1605 16.4366 71.292C16.2666 71.4236 16.0217 71.4665 15.7353 71.3861C15.4489 71.3056 15.1436 71.105 14.9026 70.7908C14.6616 70.4765 14.5464 70.1288 14.542 69.83C14.5377 69.5313 14.6414 69.3043 14.8114 69.1728C14.9814 69.0412 15.2263 68.9983 15.5127 69.0787C15.7991 69.1592 16.1044 69.3598 16.3454 69.674Z" stroke="#005F8D" stroke-width="0.933128"/>
  <path d="M21.6925 70.9007C21.9336 71.2149 22.0487 71.5626 22.0532 71.8614C22.0575 72.1603 21.9537 72.3868 21.7838 72.5186C21.6138 72.6505 21.3689 72.6934 21.0825 72.6125C20.7961 72.5322 20.4907 72.3316 20.2497 72.0173C20.0088 71.7031 19.8936 71.3553 19.8892 71.0566C19.8848 70.7579 19.9886 70.5309 20.1586 70.3993C20.3286 70.2678 20.5735 70.2248 20.8598 70.3053C21.1463 70.3858 21.4516 70.5864 21.6925 70.9007Z" stroke="#005F8D" stroke-width="0.933128"/>
  <path d="M16.7863 67.0635L20.2617 75.1191" stroke="#005F8D" stroke-width="0.933128"/>
  <path opacity="0.2" d="M84.4528 86.6219C90.0921 86.6219 94.6637 82.0291 94.6637 76.3637C94.6637 70.6982 90.0921 66.1055 84.4528 66.1055C78.8134 66.1055 74.2418 70.6982 74.2418 76.3637C74.2418 82.0291 78.8134 86.6219 84.4528 86.6219Z" fill="#004364"/>
  <path d="M86.3414 86.9424C92.0223 86.9424 96.6277 82.3157 96.6277 76.6078C96.6277 70.9003 92.0223 66.2734 86.3414 66.2734C80.6598 66.2734 76.0544 70.9003 76.0544 76.6078C76.0544 82.3157 80.6598 86.9424 86.3414 86.9424Z" fill="#FBD801"/>
  <path d="M86.1681 84.8932C90.7991 84.8932 94.5536 81.1845 94.5536 76.6087C94.5536 72.0334 90.7991 68.3242 86.1681 68.3242C81.5371 68.3242 77.7833 72.0334 77.7833 76.6087C77.7833 81.1845 81.5371 84.8932 86.1681 84.8932Z" fill="#505050"/>
  <path d="M86.2544 84.21C90.4561 84.21 93.8618 80.8444 93.8618 76.6935C93.8618 72.5427 90.4561 69.1777 86.2544 69.1777C82.0534 69.1777 78.6477 72.5427 78.6477 76.6935C78.6477 80.8444 82.0534 84.21 86.2544 84.21Z" fill="#FFEDA0"/>
  <path d="M81.3402 82.3306L93.6178 75.4454C93.2199 73.2234 92.2035 71.7055 90.578 70.5088L78.6477 77.1314C78.6477 77.6451 79.0279 80.3293 81.3402 82.3306Z" fill="#FFEDA0"/>
  <path d="M88.8491 73.0723H86.748C86.9477 73.2328 87.1131 73.432 87.2351 73.6591C87.3578 73.8863 87.4341 74.1356 87.4598 74.3929H88.8491V75.0413H87.4726C87.3464 76.3641 86.3143 77.2067 84.686 77.2583C85.6781 78.3073 86.7608 79.6307 87.8299 80.9642H86.6074C85.6153 79.7461 84.686 78.619 83.4963 77.3221V76.5224H84.1974C85.5718 76.5224 86.3093 75.9392 86.3935 75.0449H83.4892V74.3964H86.3528C86.1702 73.6513 85.5005 73.2787 84.3936 73.2787H83.4892V72.4238H88.8491V73.0723Z" fill="#BD9803"/>
</svg>