<svg xmlns="http://www.w3.org/2000/svg" width="96" height="60" viewBox="0 0 96 90" fill="none">
  <path opacity="0.2" d="M12.8889 85.2438C18.6475 85.2438 23.3158 84.6609 23.3158 83.9417C23.3158 83.2226 18.6475 82.6396 12.8889 82.6396C7.13021 82.6396 2.46191 83.2226 2.46191 83.9417C2.46191 84.6609 7.13021 85.2438 12.8889 85.2438Z" fill="#004364"/>
  <path opacity="0.2" d="M79.4852 86.035C85.5563 86.035 90.478 85.2849 90.478 84.3595C90.478 83.4342 85.5563 82.6841 79.4852 82.6841C73.414 82.6841 68.4923 83.4342 68.4923 84.3595C68.4923 85.2849 73.414 86.035 79.4852 86.035Z" fill="#004364"/>
  <path opacity="0.2" d="M85.4506 86.0352C90.9302 86.0352 95.3723 85.6502 95.3723 85.1753C95.3723 84.7004 90.9302 84.3154 85.4506 84.3154C79.971 84.3154 75.5289 84.7004 75.5289 85.1753C75.5289 85.6502 79.971 86.0352 85.4506 86.0352Z" fill="#004364"/>
  <path opacity="0.2" d="M65.0262 84.3153C71.0974 84.3153 76.019 83.5651 76.019 82.6398C76.019 81.7145 71.0974 80.9644 65.0262 80.9644C58.955 80.9644 54.0333 81.7145 54.0333 82.6398C54.0333 83.5651 58.955 84.3153 65.0262 84.3153Z" fill="#004364"/>
  <path opacity="0.2" d="M38.0221 83.0604C52.0194 83.0604 63.3663 82.3103 63.3663 81.3849C63.3663 80.4596 52.0194 79.7095 38.0221 79.7095C24.0249 79.7095 12.6779 80.4596 12.6779 81.3849C12.6779 82.3103 24.0249 83.0604 38.0221 83.0604Z" fill="#004364"/>
  <path d="M60.9325 9.28271H14.3504C12.8832 9.28271 11.6938 10.4768 11.6938 11.9498V78.7184C11.6938 80.1914 12.8832 81.3855 14.3504 81.3855H60.9325C62.3998 81.3855 63.5892 80.1914 63.5892 78.7184V11.9498C63.5892 10.4768 62.3998 9.28271 60.9325 9.28271Z" fill="#004364"/>
  <path d="M61.273 11.6084H14.011V76.2681H61.273V11.6084Z" fill="white"/>
  <path d="M47.7784 6.95752H27.4952C27.4664 6.95752 27.4431 6.96148 27.4431 6.96637V12.996C27.4431 13.0008 27.4664 13.0048 27.4952 13.0048H47.7784C47.8072 13.0048 47.8306 13.0008 47.8306 12.996V6.96637C47.8306 6.96148 47.8072 6.95752 47.7784 6.95752Z" fill="#005F8D"/>
  <path d="M37.8687 12.5395C40.2998 12.5395 42.2706 10.561 42.2706 8.12036C42.2706 5.67971 40.2998 3.70117 37.8687 3.70117C35.4376 3.70117 33.4669 5.67971 33.4669 8.12036C33.4669 10.561 35.4376 12.5395 37.8687 12.5395Z" fill="#005F8D"/>
  <path d="M51.0778 39.0547H24.2034C23.6916 39.0547 23.2767 39.4712 23.2767 39.985V39.985C23.2767 40.4989 23.6916 40.9154 24.2034 40.9154H51.0778C51.5896 40.9154 52.0045 40.4989 52.0045 39.985C52.0045 39.4712 51.5896 39.0547 51.0778 39.0547Z" fill="#E6F6FA"/>
  <path d="M51.0778 44.6367H24.2034C23.6916 44.6367 23.2767 45.0533 23.2767 45.5671V45.5671C23.2767 46.0809 23.6916 46.4974 24.2034 46.4974H51.0778C51.5896 46.4974 52.0045 46.0809 52.0045 45.5671C52.0045 45.0533 51.5896 44.6367 51.0778 44.6367Z" fill="#E6F6FA"/>
  <path d="M51.0778 50.2192H24.2034C23.6916 50.2192 23.2767 50.6358 23.2767 51.1496V51.1496C23.2767 51.6634 23.6916 52.08 24.2034 52.08H51.0778C51.5896 52.08 52.0045 51.6634 52.0045 51.1496C52.0045 50.6358 51.5896 50.2192 51.0778 50.2192Z" fill="#E6F6FA"/>
  <path d="M39.6778 55.8013H24.2034C23.6916 55.8013 23.2767 56.2178 23.2767 56.7316V56.7316C23.2767 57.2454 23.6916 57.662 24.2034 57.662H39.6778C40.1896 57.662 40.6045 57.2454 40.6045 56.7316C40.6045 56.2178 40.1896 55.8013 39.6778 55.8013Z" fill="#E6F6FA"/>
  <path d="M50.0122 17.7881H24.9981C23.8977 17.7881 23.0056 18.6837 23.0056 19.7884V32.7939C23.0056 33.8986 23.8977 34.7942 24.9981 34.7942H50.0122C51.1126 34.7942 52.0047 33.8986 52.0047 32.7939V19.7884C52.0047 18.6837 51.1126 17.7881 50.0122 17.7881Z" fill="#E6F6FA"/>
  <path d="M72.5175 79.3447H55.3146C54.9508 79.3447 54.6559 79.6408 54.6559 80.006V82.3274C54.6559 82.6927 54.9508 82.9887 55.3146 82.9887H72.5175C72.8812 82.9887 73.1761 82.6927 73.1761 82.3274V80.006C73.1761 79.6408 72.8812 79.3447 72.5175 79.3447Z" fill="#FFC700"/>
  <path d="M55.7561 79.6382H72.0755" stroke="#B28B67" stroke-width="0.933116" stroke-linecap="round"/>
  <path d="M74.1553 75.7012H56.9524C56.5887 75.7012 56.2938 75.9972 56.2938 76.3624V78.6839C56.2938 79.0491 56.5887 79.3452 56.9524 79.3452H74.1553C74.5191 79.3452 74.814 79.0491 74.814 78.6839V76.3624C74.814 75.9972 74.5191 75.7012 74.1553 75.7012Z" fill="#FFC700"/>
  <path d="M57.394 75.9941H73.7132" stroke="#B28B67" stroke-width="0.933116" stroke-linecap="round"/>
  <path fill-rule="evenodd" clip-rule="evenodd" d="M84.5605 36.8721L80.5482 36.8872C84.948 46.8275 87.2421 52.0321 87.4306 52.501C87.8548 53.5559 86.9576 55.1626 86.5736 56.026C87.8237 56.5875 87.6903 54.5082 89.2666 55.2446C90.7059 55.9167 91.8007 57.1345 93.463 56.1046C93.667 55.978 93.8915 55.5013 93.3501 55.1287C92.0019 54.2006 90.0586 52.5762 89.7967 52.0415C89.4381 51.3124 87.6932 46.256 84.5605 36.8721Z" fill="#D6A97F"/>
  <path d="M67.2574 44.0894L72.0664 41.2046L75.1496 43.3845L68.6413 45.6122C66.7118 47.6069 65.6524 48.4222 65.4631 48.0579C65.1792 47.5115 65.8999 47.0895 65.7679 46.6895C65.6358 46.2896 64.4293 46.2537 63.2829 46.2686C62.1364 46.2836 62.5019 45.7962 62.7933 45.5627C64.0033 44.9388 65.4913 44.4477 67.2574 44.0894Z" fill="#B28B67"/>
  <path fill-rule="evenodd" clip-rule="evenodd" d="M82.7562 28.0181L79.6144 28.2282C78.8407 35.2558 73.6574 41.1197 67.8215 43.4371L73.8297 48.2628C74.5701 48.2628 78.4962 47.9941 81.972 33.648C82.3828 31.1634 82.8099 30.1737 82.7562 28.0181Z" fill="#67D995"/>
  <path fill-rule="evenodd" clip-rule="evenodd" d="M62.9785 50.5854C61.5597 49.7301 59.1793 50.829 59.181 52.0522C59.1858 55.7121 62.5128 72.9608 62.6865 74.0515C62.8602 75.1421 64.7211 75.4298 64.8294 74.055C65.0018 71.8674 65.3222 64.2944 65.0017 60.7891C64.8694 59.3422 64.7269 57.9643 64.5866 56.7349C66.3324 59.8999 69.0323 64.4315 72.6861 70.3296L74.6704 69.4197C73.1125 64.2673 71.8348 60.6297 70.8381 58.5072C69.1312 54.8729 67.5306 51.7606 66.857 50.6643C65.7974 48.9398 63.953 49.5415 62.9785 50.5854Z" fill="#B28B67"/>
  <path fill-rule="evenodd" clip-rule="evenodd" d="M74.5277 66.557L67.719 50.3647C66.0879 47.7306 61.5148 50.9007 62.071 52.4284C63.3339 55.8968 69.7563 67.1257 70.1326 68.1591L74.5277 66.557Z" fill="#47447C"/>
  <path fill-rule="evenodd" clip-rule="evenodd" d="M74.9068 68.3977C75.331 68.7483 75.607 69.0345 75.7341 69.2566C75.8894 69.5266 76.0715 69.9467 76.2798 70.5167C75.9678 70.6976 73.1633 72.3233 67.8663 75.3932C67.2303 74.7944 67.1313 74.3295 67.5691 73.9985C68.0069 73.6676 68.3681 73.3884 68.6529 73.1616L71.5567 69.1447C71.6125 69.0674 71.7205 69.0502 71.7974 69.1063C71.7988 69.1073 71.8002 69.1083 71.8016 69.1093L72.4045 69.5757C72.9586 69.5272 73.3715 69.4239 73.644 69.2659C73.8656 69.1375 74.1198 68.8704 74.407 68.4645C74.5172 68.3088 74.7317 68.2721 74.887 68.3827C74.8941 68.3875 74.9005 68.3925 74.9068 68.3977Z" fill="#262626"/>
  <path fill-rule="evenodd" clip-rule="evenodd" d="M65.2653 73.1766C65.458 73.6932 65.5544 74.0794 65.5544 74.336C65.5544 74.6478 65.5025 75.1027 65.3991 75.7008C65.0388 75.7008 61.8004 75.7008 55.6839 75.7008C55.4315 74.8632 55.5772 74.4111 56.1212 74.3438C56.6651 74.2771 57.1169 74.2169 57.4767 74.1631L61.9922 72.142C62.0791 72.103 62.1809 72.1427 62.2197 72.2298C62.2203 72.2312 62.221 72.2327 62.2216 72.2341L62.5119 72.9413C63.0154 73.1766 63.4246 73.2949 63.7394 73.2949C63.9952 73.2949 64.3484 73.1908 64.7991 72.9838C64.9721 72.9038 65.1766 72.9803 65.2558 73.1539C65.2592 73.1617 65.2624 73.1688 65.2653 73.1766Z" fill="#262626"/>
  <path fill-rule="evenodd" clip-rule="evenodd" d="M58.7035 53.2958C58.7035 57.8899 60.8767 68.6061 60.8781 69.6176L65.5539 69.6213C64.8695 60.0593 64.6268 55.2268 64.8258 55.1238C65.1244 54.9693 77.064 56.3206 80.6449 56.3206C85.8092 56.3206 87.9452 53.0515 88.1181 46.9956H77.8892C75.8068 47.2193 64.9426 49.4192 60.908 50.1754C59.1807 50.4992 58.7035 52.0302 58.7035 53.2958Z" fill="#5F5BA9"/>
  <path d="M89.1493 66.5928H71.9465C71.5827 66.5928 71.2878 66.8888 71.2878 67.254V69.5755C71.2878 69.9407 71.5827 70.2368 71.9465 70.2368H89.1493C89.5131 70.2368 89.808 69.9407 89.808 69.5755V67.254C89.808 66.8888 89.5131 66.5928 89.1493 66.5928Z" fill="#FBD801"/>
  <path d="M72.3882 66.8857H88.7075" stroke="#B28B67" stroke-width="0.933116" stroke-linecap="round"/>
  <path d="M91.0107 59.437H73.8078C73.4441 59.437 73.1492 59.7331 73.1492 60.0983V62.4197C73.1492 62.7849 73.4441 63.081 73.8078 63.081H91.0107C91.3745 63.081 91.6694 62.7849 91.6694 62.4197V60.0983C91.6694 59.7331 91.3745 59.437 91.0107 59.437Z" fill="#FBD801"/>
  <path d="M74.249 59.73H90.5683" stroke="#B28B67" stroke-width="0.933116" stroke-linecap="round"/>
  <path d="M88.6849 62.9487H71.482C71.1182 62.9487 70.8233 63.2448 70.8233 63.61V65.9314C70.8233 66.2967 71.1182 66.5927 71.482 66.5927H88.6849C89.0486 66.5927 89.3435 66.2967 89.3435 65.9314V63.61C89.3435 63.2448 89.0486 62.9487 88.6849 62.9487Z" fill="#FBD801"/>
  <path d="M71.9238 63.2417H88.2431" stroke="#B28B67" stroke-width="0.933116" stroke-linecap="round"/>
  <path opacity="0.2" d="M71.2704 75.5278H65.5544V82.9881H71.2704V75.5278Z" fill="#004364"/>
  <path d="M88.3925 55.7925H71.1896C70.8258 55.7925 70.5309 56.0885 70.5309 56.4537V58.7752C70.5309 59.1404 70.8258 59.4365 71.1896 59.4365H88.3925C88.7562 59.4365 89.0511 59.1404 89.0511 58.7752V56.4537C89.0511 56.0885 88.7562 55.7925 88.3925 55.7925Z" fill="#FBD801"/>
  <path d="M71.6308 56.0859H87.9501" stroke="#B28B67" stroke-width="0.933116" stroke-linecap="round"/>
  <path d="M86.1238 77.2471H68.9209C68.5571 77.2471 68.2622 77.5431 68.2622 77.9083V80.2298C68.2622 80.595 68.5571 80.891 68.9209 80.891H86.1238C86.4875 80.891 86.7824 80.595 86.7824 80.2298V77.9083C86.7824 77.5431 86.4875 77.2471 86.1238 77.2471Z" fill="#FBD801"/>
  <path d="M69.3624 77.5405H85.6814" stroke="#B28B67" stroke-width="0.933116" stroke-linecap="round"/>
  <path d="M88.0875 80.8906H70.8846C70.5208 80.8906 70.226 81.1867 70.226 81.5519V83.8733C70.226 84.2385 70.5208 84.5346 70.8846 84.5346H88.0875C88.4513 84.5346 88.7462 84.2385 88.7462 83.8733V81.5519C88.7462 81.1867 88.4513 80.8906 88.0875 80.8906Z" fill="#FBD801"/>
  <path d="M71.3259 81.1841H87.6452" stroke="#B28B67" stroke-width="0.933116" stroke-linecap="round"/>
  <path d="M88.1352 73.6021H70.9324C70.5686 73.6021 70.2737 73.8981 70.2737 74.2633V76.5848C70.2737 76.95 70.5686 77.246 70.9324 77.246H88.1352C88.499 77.246 88.7939 76.95 88.7939 76.5848V74.2633C88.7939 73.8981 88.499 73.6021 88.1352 73.6021Z" fill="#FBD801"/>
  <path d="M71.3739 73.8955H87.6932" stroke="#B28B67" stroke-width="0.933116" stroke-linecap="round"/>
  <path d="M86.1238 69.958H68.9209C68.5571 69.958 68.2622 70.2541 68.2622 70.6193V72.9407C68.2622 73.3059 68.5571 73.602 68.9209 73.602H86.1238C86.4875 73.602 86.7824 73.3059 86.7824 72.9407V70.6193C86.7824 70.2541 86.4875 69.958 86.1238 69.958Z" fill="#FBD801"/>
  <path d="M69.3624 70.2515H85.6814" stroke="#B28B67" stroke-width="0.933116" stroke-linecap="round"/>
  <path d="M61.6234 49.0058L62.7074 48.2266L55.4136 38.8886L53.0534 37.6421L61.6234 49.0058Z" fill="#CCEDFA"/>
  <path d="M53.3921 37.8795L61.6417 48.9676C61.837 49.2301 61.7834 49.6018 61.5219 49.7979C61.2605 49.9939 60.8902 49.94 60.6949 49.6776L52.4453 38.5894C52.25 38.327 52.3036 37.9553 52.5651 37.7592C52.8265 37.5632 53.1968 37.617 53.3921 37.8795Z" fill="#595959"/>
  <path d="M61.2403 48.9995L76.453 45.9242C76.7729 45.8596 77.0844 46.0675 77.1489 46.3886L77.1489 46.3886C77.2133 46.7098 77.0062 47.0226 76.6863 47.0873L61.4736 50.1625C61.1537 50.2272 60.8421 50.0193 60.7777 49.6981C60.7133 49.3769 60.9204 49.0641 61.2403 48.9995Z" fill="#595959"/>
  <path fill-rule="evenodd" clip-rule="evenodd" d="M82.6871 23.8394C83.4883 22.8958 84.0297 21.7394 83.9393 20.4436C83.6782 16.7101 78.5019 17.5314 77.4946 19.4158C76.4873 21.3001 76.6073 26.08 77.909 26.4168C78.4278 26.5511 79.5332 26.2221 80.6591 25.5411L79.9525 30.5579H84.1229L82.6871 23.8394Z" fill="#D6A97F"/>
  <path fill-rule="evenodd" clip-rule="evenodd" d="M81.24 23.5775C81.7574 24.5741 82.4725 25.3246 83.1868 25.3246C84.5443 25.3246 85.5099 23.5028 85.5099 21.544C85.5099 21.4752 85.5085 21.4068 85.5057 21.339C86.9414 22.3281 88.0476 24.2778 89.9478 24.2778C92.5327 24.2778 93.5591 19.044 89.9478 19.044C87.492 19.044 86.2836 19.4035 85.2424 19.9351C85.0377 19.3539 84.7243 18.8654 84.3417 18.5242C84.2492 18.4201 84.108 18.3205 83.9259 18.2281C83.8144 18.167 83.6993 18.1172 83.5807 18.0797C82.9532 17.848 82.0433 17.6846 81.0276 17.649C80.8377 17.6424 80.652 17.6405 80.4699 17.6429C80.4671 16.6819 79.6899 15.9038 78.732 15.9038C77.7727 15.9038 76.9941 16.6849 76.9941 17.6484C76.9941 18.5802 77.7219 19.3414 78.6381 19.3905C79.1619 19.5528 79.8353 19.672 80.5821 19.7222C80.5094 19.9959 80.4699 20.3068 80.4699 20.6581C80.4699 20.9683 80.5038 21.2973 80.5666 21.6314C80.729 21.4382 80.9457 21.312 81.1652 21.312C81.78 21.312 82.2078 21.8198 82.2078 22.3588C82.2078 23.0429 81.8146 23.5379 81.24 23.5775Z" fill="#262626"/>
  <path fill-rule="evenodd" clip-rule="evenodd" d="M83.976 26.8409L79.2163 27.9353C79.2163 36.1547 76.608 41.3988 75.2704 47.442H83.2186C82.9821 49.8695 83.0111 50.4399 82.7273 52.5791L91.6694 52.324C91.0306 47.442 91.3172 33.2149 84.2901 26.8379H83.9789L83.976 26.8409Z" fill="#C1EDD3"/>
  <path fill-rule="evenodd" clip-rule="evenodd" d="M84.3184 35.207C84.6494 40.3289 82.3772 46.3782 80.8073 47.4684H83.2236C84.1214 42.0998 84.641 40.202 84.3184 35.207Z" fill="#67D995"/>
  <path d="M15.787 54.814C13.0726 54.8061 8.30703 56.149 8.43839 56.8308C9.48112 58.2692 12.9279 59.4101 15.787 54.814Z" fill="#B11030"/>
  <path d="M2.05382 77.3356C0.686387 71.8109 7.15857 65.4876 9.89175 61.3209L8.42034 56.8255C12.8923 58.3468 12.2954 53.8876 16.8254 54.9849L15.7561 61.3209C18.388 65.5553 23.7558 72.2999 23.6749 75.8772C23.5737 80.3488 18.3165 84.6299 12.8501 84.4265C7.38375 84.2231 3.12452 81.662 2.05382 77.3356Z" fill="#FF7171"/>
  <path d="M11.733 78.4545L9.3139 74.4399V73.4939H10.0583C10.356 73.4939 10.6165 73.4514 10.8398 73.3663C11.0714 73.2728 11.2616 73.1403 11.4104 72.9702C11.5676 72.7994 11.6752 72.5953 11.733 72.3565H9.3139V71.4104H11.7206C11.671 71.1886 11.5842 70.993 11.4601 70.8224C11.3443 70.6519 11.1872 70.5198 10.9887 70.4261C10.7984 70.3238 10.5668 70.2727 10.294 70.2727H9.3139V69.3267H14.9089V70.2727H12.9612C13.1018 70.4346 13.2176 70.6093 13.3086 70.7968C13.4078 70.9845 13.474 71.1886 13.5071 71.4104H14.9089V72.3565H13.5318C13.4491 72.9872 13.2134 73.4811 12.8247 73.8397C12.436 74.1891 11.6007 74.4272 10.9887 74.5554L13.5071 78.4545H11.733Z" fill="#F8D0D8"/>
  <path d="M13.3618 61.8136C13.7786 61.8136 14.673 61.5687 15.0086 61.436" stroke="#005F8D" stroke-width="0.5184"/>
  <path fill-rule="evenodd" clip-rule="evenodd" d="M13.1773 60.9305C13.2531 60.6262 13.5876 60.4682 13.8695 60.6034L20.5391 63.8031C20.5552 63.8108 20.5739 63.811 20.5901 63.8034C20.62 63.7894 20.6556 63.8025 20.6695 63.8326L25.5232 74.3301C25.6381 74.5789 25.5306 74.8737 25.2831 74.9892L16.9268 78.8833C16.6794 78.9988 16.3856 78.8904 16.2707 78.6423L11.3932 68.0928L11.3922 68.0924L11.391 68.0915L13.1773 60.9305ZM14.1962 62.2586C14.4495 62.1407 14.5595 61.8388 14.4419 61.5846C14.3244 61.3304 14.0238 61.22 13.7706 61.338C13.5174 61.456 13.4073 61.7578 13.5249 62.012C13.6424 62.2662 13.943 62.3766 14.1962 62.2586Z" fill="#005F8D"/>
  <path d="M15.875 60.627C16.5987 60.7542 15.6103 61.1355 15.2293 61.3353M9.68281 61.2552C9.62034 62.214 11.4758 62.1767 13.3145 61.8203" stroke="#005F8D" stroke-width="0.5184"/>
  <path fill-rule="evenodd" clip-rule="evenodd" d="M13.4054 60.8495C13.4803 60.5398 13.8224 60.3804 14.1063 60.5228L20.6967 63.8303C20.6971 63.8305 20.6976 63.8305 20.698 63.8303C20.6988 63.8299 20.6998 63.8303 20.7001 63.8311C20.7003 63.8315 20.7009 63.8324 20.7014 63.8326L20.7112 63.8376C20.7143 63.8391 20.7142 63.8435 20.7111 63.845C20.709 63.8459 20.7082 63.8484 20.7091 63.8505L25.5783 74.3817C25.6932 74.6305 25.5858 74.9253 25.3383 75.0408L17.1925 78.8364C16.945 78.9519 16.6513 78.8442 16.5364 78.5954L11.666 68.0615C11.6657 68.0608 11.6649 68.0606 11.6643 68.0609C11.6634 68.0613 11.6624 68.0605 11.6626 68.0595L11.6632 68.0569C11.6634 68.0564 11.6634 68.0558 11.6631 68.0553L11.6607 68.0501C11.6589 68.0463 11.6606 68.0419 11.6644 68.0401C11.6665 68.0391 11.668 68.0372 11.6686 68.0349L13.4054 60.8495ZM14.4602 62.2125C14.7135 62.0946 14.8234 61.7927 14.7059 61.5385C14.5884 61.2843 14.2878 61.1739 14.0346 61.2919C13.7814 61.4099 13.6713 61.7117 13.7889 61.9659C13.9064 62.2201 14.207 62.3305 14.4602 62.2125Z" fill="#CCEDFA"/>
  <path d="M16.1769 68.4141C16.4154 68.7249 16.5294 69.0689 16.5337 69.3644C16.5381 69.6597 16.4354 69.8842 16.2671 70.0143C16.0989 70.1445 15.8565 70.1869 15.5731 70.1073C15.2896 70.0277 14.9874 69.8293 14.749 69.5186C14.5105 69.2077 14.3965 68.8638 14.3921 68.5683C14.3878 68.273 14.4905 68.0485 14.6587 67.9183C14.8269 67.7882 15.0693 67.7458 15.3527 67.8254C15.6362 67.9049 15.9384 68.1034 16.1769 68.4141Z" stroke="#005F8D" stroke-width="0.933128"/>
  <path d="M21.4689 69.6276C21.7074 69.9383 21.8214 70.2822 21.8258 70.5777C21.8301 70.8734 21.7274 71.0973 21.5592 71.2277C21.391 71.3581 21.1486 71.4006 20.8652 71.3206C20.5817 71.2412 20.2795 71.0428 20.041 70.7319C19.8025 70.4212 19.6885 70.0772 19.6842 69.7818C19.6798 69.4863 19.7825 69.2618 19.9508 69.1317C20.119 69.0016 20.3614 68.9592 20.6448 69.0387C20.9283 69.1183 21.2305 69.3168 21.4689 69.6276Z" stroke="#005F8D" stroke-width="0.933128"/>
  <path d="M16.6133 65.832L20.0528 73.7991" stroke="#005F8D" stroke-width="0.933128"/>
  <path opacity="0.2" d="M83.5821 85.1752C89.1634 85.1752 93.6878 80.633 93.6878 75.0298C93.6878 69.4266 89.1634 64.8843 83.5821 64.8843C78.0009 64.8843 73.4764 69.4266 73.4764 75.0298C73.4764 80.633 78.0009 85.1752 83.5821 85.1752Z" fill="#004364"/>
  <path d="M85.4513 85.4931C91.0737 85.4931 95.6316 80.9173 95.6316 75.2721C95.6316 69.6273 91.0737 65.0513 85.4513 65.0513C79.8283 65.0513 75.2704 69.6273 75.2704 75.2721C75.2704 80.9173 79.8283 85.4931 85.4513 85.4931Z" fill="#FBD801"/>
  <path d="M85.2798 83.4656C89.8631 83.4656 93.5789 79.7975 93.5789 75.272C93.5789 70.7471 89.8631 67.0786 85.2798 67.0786C80.6965 67.0786 76.9814 70.7471 76.9814 75.272C76.9814 79.7975 80.6965 83.4656 85.2798 83.4656Z" fill="#505050"/>
  <path d="M85.3651 82.7899C89.5235 82.7899 92.8941 79.4613 92.8941 75.3561C92.8941 71.2508 89.5235 67.9229 85.3651 67.9229C81.2075 67.9229 77.8369 71.2508 77.8369 75.3561C77.8369 79.4613 81.2075 82.7899 85.3651 82.7899Z" fill="#FFEDA0"/>
  <path d="M80.5016 80.9311L92.6527 74.1216C92.2588 71.924 91.2529 70.4228 89.6442 69.2393L77.8369 75.7891C77.8369 76.2972 78.2132 78.9518 80.5016 80.9311Z" fill="#FFEDA0"/>
  <path d="M87.9332 71.7746H85.8537C86.0513 71.9334 86.2151 72.1304 86.3358 72.355C86.4572 72.5797 86.5327 72.8263 86.5581 73.0807H87.9332V73.722H86.5708C86.4459 75.0302 85.4245 75.8636 83.813 75.9146C84.7948 76.9521 85.8664 78.261 86.9245 79.5798H85.7146C84.7327 78.3751 83.813 77.2604 82.6355 75.9777V75.1868H83.3294C84.6897 75.1868 85.4195 74.61 85.5028 73.7256H82.6285V73.0842H85.4626C85.2819 72.3472 84.6191 71.9787 83.5235 71.9787H82.6285V71.1333H87.9332V71.7746Z" fill="#BD9803"/>
</svg>