<svg xmlns="http://www.w3.org/2000/svg" width="111" height="107" viewBox="0 0 111 107" fill="none">
  <path d="M93.4225 54.5114C94.3387 54.5114 95.0858 53.7708 95.0474 52.8584C94.8424 47.9668 93.7282 43.1554 91.7609 38.6687C91.3938 37.8318 90.3965 37.4919 89.5725 37.892C88.7477 38.292 88.4096 39.2804 88.7733 40.1187C90.5228 44.1522 91.5235 48.469 91.7242 52.8585C91.766 53.7707 92.5055 54.5114 93.4225 54.5114Z" fill="#008A00"/>
  <path d="M89.0586 36.8819C89.8697 36.4576 90.1856 35.456 89.7263 34.6659C87.8871 31.5044 85.6167 28.6115 82.9811 26.07C82.3223 25.4348 81.2702 25.4979 80.6606 26.18C80.0508 26.862 80.1147 27.9044 80.771 28.5421C83.1113 30.8159 85.1336 33.3932 86.7831 36.2044C87.2459 36.9928 88.2466 37.3063 89.0586 36.8819Z" fill="#8CCF54"/>
  <path d="M81.2611 23.6702C81.7162 23.1747 81.6748 22.4024 81.1558 21.9738C78.2331 19.5606 74.6124 17.1904 71.1397 15.6888C70.5271 15.4239 69.8279 15.7401 69.594 16.3631L67.8206 21.0871C67.5889 21.7042 67.9021 22.3897 68.5121 22.6445C71.4435 23.8689 73.825 25.3369 76.2739 27.3607C76.778 27.7773 77.5243 27.7384 77.9664 27.257L81.2611 23.6702Z" fill="#FCD800"/>
  <path d="M67.7622 18.6534C68.0614 17.7903 67.6022 16.8455 66.7238 16.5838C63.4537 15.6097 60.0711 15.0591 56.6598 14.9457C55.7433 14.9153 55.006 15.6653 55.0137 16.5785C55.0215 17.4915 55.7713 18.2217 56.6875 18.2556C59.7208 18.368 62.7281 18.8574 65.6394 19.7127C66.5189 19.971 67.4631 19.5167 67.7622 18.6534Z" fill="#FF871F"/>
  <path d="M17.2446 54.5124C16.3278 54.5124 15.5808 53.7717 15.6191 52.8593C16.0257 43.1634 19.9975 33.931 26.8106 26.9399C33.6238 19.9489 42.771 15.7195 52.4898 15.0256C53.4043 14.9603 54.1702 15.6818 54.1975 16.5945C54.2248 17.5072 53.5034 18.2653 52.5892 18.3341C43.7338 19.0002 35.4049 22.8691 29.1932 29.2431C22.9815 35.617 19.3469 44.0239 18.9426 52.8594C18.9008 53.7717 18.1615 54.5124 17.2446 54.5124Z" fill="#E15825"/>
  <path opacity="0.8" fill-rule="evenodd" clip-rule="evenodd" d="M88.5644 53.2623C89.0237 41.5123 77.8151 22.1191 56.111 22.1191C31.8219 22.1191 22.9388 41.4141 22.4695 53.1729C22.4479 53.7135 22.8901 54.1496 23.4333 54.1496H55.4777H87.6089C88.117 54.1496 88.5439 53.7678 88.5644 53.2623ZM43.6593 54.1477C43.6593 47.6137 48.9778 42.3168 55.5383 42.3168C62.0989 42.3168 67.4173 47.6137 67.4173 54.1477H43.6593Z" fill="#00A6CA"/>
  <path d="M63.5133 54.1169H46.6729C46.6729 51.1444 48.8875 45.8398 55.2545 45.8398C60.9295 45.8398 63.7901 51.1444 63.5133 54.1169Z" fill="#FCD800"/>
  <path d="M65.9893 25.1183L53.7577 50.0985C53.3738 50.8846 53.7351 51.8256 54.5535 52.1711C55.3719 52.5165 56.3195 52.1279 56.6405 51.3151L67.1868 25.6236C67.313 25.3039 67.1583 24.9437 66.8363 24.8078C66.5144 24.6719 66.1403 24.809 65.9893 25.1183Z" fill="#2C2C2C"/>
  <path fill-rule="evenodd" clip-rule="evenodd" d="M29.2905 47.1304L37.5563 76.0195L43.5871 97.3123H47.9857L41.5771 47.1304H29.2905Z" fill="#47447C"/>
  <path fill-rule="evenodd" clip-rule="evenodd" d="M27.0803 47.1304C26.8891 62.0202 26.2372 70.1415 26.0364 71.4943C25.8357 72.8471 22.8004 81.4531 16.9307 97.3123H21.4873C28.96 82.0981 33.1315 73.4922 34.0017 71.4943C34.8719 69.4965 37.5574 61.3751 41.6023 47.1304H27.0803Z" fill="#5F5BA9"/>
  <path fill-rule="evenodd" clip-rule="evenodd" d="M17.5747 101.907L17.8027 97.1387H22.5905C24.8607 98.7281 27.8246 100.015 31.4822 100.999V101.907H22.8185L19.8546 101.453V101.907H17.5747Z" fill="#191847"/>
  <path fill-rule="evenodd" clip-rule="evenodd" d="M44.0215 101.907L44.2495 97.1387H49.0373C51.3075 98.7281 54.2714 100.015 57.9289 100.999V101.907H49.2653L46.3014 101.453V101.907H44.0215Z" fill="#191847"/>
  <path fill-rule="evenodd" clip-rule="evenodd" d="M50.2661 39.8489L58.281 35.7219C59.6339 34.1973 60.9592 33.0198 62.2567 32.1894C62.6507 32.0364 63.3354 31.9545 62.6703 33.0672C62.005 34.18 61.3557 35.3802 61.6724 35.7354C61.9891 36.0907 62.8114 35.6246 63.1853 36.2112C63.4346 36.6022 62.0352 37.1773 58.987 37.9363L53.1126 43.0415L50.2661 39.8489Z" fill="#D6A97F"/>
  <path d="M21.7918 48.5362L18.4851 47.6143C16.4895 54.2387 15.303 57.8683 14.9256 58.5032C14.6489 58.9687 12.7635 60.3033 11.4689 61.0494C10.9494 61.3488 11.1205 61.7958 11.2981 61.9246C12.7429 62.9724 13.8261 61.9465 15.1856 61.4386C16.6749 60.8821 16.4086 62.7543 17.5878 62.3333C17.2979 61.5253 17.0298 60.0483 17.4901 59.1231C17.6947 58.712 19.0471 55.6099 21.7918 48.5362Z" fill="#D6A97F"/>
  <path fill-rule="evenodd" clip-rule="evenodd" d="M34.4211 23.647L36.2339 23.9442C40.5279 28.0927 40.0447 38.3134 42.9064 39.6327C45.4347 40.7982 49.6433 37.8889 53.7122 37.8889C54.0057 37.7815 54.302 37.6739 54.6009 37.567L56.2314 40.2735C56.0515 40.4673 55.8628 40.6622 55.6661 40.8575C55.6661 44.0642 44.6746 48.4027 41.2529 46.3435C35.5341 42.9018 34.2139 30.6092 34.4211 23.647Z" fill="#B11030"/>
  <path fill-rule="evenodd" clip-rule="evenodd" d="M33.7321 19.7519C32.6572 18.4952 31.9297 16.9553 32.0512 15.2297C32.4015 10.2577 39.3507 11.3514 40.7025 13.8609C42.0543 16.3703 41.8937 22.7357 40.1466 23.1841C39.4499 23.3631 37.9657 22.9249 36.4551 22.0181L37.4033 28.6989H31.8047L33.7321 19.7519Z" fill="#D6A97F"/>
  <path fill-rule="evenodd" clip-rule="evenodd" d="M35.4733 17.0512C35.2902 16.926 35.0714 16.8499 34.8365 16.8499C34.1923 16.8499 33.6701 17.4219 33.6701 18.0115C33.6701 18.6248 33.9609 19.0991 34.3762 19.3002C34.1544 19.7321 33.9314 20.0456 33.6701 20.1025C32.6619 20.0009 31.3374 17.5051 31.3374 15.4559C31.3374 13.2128 33.1294 11.2739 36.4694 11.2739C39.4714 11.2739 40.6097 12.5067 40.6683 13.5972C39.3819 13.9493 37.134 14.0849 33.9034 14.0619V14.2942L36.7026 14.5265L37.1692 15.9206C36.4269 15.8654 35.8965 16.3724 35.4733 17.0512Z" fill="#262626"/>
  <path fill-rule="evenodd" clip-rule="evenodd" d="M38.1707 25.7919C37.9796 37.9629 42.3488 45.395 43.6458 52.8996C44.881 62.1881 28.4223 59.6814 26.2701 55.7292C25.3989 54.1294 25.1169 48.4092 26.2701 44.7257C25.1869 45.8613 25.3285 46.0376 24.0388 48.0318C22.39 51.1392 21.0273 50.1684 21.0273 50.9436L17.7452 49.7753C17.9364 48.722 17.3887 48.798 17.7451 46.4452C19.3421 35.9031 24.559 29.1292 31.5436 24.3881L31.6158 23.3589C31.6454 22.9382 32.0118 22.6209 32.4342 22.6503L37.5974 23.01C38.0198 23.0394 38.3383 23.4043 38.3088 23.8251L38.1707 25.7919Z" fill="#FF7171"/>
  <path d="M29.3364 37.9829L26.1867 44.6331C25.0781 48.7486 25.5301 53.3189 25.9921 55.0755L29.3364 37.9829Z" fill="#B11030"/>
  <path d="M90.529 21.2014C87.047 21.2014 84.2251 18.3907 84.2251 14.9234C84.2251 11.4562 87.047 8.64551 90.529 8.64551C94.0101 8.64551 96.8321 11.4562 96.8321 14.9234C96.8321 18.3907 94.0101 21.2014 90.529 21.2014Z" fill="#44BA74"/>
  <path fill-rule="evenodd" clip-rule="evenodd" d="M87.2953 15.2106C87.4754 15.0313 87.7675 15.0313 87.9476 15.2107L89.5691 16.8259C89.7492 17.0054 89.7492 17.2961 89.5691 17.4754C89.3889 17.6547 89.0969 17.6547 88.9167 17.4753L87.2953 15.8601C87.1151 15.6807 87.1151 15.39 87.2953 15.2106Z" fill="#FBE8EC"/>
  <path fill-rule="evenodd" clip-rule="evenodd" d="M94.1041 12.3708C93.924 12.1915 93.632 12.1915 93.4518 12.3708L88.9794 16.8254C88.7992 17.0047 88.7992 17.2955 88.9794 17.4748C89.1595 17.6542 89.4515 17.6541 89.6317 17.4748L94.1041 13.0203C94.2843 12.8409 94.2843 12.5502 94.1041 12.3708Z" fill="#FBE8EC"/>
  <path opacity="0.2" d="M58.2863 101.907C58.2863 103.225 47.8229 104.293 34.9155 104.293C22.0083 104.293 11.5449 103.225 11.5449 101.907C11.5449 100.59 22.0083 99.5215 34.9155 99.5215C47.8229 99.5215 58.2863 100.59 58.2863 101.907Z" fill="black"/>
</svg>