<svg width="360" height="47" viewBox="0 0 360 47" fill="none" xmlns="http://www.w3.org/2000/svg">
<g filter="url(#filter0_b_263_2025)">
<rect width="360" height="47" fill="black" fill-opacity="0.6"/>
</g>
<rect x="124" y="7" width="219" height="33" rx="16.5" fill="black" fill-opacity="0.5"/>
<rect x="123.5" y="6.5" width="220" height="34" rx="17" stroke="white" stroke-opacity="0.25"/>
<path fill-rule="evenodd" clip-rule="evenodd" d="M340 23.5C340 30.9558 333.956 37 326.5 37C319.044 37 313 30.9558 313 23.5C313 16.0442 319.044 10 326.5 10C333.956 10 340 16.0442 340 23.5ZM317.333 23C317.333 22.4477 317.781 22 318.333 22C318.886 22 319.333 22.4477 319.333 23V24.5C319.333 25.0523 318.886 25.5 318.333 25.5C317.781 25.5 317.333 25.0523 317.333 24.5V23ZM321.5 19C320.948 19 320.5 19.4477 320.5 20V27C320.5 27.5523 320.948 28 321.5 28C322.052 28 322.5 27.5523 322.5 27V20C322.5 19.4477 322.052 19 321.5 19ZM323.667 17C323.667 16.4477 324.114 16 324.667 16C325.219 16 325.667 16.4477 325.667 17V30C325.667 30.5523 325.219 31 324.667 31C324.114 31 323.667 30.5523 323.667 30V17ZM328 18.75C327.448 18.75 327 19.1977 327 19.75V27.75C327 28.3023 327.448 28.75 328 28.75C328.552 28.75 329 28.3023 329 27.75V19.75C329 19.1977 328.552 18.75 328 18.75ZM330.33 19C330.33 18.4477 330.778 18 331.33 18C331.882 18 332.33 18.4477 332.33 19V28.5C332.33 29.0523 331.882 29.5 331.33 29.5C330.778 29.5 330.33 29.0523 330.33 28.5V19ZM334.667 22C334.114 22 333.667 22.4477 333.667 23V24.5C333.667 25.0523 334.114 25.5 334.667 25.5C335.219 25.5 335.667 25.0523 335.667 24.5V23C335.667 22.4477 335.219 22 334.667 22Z" fill="white" fill-opacity="0.45"/>
<path d="M138.378 30V21.0518H139.822V30H138.378ZM139.108 19.3252C138.837 19.3252 138.602 19.2284 138.403 19.0347C138.209 18.8354 138.112 18.6003 138.112 18.3291C138.112 18.0524 138.209 17.8172 138.403 17.6235C138.602 17.4299 138.837 17.333 139.108 17.333C139.385 17.333 139.62 17.4299 139.814 17.6235C140.008 17.8172 140.104 18.0524 140.104 18.3291C140.104 18.6003 140.008 18.8354 139.814 19.0347C139.62 19.2284 139.385 19.3252 139.108 19.3252ZM142.728 30V18.022H144.462L148.563 28.0161H148.696L152.796 18.022H154.531V30H153.137V20.8525H152.406L154.083 18.354L149.26 30H147.999L143.184 18.354L144.853 20.8525H144.122V30H142.728ZM161.056 30.1577C160.203 30.1577 159.47 29.9696 158.856 29.5933C158.247 29.217 157.777 28.6857 157.445 27.9995C157.118 27.3078 156.955 26.4943 156.955 25.5591V25.5508C156.955 24.6266 157.118 23.8159 157.445 23.1187C157.777 22.4214 158.244 21.8763 158.848 21.4834C159.451 21.0905 160.156 20.894 160.964 20.894C161.778 20.894 162.475 21.0822 163.056 21.4585C163.643 21.8348 164.091 22.3605 164.401 23.0356C164.716 23.7052 164.874 24.4855 164.874 25.3765V25.9409H157.702V24.7871H164.135L163.421 25.8413V25.2686C163.421 24.5658 163.316 23.9875 163.106 23.5337C162.896 23.0799 162.605 22.7424 162.234 22.521C161.864 22.2941 161.438 22.1807 160.956 22.1807C160.475 22.1807 160.043 22.2996 159.661 22.5376C159.285 22.77 158.986 23.1159 158.765 23.5752C158.543 24.0345 158.433 24.599 158.433 25.2686V25.8413C158.433 26.4777 158.541 27.0228 158.756 27.4766C158.972 27.9248 159.279 28.2707 159.678 28.5142C160.076 28.7521 160.547 28.8711 161.089 28.8711C161.493 28.8711 161.844 28.8158 162.143 28.7051C162.442 28.5944 162.688 28.4533 162.882 28.2817C163.076 28.1102 163.211 27.9359 163.289 27.7588L163.322 27.6841H164.766L164.75 27.7505C164.672 28.0549 164.534 28.3509 164.334 28.6387C164.141 28.9209 163.889 29.1782 163.579 29.4106C163.269 29.6375 162.901 29.8201 162.475 29.9585C162.055 30.0913 161.581 30.1577 161.056 30.1577ZM170.187 30.1577C169.522 30.1577 168.936 30.0581 168.427 29.8589C167.918 29.6541 167.508 29.3691 167.198 29.0039C166.894 28.6387 166.714 28.2098 166.659 27.7173H168.136C168.258 28.0881 168.496 28.3869 168.85 28.6138C169.204 28.8407 169.666 28.9541 170.236 28.9541C170.64 28.9541 170.994 28.896 171.299 28.7798C171.609 28.658 171.852 28.4948 172.029 28.29C172.206 28.0798 172.295 27.839 172.295 27.5679V27.5513C172.295 27.2469 172.173 26.9896 171.93 26.7793C171.686 26.5635 171.288 26.3892 170.734 26.2563L169.348 25.9243C168.513 25.7251 167.898 25.4346 167.505 25.0527C167.112 24.6654 166.916 24.1507 166.916 23.5088V23.5005C166.916 23.0024 167.06 22.557 167.348 22.1641C167.641 21.7712 168.039 21.4613 168.543 21.2344C169.047 21.0075 169.614 20.894 170.245 20.894C170.87 20.894 171.423 20.9937 171.905 21.1929C172.392 21.3866 172.782 21.6632 173.075 22.0229C173.374 22.3826 173.557 22.806 173.623 23.293H172.204C172.11 22.9388 171.894 22.651 171.556 22.4297C171.219 22.2083 170.779 22.0977 170.236 22.0977C169.882 22.0977 169.567 22.1558 169.29 22.272C169.013 22.3826 168.795 22.5376 168.634 22.7368C168.474 22.936 168.394 23.1685 168.394 23.4341V23.4507C168.394 23.755 168.513 24.0068 168.75 24.2061C168.988 24.4053 169.37 24.5685 169.896 24.6958L171.274 25.0278C172.115 25.2326 172.74 25.5259 173.15 25.9077C173.565 26.2896 173.772 26.8014 173.772 27.4434V27.46C173.772 27.9912 173.615 28.4616 173.299 28.8711C172.984 29.2751 172.555 29.5905 172.013 29.8174C171.476 30.0443 170.867 30.1577 170.187 30.1577ZM178.919 30.1577C178.255 30.1577 177.668 30.0581 177.159 29.8589C176.65 29.6541 176.241 29.3691 175.931 29.0039C175.626 28.6387 175.446 28.2098 175.391 27.7173H176.869C176.99 28.0881 177.228 28.3869 177.583 28.6138C177.937 28.8407 178.399 28.9541 178.969 28.9541C179.373 28.9541 179.727 28.896 180.031 28.7798C180.341 28.658 180.585 28.4948 180.762 28.29C180.939 28.0798 181.027 27.839 181.027 27.5679V27.5513C181.027 27.2469 180.906 26.9896 180.662 26.7793C180.419 26.5635 180.02 26.3892 179.467 26.2563L178.081 25.9243C177.245 25.7251 176.631 25.4346 176.238 25.0527C175.845 24.6654 175.648 24.1507 175.648 23.5088V23.5005C175.648 23.0024 175.792 22.557 176.08 22.1641C176.373 21.7712 176.772 21.4613 177.275 21.2344C177.779 21.0075 178.346 20.894 178.977 20.894C179.602 20.894 180.156 20.9937 180.637 21.1929C181.124 21.3866 181.514 21.6632 181.808 22.0229C182.106 22.3826 182.289 22.806 182.355 23.293H180.936C180.842 22.9388 180.626 22.651 180.289 22.4297C179.951 22.2083 179.511 22.0977 178.969 22.0977C178.615 22.0977 178.299 22.1558 178.022 22.272C177.746 22.3826 177.527 22.5376 177.367 22.7368C177.206 22.936 177.126 23.1685 177.126 23.4341V23.4507C177.126 23.755 177.245 24.0068 177.483 24.2061C177.721 24.4053 178.103 24.5685 178.628 24.6958L180.006 25.0278C180.847 25.2326 181.473 25.5259 181.882 25.9077C182.297 26.2896 182.505 26.8014 182.505 27.4434V27.46C182.505 27.9912 182.347 28.4616 182.032 28.8711C181.716 29.2751 181.287 29.5905 180.745 29.8174C180.208 30.0443 179.6 30.1577 178.919 30.1577ZM187.203 30.1577C186.639 30.1577 186.13 30.0498 185.676 29.834C185.228 29.6182 184.871 29.311 184.605 28.9126C184.345 28.5142 184.215 28.0438 184.215 27.5015V27.4849C184.215 26.688 184.497 26.0654 185.062 25.6172C185.632 25.1634 186.437 24.9061 187.477 24.8452L190.764 24.646V25.7998L187.651 25.999C186.971 26.0378 186.473 26.1789 186.157 26.4224C185.847 26.6659 185.692 27.009 185.692 27.4517V27.4683C185.692 27.922 185.864 28.2762 186.207 28.5308C186.55 28.7798 186.982 28.9043 187.502 28.9043C187.994 28.9043 188.432 28.8075 188.813 28.6138C189.195 28.4146 189.494 28.1462 189.71 27.8086C189.931 27.471 190.042 27.0892 190.042 26.6631V23.874C190.042 23.3206 189.873 22.9001 189.536 22.6123C189.204 22.319 188.703 22.1724 188.033 22.1724C187.496 22.1724 187.056 22.2692 186.713 22.4629C186.37 22.651 186.141 22.9194 186.024 23.2681L186.016 23.293H184.572L184.58 23.2432C184.658 22.7728 184.851 22.3633 185.161 22.0146C185.477 21.6605 185.883 21.3866 186.381 21.1929C186.879 20.9937 187.447 20.894 188.083 20.894C188.813 20.894 189.431 21.013 189.934 21.251C190.443 21.4889 190.828 21.832 191.088 22.2803C191.354 22.723 191.486 23.2542 191.486 23.874V30H190.042V28.6802H189.909C189.721 28.9956 189.491 29.264 189.22 29.4854C188.955 29.7067 188.653 29.8755 188.315 29.9917C187.978 30.1024 187.607 30.1577 187.203 30.1577ZM197.812 33.1543C197.092 33.1543 196.464 33.0519 195.927 32.8472C195.39 32.6479 194.962 32.363 194.641 31.9922C194.325 31.627 194.129 31.2008 194.051 30.7139L194.068 30.7056H195.562L195.57 30.7139C195.648 31.0514 195.88 31.3281 196.268 31.5439C196.655 31.7653 197.17 31.876 197.812 31.876C198.614 31.876 199.239 31.6934 199.688 31.3281C200.141 30.9684 200.368 30.4593 200.368 29.8008V27.9912H200.235C200.047 28.3177 199.812 28.5972 199.53 28.8296C199.248 29.062 198.929 29.2391 198.575 29.3608C198.221 29.4771 197.839 29.5352 197.43 29.5352C196.66 29.5352 195.994 29.3525 195.429 28.9873C194.87 28.6165 194.439 28.1074 194.134 27.46C193.83 26.8125 193.678 26.071 193.678 25.2354V25.2188C193.678 24.3831 193.83 23.6416 194.134 22.9941C194.444 22.3411 194.881 21.8293 195.446 21.4585C196.01 21.0822 196.683 20.894 197.463 20.894C197.883 20.894 198.271 20.9604 198.625 21.0933C198.979 21.2261 199.292 21.4142 199.563 21.6577C199.84 21.9012 200.069 22.1917 200.252 22.5293H200.352V21.0518H201.796V29.8755C201.796 30.5396 201.633 31.1178 201.306 31.6104C200.985 32.1029 200.526 32.4819 199.928 32.7476C199.331 33.0187 198.625 33.1543 197.812 33.1543ZM197.745 28.2568C198.299 28.2568 198.772 28.1296 199.165 27.875C199.563 27.6149 199.867 27.258 200.078 26.8042C200.293 26.3504 200.401 25.8275 200.401 25.2354V25.2188C200.401 24.6266 200.293 24.1009 200.078 23.6416C199.867 23.1823 199.563 22.8226 199.165 22.5625C198.772 22.3024 198.299 22.1724 197.745 22.1724C197.192 22.1724 196.721 22.3024 196.334 22.5625C195.952 22.8226 195.659 23.1823 195.454 23.6416C195.255 24.1009 195.155 24.6266 195.155 25.2188V25.2354C195.155 25.8275 195.255 26.3504 195.454 26.8042C195.659 27.258 195.952 27.6149 196.334 27.875C196.721 28.1296 197.192 28.2568 197.745 28.2568ZM208.138 30.1577C207.285 30.1577 206.552 29.9696 205.938 29.5933C205.329 29.217 204.859 28.6857 204.527 27.9995C204.2 27.3078 204.037 26.4943 204.037 25.5591V25.5508C204.037 24.6266 204.2 23.8159 204.527 23.1187C204.859 22.4214 205.326 21.8763 205.93 21.4834C206.533 21.0905 207.238 20.894 208.046 20.894C208.86 20.894 209.557 21.0822 210.138 21.4585C210.725 21.8348 211.173 22.3605 211.483 23.0356C211.798 23.7052 211.956 24.4855 211.956 25.3765V25.9409H204.784V24.7871H211.217L210.503 25.8413V25.2686C210.503 24.5658 210.398 23.9875 210.188 23.5337C209.978 23.0799 209.687 22.7424 209.316 22.521C208.946 22.2941 208.52 22.1807 208.038 22.1807C207.557 22.1807 207.125 22.2996 206.743 22.5376C206.367 22.77 206.068 23.1159 205.847 23.5752C205.625 24.0345 205.515 24.599 205.515 25.2686V25.8413C205.515 26.4777 205.623 27.0228 205.838 27.4766C206.054 27.9248 206.361 28.2707 206.76 28.5142C207.158 28.7521 207.629 28.8711 208.171 28.8711C208.575 28.8711 208.926 28.8158 209.225 28.7051C209.524 28.5944 209.77 28.4533 209.964 28.2817C210.158 28.1102 210.293 27.9359 210.371 27.7588L210.404 27.6841H211.848L211.832 27.7505C211.754 28.0549 211.616 28.3509 211.417 28.6387C211.223 28.9209 210.971 29.1782 210.661 29.4106C210.351 29.6375 209.983 29.8201 209.557 29.9585C209.137 30.0913 208.663 30.1577 208.138 30.1577Z" fill="#EBEBF5" fill-opacity="0.3"/>
<path fill-rule="evenodd" clip-rule="evenodd" d="M82.6049 10C75.6093 10 69.9382 15.6711 69.9382 22.6666C69.9382 29.6622 75.6093 35.3333 82.6049 35.3333H88.6049C95.6005 35.3333 101.272 29.6622 101.272 22.6666C101.272 15.6711 95.6005 10 88.6049 10H82.6049ZM86.0395 24.2813H82.6114L83.5421 22.6692L85.1146 19.9452L86.4833 17.5744L87.4606 15.8815L87.4706 15.8641C87.4996 15.8138 87.5286 15.7636 87.5573 15.7132C87.5843 15.6658 87.6109 15.6183 87.6369 15.5704C87.6935 15.466 87.7473 15.3588 87.7876 15.2465C87.8286 15.1326 87.8537 15.019 87.8599 14.8977C87.8661 14.7785 87.8555 14.6549 87.8244 14.5395C87.7933 14.4241 87.7472 14.3088 87.6819 14.2086C87.6155 14.1065 87.5415 14.0132 87.4469 13.937C87.3586 13.866 87.32 13.8438 87.2866 13.8245L87.2812 13.8214L87.2758 13.8183C87.2425 13.799 87.2041 13.7767 87.0983 13.7357C86.985 13.6919 86.8671 13.6744 86.7456 13.6679C86.6262 13.6615 86.5033 13.6793 86.3878 13.71C86.2723 13.7407 86.16 13.7934 86.0598 13.8583C85.9579 13.9244 85.8721 14.0029 85.7939 14.0953C85.7169 14.1864 85.651 14.2866 85.5888 14.3878C85.5603 14.4343 85.5326 14.4811 85.505 14.5281C85.4755 14.5785 85.4463 14.629 85.4172 14.6795L85.4076 14.696L85.1146 15.2036L84.8216 14.696L84.8121 14.6795C84.7829 14.629 84.7537 14.5785 84.7242 14.5281C84.6967 14.4811 84.6689 14.4343 84.6404 14.3878C84.5783 14.2866 84.5123 14.1864 84.4353 14.0953C84.3571 14.0029 84.2714 13.9244 84.1694 13.8583C84.0692 13.7934 83.957 13.7407 83.8415 13.71C83.726 13.6793 83.6031 13.6615 83.4836 13.6679C83.3621 13.6744 83.2442 13.6919 83.131 13.7357C83.025 13.7768 82.9867 13.799 82.9533 13.8184L82.9481 13.8214L82.9426 13.8245C82.9092 13.8438 82.8707 13.866 82.7824 13.937C82.6878 14.0132 82.6137 14.1065 82.5473 14.2086C82.482 14.3088 82.436 14.4241 82.4048 14.5395C82.3737 14.6549 82.3632 14.7785 82.3693 14.8977C82.3755 15.019 82.4006 15.1326 82.4416 15.2465C82.4819 15.3588 82.5357 15.466 82.5923 15.5704C82.6183 15.6183 82.645 15.6658 82.6719 15.7132C82.7006 15.7636 82.7296 15.8138 82.7586 15.8641L82.7687 15.8815L83.746 17.5744L81.4892 21.4838L79.8742 24.2813H77.2729C77.2152 24.2813 77.1574 24.2814 77.0996 24.2817C77.0453 24.2821 76.991 24.2827 76.9367 24.2841C76.8184 24.2873 76.6992 24.2943 76.5822 24.3154C76.4635 24.3368 76.3531 24.3717 76.2453 24.4268C76.1393 24.4809 76.038 24.5516 75.9539 24.6359C75.8699 24.7202 75.7933 24.8174 75.7394 24.9237C75.6844 25.0318 75.6407 25.1422 75.6222 25.2617C75.6048 25.3736 75.6049 25.4179 75.6049 25.4563L75.605 25.4623L75.6049 25.4684C75.6049 25.5068 75.6048 25.551 75.6222 25.6628C75.6407 25.7824 75.6844 25.8928 75.7394 26.0009C75.7933 26.1072 75.8699 26.2044 75.9539 26.2887C76.038 26.373 76.1393 26.4437 76.2453 26.4978C76.3531 26.5528 76.4635 26.5878 76.5822 26.6092C76.6992 26.6303 76.8184 26.6372 76.9367 26.6404C76.991 26.6419 77.0453 26.6425 77.0996 26.6428C77.1577 26.6432 77.2158 26.6432 77.2739 26.6432H78.5107H81.248H87.6572C87.9713 25.8391 87.6878 25.2263 87.4128 24.885C87.0754 24.4661 86.5983 24.2813 86.0395 24.2813ZM94.4706 24.9237C94.5255 25.0318 94.5692 25.1422 94.5878 25.2618C94.6051 25.3736 94.605 25.4179 94.605 25.4563L94.605 25.4624L94.605 25.4684C94.605 25.5068 94.6051 25.551 94.5878 25.6628C94.5692 25.7824 94.5255 25.8928 94.4706 26.0009C94.4166 26.1072 94.3401 26.2044 94.256 26.2887C94.1719 26.373 94.0706 26.4437 93.9647 26.4978C93.8569 26.5528 93.7464 26.5877 93.6278 26.6092C93.5108 26.6303 93.3915 26.6372 93.2732 26.6404C93.2189 26.6419 93.1647 26.6425 93.1104 26.6428C93.0522 26.6432 92.9941 26.6432 92.936 26.6432H91.7186L92.3132 27.6734L92.6718 28.2945C92.701 28.345 92.7301 28.3955 92.759 28.4462C92.786 28.4936 92.8126 28.5411 92.8386 28.589C92.8952 28.6935 92.949 28.8007 92.9894 28.9129C93.0303 29.0269 93.0554 29.1404 93.0616 29.2617C93.0678 29.3809 93.0572 29.5045 93.0261 29.6199C92.995 29.7353 92.9489 29.8506 92.8836 29.9509C92.8172 30.0529 92.7431 30.1463 92.6485 30.2224C92.5601 30.2936 92.5216 30.3157 92.4882 30.335L92.4829 30.338L92.4775 30.3411C92.4442 30.3604 92.4057 30.3827 92.2999 30.4237C92.1867 30.4676 92.0688 30.485 91.9472 30.4915C91.8278 30.498 91.7049 30.4802 91.5894 30.4495C91.474 30.4187 91.3617 30.3661 91.2615 30.3011C91.1596 30.2351 91.0738 30.1566 90.9956 30.0641C90.9186 29.973 90.8526 29.8729 90.7905 29.7717C90.762 29.7252 90.7342 29.6783 90.7067 29.6313C90.6774 29.5812 90.6484 29.531 90.6193 29.4808L90.2603 28.8587L88.9813 26.6432L87.6178 24.2814L86.6871 22.6692L86.4085 22.1866C85.8952 21.2973 85.872 20.3811 86.0689 19.6023C86.2027 19.0729 86.527 18.5507 86.857 18.2219L88.7401 21.4838L90.3551 24.2814H92.937C92.9948 24.2814 93.0526 24.2814 93.1104 24.2817C93.1647 24.2821 93.2189 24.2827 93.2732 24.2841C93.3915 24.2873 93.5108 24.2943 93.6278 24.3154C93.7464 24.3368 93.8569 24.3717 93.9647 24.4268C94.0706 24.4809 94.1719 24.5516 94.256 24.6359C94.3401 24.7202 94.4166 24.8174 94.4706 24.9237ZM78.1936 27.1926C78.5799 27.1033 78.957 27.0811 79.2881 27.138C79.72 27.2122 80.2011 27.428 80.5234 27.8982L79.969 28.8587L79.6099 29.4807C79.5809 29.531 79.5519 29.5812 79.5226 29.6313C79.495 29.6783 79.4672 29.7252 79.4387 29.7716C79.3766 29.8729 79.3107 29.9731 79.2336 30.0641C79.1555 30.1565 79.0697 30.2351 78.9678 30.3011C78.8676 30.3661 78.7553 30.4187 78.6398 30.4495C78.5243 30.4802 78.4014 30.498 78.282 30.4915C78.1604 30.485 78.0425 30.4676 77.9293 30.4237C77.8236 30.3828 77.7851 30.3605 77.7518 30.3412L77.7463 30.338L77.7409 30.3349C77.7075 30.3157 77.6691 30.2935 77.5807 30.2224C77.4861 30.1463 77.4121 30.0529 77.3457 29.9509C77.2803 29.8507 77.2343 29.7353 77.2032 29.62C77.172 29.5045 77.1615 29.381 77.1677 29.2617C77.1739 29.1404 77.199 29.0269 77.2399 28.9129C77.2802 28.8006 77.3341 28.6934 77.3906 28.589C77.4166 28.5411 77.4433 28.4936 77.4702 28.4463C77.4991 28.3956 77.5282 28.345 77.5574 28.2945L77.916 27.6733L78.1936 27.1926Z" fill="white" fill-opacity="0.45"/>
<path fill-rule="evenodd" clip-rule="evenodd" d="M43.8477 34.5391C46.501 34.5391 47.834 33.2188 47.834 30.6035V17.3115C47.834 14.6963 46.501 13.3887 43.8477 13.3887H40.3896C39.3994 13.3887 39.082 13.1855 38.5234 12.5508L37.4951 11.4082C36.8604 10.71 36.2129 10.3291 34.9053 10.3291H29.8398C28.5322 10.3291 27.8848 10.71 27.25 11.4082L26.2344 12.5508C25.6758 13.1729 25.3584 13.3887 24.3682 13.3887H20.9863C18.333 13.3887 17 14.6963 17 17.3115V30.6035C17 33.2188 18.333 34.5391 20.9863 34.5391H43.8477ZM32.3486 30.25C28.4732 30.25 25.355 27.1403 25.355 23.25C25.355 19.3597 28.4732 16.25 32.3486 16.25C36.2368 16.25 39.355 19.3597 39.355 23.25C39.355 27.1403 36.2368 30.25 32.3486 30.25ZM32.349 28C34.9738 28 37.105 25.8835 37.105 23.25C37.105 20.6165 34.9738 18.5 32.349 18.5C29.7241 18.5 27.605 20.6165 27.605 23.25C27.605 25.8835 29.7362 28 32.349 28Z" fill="white" fill-opacity="0.45"/>
<defs>
<filter id="filter0_b_263_2025" x="-135.914" y="-135.914" width="631.828" height="318.828" filterUnits="userSpaceOnUse" color-interpolation-filters="sRGB">
<feFlood flood-opacity="0" result="BackgroundImageFix"/>
<feGaussianBlur in="BackgroundImageFix" stdDeviation="67.957"/>
<feComposite in2="SourceAlpha" operator="in" result="effect1_backgroundBlur_263_2025"/>
<feBlend mode="normal" in="SourceGraphic" in2="effect1_backgroundBlur_263_2025" result="shape"/>
</filter>
</defs>
</svg>
