<svg xmlns="http://www.w3.org/2000/svg" width="120" height="105" viewBox="0 0 120 105" fill="none">
  <path d="M40.6438 8.54102H78.8548C82.1273 8.54102 84.78 11.1894 84.78 14.4563V91.8045C84.78 95.0715 82.1273 97.7198 78.8548 97.7198H40.6438C37.3714 97.7198 34.7185 95.0715 34.7185 91.8045V14.4563C34.7185 11.1894 37.3714 8.54102 40.6438 8.54102Z" fill="#004364"/>
  <path d="M40.0005 15.3672H79.4925C80.3009 15.3672 80.9562 16.0214 80.9562 16.8284V83.6904C80.9562 84.4974 80.3009 85.1517 79.4925 85.1517H40.0005C39.1921 85.1517 38.5368 84.4974 38.5368 83.6904V16.8284C38.5368 16.0214 39.1921 15.3672 40.0005 15.3672Z" fill="white"/>
  <path d="M55.5503 91.9321C55.5503 89.6186 57.4296 87.7427 59.7466 87.7427C62.0637 87.7427 63.943 89.6186 63.943 91.9321C63.943 94.2449 62.0637 96.1215 59.7466 96.1215C57.4296 96.1215 55.5503 94.2449 55.5503 91.9321Z" fill="#FFFFFA"/>
  <path d="M53.8165 11.4141H65.6849C66.0285 11.4141 66.307 11.6921 66.307 12.0352V12.1551C66.307 12.4982 66.0285 12.7762 65.6849 12.7762H53.8165C53.4729 12.7762 53.1943 12.4982 53.1943 12.1551V12.0352C53.1943 11.6921 53.4729 11.4141 53.8165 11.4141Z" fill="#FFFFFA"/>
  <path d="M90.2409 40.0903H29.2526C27.0071 40.0903 25.1867 41.9076 25.1867 44.1494V62.1112C25.1867 64.3529 27.0071 66.1702 29.2526 66.1702H90.2409C92.4864 66.1702 94.3067 64.3529 94.3067 62.1112V44.1494C94.3067 41.9076 92.4864 40.0903 90.2409 40.0903Z" fill="#CCEDFA"/>
  <path d="M69.3409 53.7196L72.0353 56.9251L69.6362 58.6569L67.311 55.3776L64.9859 58.6937L62.6238 56.8883L65.318 53.7933L61.4427 52.6879L62.2547 49.9982L66.0193 51.3983L65.7978 47.5664H68.7873L68.529 51.3983L72.1828 49.9245L73.0687 52.6511L69.3409 53.7196Z" fill="#00A6CA"/>
  <path d="M84.3558 53.7196L87.0501 56.9251L84.6515 58.6569L82.3263 55.3776L80.0012 58.6937L77.6393 56.8883L80.3329 53.7933L76.4576 52.6879L77.2701 49.9982L81.0346 51.3983L80.8129 47.5664H83.8023L83.544 51.3983L87.1976 49.9245L88.0835 52.6511L84.3558 53.7196Z" fill="#00A6CA"/>
  <path d="M54.3258 53.7196L57.02 56.9251L54.621 58.6569L52.2959 55.3776L49.9707 58.6937L47.6087 56.8883L50.3029 53.7933L46.4276 52.6879L47.2395 49.9982L51.0041 51.3983L50.7827 47.5664H53.7721L53.5138 51.3983L57.1676 49.9245L58.0534 52.6511L54.3258 53.7196Z" fill="#00A6CA"/>
  <path d="M39.3126 53.7196L42.0069 56.9251L39.6079 58.6569L37.2828 55.3776L34.9576 58.6937L32.5955 56.8883L35.2898 53.7933L31.4145 52.6879L32.2265 49.9982L35.991 51.3983L35.7696 47.5664H38.7591L38.5007 51.3983L42.1545 49.9245L43.0403 52.6511L39.3126 53.7196Z" fill="#00A6CA"/>
</svg>