<svg xmlns="http://www.w3.org/2000/svg" width="225" height="136" viewBox="0 0 225 136" fill="none">
  <path opacity="0.2" d="M188.384 125.08C202.47 125.08 213.889 123.893 213.889 122.429C213.889 120.965 202.47 119.778 188.384 119.778C174.298 119.778 162.879 120.965 162.879 122.429C162.879 123.893 174.298 125.08 188.384 125.08Z" fill="#004364"/>
  <path opacity="0.2" fill-rule="evenodd" clip-rule="evenodd" d="M57.3482 123.026C73.9622 123.026 87.4305 121.908 87.4305 120.529C87.4305 119.149 73.9622 118.031 57.3482 118.031C52.0201 118.031 47.0156 118.146 42.6751 118.348C39.7937 118.148 36.3972 118.031 32.7604 118.031C22.3352 118.031 13.8839 118.984 13.8839 120.158C13.8839 121.334 22.3352 122.286 32.7604 122.286C33.7515 122.286 34.7246 122.277 35.6745 122.261C41.147 122.732 48.8346 123.026 57.3482 123.026Z" fill="#004364"/>
  <path opacity="0.2" d="M114.916 117.687C153.731 117.687 185.197 116.284 185.197 114.552C185.197 112.821 153.731 111.418 114.916 111.418C76.1011 111.418 44.6353 112.821 44.6353 114.552C44.6353 116.284 76.1011 117.687 114.916 117.687Z" fill="#004364"/>
  <path d="M139.112 92.2095H91.4649C90.8082 92.2095 90.2759 92.7449 90.2759 93.4054V109.652C90.2759 110.312 90.8082 110.848 91.4649 110.848H139.112C139.768 110.848 140.3 110.312 140.3 109.652V93.4054C140.3 92.7449 139.768 92.2095 139.112 92.2095Z" fill="#004364"/>
  <path d="M149.685 108.216H79.3696C78.7129 108.216 78.1806 108.752 78.1806 109.412V110.798C78.1806 111.459 78.7129 111.994 79.3696 111.994H149.685C150.342 111.994 150.874 111.459 150.874 110.798V109.412C150.874 108.752 150.342 108.216 149.685 108.216Z" fill="#005F8D"/>
  <path d="M182.789 0.933105H46.2665C44.5154 0.933105 43.0959 2.36098 43.0959 4.12236V97.7393C43.0959 99.5006 44.5154 100.929 46.2665 100.929H182.789C184.54 100.929 185.96 99.5006 185.96 97.7393V4.12236C185.96 2.36098 184.54 0.933105 182.789 0.933105Z" fill="#005F8D"/>
  <path d="M177.96 5.08105H51.095C49.3439 5.08105 47.9244 6.50893 47.9244 8.27031V94.3864C47.9244 96.1478 49.3439 97.5757 51.095 97.5757H177.96C179.711 97.5757 181.131 96.1478 181.131 94.3864V8.27031C181.131 6.50893 179.711 5.08105 177.96 5.08105Z" fill="#E6F6FA"/>
  <path d="M162.985 11.9248H66.0692C63.8803 11.9248 62.1059 13.7097 62.1059 15.9114V75.2879C62.1059 77.4896 63.8803 79.2745 66.0692 79.2745H162.985C165.174 79.2745 166.949 77.4896 166.949 75.2879V15.9114C166.949 13.7097 165.174 11.9248 162.985 11.9248Z" fill="white"/>
  <path fill-rule="evenodd" clip-rule="evenodd" d="M68.0822 70.4348C68.0822 69.7467 68.6368 69.189 69.3207 69.189H75.885C76.569 69.189 77.1235 69.7467 77.1235 70.4348C77.1235 71.1228 76.569 71.6806 75.885 71.6806H69.3207C68.6368 71.6806 68.0822 71.1228 68.0822 70.4348Z" fill="#99DBEA"/>
  <path fill-rule="evenodd" clip-rule="evenodd" d="M152.174 70.4348C152.174 69.7467 152.729 69.189 153.413 69.189H159.977C160.661 69.189 161.216 69.7467 161.216 70.4348C161.216 71.1228 160.661 71.6806 159.977 71.6806H153.413C152.729 71.6806 152.174 71.1228 152.174 70.4348Z" fill="#99DBEA"/>
  <path d="M157.606 63.2437C158.053 63.2437 158.417 62.8789 158.408 62.429C158.296 56.3133 156.914 50.2887 154.351 44.7415C154.163 44.3335 153.677 44.1656 153.276 44.3628L151.454 45.2558C151.051 45.453 150.885 45.9404 151.073 46.3488C153.393 51.395 154.649 56.8702 154.761 62.429C154.77 62.8788 155.132 63.2437 155.579 63.2437H157.606Z" fill="#008A00"/>
  <path d="M152.696 43.2158C153.092 43.0067 153.245 42.5138 153.03 42.1193C150.764 37.9671 147.846 34.2109 144.388 30.9964C144.06 30.6909 143.547 30.7215 143.25 31.0575L141.902 32.58C141.604 32.916 141.634 33.4305 141.963 33.7364C145.094 36.6568 147.739 40.0626 149.8 43.8244C150.016 44.2185 150.505 44.3724 150.902 44.1632L152.696 43.2158Z" fill="#8CCF54"/>
  <path d="M143.586 28.647C143.893 28.3101 143.865 27.7857 143.519 27.4906C140.112 24.5876 135.76 21.6953 131.644 19.979C131.229 19.806 130.758 20.0207 130.601 20.4441L128.294 26.6483C128.138 27.0679 128.349 27.5344 128.762 27.7022C132.356 29.1627 135.185 30.9276 138.141 33.4524C138.477 33.7393 138.98 33.7124 139.277 33.3852L143.586 28.647Z" fill="#FCD800"/>
  <path d="M128.741 22.5059C128.887 22.0806 128.663 21.616 128.238 21.4771C124.026 20.1021 119.631 19.3797 115.204 19.3345C114.756 19.3299 114.397 19.6985 114.4 20.1485L114.418 22.187C114.422 22.6369 114.787 22.9978 115.234 23.0031C119.247 23.0508 123.229 23.7055 127.047 24.945C127.473 25.0832 127.934 24.8582 128.08 24.4329L128.741 22.5059Z" fill="#FF871F"/>
  <path d="M71.9155 63.2437C71.4681 63.2437 71.1047 62.8786 71.113 62.4287C71.3181 51.3034 75.7162 40.659 83.4348 32.6599C91.1535 24.6608 101.6 19.9212 112.649 19.3833C113.096 19.3616 113.469 19.716 113.483 20.1658L113.543 22.2035C113.557 22.6532 113.205 23.0279 112.758 23.0504C102.657 23.5594 93.1096 27.9 86.0515 35.2146C78.9934 42.5292 74.9648 52.2575 74.7603 62.4288C74.7512 62.8787 74.3894 63.2437 73.9421 63.2437H71.9155Z" fill="#E15825"/>
  <path fill-rule="evenodd" clip-rule="evenodd" d="M151.262 61.7447C151.692 48.7005 139.383 27.313 115.615 27.313C89.0239 27.313 79.2453 48.5799 78.6731 61.6339C78.6438 62.3007 79.1841 62.8416 79.8478 62.8416H114.919H150.099C150.719 62.8416 151.241 62.3685 151.262 61.7447ZM101.941 62.8392C101.941 55.5915 107.782 49.7161 114.987 49.7161C122.193 49.7161 128.034 55.5915 128.034 62.8392H101.941Z" fill="#99DBEA"/>
  <path d="M122.588 62.9696H107.389C107.389 60.2601 109.387 55.4248 115.134 55.4248C120.256 55.4248 122.838 60.2601 122.588 62.9696Z" fill="#FCD800"/>
  <path d="M131.813 33.4998L113.998 58.0573C113.438 58.8304 113.644 59.9129 114.45 60.4415C115.257 60.9701 116.342 60.733 116.839 59.9194L132.993 34.2731C133.189 33.9531 133.093 33.5355 132.775 33.3276C132.458 33.1196 132.033 33.1956 131.813 33.4998Z" fill="#2C2C2C"/>
  <path fill-rule="evenodd" clip-rule="evenodd" d="M95.2559 87.0328C95.2559 85.932 95.7612 85.0396 96.3844 85.0396H133.543C134.165 85.0396 134.671 85.932 134.671 87.0328C134.671 88.1337 134.165 89.0261 133.543 89.0261H96.3844C95.7612 89.0261 95.2559 88.1337 95.2559 87.0328Z" fill="#99DBEA"/>
  <path fill-rule="evenodd" clip-rule="evenodd" d="M111.762 99.3738C111.762 99.1221 111.964 98.918 112.215 98.918H118.361C118.612 98.918 118.814 99.1221 118.814 99.3738C118.814 99.6256 118.612 99.8296 118.361 99.8296H112.215C111.964 99.8296 111.762 99.6256 111.762 99.3738Z" fill="#00A6CA"/>
  <path fill-rule="evenodd" clip-rule="evenodd" d="M17.9929 88.0674H47.5274C49.7968 88.0674 51.6366 89.9179 51.6366 92.2006V115.966C51.6366 118.249 49.7968 120.1 47.5274 120.1H17.9929C15.7235 120.1 13.8837 118.249 13.8837 115.966V92.2006C13.8837 89.9179 15.7235 88.0674 17.9929 88.0674ZM22.1021 95.3005C21.5347 95.3005 21.0747 95.7632 21.0747 96.3339V111.834C21.0747 112.405 21.5347 112.867 22.1021 112.867H43.4183C43.9856 112.867 44.4455 112.405 44.4455 111.834V96.3339C44.4455 95.7632 43.9856 95.3005 43.4183 95.3005H22.1021Z" fill="#BFBFBF"/>
  <path fill-rule="evenodd" clip-rule="evenodd" d="M75.0295 118.98C69.966 112.762 66.5399 108.15 64.7513 105.148C61.6887 100.008 59.182 95.4337 58.391 93.6863C56.5047 89.5197 62.7336 87.5687 64.1434 89.5122C66.2771 92.4536 70.8338 101.71 77.8137 117.28L75.0295 118.98Z" fill="#B28B67"/>
  <path fill-rule="evenodd" clip-rule="evenodd" d="M64.7672 117L55.3438 93.1407C53.3283 88.7912 63.0614 85.9322 64.5427 87.9563C67.9055 92.5518 75.8982 110.68 76.9001 112.049L64.7672 117Z" fill="#B11030"/>
  <path fill-rule="evenodd" clip-rule="evenodd" d="M39.6699 112.215C41.5055 109.522 48.1823 100.461 51.8191 96.7113C52.8641 95.6339 53.8838 94.5999 54.8482 93.6363C57.7149 90.7721 63.4235 95.5862 60.5621 98.1951C53.4361 104.692 43.0389 113.462 42.1702 114.245C40.9527 115.341 38.5162 113.908 39.6699 112.215Z" fill="#B28B67"/>
  <path fill-rule="evenodd" clip-rule="evenodd" d="M40.0992 111C39.4668 111.523 39.0555 111.951 38.8651 112.283C38.6335 112.686 38.3624 113.314 38.0518 114.165C38.517 114.435 42.6985 116.863 50.5963 121.45C51.5445 120.555 51.6922 119.861 51.0395 119.366C50.3868 118.872 49.8482 118.455 49.4235 118.116L45.0936 112.115C45.0103 112 44.8498 111.975 44.735 112.058C44.733 112.06 44.7311 112.061 44.7292 112.062L43.8295 112.76C43.0041 112.687 42.3882 112.532 41.9817 112.297C41.6514 112.105 41.2724 111.706 40.8444 111.1C40.6802 110.867 40.3596 110.812 40.1283 110.977C40.1182 110.984 40.1085 110.992 40.0992 111Z" fill="#262626"/>
  <path fill-rule="evenodd" clip-rule="evenodd" d="M72.9653 117.88C72.678 118.651 72.5343 119.228 72.5343 119.612C72.5343 120.077 72.6115 120.757 72.7658 121.651C73.303 121.651 78.1314 121.651 87.2509 121.651C87.6274 120.398 87.4101 119.723 86.5991 119.623C85.7881 119.523 85.1144 119.433 84.578 119.353L77.8453 116.334C77.7158 116.276 77.564 116.334 77.5063 116.465C77.5053 116.467 77.5043 116.469 77.5034 116.471L77.0706 117.527C76.3199 117.88 75.7098 118.055 75.2404 118.055C74.859 118.055 74.3323 117.901 73.6603 117.591C73.4025 117.472 73.0976 117.586 72.9793 117.846C72.9743 117.857 72.9695 117.867 72.9653 117.88Z" fill="#262626"/>
  <path fill-rule="evenodd" clip-rule="evenodd" d="M51.9532 94.332C44.121 93.0485 38.8749 92.171 36.2148 91.6991C28.6326 90.3544 26.4216 86.2503 27.7289 77.2959H41.6989C43.5476 77.8328 51.2722 81.154 64.8728 87.2594C67.3197 88.4813 66.864 92.084 66.4167 93.2708C66.3985 93.3193 62.2733 100.429 54.0412 114.601L42.6132 107.278L51.9747 95.195C52.2219 94.694 52.2148 94.4065 51.9532 94.332Z" fill="#FF7171"/>
  <path fill-rule="evenodd" clip-rule="evenodd" d="M31.9222 47.059C30.8811 45.8299 30.1764 44.3236 30.2942 42.6357C30.6335 37.7725 37.3637 38.8423 38.6729 41.2969C39.9821 43.7514 39.8266 49.9776 38.1345 50.4162C37.4597 50.5912 36.0223 50.1626 34.5593 49.2757L35.4776 55.8103H30.0555L31.9222 47.059Z" fill="#B28B67"/>
  <path fill-rule="evenodd" clip-rule="evenodd" d="M41.0748 37.8936C40.9625 37.4966 40.6605 37.1568 40.2534 37.0558C40.1548 37.0314 40.0529 37.0216 39.9513 37.0256C39.9149 37.0271 39.9047 37.0377 39.8877 37.012C39.875 36.993 39.8748 36.9466 39.8695 36.9243C39.8534 36.855 39.8332 36.7863 39.8082 36.7196C39.723 36.4918 39.5799 36.2902 39.4073 36.1203C39.0847 35.8027 38.6486 35.5834 38.1956 35.5437C37.9477 35.5221 37.7015 35.5625 37.4672 35.6437C37.3459 35.6857 37.2282 35.738 37.1136 35.7958C37.0791 35.8132 36.9671 35.8984 36.9325 35.8929C36.8942 35.8869 36.8173 35.7912 36.7863 35.7673C36.4019 35.4706 35.9272 35.354 35.4485 35.3575C34.908 35.3615 34.3876 35.3886 33.9369 35.72C33.8416 35.7902 33.7507 35.867 33.6641 35.9479C33.6186 35.9905 33.5744 36.0347 33.5324 36.0807C33.5071 36.1084 33.4823 36.1369 33.4584 36.1659C33.4181 36.2154 33.4246 36.2316 33.368 36.1972C33.1512 36.0646 32.8998 36.0026 32.6466 36.0339C32.4963 36.0524 32.35 36.0979 32.2111 36.1576C32.1639 36.178 32.0544 36.2592 32.004 36.2599C31.9539 36.2607 31.8461 36.1854 31.7946 36.1663C31.5164 36.063 31.2166 36.0376 30.9242 36.0854C30.6226 36.1346 30.3264 36.2556 30.0708 36.4229C29.9479 36.5033 29.8407 36.5925 29.7546 36.7121C29.7173 36.7638 29.6838 36.8184 29.6416 36.8663C29.6169 36.8943 29.5681 36.9231 29.5548 36.9586C29.5627 36.9374 29.225 36.8064 29.1931 36.798C29.0234 36.7534 28.8505 36.7625 28.6842 36.8175C28.3715 36.921 28.1026 37.153 27.8816 37.3911C27.7681 37.5133 27.6688 37.6483 27.5845 37.7923C27.5441 37.8613 27.5072 37.9322 27.4733 38.0046C27.4569 38.0397 27.4461 38.0835 27.4245 38.1152C27.3966 38.1559 27.378 38.1567 27.3276 38.1745C27.0717 38.2646 26.8385 38.4172 26.6609 38.6235C26.4812 38.8321 26.3645 39.0891 26.3157 39.3596C26.3128 39.3755 26.3111 39.4417 26.3018 39.4503C26.2891 39.4621 26.2377 39.4569 26.2182 39.4592C26.1508 39.4671 26.0839 39.4789 26.0179 39.4947C25.8961 39.5237 25.7776 39.5663 25.6655 39.6221C25.2286 39.8396 24.9161 40.2473 24.7632 40.7059C24.6027 41.1874 24.6055 41.7389 24.7974 42.2114C24.8283 42.2877 24.8652 42.3617 24.9084 42.4318C24.9351 42.4748 24.9436 42.4749 24.9264 42.52C24.9071 42.5703 24.872 42.6191 24.8491 42.6681C24.7746 42.8282 24.7225 42.998 24.6895 43.1714C24.6355 43.4558 24.6088 43.7548 24.6621 44.0414C24.6868 44.1745 24.7299 44.3046 24.7956 44.4231C24.8292 44.4836 24.8684 44.5409 24.9127 44.594C24.9357 44.6215 24.9601 44.6478 24.9856 44.673C25.0003 44.6873 25.0194 44.7 25.0319 44.716C25.0622 44.7552 25.0685 44.723 25.0529 44.7805C25.0311 44.861 24.9815 44.9403 24.9512 45.0187C24.9199 45.0994 24.8916 45.1811 24.8657 45.2637C24.8134 45.4309 24.7691 45.6012 24.7414 45.7744C24.6883 46.1069 24.6976 46.4612 24.8539 46.7663C24.9208 46.8969 25.0167 47.0115 25.133 47.1005C25.19 47.1441 25.2516 47.1816 25.3163 47.2125C25.3496 47.2284 25.3921 47.2352 25.4073 47.2676C25.4236 47.3024 25.3993 47.3714 25.3937 47.4102C25.3457 47.7484 25.3216 48.1035 25.4215 48.435C25.5136 48.7402 25.7163 49.0097 25.9795 49.1882C26.4899 49.5343 27.178 49.5148 27.7144 49.2377C27.8543 49.1654 27.9851 49.0757 28.1018 48.97C28.3989 49.3724 29.0104 49.3596 29.4447 49.245C29.9857 49.1021 30.4198 48.7237 30.67 48.2265C31.012 48.6453 31.7298 48.5094 31.9669 48.0551C32.025 47.9439 32.0594 47.8213 32.0764 47.6974C32.0853 47.6321 32.0796 47.5664 32.0864 47.5017C32.0949 47.4191 32.1496 47.3391 32.1811 47.2594C32.2424 47.1042 32.2805 46.9438 32.282 46.7764C32.283 46.689 32.2719 46.6038 32.2637 46.5171C32.2562 46.439 32.2777 46.3663 32.29 46.2893C32.1512 46.3122 31.9822 46.2746 31.8514 46.2342C31.7232 46.1944 31.603 46.0898 31.5124 45.9943C31.3022 45.7725 31.1738 45.4817 31.0859 45.1923C30.893 44.557 30.9721 43.7949 31.6072 43.4463C31.9032 43.2839 32.7896 43.2844 33.1421 43.3647C33.5127 43.4491 33.9328 44.2715 33.9534 44.3489C33.9662 44.3967 33.9598 44.4559 34.0035 44.4878C34.0996 44.558 34.2579 44.4363 34.3287 44.3762C34.451 44.2726 34.5381 44.1347 34.6137 43.995C34.7782 43.6906 34.9108 43.3641 35.0045 43.0308C35.0768 42.7738 35.1229 42.5088 35.2174 42.2584C35.3113 42.0093 35.4594 41.7866 35.6897 41.6454C35.9401 41.4918 36.2273 41.411 36.5023 41.3145C36.7749 41.2189 37.0428 41.102 37.254 40.899C37.3005 40.8544 37.3456 40.8071 37.383 40.7545C37.4126 40.713 37.4417 40.6336 37.4867 40.6073C37.5566 40.5664 37.6586 40.6728 37.7191 40.7114C38.0175 40.9019 38.2663 41.1678 38.4671 41.4581C38.6667 41.7469 38.8305 42.0248 38.9636 42.3473C39.0623 42.5864 39.1239 42.8926 39.2976 43.0886C39.3751 43.1761 39.9513 43.2291 40.1379 43.1527C40.3245 43.0763 40.5338 42.8779 40.5964 42.7536C40.6605 42.6263 40.6759 42.4866 40.6484 42.3473C40.6323 42.2653 40.5994 42.1888 40.5814 42.1082C40.5663 42.0406 40.5525 41.9767 40.5198 41.9148C40.4578 41.7974 40.3518 41.713 40.224 41.6777C40.3571 41.5543 40.4672 41.4068 40.5435 41.2419C40.6226 41.0706 40.6898 40.8623 40.7088 40.6742C40.7243 40.5215 40.7004 40.3632 40.6173 40.232C40.5301 40.0943 40.3756 40.0044 40.242 39.9186C40.4461 39.7579 40.6209 39.5625 40.7645 39.3461C41.0438 38.9255 41.2167 38.3952 41.0748 37.8936Z" fill="#262626"/>
  <path fill-rule="evenodd" clip-rule="evenodd" d="M48.4652 71.5049L55.2015 78.115C57.1615 78.9559 58.7675 79.8846 60.0194 80.9007C60.3009 81.2424 60.6075 81.8968 59.2828 81.604C57.9582 81.3111 56.5519 81.063 56.3029 81.4962C56.0539 81.9295 56.7875 82.5935 56.3274 83.1606C56.0207 83.5386 54.9891 82.3361 53.2327 79.5531L46.2278 75.3989L48.4652 71.5049ZM18.5653 72.4371L23.5347 72.4568C20.4663 82.4201 18.8098 87.7065 18.5653 88.3161C18.0151 89.6878 19.1794 91.7768 19.6774 92.8995C18.0556 93.6294 18.2284 90.926 16.1825 91.8834C14.3151 92.7573 12.8947 94.3406 10.7372 93.0016C10.472 92.8371 10.1813 92.2172 10.8836 91.7328C12.6332 90.526 15.1547 88.4139 15.4953 87.7188C15.9599 86.7707 16.9832 81.6769 18.5653 72.4371Z" fill="#B28B67"/>
  <path fill-rule="evenodd" clip-rule="evenodd" d="M32.6875 51.4623L34.7438 51.1074C38.284 60.0032 44.4649 68.0859 53.2864 75.356L46.6204 83.502C37.8 73.1505 32.363 62.4706 32.6875 51.4623Z" fill="#47447C"/>
  <path fill-rule="evenodd" clip-rule="evenodd" d="M23.7234 77.4551H42.0339C37.7918 67.0801 35.6707 58.2667 35.6707 51.0148L30.1474 50.187C25.8066 57.2094 24.5806 65.8552 23.7234 77.4551Z" fill="white"/>
  <path fill-rule="evenodd" clip-rule="evenodd" d="M30.0305 50.191L30.0326 50.187H30.3931C30.8246 50.202 31.4817 50.2289 32.3645 50.2678L33.6991 54.1042C33.8403 58.7818 34.6647 68.2084 36.1725 82.3839H24.1696C24.201 83.3629 24.2529 84.3511 24.3253 85.3485H15.4005C16.7354 70.1989 21.6107 58.4784 30.026 50.187L30.0305 50.191Z" fill="#5F5BA9"/>
  <path fill-rule="evenodd" clip-rule="evenodd" d="M24.9625 69.8569C25.3041 75.9599 26.1595 80.1671 27.5283 82.4785H24.1729C24.0259 78.0875 24.2892 73.8804 24.9625 69.8569Z" fill="#47447C"/>
  <path fill-rule="evenodd" clip-rule="evenodd" d="M26.8415 75.0636L32.76 72.2959V75.0636H26.8415Z" fill="#B2AFEB"/>
  <path fill-rule="evenodd" clip-rule="evenodd" d="M189.191 22.7809C188.301 26.0759 187.143 33.4825 188.325 34.6443H195.804C195.805 34.631 195.806 34.6176 195.807 34.6045C198.578 34.2958 200.734 31.9318 200.734 29.0612V23.6135C200.734 20.5332 198.252 18.0361 195.19 18.0361H194.673C191.893 18.0361 189.59 20.0955 189.191 22.7809Z" fill="#262626"/>
  <path fill-rule="evenodd" clip-rule="evenodd" d="M197.83 28.0204C199.018 26.6173 199.823 24.8978 199.688 22.971C199.3 17.4195 191.618 18.6407 190.124 21.4426C188.629 24.2447 188.807 31.352 190.738 31.8528C191.508 32.0525 193.149 31.5632 194.819 30.5507L193.771 38.0103H199.961L197.83 28.0204Z" fill="#D6A97F"/>
  <path fill-rule="evenodd" clip-rule="evenodd" d="M196.157 27.0829C195.872 30.1643 195.985 33.683 196.836 34.5182H204.314C204.731 27.2356 200.704 30.0558 200.704 23.199C200.453 22.9522 200.216 22.708 199.981 22.4974L199.989 22.2957C198.695 19.6288 197.051 18.2954 195.061 18.2954C192.074 18.2954 191.131 19.6932 190.328 20.8799C190.929 22.9514 193.257 23.2585 195.327 24.5496C195.571 24.3503 195.882 24.2308 196.221 24.2308C197.004 24.2308 197.64 24.8696 197.64 25.6576C197.64 26.4455 197.004 27.0843 196.221 27.0843C196.199 27.0843 196.178 27.0839 196.157 27.0829Z" fill="#262626"/>
  <path fill-rule="evenodd" clip-rule="evenodd" d="M200.672 60.5894L190.945 92.5757L186.233 119.778H182.539L187.518 60.5894H200.672Z" fill="#D6A97F"/>
  <path fill-rule="evenodd" clip-rule="evenodd" d="M204.152 60.5894C203.491 78.1516 204.269 87.2105 204.417 88.8061C204.564 90.4017 206.589 100.748 211.382 120.313L207.446 118.953C199.87 101.009 197.289 91.6825 196.42 89.3262C195.551 86.9697 193.244 77.3909 189.497 60.5894H204.152Z" fill="#D6A97F"/>
  <path fill-rule="evenodd" clip-rule="evenodd" d="M211.353 118.933C211.642 119.71 211.787 120.291 211.787 120.677C211.787 121.146 211.71 121.83 211.554 122.729C211.013 122.729 206.154 122.729 196.975 122.729C196.596 121.47 196.815 120.79 197.632 120.689C198.447 120.588 199.125 120.498 199.666 120.417L206.442 117.378C206.572 117.32 206.724 117.379 206.783 117.51C206.784 117.512 206.784 117.514 206.785 117.516L207.221 118.579C207.977 118.935 208.59 119.111 209.063 119.111C209.447 119.111 209.978 118.955 210.654 118.644C210.913 118.524 211.22 118.639 211.339 118.899C211.344 118.911 211.349 118.922 211.353 118.933Z" fill="#262626"/>
  <path fill-rule="evenodd" clip-rule="evenodd" d="M187.057 118.934C187.346 119.71 187.49 120.292 187.49 120.677C187.49 121.146 187.413 121.83 187.257 122.729C186.716 122.729 181.857 122.729 172.678 122.729C172.299 121.47 172.518 120.79 173.334 120.689C174.15 120.588 174.828 120.498 175.368 120.417L182.145 117.378C182.275 117.32 182.428 117.378 182.485 117.51C182.486 117.512 182.487 117.514 182.488 117.517L182.924 118.58C183.679 118.935 184.294 119.111 184.766 119.111C185.15 119.111 185.68 118.955 186.357 118.644C186.616 118.524 186.922 118.639 187.042 118.899C187.047 118.911 187.051 118.922 187.057 118.934Z" fill="#262626"/>
  <path fill-rule="evenodd" clip-rule="evenodd" d="M201.964 60.5894L197.829 76.8861H185.197L187.08 60.5894H201.964Z" fill="#FFC700"/>
  <path fill-rule="evenodd" clip-rule="evenodd" d="M204.291 60.5894C205.652 64.6923 205.91 70.1245 205.067 76.8861H192.176L188.632 60.5894H204.291Z" fill="#FCD800"/>
  <path fill-rule="evenodd" clip-rule="evenodd" d="M211.832 51.6147L206.185 51.636C212.377 65.6531 215.606 72.9922 215.871 73.6533C216.469 75.1409 215.205 77.4065 214.665 78.624C216.424 79.4156 216.236 76.4839 218.455 77.5221C220.48 78.4699 222.021 80.1871 224.361 78.7348C224.649 78.5563 224.964 77.884 224.202 77.3587C222.305 76.05 219.57 73.7594 219.201 73.0055C218.697 71.9773 216.24 64.847 211.832 51.6147Z" fill="#D6A97F"/>
  <path d="M169.6 56.0412L179.734 54.3174L179.352 59.2455L170.488 58.5814C167.195 59.9881 165.526 60.4239 165.482 59.8889C165.416 59.0866 166.486 58.9494 166.528 58.401C166.571 57.8527 165.152 57.1901 163.779 56.6195C162.407 56.0489 163.085 55.651 163.549 55.52C165.301 55.3913 167.318 55.565 169.6 56.0412Z" fill="#D6A97F"/>
  <path fill-rule="evenodd" clip-rule="evenodd" d="M196.366 33.5991L191.945 33.8954C190.856 43.8052 185.791 52.9604 172.968 54.8739L177.373 66.9795C184.718 64.0478 191.83 56.6882 194.061 43.1543C194.638 39.6509 196.443 36.6388 196.366 33.5991Z" fill="#44BA74"/>
  <path fill-rule="evenodd" clip-rule="evenodd" d="M198.548 32.3059L191.849 33.8492C191.849 45.4396 188.178 52.8343 186.296 61.3559H204.388C204.643 64.3005 204.8 67.3269 204.881 70.4353H218.429C215.359 54.0052 208.879 41.2941 198.99 32.3018H198.551L198.548 32.3059Z" fill="#67D995"/>
  <path fill-rule="evenodd" clip-rule="evenodd" d="M201.531 44.8218C201.997 52.0441 201.723 57.5558 200.708 61.3569H204.386C203.881 55.5237 202.989 50.012 201.531 44.8218Z" fill="#44BA74"/>
</svg>