<svg xmlns="http://www.w3.org/2000/svg" width="142" height="138" viewBox="0 0 142 138" fill="none">
  <path opacity="0.2" d="M79.3071 134.946C112.792 134.946 139.938 133.396 139.938 131.485C139.938 129.573 112.792 128.023 79.3071 128.023C45.8218 128.023 18.6765 129.573 18.6765 131.485C18.6765 133.396 45.8218 134.946 79.3071 134.946Z" fill="#262626"/>
  <path d="M73.4829 11.3057H13.8329C11.6612 11.3057 9.90063 13.057 9.90063 15.2175V100.342C9.90063 102.503 11.6612 104.254 13.8329 104.254H73.4829C75.6546 104.254 77.4152 102.503 77.4152 100.342V15.2175C77.4152 13.057 75.6546 11.3057 73.4829 11.3057Z" fill="#004364"/>
  <path d="M74.4007 14.3037H12.9143V97.6573H74.4007V14.3037Z" fill="white"/>
  <path d="M56.852 8.30713H30.4641C30.4266 8.30713 30.3962 8.31224 30.3962 8.31854V16.0914C30.3962 16.0977 30.4266 16.1028 30.4641 16.1028H56.852C56.8895 16.1028 56.9199 16.0977 56.9199 16.0914V8.31854C56.9199 8.31224 56.8895 8.30713 56.852 8.30713Z" fill="#005F8D"/>
  <path d="M43.9598 15.503C47.1226 15.503 49.6865 12.9525 49.6865 9.80621C49.6865 6.65993 47.1226 4.10938 43.9598 4.10938C40.7971 4.10938 38.2332 6.65993 38.2332 9.80621C38.2332 12.9525 40.7971 15.503 43.9598 15.503Z" fill="#005F8D"/>
  <path d="M61.1398 49.6846H26.1768C25.511 49.6846 24.9712 50.2215 24.9712 50.8839V50.8839C24.9712 51.5463 25.511 52.0832 26.1768 52.0832H61.1398C61.8056 52.0832 62.3454 51.5463 62.3454 50.8839C62.3454 50.2215 61.8056 49.6846 61.1398 49.6846Z" fill="#E6F6FA"/>
  <path d="M61.1398 56.8804H26.1768C25.511 56.8804 24.9712 57.4173 24.9712 58.0797V58.0797C24.9712 58.7421 25.511 59.279 26.1768 59.279H61.1398C61.8056 59.279 62.3454 58.7421 62.3454 58.0797C62.3454 57.4173 61.8056 56.8804 61.1398 56.8804Z" fill="#E6F6FA"/>
  <path d="M61.1398 64.0767H26.1768C25.511 64.0767 24.9712 64.6136 24.9712 65.276V65.276C24.9712 65.9384 25.511 66.4753 26.1768 66.4753H61.1398C61.8056 66.4753 62.3454 65.9384 62.3454 65.276C62.3454 64.6136 61.8056 64.0767 61.1398 64.0767Z" fill="#E6F6FA"/>
  <path d="M46.3087 71.2725H26.1768C25.511 71.2725 24.9712 71.8094 24.9712 72.4718V72.4718C24.9712 73.1342 25.511 73.6711 26.1768 73.6711H46.3087C46.9746 73.6711 47.5143 73.1342 47.5143 72.4718C47.5143 71.8094 46.9746 71.2725 46.3087 71.2725Z" fill="#E6F6FA"/>
  <path d="M59.3957 22.269H27.5671C25.9383 22.269 24.6179 23.5826 24.6179 25.2029V41.2579C24.6179 42.8783 25.9383 44.1918 27.5671 44.1918H59.3957C61.0245 44.1918 62.3449 42.8783 62.3449 41.2579V25.2029C62.3449 23.5826 61.0245 22.269 59.3957 22.269Z" fill="#E6F6FA"/>
  <path d="M12.3784 25.3939C18.535 25.3939 23.526 20.429 23.526 14.3044C23.526 8.1798 18.535 3.21484 12.3784 3.21484C6.22169 3.21484 1.23071 8.1798 1.23071 14.3044C1.23071 20.429 6.22169 25.3939 12.3784 25.3939Z" fill="#FCD800"/>
  <path d="M12.1578 18.9543L9.86145 14.864V13.9H10.6269C10.933 13.9 11.201 13.8566 11.4306 13.7697C11.6688 13.6742 11.8643 13.5396 12.0175 13.3658C12.179 13.1922 12.2897 12.9838 12.3492 12.7406H9.86145V11.7767H12.3364C12.2854 11.5509 12.1961 11.3511 12.0685 11.1774C11.9494 11.0038 11.7879 10.8691 11.5837 10.7736C11.3881 10.6694 11.15 10.6173 10.8693 10.6173H9.86145V9.65332H15.6151V10.6173H13.6121C13.7568 10.7823 13.8758 10.9603 13.9694 11.1514C14.0714 11.3425 14.1395 11.5509 14.1735 11.7767H15.6151V12.7406H14.199C14.1139 13.3832 13.8716 13.887 13.4719 14.2516C13.0721 14.6077 12.5575 14.8509 11.9281 14.9812L14.4286 18.9543H12.1578Z" fill="#262626"/>
  <path fill-rule="evenodd" clip-rule="evenodd" d="M97.0729 29.6498C98.3715 28.1334 99.2504 26.2751 99.1036 24.1928C98.6804 18.1933 90.2849 19.5131 88.6519 22.5411C87.0188 25.5692 87.2129 33.2502 89.3235 33.7914C90.1652 34.0072 91.9583 33.4786 93.7833 32.3842L92.6378 40.4459H99.4013L97.0729 29.6498Z" fill="#D6A97F"/>
  <path fill-rule="evenodd" clip-rule="evenodd" d="M94.7309 29.2262C95.5695 30.8277 96.7296 32.0338 97.8884 32.0338C100.09 32.0338 101.655 29.1062 101.655 25.9585C101.655 25.848 101.652 25.7381 101.648 25.629C103.977 27.2185 105.771 30.3517 108.852 30.3517C113.044 30.3517 114.709 21.9413 108.852 21.9413C104.869 21.9413 102.91 22.5189 101.222 23.3731C100.889 22.4393 100.381 21.6541 99.7604 21.1058C99.611 20.9385 99.382 20.7785 99.0865 20.6301C98.906 20.5318 98.719 20.4517 98.5269 20.3915C97.5087 20.0193 96.0339 19.7567 94.3864 19.6995C94.0789 19.6888 93.7767 19.6857 93.482 19.6896C93.4772 18.1454 92.2173 16.895 90.6639 16.895C89.1074 16.895 87.8457 18.1502 87.8457 19.6985C87.8457 21.1958 89.0257 22.419 90.5112 22.4979C91.361 22.7587 92.4527 22.9503 93.6634 23.031C93.5459 23.4708 93.482 23.9704 93.482 24.5349C93.482 25.0334 93.5373 25.5621 93.6392 26.0989C93.9018 25.7884 94.2529 25.5858 94.6093 25.5858C95.6062 25.5858 96.3002 26.4016 96.3002 27.2678C96.3002 28.3673 95.6622 29.1626 94.7309 29.2262Z" fill="#262626"/>
  <path fill-rule="evenodd" clip-rule="evenodd" d="M101.505 65.2754L91.791 99.1847L84.7039 124.178H79.5349L87.0659 65.2754H101.505Z" fill="#004364"/>
  <path fill-rule="evenodd" clip-rule="evenodd" d="M104.104 65.2754C104.328 82.7526 105.094 92.2853 105.33 93.8731C105.566 95.461 109.133 105.562 116.031 124.178H110.676C101.895 106.32 96.9926 96.218 95.97 93.8731C94.9474 91.5281 91.7914 81.9956 87.0381 65.2754H104.104Z" fill="#005F8D"/>
  <path fill-rule="evenodd" clip-rule="evenodd" d="M116.509 128.976L116.241 123.378H110.615C107.946 125.244 104.464 126.755 100.165 127.91V128.976H110.346L113.829 128.443V128.976H116.509Z" fill="#262626"/>
  <path fill-rule="evenodd" clip-rule="evenodd" d="M85.4322 128.976L85.1644 123.378H79.538C76.87 125.244 73.3871 126.755 69.089 127.91V128.976H79.2701L82.753 128.443V128.976H85.4322Z" fill="#262626"/>
  <path fill-rule="evenodd" clip-rule="evenodd" d="M114.475 56.4751L107.968 56.4994C115.103 72.473 118.824 80.8365 119.129 81.5899C119.817 83.2851 118.362 85.867 117.74 87.2544C119.766 88.1566 119.551 84.8155 122.107 85.9987C124.441 87.0788 126.216 89.0357 128.912 87.3808C129.244 87.1773 129.607 86.4112 128.73 85.8126C126.543 84.3211 123.391 81.7108 122.967 80.8517C122.385 79.68 119.555 71.5545 114.475 56.4751Z" fill="#D6A97F"/>
  <path d="M65.5218 51.9598L76.6272 56.0495L73.4303 60.699L64.9572 54.9766C60.8636 54.4828 58.9478 53.9594 59.21 53.4062C59.6031 52.5764 60.7493 53.052 61.105 52.5345C61.4607 52.0172 60.422 50.5517 59.3768 49.2033C58.3315 47.8549 59.2369 47.8498 59.7748 47.9854C61.5986 48.8601 63.5143 50.1849 65.5218 51.9598Z" fill="#D6A97F"/>
  <path fill-rule="evenodd" clip-rule="evenodd" d="M96.6515 35.9443L91.5565 36.2821C90.3017 47.5751 81.2961 60.6109 68.1642 52.2934L66.1312 66.8365C80.4339 68.6752 89.9111 70.6094 95.5481 47.5559C96.2136 43.5635 96.739 39.4085 96.6515 35.9443Z" fill="#B11030"/>
  <path fill-rule="evenodd" clip-rule="evenodd" d="M99.1658 34.4705L91.4462 36.2293C91.4462 49.4374 87.2168 57.8644 85.0475 67.5755H105.896C106.19 70.9311 106.37 74.38 106.464 77.9222H122.074C118.537 59.1987 111.07 44.7132 99.6755 34.4658H99.1698L99.1658 34.4705Z" fill="#FF7171"/>
  <path fill-rule="evenodd" clip-rule="evenodd" d="M102.605 48.7319C103.142 56.9624 102.826 63.2435 101.657 67.575H105.894C105.313 60.9277 104.286 54.6466 102.605 48.7319Z" fill="black" fill-opacity="0.1"/>
  <path d="M112.838 56.5938V55.8604C112.557 55.8604 112.3 56.0188 112.176 56.2691L112.838 56.5938ZM117.79 57.3273C118.197 57.3273 118.527 56.9989 118.527 56.5938C118.527 56.1887 118.197 55.8604 117.79 55.8604V57.3273ZM111.528 60.8896L113.498 56.9185L112.176 56.2691L110.205 60.2402L111.528 60.8896ZM112.838 57.3273H117.79V55.8604H112.838V57.3273Z" fill="#595959"/>
  <path d="M97.3577 56.5938V55.8604C97.6288 55.8604 97.8781 56.0084 98.0067 56.2458L97.3577 56.5938ZM92.4047 57.3273C91.9975 57.3273 91.6674 56.9989 91.6674 56.5938C91.6674 56.1887 91.9975 55.8604 92.4047 55.8604V57.3273ZM99.5129 62.1171L96.7087 56.9418L98.0067 56.2458L100.811 61.4211L99.5129 62.1171ZM97.3577 57.3273H92.4047V55.8604H97.3577V57.3273Z" fill="#595959"/>
  <path d="M110.428 60.063H101.649C101.445 60.063 101.238 60.0923 101.048 60.1664C97.4009 61.5869 99.1179 66.1066 100.472 68.2402H115.232C115.503 67.8563 116.205 66.7661 116.853 65.4762C117.46 64.2683 113.715 61.6864 111.398 60.3228C111.105 60.15 110.77 60.063 110.428 60.063Z" fill="#7E79D0"/>
  <path d="M116.92 65.3447C116.773 65.9152 115.515 67.9854 115.229 68.2389H100.328L99.1414 65.3447H116.92Z" fill="#47447C"/>
  <path d="M71.8989 84.1159V82.2827H60.969L57.7394 90.6641C52.4732 100.351 61.2586 112.657 66.3094 117.599H84.1942L86.8024 115.128H82.5796C69.7623 103.563 70.1186 89.6346 71.8989 84.1159Z" fill="#47447C"/>
  <path d="M83.323 116.849C97.7585 106.945 99.8466 80.2605 99.0861 68.1562H117.545L129.294 86.3966C130.133 87.6985 129.194 89.4078 127.639 89.4078H117.545C103.276 92.7091 96.1131 110.728 94.3156 119.325H59.0559C60.2172 89.9443 43.9151 84.6659 35.6189 85.5601V82.1863H61.9598V83.837L59.0559 91.0584C55.5714 100.632 63.8267 112.241 68.3899 116.849H83.323Z" fill="#7E79D0"/>
  <path d="M108.168 119.307C108.832 107.257 121.483 94.3601 127.705 89.2017H117.336C102.9 93.1633 95.8949 110.778 94.3046 119.307H108.168Z" fill="#47447C"/>
  <path d="M52.4063 115.501C52.4063 119.069 50.8835 122.304 48.6612 124.702C46.4159 127.126 43.7206 128.425 41.6384 128.551H41.6366H41.6263H41.6159H41.6056H41.5952H41.5848H41.5743H41.5639H41.5535H41.543H41.5325H41.5219H41.5114H41.5008H41.4902H41.4796H41.469H41.4584H41.4477H41.437H41.4263H41.4156H41.4049H41.3942H41.3834H41.3726H41.3618H41.3509H41.3401H41.3293H41.3184H41.3075H41.2965H41.2856H41.2747H41.2638H41.2527H41.2417H41.2308H41.2196H41.2086H41.1976H41.1864H41.1754H41.1643H41.1531H41.142H41.1307H41.1196H41.1083H41.0972H41.0859H41.0747H41.0633H41.0521H41.0408H41.0295H41.0181H41.0068H40.9954H40.984H40.9726H40.9612H40.9497H40.9383H40.9268H40.9153H40.9039H40.8924H40.8808H40.8692H40.8578H40.8462H40.8346H40.8229H40.8113H40.7997H40.7881H40.7764H40.7647H40.753H40.7413H40.7296H40.7178H40.7062H40.6944H40.6826H40.6708H40.659H40.6472H40.6354H40.6235H40.6116H40.5998H40.5879H40.576H40.564H40.5521H40.5401H40.5282H40.5162H40.5043H40.4923H40.4803H40.4683H40.4562H40.4441H40.4321H40.42H40.408H40.3958H40.3837H40.3716H40.3595H40.3473H40.3352H40.323H40.3108H40.2986H40.2864H40.2743H40.262H40.2497H40.2374H40.2252H40.213H40.2006H40.1884H40.1761H40.1637H40.1514H40.139H40.1267H40.1143H40.102H40.0895H40.0772H40.0648H40.0523H40.04H40.0275H40.015H40.0026H39.9901H39.9776H39.9651H39.9527H39.9401H39.9276H39.9151H39.9025H39.89H39.8774H39.8649H39.8523H39.8397H39.8271H39.8145H39.8018H39.7893H39.7766H39.7639H39.7514H39.7387H39.726H39.7134H39.7007H39.6879H39.6752H39.6626H39.6498H39.6371H39.6243H39.6116H39.5989H39.5861H39.5733H39.5605H39.5478H39.535H39.5222H39.5094H39.4965H39.4838H39.4709H39.4581H39.4452H39.4324H39.4195H39.4066H39.3937H39.381H39.3681H39.3552H39.3422H39.3293H39.3164H39.3035H39.2906H39.2776H39.2647H39.2517H39.2389H39.2259H39.2129H39.2H39.187H39.174H39.161H39.148H39.135H39.122H39.109H39.096H39.083H39.07H39.057H39.0439H39.0309H39.0179H39.0048H38.9918H38.9787H38.9657H38.9526H38.9395H38.9265H38.9134H38.9002H38.8871H38.8741H38.861H38.8479H38.8348H38.8217H38.8086H38.7955H38.7824H38.7692H38.7561H38.7429H38.7298H38.7167H38.7035H38.6904H38.6773H38.6641H38.651H38.6379H38.6247H38.6115H38.5983H38.5852H38.572H38.5589H38.5457H38.5325H38.5194H38.5061H38.4929H38.4798H38.4666H38.4534H38.4403H38.4271H38.4138H38.4006H38.3874H38.3743H38.3611H38.3479H38.3346H38.3214H38.3082H38.295H38.2819H38.2687H38.2555H38.2422H38.229H38.2158H38.2026H38.1894H38.1762H38.1629H38.1497H38.1365H38.1233H38.1101H38.0968H38.0836H38.0704H38.0573H38.0441H38.0309H38.0177H38.0044H37.9912H37.978H37.9648H37.9516H37.9384H37.9251H37.9119H37.8987H37.8855H37.8724H37.8592H37.8459H37.8327H37.8195H37.8063H37.7932H37.78H37.7668H37.7535H37.7404H37.7272H37.714H37.7009H37.6877H37.6745H37.6613H37.6481H37.6349H37.6218H37.6086H37.5955H37.5823H37.5692H37.556H37.5428H37.5297H37.5165H37.5034H37.4903H37.4772H37.464H37.4509H37.4377H37.4246H37.4115H37.3984H37.3853H37.3722H37.3591H37.346H37.3329H37.3198H37.3067H37.2936H37.2806H37.2675H37.2544H37.2414H37.2282H37.2152H37.2021H37.1891H37.176H37.163H37.1499H37.1369H37.1239H37.1109H37.0979H37.0849H37.0719H37.0589H37.0459H37.0329H37.0199H37.0069H36.9939H36.9811H36.9681H36.9552H36.9422H36.9293H36.9163H36.9034H36.8905H36.8775H36.8646H36.8517H36.8388H36.826H36.8131H36.8002H36.7874H36.7745H36.7616H36.7488H36.7359H36.7232H36.7103H36.6975H36.6847H36.6719H36.659H36.6463H36.6335H36.6207H36.608H36.5953H36.5825H36.5698H36.557H36.5444H36.5316H36.5189H36.5062H36.4935H36.4808H36.4681H36.4554H36.4429H36.4302H36.4175H36.405H36.3923H36.3797H36.3671H36.3545H36.3419H36.3294H36.3168H36.3043H36.2917H36.2791H36.2667H36.2541H36.2417H36.2291H36.2167H36.2042H36.1918H36.1793H36.1669H36.1544H36.1419H36.1296H36.1171H36.1048H36.0924H36.08H36.0677H36.0553H36.043H36.0306H36.0183H36.0061H35.9937H35.9815H35.9693H35.9569H35.9447H35.9324H35.9202H35.9081H35.8958H35.8836H35.8715H35.8594H35.8471H35.835H35.8229H35.8108H35.7987H35.7866H35.7745H35.7625H35.7505H35.7383H35.7263H35.7143H35.7023H35.6904H35.6784H35.6665H35.6544H35.6425H35.6306H35.6187H35.6068H35.5949H35.5831H35.5712H35.5594H35.5576C28.7325 127.646 25.2417 121.627 25.2417 115.501C25.2417 108.5 31.8251 102.45 39.2875 102.45C46.5329 102.45 52.4063 108.293 52.4063 115.501Z" stroke="#595959" stroke-width="5.4"/>
  <path d="M35.4796 128.551C42.7249 128.551 48.5984 122.708 48.5984 115.501C48.5984 108.293 42.7249 102.45 35.4796 102.45C28.2342 102.45 22.3607 108.293 22.3607 115.501C22.3607 122.708 28.2342 128.551 35.4796 128.551Z" stroke="#262626" stroke-width="5.4"/>
  <path d="M137.752 115.501C137.752 122.76 131.717 128.455 125.502 128.551H125.496H125.49H125.483H125.477H125.47H125.464H125.456H125.449H125.443H125.436H125.429H125.422H125.415H125.408H125.401H125.395H125.387H125.381H125.373H125.366H125.359H125.352H125.344H125.338H125.33H125.324H125.316H125.308H125.302H125.294H125.287H125.279H125.272H125.265H125.257H125.249H125.242H125.235H125.228H125.22H125.212H125.205H125.197H125.189H125.182H125.174H125.166H125.159H125.151H125.143H125.135H125.127H125.119H125.112H125.104H125.097H125.088H125.08H125.072H125.065H125.056H125.048H125.041H125.032H125.024H125.016H125.008H125H124.992H124.984H124.975H124.968H124.959H124.951H124.943H124.934H124.926H124.917H124.91H124.901H124.892H124.885H124.876H124.867H124.859H124.851H124.842H124.833H124.826H124.817H124.808H124.799H124.791H124.782H124.773H124.766H124.757H124.748H124.739H124.731H124.722H124.713H124.704H124.696H124.687H124.678H124.669H124.661H124.652H124.642H124.633H124.625H124.616H124.607H124.598H124.59H124.58H124.571H124.562H124.554H124.544H124.535H124.526H124.518H124.508H124.499H124.49H124.48H124.472H124.463H124.453H124.444H124.435H124.426H124.417H124.407H124.399H124.389H124.38H124.37H124.361H124.352H124.343H124.333H124.324H124.314H124.306H124.296H124.286H124.277H124.267H124.259H124.249H124.239H124.23H124.22H124.211H124.202H124.192H124.182H124.174H124.164H124.154H124.145H124.135H124.125H124.116H124.107H124.097H124.087H124.077H124.068H124.059H124.049H124.039H124.029H124.019H124.01H124.001H123.991H123.981H123.971H123.962H123.952H123.942H123.932H123.922H123.912H123.903H123.894H123.884H123.874H123.864H123.855H123.845H123.835H123.825H123.815H123.805H123.796H123.786H123.776H123.766H123.756H123.746H123.737H123.726H123.716H123.706H123.696H123.686H123.677H123.667H123.657H123.647H123.637H123.627H123.618H123.607H123.597H123.587H123.577H123.567H123.557H123.548H123.538H123.527H123.517H123.507H123.497H123.488H123.478H123.467H123.457H123.447H123.437H123.427H123.418H123.407H123.397H123.387H123.377H123.367H123.356H123.347H123.337H123.327H123.317H123.306H123.296H123.287H123.277H123.267H123.256H123.246H123.236H123.226H123.216H123.206H123.196H123.186H123.176H123.165H123.155H123.146H123.136H123.125H123.115H123.105H123.095H123.084H123.075H123.065H123.055H123.045H123.034H123.024H123.015H123.005H122.994H122.984H122.974H122.964H122.955H122.944H122.934H122.924H122.914H122.903H122.893H122.883H122.874H122.864H122.853H122.843H122.833H122.823H122.814H122.803H122.793H122.783H122.773H122.763H122.752H122.743H122.733H122.723H122.713H122.703H122.692H122.683H122.673H122.663H122.653H122.643H122.633H122.622H122.613H122.603H122.593H122.583H122.573H122.563H122.554H122.544H122.533H122.523H122.513H122.503H122.494H122.484H122.474H122.464H122.454H122.444H122.435H122.425H122.415H122.405H122.395H122.385H122.376H122.366H122.356H122.346H122.336H122.326H122.317H122.307H122.297H122.287H122.277H122.267H122.258H122.248H122.238H122.228H122.218H122.208H122.2H122.19H122.18H122.17H122.16H122.151H122.141H122.132H122.122H122.112H122.102H122.093H122.084H122.074H122.064H122.054H122.046H122.036H122.026H122.016H122.007H121.998H121.988H121.979H121.969H121.959H121.951H121.941H121.931H121.922H121.912H121.904H121.894H121.884H121.875H121.865H121.857H121.847H121.838H121.828H121.82H121.81H121.801H121.791H121.782H121.773H121.764H121.754H121.745H121.737H121.727H121.718H121.709H121.699H121.691H121.682H121.672H121.663H121.655H121.645H121.636H121.627H121.619H121.609H121.6H121.591H121.583H121.574H121.565H121.555H121.547H121.538H121.529H121.52H121.512H121.503H121.494H121.485H121.477H121.468H121.459H121.45H121.442H121.433H121.424H121.415H121.407H121.398H121.39H121.382H121.373H121.364H121.355H121.347H121.339H121.33H121.321H121.314H121.305H121.296H121.288H121.28H121.271H121.264H121.255H121.246H121.238H121.23H121.222H121.218C115.466 127.239 111.238 121.999 111.238 115.718C111.238 108.524 117.374 102.45 124.633 102.45C131.879 102.45 137.752 108.293 137.752 115.501Z" stroke="#595959" stroke-width="5.4"/>
  <path d="M120.826 128.551C128.071 128.551 133.944 122.708 133.944 115.501C133.944 108.293 128.071 102.45 120.826 102.45C113.58 102.45 107.707 108.293 107.707 115.501C107.707 122.708 113.58 128.551 120.826 128.551Z" stroke="#262626" stroke-width="5.4"/>
  <path d="M120.656 113.136L112.775 98.6926C112.775 93.4106 118.029 91.9526 120.656 91.8838L122.731 111.897L120.656 113.136Z" fill="#47447C"/>
  <path d="M122.163 119.325C124.568 119.325 126.518 117.385 126.518 114.992C126.518 112.599 124.568 110.659 122.163 110.659C119.757 110.659 117.807 112.599 117.807 114.992C117.807 117.385 119.757 119.325 122.163 119.325Z" fill="#47447C"/>
  <path d="M34.9683 119.325C37.3737 119.325 39.3237 117.385 39.3237 114.992C39.3237 112.599 37.3737 110.659 34.9683 110.659C32.5629 110.659 30.6129 112.599 30.6129 114.992C30.6129 117.385 32.5629 119.325 34.9683 119.325Z" fill="#7E79D0"/>
  <path d="M19.4399 106.326C18.7763 92.7915 29.8099 86.7938 35.4096 85.4869C56.3162 83.8359 59.884 107.358 59.0546 119.325C33.0041 119.821 21.7904 110.866 19.4399 106.326Z" fill="#B2AFEB"/>
  <path d="M32.5074 79.8702C32.5074 78.4922 33.6303 77.375 35.0157 77.375H64.2414V82.3654H35.0157C33.6303 82.3654 32.5074 81.2482 32.5074 79.8702Z" fill="#47447C"/>
  <path d="M64.2402 77.375H74.7414C76.1267 77.375 77.2496 78.4922 77.2496 79.8702C77.2496 81.2482 76.1267 82.3654 74.7414 82.3654H64.2402V77.375Z" fill="#7E79D0"/>
  <path d="M124.526 74.7857C124.526 78.4427 123.752 81.2961 120.794 81.2961C117.836 81.2961 113.814 77.5909 113.814 74.7857C113.814 71.7334 117.836 68.2192 120.794 68.2192C123.752 68.2192 124.526 71.1285 124.526 74.7857Z" fill="#47447C"/>
  <path d="M126.024 74.7782C126.024 78.2698 123.752 80.9109 121.16 80.9109C118.568 80.9109 116.295 78.2698 116.295 74.7782C116.295 71.2866 118.568 68.6455 121.16 68.6455C123.752 68.6455 126.024 71.2866 126.024 74.7782Z" fill="#FFF9D9" stroke="#7E79D0" stroke-width="0.9"/>
  <path d="M139.939 107.928H133.492C130.322 102.817 120.139 100.525 113.879 99.6574L113.877 98.4569C122.739 97.4681 135.859 102.706 139.939 106.508V107.928Z" fill="#47447C"/>
  <path d="M139.938 106.633H133.491C130.321 101.521 120.137 99.2293 113.877 98.3617L119.386 98.3616C129.384 97.246 137.82 102.915 139.938 106.633Z" fill="#B2AFEB"/>
</svg>