<svg width="48" height="48" viewBox="0 0 48 48" fill="none" xmlns="http://www.w3.org/2000/svg">
<path d="M48 24C48 37.2548 37.2548 48 24 48C10.7452 48 0 37.2548 0 24C0 10.7452 10.7452 0 24 0C37.2548 0 48 10.7452 48 24ZM3.768 24C3.768 35.1738 12.8262 44.232 24 44.232C35.1738 44.232 44.232 35.1738 44.232 24C44.232 12.8262 35.1738 3.768 24 3.768C12.8262 3.768 3.768 12.8262 3.768 24Z" fill="#E6E6E6"/>
<path d="M24 1.884C24 0.843496 24.8448 -0.00768726 25.8821 0.0739093C28.3892 0.271125 30.8538 0.861511 33.1844 1.82689C36.0962 3.033 38.742 4.80083 40.9706 7.02944C43.1992 9.25805 44.967 11.9038 46.1731 14.8156C47.1385 17.1462 47.7289 19.6108 47.9261 22.1179C48.0077 23.1552 47.1565 24 46.116 24C45.0755 24 44.2411 23.1547 44.1443 22.1187C43.9565 20.1069 43.4679 18.1309 42.6919 16.2576C41.6752 13.8029 40.1849 11.5725 38.3062 9.69382C36.4275 7.8151 34.1971 6.32482 31.7425 5.30807C29.8691 4.53211 27.8931 4.04354 25.8813 3.85566C24.8453 3.7589 24 2.9245 24 1.884Z" fill="#F26842"/>
<path d="M18.3164 26.6816V28H12.4805V26.875L15.2402 23.916C15.5176 23.6074 15.7363 23.3359 15.8965 23.1016C16.0566 22.8633 16.1719 22.6504 16.2422 22.4629C16.3164 22.2715 16.3535 22.0898 16.3535 21.918C16.3535 21.6602 16.3105 21.4395 16.2246 21.2559C16.1387 21.0684 16.0117 20.9238 15.8438 20.8223C15.6797 20.7207 15.4766 20.6699 15.2344 20.6699C14.9766 20.6699 14.7539 20.7324 14.5664 20.8574C14.3828 20.9824 14.2422 21.1562 14.1445 21.3789C14.0508 21.6016 14.0039 21.8535 14.0039 22.1348H12.3105C12.3105 21.627 12.4316 21.1621 12.6738 20.7402C12.916 20.3145 13.2578 19.9766 13.6992 19.7266C14.1406 19.4727 14.6641 19.3457 15.2695 19.3457C15.8672 19.3457 16.3711 19.4434 16.7812 19.6387C17.1953 19.8301 17.5078 20.1074 17.7188 20.4707C17.9336 20.8301 18.041 21.2598 18.041 21.7598C18.041 22.041 17.9961 22.3164 17.9062 22.5859C17.8164 22.8516 17.6875 23.1172 17.5195 23.3828C17.3555 23.6445 17.1562 23.9102 16.9219 24.1797C16.6875 24.4492 16.4277 24.7285 16.1426 25.0176L14.6602 26.6816H18.3164ZM26.0742 19.4688L22.9453 28.7324H21.6914L24.8203 19.4688H26.0742ZM30.9961 26.7168H31.1074C31.5762 26.7168 31.9785 26.6602 32.3145 26.5469C32.6543 26.4297 32.9336 26.2617 33.1523 26.043C33.3711 25.8242 33.5332 25.5566 33.6387 25.2402C33.7441 24.9199 33.7969 24.5566 33.7969 24.1504V22.5332C33.7969 22.2246 33.7656 21.9531 33.7031 21.7188C33.6445 21.4844 33.5586 21.291 33.4453 21.1387C33.3359 20.9824 33.207 20.8652 33.0586 20.7871C32.9141 20.709 32.7539 20.6699 32.5781 20.6699C32.3906 20.6699 32.2246 20.7168 32.0801 20.8105C31.9355 20.9004 31.8125 21.0234 31.7109 21.1797C31.6133 21.3359 31.5371 21.5156 31.4824 21.7188C31.4316 21.918 31.4062 22.127 31.4062 22.3457C31.4062 22.5645 31.4316 22.7734 31.4824 22.9727C31.5332 23.168 31.6094 23.3418 31.7109 23.4941C31.8125 23.6426 31.9395 23.7617 32.0918 23.8516C32.2441 23.9375 32.4238 23.9805 32.6309 23.9805C32.8301 23.9805 33.0078 23.9434 33.1641 23.8691C33.3242 23.791 33.459 23.6895 33.5684 23.5645C33.6816 23.4395 33.7676 23.3008 33.8262 23.1484C33.8887 22.9961 33.9199 22.8418 33.9199 22.6855L34.4766 22.9902C34.4766 23.2637 34.418 23.5332 34.3008 23.7988C34.1836 24.0645 34.0195 24.3066 33.8086 24.5254C33.6016 24.7402 33.3613 24.9121 33.0879 25.041C32.8145 25.1699 32.5215 25.2344 32.209 25.2344C31.8105 25.2344 31.457 25.1621 31.1484 25.0176C30.8398 24.8691 30.5781 24.666 30.3633 24.4082C30.1523 24.1465 29.9922 23.8418 29.8828 23.4941C29.7734 23.1465 29.7188 22.7695 29.7188 22.3633C29.7188 21.9492 29.7852 21.5605 29.918 21.1973C30.0547 20.834 30.248 20.5137 30.498 20.2363C30.752 19.959 31.0547 19.7422 31.4062 19.5859C31.7617 19.4258 32.1562 19.3457 32.5898 19.3457C33.0234 19.3457 33.418 19.4297 33.7734 19.5977C34.1289 19.7656 34.4336 20.0039 34.6875 20.3125C34.9414 20.6172 35.1367 20.9824 35.2734 21.4082C35.4141 21.834 35.4844 22.3066 35.4844 22.8262V23.4121C35.4844 23.9668 35.4238 24.4824 35.3027 24.959C35.1855 25.4355 35.0078 25.8672 34.7695 26.2539C34.5352 26.6367 34.2422 26.9648 33.8906 27.2383C33.543 27.5117 33.1387 27.7207 32.6777 27.8652C32.2168 28.0098 31.7012 28.082 31.1309 28.082H30.9961V26.7168Z" fill="#4C4C4C"/>
</svg>
