<svg width="355" height="181" viewBox="0 0 355 181" fill="none" xmlns="http://www.w3.org/2000/svg">
<g filter="url(#filter0_d_1008_2642)">
<ellipse cx="80.5418" cy="70.4815" rx="59.5339" ry="59.2362" transform="rotate(88.1152 80.5418 70.4815)" fill="white"/>
</g>
<g filter="url(#filter1_d_1008_2642)">
<path d="M132.311 99.4545C137.378 90.3275 140.116 79.7415 139.747 68.5332C138.666 35.6713 111.283 9.90376 78.5852 10.9797C45.8876 12.0557 20.2576 39.5678 21.339 72.4297C21.6482 81.8241 24.1068 90.6388 28.2247 98.4122" stroke="url(#paint0_linear_1008_2642)" stroke-width="6" stroke-linecap="round"/>
</g>
<g filter="url(#filter2_d_1008_2642)">
<circle cx="45.2887" cy="22.2887" r="4.15435" transform="rotate(88.1152 45.2887 22.2887)" fill="#FF8565"/>
<circle cx="45.2887" cy="22.2887" r="3.15435" transform="rotate(88.1152 45.2887 22.2887)" stroke="white" stroke-width="2"/>
</g>
<path d="M43.8373 46.9414V39.9414C44.2973 39.9414 44.764 39.9414 45.2373 39.9414C45.7107 39.9347 46.1773 39.9347 46.6373 39.9414C47.0107 39.9414 47.3473 40.0047 47.6473 40.1314C47.954 40.2514 48.214 40.4214 48.4273 40.6414C48.6407 40.8547 48.804 41.1081 48.9173 41.4014C49.0307 41.6947 49.0873 42.0081 49.0873 42.3414C49.0873 42.6747 49.0273 42.9881 48.9073 43.2814C48.794 43.5681 48.6307 43.8181 48.4173 44.0314C48.204 44.2447 47.944 44.4147 47.6373 44.5414C47.3373 44.6614 47.004 44.7214 46.6373 44.7214H44.6673V46.9414H43.8373ZM46.6373 43.9714C46.8707 43.9714 47.0873 43.9314 47.2873 43.8514C47.4873 43.7714 47.6607 43.6581 47.8073 43.5114C47.954 43.3647 48.0673 43.1914 48.1473 42.9914C48.234 42.7847 48.2773 42.5614 48.2773 42.3214C48.2773 42.0814 48.2373 41.8614 48.1573 41.6614C48.0773 41.4614 47.964 41.2914 47.8173 41.1514C47.6707 41.0047 47.4973 40.8914 47.2973 40.8114C47.0973 40.7247 46.8773 40.6814 46.6373 40.6814C46.3173 40.6747 45.9907 40.6747 45.6573 40.6814C45.3307 40.6814 44.9973 40.6814 44.6573 40.6814V43.9714H46.6373ZM51.0413 42.8114C51.1879 42.5314 51.3913 42.3347 51.6513 42.2214C51.9113 42.1014 52.1946 42.0414 52.5013 42.0414C52.9213 42.0414 53.2979 42.1614 53.6313 42.4014L53.4413 43.0614C53.2879 42.9614 53.1246 42.8847 52.9513 42.8314C52.7846 42.7714 52.6079 42.7414 52.4213 42.7414C52.2479 42.7414 52.0813 42.7714 51.9213 42.8314C51.7613 42.8914 51.6179 42.9747 51.4913 43.0814C51.3713 43.1881 51.2746 43.3214 51.2013 43.4814C51.1279 43.6347 51.0913 43.8047 51.0913 43.9914V46.9514H50.3213V43.3014C50.3213 43.1947 50.3179 43.0981 50.3113 43.0114C50.3046 42.9181 50.2813 42.8447 50.2413 42.7914C50.2079 42.7314 50.1513 42.6881 50.0713 42.6614C49.9913 42.6347 49.8813 42.6281 49.7413 42.6414L49.7313 42.1214C49.9179 42.0881 50.0879 42.0714 50.2413 42.0714C50.4013 42.0714 50.5379 42.0947 50.6513 42.1414C50.7713 42.1881 50.8646 42.2647 50.9313 42.3714C50.9979 42.4781 51.0346 42.6247 51.0413 42.8114ZM56.5012 42.0414C57.3278 42.0481 57.9212 42.2814 58.2812 42.7414C58.6412 43.1947 58.7545 43.8214 58.6212 44.6214H54.8112C54.7978 44.9014 54.8378 45.1514 54.9312 45.3714C55.0312 45.5847 55.1678 45.7681 55.3412 45.9214C55.5145 46.0747 55.7212 46.1914 55.9612 46.2714C56.2012 46.3514 56.4578 46.3914 56.7312 46.3914C57.0112 46.3914 57.2812 46.3614 57.5412 46.3014C57.8078 46.2414 58.0812 46.1547 58.3612 46.0414L58.4812 46.6314C57.9012 46.9047 57.3112 47.0414 56.7112 47.0414C56.3112 47.0414 55.9445 46.9814 55.6112 46.8614C55.2778 46.7414 54.9912 46.5681 54.7512 46.3414C54.5112 46.1147 54.3278 45.8414 54.2012 45.5214C54.0745 45.1947 54.0178 44.8247 54.0312 44.4114C54.0445 44.0314 54.1178 43.6947 54.2512 43.4014C54.3845 43.1081 54.5612 42.8614 54.7812 42.6614C55.0078 42.4547 55.2678 42.3014 55.5612 42.2014C55.8545 42.0947 56.1678 42.0414 56.5012 42.0414ZM56.5012 42.6614C56.0612 42.6614 55.6912 42.7781 55.3912 43.0114C55.0912 43.2447 54.9078 43.5814 54.8412 44.0214H57.9812C57.9945 43.7947 57.9645 43.5981 57.8912 43.4314C57.8178 43.2581 57.7145 43.1147 57.5812 43.0014C57.4478 42.8881 57.2878 42.8047 57.1012 42.7514C56.9145 42.6914 56.7145 42.6614 56.5012 42.6614ZM63.5283 45.9214C63.3616 46.2881 63.125 46.5647 62.8183 46.7514C62.5183 46.9381 62.175 47.0347 61.7883 47.0414C61.4283 47.0414 61.1083 46.9747 60.8283 46.8414C60.555 46.7081 60.325 46.5281 60.1383 46.3014C59.9516 46.0681 59.8083 45.8014 59.7083 45.5014C59.615 45.1947 59.5683 44.8714 59.5683 44.5314C59.5683 44.1447 59.6316 43.7981 59.7583 43.4914C59.885 43.1781 60.0516 42.9147 60.2583 42.7014C60.4716 42.4881 60.7183 42.3247 60.9983 42.2114C61.2783 42.0981 61.575 42.0414 61.8883 42.0414C62.1416 42.0414 62.395 42.0814 62.6483 42.1614C62.9016 42.2347 63.1516 42.3547 63.3983 42.5214V39.6314H64.1783V45.3614C64.1783 45.5214 64.175 45.6714 64.1683 45.8114C64.1616 45.9447 64.1716 46.0614 64.1983 46.1614C64.2316 46.2547 64.2883 46.3247 64.3683 46.3714C64.4483 46.4114 64.575 46.4214 64.7483 46.4014L64.7583 46.9714C64.565 47.0047 64.3916 47.0181 64.2383 47.0114C64.085 47.0047 63.955 46.9647 63.8483 46.8914C63.7416 46.8114 63.6616 46.6947 63.6083 46.5414C63.555 46.3881 63.5283 46.1814 63.5283 45.9214ZM63.4183 43.2414C63.185 43.0681 62.9416 42.9381 62.6883 42.8514C62.435 42.7647 62.1916 42.7247 61.9583 42.7314C61.7383 42.7314 61.5316 42.7714 61.3383 42.8514C61.145 42.9314 60.975 43.0481 60.8283 43.2014C60.6816 43.3547 60.565 43.5447 60.4783 43.7714C60.3983 43.9914 60.3583 44.2447 60.3583 44.5314C60.3583 44.7714 60.3883 45.0014 60.4483 45.2214C60.515 45.4414 60.6116 45.6347 60.7383 45.8014C60.865 45.9614 61.025 46.0914 61.2183 46.1914C61.4116 46.2914 61.6383 46.3414 61.8983 46.3414C62.125 46.3414 62.3316 46.2981 62.5183 46.2114C62.705 46.1247 62.8616 46.0114 62.9883 45.8714C63.1216 45.7247 63.225 45.5547 63.2983 45.3614C63.3716 45.1681 63.4116 44.9614 63.4183 44.7414V43.2414ZM65.8041 40.5414C65.8041 40.3747 65.8541 40.2514 65.9541 40.1714C66.0608 40.0914 66.1741 40.0514 66.2941 40.0514C66.4208 40.0514 66.5341 40.0914 66.6341 40.1714C66.7408 40.2514 66.7941 40.3747 66.7941 40.5414C66.7941 40.7081 66.7408 40.8347 66.6341 40.9214C66.5341 41.0014 66.4208 41.0414 66.2941 41.0414C66.1741 41.0414 66.0608 41.0014 65.9541 40.9214C65.8541 40.8347 65.8041 40.7081 65.8041 40.5414ZM66.6841 46.9514H65.9041V42.1314H66.6841V46.9514ZM71.9479 43.6314C71.8146 43.3314 71.6146 43.1081 71.3479 42.9614C71.0879 42.8147 70.8046 42.7414 70.4979 42.7414C70.2779 42.7414 70.0579 42.7781 69.8379 42.8514C69.6246 42.9247 69.4312 43.0347 69.2579 43.1814C69.0912 43.3281 68.9546 43.5147 68.8479 43.7414C68.7479 43.9614 68.6979 44.2214 68.6979 44.5214C68.6979 44.8214 68.7479 45.0847 68.8479 45.3114C68.9546 45.5381 69.0879 45.7281 69.2479 45.8814C69.4146 46.0347 69.6012 46.1514 69.8079 46.2314C70.0212 46.3114 70.2379 46.3514 70.4579 46.3514C70.7779 46.3514 71.0779 46.2681 71.3579 46.1014C71.6446 45.9347 71.8546 45.6814 71.9879 45.3414H72.7479C72.6746 45.6281 72.5612 45.8781 72.4079 46.0914C72.2546 46.3047 72.0746 46.4814 71.8679 46.6214C71.6612 46.7614 71.4346 46.8681 71.1879 46.9414C70.9479 47.0081 70.7012 47.0414 70.4479 47.0414C70.1346 47.0414 69.8246 46.9881 69.5179 46.8814C69.2179 46.7747 68.9479 46.6181 68.7079 46.4114C68.4679 46.1981 68.2746 45.9347 68.1279 45.6214C67.9812 45.3014 67.9079 44.9347 67.9079 44.5214C67.9079 44.1014 67.9812 43.7347 68.1279 43.4214C68.2812 43.1081 68.4779 42.8514 68.7179 42.6514C68.9579 42.4447 69.2312 42.2914 69.5379 42.1914C69.8446 42.0914 70.1546 42.0414 70.4679 42.0414C70.7146 42.0414 70.9546 42.0781 71.1879 42.1514C71.4212 42.2181 71.6379 42.3181 71.8379 42.4514C72.0379 42.5781 72.2112 42.7414 72.3579 42.9414C72.5112 43.1414 72.6246 43.3714 72.6979 43.6314H71.9479ZM75.172 42.1514H76.942V42.7214H75.172V45.1614C75.172 45.5947 75.2586 45.9114 75.432 46.1114C75.6053 46.3114 75.8486 46.4114 76.162 46.4114C76.422 46.4114 76.732 46.3447 77.092 46.2114L77.182 46.8214C76.7353 46.9681 76.3186 47.0414 75.932 47.0414C75.4586 47.0414 75.082 46.8947 74.802 46.6014C74.5286 46.3081 74.392 45.8347 74.392 45.1814V42.7214L73.362 42.6714V42.1514H74.442L74.522 40.6514H75.172V42.1514ZM80.2609 42.0414C81.0876 42.0481 81.6809 42.2814 82.0409 42.7414C82.4009 43.1947 82.5143 43.8214 82.3809 44.6214H78.5709C78.5576 44.9014 78.5976 45.1514 78.6909 45.3714C78.7909 45.5847 78.9276 45.7681 79.1009 45.9214C79.2743 46.0747 79.4809 46.1914 79.7209 46.2714C79.9609 46.3514 80.2176 46.3914 80.4909 46.3914C80.7709 46.3914 81.0409 46.3614 81.3009 46.3014C81.5676 46.2414 81.8409 46.1547 82.1209 46.0414L82.2409 46.6314C81.6609 46.9047 81.0709 47.0414 80.4709 47.0414C80.0709 47.0414 79.7043 46.9814 79.3709 46.8614C79.0376 46.7414 78.7509 46.5681 78.5109 46.3414C78.2709 46.1147 78.0876 45.8414 77.9609 45.5214C77.8343 45.1947 77.7776 44.8247 77.7909 44.4114C77.8043 44.0314 77.8776 43.6947 78.0109 43.4014C78.1443 43.1081 78.3209 42.8614 78.5409 42.6614C78.7676 42.4547 79.0276 42.3014 79.3209 42.2014C79.6143 42.0947 79.9276 42.0414 80.2609 42.0414ZM80.2609 42.6614C79.8209 42.6614 79.4509 42.7781 79.1509 43.0114C78.8509 43.2447 78.6676 43.5814 78.6009 44.0214H81.7409C81.7543 43.7947 81.7243 43.5981 81.6509 43.4314C81.5776 43.2581 81.4743 43.1147 81.3409 43.0014C81.2076 42.8881 81.0476 42.8047 80.8609 42.7514C80.6743 42.6914 80.4743 42.6614 80.2609 42.6614ZM87.2881 45.9214C87.1214 46.2881 86.8847 46.5647 86.5781 46.7514C86.2781 46.9381 85.9347 47.0347 85.5481 47.0414C85.1881 47.0414 84.8681 46.9747 84.5881 46.8414C84.3147 46.7081 84.0847 46.5281 83.8981 46.3014C83.7114 46.0681 83.5681 45.8014 83.4681 45.5014C83.3747 45.1947 83.3281 44.8714 83.3281 44.5314C83.3281 44.1447 83.3914 43.7981 83.5181 43.4914C83.6447 43.1781 83.8114 42.9147 84.0181 42.7014C84.2314 42.4881 84.4781 42.3247 84.7581 42.2114C85.0381 42.0981 85.3347 42.0414 85.6481 42.0414C85.9014 42.0414 86.1547 42.0814 86.4081 42.1614C86.6614 42.2347 86.9114 42.3547 87.1581 42.5214V39.6314H87.9381V45.3614C87.9381 45.5214 87.9347 45.6714 87.9281 45.8114C87.9214 45.9447 87.9314 46.0614 87.9581 46.1614C87.9914 46.2547 88.0481 46.3247 88.1281 46.3714C88.2081 46.4114 88.3347 46.4214 88.5081 46.4014L88.5181 46.9714C88.3247 47.0047 88.1514 47.0181 87.9981 47.0114C87.8447 47.0047 87.7147 46.9647 87.6081 46.8914C87.5014 46.8114 87.4214 46.6947 87.3681 46.5414C87.3147 46.3881 87.2881 46.1814 87.2881 45.9214ZM87.1781 43.2414C86.9447 43.0681 86.7014 42.9381 86.4481 42.8514C86.1947 42.7647 85.9514 42.7247 85.7181 42.7314C85.4981 42.7314 85.2914 42.7714 85.0981 42.8514C84.9047 42.9314 84.7347 43.0481 84.5881 43.2014C84.4414 43.3547 84.3247 43.5447 84.2381 43.7714C84.1581 43.9914 84.1181 44.2447 84.1181 44.5314C84.1181 44.7714 84.1481 45.0014 84.2081 45.2214C84.2747 45.4414 84.3714 45.6347 84.4981 45.8014C84.6247 45.9614 84.7847 46.0914 84.9781 46.1914C85.1714 46.2914 85.3981 46.3414 85.6581 46.3414C85.8847 46.3414 86.0914 46.2981 86.2781 46.2114C86.4647 46.1247 86.6214 46.0114 86.7481 45.8714C86.8814 45.7247 86.9847 45.5547 87.0581 45.3614C87.1314 45.1681 87.1714 44.9614 87.1781 44.7414V43.2414ZM92.7518 45.0414C92.7651 45.2747 92.8351 45.4747 92.9618 45.6414C93.0885 45.8014 93.2485 45.9314 93.4418 46.0314C93.6351 46.1314 93.8451 46.2047 94.0718 46.2514C94.3051 46.2914 94.5285 46.3114 94.7418 46.3114C94.9485 46.3114 95.1618 46.2914 95.3818 46.2514C95.6085 46.2114 95.8118 46.1414 95.9918 46.0414C96.1785 45.9414 96.3318 45.8081 96.4518 45.6414C96.5718 45.4681 96.6351 45.2547 96.6418 45.0014C96.6418 44.7214 96.5818 44.5047 96.4618 44.3514C96.3418 44.1914 96.1851 44.0714 95.9918 43.9914C95.7985 43.9047 95.5818 43.8481 95.3418 43.8214C95.1085 43.7881 94.8718 43.7547 94.6318 43.7214C94.3118 43.6881 93.9985 43.6381 93.6918 43.5714C93.3918 43.5047 93.1218 43.4047 92.8818 43.2714C92.6418 43.1314 92.4485 42.9514 92.3018 42.7314C92.1551 42.5047 92.0818 42.2147 92.0818 41.8614C92.0818 41.5147 92.1551 41.2181 92.3018 40.9714C92.4551 40.7181 92.6518 40.5114 92.8918 40.3514C93.1318 40.1847 93.4018 40.0614 93.7018 39.9814C94.0085 39.9014 94.3151 39.8614 94.6218 39.8614C94.9218 39.8614 95.2251 39.8981 95.5318 39.9714C95.8385 40.0381 96.1151 40.1481 96.3618 40.3014C96.6151 40.4481 96.8218 40.6414 96.9818 40.8814C97.1418 41.1214 97.2285 41.4114 97.2418 41.7514H96.4618C96.4418 41.5314 96.3718 41.3481 96.2518 41.2014C96.1385 41.0547 95.9951 40.9381 95.8218 40.8514C95.6485 40.7647 95.4585 40.7047 95.2518 40.6714C95.0451 40.6314 94.8418 40.6114 94.6418 40.6114C94.4485 40.6114 94.2485 40.6347 94.0418 40.6814C93.8418 40.7214 93.6551 40.7914 93.4818 40.8914C93.3151 40.9847 93.1785 41.1114 93.0718 41.2714C92.9651 41.4314 92.9118 41.6247 92.9118 41.8514C92.9118 42.1114 92.9685 42.3147 93.0818 42.4614C93.1951 42.6081 93.3418 42.7214 93.5218 42.8014C93.7018 42.8747 93.9018 42.9281 94.1218 42.9614C94.3418 42.9881 94.5585 43.0147 94.7718 43.0414C95.1185 43.0814 95.4518 43.1347 95.7718 43.2014C96.0985 43.2614 96.3851 43.3614 96.6318 43.5014C96.8851 43.6414 97.0851 43.8314 97.2318 44.0714C97.3851 44.3047 97.4618 44.6147 97.4618 45.0014C97.4618 45.3747 97.3785 45.6914 97.2118 45.9514C97.0518 46.2047 96.8418 46.4114 96.5818 46.5714C96.3218 46.7314 96.0318 46.8481 95.7118 46.9214C95.3918 46.9947 95.0718 47.0347 94.7518 47.0414C94.4251 47.0481 94.0985 47.0147 93.7718 46.9414C93.4451 46.8681 93.1485 46.7514 92.8818 46.5914C92.6151 46.4314 92.3951 46.2247 92.2218 45.9714C92.0485 45.7114 91.9551 45.4014 91.9418 45.0414H92.7518ZM102.417 43.6314C102.283 43.3314 102.083 43.1081 101.817 42.9614C101.557 42.8147 101.273 42.7414 100.967 42.7414C100.747 42.7414 100.527 42.7781 100.307 42.8514C100.093 42.9247 99.9 43.0347 99.7266 43.1814C99.56 43.3281 99.4233 43.5147 99.3166 43.7414C99.2166 43.9614 99.1666 44.2214 99.1666 44.5214C99.1666 44.8214 99.2166 45.0847 99.3166 45.3114C99.4233 45.5381 99.5566 45.7281 99.7166 45.8814C99.8833 46.0347 100.07 46.1514 100.277 46.2314C100.49 46.3114 100.707 46.3514 100.927 46.3514C101.247 46.3514 101.547 46.2681 101.827 46.1014C102.113 45.9347 102.323 45.6814 102.457 45.3414H103.217C103.143 45.6281 103.03 45.8781 102.877 46.0914C102.723 46.3047 102.543 46.4814 102.337 46.6214C102.13 46.7614 101.903 46.8681 101.657 46.9414C101.417 47.0081 101.17 47.0414 100.917 47.0414C100.603 47.0414 100.293 46.9881 99.9866 46.8814C99.6866 46.7747 99.4166 46.6181 99.1766 46.4114C98.9366 46.1981 98.7433 45.9347 98.5966 45.6214C98.45 45.3014 98.3766 44.9347 98.3766 44.5214C98.3766 44.1014 98.45 43.7347 98.5966 43.4214C98.75 43.1081 98.9466 42.8514 99.1866 42.6514C99.4266 42.4447 99.7 42.2914 100.007 42.1914C100.313 42.0914 100.623 42.0414 100.937 42.0414C101.183 42.0414 101.423 42.0781 101.657 42.1514C101.89 42.2181 102.107 42.3181 102.307 42.4514C102.507 42.5781 102.68 42.7414 102.827 42.9414C102.98 43.1414 103.093 43.3714 103.167 43.6314H102.417ZM109.131 44.5314C109.131 44.9514 109.057 45.3181 108.911 45.6314C108.764 45.9447 108.571 46.2081 108.331 46.4214C108.091 46.6281 107.817 46.7847 107.511 46.8914C107.204 46.9914 106.891 47.0414 106.571 47.0414C106.257 47.0414 105.947 46.9881 105.641 46.8814C105.341 46.7747 105.071 46.6181 104.831 46.4114C104.597 46.1981 104.407 45.9381 104.261 45.6314C104.121 45.3181 104.051 44.9514 104.051 44.5314C104.051 44.1114 104.124 43.7447 104.271 43.4314C104.417 43.1181 104.611 42.8614 104.851 42.6614C105.091 42.4547 105.361 42.3014 105.661 42.2014C105.967 42.0947 106.281 42.0414 106.601 42.0414C106.921 42.0414 107.231 42.0947 107.531 42.2014C107.837 42.3014 108.107 42.4547 108.341 42.6614C108.581 42.8681 108.771 43.1281 108.911 43.4414C109.057 43.7481 109.131 44.1114 109.131 44.5314ZM104.841 44.5314C104.841 44.8381 104.891 45.1081 104.991 45.3414C105.091 45.5747 105.224 45.7681 105.391 45.9214C105.557 46.0747 105.744 46.1914 105.951 46.2714C106.164 46.3514 106.381 46.3914 106.601 46.3914C106.821 46.3914 107.034 46.3514 107.241 46.2714C107.454 46.1914 107.641 46.0747 107.801 45.9214C107.967 45.7681 108.101 45.5747 108.201 45.3414C108.301 45.1081 108.351 44.8381 108.351 44.5314C108.351 44.2247 108.301 43.9581 108.201 43.7314C108.101 43.5047 107.967 43.3181 107.801 43.1714C107.634 43.0181 107.444 42.9047 107.231 42.8314C107.024 42.7514 106.811 42.7114 106.591 42.7114C106.371 42.7114 106.154 42.7514 105.941 42.8314C105.734 42.9047 105.547 43.0181 105.381 43.1714C105.221 43.3181 105.091 43.5047 104.991 43.7314C104.891 43.9581 104.841 44.2247 104.841 44.5314ZM111.207 42.8114C111.354 42.5314 111.557 42.3347 111.817 42.2214C112.077 42.1014 112.361 42.0414 112.667 42.0414C113.087 42.0414 113.464 42.1614 113.797 42.4014L113.607 43.0614C113.454 42.9614 113.291 42.8847 113.117 42.8314C112.951 42.7714 112.774 42.7414 112.587 42.7414C112.414 42.7414 112.247 42.7714 112.087 42.8314C111.927 42.8914 111.784 42.9747 111.657 43.0814C111.537 43.1881 111.441 43.3214 111.367 43.4814C111.294 43.6347 111.257 43.8047 111.257 43.9914V46.9514H110.487V43.3014C110.487 43.1947 110.484 43.0981 110.477 43.0114C110.471 42.9181 110.447 42.8447 110.407 42.7914C110.374 42.7314 110.317 42.6881 110.237 42.6614C110.157 42.6347 110.047 42.6281 109.907 42.6414L109.897 42.1214C110.084 42.0881 110.254 42.0714 110.407 42.0714C110.567 42.0714 110.704 42.0947 110.817 42.1414C110.937 42.1881 111.031 42.2647 111.097 42.3714C111.164 42.4781 111.201 42.6247 111.207 42.8114ZM116.667 42.0414C117.494 42.0481 118.087 42.2814 118.447 42.7414C118.807 43.1947 118.921 43.8214 118.787 44.6214H114.977C114.964 44.9014 115.004 45.1514 115.097 45.3714C115.197 45.5847 115.334 45.7681 115.507 45.9214C115.681 46.0747 115.887 46.1914 116.127 46.2714C116.367 46.3514 116.624 46.3914 116.897 46.3914C117.177 46.3914 117.447 46.3614 117.707 46.3014C117.974 46.2414 118.247 46.1547 118.527 46.0414L118.647 46.6314C118.067 46.9047 117.477 47.0414 116.877 47.0414C116.477 47.0414 116.111 46.9814 115.777 46.8614C115.444 46.7414 115.157 46.5681 114.917 46.3414C114.677 46.1147 114.494 45.8414 114.367 45.5214C114.241 45.1947 114.184 44.8247 114.197 44.4114C114.211 44.0314 114.284 43.6947 114.417 43.4014C114.551 43.1081 114.727 42.8614 114.947 42.6614C115.174 42.4547 115.434 42.3014 115.727 42.2014C116.021 42.0947 116.334 42.0414 116.667 42.0414ZM116.667 42.6614C116.227 42.6614 115.857 42.7781 115.557 43.0114C115.257 43.2447 115.074 43.5814 115.007 44.0214H118.147C118.161 43.7947 118.131 43.5981 118.057 43.4314C117.984 43.2581 117.881 43.1147 117.747 43.0014C117.614 42.8881 117.454 42.8047 117.267 42.7514C117.081 42.6914 116.881 42.6614 116.667 42.6614Z" fill="#434343"/>
<path d="M63.1882 66.1867L63.1516 69.0664C63.7288 68.9778 64.3293 68.9374 64.9773 68.9456C68.5041 69.0624 71.3188 70.4423 71.2649 74.6899C71.2274 77.6417 69.0811 80.3266 65.3134 80.2788C62.1697 80.2389 59.8182 78.2889 59.6668 75.0947L62.8105 75.1346C62.9131 76.504 63.8654 77.1162 65.2813 77.1341C67.0332 77.1564 67.7908 76.0859 67.8088 74.67C67.8597 70.6624 62.7836 71.582 60.1642 71.8367L60.2742 63.1734L70.5694 63.3042L70.5316 66.2799L63.1882 66.1867ZM80.3644 63.1885C83.7961 63.2321 86.5771 65.3796 86.531 69.0033L86.4579 74.7629C86.4116 78.4106 83.5767 80.5107 80.145 80.4671C76.6652 80.423 73.8846 78.2515 73.9309 74.6038L74.0041 68.8442C74.0501 65.2205 76.8847 63.1444 80.3644 63.1885ZM80.1849 77.3234C81.6488 77.342 82.8347 76.565 83.0213 75.1032C83.0745 74.6959 83.104 74.2642 83.1104 73.7603L83.1588 69.9446C83.1649 69.4646 83.1467 69.0083 83.1042 68.5758C82.9554 67.0618 81.7883 66.3509 80.3245 66.3323C78.7886 66.3128 77.6518 66.9944 77.4647 68.5041C77.4112 68.9355 77.3814 69.3912 77.3753 69.8711L77.3268 73.6868C77.3204 74.1908 77.3389 74.623 77.3818 75.0316C77.5312 76.4976 78.649 77.3039 80.1849 77.3234ZM96.0194 63.3874C99.4511 63.4309 102.232 65.5784 102.186 69.2021L102.113 74.9617C102.067 78.6094 99.2317 80.7095 95.7999 80.666C92.3202 80.6218 89.5396 78.4503 89.5859 74.8026L89.659 69.043C89.7051 65.4193 92.5397 63.3432 96.0194 63.3874ZM95.8399 77.5222C97.3038 77.5408 98.4897 76.7638 98.6763 75.3021C98.7295 74.8947 98.759 74.463 98.7654 73.9591L98.8138 70.1434C98.8199 69.6634 98.8017 69.2072 98.7592 68.7746C98.6104 67.2606 97.4433 66.5497 95.9795 66.5311C94.4436 66.5116 93.3068 67.1932 93.1196 68.703C93.0662 69.1343 93.0364 69.59 93.0303 70.0699L92.9818 73.8856C92.9754 74.3896 92.9939 74.8219 93.0367 75.2304C93.1861 76.6964 94.304 77.5027 95.8399 77.5222Z" fill="#FF8565"/>
<path d="M66.1546 99.5562L64.3548 99.5334L64.4614 91.1341C65.6615 91.1373 66.8492 91.1644 68.0491 91.1796C70.005 91.2045 71.0182 92.6934 70.998 94.2773C70.9782 95.8372 69.8925 97.2275 67.9726 97.2031L66.1848 97.1804L66.1546 99.5562ZM66.1683 95.6441L67.9921 95.6673C68.7601 95.677 69.2726 95.0115 69.2828 94.2075C69.2927 93.4276 68.8211 92.7616 68.0292 92.7515C67.4174 92.7317 66.8173 92.7361 66.2053 92.7283L66.1683 95.6441ZM80.3699 95.5484C80.3375 98.1042 78.5512 99.8457 76.0074 99.8134C73.7636 99.7849 71.7547 98.2712 71.7906 95.4395C71.8266 92.6077 73.9213 91.1462 76.1531 91.1745C78.349 91.2024 80.4057 92.7287 80.3699 95.5484ZM73.6025 95.4625C73.5792 97.2983 74.7084 98.1527 76.0523 98.1698C77.3602 98.1864 78.5588 97.3616 78.5821 95.5257C78.6048 93.7379 77.44 92.847 76.1321 92.8304C74.8122 92.8136 73.625 93.6866 73.6025 95.4625ZM89.9551 95.6702C89.9226 98.226 88.1364 99.9674 85.5926 99.9351C83.3488 99.9066 81.3398 98.393 81.3758 95.5612C81.4118 92.7294 83.5065 91.2679 85.7383 91.2963C87.9341 91.3241 89.9909 92.8504 89.9551 95.6702ZM83.1876 95.5842C83.1643 97.4201 84.2936 98.2745 85.6375 98.2915C86.9454 98.3082 88.1439 97.4833 88.1672 95.6475C88.1899 93.8596 87.0252 92.9687 85.7173 92.9521C84.3974 92.9354 83.2102 93.8084 83.1876 95.5842ZM96.478 96.8931L98.3384 99.7129L98.3352 99.9649L96.4153 99.9405L94.7227 97.1468L93.2228 97.1278L93.1876 99.8996L91.3877 99.8767L91.4944 91.4774C92.6943 91.4926 93.8824 91.4957 95.0821 91.5229C97.002 91.5473 98.0282 92.9525 98.0093 94.4403C97.9957 95.5083 97.4439 96.4373 96.478 96.8931ZM93.2175 95.6516L95.0174 95.6744C95.7733 95.684 96.2728 95.1023 96.2699 94.3822C96.2789 93.6743 95.8181 93.1044 95.0501 93.0947L93.2503 93.0718L93.2175 95.6516Z" fill="#FF8565"/>
<g filter="url(#filter3_d_1008_2642)">
<ellipse cx="269.542" cy="70.4815" rx="59.5339" ry="59.2362" transform="rotate(88.1152 269.542 70.4815)" fill="white"/>
</g>
<g filter="url(#filter4_d_1008_2642)">
<path d="M321.311 99.4545C326.378 90.3275 329.116 79.7415 328.747 68.5332C327.666 35.6713 300.283 9.90376 267.585 10.9797C234.888 12.0557 209.258 39.5678 210.339 72.4297C210.648 81.8241 213.107 90.6388 217.225 98.4122" stroke="url(#paint1_linear_1008_2642)" stroke-width="6" stroke-linecap="round"/>
</g>
<g filter="url(#filter5_d_1008_2642)">
<circle cx="215.289" cy="45.2887" r="4.15435" transform="rotate(88.1152 215.289 45.2887)" fill="#FF6657"/>
<circle cx="215.289" cy="45.2887" r="3.15435" transform="rotate(88.1152 215.289 45.2887)" stroke="white" stroke-width="2"/>
</g>
<path d="M232.837 46.9414V39.9414C233.297 39.9414 233.764 39.9414 234.237 39.9414C234.711 39.9347 235.177 39.9347 235.637 39.9414C236.011 39.9414 236.347 40.0047 236.647 40.1314C236.954 40.2514 237.214 40.4214 237.427 40.6414C237.641 40.8547 237.804 41.1081 237.917 41.4014C238.031 41.6947 238.087 42.0081 238.087 42.3414C238.087 42.6747 238.027 42.9881 237.907 43.2814C237.794 43.5681 237.631 43.8181 237.417 44.0314C237.204 44.2447 236.944 44.4147 236.637 44.5414C236.337 44.6614 236.004 44.7214 235.637 44.7214H233.667V46.9414H232.837ZM235.637 43.9714C235.871 43.9714 236.087 43.9314 236.287 43.8514C236.487 43.7714 236.661 43.6581 236.807 43.5114C236.954 43.3647 237.067 43.1914 237.147 42.9914C237.234 42.7847 237.277 42.5614 237.277 42.3214C237.277 42.0814 237.237 41.8614 237.157 41.6614C237.077 41.4614 236.964 41.2914 236.817 41.1514C236.671 41.0047 236.497 40.8914 236.297 40.8114C236.097 40.7247 235.877 40.6814 235.637 40.6814C235.317 40.6747 234.991 40.6747 234.657 40.6814C234.331 40.6814 233.997 40.6814 233.657 40.6814V43.9714H235.637ZM240.041 42.8114C240.188 42.5314 240.391 42.3347 240.651 42.2214C240.911 42.1014 241.195 42.0414 241.501 42.0414C241.921 42.0414 242.298 42.1614 242.631 42.4014L242.441 43.0614C242.288 42.9614 242.125 42.8847 241.951 42.8314C241.785 42.7714 241.608 42.7414 241.421 42.7414C241.248 42.7414 241.081 42.7714 240.921 42.8314C240.761 42.8914 240.618 42.9747 240.491 43.0814C240.371 43.1881 240.275 43.3214 240.201 43.4814C240.128 43.6347 240.091 43.8047 240.091 43.9914V46.9514H239.321V43.3014C239.321 43.1947 239.318 43.0981 239.311 43.0114C239.305 42.9181 239.281 42.8447 239.241 42.7914C239.208 42.7314 239.151 42.6881 239.071 42.6614C238.991 42.6347 238.881 42.6281 238.741 42.6414L238.731 42.1214C238.918 42.0881 239.088 42.0714 239.241 42.0714C239.401 42.0714 239.538 42.0947 239.651 42.1414C239.771 42.1881 239.865 42.2647 239.931 42.3714C239.998 42.4781 240.035 42.6247 240.041 42.8114ZM245.501 42.0414C246.328 42.0481 246.921 42.2814 247.281 42.7414C247.641 43.1947 247.755 43.8214 247.621 44.6214H243.811C243.798 44.9014 243.838 45.1514 243.931 45.3714C244.031 45.5847 244.168 45.7681 244.341 45.9214C244.515 46.0747 244.721 46.1914 244.961 46.2714C245.201 46.3514 245.458 46.3914 245.731 46.3914C246.011 46.3914 246.281 46.3614 246.541 46.3014C246.808 46.2414 247.081 46.1547 247.361 46.0414L247.481 46.6314C246.901 46.9047 246.311 47.0414 245.711 47.0414C245.311 47.0414 244.945 46.9814 244.611 46.8614C244.278 46.7414 243.991 46.5681 243.751 46.3414C243.511 46.1147 243.328 45.8414 243.201 45.5214C243.075 45.1947 243.018 44.8247 243.031 44.4114C243.045 44.0314 243.118 43.6947 243.251 43.4014C243.385 43.1081 243.561 42.8614 243.781 42.6614C244.008 42.4547 244.268 42.3014 244.561 42.2014C244.855 42.0947 245.168 42.0414 245.501 42.0414ZM245.501 42.6614C245.061 42.6614 244.691 42.7781 244.391 43.0114C244.091 43.2447 243.908 43.5814 243.841 44.0214H246.981C246.995 43.7947 246.965 43.5981 246.891 43.4314C246.818 43.2581 246.715 43.1147 246.581 43.0014C246.448 42.8881 246.288 42.8047 246.101 42.7514C245.915 42.6914 245.715 42.6614 245.501 42.6614ZM252.528 45.9214C252.362 46.2881 252.125 46.5647 251.818 46.7514C251.518 46.9381 251.175 47.0347 250.788 47.0414C250.428 47.0414 250.108 46.9747 249.828 46.8414C249.555 46.7081 249.325 46.5281 249.138 46.3014C248.952 46.0681 248.808 45.8014 248.708 45.5014C248.615 45.1947 248.568 44.8714 248.568 44.5314C248.568 44.1447 248.632 43.7981 248.758 43.4914C248.885 43.1781 249.052 42.9147 249.258 42.7014C249.472 42.4881 249.718 42.3247 249.998 42.2114C250.278 42.0981 250.575 42.0414 250.888 42.0414C251.142 42.0414 251.395 42.0814 251.648 42.1614C251.902 42.2347 252.152 42.3547 252.398 42.5214V39.6314H253.178V45.3614C253.178 45.5214 253.175 45.6714 253.168 45.8114C253.162 45.9447 253.172 46.0614 253.198 46.1614C253.232 46.2547 253.288 46.3247 253.368 46.3714C253.448 46.4114 253.575 46.4214 253.748 46.4014L253.758 46.9714C253.565 47.0047 253.392 47.0181 253.238 47.0114C253.085 47.0047 252.955 46.9647 252.848 46.8914C252.742 46.8114 252.662 46.6947 252.608 46.5414C252.555 46.3881 252.528 46.1814 252.528 45.9214ZM252.418 43.2414C252.185 43.0681 251.942 42.9381 251.688 42.8514C251.435 42.7647 251.192 42.7247 250.958 42.7314C250.738 42.7314 250.532 42.7714 250.338 42.8514C250.145 42.9314 249.975 43.0481 249.828 43.2014C249.682 43.3547 249.565 43.5447 249.478 43.7714C249.398 43.9914 249.358 44.2447 249.358 44.5314C249.358 44.7714 249.388 45.0014 249.448 45.2214C249.515 45.4414 249.612 45.6347 249.738 45.8014C249.865 45.9614 250.025 46.0914 250.218 46.1914C250.412 46.2914 250.638 46.3414 250.898 46.3414C251.125 46.3414 251.332 46.2981 251.518 46.2114C251.705 46.1247 251.862 46.0114 251.988 45.8714C252.122 45.7247 252.225 45.5547 252.298 45.3614C252.372 45.1681 252.412 44.9614 252.418 44.7414V43.2414ZM254.804 40.5414C254.804 40.3747 254.854 40.2514 254.954 40.1714C255.061 40.0914 255.174 40.0514 255.294 40.0514C255.421 40.0514 255.534 40.0914 255.634 40.1714C255.741 40.2514 255.794 40.3747 255.794 40.5414C255.794 40.7081 255.741 40.8347 255.634 40.9214C255.534 41.0014 255.421 41.0414 255.294 41.0414C255.174 41.0414 255.061 41.0014 254.954 40.9214C254.854 40.8347 254.804 40.7081 254.804 40.5414ZM255.684 46.9514H254.904V42.1314H255.684V46.9514ZM260.948 43.6314C260.815 43.3314 260.615 43.1081 260.348 42.9614C260.088 42.8147 259.805 42.7414 259.498 42.7414C259.278 42.7414 259.058 42.7781 258.838 42.8514C258.625 42.9247 258.431 43.0347 258.258 43.1814C258.091 43.3281 257.955 43.5147 257.848 43.7414C257.748 43.9614 257.698 44.2214 257.698 44.5214C257.698 44.8214 257.748 45.0847 257.848 45.3114C257.955 45.5381 258.088 45.7281 258.248 45.8814C258.415 46.0347 258.601 46.1514 258.808 46.2314C259.021 46.3114 259.238 46.3514 259.458 46.3514C259.778 46.3514 260.078 46.2681 260.358 46.1014C260.645 45.9347 260.855 45.6814 260.988 45.3414H261.748C261.675 45.6281 261.561 45.8781 261.408 46.0914C261.255 46.3047 261.075 46.4814 260.868 46.6214C260.661 46.7614 260.435 46.8681 260.188 46.9414C259.948 47.0081 259.701 47.0414 259.448 47.0414C259.135 47.0414 258.825 46.9881 258.518 46.8814C258.218 46.7747 257.948 46.6181 257.708 46.4114C257.468 46.1981 257.275 45.9347 257.128 45.6214C256.981 45.3014 256.908 44.9347 256.908 44.5214C256.908 44.1014 256.981 43.7347 257.128 43.4214C257.281 43.1081 257.478 42.8514 257.718 42.6514C257.958 42.4447 258.231 42.2914 258.538 42.1914C258.845 42.0914 259.155 42.0414 259.468 42.0414C259.715 42.0414 259.955 42.0781 260.188 42.1514C260.421 42.2181 260.638 42.3181 260.838 42.4514C261.038 42.5781 261.211 42.7414 261.358 42.9414C261.511 43.1414 261.625 43.3714 261.698 43.6314H260.948ZM264.172 42.1514H265.942V42.7214H264.172V45.1614C264.172 45.5947 264.259 45.9114 264.432 46.1114C264.605 46.3114 264.849 46.4114 265.162 46.4114C265.422 46.4114 265.732 46.3447 266.092 46.2114L266.182 46.8214C265.735 46.9681 265.319 47.0414 264.932 47.0414C264.459 47.0414 264.082 46.8947 263.802 46.6014C263.529 46.3081 263.392 45.8347 263.392 45.1814V42.7214L262.362 42.6714V42.1514H263.442L263.522 40.6514H264.172V42.1514ZM269.261 42.0414C270.088 42.0481 270.681 42.2814 271.041 42.7414C271.401 43.1947 271.514 43.8214 271.381 44.6214H267.571C267.558 44.9014 267.598 45.1514 267.691 45.3714C267.791 45.5847 267.928 45.7681 268.101 45.9214C268.274 46.0747 268.481 46.1914 268.721 46.2714C268.961 46.3514 269.218 46.3914 269.491 46.3914C269.771 46.3914 270.041 46.3614 270.301 46.3014C270.568 46.2414 270.841 46.1547 271.121 46.0414L271.241 46.6314C270.661 46.9047 270.071 47.0414 269.471 47.0414C269.071 47.0414 268.704 46.9814 268.371 46.8614C268.038 46.7414 267.751 46.5681 267.511 46.3414C267.271 46.1147 267.088 45.8414 266.961 45.5214C266.834 45.1947 266.778 44.8247 266.791 44.4114C266.804 44.0314 266.878 43.6947 267.011 43.4014C267.144 43.1081 267.321 42.8614 267.541 42.6614C267.768 42.4547 268.028 42.3014 268.321 42.2014C268.614 42.0947 268.928 42.0414 269.261 42.0414ZM269.261 42.6614C268.821 42.6614 268.451 42.7781 268.151 43.0114C267.851 43.2447 267.668 43.5814 267.601 44.0214H270.741C270.754 43.7947 270.724 43.5981 270.651 43.4314C270.578 43.2581 270.474 43.1147 270.341 43.0014C270.208 42.8881 270.048 42.8047 269.861 42.7514C269.674 42.6914 269.474 42.6614 269.261 42.6614ZM276.288 45.9214C276.121 46.2881 275.885 46.5647 275.578 46.7514C275.278 46.9381 274.935 47.0347 274.548 47.0414C274.188 47.0414 273.868 46.9747 273.588 46.8414C273.315 46.7081 273.085 46.5281 272.898 46.3014C272.711 46.0681 272.568 45.8014 272.468 45.5014C272.375 45.1947 272.328 44.8714 272.328 44.5314C272.328 44.1447 272.391 43.7981 272.518 43.4914C272.645 43.1781 272.811 42.9147 273.018 42.7014C273.231 42.4881 273.478 42.3247 273.758 42.2114C274.038 42.0981 274.335 42.0414 274.648 42.0414C274.901 42.0414 275.155 42.0814 275.408 42.1614C275.661 42.2347 275.911 42.3547 276.158 42.5214V39.6314H276.938V45.3614C276.938 45.5214 276.935 45.6714 276.928 45.8114C276.921 45.9447 276.931 46.0614 276.958 46.1614C276.991 46.2547 277.048 46.3247 277.128 46.3714C277.208 46.4114 277.335 46.4214 277.508 46.4014L277.518 46.9714C277.325 47.0047 277.151 47.0181 276.998 47.0114C276.845 47.0047 276.715 46.9647 276.608 46.8914C276.501 46.8114 276.421 46.6947 276.368 46.5414C276.315 46.3881 276.288 46.1814 276.288 45.9214ZM276.178 43.2414C275.945 43.0681 275.701 42.9381 275.448 42.8514C275.195 42.7647 274.951 42.7247 274.718 42.7314C274.498 42.7314 274.291 42.7714 274.098 42.8514C273.905 42.9314 273.735 43.0481 273.588 43.2014C273.441 43.3547 273.325 43.5447 273.238 43.7714C273.158 43.9914 273.118 44.2447 273.118 44.5314C273.118 44.7714 273.148 45.0014 273.208 45.2214C273.275 45.4414 273.371 45.6347 273.498 45.8014C273.625 45.9614 273.785 46.0914 273.978 46.1914C274.171 46.2914 274.398 46.3414 274.658 46.3414C274.885 46.3414 275.091 46.2981 275.278 46.2114C275.465 46.1247 275.621 46.0114 275.748 45.8714C275.881 45.7247 275.985 45.5547 276.058 45.3614C276.131 45.1681 276.171 44.9614 276.178 44.7414V43.2414ZM281.752 45.0414C281.765 45.2747 281.835 45.4747 281.962 45.6414C282.088 45.8014 282.248 45.9314 282.442 46.0314C282.635 46.1314 282.845 46.2047 283.072 46.2514C283.305 46.2914 283.528 46.3114 283.742 46.3114C283.948 46.3114 284.162 46.2914 284.382 46.2514C284.608 46.2114 284.812 46.1414 284.992 46.0414C285.178 45.9414 285.332 45.8081 285.452 45.6414C285.572 45.4681 285.635 45.2547 285.642 45.0014C285.642 44.7214 285.582 44.5047 285.462 44.3514C285.342 44.1914 285.185 44.0714 284.992 43.9914C284.798 43.9047 284.582 43.8481 284.342 43.8214C284.108 43.7881 283.872 43.7547 283.632 43.7214C283.312 43.6881 282.998 43.6381 282.692 43.5714C282.392 43.5047 282.122 43.4047 281.882 43.2714C281.642 43.1314 281.448 42.9514 281.302 42.7314C281.155 42.5047 281.082 42.2147 281.082 41.8614C281.082 41.5147 281.155 41.2181 281.302 40.9714C281.455 40.7181 281.652 40.5114 281.892 40.3514C282.132 40.1847 282.402 40.0614 282.702 39.9814C283.008 39.9014 283.315 39.8614 283.622 39.8614C283.922 39.8614 284.225 39.8981 284.532 39.9714C284.838 40.0381 285.115 40.1481 285.362 40.3014C285.615 40.4481 285.822 40.6414 285.982 40.8814C286.142 41.1214 286.228 41.4114 286.242 41.7514H285.462C285.442 41.5314 285.372 41.3481 285.252 41.2014C285.138 41.0547 284.995 40.9381 284.822 40.8514C284.648 40.7647 284.458 40.7047 284.252 40.6714C284.045 40.6314 283.842 40.6114 283.642 40.6114C283.448 40.6114 283.248 40.6347 283.042 40.6814C282.842 40.7214 282.655 40.7914 282.482 40.8914C282.315 40.9847 282.178 41.1114 282.072 41.2714C281.965 41.4314 281.912 41.6247 281.912 41.8514C281.912 42.1114 281.968 42.3147 282.082 42.4614C282.195 42.6081 282.342 42.7214 282.522 42.8014C282.702 42.8747 282.902 42.9281 283.122 42.9614C283.342 42.9881 283.558 43.0147 283.772 43.0414C284.118 43.0814 284.452 43.1347 284.772 43.2014C285.098 43.2614 285.385 43.3614 285.632 43.5014C285.885 43.6414 286.085 43.8314 286.232 44.0714C286.385 44.3047 286.462 44.6147 286.462 45.0014C286.462 45.3747 286.378 45.6914 286.212 45.9514C286.052 46.2047 285.842 46.4114 285.582 46.5714C285.322 46.7314 285.032 46.8481 284.712 46.9214C284.392 46.9947 284.072 47.0347 283.752 47.0414C283.425 47.0481 283.098 47.0147 282.772 46.9414C282.445 46.8681 282.148 46.7514 281.882 46.5914C281.615 46.4314 281.395 46.2247 281.222 45.9714C281.048 45.7114 280.955 45.4014 280.942 45.0414H281.752ZM291.417 43.6314C291.283 43.3314 291.083 43.1081 290.817 42.9614C290.557 42.8147 290.273 42.7414 289.967 42.7414C289.747 42.7414 289.527 42.7781 289.307 42.8514C289.093 42.9247 288.9 43.0347 288.727 43.1814C288.56 43.3281 288.423 43.5147 288.317 43.7414C288.217 43.9614 288.167 44.2214 288.167 44.5214C288.167 44.8214 288.217 45.0847 288.317 45.3114C288.423 45.5381 288.557 45.7281 288.717 45.8814C288.883 46.0347 289.07 46.1514 289.277 46.2314C289.49 46.3114 289.707 46.3514 289.927 46.3514C290.247 46.3514 290.547 46.2681 290.827 46.1014C291.113 45.9347 291.323 45.6814 291.457 45.3414H292.217C292.143 45.6281 292.03 45.8781 291.877 46.0914C291.723 46.3047 291.543 46.4814 291.337 46.6214C291.13 46.7614 290.903 46.8681 290.657 46.9414C290.417 47.0081 290.17 47.0414 289.917 47.0414C289.603 47.0414 289.293 46.9881 288.987 46.8814C288.687 46.7747 288.417 46.6181 288.177 46.4114C287.937 46.1981 287.743 45.9347 287.597 45.6214C287.45 45.3014 287.377 44.9347 287.377 44.5214C287.377 44.1014 287.45 43.7347 287.597 43.4214C287.75 43.1081 287.947 42.8514 288.187 42.6514C288.427 42.4447 288.7 42.2914 289.007 42.1914C289.313 42.0914 289.623 42.0414 289.937 42.0414C290.183 42.0414 290.423 42.0781 290.657 42.1514C290.89 42.2181 291.107 42.3181 291.307 42.4514C291.507 42.5781 291.68 42.7414 291.827 42.9414C291.98 43.1414 292.093 43.3714 292.167 43.6314H291.417ZM298.131 44.5314C298.131 44.9514 298.057 45.3181 297.911 45.6314C297.764 45.9447 297.571 46.2081 297.331 46.4214C297.091 46.6281 296.817 46.7847 296.511 46.8914C296.204 46.9914 295.891 47.0414 295.571 47.0414C295.257 47.0414 294.947 46.9881 294.641 46.8814C294.341 46.7747 294.071 46.6181 293.831 46.4114C293.597 46.1981 293.407 45.9381 293.261 45.6314C293.121 45.3181 293.051 44.9514 293.051 44.5314C293.051 44.1114 293.124 43.7447 293.271 43.4314C293.417 43.1181 293.611 42.8614 293.851 42.6614C294.091 42.4547 294.361 42.3014 294.661 42.2014C294.967 42.0947 295.281 42.0414 295.601 42.0414C295.921 42.0414 296.231 42.0947 296.531 42.2014C296.837 42.3014 297.107 42.4547 297.341 42.6614C297.581 42.8681 297.771 43.1281 297.911 43.4414C298.057 43.7481 298.131 44.1114 298.131 44.5314ZM293.841 44.5314C293.841 44.8381 293.891 45.1081 293.991 45.3414C294.091 45.5747 294.224 45.7681 294.391 45.9214C294.557 46.0747 294.744 46.1914 294.951 46.2714C295.164 46.3514 295.381 46.3914 295.601 46.3914C295.821 46.3914 296.034 46.3514 296.241 46.2714C296.454 46.1914 296.641 46.0747 296.801 45.9214C296.967 45.7681 297.101 45.5747 297.201 45.3414C297.301 45.1081 297.351 44.8381 297.351 44.5314C297.351 44.2247 297.301 43.9581 297.201 43.7314C297.101 43.5047 296.967 43.3181 296.801 43.1714C296.634 43.0181 296.444 42.9047 296.231 42.8314C296.024 42.7514 295.811 42.7114 295.591 42.7114C295.371 42.7114 295.154 42.7514 294.941 42.8314C294.734 42.9047 294.547 43.0181 294.381 43.1714C294.221 43.3181 294.091 43.5047 293.991 43.7314C293.891 43.9581 293.841 44.2247 293.841 44.5314ZM300.207 42.8114C300.354 42.5314 300.557 42.3347 300.817 42.2214C301.077 42.1014 301.361 42.0414 301.667 42.0414C302.087 42.0414 302.464 42.1614 302.797 42.4014L302.607 43.0614C302.454 42.9614 302.291 42.8847 302.117 42.8314C301.951 42.7714 301.774 42.7414 301.587 42.7414C301.414 42.7414 301.247 42.7714 301.087 42.8314C300.927 42.8914 300.784 42.9747 300.657 43.0814C300.537 43.1881 300.441 43.3214 300.367 43.4814C300.294 43.6347 300.257 43.8047 300.257 43.9914V46.9514H299.487V43.3014C299.487 43.1947 299.484 43.0981 299.477 43.0114C299.471 42.9181 299.447 42.8447 299.407 42.7914C299.374 42.7314 299.317 42.6881 299.237 42.6614C299.157 42.6347 299.047 42.6281 298.907 42.6414L298.897 42.1214C299.084 42.0881 299.254 42.0714 299.407 42.0714C299.567 42.0714 299.704 42.0947 299.817 42.1414C299.937 42.1881 300.031 42.2647 300.097 42.3714C300.164 42.4781 300.201 42.6247 300.207 42.8114ZM305.667 42.0414C306.494 42.0481 307.087 42.2814 307.447 42.7414C307.807 43.1947 307.921 43.8214 307.787 44.6214H303.977C303.964 44.9014 304.004 45.1514 304.097 45.3714C304.197 45.5847 304.334 45.7681 304.507 45.9214C304.681 46.0747 304.887 46.1914 305.127 46.2714C305.367 46.3514 305.624 46.3914 305.897 46.3914C306.177 46.3914 306.447 46.3614 306.707 46.3014C306.974 46.2414 307.247 46.1547 307.527 46.0414L307.647 46.6314C307.067 46.9047 306.477 47.0414 305.877 47.0414C305.477 47.0414 305.111 46.9814 304.777 46.8614C304.444 46.7414 304.157 46.5681 303.917 46.3414C303.677 46.1147 303.494 45.8414 303.367 45.5214C303.241 45.1947 303.184 44.8247 303.197 44.4114C303.211 44.0314 303.284 43.6947 303.417 43.4014C303.551 43.1081 303.727 42.8614 303.947 42.6614C304.174 42.4547 304.434 42.3014 304.727 42.2014C305.021 42.0947 305.334 42.0414 305.667 42.0414ZM305.667 42.6614C305.227 42.6614 304.857 42.7781 304.557 43.0114C304.257 43.2447 304.074 43.5814 304.007 44.0214H307.147C307.161 43.7947 307.131 43.5981 307.057 43.4314C306.984 43.2581 306.881 43.1147 306.747 43.0014C306.614 42.8881 306.454 42.8047 306.267 42.7514C306.081 42.6914 305.881 42.6614 305.667 42.6614Z" fill="#434343"/>
<path d="M259.538 76.7625L259.496 80.0982L256.256 80.0571L256.299 76.7214L248.451 76.6217L248.471 75.0618L255.99 63.2524L259.709 63.2996L259.575 73.8587L261.135 73.8786L261.098 76.7823L259.538 76.7625ZM256.803 67.271L256.779 67.2707L252.542 73.8894L256.55 73.9403L256.591 70.7486L256.803 67.271ZM267.101 66.3697L267.064 69.2495C267.642 69.1608 268.242 69.1204 268.89 69.1287C272.417 69.2454 275.232 70.6253 275.178 74.873C275.14 77.8247 272.994 80.5097 269.226 80.4618C266.082 80.4219 263.731 78.4719 263.58 75.2777L266.723 75.3176C266.826 76.687 267.778 77.2992 269.194 77.3172C270.946 77.3394 271.704 76.269 271.722 74.8531C271.773 70.8454 266.696 71.765 264.077 72.0198L264.187 63.3565L274.482 63.4872L274.444 66.463L267.101 66.3697ZM284.277 63.3716C287.709 63.4152 290.49 65.5627 290.444 69.1864L290.371 74.9459C290.324 78.5936 287.49 80.6938 284.058 80.6502C280.578 80.606 277.797 78.4345 277.844 74.7868L277.917 69.0273C277.963 65.4036 280.798 63.3274 284.277 63.3716ZM284.098 77.5064C285.562 77.525 286.748 76.748 286.934 75.2863C286.987 74.8789 287.017 74.4473 287.023 73.9433L287.072 70.1276C287.078 69.6477 287.06 69.1914 287.017 68.7588C286.868 67.2448 285.701 66.5339 284.237 66.5153C282.701 66.4958 281.565 67.1774 281.377 68.6872C281.324 69.1185 281.294 69.5742 281.288 70.0542L281.24 73.8699C281.233 74.3738 281.252 74.8061 281.295 75.2147C281.444 76.6807 282.562 77.4869 284.098 77.5064Z" fill="#FF6657"/>
<path d="M255.155 99.5435L253.355 99.5207L253.461 91.1214C254.661 91.1246 255.849 91.1517 257.049 91.1669C259.005 91.1918 260.018 92.6808 259.998 94.2646C259.978 95.8245 258.892 97.2148 256.973 97.1904L255.185 97.1677L255.155 99.5435ZM255.168 95.6314L256.992 95.6546C257.76 95.6643 258.273 94.9988 258.283 94.1948C258.293 93.4149 257.821 92.7489 257.029 92.7388C256.417 92.719 255.817 92.7234 255.205 92.7156L255.168 95.6314ZM269.37 95.5357C269.337 98.0915 267.551 99.833 265.007 99.8007C262.764 99.7722 260.755 98.2586 260.791 95.4268C260.827 92.595 262.921 91.1335 265.153 91.1618C267.349 91.1897 269.406 92.716 269.37 95.5357ZM262.602 95.4498C262.579 97.2856 263.708 98.1401 265.052 98.1571C266.36 98.1737 267.559 97.3489 267.582 95.513C267.605 93.7252 266.44 92.8343 265.132 92.8177C263.812 92.8009 262.625 93.6739 262.602 95.4498ZM278.955 95.6575C278.923 98.2133 277.136 99.9547 274.593 99.9224C272.349 99.8939 270.34 98.3803 270.376 95.5485C270.412 92.7167 272.506 91.2552 274.738 91.2836C276.934 91.3115 278.991 92.8377 278.955 95.6575ZM272.188 95.5715C272.164 97.4074 273.294 98.2618 274.637 98.2788C275.945 98.2955 277.144 97.4706 277.167 95.6348C277.19 93.8469 276.025 92.956 274.717 92.9394C273.397 92.9227 272.21 93.7957 272.188 95.5715ZM285.478 96.8804L287.338 99.7002L287.335 99.9522L285.415 99.9278L283.723 97.1341L282.223 97.1151L282.188 99.8869L280.388 99.864L280.494 91.4647C281.694 91.4799 282.882 91.483 284.082 91.5102C286.002 91.5346 287.028 92.9398 287.009 94.4276C286.996 95.4956 286.444 96.4246 285.478 96.8804ZM282.218 95.6389L284.017 95.6618C284.773 95.6714 285.273 95.0896 285.27 94.3696C285.279 93.6616 284.818 93.0917 284.05 93.082L282.25 93.0591L282.218 95.6389Z" fill="#FF6657"/>
<path d="M176.328 62.2811C176.537 62.07 176.821 61.9514 177.117 61.9514C177.412 61.9514 177.696 62.07 177.906 62.2811L184.232 68.6682C184.441 68.8795 184.558 69.166 184.558 69.4647C184.558 69.7634 184.441 70.0499 184.232 70.2612L177.906 76.6484C177.694 76.8477 177.414 76.9563 177.125 76.9512C176.835 76.9462 176.559 76.8279 176.355 76.6213C176.15 76.4147 176.033 76.1359 176.028 75.8438C176.023 75.5516 176.13 75.269 176.328 75.0553L180.748 70.5918L169.674 70.5918C169.378 70.5918 169.094 70.4731 168.885 70.2617C168.676 70.0503 168.558 69.7636 168.558 69.4647C168.558 69.1658 168.676 68.8791 168.885 68.6677C169.094 68.4563 169.378 68.3376 169.674 68.3376L180.748 68.3376L176.328 63.8741C176.119 63.6627 176.001 63.3763 176.001 63.0776C176.001 62.7789 176.119 62.4924 176.328 62.2811Z" fill="#5A5A5A"/>
<defs>
<filter id="filter0_d_1008_2642" x="0.304626" y="10.9473" width="168.474" height="169.068" filterUnits="userSpaceOnUse" color-interpolation-filters="sRGB">
<feFlood flood-opacity="0" result="BackgroundImageFix"/>
<feColorMatrix in="SourceAlpha" type="matrix" values="0 0 0 0 0 0 0 0 0 0 0 0 0 0 0 0 0 0 127 0" result="hardAlpha"/>
<feOffset dx="4" dy="25"/>
<feGaussianBlur stdDeviation="12.5"/>
<feComposite in2="hardAlpha" operator="out"/>
<feColorMatrix type="matrix" values="0 0 0 0 0.223529 0 0 0 0 0.505882 0 0 0 0 0.964706 0 0 0 0.13 0"/>
<feBlend mode="normal" in2="BackgroundImageFix" result="effect1_dropShadow_1008_2642"/>
<feBlend mode="normal" in="SourceGraphic" in2="effect1_dropShadow_1008_2642" result="shape"/>
</filter>
<filter id="filter1_d_1008_2642" x="11.306" y="0.947266" width="138.474" height="108.508" filterUnits="userSpaceOnUse" color-interpolation-filters="sRGB">
<feFlood flood-opacity="0" result="BackgroundImageFix"/>
<feColorMatrix in="SourceAlpha" type="matrix" values="0 0 0 0 0 0 0 0 0 0 0 0 0 0 0 0 0 0 127 0" result="hardAlpha"/>
<feOffset/>
<feGaussianBlur stdDeviation="3.5"/>
<feComposite in2="hardAlpha" operator="out"/>
<feColorMatrix type="matrix" values="0 0 0 0 0.223529 0 0 0 0 0.505882 0 0 0 0 0.964706 0 0 0 0.14 0"/>
<feBlend mode="normal" in2="BackgroundImageFix" result="effect1_dropShadow_1008_2642"/>
<feBlend mode="normal" in="SourceGraphic" in2="effect1_dropShadow_1008_2642" result="shape"/>
</filter>
<filter id="filter2_d_1008_2642" x="37.1343" y="18.1343" width="16.3088" height="16.3088" filterUnits="userSpaceOnUse" color-interpolation-filters="sRGB">
<feFlood flood-opacity="0" result="BackgroundImageFix"/>
<feColorMatrix in="SourceAlpha" type="matrix" values="0 0 0 0 0 0 0 0 0 0 0 0 0 0 0 0 0 0 127 0" result="hardAlpha"/>
<feOffset dy="4"/>
<feGaussianBlur stdDeviation="2"/>
<feComposite in2="hardAlpha" operator="out"/>
<feColorMatrix type="matrix" values="0 0 0 0 0.223529 0 0 0 0 0.505882 0 0 0 0 0.964706 0 0 0 0.12 0"/>
<feBlend mode="normal" in2="BackgroundImageFix" result="effect1_dropShadow_1008_2642"/>
<feBlend mode="normal" in="SourceGraphic" in2="effect1_dropShadow_1008_2642" result="shape"/>
</filter>
<filter id="filter3_d_1008_2642" x="189.305" y="10.9473" width="168.474" height="169.068" filterUnits="userSpaceOnUse" color-interpolation-filters="sRGB">
<feFlood flood-opacity="0" result="BackgroundImageFix"/>
<feColorMatrix in="SourceAlpha" type="matrix" values="0 0 0 0 0 0 0 0 0 0 0 0 0 0 0 0 0 0 127 0" result="hardAlpha"/>
<feOffset dx="4" dy="25"/>
<feGaussianBlur stdDeviation="12.5"/>
<feComposite in2="hardAlpha" operator="out"/>
<feColorMatrix type="matrix" values="0 0 0 0 0.223529 0 0 0 0 0.505882 0 0 0 0 0.964706 0 0 0 0.13 0"/>
<feBlend mode="normal" in2="BackgroundImageFix" result="effect1_dropShadow_1008_2642"/>
<feBlend mode="normal" in="SourceGraphic" in2="effect1_dropShadow_1008_2642" result="shape"/>
</filter>
<filter id="filter4_d_1008_2642" x="200.306" y="0.947266" width="138.474" height="108.508" filterUnits="userSpaceOnUse" color-interpolation-filters="sRGB">
<feFlood flood-opacity="0" result="BackgroundImageFix"/>
<feColorMatrix in="SourceAlpha" type="matrix" values="0 0 0 0 0 0 0 0 0 0 0 0 0 0 0 0 0 0 127 0" result="hardAlpha"/>
<feOffset/>
<feGaussianBlur stdDeviation="3.5"/>
<feComposite in2="hardAlpha" operator="out"/>
<feColorMatrix type="matrix" values="0 0 0 0 0.223529 0 0 0 0 0.505882 0 0 0 0 0.964706 0 0 0 0.14 0"/>
<feBlend mode="normal" in2="BackgroundImageFix" result="effect1_dropShadow_1008_2642"/>
<feBlend mode="normal" in="SourceGraphic" in2="effect1_dropShadow_1008_2642" result="shape"/>
</filter>
<filter id="filter5_d_1008_2642" x="207.134" y="41.1343" width="16.3088" height="16.3088" filterUnits="userSpaceOnUse" color-interpolation-filters="sRGB">
<feFlood flood-opacity="0" result="BackgroundImageFix"/>
<feColorMatrix in="SourceAlpha" type="matrix" values="0 0 0 0 0 0 0 0 0 0 0 0 0 0 0 0 0 0 127 0" result="hardAlpha"/>
<feOffset dy="4"/>
<feGaussianBlur stdDeviation="2"/>
<feComposite in2="hardAlpha" operator="out"/>
<feColorMatrix type="matrix" values="0 0 0 0 0.223529 0 0 0 0 0.505882 0 0 0 0 0.964706 0 0 0 0.12 0"/>
<feBlend mode="normal" in2="BackgroundImageFix" result="effect1_dropShadow_1008_2642"/>
<feBlend mode="normal" in="SourceGraphic" in2="effect1_dropShadow_1008_2642" result="shape"/>
</filter>
<linearGradient id="paint0_linear_1008_2642" x1="28.7231" y1="98.6666" x2="129.686" y2="96.6272" gradientUnits="userSpaceOnUse">
<stop stop-color="#FF6556"/>
<stop offset="0.32" stop-color="#FDA472"/>
<stop offset="0.58" stop-color="#FFC671"/>
<stop offset="1" stop-color="#23CF79"/>
</linearGradient>
<linearGradient id="paint1_linear_1008_2642" x1="217.723" y1="98.6666" x2="318.686" y2="96.6272" gradientUnits="userSpaceOnUse">
<stop stop-color="#FF6556"/>
<stop offset="0.32" stop-color="#FDA472"/>
<stop offset="0.58" stop-color="#FFC671"/>
<stop offset="1" stop-color="#23CF79"/>
</linearGradient>
</defs>
</svg>
