<svg width="715" height="429" viewBox="0 0 715 429" fill="none" xmlns="http://www.w3.org/2000/svg">
<path opacity="0.2" d="M598.642 394.553C643.405 394.553 679.692 390.81 679.692 386.192C679.692 381.574 643.405 377.83 598.642 377.83C553.88 377.83 517.593 381.574 517.593 386.192C517.593 390.81 553.88 394.553 598.642 394.553Z" fill="#004364"/>
<path opacity="0.2" fill-rule="evenodd" clip-rule="evenodd" d="M182.24 388.075C235.036 388.075 277.835 384.548 277.835 380.199C277.835 375.847 235.036 372.32 182.24 372.32C165.309 372.32 149.406 372.683 135.612 373.318C126.456 372.686 115.662 372.32 104.106 372.32C70.9766 372.32 44.1201 375.326 44.1201 379.03C44.1201 382.737 70.9766 385.74 104.106 385.74C107.255 385.74 110.347 385.714 113.366 385.661C130.756 387.148 155.186 388.075 182.24 388.075Z" fill="#004364"/>
<path opacity="0.2" d="M365.178 371.233C488.524 371.233 588.515 366.807 588.515 361.346C588.515 355.885 488.524 351.458 365.178 351.458C241.832 351.458 141.841 355.885 141.841 361.346C141.841 366.807 241.832 371.233 365.178 371.233Z" fill="#004364"/>
<path d="M442.066 290.867H290.655C288.569 290.867 286.877 292.556 286.877 294.64V345.887C286.877 347.971 288.569 349.66 290.655 349.66H442.066C444.152 349.66 445.844 347.971 445.844 345.887V294.64C445.844 292.556 444.152 290.867 442.066 290.867Z" fill="#004364"/>
<path d="M475.667 341.36H252.219C250.132 341.36 248.44 343.049 248.44 345.132V349.503C248.44 351.587 250.132 353.276 252.219 353.276H475.667C477.754 353.276 479.445 351.587 479.445 349.503V345.132C479.445 343.049 477.754 341.36 475.667 341.36Z" fill="#005F8D"/>
<path d="M580.863 2.94336H147.025C141.46 2.94336 136.949 7.44747 136.949 13.0036V308.31C136.949 313.866 141.46 318.37 147.025 318.37H580.863C586.427 318.37 590.938 313.866 590.938 308.31V13.0036C590.938 7.44747 586.427 2.94336 580.863 2.94336Z" fill="#005F8D"/>
<path d="M565.517 16.0273H162.369C156.804 16.0273 152.293 20.5315 152.293 26.0876V297.733C152.293 303.289 156.804 307.794 162.369 307.794H565.517C571.082 307.794 575.593 303.289 575.593 297.733V26.0876C575.593 20.5315 571.082 16.0273 565.517 16.0273Z" fill="#E6F6FA"/>
<path d="M517.931 37.6157H209.953C202.997 37.6157 197.358 43.2459 197.358 50.191V237.489C197.358 244.434 202.997 250.064 209.953 250.064H517.931C524.887 250.064 530.525 244.434 530.525 237.489V50.191C530.525 43.2459 524.887 37.6157 517.931 37.6157Z" fill="white"/>
<path fill-rule="evenodd" clip-rule="evenodd" d="M216.351 222.18C216.351 220.009 218.113 218.25 220.286 218.25H241.146C243.32 218.25 245.082 220.009 245.082 222.18C245.082 224.35 243.32 226.11 241.146 226.11H220.286C218.113 226.11 216.351 224.35 216.351 222.18Z" fill="#99DBEA"/>
<path fill-rule="evenodd" clip-rule="evenodd" d="M483.576 222.18C483.576 220.009 485.337 218.25 487.512 218.25H508.372C510.546 218.25 512.307 220.009 512.307 222.18C512.307 224.35 510.546 226.11 508.372 226.11H487.512C485.337 226.11 483.576 224.35 483.576 222.18Z" fill="#99DBEA"/>
<path d="M500.838 199.497C502.258 199.497 503.413 198.346 503.387 196.927C503.029 177.636 498.638 158.632 490.494 141.133C489.897 139.846 488.352 139.317 487.076 139.939L481.287 142.756C480.008 143.378 479.48 144.915 480.077 146.203C487.45 162.121 491.442 179.392 491.796 196.927C491.825 198.346 492.977 199.497 494.397 199.497H500.838Z" fill="#008A00"/>
<path d="M485.232 136.321C486.492 135.661 486.977 134.106 486.295 132.862C479.096 119.764 469.82 107.915 458.833 97.7754C457.79 96.8119 456.16 96.9082 455.215 97.9683L450.932 102.771C449.987 103.831 450.082 105.453 451.125 106.419C461.076 115.631 469.482 126.374 476.032 138.24C476.718 139.483 478.272 139.969 479.532 139.309L485.232 136.321Z" fill="#8CCF54"/>
<path d="M456.285 90.3637C457.259 89.301 457.17 87.6469 456.071 86.7159C445.245 77.5585 431.414 68.4353 418.334 63.0213C417.015 62.4754 415.52 63.1527 415.021 64.4885L407.691 84.059C407.195 85.3824 407.865 86.8541 409.176 87.3833C420.597 91.9903 429.587 97.5575 438.98 105.522C440.049 106.427 441.647 106.342 442.591 105.31L456.285 90.3637Z" fill="#FCD800"/>
<path d="M409.111 70.9935C409.574 69.6518 408.862 68.1864 407.511 67.7482C394.126 63.411 380.16 61.1321 366.093 60.9896C364.67 60.9752 363.528 62.1378 363.538 63.5574L363.594 69.9875C363.607 71.4068 364.768 72.5451 366.188 72.5618C378.94 72.7125 391.594 74.7776 403.726 78.6874C405.08 79.1232 406.546 78.4136 407.009 77.0719L409.111 70.9935Z" fill="#FF871F"/>
<path d="M228.531 199.497C227.11 199.497 225.955 198.345 225.981 196.926C226.633 161.833 240.609 128.256 265.137 103.023C289.665 77.7909 322.861 62.8404 357.972 61.1434C359.392 61.0749 360.579 62.1929 360.622 63.6119L360.815 70.0394C360.858 71.458 359.74 72.6399 358.32 72.711C326.219 74.3166 295.881 88.0086 273.452 111.082C251.023 134.155 238.221 164.842 237.571 196.927C237.542 198.346 236.393 199.497 234.971 199.497H228.531Z" fill="#E15825"/>
<path fill-rule="evenodd" clip-rule="evenodd" d="M480.677 194.768C482.044 153.621 442.929 86.1562 367.398 86.1562C282.898 86.1562 251.824 153.241 250.006 194.418C249.912 196.522 251.629 198.228 253.738 198.228H365.188H476.98C478.952 198.228 480.611 196.736 480.677 194.768ZM323.947 198.221C323.947 175.358 342.508 156.825 365.404 156.825C388.301 156.825 406.864 175.358 406.864 198.221H323.947Z" fill="#99DBEA"/>
<path d="M389.557 198.632H341.259C341.259 190.085 347.609 174.832 365.871 174.832C382.148 174.832 390.351 190.085 389.557 198.632Z" fill="#FCD800"/>
<path d="M418.872 105.673L362.259 183.138C360.482 185.576 361.134 188.991 363.696 190.658C366.261 192.326 369.708 191.578 371.289 189.011L422.621 108.112C423.244 107.103 422.939 105.786 421.929 105.13C420.922 104.474 419.571 104.713 418.872 105.673Z" fill="#2C2C2C"/>
<path fill-rule="evenodd" clip-rule="evenodd" d="M302.702 274.537C302.702 271.065 304.308 268.25 306.288 268.25H424.369C426.347 268.25 427.954 271.065 427.954 274.537C427.954 278.01 426.347 280.825 424.369 280.825H306.288C304.308 280.825 302.702 278.01 302.702 274.537Z" fill="#99DBEA"/>
<path fill-rule="evenodd" clip-rule="evenodd" d="M355.155 313.465C355.155 312.671 355.798 312.027 356.595 312.027H376.126C376.923 312.027 377.566 312.671 377.566 313.465C377.566 314.259 376.923 314.903 376.126 314.903H356.595C355.798 314.903 355.155 314.259 355.155 313.465Z" fill="#00A6CA"/>
<path fill-rule="evenodd" clip-rule="evenodd" d="M57.1771 277.801H151.031C158.243 277.801 164.089 283.638 164.089 290.839V365.806C164.089 373.007 158.243 378.846 151.031 378.846H57.1771C49.9654 378.846 44.1191 373.007 44.1191 365.806V290.839C44.1191 283.638 49.9654 277.801 57.1771 277.801ZM70.2353 300.617C68.4321 300.617 66.9706 302.077 66.9706 303.877V352.769C66.9706 354.57 68.4321 356.027 70.2353 356.027H137.973C139.776 356.027 141.238 354.57 141.238 352.769V303.877C141.238 302.077 139.776 300.617 137.973 300.617H70.2353Z" fill="#BFBFBF"/>
<path fill-rule="evenodd" clip-rule="evenodd" d="M238.426 375.313C222.336 355.697 211.449 341.15 205.765 331.679C196.033 315.465 188.067 301.037 185.553 295.525C179.559 282.382 199.353 276.228 203.833 282.358C210.613 291.637 225.094 320.834 247.274 369.949L238.426 375.313Z" fill="#B28B67"/>
<path fill-rule="evenodd" clip-rule="evenodd" d="M205.816 369.068L175.87 293.804C169.466 280.084 200.395 271.066 205.102 277.451C215.789 291.947 241.188 349.131 244.371 353.45L205.816 369.068Z" fill="#B11030"/>
<path fill-rule="evenodd" clip-rule="evenodd" d="M126.062 353.971C131.895 345.476 153.112 316.894 164.669 305.067C167.99 301.668 171.23 298.407 174.295 295.367C183.405 286.332 201.545 301.518 192.452 309.747C169.808 330.241 136.768 357.907 134.007 360.376C130.138 363.831 122.396 359.312 126.062 353.971Z" fill="#B28B67"/>
<path fill-rule="evenodd" clip-rule="evenodd" d="M127.426 350.139C125.417 351.79 124.11 353.139 123.504 354.187C122.768 355.458 121.907 357.439 120.92 360.124C122.398 360.976 135.686 368.635 160.784 383.104C163.797 380.281 164.266 378.09 162.192 376.531C160.118 374.972 158.406 373.656 157.057 372.585L143.297 353.656C143.033 353.293 142.522 353.214 142.158 353.476C142.151 353.483 142.145 353.486 142.139 353.489L139.28 355.69C136.657 355.461 134.7 354.973 133.408 354.23C132.359 353.624 131.154 352.366 129.794 350.454C129.273 349.72 128.254 349.547 127.519 350.067C127.487 350.09 127.456 350.113 127.426 350.139Z" fill="#262626"/>
<path fill-rule="evenodd" clip-rule="evenodd" d="M231.868 371.842C230.955 374.275 230.498 376.096 230.498 377.304C230.498 378.771 230.743 380.916 231.234 383.736C232.941 383.736 248.284 383.736 277.264 383.736C278.46 379.786 277.77 377.654 275.193 377.34C272.616 377.026 270.475 376.741 268.77 376.489L247.375 366.965C246.964 366.782 246.481 366.965 246.298 367.378C246.295 367.385 246.292 367.391 246.289 367.398L244.913 370.728C242.528 371.842 240.589 372.395 239.097 372.395C237.885 372.395 236.212 371.907 234.076 370.931C233.257 370.555 232.288 370.915 231.912 371.734C231.896 371.77 231.881 371.802 231.868 371.842Z" fill="#262626"/>
<path fill-rule="evenodd" clip-rule="evenodd" d="M165.096 297.563C140.207 293.514 123.536 290.746 115.083 289.257C90.9884 285.016 83.9624 272.07 88.1166 243.824H132.51C138.385 245.517 162.932 255.994 206.152 275.253C213.927 279.107 212.479 290.471 211.058 294.215C211 294.368 197.891 316.796 171.731 361.5L135.415 338.399L165.164 300.285C165.95 298.705 165.927 297.797 165.096 297.563Z" fill="#FF7171"/>
<path fill-rule="evenodd" clip-rule="evenodd" d="M101.442 148.443C98.1333 144.566 95.8942 139.815 96.2684 134.49C97.3465 119.15 118.734 122.524 122.894 130.267C127.054 138.01 126.56 157.65 121.183 159.033C119.039 159.585 114.471 158.233 109.822 155.436L112.74 176.049H95.5098L101.442 148.443Z" fill="#B28B67"/>
<path fill-rule="evenodd" clip-rule="evenodd" d="M130.526 119.532C130.169 118.279 129.21 117.207 127.916 116.889C127.603 116.812 127.279 116.781 126.956 116.794C126.84 116.798 126.808 116.832 126.754 116.751C126.714 116.691 126.713 116.544 126.696 116.474C126.645 116.255 126.581 116.039 126.501 115.828C126.231 115.11 125.776 114.474 125.227 113.938C124.202 112.936 122.816 112.244 121.377 112.119C120.589 112.051 119.807 112.179 119.062 112.435C118.677 112.567 118.303 112.732 117.938 112.914C117.829 112.969 117.473 113.238 117.363 113.221C117.241 113.202 116.997 112.9 116.898 112.824C115.677 111.888 114.169 111.521 112.647 111.532C110.93 111.545 109.276 111.63 107.844 112.675C107.541 112.897 107.252 113.139 106.977 113.394C106.832 113.528 106.692 113.668 106.558 113.813C106.478 113.9 106.399 113.99 106.323 114.082C106.195 114.238 106.216 114.289 106.036 114.18C105.347 113.762 104.548 113.567 103.743 113.665C103.266 113.724 102.801 113.867 102.36 114.056C102.209 114.12 101.861 114.376 101.701 114.378C101.542 114.381 101.2 114.143 101.036 114.083C100.152 113.757 99.1991 113.677 98.27 113.828C97.3116 113.983 96.3703 114.365 95.5582 114.892C95.1676 115.146 94.8268 115.427 94.5533 115.805C94.4349 115.968 94.3283 116.14 94.1941 116.291C94.1158 116.379 93.9606 116.47 93.9183 116.582C93.9436 116.515 92.8704 116.102 92.7691 116.076C92.2295 115.935 91.6802 115.964 91.1518 116.137C90.158 116.464 89.3036 117.196 88.6014 117.946C88.2406 118.332 87.9251 118.758 87.6571 119.212C87.5289 119.43 87.4115 119.653 87.3039 119.882C87.2518 119.993 87.2173 120.131 87.1488 120.231C87.0602 120.359 87.0008 120.362 86.8408 120.418C86.0277 120.702 85.2865 121.183 84.722 121.834C84.151 122.492 83.7804 123.303 83.6253 124.156C83.6161 124.206 83.6105 124.415 83.581 124.442C83.5406 124.479 83.3773 124.463 83.3153 124.47C83.1011 124.495 82.8886 124.532 82.6787 124.582C82.2917 124.674 81.9152 124.808 81.559 124.984C80.1706 125.67 79.1775 126.956 78.6918 128.403C78.1817 129.922 78.1906 131.661 78.8003 133.152C78.8987 133.392 79.0158 133.626 79.1532 133.847C79.2378 133.983 79.2651 133.983 79.2103 134.125C79.149 134.284 79.0375 134.438 78.9646 134.592C78.7278 135.097 78.5622 135.633 78.4576 136.18C78.286 137.077 78.2011 138.02 78.3703 138.924C78.4491 139.344 78.5858 139.755 78.7947 140.128C78.9013 140.319 79.026 140.5 79.1667 140.667C79.2398 140.754 79.3175 140.837 79.3986 140.917C79.4451 140.962 79.5058 141.002 79.5455 141.052C79.6419 141.176 79.6619 141.074 79.6124 141.256C79.5429 141.51 79.3854 141.76 79.289 142.007C79.1896 142.262 79.0998 142.519 79.0174 142.78C78.8512 143.308 78.7105 143.845 78.6226 144.391C78.4536 145.44 78.4832 146.557 78.9801 147.52C79.1926 147.932 79.4973 148.293 79.8669 148.574C80.048 148.712 80.2438 148.83 80.4494 148.927C80.555 148.978 80.6902 148.999 80.7384 149.101C80.7902 149.211 80.7131 149.428 80.6954 149.551C80.5429 150.618 80.4661 151.738 80.7836 152.784C81.0762 153.746 81.7203 154.596 82.5567 155.159C84.1789 156.251 86.3655 156.19 88.0701 155.316C88.5145 155.088 88.93 154.805 89.301 154.471C90.2452 155.74 92.1882 155.7 93.5684 155.339C95.2876 154.888 96.6671 153.694 97.4621 152.126C98.5491 153.447 100.83 153.018 101.584 151.585C101.768 151.235 101.877 150.848 101.932 150.457C101.96 150.251 101.942 150.043 101.963 149.839C101.99 149.579 102.164 149.327 102.264 149.075C102.459 148.586 102.58 148.08 102.585 147.552C102.588 147.276 102.553 147.007 102.527 146.734C102.503 146.487 102.571 146.258 102.61 146.015C102.169 146.088 101.632 145.969 101.217 145.841C100.809 145.716 100.427 145.386 100.139 145.084C99.471 144.385 99.063 143.468 98.7839 142.555C98.1709 140.551 98.4221 138.147 100.441 137.047C101.381 136.535 104.198 136.537 105.318 136.79C106.496 137.056 107.831 139.65 107.896 139.894C107.937 140.045 107.917 140.232 108.055 140.332C108.361 140.554 108.864 140.17 109.089 139.98C109.477 139.654 109.754 139.219 109.994 138.778C110.517 137.818 110.939 136.788 111.236 135.737C111.466 134.926 111.613 134.09 111.913 133.3C112.211 132.514 112.682 131.812 113.414 131.366C114.21 130.882 115.122 130.627 115.996 130.323C116.862 130.021 117.713 129.652 118.385 129.012C118.532 128.871 118.676 128.722 118.795 128.556C118.889 128.425 118.981 128.175 119.124 128.092C119.346 127.963 119.67 128.298 119.863 128.42C120.811 129.021 121.602 129.86 122.24 130.776C122.874 131.687 123.394 132.563 123.817 133.58C124.131 134.335 124.327 135.301 124.879 135.919C125.125 136.195 126.956 136.362 127.549 136.121C128.142 135.88 128.807 135.254 129.006 134.862C129.21 134.461 129.259 134.02 129.171 133.58C129.12 133.322 129.016 133.08 128.959 132.826C128.91 132.613 128.867 132.411 128.763 132.216C128.566 131.846 128.229 131.579 127.823 131.468C128.246 131.079 128.595 130.614 128.838 130.094C129.089 129.553 129.303 128.896 129.363 128.303C129.412 127.821 129.337 127.322 129.072 126.908C128.796 126.474 128.305 126.19 127.88 125.919C128.529 125.412 129.084 124.796 129.54 124.114C130.428 122.787 130.977 121.114 130.526 119.532Z" fill="#262626"/>
<path fill-rule="evenodd" clip-rule="evenodd" d="M154.012 225.556L175.418 246.407C181.647 249.059 186.751 251.989 190.729 255.194C191.623 256.272 192.597 258.336 188.388 257.412C184.179 256.489 179.71 255.706 178.919 257.072C178.127 258.439 180.459 260.534 178.996 262.323C178.022 263.515 174.743 259.722 169.162 250.943L146.902 237.839L154.012 225.556ZM58.9968 228.496L74.7885 228.558C65.0379 259.987 59.7738 276.662 58.9968 278.585C57.2483 282.912 60.9483 289.502 62.5308 293.043C57.3772 295.345 57.9263 286.818 51.425 289.838C45.4908 292.595 40.9768 297.589 34.121 293.365C33.2781 292.846 32.3544 290.891 34.5861 289.363C40.146 285.556 48.1586 278.894 49.241 276.701C50.7176 273.71 53.9692 257.642 58.9968 228.496Z" fill="#B28B67"/>
<path fill-rule="evenodd" clip-rule="evenodd" d="M103.874 162.334L110.408 161.215C121.658 189.275 141.3 214.772 169.332 237.705L148.149 263.4C120.12 230.748 102.843 197.059 103.874 162.334Z" fill="#47447C"/>
<path fill-rule="evenodd" clip-rule="evenodd" d="M75.3877 244.326H133.574C120.094 211.599 113.354 183.798 113.354 160.922L95.8016 158.311C82.0073 180.462 78.1116 207.735 75.3877 244.326Z" fill="white"/>
<path fill-rule="evenodd" clip-rule="evenodd" d="M95.4302 158.323L95.4371 158.311H96.5827C97.9537 158.358 100.042 158.443 102.847 158.566L107.088 170.668C107.537 185.423 110.157 215.158 114.948 259.873H76.8058C76.9055 262.962 77.0704 266.079 77.3004 269.225H48.9395C53.1816 221.437 68.6741 184.466 95.4161 158.311L95.4302 158.323Z" fill="#5F5BA9"/>
<path fill-rule="evenodd" clip-rule="evenodd" d="M79.3253 220.357C80.4109 239.609 83.1289 252.88 87.4789 260.171H76.8159C76.3489 246.32 77.1856 233.049 79.3253 220.357Z" fill="#47447C"/>
<path fill-rule="evenodd" clip-rule="evenodd" d="M85.2959 236.782L104.104 228.051V236.782H85.2959Z" fill="#B2AFEB"/>
<path fill-rule="evenodd" clip-rule="evenodd" d="M601.206 71.8607C598.379 82.2546 594.699 105.618 598.455 109.283H622.22C622.224 109.241 622.227 109.199 622.23 109.157C631.036 108.184 637.888 100.726 637.888 91.6713V74.4871C637.888 64.7707 630 56.8938 620.269 56.8938H618.629C609.793 56.8938 602.476 63.39 601.206 71.8607Z" fill="#262626"/>
<path fill-rule="evenodd" clip-rule="evenodd" d="M628.659 88.3877C632.434 83.9618 634.992 78.5377 634.562 72.46C633.333 54.9483 608.921 58.8005 604.172 67.6389C599.423 76.4776 599.987 98.8969 606.123 100.477C608.57 101.107 613.785 99.5633 619.092 96.3694L615.763 119.9H635.432L628.659 88.3877Z" fill="#D6A97F"/>
<path fill-rule="evenodd" clip-rule="evenodd" d="M623.342 85.4312C622.437 95.1512 622.798 106.251 625.501 108.885H649.266C650.591 85.9129 637.793 94.809 637.793 73.1798C636.996 72.4014 636.242 71.6312 635.494 70.9667L635.52 70.3304C631.407 61.9181 626.186 57.7119 619.859 57.7119C610.367 57.7119 607.373 62.1211 604.821 65.8646C606.73 72.3988 614.129 73.3675 620.705 77.4404C621.483 76.8116 622.47 76.4347 623.546 76.4347C626.035 76.4347 628.056 78.4496 628.056 80.9352C628.056 83.4208 626.035 85.4358 623.546 85.4358C623.477 85.4358 623.411 85.4345 623.342 85.4312Z" fill="#262626"/>
<path fill-rule="evenodd" clip-rule="evenodd" d="M637.691 191.124L606.779 292.022L591.807 377.828H580.068L595.89 191.124H637.691Z" fill="#D6A97F"/>
<path fill-rule="evenodd" clip-rule="evenodd" d="M648.752 191.123C646.649 246.522 649.122 275.097 649.591 280.131C650.06 285.164 656.495 317.799 671.727 379.517L659.218 375.227C635.144 318.623 626.941 289.204 624.179 281.771C621.418 274.338 614.087 244.122 602.182 191.123H648.752Z" fill="#D6A97F"/>
<path fill-rule="evenodd" clip-rule="evenodd" d="M671.634 375.165C672.553 377.615 673.012 379.449 673.012 380.664C673.012 382.144 672.766 384.302 672.271 387.138C670.552 387.138 655.111 387.138 625.943 387.138C624.74 383.166 625.435 381.021 628.029 380.703C630.62 380.385 632.775 380.101 634.494 379.845L656.026 370.26C656.439 370.076 656.924 370.263 657.111 370.676C657.115 370.682 657.115 370.689 657.118 370.695L658.502 374.049C660.906 375.169 662.854 375.725 664.357 375.725C665.577 375.725 667.262 375.234 669.411 374.252C670.234 373.875 671.211 374.235 671.589 375.057C671.605 375.093 671.621 375.129 671.634 375.165Z" fill="#262626"/>
<path fill-rule="evenodd" clip-rule="evenodd" d="M594.424 375.165C595.342 377.615 595.801 379.449 595.801 380.664C595.801 382.144 595.555 384.302 595.06 387.138C593.341 387.138 577.9 387.138 548.732 387.138C547.529 383.166 548.224 381.021 550.815 380.703C553.409 380.385 555.564 380.101 557.28 379.845L578.815 370.26C579.228 370.076 579.714 370.26 579.897 370.676C579.901 370.682 579.904 370.689 579.907 370.695L581.291 374.049C583.692 375.169 585.644 375.725 587.146 375.725C588.366 375.725 590.048 375.234 592.2 374.252C593.023 373.872 593.997 374.235 594.378 375.057C594.394 375.093 594.407 375.129 594.424 375.165Z" fill="#262626"/>
<path fill-rule="evenodd" clip-rule="evenodd" d="M641.799 191.123L628.656 242.53H588.515L594.5 191.123H641.799Z" fill="#FFC700"/>
<path fill-rule="evenodd" clip-rule="evenodd" d="M649.19 191.123C653.516 204.066 654.336 221.201 651.656 242.53H610.692L599.429 191.123H649.19Z" fill="#FCD800"/>
<path fill-rule="evenodd" clip-rule="evenodd" d="M673.156 162.814L655.209 162.881C674.888 207.096 685.147 230.247 685.99 232.332C687.889 237.025 683.875 244.171 682.159 248.012C687.748 250.509 687.151 241.261 694.203 244.536C700.638 247.526 705.534 252.943 712.97 248.362C713.885 247.799 714.885 245.678 712.465 244.021C706.436 239.893 697.745 232.667 696.571 230.289C694.97 227.045 687.164 204.554 673.156 162.814Z" fill="#D6A97F"/>
<path d="M538.952 176.776L571.154 171.339L569.94 186.884L541.773 184.789C531.307 189.226 526.004 190.601 525.866 188.914C525.656 186.383 529.054 185.95 529.188 184.22C529.326 182.49 524.816 180.4 520.454 178.601C516.092 176.801 518.247 175.545 519.723 175.132C525.289 174.726 531.701 175.274 538.952 176.776Z" fill="#D6A97F"/>
<path fill-rule="evenodd" clip-rule="evenodd" d="M624.009 105.985L609.958 106.92C606.498 138.18 590.404 167.059 549.655 173.095L563.653 211.281C586.993 202.033 609.594 178.818 616.685 136.126C618.518 125.075 624.251 115.574 624.009 105.985Z" fill="#44BA74"/>
<path fill-rule="evenodd" clip-rule="evenodd" d="M630.942 101.905L609.652 106.774C609.652 143.334 597.989 166.661 592.007 193.541H649.499C650.309 202.829 650.807 212.376 651.067 222.181H694.117C684.363 170.354 663.772 130.258 632.345 101.892H630.951L630.942 101.905Z" fill="#67D995"/>
<path fill-rule="evenodd" clip-rule="evenodd" d="M640.421 141.386C641.903 164.169 641.031 181.555 637.807 193.545H649.493C647.889 175.145 645.055 157.759 640.421 141.386Z" fill="#44BA74"/>
</svg>
