<svg width="949" height="982" viewBox="0 0 949 982" fill="none" xmlns="http://www.w3.org/2000/svg">
<g clip-path="url(#clip0_651_4429)">
<path d="M949 0H0V982H949V0Z" fill="#FFE3E3"/>
<path d="M929.497 768.994C1352.27 768.994 1694.99 426.269 1694.99 3.49701C1694.99 -419.275 1352.27 -762 929.497 -762C506.725 -762 164 -419.275 164 3.49701C164 426.269 506.725 768.994 929.497 768.994Z" fill="#FFF2F2" fill-opacity="0.38"/>
<path d="M929.496 610.615C1264.8 610.615 1536.61 338.799 1536.61 3.49689C1536.61 -331.805 1264.8 -603.621 929.496 -603.621C594.194 -603.621 322.378 -331.805 322.378 3.49689C322.378 338.799 594.194 610.615 929.496 610.615Z" fill="#FFD6D6" fill-opacity="0.37"/>
<path d="M926.983 467.321C1190.09 467.321 1403.38 254.032 1403.38 -9.07233C1403.38 -272.177 1190.09 -485.465 926.983 -485.465C663.878 -485.465 450.59 -272.177 450.59 -9.07233C450.59 254.032 663.878 467.321 926.983 467.321Z" fill="#FFD6D6"/>
</g>
<defs>
<clipPath id="clip0_651_4429">
<rect width="949" height="982" fill="white"/>
</clipPath>
</defs>
</svg>
