<svg width="949" height="982" viewBox="0 0 949 982" fill="none" xmlns="http://www.w3.org/2000/svg">
<g clip-path="url(#clip0_570_1975)">
<path d="M949 0H0V982H949V0Z" fill="#FFE3E3"/>
<path d="M929.497 768.994C1352.27 768.994 1694.99 426.269 1694.99 3.49701C1694.99 -419.275 1352.27 -762 929.497 -762C506.725 -762 164 -419.275 164 3.49701C164 426.269 506.725 768.994 929.497 768.994Z" fill="#FFF2F2" fill-opacity="0.38"/>
<path d="M929.496 610.615C1264.8 610.615 1536.61 338.799 1536.61 3.49689C1536.61 -331.805 1264.8 -603.621 929.496 -603.621C594.194 -603.621 322.378 -331.805 322.378 3.49689C322.378 338.799 594.194 610.615 929.496 610.615Z" fill="#FFD6D6" fill-opacity="0.37"/>
<path d="M926.983 467.321C1190.09 467.321 1403.38 254.032 1403.38 -9.07233C1403.38 -272.177 1190.09 -485.465 926.983 -485.465C663.878 -485.465 450.59 -272.177 450.59 -9.07233C450.59 254.032 663.878 467.321 926.983 467.321Z" fill="#FFD6D6"/>
<path opacity="0.2" d="M687.642 779.553C732.404 779.553 768.691 775.81 768.691 771.192C768.691 766.574 732.404 762.83 687.642 762.83C642.879 762.83 606.592 766.574 606.592 771.192C606.592 775.81 642.879 779.553 687.642 779.553Z" fill="#004364"/>
<path opacity="0.2" fill-rule="evenodd" clip-rule="evenodd" d="M271.24 773.075C324.035 773.075 366.834 769.548 366.834 765.199C366.834 760.847 324.035 757.32 271.24 757.32C254.308 757.32 238.405 757.683 224.612 758.318C215.455 757.686 204.662 757.32 193.105 757.32C159.976 757.32 133.12 760.326 133.12 764.03C133.12 767.737 159.976 770.74 193.105 770.74C196.254 770.74 199.347 770.714 202.365 770.661C219.756 772.148 244.185 773.075 271.24 773.075Z" fill="#004364"/>
<path opacity="0.2" d="M454.178 756.233C577.524 756.233 677.515 751.807 677.515 746.346C677.515 740.885 577.524 736.458 454.178 736.458C330.832 736.458 230.841 740.885 230.841 746.346C230.841 751.807 330.832 756.233 454.178 756.233Z" fill="#004364"/>
<path d="M531.066 675.867H379.655C377.569 675.867 375.877 677.556 375.877 679.64V730.887C375.877 732.971 377.569 734.66 379.655 734.66H531.066C533.152 734.66 534.844 732.971 534.844 730.887V679.64C534.844 677.556 533.152 675.867 531.066 675.867Z" fill="#004364"/>
<path d="M564.667 726.36H341.219C339.132 726.36 337.44 728.049 337.44 730.132V734.503C337.44 736.587 339.132 738.276 341.219 738.276H564.667C566.754 738.276 568.445 736.587 568.445 734.503V730.132C568.445 728.049 566.754 726.36 564.667 726.36Z" fill="#005F8D"/>
<path d="M669.863 387.943H236.025C230.46 387.943 225.949 392.447 225.949 398.004V693.31C225.949 698.866 230.46 703.37 236.025 703.37H669.863C675.427 703.37 679.938 698.866 679.938 693.31V398.004C679.938 392.447 675.427 387.943 669.863 387.943Z" fill="#005F8D"/>
<path d="M654.517 401.027H251.369C245.804 401.027 241.293 405.531 241.293 411.088V682.733C241.293 688.289 245.804 692.794 251.369 692.794H654.517C660.082 692.794 664.593 688.289 664.593 682.733V411.088C664.593 405.531 660.082 401.027 654.517 401.027Z" fill="#E6F6FA"/>
<path d="M606.931 422.616H298.953C291.998 422.616 286.359 428.246 286.359 435.191V622.489C286.359 629.434 291.998 635.064 298.953 635.064H606.931C613.887 635.064 619.526 629.434 619.526 622.489V435.191C619.526 428.246 613.887 422.616 606.931 422.616Z" fill="white"/>
<path fill-rule="evenodd" clip-rule="evenodd" d="M305.35 607.18C305.35 605.009 307.112 603.25 309.286 603.25H330.146C332.319 603.25 334.081 605.009 334.081 607.18C334.081 609.35 332.319 611.11 330.146 611.11H309.286C307.112 611.11 305.35 609.35 305.35 607.18Z" fill="#99DBEA"/>
<path fill-rule="evenodd" clip-rule="evenodd" d="M572.576 607.18C572.576 605.009 574.337 603.25 576.512 603.25H597.372C599.546 603.25 601.307 605.009 601.307 607.18C601.307 609.35 599.546 611.11 597.372 611.11H576.512C574.337 611.11 572.576 609.35 572.576 607.18Z" fill="#99DBEA"/>
<path d="M589.838 584.497C591.258 584.497 592.413 583.346 592.387 581.927C592.029 562.636 587.638 543.632 579.494 526.133C578.897 524.846 577.352 524.317 576.076 524.939L570.287 527.756C569.008 528.378 568.48 529.915 569.077 531.203C576.45 547.121 580.442 564.392 580.796 581.927C580.825 583.346 581.977 584.497 583.397 584.497H589.838Z" fill="#008A00"/>
<path d="M574.233 521.321C575.492 520.661 575.977 519.106 575.295 517.862C568.096 504.764 558.821 492.915 547.833 482.775C546.79 481.812 545.16 481.908 544.216 482.968L539.932 487.771C538.988 488.831 539.083 490.453 540.126 491.419C550.077 500.631 558.483 511.374 565.033 523.24C565.718 524.483 567.273 524.969 568.532 524.309L574.233 521.321Z" fill="#8CCF54"/>
<path d="M545.285 475.364C546.259 474.301 546.171 472.647 545.072 471.716C534.245 462.559 520.414 453.435 507.334 448.021C506.016 447.475 504.52 448.153 504.022 449.488L496.691 469.059C496.196 470.382 496.865 471.854 498.177 472.383C509.597 476.99 518.587 482.557 527.981 490.522C529.05 491.427 530.647 491.342 531.592 490.31L545.285 475.364Z" fill="#FCD800"/>
<path d="M498.112 455.994C498.574 454.652 497.862 453.186 496.511 452.748C483.126 448.411 469.161 446.132 455.094 445.99C453.67 445.975 452.529 447.138 452.539 448.557L452.594 454.988C452.608 456.407 453.769 457.545 455.189 457.562C467.941 457.712 480.594 459.778 492.726 463.687C494.081 464.123 495.547 463.414 496.009 462.072L498.112 455.994Z" fill="#FF871F"/>
<path d="M317.531 584.497C316.11 584.497 314.955 583.345 314.981 581.926C315.633 546.833 329.609 513.256 354.138 488.023C378.666 462.791 411.862 447.84 446.972 446.143C448.393 446.075 449.58 447.193 449.622 448.612L449.816 455.039C449.859 456.458 448.74 457.64 447.32 457.711C415.22 459.317 384.882 473.009 362.453 496.082C340.023 519.155 327.222 549.842 326.572 581.927C326.543 583.346 325.393 584.497 323.972 584.497H317.531Z" fill="#E15825"/>
<path fill-rule="evenodd" clip-rule="evenodd" d="M569.677 579.768C571.044 538.621 531.929 471.156 456.398 471.156C371.898 471.156 340.824 538.241 339.006 579.418C338.912 581.522 340.629 583.228 342.738 583.228H454.188H565.98C567.952 583.228 569.611 581.736 569.677 579.768ZM412.947 583.221C412.947 560.358 431.508 541.825 454.404 541.825C477.301 541.825 495.864 560.358 495.864 583.221H412.947Z" fill="#99DBEA"/>
<path d="M478.557 583.632H430.258C430.258 575.085 436.608 559.832 454.87 559.832C471.148 559.832 479.351 575.085 478.557 583.632Z" fill="#FCD800"/>
<path d="M507.872 490.673L451.259 568.138C449.482 570.576 450.134 573.991 452.696 575.658C455.261 577.326 458.708 576.578 460.289 574.011L511.621 493.112C512.244 492.103 511.939 490.786 510.929 490.13C509.922 489.474 508.571 489.713 507.872 490.673Z" fill="#2C2C2C"/>
<path fill-rule="evenodd" clip-rule="evenodd" d="M391.703 659.537C391.703 656.065 393.308 653.25 395.289 653.25H513.369C515.347 653.25 516.954 656.065 516.954 659.537C516.954 663.01 515.347 665.825 513.369 665.825H395.289C393.308 665.825 391.703 663.01 391.703 659.537Z" fill="#99DBEA"/>
<path fill-rule="evenodd" clip-rule="evenodd" d="M444.155 698.465C444.155 697.671 444.798 697.027 445.595 697.027H465.126C465.923 697.027 466.566 697.671 466.566 698.465C466.566 699.259 465.923 699.903 465.126 699.903H445.595C444.798 699.903 444.155 699.259 444.155 698.465Z" fill="#00A6CA"/>
<path fill-rule="evenodd" clip-rule="evenodd" d="M146.178 662.801H240.032C247.243 662.801 253.09 668.638 253.09 675.839V750.806C253.09 758.007 247.243 763.846 240.032 763.846H146.178C138.966 763.846 133.12 758.007 133.12 750.806V675.839C133.12 668.638 138.966 662.801 146.178 662.801ZM159.236 685.617C157.433 685.617 155.971 687.077 155.971 688.877V737.769C155.971 739.57 157.433 741.027 159.236 741.027H226.974C228.777 741.027 230.238 739.57 230.238 737.769V688.877C230.238 687.077 228.777 685.617 226.974 685.617H159.236Z" fill="#BFBFBF"/>
<path fill-rule="evenodd" clip-rule="evenodd" d="M327.427 760.313C311.336 740.697 300.449 726.15 294.765 716.679C285.033 700.465 277.067 686.037 274.554 680.525C268.559 667.382 288.354 661.228 292.833 667.358C299.614 676.637 314.094 705.834 336.275 754.949L327.427 760.313Z" fill="#B28B67"/>
<path fill-rule="evenodd" clip-rule="evenodd" d="M294.816 754.068L264.87 678.804C258.466 665.084 289.395 656.066 294.102 662.451C304.789 676.947 330.188 734.131 333.371 738.45L294.816 754.068Z" fill="#B11030"/>
<path fill-rule="evenodd" clip-rule="evenodd" d="M215.062 738.971C220.895 730.476 242.113 701.894 253.67 690.067C256.99 686.668 260.231 683.407 263.296 680.367C272.405 671.332 290.546 686.518 281.453 694.747C258.808 715.241 225.768 742.907 223.008 745.376C219.139 748.831 211.396 744.312 215.062 738.971Z" fill="#B28B67"/>
<path fill-rule="evenodd" clip-rule="evenodd" d="M216.426 735.139C214.417 736.79 213.11 738.139 212.504 739.187C211.768 740.458 210.907 742.439 209.92 745.124C211.398 745.976 224.686 753.635 249.784 768.104C252.797 765.281 253.266 763.09 251.192 761.531C249.118 759.972 247.406 758.656 246.057 757.585L232.297 738.656C232.033 738.293 231.522 738.214 231.158 738.476C231.151 738.483 231.145 738.486 231.139 738.489L228.28 740.69C225.657 740.461 223.7 739.973 222.408 739.23C221.359 738.624 220.154 737.366 218.794 735.454C218.273 734.72 217.254 734.547 216.519 735.067C216.487 735.09 216.456 735.113 216.426 735.139Z" fill="#262626"/>
<path fill-rule="evenodd" clip-rule="evenodd" d="M320.868 756.842C319.955 759.275 319.498 761.096 319.498 762.304C319.498 763.771 319.743 765.916 320.234 768.736C321.941 768.736 337.284 768.736 366.264 768.736C367.46 764.786 366.77 762.654 364.193 762.34C361.616 762.026 359.475 761.741 357.77 761.489L336.375 751.965C335.964 751.782 335.481 751.965 335.298 752.378C335.295 752.385 335.292 752.391 335.289 752.398L333.913 755.728C331.528 756.842 329.589 757.395 328.097 757.395C326.885 757.395 325.212 756.907 323.076 755.931C322.257 755.555 321.288 755.915 320.912 756.734C320.896 756.77 320.881 756.802 320.868 756.842Z" fill="#262626"/>
<path fill-rule="evenodd" clip-rule="evenodd" d="M254.096 682.563C229.206 678.514 212.535 675.746 204.082 674.257C179.988 670.016 172.962 657.07 177.116 628.824H221.51C227.385 630.517 251.932 640.994 295.151 660.253C302.927 664.107 301.479 675.471 300.057 679.215C300 679.368 286.891 701.796 260.731 746.5L224.415 723.399L254.164 685.285C254.949 683.705 254.927 682.797 254.096 682.563Z" fill="#FF7171"/>
<path fill-rule="evenodd" clip-rule="evenodd" d="M190.442 533.443C187.133 529.566 184.894 524.815 185.268 519.49C186.346 504.15 207.734 507.524 211.894 515.267C216.054 523.01 215.56 542.65 210.183 544.033C208.039 544.585 203.471 543.233 198.822 540.436L201.74 561.049H184.51L190.442 533.443Z" fill="#B28B67"/>
<path fill-rule="evenodd" clip-rule="evenodd" d="M219.526 504.532C219.169 503.279 218.21 502.207 216.916 501.889C216.603 501.812 216.279 501.781 215.956 501.794C215.84 501.798 215.808 501.832 215.754 501.751C215.714 501.691 215.713 501.544 215.696 501.474C215.645 501.255 215.581 501.039 215.501 500.828C215.231 500.11 214.776 499.474 214.227 498.938C213.202 497.936 211.816 497.244 210.377 497.119C209.589 497.051 208.807 497.179 208.062 497.435C207.677 497.567 207.303 497.732 206.938 497.914C206.829 497.969 206.473 498.238 206.363 498.221C206.241 498.202 205.997 497.9 205.898 497.824C204.677 496.888 203.169 496.521 201.647 496.532C199.93 496.545 198.276 496.63 196.844 497.675C196.541 497.897 196.252 498.139 195.977 498.394C195.832 498.528 195.692 498.668 195.558 498.813C195.478 498.9 195.399 498.99 195.323 499.082C195.195 499.238 195.216 499.289 195.036 499.18C194.347 498.762 193.548 498.567 192.743 498.665C192.266 498.724 191.801 498.867 191.36 499.056C191.209 499.12 190.861 499.376 190.701 499.378C190.542 499.381 190.2 499.143 190.036 499.083C189.152 498.757 188.199 498.677 187.27 498.828C186.312 498.983 185.37 499.365 184.558 499.892C184.168 500.146 183.827 500.427 183.553 500.805C183.435 500.968 183.328 501.14 183.194 501.291C183.116 501.379 182.961 501.47 182.918 501.582C182.944 501.515 181.87 501.102 181.769 501.076C181.23 500.935 180.68 500.964 180.152 501.137C179.158 501.464 178.304 502.196 177.601 502.946C177.241 503.332 176.925 503.758 176.657 504.212C176.529 504.43 176.411 504.653 176.304 504.882C176.252 504.993 176.217 505.131 176.149 505.231C176.06 505.359 176.001 505.362 175.841 505.418C175.028 505.702 174.286 506.183 173.722 506.834C173.151 507.492 172.78 508.303 172.625 509.156C172.616 509.206 172.61 509.415 172.581 509.442C172.541 509.479 172.377 509.463 172.315 509.47C172.101 509.495 171.889 509.532 171.679 509.582C171.292 509.674 170.915 509.808 170.559 509.984C169.171 510.67 168.177 511.956 167.692 513.403C167.182 514.922 167.191 516.661 167.8 518.152C167.899 518.392 168.016 518.626 168.153 518.847C168.238 518.983 168.265 518.983 168.21 519.125C168.149 519.284 168.037 519.438 167.965 519.592C167.728 520.097 167.562 520.633 167.458 521.18C167.286 522.077 167.201 523.02 167.37 523.924C167.449 524.344 167.586 524.755 167.795 525.128C167.901 525.319 168.026 525.5 168.167 525.667C168.24 525.754 168.318 525.837 168.399 525.917C168.445 525.962 168.506 526.002 168.545 526.052C168.642 526.176 168.662 526.074 168.612 526.256C168.543 526.51 168.385 526.76 168.289 527.007C168.19 527.262 168.1 527.519 168.017 527.78C167.851 528.308 167.71 528.845 167.623 529.391C167.454 530.44 167.483 531.557 167.98 532.52C168.193 532.932 168.497 533.293 168.867 533.574C169.048 533.712 169.244 533.83 169.449 533.927C169.555 533.978 169.69 533.999 169.738 534.101C169.79 534.211 169.713 534.428 169.695 534.551C169.543 535.618 169.466 536.738 169.784 537.784C170.076 538.746 170.72 539.596 171.557 540.159C173.179 541.251 175.366 541.19 177.07 540.316C177.514 540.088 177.93 539.805 178.301 539.471C179.245 540.74 181.188 540.7 182.568 540.339C184.288 539.888 185.667 538.694 186.462 537.126C187.549 538.447 189.83 538.018 190.584 536.585C190.768 536.235 190.877 535.848 190.932 535.457C190.96 535.251 190.942 535.043 190.963 534.839C190.99 534.579 191.164 534.327 191.264 534.075C191.459 533.586 191.58 533.08 191.585 532.552C191.588 532.276 191.553 532.007 191.527 531.734C191.503 531.487 191.571 531.258 191.61 531.015C191.169 531.088 190.632 530.969 190.217 530.841C189.809 530.716 189.427 530.386 189.139 530.084C188.471 529.385 188.063 528.468 187.784 527.555C187.171 525.551 187.422 523.147 189.441 522.047C190.381 521.535 193.198 521.537 194.318 521.79C195.496 522.056 196.831 524.65 196.896 524.894C196.937 525.045 196.917 525.232 197.055 525.332C197.361 525.554 197.864 525.17 198.089 524.98C198.477 524.654 198.754 524.219 198.994 523.778C199.517 522.818 199.939 521.788 200.236 520.737C200.466 519.926 200.613 519.09 200.913 518.3C201.211 517.514 201.682 516.812 202.414 516.366C203.21 515.882 204.122 515.627 204.996 515.323C205.862 515.021 206.713 514.652 207.385 514.012C207.532 513.871 207.676 513.722 207.795 513.556C207.889 513.425 207.981 513.175 208.124 513.092C208.346 512.963 208.67 513.298 208.863 513.42C209.811 514.021 210.602 514.86 211.24 515.776C211.874 516.687 212.394 517.563 212.817 518.58C213.131 519.335 213.327 520.301 213.879 520.919C214.125 521.195 215.956 521.362 216.549 521.121C217.142 520.88 217.807 520.254 218.006 519.862C218.21 519.461 218.259 519.02 218.171 518.58C218.12 518.322 218.016 518.08 217.959 517.826C217.91 517.613 217.867 517.411 217.763 517.216C217.566 516.846 217.229 516.579 216.823 516.468C217.246 516.079 217.595 515.614 217.838 515.094C218.089 514.553 218.303 513.896 218.363 513.303C218.412 512.821 218.337 512.322 218.072 511.908C217.796 511.474 217.305 511.19 216.88 510.919C217.529 510.412 218.084 509.796 218.54 509.114C219.428 507.787 219.977 506.114 219.526 504.532Z" fill="#262626"/>
<path fill-rule="evenodd" clip-rule="evenodd" d="M243.012 610.556L264.418 631.407C270.647 634.059 275.75 636.989 279.728 640.194C280.623 641.272 281.597 643.336 277.388 642.412C273.178 641.489 268.709 640.706 267.918 642.072C267.127 643.439 269.458 645.534 267.996 647.323C267.021 648.515 263.743 644.722 258.162 635.943L235.902 622.839L243.012 610.556ZM147.996 613.496L163.788 613.558C154.037 644.987 148.773 661.662 147.996 663.585C146.248 667.912 149.948 674.502 151.53 678.043C146.377 680.345 146.926 671.818 140.425 674.838C134.49 677.595 129.976 682.589 123.121 678.365C122.278 677.846 121.354 675.891 123.586 674.363C129.146 670.556 137.158 663.894 138.24 661.701C139.717 658.71 142.969 642.642 147.996 613.496Z" fill="#B28B67"/>
<path fill-rule="evenodd" clip-rule="evenodd" d="M192.874 547.334L199.408 546.215C210.658 574.275 230.3 599.772 258.332 622.705L237.149 648.4C209.12 615.748 191.843 582.059 192.874 547.334Z" fill="#47447C"/>
<path fill-rule="evenodd" clip-rule="evenodd" d="M164.388 629.326H222.574C209.094 596.599 202.354 568.798 202.354 545.922L184.802 543.311C171.007 565.462 167.112 592.735 164.388 629.326Z" fill="white"/>
<path fill-rule="evenodd" clip-rule="evenodd" d="M184.43 543.323L184.437 543.311H185.583C186.954 543.358 189.042 543.443 191.847 543.566L196.088 555.668C196.537 570.423 199.157 600.158 203.948 644.873H165.806C165.905 647.962 166.07 651.079 166.3 654.225H137.939C142.182 606.437 157.674 569.466 184.416 543.311L184.43 543.323Z" fill="#5F5BA9"/>
<path fill-rule="evenodd" clip-rule="evenodd" d="M168.325 605.357C169.411 624.609 172.129 637.88 176.479 645.171H165.816C165.349 631.32 166.186 618.049 168.325 605.357Z" fill="#47447C"/>
<path fill-rule="evenodd" clip-rule="evenodd" d="M174.296 621.782L193.104 613.051V621.782H174.296Z" fill="#B2AFEB"/>
<path fill-rule="evenodd" clip-rule="evenodd" d="M690.207 456.861C687.38 467.255 683.7 490.618 687.455 494.283H711.221C711.224 494.241 711.227 494.199 711.231 494.157C720.037 493.184 726.888 485.726 726.888 476.671V459.487C726.888 449.771 719.001 441.894 709.269 441.894H707.629C698.794 441.894 691.476 448.39 690.207 456.861Z" fill="#262626"/>
<path fill-rule="evenodd" clip-rule="evenodd" d="M717.659 473.388C721.434 468.962 723.993 463.538 723.563 457.46C722.333 439.948 697.921 443.8 693.172 452.639C688.423 461.478 688.987 483.897 695.124 485.477C697.57 486.107 702.785 484.563 708.092 481.369L704.763 504.9H724.432L717.659 473.388Z" fill="#D6A97F"/>
<path fill-rule="evenodd" clip-rule="evenodd" d="M712.342 470.431C711.437 480.151 711.798 491.251 714.5 493.885H738.266C739.591 470.913 726.793 479.809 726.793 458.18C725.996 457.401 725.241 456.631 724.494 455.967L724.52 455.33C720.407 446.918 715.186 442.712 708.859 442.712C699.367 442.712 696.372 447.121 693.821 450.865C695.73 457.399 703.129 458.367 709.705 462.44C710.482 461.812 711.469 461.435 712.545 461.435C715.035 461.435 717.055 463.45 717.055 465.935C717.055 468.421 715.035 470.436 712.545 470.436C712.476 470.436 712.411 470.434 712.342 470.431Z" fill="#262626"/>
<path fill-rule="evenodd" clip-rule="evenodd" d="M726.691 576.124L695.779 677.022L680.807 762.828H669.068L684.89 576.124H726.691Z" fill="#D6A97F"/>
<path fill-rule="evenodd" clip-rule="evenodd" d="M737.752 576.123C735.649 631.522 738.122 660.097 738.591 665.131C739.06 670.164 745.495 702.799 760.727 764.517L748.218 760.227C724.144 703.623 715.941 674.204 713.179 666.771C710.418 659.338 703.087 629.122 691.182 576.123H737.752Z" fill="#D6A97F"/>
<path fill-rule="evenodd" clip-rule="evenodd" d="M760.634 760.165C761.553 762.615 762.012 764.449 762.012 765.664C762.012 767.144 761.766 769.302 761.271 772.138C759.552 772.138 744.111 772.138 714.943 772.138C713.74 768.166 714.435 766.021 717.029 765.703C719.62 765.385 721.775 765.101 723.494 764.845L745.026 755.26C745.439 755.076 745.924 755.263 746.111 755.676C746.115 755.682 746.115 755.689 746.118 755.695L747.502 759.049C749.906 760.169 751.854 760.725 753.357 760.725C754.577 760.725 756.262 760.234 758.411 759.252C759.234 758.875 760.211 759.235 760.589 760.057C760.605 760.093 760.621 760.129 760.634 760.165Z" fill="#262626"/>
<path fill-rule="evenodd" clip-rule="evenodd" d="M683.424 760.165C684.342 762.615 684.802 764.449 684.802 765.664C684.802 767.144 684.556 769.302 684.06 772.138C682.342 772.138 666.9 772.138 637.733 772.138C636.529 768.166 637.225 766.021 639.816 765.703C642.41 765.385 644.565 765.101 646.28 764.845L667.815 755.26C668.229 755.076 668.714 755.26 668.898 755.676C668.901 755.682 668.904 755.689 668.908 755.695L670.292 759.049C672.693 760.169 674.644 760.725 676.146 760.725C677.366 760.725 679.049 760.234 681.2 759.252C682.024 758.872 682.998 759.235 683.378 760.057C683.395 760.093 683.408 760.129 683.424 760.165Z" fill="#262626"/>
<path fill-rule="evenodd" clip-rule="evenodd" d="M730.798 576.123L717.656 627.53H677.514L683.5 576.123H730.798Z" fill="#FFC700"/>
<path fill-rule="evenodd" clip-rule="evenodd" d="M738.19 576.123C742.516 589.066 743.336 606.201 740.656 627.53H699.692L688.429 576.123H738.19Z" fill="#FCD800"/>
<path fill-rule="evenodd" clip-rule="evenodd" d="M762.156 547.814L744.208 547.881C763.887 592.096 774.147 615.247 774.99 617.332C776.889 622.025 772.874 629.171 771.159 633.012C776.748 635.509 776.151 626.261 783.202 629.536C789.637 632.526 794.534 637.943 801.969 633.362C802.884 632.799 803.885 630.678 801.464 629.021C795.436 624.893 786.744 617.667 785.57 615.289C783.97 612.045 776.164 589.554 762.156 547.814Z" fill="#D6A97F"/>
<path d="M627.952 561.776L660.154 556.339L658.94 571.884L630.773 569.789C620.307 574.226 615.004 575.601 614.866 573.914C614.656 571.383 618.054 570.95 618.188 569.22C618.326 567.49 613.816 565.4 609.454 563.601C605.092 561.801 607.247 560.545 608.723 560.132C614.289 559.726 620.701 560.274 627.952 561.776Z" fill="#D6A97F"/>
<path fill-rule="evenodd" clip-rule="evenodd" d="M713.009 490.985L698.958 491.92C695.498 523.18 679.404 552.059 638.655 558.095L652.653 596.281C675.993 587.033 698.594 563.818 705.685 521.126C707.518 510.075 713.251 500.574 713.009 490.985Z" fill="#44BA74"/>
<path fill-rule="evenodd" clip-rule="evenodd" d="M719.942 486.905L698.652 491.774C698.652 528.334 686.989 551.661 681.007 578.541H738.499C739.309 587.829 739.807 597.376 740.067 607.181H783.117C773.363 555.354 752.772 515.258 721.345 486.892H719.951L719.942 486.905Z" fill="#67D995"/>
<path fill-rule="evenodd" clip-rule="evenodd" d="M729.421 526.386C730.903 549.169 730.031 566.555 726.807 578.545H738.493C736.889 560.145 734.055 542.759 729.421 526.386Z" fill="#44BA74"/>
</g>
<defs>
<clipPath id="clip0_570_1975">
<rect width="949" height="982" fill="white"/>
</clipPath>
</defs>
</svg>
