<svg xmlns="http://www.w3.org/2000/svg" width="20" height="20" viewBox="0 0 20 20" fill="none">
  <path d="M9.41617 8.21341V9.31047H6.17352V10.8619H9.57793C9.94678 10.8615 10.3004 10.7149 10.5612 10.454C10.822 10.1932 10.9687 9.8396 10.9691 9.47076V5.33105H9.41617V8.21341Z" fill="#4D4D4D"/>
  <path d="M9.97057 2.13086C8.39995 2.13086 6.86461 2.5966 5.55869 3.46919C4.25277 4.34178 3.23493 5.58202 2.63388 7.03308C2.03283 8.48414 1.87557 10.0808 2.18198 11.6213C2.48839 13.1617 3.24472 14.5767 4.35531 15.6873C5.4659 16.7979 6.88088 17.5542 8.42132 17.8606C9.96176 18.167 11.5585 18.0098 13.0095 17.4087C14.4606 16.8077 15.7008 15.7898 16.5734 14.4839C17.446 13.178 17.9117 11.6427 17.9117 10.072C17.9117 7.9659 17.0751 5.94604 15.5858 4.45678C14.0966 2.96752 12.0767 2.13086 9.97057 2.13086ZM9.97057 16.45C8.70822 16.4503 7.47412 16.0763 6.42427 15.3753C5.37442 14.6744 4.55596 13.6779 4.07234 12.5119C3.58873 11.3458 3.46167 10.0626 3.70723 8.82434C3.95279 7.5861 4.55994 6.44846 5.45194 5.55523C6.34394 4.662 7.48074 4.05327 8.71863 3.806C9.95653 3.55873 11.2399 3.68402 12.4067 4.16602C13.5734 4.64803 14.571 5.46511 15.2734 6.51399C15.9758 7.56287 16.3515 8.79645 16.3529 10.0588C16.3525 11.7521 15.6802 13.376 14.4836 14.574C13.287 15.772 11.6638 16.4462 9.97057 16.4485V16.45Z" fill="#4D4D4D"/>
</svg>