<svg width="29" height="24" viewBox="0 0 29 24" fill="none" xmlns="http://www.w3.org/2000/svg">
<path d="M19.2401 18.6747V21.0756C19.2386 21.1987 19.1891 21.3163 19.1023 21.4036C19.0154 21.4908 18.8979 21.5407 18.7748 21.5428H2.53825C2.41515 21.5413 2.29749 21.4918 2.21025 21.4049C2.12301 21.3181 2.07308 21.2006 2.07104 21.0775V13.928L10.0804 19.2636C10.2507 19.3772 10.4508 19.4379 10.6556 19.4379C10.8603 19.4379 11.0604 19.3772 11.2307 19.2636L14.5248 17.065C13.913 16.6725 13.3439 16.2172 12.8267 15.7065L10.6556 17.1671L3.32152 12.2594H10.5123C10.2386 11.5947 10.0353 10.9032 9.90567 10.1962H2.53825C1.86618 10.1998 1.22266 10.4684 0.747425 10.9436C0.272191 11.4189 0.00360922 12.0624 0 12.7345V21.0814C0.00360922 21.7535 0.272191 22.397 0.747425 22.8723C1.22266 23.3475 1.86618 23.6161 2.53825 23.6197H18.7729C19.4459 23.6192 20.0912 23.3516 20.5671 22.8757C21.043 22.3998 21.3106 21.7545 21.3111 21.0814V18.6512C20.9202 18.697 20.5269 18.7206 20.1333 18.7218C19.827 18.7199 19.5326 18.7042 19.2401 18.6747ZM19.0929 12.5166H21.1639V10.4494H19.0909L19.0929 12.5166ZM20.1294 0C18.4835 0 16.8747 0.488045 15.5062 1.40242C14.1377 2.31679 13.0712 3.61643 12.4413 5.13698C11.8115 6.65753 11.6467 8.3307 11.9678 9.94491C12.2889 11.5591 13.0814 13.0419 14.2452 14.2056C15.409 15.3694 16.8917 16.162 18.5059 16.483C20.1201 16.8041 21.7933 16.6393 23.3138 16.0095C24.8344 15.3797 26.134 14.3131 27.0484 12.9446C27.9628 11.5762 28.4508 9.9673 28.4508 8.32147C28.4472 6.11562 27.5689 4.00124 26.0086 2.44201C24.4482 0.882791 22.3332 0.00600218 20.1274 0.00392614L20.1294 0ZM20.1294 14.568C18.8932 14.5684 17.6847 14.2021 16.6567 13.5155C15.6288 12.8288 14.8276 11.8528 14.3546 10.7107C13.8815 9.56862 13.7578 8.3119 13.9992 7.09953C14.2405 5.88715 14.8361 4.77361 15.7105 3.89979C16.5848 3.02596 17.6987 2.43112 18.9113 2.19053C20.1238 1.94994 21.3804 2.07441 22.5222 2.54818C23.664 3.02196 24.6396 3.82376 25.3255 4.85213C26.0115 5.8805 26.377 7.08923 26.3759 8.32539C26.3743 9.98211 25.7155 11.5705 24.544 12.742C23.3725 13.9135 21.7841 14.5723 20.1274 14.5739L20.1294 14.568ZM19.0929 8.37251H21.1639V4.13031H19.0909L19.0929 8.37251Z" fill="#00A6CA"/>
</svg>
