<svg width="28" height="23" viewBox="0 0 28 23" fill="none" xmlns="http://www.w3.org/2000/svg">
<path fill-rule="evenodd" clip-rule="evenodd" d="M13.2053 0.0326839C12.6943 0.175026 1.5507 4.88755 1.21456 5.10355C0.27815 5.70505 -0.163812 6.6241 0.0552153 7.51471C0.302862 8.52203 0.846522 8.97393 2.81629 9.8097C3.53504 10.1146 4.18262 10.3893 4.25517 10.4202C4.35867 10.4642 4.38718 11.8307 4.38718 16.7382V23H5.54885H6.71051V17.2674C6.71051 14.0355 6.75107 11.5348 6.80355 11.5348C6.85467 11.5348 8.29228 12.1285 9.99814 12.8541L13.0997 14.1734L13.9973 14.1791L14.895 14.1848L18.0352 12.8598C19.7623 12.131 21.1999 11.5348 21.2298 11.5348C21.2597 11.5348 21.2842 12.6759 21.2842 14.0707V16.6065L20.7297 16.3561C18.7433 15.4591 16.2066 15.7659 14.4865 17.1111L13.9973 17.4937L13.5082 17.1111C12.4584 16.2901 11.2053 15.8613 9.85652 15.8613H9.03385L9.03417 17.024L9.03438 18.1868L9.79981 18.1986C11.1693 18.2198 11.9626 18.6841 13.1667 20.1691C13.4144 20.4745 13.5058 20.5123 13.9973 20.5123C14.4888 20.5123 14.5803 20.4745 14.8279 20.1691C15.599 19.2181 16.2025 18.6938 16.7816 18.4719C17.7358 18.1063 18.4003 18.0687 19.2474 18.3323C20.1173 18.6029 20.7149 19.0229 21.2552 19.7434C21.4745 20.0358 21.763 20.3284 21.8964 20.3936C22.2479 20.5656 22.7838 20.5392 23.0671 20.3359C23.5873 19.9627 23.6074 19.7635 23.6084 14.9724L23.6095 10.5072L25.0077 9.93171C27.0556 9.0888 27.6797 8.59255 27.9493 7.59259C28.1379 6.8931 27.7832 5.91109 27.1727 5.44221C26.6278 5.02384 26.2644 4.85932 20.4227 2.38662C15.2922 0.214938 14.8419 0.044149 14.1557 0.0102942C13.7492 -0.00971584 13.3215 0.000343344 13.2053 0.0326839ZM19.644 4.62623C22.608 5.88319 25.1247 6.96027 25.2366 7.01987C25.4308 7.12316 25.4284 7.13441 25.1838 7.26345C24.2877 7.73644 14.2746 11.8593 14.0218 11.8593C13.7374 11.8593 9.93752 10.3294 9.74109 10.1359C9.69442 10.09 11.5116 9.27852 13.7792 8.33285C16.0467 7.38719 17.9027 6.58581 17.9034 6.55217C17.9041 6.51853 17.2514 6.21579 16.4527 5.8794L15.0006 5.26774L10.7549 7.04442L6.50923 8.8211L4.55298 7.9876C3.47707 7.5292 2.59568 7.12424 2.5943 7.08758C2.58976 6.9633 13.6255 2.35266 13.9413 2.34682C14.1196 2.34347 16.5786 3.32634 19.644 4.62623Z" fill="#00A6CA"/>
</svg>
