<svg width="21" height="27" viewBox="0 0 21 27" fill="none" xmlns="http://www.w3.org/2000/svg">
<g style="mix-blend-mode:multiply">
<path d="M17.4884 0.53942V5.70994H2.86171V3.68819C2.86556 3.53169 2.93011 3.38281 3.04173 3.27304C3.15335 3.16326 3.30328 3.1012 3.45983 3.09996H14.8859V0.480103H3.45983C2.60768 0.480103 1.79043 0.818618 1.18787 1.42118C0.585311 2.02374 0.246796 2.84099 0.246796 3.69314V23.787C0.246796 24.6391 0.585311 25.4564 1.18787 26.0589C1.79043 26.6615 2.60768 27 3.45983 27H16.8953C17.7474 27 18.5647 26.6615 19.1672 26.0589C19.7698 25.4564 20.1083 24.6391 20.1083 23.787V3.68819C20.1062 2.94051 19.8434 2.21696 19.3652 1.6422C18.887 1.06744 18.2233 0.677452 17.4884 0.53942ZM8.87009 24.3801H3.45983C3.30244 24.3789 3.15179 24.3161 3.04004 24.2053C2.92828 24.0945 2.86429 23.9443 2.86171 23.787V21.7702H8.87009V24.3801ZM17.4884 23.7845C17.4865 23.9415 17.4235 24.0915 17.3127 24.2027C17.202 24.3139 17.0522 24.3776 16.8953 24.3801H11.485V21.7677H17.4884V23.7845ZM17.4884 19.1528H2.86171V8.31002H17.486L17.4884 19.1528Z" fill="#00A6CA"/>
</g>
</svg>
