<svg xmlns="http://www.w3.org/2000/svg" width="16" height="16" viewBox="0 0 16 16" fill="none">
  <path d="M13.8333 3.555H12.99V2.16667C12.99 1.59203 12.7617 1.04093 12.3554 0.634602C11.9491 0.228273 11.398 0 10.8233 0H2.65667C1.95317 0.00263141 1.27922 0.283146 0.781615 0.780438C0.28401 1.27773 0.00307288 1.95151 0 2.655V13.3483C0.00165673 13.8518 0.178571 14.3389 0.500353 14.7261C0.822135 15.1133 1.2687 15.3763 1.76333 15.47V5.15667C2.04975 5.26057 2.35199 5.31413 2.65667 5.315H13.835C13.9408 5.31673 14.0418 5.35965 14.1165 5.43465C14.1912 5.50966 14.2337 5.61082 14.235 5.71667V13.3833C14.2337 13.4892 14.1912 13.5903 14.1165 13.6653C14.0418 13.7403 13.9408 13.7833 13.835 13.785H3.53167V15.555H13.8333C14.408 15.555 14.9591 15.3267 15.3654 14.9204C15.7717 14.5141 16 13.963 16 13.3883V5.72167C16 5.14703 15.7717 4.59593 15.3654 4.1896C14.9591 3.78327 14.408 3.555 13.8333 3.555ZM11.2317 3.555H2.655C2.4241 3.54504 2.20596 3.4463 2.04609 3.27939C1.88622 3.11248 1.79698 2.89029 1.79698 2.65917C1.79698 2.42805 1.88622 2.20585 2.04609 2.03894C2.20596 1.87203 2.4241 1.7733 2.655 1.76333H10.8217C10.9275 1.76462 11.0287 1.80712 11.1037 1.88182C11.1787 1.95651 11.2216 2.0575 11.2233 2.16333L11.2317 3.555ZM10.715 8.67333V10.4383H12.475V8.67333H10.715Z" fill="#F26842"/>
</svg>